ISO-10303-21;
HEADER;
FILE_DESCRIPTION (( 'STEP AP203' ),
    '1' );
FILE_NAME ('rhtgktybt.STEP',
    '2024-03-25T11:59:02',
    ( '' ),
    ( '' ),
    'SwSTEP 2.0',
    'SolidWorks 2018',
    '' );
FILE_SCHEMA (( 'CONFIG_CONTROL_DESIGN' ));
ENDSEC;

DATA;
#1 = DIRECTION ( 'NONE',  ( -1.000000000000000000, 0.0000000000000000000, 0.0000000000000000000 ) ) ;
#2 = CALENDAR_DATE ( 2024, 25, 3 ) ;
#3 = EDGE_CURVE ( 'NONE', #685, #626, #751, .T. ) ;
#4 = ORIENTED_EDGE ( 'NONE', *, *, #305, .F. ) ;
#5 = ORIENTED_EDGE ( 'NONE', *, *, #252, .T. ) ;
#6 = ORIENTED_EDGE ( 'NONE', *, *, #643, .F. ) ;
#7 = ORIENTED_EDGE ( 'NONE', *, *, #292, .T. ) ;
#8 = CARTESIAN_POINT ( 'NONE',  ( 19.00000000000000355, 0.0000000000000000000, 4.000000000000000000 ) ) ;
#9 = ADVANCED_FACE ( 'NONE', ( #1220 ), #987, .T. ) ;
#10 = LINE ( 'NONE', #288, #496 ) ;
#11 = PLANE ( 'NONE',  #1223 ) ;
#12 = DIRECTION ( 'NONE',  ( 0.0000000000000000000, 0.0000000000000000000, 1.000000000000000000 ) ) ;
#13 = EDGE_CURVE ( 'NONE', #687, #895, #1256, .T. ) ;
#14 = EDGE_CURVE ( 'NONE', #836, #488, #212, .T. ) ;
#15 = DIRECTION ( 'NONE',  ( 1.000000000000000000, 0.0000000000000000000, 0.0000000000000000000 ) ) ;
#16 = FACE_OUTER_BOUND ( 'NONE', #468, .T. ) ;
#17 = LINE ( 'NONE', #312, #572 ) ;
#18 = DIRECTION ( 'NONE',  ( -0.0000000000000000000, -0.0000000000000000000, 1.000000000000000000 ) ) ;
#19 = ORIENTED_EDGE ( 'NONE', *, *, #1118, .T. ) ;
#20 = AXIS2_PLACEMENT_3D ( 'NONE', #732, #47, #942 ) ;
#21 = LOCAL_TIME ( 14, 59, 2.000000000000000000, #491 ) ;
#22 = ORIENTED_EDGE ( 'NONE', *, *, #1190, .T. ) ;
#23 = ADVANCED_FACE ( 'NONE', ( #1094 ), #810, .F. ) ;
#24 = ORIENTED_EDGE ( 'NONE', *, *, #1038, .F. ) ;
#25 = AXIS2_PLACEMENT_3D ( 'NONE', #42, #660, #363 ) ;
#26 = CARTESIAN_POINT ( 'NONE',  ( 5.000000000000000888, 0.4999999999999998890, 6.650000000000000355 ) ) ;
#27 = VECTOR ( 'NONE', #1103, 1000.000000000000000 ) ;
#28 = DIRECTION ( 'NONE',  ( 0.0000000000000000000, 0.0000000000000000000, 1.000000000000000000 ) ) ;
#29 = DIRECTION ( 'NONE',  ( 1.000000000000000000, -1.113315271952140498E-17, 0.0000000000000000000 ) ) ;
#30 = EDGE_CURVE ( 'NONE', #626, #609, #780, .T. ) ;
#31 = PRODUCT ( 'rhtgktybt', 'rhtgktybt', '', ( #647 ) ) ;
#32 = CARTESIAN_POINT ( 'NONE',  ( 1.150484070504454626E-15, -12.70000000000000639, 0.0000000000000000000 ) ) ;
#33 = DIRECTION ( 'NONE',  ( -0.0000000000000000000, 0.0000000000000000000, -1.000000000000000000 ) ) ;
#34 = LINE ( 'NONE', #550, #1297 ) ;
#35 = ORIENTED_EDGE ( 'NONE', *, *, #1282, .F. ) ;
#36 = CARTESIAN_POINT ( 'NONE',  ( 19.00000000000000355, 0.0000000000000000000, 10.00000000000000000 ) ) ;
#37 = VERTEX_POINT ( 'NONE', #455 ) ;
#38 = DIRECTION ( 'NONE',  ( 0.0000000000000000000, 0.0000000000000000000, 1.000000000000000000 ) ) ;
#39 = ORIENTED_EDGE ( 'NONE', *, *, #353, .F. ) ;
#40 = EDGE_CURVE ( 'NONE', #975, #488, #1079, .T. ) ;
#41 = ORIENTED_EDGE ( 'NONE', *, *, #1061, .T. ) ;
#42 = CARTESIAN_POINT ( 'NONE',  ( 0.0000000000000000000, 0.0000000000000000000, 0.0000000000000000000 ) ) ;
#43 = EDGE_LOOP ( 'NONE', ( #949, #83, #769, #495, #335, #1068 ) ) ;
#44 = CYLINDRICAL_SURFACE ( 'NONE', #182, 1.650000000000002132 ) ;
#45 = DIRECTION ( 'NONE',  ( 0.0000000000000000000, 1.000000000000000000, 0.0000000000000000000 ) ) ;
#46 = APPLICATION_CONTEXT ( 'configuration controlled 3d designs of mechanical parts and assemblies' ) ;
#47 = DIRECTION ( 'NONE',  ( 1.728896933618474661E-16, -1.000000000000000000, -0.0000000000000000000 ) ) ;
#48 = AXIS2_PLACEMENT_3D ( 'NONE', #256, #49, #1063 ) ;
#49 = DIRECTION ( 'NONE',  ( -1.000000000000000000, 0.0000000000000000000, 0.0000000000000000000 ) ) ;
#50 = FACE_OUTER_BOUND ( 'NONE', #164, .T. ) ;
#51 = VECTOR ( 'NONE', #996, 1000.000000000000000 ) ;
#52 = LINE ( 'NONE', #1089, #1095 ) ;
#53 = EDGE_LOOP ( 'NONE', ( #19, #672, #68, #1113, #1207, #330 ) ) ;
#54 = DIRECTION ( 'NONE',  ( 1.000000000000000000, 0.0000000000000000000, 0.0000000000000000000 ) ) ;
#55 = ORIENTED_EDGE ( 'NONE', *, *, #1099, .F. ) ;
#56 = CARTESIAN_POINT ( 'NONE',  ( 6.650000000000003020, -12.20000000000000639, 5.000000000000000000 ) ) ;
#57 = ORIENTED_EDGE ( 'NONE', *, *, #482, .F. ) ;
#58 = CARTESIAN_POINT ( 'NONE',  ( 11.00000000000000000, -1.224646799147354440E-16, 0.0000000000000000000 ) ) ;
#59 = DIRECTION ( 'NONE',  ( 0.0000000000000000000, 1.000000000000000000, 1.302086050141611115E-32 ) ) ;
#60 = EDGE_CURVE ( 'NONE', #700, #67, #34, .T. ) ;
#61 = PLANE ( 'NONE',  #300 ) ;
#62 = CARTESIAN_POINT ( 'NONE',  ( 5.000000000000001776, -14.20000000000000462, 5.000000000000000000 ) ) ;
#63 = AXIS2_PLACEMENT_3D ( 'NONE', #1120, #824, #606 ) ;
#64 = MANIFOLD_SOLID_BREP ( 'Переместить грань2', #199 ) ;
#65 = LINE ( 'NONE', #81, #1124 ) ;
#66 = EDGE_LOOP ( 'NONE', ( #97, #385 ) ) ;
#67 = VERTEX_POINT ( 'NONE', #261 ) ;
#68 = ORIENTED_EDGE ( 'NONE', *, *, #570, .F. ) ;
#69 = ORIENTED_EDGE ( 'NONE', *, *, #708, .F. ) ;
#70 = EDGE_CURVE ( 'NONE', #892, #896, #393, .T. ) ;
#71 = CARTESIAN_POINT ( 'NONE',  ( 6.650000000000001243, 3.874650668291762330E-18, 5.000000000000000000 ) ) ;
#72 = CARTESIAN_POINT ( 'NONE',  ( 1.058181320345853511E-15, -12.20000000000000639, 0.0000000000000000000 ) ) ;
#73 = EDGE_CURVE ( 'NONE', #200, #673, #556, .T. ) ;
#74 = CARTESIAN_POINT ( 'NONE',  ( 19.00000000000000355, -1.361958008775165758E-15, 10.00000000000000000 ) ) ;
#75 = FACE_OUTER_BOUND ( 'NONE', #1026, .T. ) ;
#76 = VECTOR ( 'NONE', #764, 1000.000000000000000 ) ;
#77 = AXIS2_PLACEMENT_3D ( 'NONE', #1287, #680, #190 ) ;
#78 = EDGE_LOOP ( 'NONE', ( #24, #177, #280, #285 ) ) ;
#79 = CARTESIAN_POINT ( 'NONE',  ( 11.00000000000000178, -12.20000000000000462, 10.00000000000000000 ) ) ;
#80 = ORIENTED_EDGE ( 'NONE', *, *, #1312, .F. ) ;
#81 = CARTESIAN_POINT ( 'NONE',  ( 1.405126015541214930E-15, -14.20000000000000639, 0.0000000000000000000 ) ) ;
#82 = ORIENTED_EDGE ( 'NONE', *, *, #70, .F. ) ;
#83 = ORIENTED_EDGE ( 'NONE', *, *, #760, .T. ) ;
#84 = AXIS2_PLACEMENT_3D ( 'NONE', #8, #933, #209 ) ;
#85 = CYLINDRICAL_SURFACE ( 'NONE', #1129, 1.650000000000000355 ) ;
#86 = DIRECTION ( 'NONE',  ( 0.0000000000000000000, -1.000000000000000000, 0.0000000000000000000 ) ) ;
#87 = AXIS2_PLACEMENT_3D ( 'NONE', #32, #839, #941 ) ;
#88 = DIRECTION ( 'NONE',  ( -1.000000000000000000, 0.0000000000000000000, 0.0000000000000000000 ) ) ;
#89 = VECTOR ( 'NONE', #149, 1000.000000000000000 ) ;
#90 = EDGE_CURVE ( 'NONE', #255, #1057, #1141, .T. ) ;
#91 = CARTESIAN_POINT ( 'NONE',  ( 17.65000000000000924, -9.100000000000003197, 0.0000000000000000000 ) ) ;
#92 = DIRECTION ( 'NONE',  ( -1.734723475976808080E-16, 1.000000000000000000, 0.0000000000000000000 ) ) ;
#93 = VECTOR ( 'NONE', #144, 1000.000000000000000 ) ;
#94 = ORIENTED_EDGE ( 'NONE', *, *, #1138, .F. ) ;
#95 = DIRECTION ( 'NONE',  ( 0.0000000000000000000, 0.0000000000000000000, 1.000000000000000000 ) ) ;
#96 = CALENDAR_DATE ( 2024, 25, 3 ) ;
#97 = ORIENTED_EDGE ( 'NONE', *, *, #788, .F. ) ;
#98 = EDGE_LOOP ( 'NONE', ( #884, #1157, #112, #242, #897, #1074 ) ) ;
#99 = DIRECTION ( 'NONE',  ( 1.000000000000000000, 0.0000000000000000000, 0.0000000000000000000 ) ) ;
#100 = ADVANCED_FACE ( 'NONE', ( #748 ), #1196, .F. ) ;
#101 = ORIENTED_EDGE ( 'NONE', *, *, #3, .F. ) ;
#102 = DIRECTION ( 'NONE',  ( -1.846055003172022053E-16, 1.000000000000000000, -0.0000000000000000000 ) ) ;
#103 = VERTEX_POINT ( 'NONE', #72 ) ;
#104 = CARTESIAN_POINT ( 'NONE',  ( 3.350000000000000977, -14.20000000000000462, 5.000000000000000000 ) ) ;
#105 = EDGE_CURVE ( 'NONE', #524, #628, #65, .T. ) ;
#106 = DIRECTION ( 'NONE',  ( -1.000000000000000000, 0.0000000000000000000, 0.0000000000000000000 ) ) ;
#107 = DIRECTION ( 'NONE',  ( 5.826542358333473423E-19, -1.000000000000000000, -0.0000000000000000000 ) ) ;
#108 = CARTESIAN_POINT ( 'NONE',  ( 11.00000000000000178, -10.10000000000000320, 9.000000000000001776 ) ) ;
#109 = CIRCLE ( 'NONE', #903, 1.650000000000000355 ) ;
#110 = AXIS2_PLACEMENT_3D ( 'NONE', #1221, #226, #709 ) ;
#111 = FACE_OUTER_BOUND ( 'NONE', #1146, .T. ) ;
#112 = ORIENTED_EDGE ( 'NONE', *, *, #762, .T. ) ;
#113 = CARTESIAN_POINT ( 'NONE',  ( 5.999999999999999112, -14.20000000000000462, 10.00000000000000000 ) ) ;
#114 = CARTESIAN_POINT ( 'NONE',  ( 6.000000000000000888, -12.20000000000000462, 4.000000000000000000 ) ) ;
#115 = VERTEX_POINT ( 'NONE', #289 ) ;
#116 = AXIS2_PLACEMENT_3D ( 'NONE', #971, #539, #1064 ) ;
#117 = DIRECTION ( 'NONE',  ( -1.034363959891422675E-16, 1.000000000000000000, -0.0000000000000000000 ) ) ;
#118 = ORIENTED_EDGE ( 'NONE', *, *, #962, .F. ) ;
#119 = ORIENTED_EDGE ( 'NONE', *, *, #14, .T. ) ;
#120 = ORIENTED_EDGE ( 'NONE', *, *, #73, .F. ) ;
#121 = CARTESIAN_POINT ( 'NONE',  ( 1.144917494144693866E-15, -12.70000000000000639, 10.00000000000000000 ) ) ;
#122 = CARTESIAN_POINT ( 'NONE',  ( 18.99999999999999645, 1.999999999999998224, 10.00000000000000000 ) ) ;
#123 = CARTESIAN_POINT ( 'NONE',  ( 11.00000000000000000, -1.224646799147354440E-16, 10.00000000000000000 ) ) ;
#124 = CARTESIAN_POINT ( 'NONE',  ( 11.00000000000000000, -2.100000000000000977, 10.00000000000000000 ) ) ;
#125 = DIRECTION ( 'NONE',  ( -1.113315271952140652E-17, -1.000000000000000000, -0.0000000000000000000 ) ) ;
#126 = EDGE_CURVE ( 'NONE', #896, #398, #946, .T. ) ;
#127 = CARTESIAN_POINT ( 'NONE',  ( 1.144917494144693866E-15, -12.70000000000000639, 3.349999999999999645 ) ) ;
#128 = LINE ( 'NONE', #652, #365 ) ;
#129 = VECTOR ( 'NONE', #59, 1000.000000000000000 ) ;
#130 = CIRCLE ( 'NONE', #1088, 1.650000000000000355 ) ;
#131 = VERTEX_POINT ( 'NONE', #298 ) ;
#132 = DATE_AND_TIME ( #96, #21 ) ;
#133 = ORIENTED_EDGE ( 'NONE', *, *, #786, .F. ) ;
#134 = DIRECTION ( 'NONE',  ( 0.0000000000000000000, 0.0000000000000000000, 1.000000000000000000 ) ) ;
#135 = LINE ( 'NONE', #258, #1177 ) ;
#136 = VERTEX_POINT ( 'NONE', #198 ) ;
#137 = DIRECTION ( 'NONE',  ( -1.000000000000000000, -2.735525481348043208E-16, 0.0000000000000000000 ) ) ;
#138 = ORIENTED_EDGE ( 'NONE', *, *, #1183, .T. ) ;
#139 = CARTESIAN_POINT ( 'NONE',  ( 1.405126015541214930E-15, -14.20000000000000639, 10.00000000000000000 ) ) ;
#140 = AXIS2_PLACEMENT_3D ( 'NONE', #157, #1168, #1158 ) ;
#141 = EDGE_CURVE ( 'NONE', #1130, #544, #351, .T. ) ;
#142 =( NAMED_UNIT ( * ) SI_UNIT ( $, .STERADIAN. ) SOLID_ANGLE_UNIT ( ) );
#143 = CARTESIAN_POINT ( 'NONE',  ( 1.144917494144693866E-15, -12.70000000000000639, 4.000000000000000000 ) ) ;
#144 = DIRECTION ( 'NONE',  ( 0.0000000000000000000, -1.000000000000000000, -1.302086050141611115E-32 ) ) ;
#145 = LINE ( 'NONE', #549, #293 ) ;
#146 = APPROVAL_ROLE ( '' ) ;
#147 = VECTOR ( 'NONE', #264, 1000.000000000000000 ) ;
#148 = ORIENTED_EDGE ( 'NONE', *, *, #560, .T. ) ;
#149 = DIRECTION ( 'NONE',  ( -1.113315271952140652E-17, -1.000000000000000000, -0.0000000000000000000 ) ) ;
#150 = ORIENTED_EDGE ( 'NONE', *, *, #835, .T. ) ;
#151 = ORIENTED_EDGE ( 'NONE', *, *, #650, .T. ) ;
#152 = EDGE_CURVE ( 'NONE', #103, #882, #765, .T. ) ;
#153 = ORIENTED_EDGE ( 'NONE', *, *, #625, .T. ) ;
#154 = APPLICATION_PROTOCOL_DEFINITION ( 'international standard', 'config_control_design', 1994, #649 ) ;
#155 = AXIS2_PLACEMENT_3D ( 'NONE', #441, #861, #350 ) ;
#156 = VERTEX_POINT ( 'NONE', #1294 ) ;
#157 = CARTESIAN_POINT ( 'NONE',  ( 16.00000000000000711, -9.100000000000003197, 0.0000000000000000000 ) ) ;
#158 = CARTESIAN_POINT ( 'NONE',  ( 5.000000000000000888, 0.4999999999999998890, 3.349999999999999645 ) ) ;
#159 = CC_DESIGN_PERSON_AND_ORGANIZATION_ASSIGNMENT ( #449, #442, ( #746 ) ) ;
#160 = VECTOR ( 'NONE', #684, 1000.000000000000000 ) ;
#161 = CARTESIAN_POINT ( 'NONE',  ( 12.99999999999999822, -2.120644211239979803E-15, 2.000000000000001776 ) ) ;
#162 = VECTOR ( 'NONE', #510, 1000.000000000000000 ) ;
#163 = CIRCLE ( 'NONE', #1025, 5.999999999999998224 ) ;
#164 = EDGE_LOOP ( 'NONE', ( #978, #219, #416, #1080, #1082, #7 ) ) ;
#165 = PERSON_AND_ORGANIZATION ( #532, #1274 ) ;
#166 = ORIENTED_EDGE ( 'NONE', *, *, #437, .T. ) ;
#167 = EDGE_CURVE ( 'NONE', #913, #398, #192, .T. ) ;
#168 = CARTESIAN_POINT ( 'NONE',  ( 5.999999999999998224, 1.999999999999999556, 10.00000000000000000 ) ) ;
#169 = ORIENTED_EDGE ( 'NONE', *, *, #778, .T. ) ;
#170 = VERTEX_POINT ( 'NONE', #805 ) ;
#171 = DIRECTION ( 'NONE',  ( -1.000000000000000000, -1.000802005371235004E-16, -1.301042606982605567E-16 ) ) ;
#172 = CIRCLE ( 'NONE', #727, 1.650000000000000355 ) ;
#173 = EDGE_CURVE ( 'NONE', #740, #851, #1106, .T. ) ;
#174 = FACE_BOUND ( 'NONE', #268, .T. ) ;
#175 = DIRECTION ( 'NONE',  ( -0.0000000000000000000, -0.0000000000000000000, 1.000000000000000000 ) ) ;
#176 = VECTOR ( 'NONE', #808, 1000.000000000000000 ) ;
#177 = ORIENTED_EDGE ( 'NONE', *, *, #1183, .F. ) ;
#178 = DATE_AND_TIME ( #1004, #239 ) ;
#179 = ORIENTED_EDGE ( 'NONE', *, *, #1076, .T. ) ;
#180 = DIRECTION ( 'NONE',  ( 1.000000000000000000, 2.891205793294678819E-16, -8.673617379884036458E-16 ) ) ;
#181 = VERTEX_POINT ( 'NONE', #74 ) ;
#182 = AXIS2_PLACEMENT_3D ( 'NONE', #387, #1307, #809 ) ;
#183 = EDGE_LOOP ( 'NONE', ( #659, #150, #1225, #894, #1161, #465 ) ) ;
#184 = DIRECTION ( 'NONE',  ( 1.728896933618474661E-16, -1.000000000000000000, -0.0000000000000000000 ) ) ;
#185 = CARTESIAN_POINT ( 'NONE',  ( 14.35000000000000497, -9.100000000000003197, 0.0000000000000000000 ) ) ;
#186 = DIRECTION ( 'NONE',  ( -1.000000000000000000, -1.846055003172022053E-16, 0.0000000000000000000 ) ) ;
#187 = DIRECTION ( 'NONE',  ( 1.000000000000000000, -1.113315271952140498E-17, -0.0000000000000000000 ) ) ;
#188 = DIRECTION ( 'NONE',  ( 1.000000000000000000, 1.034363959891422675E-16, 1.301042606982605567E-16 ) ) ;
#189 = LINE ( 'NONE', #1291, #160 ) ;
#190 = DIRECTION ( 'NONE',  ( 1.000000000000000000, 0.0000000000000000000, 0.0000000000000000000 ) ) ;
#191 = LINE ( 'NONE', #919, #162 ) ;
#192 = LINE ( 'NONE', #1292, #637 ) ;
#193 = ORIENTED_EDGE ( 'NONE', *, *, #926, .T. ) ;
#194 = EDGE_CURVE ( 'NONE', #452, #836, #1203, .T. ) ;
#195 = CALENDAR_DATE ( 2024, 25, 3 ) ;
#196 = ORIENTED_EDGE ( 'NONE', *, *, #625, .F. ) ;
#197 = ADVANCED_FACE ( 'NONE', ( #600 ), #1173, .T. ) ;
#198 = CARTESIAN_POINT ( 'NONE',  ( 20.35000000000000497, -3.100000000000002309, 0.0000000000000000000 ) ) ;
#199 = CLOSED_SHELL ( 'NONE', ( #605, #723, #706, #23, #1209, #331, #403, #1215, #204, #1232, #1009, #823, #613, #197, #321, #1014, #222, #1102, #518, #921, #1107, #1029, #397, #100, #934, #502, #1224, #1311, #923, #1119, #597, #409, #807, #940, #9 ) ) ;
#200 = VERTEX_POINT ( 'NONE', #185 ) ;
#201 = CIRCLE ( 'NONE', #790, 1.650000000000000355 ) ;
#202 = CARTESIAN_POINT ( 'NONE',  ( 5.000000000000000888, 2.000000000000000000, 5.000000000000000000 ) ) ;
#203 = CARTESIAN_POINT ( 'NONE',  ( 0.0000000000000000000, 0.5000000000000000000, 4.000000000000000000 ) ) ;
#204 = ADVANCED_FACE ( 'NONE', ( #339 ), #302, .F. ) ;
#205 = PLANE ( 'NONE',  #771 ) ;
#206 = CARTESIAN_POINT ( 'NONE',  ( 0.0000000000000000000, 0.0000000000000000000, 10.00000000000000000 ) ) ;
#207 = AXIS2_PLACEMENT_3D ( 'NONE', #601, #816, #412 ) ;
#208 = CARTESIAN_POINT ( 'NONE',  ( 17.65000000000000924, -9.100000000000003197, 2.000000000000000888 ) ) ;
#209 = DIRECTION ( 'NONE',  ( 0.0000000000000000000, 0.0000000000000000000, 1.000000000000000000 ) ) ;
#210 = FACE_BOUND ( 'NONE', #506, .T. ) ;
#211 = CIRCLE ( 'NONE', #1171, 1.649999999999998579 ) ;
#212 = LINE ( 'NONE', #1268, #1189 ) ;
#213 = CARTESIAN_POINT ( 'NONE',  ( 12.99999999999999822, -10.10000000000000142, 2.000000000000000000 ) ) ;
#214 = PERSON_AND_ORGANIZATION ( #532, #1274 ) ;
#215 = ORIENTED_EDGE ( 'NONE', *, *, #1028, .F. ) ;
#216 = EDGE_LOOP ( 'NONE', ( #267, #133, #1211, #931 ) ) ;
#217 = CARTESIAN_POINT ( 'NONE',  ( -0.6895995171110637090, -12.70000000000000639, 3.349999999999999645 ) ) ;
#218 = DIRECTION ( 'NONE',  ( 0.0000000000000000000, 1.000000000000000000, 0.0000000000000000000 ) ) ;
#219 = ORIENTED_EDGE ( 'NONE', *, *, #708, .T. ) ;
#220 = CARTESIAN_POINT ( 'NONE',  ( 24.00000000000000000, -2.100000000000000089, 10.00000000000000000 ) ) ;
#221 = ORIENTED_EDGE ( 'NONE', *, *, #60, .F. ) ;
#222 = ADVANCED_FACE ( 'NONE', ( #296 ), #1185, .F. ) ;
#223 = FACE_OUTER_BOUND ( 'NONE', #783, .T. ) ;
#224 = CARTESIAN_POINT ( 'NONE',  ( 22.00000000000000355, -3.100000000000002309, 2.000000000000001332 ) ) ;
#225 = EDGE_CURVE ( 'NONE', #492, #1194, #163, .T. ) ;
#226 = DIRECTION ( 'NONE',  ( 1.301042606982605567E-16, 1.302086050141611115E-32, -1.000000000000000000 ) ) ;
#227 = AXIS2_PLACEMENT_3D ( 'NONE', #787, #1201, #180 ) ;
#228 = CARTESIAN_POINT ( 'NONE',  ( 22.00000000000000355, -3.100000000000002309, 0.0000000000000000000 ) ) ;
#229 = DIRECTION ( 'NONE',  ( -1.301042606982605567E-16, -1.302086050141611115E-32, 1.000000000000000000 ) ) ;
#230 = CARTESIAN_POINT ( 'NONE',  ( 29.77091955290960712, -12.20000000000000462, 10.00000000000000000 ) ) ;
#231 = LINE ( 'NONE', #565, #1139 ) ;
#232 = AXIS2_PLACEMENT_3D ( 'NONE', #568, #554, #656 ) ;
#233 = VECTOR ( 'NONE', #425, 1000.000000000000000 ) ;
#234 = VECTOR ( 'NONE', #594, 1000.000000000000000 ) ;
#235 = CARTESIAN_POINT ( 'NONE',  ( 22.00000000000000355, -3.100000000000002309, 0.0000000000000000000 ) ) ;
#236 = VECTOR ( 'NONE', #29, 1000.000000000000000 ) ;
#237 = CC_DESIGN_SECURITY_CLASSIFICATION ( #1083, ( #746 ) ) ;
#238 = CARTESIAN_POINT ( 'NONE',  ( 22.00000000000000355, -3.100000000000002309, 0.0000000000000000000 ) ) ;
#239 = LOCAL_TIME ( 14, 59, 2.000000000000000000, #948 ) ;
#240 = ORIENTED_EDGE ( 'NONE', *, *, #225, .T. ) ;
#241 = ORIENTED_EDGE ( 'NONE', *, *, #1169, .T. ) ;
#242 = ORIENTED_EDGE ( 'NONE', *, *, #778, .F. ) ;
#243 = DIRECTION ( 'NONE',  ( -0.0000000000000000000, -0.0000000000000000000, 1.000000000000000000 ) ) ;
#244 = EDGE_CURVE ( 'NONE', #488, #882, #844, .T. ) ;
#245 = CARTESIAN_POINT ( 'NONE',  ( 0.0000000000000000000, 2.000000000000000000, 10.00000000000000000 ) ) ;
#246 = DIRECTION ( 'NONE',  ( 0.0000000000000000000, 0.0000000000000000000, -1.000000000000000000 ) ) ;
#247 = PLANE ( 'NONE',  #519 ) ;
#248 = FACE_OUTER_BOUND ( 'NONE', #78, .T. ) ;
#249 = DIRECTION ( 'NONE',  ( -0.0000000000000000000, 1.000000000000000000, -0.0000000000000000000 ) ) ;
#250 = VECTOR ( 'NONE', #1030, 1000.000000000000000 ) ;
#251 = VERTEX_POINT ( 'NONE', #322 ) ;
#252 = EDGE_CURVE ( 'NONE', #371, #381, #266, .T. ) ;
#253 = APPROVAL_DATE_TIME ( #603, #275 ) ;
#254 = EDGE_LOOP ( 'NONE', ( #475, #541, #885, #193 ) ) ;
#255 = VERTEX_POINT ( 'NONE', #726 ) ;
#256 = CARTESIAN_POINT ( 'NONE',  ( 12.99999999999999822, -12.20000000000000639, -19.73894265988904806 ) ) ;
#257 = ORIENTED_EDGE ( 'NONE', *, *, #1204, .F. ) ;
#258 = CARTESIAN_POINT ( 'NONE',  ( 0.6169246707852968914, -12.20000000000000639, 6.650000000000000355 ) ) ;
#259 = CARTESIAN_POINT ( 'NONE',  ( 19.00000000000000355, 0.0000000000000000000, 4.000000000000000000 ) ) ;
#260 = DIRECTION ( 'NONE',  ( -1.000000000000000000, 0.0000000000000000000, -0.0000000000000000000 ) ) ;
#261 = CARTESIAN_POINT ( 'NONE',  ( 12.99999999999999822, -12.20000000000000639, 10.00000000000000000 ) ) ;
#262 = CIRCLE ( 'NONE', #612, 6.000000000000000000 ) ;
#263 = DIRECTION ( 'NONE',  ( 0.0000000000000000000, -0.0000000000000000000, 1.000000000000000000 ) ) ;
#264 = DIRECTION ( 'NONE',  ( -1.000000000000000000, -1.846055003172022053E-16, 0.0000000000000000000 ) ) ;
#265 = VECTOR ( 'NONE', #1015, 1000.000000000000000 ) ;
#266 = LINE ( 'NONE', #599, #429 ) ;
#267 = ORIENTED_EDGE ( 'NONE', *, *, #70, .T. ) ;
#268 = EDGE_LOOP ( 'NONE', ( #1303, #849 ) ) ;
#269 = ORIENTED_EDGE ( 'NONE', *, *, #944, .T. ) ;
#270 = ORIENTED_EDGE ( 'NONE', *, *, #857, .F. ) ;
#271 = CARTESIAN_POINT ( 'NONE',  ( 1.058181320345853511E-15, -12.20000000000000639, 0.0000000000000000000 ) ) ;
#272 = LINE ( 'NONE', #1077, #303 ) ;
#273 = DIRECTION ( 'NONE',  ( 1.846055003172022053E-16, -1.000000000000000000, 0.0000000000000000000 ) ) ;
#274 = CARTESIAN_POINT ( 'NONE',  ( 22.00000000000000355, -3.100000000000002309, 0.0000000000000000000 ) ) ;
#275 = APPROVAL ( #756, 'UNSPECIFIED' ) ;
#276 = CARTESIAN_POINT ( 'NONE',  ( 19.00000000000000355, 1.999999999999998224, 4.000000000000000000 ) ) ;
#277 = LINE ( 'NONE', #1017, #1310 ) ;
#278 = ORIENTED_EDGE ( 'NONE', *, *, #244, .F. ) ;
#279 = APPROVAL_PERSON_ORGANIZATION ( #214, #662, #665 ) ;
#280 = ORIENTED_EDGE ( 'NONE', *, *, #1112, .T. ) ;
#281 = AXIS2_PLACEMENT_3D ( 'NONE', #235, #938, #638 ) ;
#282 = CARTESIAN_POINT ( 'NONE',  ( 25.00000000000000000, -4.336808689942017736E-16, 2.000000000000001776 ) ) ;
#283 = VERTEX_POINT ( 'NONE', #108 ) ;
#284 = DIRECTION ( 'NONE',  ( -0.0000000000000000000, -1.000000000000000000, -0.0000000000000000000 ) ) ;
#285 = ORIENTED_EDGE ( 'NONE', *, *, #1138, .T. ) ;
#286 = EDGE_LOOP ( 'NONE', ( #988, #1178, #915, #966 ) ) ;
#287 = FACE_OUTER_BOUND ( 'NONE', #1040, .T. ) ;
#288 = CARTESIAN_POINT ( 'NONE',  ( 6.650000000000002132, -14.20000000000000462, 5.000000000000000000 ) ) ;
#289 = CARTESIAN_POINT ( 'NONE',  ( 5.000000000000000888, -5.566576359760703568E-17, 3.349999999999999645 ) ) ;
#290 = CARTESIAN_POINT ( 'NONE',  ( 29.77091955290960357, -12.20000000000000462, 2.000000000000005329 ) ) ;
#291 = EDGE_CURVE ( 'NONE', #369, #1194, #974, .T. ) ;
#292 = EDGE_CURVE ( 'NONE', #1285, #719, #830, .T. ) ;
#293 = VECTOR ( 'NONE', #460, 1000.000000000000000 ) ;
#294 = CARTESIAN_POINT ( 'NONE',  ( 25.00000000000000000, 0.0000000000000000000, -0.0000000000000000000 ) ) ;
#295 = CIRCLE ( 'NONE', #774, 1.650000000000002132 ) ;
#296 = FACE_OUTER_BOUND ( 'NONE', #1301, .T. ) ;
#297 = ORIENTED_EDGE ( 'NONE', *, *, #420, .T. ) ;
#298 = CARTESIAN_POINT ( 'NONE',  ( 25.00000000000000000, -14.20000000000000107, 4.000000000000000000 ) ) ;
#299 = ORIENTED_EDGE ( 'NONE', *, *, #3, .T. ) ;
#300 = AXIS2_PLACEMENT_3D ( 'NONE', #548, #273, #777 ) ;
#301 = ORIENTED_EDGE ( 'NONE', *, *, #1234, .T. ) ;
#302 = PLANE ( 'NONE',  #513 ) ;
#303 = VECTOR ( 'NONE', #804, 1000.000000000000000 ) ;
#304 = DIRECTION ( 'NONE',  ( -1.000000000000000000, 0.0000000000000000000, 0.0000000000000000000 ) ) ;
#305 = EDGE_CURVE ( 'NONE', #657, #880, #735, .T. ) ;
#306 = PLANE ( 'NONE',  #207 ) ;
#307 = CARTESIAN_POINT ( 'NONE',  ( -0.6895995171110637090, -12.20000000000000639, 6.650000000000000355 ) ) ;
#308 = ORIENTED_EDGE ( 'NONE', *, *, #929, .T. ) ;
#309 = DIRECTION ( 'NONE',  ( 1.734723475976808080E-16, -1.000000000000000000, -0.0000000000000000000 ) ) ;
#310 = PERSON_AND_ORGANIZATION ( #532, #1274 ) ;
#311 = ORIENTED_EDGE ( 'NONE', *, *, #994, .F. ) ;
#312 = CARTESIAN_POINT ( 'NONE',  ( 25.00000000000000000, 1.999999999999998668, 4.000000000000000000 ) ) ;
#313 = ORIENTED_EDGE ( 'NONE', *, *, #857, .T. ) ;
#314 = VERTEX_POINT ( 'NONE', #1228 ) ;
#315 = DIRECTION ( 'NONE',  ( 1.113315271952140498E-17, 1.000000000000000000, -0.0000000000000000000 ) ) ;
#316 = CARTESIAN_POINT ( 'NONE',  ( 5.000000000000000888, 2.913271179166737482E-18, 5.000000000000000000 ) ) ;
#317 = EDGE_CURVE ( 'NONE', #371, #1130, #130, .T. ) ;
#318 = DIRECTION ( 'NONE',  ( -1.113315271952140498E-17, -1.000000000000000000, 0.0000000000000000000 ) ) ;
#319 = PLANE ( 'NONE',  #976 ) ;
#320 = CARTESIAN_POINT ( 'NONE',  ( 18.99999999999999645, -14.20000000000000107, 10.00000000000000000 ) ) ;
#321 = ADVANCED_FACE ( 'NONE', ( #327, #908, #879 ), #415, .F. ) ;
#322 = CARTESIAN_POINT ( 'NONE',  ( 14.35000000000000497, -9.100000000000003197, 2.000000000000000888 ) ) ;
#323 = CARTESIAN_POINT ( 'NONE',  ( 0.0000000000000000000, 2.000000000000000000, 0.0000000000000000000 ) ) ;
#324 = CARTESIAN_POINT ( 'NONE',  ( 0.0000000000000000000, 0.0000000000000000000, 0.0000000000000000000 ) ) ;
#325 = PRODUCT_DEFINITION ( 'UNKNOWN', '', #746, #477 ) ;
#326 = VECTOR ( 'NONE', #171, 1000.000000000000000 ) ;
#327 = FACE_BOUND ( 'NONE', #66, .T. ) ;
#328 = DIRECTION ( 'NONE',  ( 0.0000000000000000000, 0.0000000000000000000, -1.000000000000000000 ) ) ;
#329 = VECTOR ( 'NONE', #440, 1000.000000000000000 ) ;
#330 = ORIENTED_EDGE ( 'NONE', *, *, #929, .F. ) ;
#331 = ADVANCED_FACE ( 'NONE', ( #1001 ), #11, .F. ) ;
#332 = ORIENTED_EDGE ( 'NONE', *, *, #1234, .F. ) ;
#333 = DIRECTION ( 'NONE',  ( 1.000000000000000000, 0.0000000000000000000, 0.0000000000000000000 ) ) ;
#334 = PLANE ( 'NONE',  #1197 ) ;
#335 = ORIENTED_EDGE ( 'NONE', *, *, #859, .T. ) ;
#336 = PLANE ( 'NONE',  #821 ) ;
#337 = ORIENTED_EDGE ( 'NONE', *, *, #40, .T. ) ;
#338 = LINE ( 'NONE', #307, #480 ) ;
#339 = FACE_OUTER_BOUND ( 'NONE', #784, .T. ) ;
#340 = ORIENTED_EDGE ( 'NONE', *, *, #848, .F. ) ;
#341 = CARTESIAN_POINT ( 'NONE',  ( 25.00000000000000000, 1.999999999999998668, 4.000000000000000000 ) ) ;
#342 = EDGE_LOOP ( 'NONE', ( #411, #308, #576, #755 ) ) ;
#343 = ORIENTED_EDGE ( 'NONE', *, *, #848, .T. ) ;
#344 = ORIENTED_EDGE ( 'NONE', *, *, #926, .F. ) ;
#345 = DIRECTION ( 'NONE',  ( 1.000000000000000000, -1.000802005371235128E-16, 0.0000000000000000000 ) ) ;
#346 = AXIS2_PLACEMENT_3D ( 'NONE', #206, #797, #1199 ) ;
#347 = VECTOR ( 'NONE', #1137, 1000.000000000000000 ) ;
#348 = CARTESIAN_POINT ( 'NONE',  ( -0.6895995171110648192, 0.5000000000000000000, 6.650000000000000355 ) ) ;
#349 = FACE_OUTER_BOUND ( 'NONE', #1243, .T. ) ;
#350 = DIRECTION ( 'NONE',  ( 1.000000000000000000, 0.0000000000000000000, 0.0000000000000000000 ) ) ;
#351 = CIRCLE ( 'NONE', #627, 1.650000000000000355 ) ;
#352 = VECTOR ( 'NONE', #1280, 1000.000000000000000 ) ;
#353 = EDGE_CURVE ( 'NONE', #1194, #131, #17, .T. ) ;
#354 = ORIENTED_EDGE ( 'NONE', *, *, #225, .F. ) ;
#355 = CARTESIAN_POINT ( 'NONE',  ( 25.00000000000000000, -6.100000000000001421, 2.000000000000001776 ) ) ;
#356 = DIRECTION ( 'NONE',  ( -0.0000000000000000000, 0.0000000000000000000, 1.000000000000000000 ) ) ;
#357 = ORIENTED_EDGE ( 'NONE', *, *, #1121, .T. ) ;
#358 = EDGE_LOOP ( 'NONE', ( #1097, #1222, #1176, #917, #4, #451 ) ) ;
#359 = PLANE ( 'NONE',  #589 ) ;
#360 = CIRCLE ( 'NONE', #1267, 1.650000000000000355 ) ;
#361 = PLANE ( 'NONE',  #543 ) ;
#362 = AXIS2_PLACEMENT_3D ( 'NONE', #435, #33, #531 ) ;
#363 = DIRECTION ( 'NONE',  ( 1.000000000000000000, 0.0000000000000000000, 0.0000000000000000000 ) ) ;
#364 = DIRECTION ( 'NONE',  ( 1.846055003172022053E-16, -1.000000000000000000, 0.0000000000000000000 ) ) ;
#365 = VECTOR ( 'NONE', #759, 1000.000000000000000 ) ;
#366 = CIRCLE ( 'NONE', #116, 6.000000000000000000 ) ;
#367 = EDGE_CURVE ( 'NONE', #847, #372, #277, .T. ) ;
#368 = DIRECTION ( 'NONE',  ( 1.264477004108022339E-16, -1.000000000000000000, -0.0000000000000000000 ) ) ;
#369 = VERTEX_POINT ( 'NONE', #1023 ) ;
#370 = CALENDAR_DATE ( 2024, 25, 3 ) ;
#371 = VERTEX_POINT ( 'NONE', #1117 ) ;
#372 = VERTEX_POINT ( 'NONE', #213 ) ;
#373 = ORIENTED_EDGE ( 'NONE', *, *, #1028, .T. ) ;
#374 = DIRECTION ( 'NONE',  ( 1.000000000000000000, 0.0000000000000000000, 0.0000000000000000000 ) ) ;
#375 = EDGE_CURVE ( 'NONE', #961, #1057, #1067, .T. ) ;
#376 = DIRECTION ( 'NONE',  ( -0.0000000000000000000, -0.0000000000000000000, -1.000000000000000000 ) ) ;
#377 = CARTESIAN_POINT ( 'NONE',  ( 3.350000000000000089, 0.5000000000000000000, 5.000000000000000000 ) ) ;
#378 = LINE ( 'NONE', #752, #1295 ) ;
#379 = CARTESIAN_POINT ( 'NONE',  ( 11.00000000000000000, -1.224646799147354440E-16, 10.00000000000000000 ) ) ;
#380 = CIRCLE ( 'NONE', #566, 1.649999999999998579 ) ;
#381 = VERTEX_POINT ( 'NONE', #819 ) ;
#382 = ORIENTED_EDGE ( 'NONE', *, *, #1006, .F. ) ;
#383 = VERTEX_POINT ( 'NONE', #845 ) ;
#384 = CARTESIAN_POINT ( 'NONE',  ( -0.6895995171110648192, 0.5000000000000000000, 3.349999999999999645 ) ) ;
#385 = ORIENTED_EDGE ( 'NONE', *, *, #983, .F. ) ;
#386 = LINE ( 'NONE', #920, #630 ) ;
#387 = CARTESIAN_POINT ( 'NONE',  ( 16.00000000000000711, -9.100000000000003197, 0.0000000000000000000 ) ) ;
#388 = DIRECTION ( 'NONE',  ( 0.0000000000000000000, 0.0000000000000000000, -1.000000000000000000 ) ) ;
#389 = CARTESIAN_POINT ( 'NONE',  ( 5.000000000000000888, 2.913271179166737482E-18, 5.000000000000000000 ) ) ;
#390 = CARTESIAN_POINT ( 'NONE',  ( 25.00000000000000000, 1.999999999999998668, 10.00000000000000000 ) ) ;
#391 = CIRCLE ( 'NONE', #887, 1.650000000000000355 ) ;
#392 = LINE ( 'NONE', #355, #129 ) ;
#393 = LINE ( 'NONE', #698, #1035 ) ;
#394 = EDGE_LOOP ( 'NONE', ( #257, #269, #538, #151, #434, #1010 ) ) ;
#395 = DIRECTION ( 'NONE',  ( -1.000802005371235004E-16, 1.000000000000000000, 0.0000000000000000000 ) ) ;
#396 = ORIENTED_EDGE ( 'NONE', *, *, #483, .F. ) ;
#397 = ADVANCED_FACE ( 'NONE', ( #534, #795 ), #336, .F. ) ;
#398 = VERTEX_POINT ( 'NONE', #203 ) ;
#399 = CARTESIAN_POINT ( 'NONE',  ( 12.99999999999999822, -2.120644211239979803E-15, -19.73894265988904806 ) ) ;
#400 = EDGE_LOOP ( 'NONE', ( #1055, #671, #1239, #5, #811, #675 ) ) ;
#401 = DIRECTION ( 'NONE',  ( -0.0000000000000000000, 1.000000000000000000, 1.302086050141611115E-32 ) ) ;
#402 = CARTESIAN_POINT ( 'NONE',  ( 20.35000000000000497, -3.100000000000002309, 2.000000000000001332 ) ) ;
#403 = ADVANCED_FACE ( 'NONE', ( #1272 ), #1127, .F. ) ;
#404 = AXIS2_PLACEMENT_3D ( 'NONE', #348, #356, #965 ) ;
#405 = DIRECTION ( 'NONE',  ( 7.339214706055730761E-17, -1.000000000000000000, 0.0000000000000000000 ) ) ;
#406 = CARTESIAN_POINT ( 'NONE',  ( 11.00000000000000178, -10.10000000000000320, 2.000000000000000000 ) ) ;
#407 = CARTESIAN_POINT ( 'NONE',  ( 1.405126015541214930E-15, -14.20000000000000639, 10.00000000000000000 ) ) ;
#408 = LINE ( 'NONE', #271, #1122 ) ;
#409 = ADVANCED_FACE ( 'NONE', ( #248 ), #1238, .F. ) ;
#410 = LINE ( 'NONE', #1011, #1066 ) ;
#411 = ORIENTED_EDGE ( 'NONE', *, *, #581, .F. ) ;
#412 = DIRECTION ( 'NONE',  ( -1.000000000000000000, -1.264477004108022339E-16, 0.0000000000000000000 ) ) ;
#413 = CARTESIAN_POINT ( 'NONE',  ( 0.0000000000000000000, 0.5000000000000000000, 3.349999999999999645 ) ) ;
#414 = ORIENTED_EDGE ( 'NONE', *, *, #760, .F. ) ;
#415 = PLANE ( 'NONE',  #110 ) ;
#416 = ORIENTED_EDGE ( 'NONE', *, *, #445, .T. ) ;
#417 = ORIENTED_EDGE ( 'NONE', *, *, #552, .F. ) ;
#418 = DIRECTION ( 'NONE',  ( -1.301042606982605567E-16, -1.302086050141611115E-32, 1.000000000000000000 ) ) ;
#419 = CARTESIAN_POINT ( 'NONE',  ( 1.058181320345853511E-15, -12.20000000000000639, 4.000000000000000000 ) ) ;
#420 = EDGE_CURVE ( 'NONE', #67, #492, #462, .T. ) ;
#421 = DIRECTION ( 'NONE',  ( 1.728896933618474661E-16, -1.000000000000000000, -0.0000000000000000000 ) ) ;
#422 = EDGE_CURVE ( 'NONE', #1072, #1096, #109, .T. ) ;
#423 = CARTESIAN_POINT ( 'NONE',  ( 25.00000000000000000, 1.999999999999997335, 10.00000000000000000 ) ) ;
#424 = AXIS2_PLACEMENT_3D ( 'NONE', #1046, #661, #54 ) ;
#425 = DIRECTION ( 'NONE',  ( -0.0000000000000000000, -1.000000000000000000, -0.0000000000000000000 ) ) ;
#426 = LINE ( 'NONE', #26, #1152 ) ;
#427 = CC_DESIGN_DATE_AND_TIME_ASSIGNMENT ( #178, #749, ( #1083 ) ) ;
#428 = VECTOR ( 'NONE', #758, 1000.000000000000000 ) ;
#429 = VECTOR ( 'NONE', #102, 1000.000000000000000 ) ;
#430 = DIRECTION ( 'NONE',  ( 5.826542358333473423E-19, -1.000000000000000000, -0.0000000000000000000 ) ) ;
#431 = EDGE_LOOP ( 'NONE', ( #332, #766, #41, #1288 ) ) ;
#432 = ORIENTED_EDGE ( 'NONE', *, *, #1050, .T. ) ;
#433 = PLANE ( 'NONE',  #87 ) ;
#434 = ORIENTED_EDGE ( 'NONE', *, *, #962, .T. ) ;
#435 = CARTESIAN_POINT ( 'NONE',  ( -0.6895995171110637090, -12.70000000000000639, 3.349999999999999645 ) ) ;
#436 = ORIENTED_EDGE ( 'NONE', *, *, #292, .F. ) ;
#437 = EDGE_CURVE ( 'NONE', #836, #815, #1269, .T. ) ;
#438 = CIRCLE ( 'NONE', #1180, 1.650000000000000355 ) ;
#439 = EDGE_CURVE ( 'NONE', #562, #741, #828, .T. ) ;
#440 = DIRECTION ( 'NONE',  ( 0.0000000000000000000, -1.000000000000000000, 0.0000000000000000000 ) ) ;
#441 = CARTESIAN_POINT ( 'NONE',  ( 5.000000000000000888, 2.000000000000000000, 5.000000000000000000 ) ) ;
#442 = PERSON_AND_ORGANIZATION_ROLE ( 'design_supplier' ) ;
#443 = DIRECTION ( 'NONE',  ( -1.734723475976808080E-16, 1.000000000000000000, -0.0000000000000000000 ) ) ;
#444 = VECTOR ( 'NONE', #1265, 1000.000000000000000 ) ;
#445 = EDGE_CURVE ( 'NONE', #1126, #697, #1200, .T. ) ;
#446 = CARTESIAN_POINT ( 'NONE',  ( 0.0000000000000000000, 2.000000000000000000, 4.000000000000000000 ) ) ;
#447 = FACE_BOUND ( 'NONE', #1002, .T. ) ;
#448 = ORIENTED_EDGE ( 'NONE', *, *, #641, .T. ) ;
#449 = PERSON_AND_ORGANIZATION ( #532, #1274 ) ;
#450 = ORIENTED_EDGE ( 'NONE', *, *, #30, .T. ) ;
#451 = ORIENTED_EDGE ( 'NONE', *, *, #918, .F. ) ;
#452 = VERTEX_POINT ( 'NONE', #1135 ) ;
#453 = AXIS2_PLACEMENT_3D ( 'NONE', #274, #175, #466 ) ;
#454 = VECTOR ( 'NONE', #703, 1000.000000000000000 ) ;
#455 = CARTESIAN_POINT ( 'NONE',  ( 5.000000000000000888, 0.4999999999999998890, 6.650000000000000355 ) ) ;
#456 = PERSON_AND_ORGANIZATION_ROLE ( 'creator' ) ;
#457 = DIRECTION ( 'NONE',  ( 1.000000000000000000, 1.846055003172022053E-16, 0.0000000000000000000 ) ) ;
#458 = DIRECTION ( 'NONE',  ( 0.0000000000000000000, 0.0000000000000000000, -1.000000000000000000 ) ) ;
#459 = LINE ( 'NONE', #840, #347 ) ;
#460 = DIRECTION ( 'NONE',  ( -0.0000000000000000000, -0.0000000000000000000, -1.000000000000000000 ) ) ;
#461 = FACE_OUTER_BOUND ( 'NONE', #358, .T. ) ;
#462 = LINE ( 'NONE', #230, #1281 ) ;
#463 = ORIENTED_EDGE ( 'NONE', *, *, #838, .F. ) ;
#464 = APPROVAL_DATE_TIME ( #474, #812 ) ;
#465 = ORIENTED_EDGE ( 'NONE', *, *, #1236, .T. ) ;
#466 = DIRECTION ( 'NONE',  ( 1.000000000000000000, 0.0000000000000000000, 0.0000000000000000000 ) ) ;
#467 = ORIENTED_EDGE ( 'NONE', *, *, #1076, .F. ) ;
#468 = EDGE_LOOP ( 'NONE', ( #1054, #642, #179, #1275 ) ) ;
#469 = CC_DESIGN_PERSON_AND_ORGANIZATION_ASSIGNMENT ( #1144, #456, ( #325 ) ) ;
#470 = CARTESIAN_POINT ( 'NONE',  ( 6.000000000000000888, -12.20000000000000462, 10.00000000000000000 ) ) ;
#471 = AXIS2_PLACEMENT_3D ( 'NONE', #914, #318, #516 ) ;
#472 = LINE ( 'NONE', #1166, #1188 ) ;
#473 = VECTOR ( 'NONE', #664, 1000.000000000000000 ) ;
#474 = DATE_AND_TIME ( #2, #1039 ) ;
#475 = ORIENTED_EDGE ( 'NONE', *, *, #173, .T. ) ;
#476 = ORIENTED_EDGE ( 'NONE', *, *, #900, .T. ) ;
#477 = DESIGN_CONTEXT ( 'detailed design', #649, 'design' ) ;
#478 = ORIENTED_EDGE ( 'NONE', *, *, #1181, .T. ) ;
#479 = DIRECTION ( 'NONE',  ( -1.000000000000000000, -2.891205793294678326E-16, -4.481368979606751924E-15 ) ) ;
#480 = VECTOR ( 'NONE', #186, 1000.000000000000000 ) ;
#481 = DIRECTION ( 'NONE',  ( -1.000000000000000000, 1.113315271952140498E-17, -0.0000000000000000000 ) ) ;
#482 = EDGE_CURVE ( 'NONE', #1126, #170, #617, .T. ) ;
#483 = EDGE_CURVE ( 'NONE', #37, #156, #426, .T. ) ;
#484 = CARTESIAN_POINT ( 'NONE',  ( 11.00000000000000178, -12.20000000000000462, 0.0000000000000000000 ) ) ;
#485 = VECTOR ( 'NONE', #249, 1000.000000000000000 ) ;
#486 = LINE ( 'NONE', #1052, #233 ) ;
#487 = VECTOR ( 'NONE', #95, 1000.000000000000000 ) ;
#488 = VERTEX_POINT ( 'NONE', #635 ) ;
#489 = AXIS2_PLACEMENT_3D ( 'NONE', #123, #1048, #745 ) ;
#490 = DIRECTION ( 'NONE',  ( 1.000000000000000000, 5.826542358333473423E-19, 0.0000000000000000000 ) ) ;
#491 = COORDINATED_UNIVERSAL_TIME_OFFSET ( 3, 0, .AHEAD. ) ;
#492 = VERTEX_POINT ( 'NONE', #646 ) ;
#493 = DIRECTION ( 'NONE',  ( -1.000000000000000000, 0.0000000000000000000, 0.0000000000000000000 ) ) ;
#494 = VERTEX_POINT ( 'NONE', #535 ) ;
#495 = ORIENTED_EDGE ( 'NONE', *, *, #90, .T. ) ;
#496 = VECTOR ( 'NONE', #789, 1000.000000000000000 ) ;
#497 = DIRECTION ( 'NONE',  ( -0.0000000000000000000, -0.0000000000000000000, 1.000000000000000000 ) ) ;
#498 = DIRECTION ( 'NONE',  ( 1.728896933618474661E-16, -1.000000000000000000, -0.0000000000000000000 ) ) ;
#499 = EDGE_CURVE ( 'NONE', #796, #67, #459, .T. ) ;
#500 = CARTESIAN_POINT ( 'NONE',  ( 6.000000000000000888, -12.20000000000000462, 10.00000000000000000 ) ) ;
#501 = EDGE_CURVE ( 'NONE', #398, #1285, #943, .T. ) ;
#502 = ADVANCED_FACE ( 'NONE', ( #889 ), #1248, .F. ) ;
#503 = DIRECTION ( 'NONE',  ( -0.0000000000000000000, -0.0000000000000000000, 1.000000000000000000 ) ) ;
#504 = DIRECTION ( 'NONE',  ( 1.034363959891422675E-16, -1.000000000000000000, 0.0000000000000000000 ) ) ;
#505 = VECTOR ( 'NONE', #12, 1000.000000000000000 ) ;
#506 = EDGE_LOOP ( 'NONE', ( #138, #241 ) ) ;
#507 = CARTESIAN_POINT ( 'NONE',  ( 11.00000000000000000, -2.100000000000000977, 0.0000000000000000000 ) ) ;
#508 = ORIENTED_EDGE ( 'NONE', *, *, #900, .F. ) ;
#509 = ORIENTED_EDGE ( 'NONE', *, *, #194, .T. ) ;
#510 = DIRECTION ( 'NONE',  ( -0.0000000000000000000, -0.0000000000000000000, 1.000000000000000000 ) ) ;
#511 = CARTESIAN_POINT ( 'NONE',  ( 0.6169246707852957812, 0.5000000000000000000, 6.650000000000000355 ) ) ;
#512 = EDGE_CURVE ( 'NONE', #961, #492, #551, .T. ) ;
#513 = AXIS2_PLACEMENT_3D ( 'NONE', #390, #493, #906 ) ;
#514 = CIRCLE ( 'NONE', #584, 1.650000000000002132 ) ;
#515 = CARTESIAN_POINT ( 'NONE',  ( 3.350000000000000977, -12.70000000000000462, 5.000000000000000000 ) ) ;
#516 = DIRECTION ( 'NONE',  ( -1.000000000000000000, 0.0000000000000000000, 0.0000000000000000000 ) ) ;
#517 = AXIS2_PLACEMENT_3D ( 'NONE', #238, #18, #834 ) ;
#518 = ADVANCED_FACE ( 'NONE', ( #1034 ), #874, .F. ) ;
#519 = AXIS2_PLACEMENT_3D ( 'NONE', #954, #952, #345 ) ;
#520 = DIRECTION ( 'NONE',  ( 1.000000000000000000, 0.0000000000000000000, 0.0000000000000000000 ) ) ;
#521 = CIRCLE ( 'NONE', #869, 6.000000000000000000 ) ;
#522 = LINE ( 'NONE', #1244, #1093 ) ;
#523 = VECTOR ( 'NONE', #1308, 1000.000000000000000 ) ;
#524 = VERTEX_POINT ( 'NONE', #663 ) ;
#525 = DIRECTION ( 'NONE',  ( 1.000000000000000000, 1.034363959891422675E-16, -0.0000000000000000000 ) ) ;
#526 = ORIENTED_EDGE ( 'NONE', *, *, #482, .T. ) ;
#527 = ORIENTED_EDGE ( 'NONE', *, *, #717, .T. ) ;
#528 = ORIENTED_EDGE ( 'NONE', *, *, #1282, .T. ) ;
#529 = DIRECTION ( 'NONE',  ( 1.000000000000000000, -1.113315271952140498E-17, 0.0000000000000000000 ) ) ;
#530 = FACE_OUTER_BOUND ( 'NONE', #1007, .T. ) ;
#531 = DIRECTION ( 'NONE',  ( -1.000000000000000000, -1.734723475976808080E-16, 0.0000000000000000000 ) ) ;
#532 = PERSON ( 'UNSPECIFIED', 'UNSPECIFIED', 'UNSPECIFIED', ('UNSPECIFIED'), ('UNSPECIFIED'), ('UNSPECIFIED') ) ;
#533 = CARTESIAN_POINT ( 'NONE',  ( 5.000000000000000888, 2.000000000000000000, 5.000000000000000000 ) ) ;
#534 = FACE_BOUND ( 'NONE', #1024, .T. ) ;
#535 = CARTESIAN_POINT ( 'NONE',  ( 23.65000000000000213, -3.100000000000002309, 0.0000000000000000000 ) ) ;
#536 = ORIENTED_EDGE ( 'NONE', *, *, #1061, .F. ) ;
#537 = LOCAL_TIME ( 14, 59, 2.000000000000000000, #739 ) ;
#538 = ORIENTED_EDGE ( 'NONE', *, *, #305, .T. ) ;
#539 = DIRECTION ( 'NONE',  ( 2.735525481348043208E-16, -1.000000000000000000, -0.0000000000000000000 ) ) ;
#540 = CARTESIAN_POINT ( 'NONE',  ( -0.6895995171110648192, 7.677416739305698883E-18, 3.349999999999999645 ) ) ;
#541 = ORIENTED_EDGE ( 'NONE', *, *, #994, .T. ) ;
#542 = CARTESIAN_POINT ( 'NONE',  ( 0.6169246707852970024, -12.70000000000000639, 6.650000000000000355 ) ) ;
#543 = AXIS2_PLACEMENT_3D ( 'NONE', #867, #1163, #260 ) ;
#544 = VERTEX_POINT ( 'NONE', #1253 ) ;
#545 = ORIENTED_EDGE ( 'NONE', *, *, #422, .F. ) ;
#546 = APPROVAL_STATUS ( 'not_yet_approved' ) ;
#547 = LINE ( 'NONE', #419, #1020 ) ;
#548 = CARTESIAN_POINT ( 'NONE',  ( 11.00000000000000178, -12.20000000000000462, 10.00000000000000000 ) ) ;
#549 = CARTESIAN_POINT ( 'NONE',  ( 11.00000000000000000, -2.100000000000000977, 10.00000000000000000 ) ) ;
#550 = CARTESIAN_POINT ( 'NONE',  ( 12.99999999999999822, -12.20000000000000639, 10.00000000000000000 ) ) ;
#551 = LINE ( 'NONE', #36, #636 ) ;
#552 = EDGE_CURVE ( 'NONE', #452, #892, #262, .T. ) ;
#553 = APPLICATION_PROTOCOL_DEFINITION ( 'international standard', 'config_control_design', 1994, #46 ) ;
#554 = DIRECTION ( 'NONE',  ( 1.000000000000000000, 0.0000000000000000000, 0.0000000000000000000 ) ) ;
#555 = LINE ( 'NONE', #217, #176 ) ;
#556 = CIRCLE ( 'NONE', #77, 1.650000000000002132 ) ;
#557 = AXIS2_PLACEMENT_3D ( 'NONE', #992, #588, #1304 ) ;
#558 = CARTESIAN_POINT ( 'NONE',  ( 1.405126015541214930E-15, -14.20000000000000639, 0.0000000000000000000 ) ) ;
#559 = ORIENTED_EDGE ( 'NONE', *, *, #648, .T. ) ;
#560 = EDGE_CURVE ( 'NONE', #740, #871, #145, .T. ) ;
#561 = DIRECTION ( 'NONE',  ( -1.000000000000000000, -2.891205793294678326E-16, 1.734723475976807094E-15 ) ) ;
#562 = VERTEX_POINT ( 'NONE', #856 ) ;
#563 = ORIENTED_EDGE ( 'NONE', *, *, #126, .F. ) ;
#564 = CIRCLE ( 'NONE', #1043, 1.650000000000002132 ) ;
#565 = CARTESIAN_POINT ( 'NONE',  ( 5.000000000000001776, -12.70000000000000462, 3.349999999999999645 ) ) ;
#566 = AXIS2_PLACEMENT_3D ( 'NONE', #1213, #702, #1 ) ;
#567 = CYLINDRICAL_SURFACE ( 'NONE', #1249, 6.000000000000000000 ) ;
#568 = CARTESIAN_POINT ( 'NONE',  ( 0.0000000000000000000, 0.0000000000000000000, 10.00000000000000000 ) ) ;
#569 = CARTESIAN_POINT ( 'NONE',  ( 5.000000000000001776, -14.20000000000000462, 5.000000000000000000 ) ) ;
#570 = EDGE_CURVE ( 'NONE', #255, #628, #128, .T. ) ;
#571 = DIRECTION ( 'NONE',  ( -1.000000000000000000, -1.264477004108022339E-16, 0.0000000000000000000 ) ) ;
#572 = VECTOR ( 'NONE', #1216, 1000.000000000000000 ) ;
#573 = EDGE_CURVE ( 'NONE', #981, #975, #958, .T. ) ;
#574 = EDGE_LOOP ( 'NONE', ( #35, #1240, #1258, #591, #593, #753 ) ) ;
#575 = DIRECTION ( 'NONE',  ( 1.000000000000000000, -7.228014483236698281E-17, 8.673617379884038430E-16 ) ) ;
#576 = ORIENTED_EDGE ( 'NONE', *, *, #1099, .T. ) ;
#577 = ORIENTED_EDGE ( 'NONE', *, *, #499, .T. ) ;
#578 = CARTESIAN_POINT ( 'NONE',  ( 17.65000000000000924, -9.100000000000003197, 0.0000000000000000000 ) ) ;
#579 = EDGE_CURVE ( 'NONE', #628, #103, #408, .T. ) ;
#580 = DIRECTION ( 'NONE',  ( -0.0000000000000000000, 1.000000000000000000, -0.0000000000000000000 ) ) ;
#581 = EDGE_CURVE ( 'NONE', #704, #1084, #893, .T. ) ;
#582 = CARTESIAN_POINT ( 'NONE',  ( 5.000000000000001776, -12.70000000000000462, 5.000000000000000000 ) ) ;
#583 = LINE ( 'NONE', #158, #89 ) ;
#584 = AXIS2_PLACEMENT_3D ( 'NONE', #592, #1195, #88 ) ;
#585 = LINE ( 'NONE', #1116, #265 ) ;
#586 = LINE ( 'NONE', #1231, #329 ) ;
#587 = ORIENTED_EDGE ( 'NONE', *, *, #1006, .T. ) ;
#588 = DIRECTION ( 'NONE',  ( -1.113315271952140498E-17, -1.000000000000000000, 0.0000000000000000000 ) ) ;
#589 = AXIS2_PLACEMENT_3D ( 'NONE', #1270, #263, #767 ) ;
#590 = ORIENTED_EDGE ( 'NONE', *, *, #1190, .F. ) ;
#591 = ORIENTED_EDGE ( 'NONE', *, *, #90, .F. ) ;
#592 = CARTESIAN_POINT ( 'NONE',  ( 16.00000000000000711, -9.100000000000003197, 2.000000000000000888 ) ) ;
#593 = ORIENTED_EDGE ( 'NONE', *, *, #570, .T. ) ;
#594 = DIRECTION ( 'NONE',  ( 1.000000000000000000, 8.673617379884040402E-17, 0.0000000000000000000 ) ) ;
#595 = LINE ( 'NONE', #624, #705 ) ;
#596 = CARTESIAN_POINT ( 'NONE',  ( 12.99999999999999822, -12.20000000000000639, 2.000000000000001776 ) ) ;
#597 = ADVANCED_FACE ( 'NONE', ( #733 ), #658, .F. ) ;
#598 = CARTESIAN_POINT ( 'NONE',  ( 0.0000000000000000000, 0.0000000000000000000, 3.349999999999999645 ) ) ;
#599 = CARTESIAN_POINT ( 'NONE',  ( 5.000000000000001776, -12.70000000000000462, 6.650000000000000355 ) ) ;
#600 = FACE_OUTER_BOUND ( 'NONE', #1143, .T. ) ;
#601 = CARTESIAN_POINT ( 'NONE',  ( 29.77091955290960712, 0.0000000000000000000, -19.73894265988904806 ) ) ;
#602 = DIRECTION ( 'NONE',  ( 1.000000000000000000, 0.0000000000000000000, 0.0000000000000000000 ) ) ;
#603 = DATE_AND_TIME ( #195, #537 ) ;
#604 = EDGE_LOOP ( 'NONE', ( #508, #701, #1276, #1273, #278, #1242, #640, #930 ) ) ;
#605 = ADVANCED_FACE ( 'NONE', ( #862 ), #1218, .F. ) ;
#606 = DIRECTION ( 'NONE',  ( 1.000000000000000000, -7.228014483236695816E-17, -8.673617379884035472E-16 ) ) ;
#607 = ORIENTED_EDGE ( 'NONE', *, *, #252, .F. ) ;
#608 = CC_DESIGN_DATE_AND_TIME_ASSIGNMENT ( #132, #1151, ( #325 ) ) ;
#609 = VERTEX_POINT ( 'NONE', #1259 ) ;
#610 = CARTESIAN_POINT ( 'NONE',  ( 3.350000000000001421, -14.20000000000000462, 5.000000000000000000 ) ) ;
#611 = DIRECTION ( 'NONE',  ( -1.000000000000000000, 0.0000000000000000000, 0.0000000000000000000 ) ) ;
#612 = AXIS2_PLACEMENT_3D ( 'NONE', #959, #1073, #968 ) ;
#613 = ADVANCED_FACE ( 'NONE', ( #174, #210, #761 ), #361, .T. ) ;
#614 = DIRECTION ( 'NONE',  ( -1.000000000000000000, -7.339214706055730761E-17, -1.301042606982605567E-16 ) ) ;
#615 = CARTESIAN_POINT ( 'NONE',  ( 12.99999999999999822, -2.100000000000000977, 10.00000000000000000 ) ) ;
#616 = DIRECTION ( 'NONE',  ( 1.000000000000000000, 1.034363959891422675E-16, 0.0000000000000000000 ) ) ;
#617 = LINE ( 'NONE', #341, #713 ) ;
#618 = LINE ( 'NONE', #323, #250 ) ;
#619 = EDGE_LOOP ( 'NONE', ( #94, #682 ) ) ;
#620 = LINE ( 'NONE', #890, #352 ) ;
#621 = VERTEX_POINT ( 'NONE', #143 ) ;
#622 = ORIENTED_EDGE ( 'NONE', *, *, #552, .T. ) ;
#623 = DIRECTION ( 'NONE',  ( 0.0000000000000000000, -1.000000000000000000, 0.0000000000000000000 ) ) ;
#624 = CARTESIAN_POINT ( 'NONE',  ( 1.058181320345853511E-15, -12.20000000000000639, 3.349999999999999645 ) ) ;
#625 = EDGE_CURVE ( 'NONE', #181, #993, #693, .T. ) ;
#626 = VERTEX_POINT ( 'NONE', #161 ) ;
#627 = AXIS2_PLACEMENT_3D ( 'NONE', #582, #799, #304 ) ;
#628 = VERTEX_POINT ( 'NONE', #558 ) ;
#629 = EDGE_CURVE ( 'NONE', #544, #1084, #231, .T. ) ;
#630 = VECTOR ( 'NONE', #817, 1000.000000000000000 ) ;
#631 = DIRECTION ( 'NONE',  ( 1.000000000000000000, 0.0000000000000000000, 0.0000000000000000000 ) ) ;
#632 = DIRECTION ( 'NONE',  ( -0.0000000000000000000, -1.000000000000000000, -0.0000000000000000000 ) ) ;
#633 = AXIS2_PLACEMENT_3D ( 'NONE', #276, #776, #575 ) ;
#634 = UNCERTAINTY_MEASURE_WITH_UNIT (LENGTH_MEASURE( 1.000000000000000082E-05 ), #1251, 'distance_accuracy_value', 'NONE');
#635 = CARTESIAN_POINT ( 'NONE',  ( 11.00000000000000000, -1.224646799147354440E-16, 0.0000000000000000000 ) ) ;
#636 = VECTOR ( 'NONE', #956, 1000.000000000000000 ) ;
#637 = VECTOR ( 'NONE', #1101, 1000.000000000000000 ) ;
#638 = DIRECTION ( 'NONE',  ( 1.000000000000000000, 0.0000000000000000000, 0.0000000000000000000 ) ) ;
#639 = ORIENTED_EDGE ( 'NONE', *, *, #244, .T. ) ;
#640 = ORIENTED_EDGE ( 'NONE', *, *, #1236, .F. ) ;
#641 = EDGE_CURVE ( 'NONE', #687, #815, #925, .T. ) ;
#642 = ORIENTED_EDGE ( 'NONE', *, *, #367, .T. ) ;
#643 = EDGE_CURVE ( 'NONE', #815, #882, #378, .T. ) ;
#644 = ORIENTED_EDGE ( 'NONE', *, *, #859, .F. ) ;
#645 = PLANE ( 'NONE',  #907 ) ;
#646 = CARTESIAN_POINT ( 'NONE',  ( 19.00000000000000355, -12.20000000000000639, 10.00000000000000000 ) ) ;
#647 = MECHANICAL_CONTEXT ( 'NONE', #46, 'mechanical' ) ;
#648 = EDGE_CURVE ( 'NONE', #170, #181, #521, .T. ) ;
#649 = APPLICATION_CONTEXT ( 'configuration controlled 3d designs of mechanical parts and assemblies' ) ;
#650 = EDGE_CURVE ( 'NONE', #880, #115, #583, .T. ) ;
#651 = FACE_OUTER_BOUND ( 'NONE', #286, .T. ) ;
#652 = CARTESIAN_POINT ( 'NONE',  ( 1.405126015541214930E-15, -14.20000000000000639, 10.00000000000000000 ) ) ;
#653 = LINE ( 'NONE', #1262, #1140 ) ;
#654 = VERTEX_POINT ( 'NONE', #56 ) ;
#655 = ORIENTED_EDGE ( 'NONE', *, *, #367, .F. ) ;
#656 = DIRECTION ( 'NONE',  ( 0.0000000000000000000, 0.0000000000000000000, -1.000000000000000000 ) ) ;
#657 = VERTEX_POINT ( 'NONE', #377 ) ;
#658 = PLANE ( 'NONE',  #48 ) ;
#659 = ORIENTED_EDGE ( 'NONE', *, *, #573, .F. ) ;
#660 = DIRECTION ( 'NONE',  ( 0.0000000000000000000, 0.0000000000000000000, 1.000000000000000000 ) ) ;
#661 = DIRECTION ( 'NONE',  ( -0.0000000000000000000, 0.0000000000000000000, 1.000000000000000000 ) ) ;
#662 = APPROVAL ( #1069, 'UNSPECIFIED' ) ;
#663 = CARTESIAN_POINT ( 'NONE',  ( 25.00000000000000000, -14.19999999999999929, 0.0000000000000000000 ) ) ;
#664 = DIRECTION ( 'NONE',  ( -1.000000000000000000, -1.264477004108022339E-16, -1.301042606982605567E-16 ) ) ;
#665 = APPROVAL_ROLE ( '' ) ;
#666 = CARTESIAN_POINT ( 'NONE',  ( -0.6895995171110637090, -12.20000000000000639, 3.349999999999999645 ) ) ;
#667 = CIRCLE ( 'NONE', #20, 1.650000000000000355 ) ;
#668 = CIRCLE ( 'NONE', #955, 1.650000000000000355 ) ;
#669 = ORIENTED_EDGE ( 'NONE', *, *, #707, .F. ) ;
#670 = PERSON_AND_ORGANIZATION ( #532, #1274 ) ;
#671 = ORIENTED_EDGE ( 'NONE', *, *, #1051, .T. ) ;
#672 = ORIENTED_EDGE ( 'NONE', *, *, #579, .F. ) ;
#673 = VERTEX_POINT ( 'NONE', #578 ) ;
#674 = CARTESIAN_POINT ( 'NONE',  ( 11.00000000000000000, -2.100000000000000977, 9.000000000000001776 ) ) ;
#675 = ORIENTED_EDGE ( 'NONE', *, *, #762, .F. ) ;
#676 =( GEOMETRIC_REPRESENTATION_CONTEXT ( 3 ) GLOBAL_UNCERTAINTY_ASSIGNED_CONTEXT ( ( #634 ) ) GLOBAL_UNIT_ASSIGNED_CONTEXT ( ( #1251, #957, #142 ) ) REPRESENTATION_CONTEXT ( 'NONE', 'WORKASPACE' ) );
#677 = AXIS2_PLACEMENT_3D ( 'NONE', #384, #388, #1091 ) ;
#678 = DIRECTION ( 'NONE',  ( 1.000000000000000000, 8.673617379884040402E-17, 0.0000000000000000000 ) ) ;
#679 = VECTOR ( 'NONE', #1149, 1000.000000000000000 ) ;
#680 = DIRECTION ( 'NONE',  ( 0.0000000000000000000, 0.0000000000000000000, 1.000000000000000000 ) ) ;
#681 = LINE ( 'NONE', #399, #1254 ) ;
#682 = ORIENTED_EDGE ( 'NONE', *, *, #1090, .F. ) ;
#683 = ORIENTED_EDGE ( 'NONE', *, *, #141, .T. ) ;
#684 = DIRECTION ( 'NONE',  ( -1.000000000000000000, 1.000802005371235128E-16, -0.0000000000000000000 ) ) ;
#685 = VERTEX_POINT ( 'NONE', #282 ) ;
#686 = ORIENTED_EDGE ( 'NONE', *, *, #643, .T. ) ;
#687 = VERTEX_POINT ( 'NONE', #470 ) ;
#688 = CARTESIAN_POINT ( 'NONE',  ( -0.6895995171110648192, 7.677416739305698883E-18, 6.650000000000000355 ) ) ;
#689 = CARTESIAN_POINT ( 'NONE',  ( 1.058181320345853511E-15, -12.20000000000000639, 10.00000000000000000 ) ) ;
#690 = AXIS2_PLACEMENT_3D ( 'NONE', #259, #45, #38 ) ;
#691 = EDGE_CURVE ( 'NONE', #993, #719, #189, .T. ) ;
#692 = CARTESIAN_POINT ( 'NONE',  ( 6.000000000000000000, 0.0000000000000000000, 4.000000000000000000 ) ) ;
#693 = LINE ( 'NONE', #1266, #1065 ) ;
#694 = DIRECTION ( 'NONE',  ( 5.826542358333473423E-19, -1.000000000000000000, 0.0000000000000000000 ) ) ;
#695 = VECTOR ( 'NONE', #623, 1000.000000000000000 ) ;
#696 = VECTOR ( 'NONE', #137, 1000.000000000000000 ) ;
#697 = VERTEX_POINT ( 'NONE', #1085 ) ;
#698 = CARTESIAN_POINT ( 'NONE',  ( 0.6169246707852957812, 0.0000000000000000000, 6.650000000000000355 ) ) ;
#699 = CC_DESIGN_APPROVAL ( #275, ( #1083 ) ) ;
#700 = VERTEX_POINT ( 'NONE', #779 ) ;
#701 = ORIENTED_EDGE ( 'NONE', *, *, #105, .T. ) ;
#702 = DIRECTION ( 'NONE',  ( -1.301042606982605567E-16, -1.302086050141611115E-32, 1.000000000000000000 ) ) ;
#703 = DIRECTION ( 'NONE',  ( -1.000000000000000000, 1.113315271952140498E-17, -0.0000000000000000000 ) ) ;
#704 = VERTEX_POINT ( 'NONE', #984 ) ;
#705 = VECTOR ( 'NONE', #1217, 1000.000000000000000 ) ;
#706 = ADVANCED_FACE ( 'NONE', ( #1235 ), #1170, .F. ) ;
#707 = EDGE_CURVE ( 'NONE', #1096, #1072, #391, .T. ) ;
#708 = EDGE_CURVE ( 'NONE', #993, #1126, #970, .T. ) ;
#709 = DIRECTION ( 'NONE',  ( -1.000000000000000000, 0.0000000000000000000, -1.301042606982605567E-16 ) ) ;
#710 = CARTESIAN_POINT ( 'NONE',  ( 5.000000000000001776, -12.20000000000000462, 3.349999999999999645 ) ) ;
#711 = DIRECTION ( 'NONE',  ( -1.113315271952140498E-17, -1.000000000000000000, 0.0000000000000000000 ) ) ;
#712 = DIRECTION ( 'NONE',  ( 1.000000000000000000, 0.0000000000000000000, 0.0000000000000000000 ) ) ;
#713 = VECTOR ( 'NONE', #736, 1000.000000000000000 ) ;
#714 = CIRCLE ( 'NONE', #1241, 1.649999999999998579 ) ;
#715 = ORIENTED_EDGE ( 'NONE', *, *, #439, .T. ) ;
#716 = DIRECTION ( 'NONE',  ( 0.0000000000000000000, 0.0000000000000000000, -1.000000000000000000 ) ) ;
#717 = EDGE_CURVE ( 'NONE', #700, #181, #620, .T. ) ;
#718 = APPROVAL_PERSON_ORGANIZATION ( #310, #812, #1165 ) ;
#719 = VERTEX_POINT ( 'NONE', #168 ) ;
#720 = CARTESIAN_POINT ( 'NONE',  ( 25.00000000000000000, -12.20000000000000462, 10.00000000000000000 ) ) ;
#721 = EDGE_CURVE ( 'NONE', #283, #847, #1252, .T. ) ;
#722 = ORIENTED_EDGE ( 'NONE', *, *, #1302, .F. ) ;
#723 = ADVANCED_FACE ( 'NONE', ( #651 ), #866, .F. ) ;
#724 = ORIENTED_EDGE ( 'NONE', *, *, #1278, .F. ) ;
#725 = CARTESIAN_POINT ( 'NONE',  ( 24.00000000000000000, -10.10000000000000142, 10.00000000000000000 ) ) ;
#726 = CARTESIAN_POINT ( 'NONE',  ( 1.405126015541214930E-15, -14.20000000000000639, 4.000000000000000000 ) ) ;
#727 = AXIS2_PLACEMENT_3D ( 'NONE', #202, #997, #602 ) ;
#728 = CARTESIAN_POINT ( 'NONE',  ( 25.00000000000000000, -12.20000000000000462, 4.000000000000000000 ) ) ;
#729 = DIRECTION ( 'NONE',  ( 5.826542358333473423E-19, -1.000000000000000000, 0.0000000000000000000 ) ) ;
#730 = CC_DESIGN_APPROVAL ( #662, ( #325 ) ) ;
#731 = DIRECTION ( 'NONE',  ( 5.826542358333473423E-19, -1.000000000000000000, 0.0000000000000000000 ) ) ;
#732 = CARTESIAN_POINT ( 'NONE',  ( 5.000000000000001776, -12.20000000000000639, 5.000000000000000000 ) ) ;
#733 = FACE_OUTER_BOUND ( 'NONE', #1208, .T. ) ;
#734 = LINE ( 'NONE', #1070, #750 ) ;
#735 = CIRCLE ( 'NONE', #471, 1.650000000000000355 ) ;
#736 = DIRECTION ( 'NONE',  ( -0.0000000000000000000, -1.000000000000000000, -0.0000000000000000000 ) ) ;
#737 = EDGE_CURVE ( 'NONE', #170, #685, #52, .T. ) ;
#738 = ORIENTED_EDGE ( 'NONE', *, *, #14, .F. ) ;
#739 = COORDINATED_UNIVERSAL_TIME_OFFSET ( 3, 0, .AHEAD. ) ;
#740 = VERTEX_POINT ( 'NONE', #674 ) ;
#741 = VERTEX_POINT ( 'NONE', #71 ) ;
#742 = DIRECTION ( 'NONE',  ( -2.735525481348043208E-16, 1.000000000000000000, 0.0000000000000000000 ) ) ;
#743 = ORIENTED_EDGE ( 'NONE', *, *, #648, .F. ) ;
#744 = CARTESIAN_POINT ( 'NONE',  ( 16.00000000000000711, -9.100000000000003197, 0.0000000000000000000 ) ) ;
#745 = DIRECTION ( 'NONE',  ( -1.000000000000000000, 1.113315271952140498E-17, 0.0000000000000000000 ) ) ;
#746 = PRODUCT_DEFINITION_FORMATION_WITH_SPECIFIED_SOURCE ( 'ANY', '', #31, .NOT_KNOWN. ) ;
#747 = CARTESIAN_POINT ( 'NONE',  ( 11.00000000000000000, -2.100000000000000977, 10.00000000000000000 ) ) ;
#748 = FACE_OUTER_BOUND ( 'NONE', #53, .T. ) ;
#749 = DATE_TIME_ROLE ( 'classification_date' ) ;
#750 = VECTOR ( 'NONE', #1175, 1000.000000000000000 ) ;
#751 = LINE ( 'NONE', #853, #473 ) ;
#752 = CARTESIAN_POINT ( 'NONE',  ( 11.00000000000000178, -12.20000000000000462, 10.00000000000000000 ) ) ;
#753 = ORIENTED_EDGE ( 'NONE', *, *, #105, .F. ) ;
#754 = ORIENTED_EDGE ( 'NONE', *, *, #13, .F. ) ;
#755 = ORIENTED_EDGE ( 'NONE', *, *, #629, .T. ) ;
#756 = APPROVAL_STATUS ( 'not_yet_approved' ) ;
#757 = DIRECTION ( 'NONE',  ( -0.0000000000000000000, 0.0000000000000000000, -1.000000000000000000 ) ) ;
#758 = DIRECTION ( 'NONE',  ( -0.0000000000000000000, -0.0000000000000000000, -1.000000000000000000 ) ) ;
#759 = DIRECTION ( 'NONE',  ( -0.0000000000000000000, 0.0000000000000000000, -1.000000000000000000 ) ) ;
#760 = EDGE_CURVE ( 'NONE', #1042, #621, #1263, .T. ) ;
#761 = FACE_OUTER_BOUND ( 'NONE', #604, .T. ) ;
#762 = EDGE_CURVE ( 'NONE', #1072, #654, #10, .T. ) ;
#763 = LINE ( 'NONE', #1045, #695 ) ;
#764 = DIRECTION ( 'NONE',  ( 1.000000000000000000, -1.113315271952140498E-17, -0.0000000000000000000 ) ) ;
#765 = LINE ( 'NONE', #793, #51 ) ;
#766 = ORIENTED_EDGE ( 'NONE', *, *, #1192, .F. ) ;
#767 = DIRECTION ( 'NONE',  ( 1.000000000000000000, 1.734723475976808080E-16, 0.0000000000000000000 ) ) ;
#768 = PERSON_AND_ORGANIZATION ( #532, #1274 ) ;
#769 = ORIENTED_EDGE ( 'NONE', *, *, #969, .T. ) ;
#770 = DIRECTION ( 'NONE',  ( 0.0000000000000000000, 1.000000000000000000, 0.0000000000000000000 ) ) ;
#771 = AXIS2_PLACEMENT_3D ( 'NONE', #910, #315, #1309 ) ;
#772 = EDGE_LOOP ( 'NONE', ( #743, #57, #69, #196 ) ) ;
#773 = ORIENTED_EDGE ( 'NONE', *, *, #512, .T. ) ;
#774 = AXIS2_PLACEMENT_3D ( 'NONE', #744, #134, #1247 ) ;
#775 = CYLINDRICAL_SURFACE ( 'NONE', #84, 6.000000000000000000 ) ;
#776 = DIRECTION ( 'NONE',  ( 1.000802005371235128E-16, 1.000000000000000000, -0.0000000000000000000 ) ) ;
#777 = DIRECTION ( 'NONE',  ( -1.000000000000000000, -1.846055003172022053E-16, 0.0000000000000000000 ) ) ;
#778 = EDGE_CURVE ( 'NONE', #1084, #654, #438, .T. ) ;
#779 = CARTESIAN_POINT ( 'NONE',  ( 12.99999999999999822, -2.120644211239979803E-15, 10.00000000000000000 ) ) ;
#780 = LINE ( 'NONE', #886, #93 ) ;
#781 = LINE ( 'NONE', #610, #794 ) ;
#782 = ORIENTED_EDGE ( 'NONE', *, *, #1036, .F. ) ;
#783 = EDGE_LOOP ( 'NONE', ( #297, #240, #1174, #463, #577 ) ) ;
#784 = EDGE_LOOP ( 'NONE', ( #928, #990, #528, #476, #1022, #526, #852, #724 ) ) ;
#785 = ORIENTED_EDGE ( 'NONE', *, *, #1278, .T. ) ;
#786 = EDGE_CURVE ( 'NONE', #37, #896, #1229, .T. ) ;
#787 = CARTESIAN_POINT ( 'NONE',  ( 6.000000000000000888, -14.20000000000000462, 4.000000000000000000 ) ) ;
#788 = EDGE_CURVE ( 'NONE', #1086, #251, #514, .T. ) ;
#789 = DIRECTION ( 'NONE',  ( -1.728896933618474661E-16, 1.000000000000000000, 0.0000000000000000000 ) ) ;
#790 = AXIS2_PLACEMENT_3D ( 'NONE', #389, #694, #490 ) ;
#791 = CARTESIAN_POINT ( 'NONE',  ( 12.99999999999999822, -10.10000000000000142, 9.000000000000001776 ) ) ;
#792 = VECTOR ( 'NONE', #632, 1000.000000000000000 ) ;
#793 = CARTESIAN_POINT ( 'NONE',  ( 11.00000000000000178, -12.20000000000000462, 0.0000000000000000000 ) ) ;
#794 = VECTOR ( 'NONE', #1212, 1000.000000000000000 ) ;
#795 = FACE_OUTER_BOUND ( 'NONE', #574, .T. ) ;
#796 = VERTEX_POINT ( 'NONE', #596 ) ;
#797 = DIRECTION ( 'NONE',  ( 0.0000000000000000000, 0.0000000000000000000, -1.000000000000000000 ) ) ;
#798 = ORIENTED_EDGE ( 'NONE', *, *, #944, .F. ) ;
#799 = DIRECTION ( 'NONE',  ( 1.846055003172022053E-16, -1.000000000000000000, 0.0000000000000000000 ) ) ;
#800 = ORIENTED_EDGE ( 'NONE', *, *, #1261, .T. ) ;
#801 = ORIENTED_EDGE ( 'NONE', *, *, #691, .T. ) ;
#802 = EDGE_CURVE ( 'NONE', #283, #963, #272, .T. ) ;
#803 = LINE ( 'NONE', #290, #967 ) ;
#804 = DIRECTION ( 'NONE',  ( -0.0000000000000000000, 0.0000000000000000000, -1.000000000000000000 ) ) ;
#805 = CARTESIAN_POINT ( 'NONE',  ( 25.00000000000000000, -4.336808689942017736E-16, 4.000000000000000000 ) ) ;
#806 = CARTESIAN_POINT ( 'NONE',  ( 11.00000000000000000, -10.10000000000000142, 2.000000000000000000 ) ) ;
#807 = ADVANCED_FACE ( 'NONE', ( #1279 ), #44, .F. ) ;
#808 = DIRECTION ( 'NONE',  ( 1.000000000000000000, 1.846055003172022053E-16, 0.0000000000000000000 ) ) ;
#809 = DIRECTION ( 'NONE',  ( 1.000000000000000000, 0.0000000000000000000, 0.0000000000000000000 ) ) ;
#810 = CYLINDRICAL_SURFACE ( 'NONE', #155, 1.650000000000000355 ) ;
#811 = ORIENTED_EDGE ( 'NONE', *, *, #991, .F. ) ;
#812 = APPROVAL ( #546, 'UNSPECIFIED' ) ;
#813 = APPROVAL_DATE_TIME ( #1299, #662 ) ;
#814 = ORIENTED_EDGE ( 'NONE', *, *, #194, .F. ) ;
#815 = VERTEX_POINT ( 'NONE', #79 ) ;
#816 = DIRECTION ( 'NONE',  ( -1.264477004108022339E-16, 1.000000000000000000, 0.0000000000000000000 ) ) ;
#817 = DIRECTION ( 'NONE',  ( -1.000802005371235004E-16, 1.000000000000000000, -0.0000000000000000000 ) ) ;
#818 = ORIENTED_EDGE ( 'NONE', *, *, #1181, .F. ) ;
#819 = CARTESIAN_POINT ( 'NONE',  ( 5.000000000000001776, -12.20000000000000462, 6.650000000000000355 ) ) ;
#820 = ORIENTED_EDGE ( 'NONE', *, *, #641, .F. ) ;
#821 = AXIS2_PLACEMENT_3D ( 'NONE', #139, #742, #953 ) ;
#822 = VECTOR ( 'NONE', #92, 1000.000000000000000 ) ;
#823 = ADVANCED_FACE ( 'NONE', ( #530 ), #1105, .F. ) ;
#824 = DIRECTION ( 'NONE',  ( 1.000802005371235128E-16, 1.000000000000000000, -0.0000000000000000000 ) ) ;
#825 = PRODUCT_DEFINITION_SHAPE ( 'NONE', 'NONE',  #325 ) ;
#826 = CARTESIAN_POINT ( 'NONE',  ( 25.00000000000000000, 1.999999999999997335, 4.000000000000000000 ) ) ;
#827 = DIRECTION ( 'NONE',  ( -1.734723475976808080E-16, 1.000000000000000000, 0.0000000000000000000 ) ) ;
#828 = LINE ( 'NONE', #1233, #985 ) ;
#829 = LINE ( 'NONE', #858, #326 ) ;
#830 = CIRCLE ( 'NONE', #63, 6.000000000000000000 ) ;
#831 = CARTESIAN_POINT ( 'NONE',  ( 5.000000000000000888, 2.000000000000000000, 5.000000000000000000 ) ) ;
#832 = CARTESIAN_POINT ( 'NONE',  ( 16.00000000000000711, -9.100000000000003197, 2.000000000000000888 ) ) ;
#833 = ORIENTED_EDGE ( 'NONE', *, *, #501, .F. ) ;
#834 = DIRECTION ( 'NONE',  ( 1.000000000000000000, 0.0000000000000000000, 0.0000000000000000000 ) ) ;
#835 = EDGE_CURVE ( 'NONE', #981, #913, #1087, .T. ) ;
#836 = VERTEX_POINT ( 'NONE', #1293 ) ;
#837 = ORIENTED_EDGE ( 'NONE', *, *, #420, .F. ) ;
#838 = EDGE_CURVE ( 'NONE', #796, #369, #803, .T. ) ;
#839 = DIRECTION ( 'NONE',  ( 1.846055003172022053E-16, -1.000000000000000000, 0.0000000000000000000 ) ) ;
#840 = CARTESIAN_POINT ( 'NONE',  ( 12.99999999999999822, -12.20000000000000639, -19.73894265988904806 ) ) ;
#841 = AXIS2_PLACEMENT_3D ( 'NONE', #924, #711, #611 ) ;
#842 = DIRECTION ( 'NONE',  ( 0.0000000000000000000, 0.0000000000000000000, -1.000000000000000000 ) ) ;
#843 = AXIS2_PLACEMENT_3D ( 'NONE', #533, #1132, #333 ) ;
#844 = LINE ( 'NONE', #507, #523 ) ;
#845 = CARTESIAN_POINT ( 'NONE',  ( 3.350000000000000089, 2.000000000000000000, 5.000000000000000000 ) ) ;
#846 = EDGE_CURVE ( 'NONE', #156, #892, #1245, .T. ) ;
#847 = VERTEX_POINT ( 'NONE', #791 ) ;
#848 = EDGE_CURVE ( 'NONE', #381, #895, #338, .T. ) ;
#849 = ORIENTED_EDGE ( 'NONE', *, *, #73, .T. ) ;
#850 = DIRECTION ( 'NONE',  ( 1.000000000000000000, 0.0000000000000000000, 0.0000000000000000000 ) ) ;
#851 = VERTEX_POINT ( 'NONE', #1008 ) ;
#852 = ORIENTED_EDGE ( 'NONE', *, *, #737, .T. ) ;
#853 = CARTESIAN_POINT ( 'NONE',  ( 29.77091955290960357, -3.576357060374153609E-31, 2.000000000000005329 ) ) ;
#854 = ORIENTED_EDGE ( 'NONE', *, *, #560, .F. ) ;
#855 = PERSON_AND_ORGANIZATION_ROLE ( 'design_owner' ) ;
#856 = CARTESIAN_POINT ( 'NONE',  ( 6.650000000000001243, 2.000000000000000000, 5.000000000000000000 ) ) ;
#857 = EDGE_CURVE ( 'NONE', #562, #383, #172, .T. ) ;
#858 = CARTESIAN_POINT ( 'NONE',  ( 24.00000000000000000, -2.100000000000000089, 2.000000000000001776 ) ) ;
#859 = EDGE_CURVE ( 'NONE', #1057, #687, #1164, .T. ) ;
#860 = CARTESIAN_POINT ( 'NONE',  ( 11.00000000000000178, -12.20000000000000462, 10.00000000000000000 ) ) ;
#861 = DIRECTION ( 'NONE',  ( 5.826542358333473423E-19, -1.000000000000000000, -0.0000000000000000000 ) ) ;
#862 = FACE_OUTER_BOUND ( 'NONE', #883, .T. ) ;
#863 = PERSON_AND_ORGANIZATION_ROLE ( 'creator' ) ;
#864 = CYLINDRICAL_SURFACE ( 'NONE', #843, 1.650000000000000355 ) ;
#865 = VECTOR ( 'NONE', #187, 1000.000000000000000 ) ;
#866 = CYLINDRICAL_SURFACE ( 'NONE', #453, 1.649999999999998579 ) ;
#867 = CARTESIAN_POINT ( 'NONE',  ( 0.0000000000000000000, 0.0000000000000000000, 0.0000000000000000000 ) ) ;
#868 = ORIENTED_EDGE ( 'NONE', *, *, #918, .T. ) ;
#869 = AXIS2_PLACEMENT_3D ( 'NONE', #1184, #368, #571 ) ;
#870 = ORIENTED_EDGE ( 'NONE', *, *, #983, .T. ) ;
#871 = VERTEX_POINT ( 'NONE', #911 ) ;
#872 = CC_DESIGN_PERSON_AND_ORGANIZATION_ASSIGNMENT ( #768, #863, ( #746 ) ) ;
#873 = ORIENTED_EDGE ( 'NONE', *, *, #152, .F. ) ;
#874 = PLANE ( 'NONE',  #404 ) ;
#875 = EDGE_CURVE ( 'NONE', #741, #156, #201, .T. ) ;
#876 = CARTESIAN_POINT ( 'NONE',  ( 0.0000000000000000000, 0.0000000000000000000, 10.00000000000000000 ) ) ;
#877 = CARTESIAN_POINT ( 'NONE',  ( -0.6895995171110637090, -12.70000000000000639, 6.650000000000000355 ) ) ;
#878 = DIRECTION ( 'NONE',  ( 1.000000000000000000, 0.0000000000000000000, 0.0000000000000000000 ) ) ;
#879 = FACE_OUTER_BOUND ( 'NONE', #1191, .T. ) ;
#880 = VERTEX_POINT ( 'NONE', #901 ) ;
#881 = COORDINATED_UNIVERSAL_TIME_OFFSET ( 3, 0, .AHEAD. ) ;
#882 = VERTEX_POINT ( 'NONE', #484 ) ;
#883 = EDGE_LOOP ( 'NONE', ( #120, #301, #870, #536 ) ) ;
#884 = ORIENTED_EDGE ( 'NONE', *, *, #1051, .F. ) ;
#885 = ORIENTED_EDGE ( 'NONE', *, *, #721, .F. ) ;
#886 = CARTESIAN_POINT ( 'NONE',  ( 12.99999999999999822, -12.20000000000000639, 2.000000000000001776 ) ) ;
#887 = AXIS2_PLACEMENT_3D ( 'NONE', #569, #184, #374 ) ;
#888 = DIRECTION ( 'NONE',  ( 0.0000000000000000000, 0.0000000000000000000, -1.000000000000000000 ) ) ;
#889 = FACE_OUTER_BOUND ( 'NONE', #342, .T. ) ;
#890 = CARTESIAN_POINT ( 'NONE',  ( 4.760078561101148731E-31, -3.764464316580408326E-15, 10.00000000000000000 ) ) ;
#891 = VECTOR ( 'NONE', #614, 1000.000000000000000 ) ;
#892 = VERTEX_POINT ( 'NONE', #904 ) ;
#893 = LINE ( 'NONE', #666, #999 ) ;
#894 = ORIENTED_EDGE ( 'NONE', *, *, #501, .T. ) ;
#895 = VERTEX_POINT ( 'NONE', #1012 ) ;
#896 = VERTEX_POINT ( 'NONE', #511 ) ;
#897 = ORIENTED_EDGE ( 'NONE', *, *, #629, .F. ) ;
#898 = CIRCLE ( 'NONE', #841, 1.650000000000000355 ) ;
#899 = AXIS2_PLACEMENT_3D ( 'NONE', #689, #1092, #888 ) ;
#900 = EDGE_CURVE ( 'NONE', #524, #697, #995, .T. ) ;
#901 = CARTESIAN_POINT ( 'NONE',  ( 5.000000000000000888, 0.4999999999999998890, 3.349999999999999645 ) ) ;
#902 = DIRECTION ( 'NONE',  ( 0.0000000000000000000, 0.0000000000000000000, -1.000000000000000000 ) ) ;
#903 = AXIS2_PLACEMENT_3D ( 'NONE', #1246, #421, #520 ) ;
#904 = CARTESIAN_POINT ( 'NONE',  ( 0.6169246707852957812, -6.868316576293165889E-18, 6.650000000000000355 ) ) ;
#905 = FACE_OUTER_BOUND ( 'NONE', #183, .T. ) ;
#906 = DIRECTION ( 'NONE',  ( 0.0000000000000000000, 0.0000000000000000000, 1.000000000000000000 ) ) ;
#907 = AXIS2_PLACEMENT_3D ( 'NONE', #124, #850, #842 ) ;
#908 = FACE_BOUND ( 'NONE', #619, .T. ) ;
#909 = ORIENTED_EDGE ( 'NONE', *, *, #375, .F. ) ;
#910 = CARTESIAN_POINT ( 'NONE',  ( 5.566576359760703260E-18, 0.5000000000000000000, 0.0000000000000000000 ) ) ;
#911 = CARTESIAN_POINT ( 'NONE',  ( 11.00000000000000000, -2.100000000000000977, 2.000000000000000000 ) ) ;
#912 = APPROVAL_PERSON_ORGANIZATION ( #670, #275, #146 ) ;
#913 = VERTEX_POINT ( 'NONE', #413 ) ;
#914 = CARTESIAN_POINT ( 'NONE',  ( 5.000000000000000888, 0.5000000000000000000, 5.000000000000000000 ) ) ;
#915 = ORIENTED_EDGE ( 'NONE', *, *, #1090, .T. ) ;
#916 = ADVANCED_BREP_SHAPE_REPRESENTATION ( 'rhtgktybt', ( #64, #25 ), #676 ) ;
#917 = ORIENTED_EDGE ( 'NONE', *, *, #1214, .T. ) ;
#918 = EDGE_CURVE ( 'NONE', #37, #657, #898, .T. ) ;
#919 = CARTESIAN_POINT ( 'NONE',  ( 23.65000000000000213, -3.100000000000002309, 0.0000000000000000000 ) ) ;
#920 = CARTESIAN_POINT ( 'NONE',  ( 11.00000000000000000, -6.100000000000001421, 9.000000000000001776 ) ) ;
#921 = ADVANCED_FACE ( 'NONE', ( #1290 ), #85, .F. ) ;
#922 = DIRECTION ( 'NONE',  ( -1.000000000000000000, -7.339214706055730761E-17, 0.0000000000000000000 ) ) ;
#923 = ADVANCED_FACE ( 'NONE', ( #223 ), #334, .F. ) ;
#924 = CARTESIAN_POINT ( 'NONE',  ( 5.000000000000000888, 0.5000000000000000000, 5.000000000000000000 ) ) ;
#925 = LINE ( 'NONE', #860, #679 ) ;
#926 = EDGE_CURVE ( 'NONE', #283, #740, #386, .T. ) ;
#927 = LINE ( 'NONE', #615, #505 ) ;
#928 = ORIENTED_EDGE ( 'NONE', *, *, #291, .T. ) ;
#929 = EDGE_CURVE ( 'NONE', #704, #1193, #595, .T. ) ;
#930 = ORIENTED_EDGE ( 'NONE', *, *, #1153, .F. ) ;
#931 = ORIENTED_EDGE ( 'NONE', *, *, #846, .T. ) ;
#932 = DIRECTION ( 'NONE',  ( -1.000000000000000000, 0.0000000000000000000, 0.0000000000000000000 ) ) ;
#933 = DIRECTION ( 'NONE',  ( 0.0000000000000000000, 1.000000000000000000, 0.0000000000000000000 ) ) ;
#934 = ADVANCED_FACE ( 'NONE', ( #1134 ), #567, .T. ) ;
#935 = ORIENTED_EDGE ( 'NONE', *, *, #1261, .F. ) ;
#936 = DIRECTION ( 'NONE',  ( 1.846055003172022053E-16, -1.000000000000000000, 0.0000000000000000000 ) ) ;
#937 = AXIS2_PLACEMENT_3D ( 'NONE', #989, #364, #479 ) ;
#938 = DIRECTION ( 'NONE',  ( 0.0000000000000000000, 0.0000000000000000000, 1.000000000000000000 ) ) ;
#939 = CARTESIAN_POINT ( 'NONE',  ( 5.000000000000001776, -14.20000000000000462, 5.000000000000000000 ) ) ;
#940 = ADVANCED_FACE ( 'NONE', ( #287 ), #775, .T. ) ;
#941 = DIRECTION ( 'NONE',  ( -1.000000000000000000, -1.846055003172022053E-16, 0.0000000000000000000 ) ) ;
#942 = DIRECTION ( 'NONE',  ( 1.000000000000000000, 0.0000000000000000000, 0.0000000000000000000 ) ) ;
#943 = LINE ( 'NONE', #1142, #485 ) ;
#944 = EDGE_CURVE ( 'NONE', #383, #657, #1305, .T. ) ;
#945 = LINE ( 'NONE', #877, #147 ) ;
#946 = CIRCLE ( 'NONE', #557, 6.000000000000000000 ) ;
#947 = ORIENTED_EDGE ( 'NONE', *, *, #1204, .T. ) ;
#948 = COORDINATED_UNIVERSAL_TIME_OFFSET ( 3, 0, .AHEAD. ) ;
#949 = ORIENTED_EDGE ( 'NONE', *, *, #1312, .T. ) ;
#950 = VERTEX_POINT ( 'NONE', #402 ) ;
#951 = ORIENTED_EDGE ( 'NONE', *, *, #30, .F. ) ;
#952 = DIRECTION ( 'NONE',  ( -1.000802005371235128E-16, -1.000000000000000000, 0.0000000000000000000 ) ) ;
#953 = DIRECTION ( 'NONE',  ( 1.000000000000000000, 2.735525481348043208E-16, 0.0000000000000000000 ) ) ;
#954 = CARTESIAN_POINT ( 'NONE',  ( 0.0000000000000000000, 2.000000000000000000, 10.00000000000000000 ) ) ;
#955 = AXIS2_PLACEMENT_3D ( 'NONE', #831, #731, #15 ) ;
#956 = DIRECTION ( 'NONE',  ( 0.0000000000000000000, 1.000000000000000000, 0.0000000000000000000 ) ) ;
#957 =( NAMED_UNIT ( * ) PLANE_ANGLE_UNIT ( ) SI_UNIT ( $, .RADIAN. ) );
#958 = LINE ( 'NONE', #876, #444 ) ;
#959 = CARTESIAN_POINT ( 'NONE',  ( 6.000000000000000000, -6.679891631712842063E-17, 4.000000000000000000 ) ) ;
#960 = LINE ( 'NONE', #806, #891 ) ;
#961 = VERTEX_POINT ( 'NONE', #320 ) ;
#962 = EDGE_CURVE ( 'NONE', #115, #741, #360, .T. ) ;
#963 = VERTEX_POINT ( 'NONE', #406 ) ;
#964 = ORIENTED_EDGE ( 'NONE', *, *, #499, .F. ) ;
#965 = DIRECTION ( 'NONE',  ( 1.000000000000000000, 0.0000000000000000000, 0.0000000000000000000 ) ) ;
#966 = ORIENTED_EDGE ( 'NONE', *, *, #1112, .F. ) ;
#967 = VECTOR ( 'NONE', #188, 1000.000000000000000 ) ;
#968 = DIRECTION ( 'NONE',  ( -1.000000000000000000, 1.113315271952140498E-17, 1.734723475976807094E-15 ) ) ;
#969 = EDGE_CURVE ( 'NONE', #621, #255, #547, .T. ) ;
#970 = CIRCLE ( 'NONE', #633, 5.999999999999998224 ) ;
#971 = CARTESIAN_POINT ( 'NONE',  ( 19.00000000000000355, -14.20000000000000107, 4.000000000000000000 ) ) ;
#972 = PLANE ( 'NONE',  #232 ) ;
#973 = FACE_OUTER_BOUND ( 'NONE', #1115, .T. ) ;
#974 = LINE ( 'NONE', #720, #487 ) ;
#975 = VERTEX_POINT ( 'NONE', #324 ) ;
#976 = AXIS2_PLACEMENT_3D ( 'NONE', #725, #405, #922 ) ;
#977 = PERSON_AND_ORGANIZATION ( #532, #1274 ) ;
#978 = ORIENTED_EDGE ( 'NONE', *, *, #691, .F. ) ;
#979 = EDGE_LOOP ( 'NONE', ( #169, #1300, #343, #754, #448, #686, #873, #1098, #1159 ) ) ;
#980 = CC_DESIGN_APPROVAL ( #812, ( #746 ) ) ;
#981 = VERTEX_POINT ( 'NONE', #1031 ) ;
#982 = VECTOR ( 'NONE', #481, 1000.000000000000000 ) ;
#983 = EDGE_CURVE ( 'NONE', #251, #1086, #564, .T. ) ;
#984 = CARTESIAN_POINT ( 'NONE',  ( 1.058181320345853511E-15, -12.20000000000000639, 3.349999999999999645 ) ) ;
#985 = VECTOR ( 'NONE', #430, 1000.000000000000000 ) ;
#986 = LINE ( 'NONE', #1136, #1053 ) ;
#987 = CYLINDRICAL_SURFACE ( 'NONE', #690, 6.000000000000000000 ) ;
#988 = ORIENTED_EDGE ( 'NONE', *, *, #1169, .F. ) ;
#989 = CARTESIAN_POINT ( 'NONE',  ( 6.000000000000000888, -12.70000000000000462, 4.000000000000000000 ) ) ;
#990 = ORIENTED_EDGE ( 'NONE', *, *, #353, .T. ) ;
#991 = EDGE_CURVE ( 'NONE', #654, #381, #667, .T. ) ;
#992 = CARTESIAN_POINT ( 'NONE',  ( 6.000000000000000000, 0.4999999999999998890, 4.000000000000000000 ) ) ;
#993 = VERTEX_POINT ( 'NONE', #122 ) ;
#994 = EDGE_CURVE ( 'NONE', #851, #847, #586, .T. ) ;
#995 = LINE ( 'NONE', #294, #1060 ) ;
#996 = DIRECTION ( 'NONE',  ( 1.000000000000000000, 1.846055003172022053E-16, 0.0000000000000000000 ) ) ;
#997 = DIRECTION ( 'NONE',  ( 5.826542358333473423E-19, -1.000000000000000000, 0.0000000000000000000 ) ) ;
#998 = CARTESIAN_POINT ( 'NONE',  ( 11.00000000000000000, -2.100000000000000977, 9.000000000000001776 ) ) ;
#999 = VECTOR ( 'NONE', #457, 1000.000000000000000 ) ;
#1000 = VECTOR ( 'NONE', #1230, 1000.000000000000000 ) ;
#1001 = FACE_OUTER_BOUND ( 'NONE', #1131, .T. ) ;
#1002 = EDGE_LOOP ( 'NONE', ( #1298, #22, #854, #344 ) ) ;
#1003 = DIRECTION ( 'NONE',  ( -1.000000000000000000, -2.735525481348043208E-16, 0.0000000000000000000 ) ) ;
#1004 = CALENDAR_DATE ( 2024, 25, 3 ) ;
#1005 = ORIENTED_EDGE ( 'NONE', *, *, #173, .F. ) ;
#1006 = EDGE_CURVE ( 'NONE', #981, #115, #1044, .T. ) ;
#1007 = EDGE_LOOP ( 'NONE', ( #909, #773, #837, #221, #527, #153, #801, #800, #509, #166, #820, #644 ) ) ;
#1008 = CARTESIAN_POINT ( 'NONE',  ( 12.99999999999999822, -2.099999999999999645, 9.000000000000001776 ) ) ;
#1009 = ADVANCED_FACE ( 'NONE', ( #905 ), #972, .F. ) ;
#1010 = ORIENTED_EDGE ( 'NONE', *, *, #439, .F. ) ;
#1011 = CARTESIAN_POINT ( 'NONE',  ( 11.00000000000000000, -2.100000000000000977, 2.000000000000000000 ) ) ;
#1012 = CARTESIAN_POINT ( 'NONE',  ( 0.6169246707852968914, -12.20000000000000639, 6.650000000000000355 ) ) ;
#1013 = CARTESIAN_POINT ( 'NONE',  ( 19.00000000000000355, -12.20000000000000639, 4.000000000000000000 ) ) ;
#1014 = ADVANCED_FACE ( 'NONE', ( #1019 ), #1016, .F. ) ;
#1015 = DIRECTION ( 'NONE',  ( -0.0000000000000000000, 0.0000000000000000000, -1.000000000000000000 ) ) ;
#1016 = PLANE ( 'NONE',  #424 ) ;
#1017 = CARTESIAN_POINT ( 'NONE',  ( 12.99999999999999822, -10.10000000000000142, 10.00000000000000000 ) ) ;
#1018 = CC_DESIGN_PERSON_AND_ORGANIZATION_ASSIGNMENT ( #977, #855, ( #31 ) ) ;
#1019 = FACE_OUTER_BOUND ( 'NONE', #254, .T. ) ;
#1020 = VECTOR ( 'NONE', #309, 1000.000000000000000 ) ;
#1021 = CARTESIAN_POINT ( 'NONE',  ( 3.350000000000000533, 2.000000000000000000, 5.000000000000000000 ) ) ;
#1022 = ORIENTED_EDGE ( 'NONE', *, *, #445, .F. ) ;
#1023 = CARTESIAN_POINT ( 'NONE',  ( 25.00000000000000000, -12.20000000000000462, 2.000000000000001776 ) ) ;
#1024 = EDGE_LOOP ( 'NONE', ( #545, #669 ) ) ;
#1025 = AXIS2_PLACEMENT_3D ( 'NONE', #1013, #117, #712 ) ;
#1026 = EDGE_LOOP ( 'NONE', ( #215, #1041, #683, #55, #1145, #414 ) ) ;
#1027 = CARTESIAN_POINT ( 'NONE',  ( 6.650000000000002132, -14.20000000000000462, 5.000000000000000000 ) ) ;
#1028 = EDGE_CURVE ( 'NONE', #371, #1042, #945, .T. ) ;
#1029 = ADVANCED_FACE ( 'NONE', ( #1296 ), #61, .F. ) ;
#1030 = DIRECTION ( 'NONE',  ( -1.000000000000000000, 1.000802005371235128E-16, -0.0000000000000000000 ) ) ;
#1031 = CARTESIAN_POINT ( 'NONE',  ( 0.0000000000000000000, 0.0000000000000000000, 3.349999999999999645 ) ) ;
#1032 = DIRECTION ( 'NONE',  ( 1.000000000000000000, 0.0000000000000000000, 0.0000000000000000000 ) ) ;
#1033 = DIRECTION ( 'NONE',  ( -1.728896933618474661E-16, 1.000000000000000000, 0.0000000000000000000 ) ) ;
#1034 = FACE_OUTER_BOUND ( 'NONE', #216, .T. ) ;
#1035 = VECTOR ( 'NONE', #580, 1000.000000000000000 ) ;
#1036 = EDGE_CURVE ( 'NONE', #609, #871, #829, .T. ) ;
#1037 = ORIENTED_EDGE ( 'NONE', *, *, #846, .F. ) ;
#1038 = EDGE_CURVE ( 'NONE', #136, #950, #734, .T. ) ;
#1039 = LOCAL_TIME ( 14, 59, 2.000000000000000000, #881 ) ;
#1040 = EDGE_LOOP ( 'NONE', ( #722, #39, #354, #1283 ) ) ;
#1041 = ORIENTED_EDGE ( 'NONE', *, *, #317, .T. ) ;
#1042 = VERTEX_POINT ( 'NONE', #542 ) ;
#1043 = AXIS2_PLACEMENT_3D ( 'NONE', #832, #229, #1133 ) ;
#1044 = LINE ( 'NONE', #540, #236 ) ;
#1045 = CARTESIAN_POINT ( 'NONE',  ( 6.000000000000000000, 0.0000000000000000000, 10.00000000000000000 ) ) ;
#1046 = CARTESIAN_POINT ( 'NONE',  ( 11.00000000000000000, -6.100000000000001421, 9.000000000000001776 ) ) ;
#1047 = PRODUCT_RELATED_PRODUCT_CATEGORY ( 'detail', '', ( #31 ) ) ;
#1048 = DIRECTION ( 'NONE',  ( 1.113315271952140498E-17, 1.000000000000000000, -0.0000000000000000000 ) ) ;
#1049 = CARTESIAN_POINT ( 'NONE',  ( 23.65000000000000213, -3.100000000000002309, 2.000000000000001332 ) ) ;
#1050 = EDGE_CURVE ( 'NONE', #372, #796, #472, .T. ) ;
#1051 = EDGE_CURVE ( 'NONE', #1096, #1130, #781, .T. ) ;
#1052 = CARTESIAN_POINT ( 'NONE',  ( 0.0000000000000000000, 0.0000000000000000000, 0.0000000000000000000 ) ) ;
#1053 = VECTOR ( 'NONE', #529, 1000.000000000000000 ) ;
#1054 = ORIENTED_EDGE ( 'NONE', *, *, #721, .T. ) ;
#1055 = ORIENTED_EDGE ( 'NONE', *, *, #422, .T. ) ;
#1056 = ORIENTED_EDGE ( 'NONE', *, *, #1050, .F. ) ;
#1057 = VERTEX_POINT ( 'NONE', #113 ) ;
#1058 = DIRECTION ( 'NONE',  ( 1.734723475976808080E-16, -1.000000000000000000, -0.0000000000000000000 ) ) ;
#1059 = DIRECTION ( 'NONE',  ( -1.846055003172022053E-16, 1.000000000000000000, -0.0000000000000000000 ) ) ;
#1060 = VECTOR ( 'NONE', #218, 1000.000000000000000 ) ;
#1061 = EDGE_CURVE ( 'NONE', #673, #1086, #1219, .T. ) ;
#1062 = AXIS2_PLACEMENT_3D ( 'NONE', #1150, #1255, #561 ) ;
#1063 = DIRECTION ( 'NONE',  ( 0.0000000000000000000, 0.0000000000000000000, 1.000000000000000000 ) ) ;
#1064 = DIRECTION ( 'NONE',  ( -1.000000000000000000, -2.891205793294678326E-16, 0.0000000000000000000 ) ) ;
#1065 = VECTOR ( 'NONE', #770, 1000.000000000000000 ) ;
#1066 = VECTOR ( 'NONE', #401, 1000.000000000000000 ) ;
#1067 = LINE ( 'NONE', #407, #696 ) ;
#1068 = ORIENTED_EDGE ( 'NONE', *, *, #13, .T. ) ;
#1069 = APPROVAL_STATUS ( 'not_yet_approved' ) ;
#1070 = CARTESIAN_POINT ( 'NONE',  ( 20.35000000000000497, -3.100000000000002309, 0.0000000000000000000 ) ) ;
#1071 = LOCAL_TIME ( 14, 59, 2.000000000000000000, #1110 ) ;
#1072 = VERTEX_POINT ( 'NONE', #1027 ) ;
#1073 = DIRECTION ( 'NONE',  ( -1.113315271952140498E-17, -1.000000000000000000, 0.0000000000000000000 ) ) ;
#1074 = ORIENTED_EDGE ( 'NONE', *, *, #141, .F. ) ;
#1075 = ORIENTED_EDGE ( 'NONE', *, *, #573, .T. ) ;
#1076 = EDGE_CURVE ( 'NONE', #372, #963, #960, .T. ) ;
#1077 = CARTESIAN_POINT ( 'NONE',  ( 11.00000000000000178, -10.10000000000000320, 10.00000000000000000 ) ) ;
#1078 = CARTESIAN_POINT ( 'NONE',  ( 11.00000000000000178, -10.10000000000000320, 9.000000000000001776 ) ) ;
#1079 = LINE ( 'NONE', #58, #76 ) ;
#1080 = ORIENTED_EDGE ( 'NONE', *, *, #1153, .T. ) ;
#1081 = EDGE_LOOP ( 'NONE', ( #313, #947 ) ) ;
#1082 = ORIENTED_EDGE ( 'NONE', *, *, #1264, .F. ) ;
#1083 = SECURITY_CLASSIFICATION ( '', '', #1154 ) ;
#1084 = VERTEX_POINT ( 'NONE', #710 ) ;
#1085 = CARTESIAN_POINT ( 'NONE',  ( 25.00000000000000000, 1.999999999999997335, 0.0000000000000000000 ) ) ;
#1086 = VERTEX_POINT ( 'NONE', #208 ) ;
#1087 = LINE ( 'NONE', #598, #27 ) ;
#1088 = AXIS2_PLACEMENT_3D ( 'NONE', #1109, #936, #106 ) ;
#1089 = CARTESIAN_POINT ( 'NONE',  ( 25.00000000000000000, -4.336808689942017736E-16, 10.00000000000000000 ) ) ;
#1090 = EDGE_CURVE ( 'NONE', #950, #1210, #380, .T. ) ;
#1091 = DIRECTION ( 'NONE',  ( -1.000000000000000000, 0.0000000000000000000, -0.0000000000000000000 ) ) ;
#1092 = DIRECTION ( 'NONE',  ( 1.000000000000000000, 1.734723475976808080E-16, 0.0000000000000000000 ) ) ;
#1093 = VECTOR ( 'NONE', #243, 1000.000000000000000 ) ;
#1094 = FACE_OUTER_BOUND ( 'NONE', #394, .T. ) ;
#1095 = VECTOR ( 'NONE', #1187, 1000.000000000000000 ) ;
#1096 = VERTEX_POINT ( 'NONE', #104 ) ;
#1097 = ORIENTED_EDGE ( 'NONE', *, *, #786, .T. ) ;
#1098 = ORIENTED_EDGE ( 'NONE', *, *, #1118, .F. ) ;
#1099 = EDGE_CURVE ( 'NONE', #1193, #544, #555, .T. ) ;
#1100 = VECTOR ( 'NONE', #107, 1000.000000000000000 ) ;
#1101 = DIRECTION ( 'NONE',  ( -0.0000000000000000000, 0.0000000000000000000, 1.000000000000000000 ) ) ;
#1102 = ADVANCED_FACE ( 'NONE', ( #461 ), #205, .F. ) ;
#1103 = DIRECTION ( 'NONE',  ( -0.0000000000000000000, 1.000000000000000000, 0.0000000000000000000 ) ) ;
#1104 = DIRECTION ( 'NONE',  ( -1.000000000000000000, -1.000802005371235004E-16, 0.0000000000000000000 ) ) ;
#1105 = PLANE ( 'NONE',  #346 ) ;
#1106 = LINE ( 'NONE', #998, #234 ) ;
#1107 = ADVANCED_FACE ( 'NONE', ( #16 ), #319, .F. ) ;
#1108 = ORIENTED_EDGE ( 'NONE', *, *, #1036, .T. ) ;
#1109 = CARTESIAN_POINT ( 'NONE',  ( 5.000000000000001776, -12.70000000000000462, 5.000000000000000000 ) ) ;
#1110 = COORDINATED_UNIVERSAL_TIME_OFFSET ( 3, 0, .AHEAD. ) ;
#1111 = ORIENTED_EDGE ( 'NONE', *, *, #717, .F. ) ;
#1112 = EDGE_CURVE ( 'NONE', #494, #1210, #191, .T. ) ;
#1113 = ORIENTED_EDGE ( 'NONE', *, *, #969, .F. ) ;
#1114 = DIRECTION ( 'NONE',  ( 1.000000000000000000, 5.826542358333473423E-19, 0.0000000000000000000 ) ) ;
#1115 = EDGE_LOOP ( 'NONE', ( #80, #340, #607, #373 ) ) ;
#1116 = CARTESIAN_POINT ( 'NONE',  ( 1.058181320345853511E-15, -12.20000000000000639, 10.00000000000000000 ) ) ;
#1117 = CARTESIAN_POINT ( 'NONE',  ( 5.000000000000001776, -12.70000000000000462, 6.650000000000000355 ) ) ;
#1118 = EDGE_CURVE ( 'NONE', #704, #103, #585, .T. ) ;
#1119 = ADVANCED_FACE ( 'NONE', ( #1156 ), #306, .F. ) ;
#1120 = CARTESIAN_POINT ( 'NONE',  ( 6.000000000000000000, 1.999999999999999556, 4.000000000000000000 ) ) ;
#1121 = EDGE_CURVE ( 'NONE', #609, #851, #927, .T. ) ;
#1122 = VECTOR ( 'NONE', #443, 1000.000000000000000 ) ;
#1123 = FACE_BOUND ( 'NONE', #1081, .T. ) ;
#1124 = VECTOR ( 'NONE', #1003, 1000.000000000000000 ) ;
#1125 = VECTOR ( 'NONE', #678, 1000.000000000000000 ) ;
#1126 = VERTEX_POINT ( 'NONE', #826 ) ;
#1127 = PLANE ( 'NONE',  #489 ) ;
#1128 = ORIENTED_EDGE ( 'NONE', *, *, #838, .T. ) ;
#1129 = AXIS2_PLACEMENT_3D ( 'NONE', #939, #1033, #631 ) ;
#1130 = VERTEX_POINT ( 'NONE', #515 ) ;
#1131 = EDGE_LOOP ( 'NONE', ( #782, #357, #1005, #148 ) ) ;
#1132 = DIRECTION ( 'NONE',  ( 5.826542358333473423E-19, -1.000000000000000000, -0.0000000000000000000 ) ) ;
#1133 = DIRECTION ( 'NONE',  ( -1.000000000000000000, 0.0000000000000000000, 0.0000000000000000000 ) ) ;
#1134 = FACE_OUTER_BOUND ( 'NONE', #43, .T. ) ;
#1135 = CARTESIAN_POINT ( 'NONE',  ( 6.000000000000000000, -6.679891631712842063E-17, 10.00000000000000000 ) ) ;
#1136 = CARTESIAN_POINT ( 'NONE',  ( -0.6895995171110648192, 0.5000000000000000000, 3.349999999999999645 ) ) ;
#1137 = DIRECTION ( 'NONE',  ( -0.0000000000000000000, -0.0000000000000000000, 1.000000000000000000 ) ) ;
#1138 = EDGE_CURVE ( 'NONE', #1210, #950, #211, .T. ) ;
#1139 = VECTOR ( 'NONE', #1059, 1000.000000000000000 ) ;
#1140 = VECTOR ( 'NONE', #458, 1000.000000000000000 ) ;
#1141 = CIRCLE ( 'NONE', #227, 5.999999999999999112 ) ;
#1142 = CARTESIAN_POINT ( 'NONE',  ( 0.0000000000000000000, 0.0000000000000000000, 4.000000000000000000 ) ) ;
#1143 = EDGE_LOOP ( 'NONE', ( #82, #417, #935, #436, #833, #563 ) ) ;
#1144 = PERSON_AND_ORGANIZATION ( #532, #1274 ) ;
#1145 = ORIENTED_EDGE ( 'NONE', *, *, #1250, .T. ) ;
#1146 = EDGE_LOOP ( 'NONE', ( #639, #6, #1277, #119 ) ) ;
#1147 = ORIENTED_EDGE ( 'NONE', *, *, #875, .F. ) ;
#1148 = ORIENTED_EDGE ( 'NONE', *, *, #835, .F. ) ;
#1149 = DIRECTION ( 'NONE',  ( 1.000000000000000000, 1.846055003172022053E-16, 0.0000000000000000000 ) ) ;
#1150 = CARTESIAN_POINT ( 'NONE',  ( 6.000000000000000888, -12.20000000000000462, 4.000000000000000000 ) ) ;
#1151 = DATE_TIME_ROLE ( 'creation_date' ) ;
#1152 = VECTOR ( 'NONE', #125, 1000.000000000000000 ) ;
#1153 = EDGE_CURVE ( 'NONE', #697, #314, #618, .T. ) ;
#1154 = SECURITY_CLASSIFICATION_LEVEL ( 'unclassified' ) ;
#1155 = CC_DESIGN_PERSON_AND_ORGANIZATION_ASSIGNMENT ( #165, #1162, ( #1083 ) ) ;
#1156 = FACE_OUTER_BOUND ( 'NONE', #1179, .T. ) ;
#1157 = ORIENTED_EDGE ( 'NONE', *, *, #707, .T. ) ;
#1158 = DIRECTION ( 'NONE',  ( 1.000000000000000000, 0.0000000000000000000, 0.0000000000000000000 ) ) ;
#1159 = ORIENTED_EDGE ( 'NONE', *, *, #581, .T. ) ;
#1160 = ORIENTED_EDGE ( 'NONE', *, *, #875, .T. ) ;
#1161 = ORIENTED_EDGE ( 'NONE', *, *, #1264, .T. ) ;
#1162 = PERSON_AND_ORGANIZATION_ROLE ( 'classification_officer' ) ;
#1163 = DIRECTION ( 'NONE',  ( 0.0000000000000000000, 0.0000000000000000000, -1.000000000000000000 ) ) ;
#1164 = LINE ( 'NONE', #500, #822 ) ;
#1165 = APPROVAL_ROLE ( '' ) ;
#1166 = CARTESIAN_POINT ( 'NONE',  ( 12.99999999999999822, -12.20000000000000639, 2.000000000000001776 ) ) ;
#1167 = AXIS2_PLACEMENT_3D ( 'NONE', #692, #86, #902 ) ;
#1168 = DIRECTION ( 'NONE',  ( -0.0000000000000000000, -0.0000000000000000000, 1.000000000000000000 ) ) ;
#1169 = EDGE_CURVE ( 'NONE', #136, #494, #714, .T. ) ;
#1170 = CYLINDRICAL_SURFACE ( 'NONE', #1289, 1.650000000000000355 ) ;
#1171 = AXIS2_PLACEMENT_3D ( 'NONE', #224, #418, #932 ) ;
#1172 = LINE ( 'NONE', #245, #428 ) ;
#1173 = CYLINDRICAL_SURFACE ( 'NONE', #1167, 6.000000000000000000 ) ;
#1174 = ORIENTED_EDGE ( 'NONE', *, *, #291, .F. ) ;
#1175 = DIRECTION ( 'NONE',  ( -0.0000000000000000000, -0.0000000000000000000, 1.000000000000000000 ) ) ;
#1176 = ORIENTED_EDGE ( 'NONE', *, *, #167, .F. ) ;
#1177 = VECTOR ( 'NONE', #1058, 1000.000000000000000 ) ;
#1178 = ORIENTED_EDGE ( 'NONE', *, *, #1038, .T. ) ;
#1179 = EDGE_LOOP ( 'NONE', ( #1313, #559, #1111, #818, #101 ) ) ;
#1180 = AXIS2_PLACEMENT_3D ( 'NONE', #1206, #498, #99 ) ;
#1181 = EDGE_CURVE ( 'NONE', #626, #700, #681, .T. ) ;
#1182 = DIRECTION ( 'NONE',  ( -1.728896933618474661E-16, 1.000000000000000000, 0.0000000000000000000 ) ) ;
#1183 = EDGE_CURVE ( 'NONE', #494, #136, #1237, .T. ) ;
#1184 = CARTESIAN_POINT ( 'NONE',  ( 19.00000000000000355, -1.361958008775165561E-15, 4.000000000000000000 ) ) ;
#1185 = PLANE ( 'NONE',  #677 ) ;
#1186 = VECTOR ( 'NONE', #246, 1000.000000000000000 ) ;
#1187 = DIRECTION ( 'NONE',  ( 0.0000000000000000000, 0.0000000000000000000, -1.000000000000000000 ) ) ;
#1188 = VECTOR ( 'NONE', #1306, 1000.000000000000000 ) ;
#1189 = VECTOR ( 'NONE', #376, 1000.000000000000000 ) ;
#1190 = EDGE_CURVE ( 'NONE', #963, #871, #410, .T. ) ;
#1191 = EDGE_LOOP ( 'NONE', ( #467, #432, #1128, #785, #299, #450, #1108, #590 ) ) ;
#1192 = EDGE_CURVE ( 'NONE', #673, #200, #295, .T. ) ;
#1193 = VERTEX_POINT ( 'NONE', #127 ) ;
#1194 = VERTEX_POINT ( 'NONE', #728 ) ;
#1195 = DIRECTION ( 'NONE',  ( -1.301042606982605567E-16, -1.302086050141611115E-32, 1.000000000000000000 ) ) ;
#1196 = PLANE ( 'NONE',  #899 ) ;
#1197 = AXIS2_PLACEMENT_3D ( 'NONE', #1226, #504, #616 ) ;
#1198 = CARTESIAN_POINT ( 'NONE',  ( -0.6895995171110648192, 0.5000000000000000000, 6.650000000000000355 ) ) ;
#1199 = DIRECTION ( 'NONE',  ( -1.000000000000000000, 0.0000000000000000000, -0.0000000000000000000 ) ) ;
#1200 = LINE ( 'NONE', #423, #1186 ) ;
#1201 = DIRECTION ( 'NONE',  ( -2.735525481348043208E-16, 1.000000000000000000, 0.0000000000000000000 ) ) ;
#1202 = VECTOR ( 'NONE', #497, 1000.000000000000000 ) ;
#1203 = LINE ( 'NONE', #379, #865 ) ;
#1204 = EDGE_CURVE ( 'NONE', #383, #562, #668, .T. ) ;
#1205 = ORIENTED_EDGE ( 'NONE', *, *, #1214, .F. ) ;
#1206 = CARTESIAN_POINT ( 'NONE',  ( 5.000000000000001776, -12.20000000000000639, 5.000000000000000000 ) ) ;
#1207 = ORIENTED_EDGE ( 'NONE', *, *, #1250, .F. ) ;
#1208 = EDGE_LOOP ( 'NONE', ( #951, #478, #1286, #964, #1056, #655, #311, #1257 ) ) ;
#1209 = ADVANCED_FACE ( 'NONE', ( #349 ), #864, .F. ) ;
#1210 = VERTEX_POINT ( 'NONE', #1049 ) ;
#1211 = ORIENTED_EDGE ( 'NONE', *, *, #483, .T. ) ;
#1212 = DIRECTION ( 'NONE',  ( -1.728896933618474661E-16, 1.000000000000000000, 0.0000000000000000000 ) ) ;
#1213 = CARTESIAN_POINT ( 'NONE',  ( 22.00000000000000355, -3.100000000000002309, 2.000000000000001332 ) ) ;
#1214 = EDGE_CURVE ( 'NONE', #913, #880, #986, .T. ) ;
#1215 = ADVANCED_FACE ( 'NONE', ( #111, #447 ), #645, .F. ) ;
#1216 = DIRECTION ( 'NONE',  ( -0.0000000000000000000, -1.000000000000000000, -0.0000000000000000000 ) ) ;
#1217 = DIRECTION ( 'NONE',  ( 1.734723475976808080E-16, -1.000000000000000000, 0.0000000000000000000 ) ) ;
#1218 = CYLINDRICAL_SURFACE ( 'NONE', #140, 1.650000000000002132 ) ;
#1219 = LINE ( 'NONE', #91, #1202 ) ;
#1220 = FACE_OUTER_BOUND ( 'NONE', #772, .T. ) ;
#1221 = CARTESIAN_POINT ( 'NONE',  ( 11.00000000000000000, -6.100000000000001421, 2.000000000000000000 ) ) ;
#1222 = ORIENTED_EDGE ( 'NONE', *, *, #126, .T. ) ;
#1223 = AXIS2_PLACEMENT_3D ( 'NONE', #220, #395, #1104 ) ;
#1224 = ADVANCED_FACE ( 'NONE', ( #75 ), #433, .F. ) ;
#1225 = ORIENTED_EDGE ( 'NONE', *, *, #167, .T. ) ;
#1226 = CARTESIAN_POINT ( 'NONE',  ( 29.77091955290960712, -12.20000000000000462, -19.73894265988904806 ) ) ;
#1227 = EDGE_LOOP ( 'NONE', ( #118, #382, #1075, #337, #738, #814, #622, #1037, #1147 ) ) ;
#1228 = CARTESIAN_POINT ( 'NONE',  ( 0.0000000000000000000, 2.000000000000000000, 0.0000000000000000000 ) ) ;
#1229 = LINE ( 'NONE', #1198, #982 ) ;
#1230 = DIRECTION ( 'NONE',  ( 0.0000000000000000000, 0.0000000000000000000, 1.000000000000000000 ) ) ;
#1231 = CARTESIAN_POINT ( 'NONE',  ( 12.99999999999999822, -6.100000000000001421, 9.000000000000001776 ) ) ;
#1232 = ADVANCED_FACE ( 'NONE', ( #1123, #50 ), #247, .F. ) ;
#1233 = CARTESIAN_POINT ( 'NONE',  ( 6.650000000000001243, 2.000000000000000000, 5.000000000000000000 ) ) ;
#1234 = EDGE_CURVE ( 'NONE', #200, #251, #522, .T. ) ;
#1235 = FACE_OUTER_BOUND ( 'NONE', #400, .T. ) ;
#1236 = EDGE_CURVE ( 'NONE', #314, #975, #486, .T. ) ;
#1237 = CIRCLE ( 'NONE', #281, 1.649999999999998579 ) ;
#1238 = CYLINDRICAL_SURFACE ( 'NONE', #517, 1.649999999999998579 ) ;
#1239 = ORIENTED_EDGE ( 'NONE', *, *, #317, .F. ) ;
#1240 = ORIENTED_EDGE ( 'NONE', *, *, #1302, .T. ) ;
#1241 = AXIS2_PLACEMENT_3D ( 'NONE', #228, #28, #1032 ) ;
#1242 = ORIENTED_EDGE ( 'NONE', *, *, #40, .F. ) ;
#1243 = EDGE_LOOP ( 'NONE', ( #798, #270, #715, #1160, #396, #868 ) ) ;
#1244 = CARTESIAN_POINT ( 'NONE',  ( 14.35000000000000497, -9.100000000000003197, 0.0000000000000000000 ) ) ;
#1245 = LINE ( 'NONE', #688, #454 ) ;
#1246 = CARTESIAN_POINT ( 'NONE',  ( 5.000000000000001776, -14.20000000000000462, 5.000000000000000000 ) ) ;
#1247 = DIRECTION ( 'NONE',  ( 1.000000000000000000, 0.0000000000000000000, 0.0000000000000000000 ) ) ;
#1248 = PLANE ( 'NONE',  #362 ) ;
#1249 = AXIS2_PLACEMENT_3D ( 'NONE', #114, #827, #716 ) ;
#1250 = EDGE_CURVE ( 'NONE', #1193, #621, #1271, .T. ) ;
#1251 =( LENGTH_UNIT ( ) NAMED_UNIT ( * ) SI_UNIT ( .MILLI., .METRE. ) );
#1252 = LINE ( 'NONE', #1078, #1125 ) ;
#1253 = CARTESIAN_POINT ( 'NONE',  ( 5.000000000000001776, -12.70000000000000462, 3.349999999999999645 ) ) ;
#1254 = VECTOR ( 'NONE', #503, 1000.000000000000000 ) ;
#1255 = DIRECTION ( 'NONE',  ( 1.846055003172022053E-16, -1.000000000000000000, 0.0000000000000000000 ) ) ;
#1256 = CIRCLE ( 'NONE', #1062, 6.000000000000000000 ) ;
#1257 = ORIENTED_EDGE ( 'NONE', *, *, #1121, .F. ) ;
#1258 = ORIENTED_EDGE ( 'NONE', *, *, #375, .T. ) ;
#1259 = CARTESIAN_POINT ( 'NONE',  ( 12.99999999999999822, -2.100000000000000977, 2.000000000000000000 ) ) ;
#1260 = ORIENTED_EDGE ( 'NONE', *, *, #650, .F. ) ;
#1261 = EDGE_CURVE ( 'NONE', #719, #452, #763, .T. ) ;
#1262 = CARTESIAN_POINT ( 'NONE',  ( 25.00000000000000000, -14.20000000000000107, 10.00000000000000000 ) ) ;
#1263 = CIRCLE ( 'NONE', #937, 6.000000000000000000 ) ;
#1264 = EDGE_CURVE ( 'NONE', #1285, #314, #1172, .T. ) ;
#1265 = DIRECTION ( 'NONE',  ( -0.0000000000000000000, -0.0000000000000000000, -1.000000000000000000 ) ) ;
#1266 = CARTESIAN_POINT ( 'NONE',  ( 19.00000000000000355, 0.0000000000000000000, 10.00000000000000000 ) ) ;
#1267 = AXIS2_PLACEMENT_3D ( 'NONE', #316, #729, #1114 ) ;
#1268 = CARTESIAN_POINT ( 'NONE',  ( 11.00000000000000000, -1.224646799147354440E-16, 10.00000000000000000 ) ) ;
#1269 = LINE ( 'NONE', #747, #792 ) ;
#1270 = CARTESIAN_POINT ( 'NONE',  ( -0.6895995171110637090, -12.70000000000000639, 6.650000000000000355 ) ) ;
#1271 = LINE ( 'NONE', #121, #1000 ) ;
#1272 = FACE_OUTER_BOUND ( 'NONE', #1227, .T. ) ;
#1273 = ORIENTED_EDGE ( 'NONE', *, *, #152, .T. ) ;
#1274 = ORGANIZATION ( 'UNSPECIFIED', 'UNSPECIFIED', '' ) ;
#1275 = ORIENTED_EDGE ( 'NONE', *, *, #802, .F. ) ;
#1276 = ORIENTED_EDGE ( 'NONE', *, *, #579, .T. ) ;
#1277 = ORIENTED_EDGE ( 'NONE', *, *, #437, .F. ) ;
#1278 = EDGE_CURVE ( 'NONE', #369, #685, #392, .T. ) ;
#1279 = FACE_OUTER_BOUND ( 'NONE', #431, .T. ) ;
#1280 = DIRECTION ( 'NONE',  ( 1.000000000000000000, 1.264477004108022339E-16, 0.0000000000000000000 ) ) ;
#1281 = VECTOR ( 'NONE', #525, 1000.000000000000000 ) ;
#1282 = EDGE_CURVE ( 'NONE', #131, #524, #653, .T. ) ;
#1283 = ORIENTED_EDGE ( 'NONE', *, *, #512, .F. ) ;
#1284 = SHAPE_DEFINITION_REPRESENTATION ( #825, #916 ) ;
#1285 = VERTEX_POINT ( 'NONE', #446 ) ;
#1286 = ORIENTED_EDGE ( 'NONE', *, *, #60, .T. ) ;
#1287 = CARTESIAN_POINT ( 'NONE',  ( 16.00000000000000711, -9.100000000000003197, 0.0000000000000000000 ) ) ;
#1288 = ORIENTED_EDGE ( 'NONE', *, *, #788, .T. ) ;
#1289 = AXIS2_PLACEMENT_3D ( 'NONE', #62, #1182, #878 ) ;
#1290 = FACE_OUTER_BOUND ( 'NONE', #98, .T. ) ;
#1291 = CARTESIAN_POINT ( 'NONE',  ( 0.0000000000000000000, 2.000000000000000000, 10.00000000000000000 ) ) ;
#1292 = CARTESIAN_POINT ( 'NONE',  ( 0.0000000000000000000, 0.5000000000000000000, 10.00000000000000000 ) ) ;
#1293 = CARTESIAN_POINT ( 'NONE',  ( 11.00000000000000000, -1.224646799147354440E-16, 10.00000000000000000 ) ) ;
#1294 = CARTESIAN_POINT ( 'NONE',  ( 5.000000000000000888, -5.566576359760703568E-17, 6.650000000000000355 ) ) ;
#1295 = VECTOR ( 'NONE', #757, 1000.000000000000000 ) ;
#1296 = FACE_OUTER_BOUND ( 'NONE', #979, .T. ) ;
#1297 = VECTOR ( 'NONE', #284, 1000.000000000000000 ) ;
#1298 = ORIENTED_EDGE ( 'NONE', *, *, #802, .T. ) ;
#1299 = DATE_AND_TIME ( #370, #1071 ) ;
#1300 = ORIENTED_EDGE ( 'NONE', *, *, #991, .T. ) ;
#1301 = EDGE_LOOP ( 'NONE', ( #587, #1260, #1205, #1148 ) ) ;
#1302 = EDGE_CURVE ( 'NONE', #131, #961, #366, .T. ) ;
#1303 = ORIENTED_EDGE ( 'NONE', *, *, #1192, .T. ) ;
#1304 = DIRECTION ( 'NONE',  ( -1.000000000000000000, 1.807003620809173954E-17, -4.481368979606751924E-15 ) ) ;
#1305 = LINE ( 'NONE', #1021, #1100 ) ;
#1306 = DIRECTION ( 'NONE',  ( 0.0000000000000000000, -1.000000000000000000, -1.302086050141611115E-32 ) ) ;
#1307 = DIRECTION ( 'NONE',  ( -0.0000000000000000000, -0.0000000000000000000, 1.000000000000000000 ) ) ;
#1308 = DIRECTION ( 'NONE',  ( -0.0000000000000000000, -1.000000000000000000, -0.0000000000000000000 ) ) ;
#1309 = DIRECTION ( 'NONE',  ( -1.000000000000000000, 1.113315271952140498E-17, 0.0000000000000000000 ) ) ;
#1310 = VECTOR ( 'NONE', #328, 1000.000000000000000 ) ;
#1311 = ADVANCED_FACE ( 'NONE', ( #973 ), #359, .F. ) ;
#1312 = EDGE_CURVE ( 'NONE', #895, #1042, #135, .T. ) ;
#1313 = ORIENTED_EDGE ( 'NONE', *, *, #737, .F. ) ;
ENDSEC;
END-ISO-10303-21;
