M48
; DRILL file KiCad 10.0.3 date 2026-09-10T20:56:27
; FORMAT={-:-/ absolute / metric / decimal}
; #@! TF.CreationDate,2026-09-10T20:56:27+03:00
; #@! TF.GenerationSoftware,Kicad,Pcbnew,10.0.3
; #@! TF.FileFunction,MixedPlating,1,2
FMAT,2
METRIC
; #@! TA.AperFunction,Plated,PTH,ViaDrill
T1C0.800
; #@! TA.AperFunction,Plated,PTH,ComponentDrill
T2C0.800
; #@! TA.AperFunction,Plated,PTH,ComponentDrill
T3C0.950
; #@! TA.AperFunction,Plated,PTH,ComponentDrill
T4C1.000
; #@! TA.AperFunction,Plated,PTH,ViaDrill
T5C2.000
%
G90
G05
T1
X45.0Y-41.0
X45.0Y-55.0
X53.5Y-37.5
X54.888Y-75.009
X55.79Y-65.762
X56.119Y-80.119
X68.51Y-66.258
X69.005Y-32.345
X69.005Y-41.853
X69.201Y-80.304
X70.257Y-70.544
X73.281Y-83.926
X73.605Y-41.853
X73.605Y-122.877
X77.345Y-69.593
X78.252Y-65.762
X80.197Y-80.108
X82.957Y-70.479
X86.453Y-70.327
X91.95Y-46.635
X102.0Y-41.0
X102.0Y-55.0
X110.5Y-37.5
X111.888Y-75.009
X112.79Y-65.762
X113.119Y-80.119
X125.51Y-66.258
X126.005Y-32.345
X126.005Y-41.853
X126.201Y-80.304
X127.257Y-70.544
X130.281Y-83.926
X130.605Y-41.853
X130.605Y-122.877
X134.345Y-69.593
X135.252Y-65.762
X137.196Y-80.108
X139.957Y-70.479
X143.452Y-70.327
X148.95Y-46.635
X159.0Y-41.0
X159.0Y-55.0
X167.5Y-37.5
X168.888Y-75.009
X169.79Y-65.762
X170.119Y-80.119
X182.51Y-66.258
X183.005Y-32.345
X183.005Y-41.853
X183.201Y-80.304
X184.257Y-70.544
X187.281Y-83.926
X187.605Y-41.853
X187.605Y-122.877
X191.345Y-69.593
X192.252Y-65.762
X194.196Y-80.108
X196.957Y-70.479
X200.452Y-70.327
X205.95Y-46.635
T2
X45.76Y-85.0
X48.3Y-85.0
X48.5Y-35.0
X48.5Y-37.54
X48.5Y-40.08
X48.5Y-42.62
X48.5Y-45.16
X48.5Y-47.7
X48.5Y-50.24
X48.5Y-52.78
X48.5Y-55.32
X48.5Y-57.86
X48.5Y-60.4
X48.5Y-62.94
X48.5Y-65.48
X48.5Y-68.02
X48.5Y-70.56
X50.84Y-85.0
X50.84Y-120.44
X53.38Y-85.0
X55.92Y-85.0
X55.92Y-120.44
X58.46Y-85.0
X61.0Y-85.0
X63.74Y-35.0
X63.74Y-37.54
X63.74Y-40.08
X63.74Y-42.62
X63.74Y-45.16
X63.74Y-47.7
X63.74Y-50.24
X63.74Y-52.78
X63.74Y-55.32
X63.74Y-57.86
X63.74Y-60.4
X63.74Y-62.94
X63.74Y-65.48
X63.74Y-68.02
X63.74Y-70.56
X74.64Y-48.61
X74.64Y-51.15
X74.64Y-53.69
X74.64Y-56.23
X74.64Y-58.77
X74.64Y-61.31
X74.64Y-63.85
X74.64Y-66.39
X86.0Y-75.0
X87.34Y-48.61
X87.34Y-51.15
X87.34Y-53.69
X87.34Y-56.23
X87.34Y-58.77
X87.34Y-61.31
X87.34Y-63.85
X87.34Y-66.39
X88.5Y-75.0
X102.76Y-85.0
X105.3Y-85.0
X105.5Y-35.0
X105.5Y-37.54
X105.5Y-40.08
X105.5Y-42.62
X105.5Y-45.16
X105.5Y-47.7
X105.5Y-50.24
X105.5Y-52.78
X105.5Y-55.32
X105.5Y-57.86
X105.5Y-60.4
X105.5Y-62.94
X105.5Y-65.48
X105.5Y-68.02
X105.5Y-70.56
X107.84Y-85.0
X107.84Y-120.44
X110.38Y-85.0
X112.92Y-85.0
X112.92Y-120.44
X115.46Y-85.0
X118.0Y-85.0
X120.74Y-35.0
X120.74Y-37.54
X120.74Y-40.08
X120.74Y-42.62
X120.74Y-45.16
X120.74Y-47.7
X120.74Y-50.24
X120.74Y-52.78
X120.74Y-55.32
X120.74Y-57.86
X120.74Y-60.4
X120.74Y-62.94
X120.74Y-65.48
X120.74Y-68.02
X120.74Y-70.56
X131.64Y-48.61
X131.64Y-51.15
X131.64Y-53.69
X131.64Y-56.23
X131.64Y-58.77
X131.64Y-61.31
X131.64Y-63.85
X131.64Y-66.39
X143.0Y-75.0
X144.34Y-48.61
X144.34Y-51.15
X144.34Y-53.69
X144.34Y-56.23
X144.34Y-58.77
X144.34Y-61.31
X144.34Y-63.85
X144.34Y-66.39
X145.5Y-75.0
X159.76Y-85.0
X162.3Y-85.0
X162.5Y-35.0
X162.5Y-37.54
X162.5Y-40.08
X162.5Y-42.62
X162.5Y-45.16
X162.5Y-47.7
X162.5Y-50.24
X162.5Y-52.78
X162.5Y-55.32
X162.5Y-57.86
X162.5Y-60.4
X162.5Y-62.94
X162.5Y-65.48
X162.5Y-68.02
X162.5Y-70.56
X164.84Y-85.0
X164.84Y-120.44
X167.38Y-85.0
X169.92Y-85.0
X169.92Y-120.44
X172.46Y-85.0
X175.0Y-85.0
X177.74Y-35.0
X177.74Y-37.54
X177.74Y-40.08
X177.74Y-42.62
X177.74Y-45.16
X177.74Y-47.7
X177.74Y-50.24
X177.74Y-52.78
X177.74Y-55.32
X177.74Y-57.86
X177.74Y-60.4
X177.74Y-62.94
X177.74Y-65.48
X177.74Y-68.02
X177.74Y-70.56
X188.64Y-48.61
X188.64Y-51.15
X188.64Y-53.69
X188.64Y-56.23
X188.64Y-58.77
X188.64Y-61.31
X188.64Y-63.85
X188.64Y-66.39
X200.0Y-75.0
X201.34Y-48.61
X201.34Y-51.15
X201.34Y-53.69
X201.34Y-56.23
X201.34Y-58.77
X201.34Y-61.31
X201.34Y-63.85
X201.34Y-66.39
X202.5Y-75.0
T3
X43.5Y-45.0
X43.5Y-47.5
X43.5Y-50.0
X46.0Y-130.0
X48.5Y-130.0
X51.0Y-130.0
X53.5Y-130.0
X77.25Y-38.025
X79.75Y-38.025
X82.25Y-38.025
X84.75Y-38.025
X100.5Y-45.0
X100.5Y-47.5
X100.5Y-50.0
X103.0Y-130.0
X105.5Y-130.0
X108.0Y-130.0
X110.5Y-130.0
X134.25Y-38.025
X136.75Y-38.025
X139.25Y-38.025
X141.75Y-38.025
X157.5Y-45.0
X157.5Y-47.5
X157.5Y-50.0
X160.0Y-130.0
X162.5Y-130.0
X165.0Y-130.0
X167.5Y-130.0
X191.25Y-38.025
X193.75Y-38.025
X196.25Y-38.025
X198.75Y-38.025
T4
X73.34Y-128.18
X78.42Y-128.18
X83.5Y-85.0
X88.58Y-85.0
X130.34Y-128.18
X135.42Y-128.18
X140.5Y-85.0
X145.58Y-85.0
X187.34Y-128.18
X192.42Y-128.18
X197.5Y-85.0
X202.58Y-85.0
T5
X41.0Y-32.5
X41.0Y-132.5
X91.0Y-32.5
X91.0Y-132.5
X98.0Y-32.5
X98.0Y-132.5
X148.0Y-32.5
X148.0Y-132.5
X155.0Y-32.5
X155.0Y-132.5
X205.0Y-32.5
X205.0Y-132.5
M30
