ISO-10303-21;
HEADER;
FILE_DESCRIPTION(('STEP AP242'),
    '1');
FILE_NAME('NumberTablet_102',
    '',
    ('UNSPECIFIED'),
    ('UNSPECIFIED'),
    'C3D Converter',
    'C3D Toolkit',
    '');
FILE_SCHEMA(('AP242_MANAGED_MODEL_BASED_3D_ENGINEERING_MIM_LF { 1 0 10303 442 1 1 4 }'));
ENDSEC;

DATA;
#1=PRODUCT_DEFINITION('','UNSPECIFIED',#28,#31);
#2=SHAPE_DEFINITION_REPRESENTATION(#26,#3);
#3=SHAPE_REPRESENTATION('NONE',(#4),#8);
#4=AXIS2_PLACEMENT_3D('',#5,#6,#7);
#5=CARTESIAN_POINT('',(0.,0.,0.));
#6=DIRECTION('',(0.,0.,1.));
#7=DIRECTION('',(1.,0.,0.));
#8=(GEOMETRIC_REPRESENTATION_CONTEXT(3)GLOBAL_UNCERTAINTY_ASSIGNED_CONTEXT((#10))
GLOBAL_UNIT_ASSIGNED_CONTEXT((#9,#11,#12))REPRESENTATION_CONTEXT('NONE','NONE'));
#9=(LENGTH_UNIT()NAMED_UNIT(*)SI_UNIT(.MILLI.,.METRE.));
#10=UNCERTAINTY_MEASURE_WITH_UNIT(LENGTH_MEASURE(1.E-5),#9,'NONE','NONE');
#11=(NAMED_UNIT(*)PLANE_ANGLE_UNIT()SI_UNIT($,.RADIAN.));
#12=(NAMED_UNIT(*)SI_UNIT($,.STERADIAN.)SOLID_ANGLE_UNIT());
#13=MANIFOLD_SOLID_BREP('',#14);
#14=CLOSED_SHELL('',(#53,#54,#55,#56,#57,#58,#59,#60,#61,#62,#63,#64,#65,#66,#67,
#68,#69,#70,#71,#72,#73,#74,#75,#76,#77,#78,#79,#80,#81,#82,#83,#84,#85,#86,#87,
#88,#89,#90,#91,#92,#93,#94,#95,#96,#97,#98,#99,#100,#101,#102,#103,#104,#105,#106,
#107,#108,#109,#110,#111,#112));
#15=COLOUR_RGB('',0.564705882352941,0.564705882352941,0.564705882352941);
#16=FILL_AREA_STYLE_COLOUR('',#15);
#17=FILL_AREA_STYLE($,(#16));
#18=SURFACE_STYLE_FILL_AREA(#17);
#19=SURFACE_SIDE_STYLE('',(#18));
#20=SURFACE_STYLE_USAGE(.BOTH.,#19);
#21=PRESENTATION_STYLE_ASSIGNMENT((#20));
#22=MECHANICAL_DESIGN_GEOMETRIC_PRESENTATION_REPRESENTATION('NONE',(#23),#8);
#23=STYLED_ITEM('',(#21),#13);
#24=ADVANCED_BREP_SHAPE_REPRESENTATION('NONE',(#13),#8);
#25=SHAPE_REPRESENTATION_RELATIONSHIP('','',#3,#24);
#26=PRODUCT_DEFINITION_SHAPE('NONE','NONE',#1);
#27=MECHANICAL_CONTEXT('NONE',#32,'mechanical');
#28=PRODUCT_DEFINITION_FORMATION_WITH_SPECIFIED_SOURCE('ANY','UNSPECIFIED',#29,.NOT_KNOWN.);
#29=PRODUCT('','\X2\0414043504420430043B044C\X0\','NONE',(#27));
#30=PRODUCT_RELATED_PRODUCT_CATEGORY('detail','',(#29));
#31=DESIGN_CONTEXT('detailed design',#32,'design');
#32=APPLICATION_CONTEXT('configuration controlled 3d designs of mechanical parts and assemblies');
#33=APPLICATION_PROTOCOL_DEFINITION('international standard','config_control_design',
1994,#32);
#34=CC_DESIGN_DATE_AND_TIME_ASSIGNMENT(#35,#39,(#1));
#35=DATE_AND_TIME(#36,#37);
#36=CALENDAR_DATE(0,1,1);
#37=LOCAL_TIME(0,0,0.,#38);
#38=COORDINATED_UNIVERSAL_TIME_OFFSET(0,0,.AHEAD.);
#39=DATE_TIME_ROLE('creation_date');
#40=CC_DESIGN_APPROVAL(#41,(#1));
#41=APPROVAL(#42,'UNSPECIFIED');
#42=APPROVAL_STATUS('not_yet_approved');
#43=APPROVAL_DATE_TIME(#44,#41);
#44=DATE_AND_TIME(#45,#46);
#45=CALENDAR_DATE(0,1,1);
#46=LOCAL_TIME(0,0,0.,#47);
#47=COORDINATED_UNIVERSAL_TIME_OFFSET(0,0,.AHEAD.);
#48=PERSON('UNSPECIFIED','Cybermeatball','UNSPECIFIED',('UNSPECIFIED'),('UNSPECIFIED'),
('UNSPECIFIED'));
#49=ORGANIZATION('UNSPECIFIED','UNSPECIFIED','UNSPECIFIED');
#50=PERSON_AND_ORGANIZATION(#48,#49);
#51=PERSON_AND_ORGANIZATION_ROLE('creator');
#52=CC_DESIGN_PERSON_AND_ORGANIZATION_ASSIGNMENT(#50,#51,(#28,#1));
#53=ADVANCED_FACE('',(#113),#115,.T.);
#54=ADVANCED_FACE('',(#120,#122,#124,#126),#128,.T.);
#55=ADVANCED_FACE('',(#133),#135,.T.);
#56=ADVANCED_FACE('',(#140),#142,.T.);
#57=ADVANCED_FACE('',(#146),#148,.T.);
#58=ADVANCED_FACE('',(#152),#154,.T.);
#59=ADVANCED_FACE('',(#158),#160,.T.);
#60=ADVANCED_FACE('',(#164),#166,.T.);
#61=ADVANCED_FACE('',(#170),#172,.T.);
#62=ADVANCED_FACE('',(#176),#178,.T.);
#63=ADVANCED_FACE('',(#183),#185,.T.);
#64=ADVANCED_FACE('',(#190),#192,.T.);
#65=ADVANCED_FACE('',(#196),#198,.T.);
#66=ADVANCED_FACE('',(#202),#204,.T.);
#67=ADVANCED_FACE('',(#208),#210,.T.);
#68=ADVANCED_FACE('',(#214),#216,.T.);
#69=ADVANCED_FACE('',(#220),#222,.T.);
#70=ADVANCED_FACE('',(#226),#228,.T.);
#71=ADVANCED_FACE('',(#232),#234,.T.);
#72=ADVANCED_FACE('',(#238),#240,.T.);
#73=ADVANCED_FACE('',(#245),#247,.T.);
#74=ADVANCED_FACE('',(#252),#254,.T.);
#75=ADVANCED_FACE('',(#259),#261,.T.);
#76=ADVANCED_FACE('',(#266),#268,.T.);
#77=ADVANCED_FACE('',(#272),#274,.T.);
#78=ADVANCED_FACE('',(#278),#280,.T.);
#79=ADVANCED_FACE('',(#284),#286,.T.);
#80=ADVANCED_FACE('',(#290),#292,.T.);
#81=ADVANCED_FACE('',(#296),#298,.T.);
#82=ADVANCED_FACE('',(#302),#304,.T.);
#83=ADVANCED_FACE('',(#308),#310,.T.);
#84=ADVANCED_FACE('',(#314),#316,.T.);
#85=ADVANCED_FACE('',(#320),#322,.T.);
#86=ADVANCED_FACE('',(#326),#328,.F.);
#87=ADVANCED_FACE('',(#332),#334,.F.);
#88=ADVANCED_FACE('',(#338),#340,.F.);
#89=ADVANCED_FACE('',(#344),#346,.F.);
#90=ADVANCED_FACE('',(#350),#352,.F.);
#91=ADVANCED_FACE('',(#356),#358,.F.);
#92=ADVANCED_FACE('',(#362),#364,.F.);
#93=ADVANCED_FACE('',(#368),#370,.F.);
#94=ADVANCED_FACE('',(#374),#376,.T.);
#95=ADVANCED_FACE('',(#381),#383,.T.);
#96=ADVANCED_FACE('',(#388),#390,.T.);
#97=ADVANCED_FACE('',(#395),#397,.T.);
#98=ADVANCED_FACE('',(#402),#404,.T.);
#99=ADVANCED_FACE('',(#409),#411,.T.);
#100=ADVANCED_FACE('',(#416),#418,.F.);
#101=ADVANCED_FACE('',(#423),#425,.F.);
#102=ADVANCED_FACE('',(#430),#432,.F.);
#103=ADVANCED_FACE('',(#437),#439,.F.);
#104=ADVANCED_FACE('',(#444),#446,.T.);
#105=ADVANCED_FACE('',(#451,#453),#455,.T.);
#106=ADVANCED_FACE('',(#460),#462,.T.);
#107=ADVANCED_FACE('',(#467,#469),#471,.T.);
#108=ADVANCED_FACE('',(#476),#478,.T.);
#109=ADVANCED_FACE('',(#483),#485,.T.);
#110=ADVANCED_FACE('',(#490),#492,.T.);
#111=ADVANCED_FACE('',(#497),#499,.T.);
#112=ADVANCED_FACE('',(#504),#506,.F.);
#113=FACE_BOUND('',#114,.T.);
#114=EDGE_LOOP('',(#511,#512,#513,#514,#515,#516,#517,#518));
#115=PLANE('',#116);
#116=AXIS2_PLACEMENT_3D('',#117,#118,#119);
#117=CARTESIAN_POINT('',(0.,0.,1.));
#118=DIRECTION('',(0.,0.,1.));
#119=DIRECTION('',(1.,0.,0.));
#120=FACE_BOUND('',#121,.T.);
#121=EDGE_LOOP('',(#519,#520,#521,#522));
#122=FACE_BOUND('',#123,.T.);
#123=EDGE_LOOP('',(#523,#524,#525,#526,#527,#528));
#124=FACE_BOUND('',#125,.T.);
#125=EDGE_LOOP('',(#529,#530,#531,#532,#533,#534,#535,#536,#537,#538));
#126=FACE_BOUND('',#127,.T.);
#127=EDGE_LOOP('',(#539,#540,#541,#542,#543,#544,#545,#546,#547,#548,#549,#550,#551,
#552,#553,#554,#555,#556,#557,#558,#559));
#128=PLANE('',#129);
#129=AXIS2_PLACEMENT_3D('',#130,#131,#132);
#130=CARTESIAN_POINT('',(0.,0.,1.));
#131=DIRECTION('',(0.,0.,1.));
#132=DIRECTION('',(1.,0.,0.));
#133=FACE_BOUND('',#134,.T.);
#134=EDGE_LOOP('',(#560,#561,#562,#563));
#135=PLANE('',#136);
#136=AXIS2_PLACEMENT_3D('',#137,#138,#139);
#137=CARTESIAN_POINT('',(29.7822835622268,4.59318777139117,1.));
#138=DIRECTION('',(-0.630874576358027,0.775884829665511,0.));
#139=DIRECTION('',(-0.775884829665511,-0.630874576358027,0.));
#140=FACE_BOUND('',#141,.T.);
#141=EDGE_LOOP('',(#564,#565,#566,#567));
#142=SURFACE_OF_LINEAR_EXTRUSION('',#143,#144);
#143=B_SPLINE_CURVE_WITH_KNOTS('',2,
(#568,#569,#570),
.UNSPECIFIED.,.F.,.F.,
(3,3),
(0.,1.),
.UNSPECIFIED.);
#144=VECTOR('',#145,1.);
#145=DIRECTION('',(0.,0.,1.));
#146=FACE_BOUND('',#147,.T.);
#147=EDGE_LOOP('',(#571,#572,#573,#574));
#148=SURFACE_OF_LINEAR_EXTRUSION('',#149,#150);
#149=B_SPLINE_CURVE_WITH_KNOTS('',2,
(#575,#576,#577),
.UNSPECIFIED.,.F.,.F.,
(3,3),
(0.,1.),
.UNSPECIFIED.);
#150=VECTOR('',#151,1.);
#151=DIRECTION('',(0.,0.,1.));
#152=FACE_BOUND('',#153,.T.);
#153=EDGE_LOOP('',(#578,#579,#580,#581));
#154=SURFACE_OF_LINEAR_EXTRUSION('',#155,#156);
#155=B_SPLINE_CURVE_WITH_KNOTS('',2,
(#582,#583,#584),
.UNSPECIFIED.,.F.,.F.,
(3,3),
(0.,1.),
.UNSPECIFIED.);
#156=VECTOR('',#157,1.);
#157=DIRECTION('',(0.,0.,1.));
#158=FACE_BOUND('',#159,.T.);
#159=EDGE_LOOP('',(#585,#586,#587,#588));
#160=SURFACE_OF_LINEAR_EXTRUSION('',#161,#162);
#161=B_SPLINE_CURVE_WITH_KNOTS('',2,
(#589,#590,#591),
.UNSPECIFIED.,.F.,.F.,
(3,3),
(0.,1.),
.UNSPECIFIED.);
#162=VECTOR('',#163,1.);
#163=DIRECTION('',(0.,0.,1.));
#164=FACE_BOUND('',#165,.T.);
#165=EDGE_LOOP('',(#592,#593,#594,#595));
#166=SURFACE_OF_LINEAR_EXTRUSION('',#167,#168);
#167=B_SPLINE_CURVE_WITH_KNOTS('',2,
(#596,#597,#598),
.UNSPECIFIED.,.F.,.F.,
(3,3),
(0.,1.),
.UNSPECIFIED.);
#168=VECTOR('',#169,1.);
#169=DIRECTION('',(0.,0.,1.));
#170=FACE_BOUND('',#171,.T.);
#171=EDGE_LOOP('',(#599,#600,#601,#602));
#172=SURFACE_OF_LINEAR_EXTRUSION('',#173,#174);
#173=B_SPLINE_CURVE_WITH_KNOTS('',2,
(#603,#604,#605),
.UNSPECIFIED.,.F.,.F.,
(3,3),
(0.,1.),
.UNSPECIFIED.);
#174=VECTOR('',#175,1.);
#175=DIRECTION('',(0.,0.,1.));
#176=FACE_BOUND('',#177,.T.);
#177=EDGE_LOOP('',(#606,#607,#608,#609));
#178=PLANE('',#179);
#179=AXIS2_PLACEMENT_3D('',#180,#181,#182);
#180=CARTESIAN_POINT('',(30.8168705343283,7.82811587418611,1.));
#181=DIRECTION('',(0.94680526547428,-0.321807068396856,0.));
#182=DIRECTION('',(0.321807068396856,0.94680526547428,0.));
#183=FACE_BOUND('',#184,.T.);
#184=EDGE_LOOP('',(#610,#611,#612,#613));
#185=PLANE('',#186);
#186=AXIS2_PLACEMENT_3D('',#187,#188,#189);
#187=CARTESIAN_POINT('',(29.7437205343283,7.82811587418611,1.));
#188=DIRECTION('',(0.,-1.,0.));
#189=DIRECTION('',(1.,0.,0.));
#190=FACE_BOUND('',#191,.T.);
#191=EDGE_LOOP('',(#614,#615,#616,#617));
#192=SURFACE_OF_LINEAR_EXTRUSION('',#193,#194);
#193=B_SPLINE_CURVE_WITH_KNOTS('',2,
(#618,#619,#620),
.UNSPECIFIED.,.F.,.F.,
(3,3),
(0.,1.),
.UNSPECIFIED.);
#194=VECTOR('',#195,1.);
#195=DIRECTION('',(0.,0.,1.));
#196=FACE_BOUND('',#197,.T.);
#197=EDGE_LOOP('',(#621,#622,#623,#624));
#198=SURFACE_OF_LINEAR_EXTRUSION('',#199,#200);
#199=B_SPLINE_CURVE_WITH_KNOTS('',2,
(#625,#626,#627),
.UNSPECIFIED.,.F.,.F.,
(3,3),
(0.,1.),
.UNSPECIFIED.);
#200=VECTOR('',#201,1.);
#201=DIRECTION('',(0.,0.,1.));
#202=FACE_BOUND('',#203,.T.);
#203=EDGE_LOOP('',(#628,#629,#630,#631));
#204=SURFACE_OF_LINEAR_EXTRUSION('',#205,#206);
#205=B_SPLINE_CURVE_WITH_KNOTS('',2,
(#632,#633,#634),
.UNSPECIFIED.,.F.,.F.,
(3,3),
(0.,1.),
.UNSPECIFIED.);
#206=VECTOR('',#207,1.);
#207=DIRECTION('',(0.,0.,1.));
#208=FACE_BOUND('',#209,.T.);
#209=EDGE_LOOP('',(#635,#636,#637,#638));
#210=SURFACE_OF_LINEAR_EXTRUSION('',#211,#212);
#211=B_SPLINE_CURVE_WITH_KNOTS('',2,
(#639,#640,#641),
.UNSPECIFIED.,.F.,.F.,
(3,3),
(0.,1.),
.UNSPECIFIED.);
#212=VECTOR('',#213,1.);
#213=DIRECTION('',(0.,0.,1.));
#214=FACE_BOUND('',#215,.T.);
#215=EDGE_LOOP('',(#642,#643,#644,#645));
#216=SURFACE_OF_LINEAR_EXTRUSION('',#217,#218);
#217=B_SPLINE_CURVE_WITH_KNOTS('',2,
(#646,#647,#648),
.UNSPECIFIED.,.F.,.F.,
(3,3),
(0.,1.),
.UNSPECIFIED.);
#218=VECTOR('',#219,1.);
#219=DIRECTION('',(0.,0.,1.));
#220=FACE_BOUND('',#221,.T.);
#221=EDGE_LOOP('',(#649,#650,#651,#652));
#222=SURFACE_OF_LINEAR_EXTRUSION('',#223,#224);
#223=B_SPLINE_CURVE_WITH_KNOTS('',2,
(#653,#654,#655),
.UNSPECIFIED.,.F.,.F.,
(3,3),
(0.,1.),
.UNSPECIFIED.);
#224=VECTOR('',#225,1.);
#225=DIRECTION('',(0.,0.,1.));
#226=FACE_BOUND('',#227,.T.);
#227=EDGE_LOOP('',(#656,#657,#658,#659));
#228=SURFACE_OF_LINEAR_EXTRUSION('',#229,#230);
#229=B_SPLINE_CURVE_WITH_KNOTS('',2,
(#660,#661,#662),
.UNSPECIFIED.,.F.,.F.,
(3,3),
(0.,1.),
.UNSPECIFIED.);
#230=VECTOR('',#231,1.);
#231=DIRECTION('',(0.,0.,1.));
#232=FACE_BOUND('',#233,.T.);
#233=EDGE_LOOP('',(#663,#664,#665,#666));
#234=SURFACE_OF_LINEAR_EXTRUSION('',#235,#236);
#235=B_SPLINE_CURVE_WITH_KNOTS('',2,
(#667,#668,#669),
.UNSPECIFIED.,.F.,.F.,
(3,3),
(0.,1.),
.UNSPECIFIED.);
#236=VECTOR('',#237,1.);
#237=DIRECTION('',(0.,0.,1.));
#238=FACE_BOUND('',#239,.T.);
#239=EDGE_LOOP('',(#670,#671,#672,#673));
#240=PLANE('',#241);
#241=AXIS2_PLACEMENT_3D('',#242,#243,#244);
#242=CARTESIAN_POINT('',(33.9784759924804,3.38523254085278,1.));
#243=DIRECTION('',(0.,1.,0.));
#244=DIRECTION('',(-1.,0.,0.));
#245=FACE_BOUND('',#246,.T.);
#246=EDGE_LOOP('',(#674,#675,#676,#677));
#247=PLANE('',#248);
#248=AXIS2_PLACEMENT_3D('',#249,#250,#251);
#249=CARTESIAN_POINT('',(33.6180804109845,2.32478254085278,1.));
#250=DIRECTION('',(0.946815571695397,-0.321776744335445,0.));
#251=DIRECTION('',(0.321776744335445,0.946815571695397,0.));
#252=FACE_BOUND('',#253,.T.);
#253=EDGE_LOOP('',(#678,#679,#680,#681));
#254=PLANE('',#255);
#255=AXIS2_PLACEMENT_3D('',#256,#257,#258);
#256=CARTESIAN_POINT('',(27.8734470776512,2.32478254085278,1.));
#257=DIRECTION('',(0.,-1.,0.));
#258=DIRECTION('',(1.,0.,0.));
#259=FACE_BOUND('',#260,.T.);
#260=EDGE_LOOP('',(#682,#683,#684,#685));
#261=PLANE('',#262);
#262=AXIS2_PLACEMENT_3D('',#263,#264,#265);
#263=CARTESIAN_POINT('',(28.2098317428428,3.31462188446052,1.));
#264=DIRECTION('',(-0.946819585941524,0.321764932330298,0.));
#265=DIRECTION('',(-0.321764932330298,-0.946819585941524,0.));
#266=FACE_BOUND('',#267,.T.);
#267=EDGE_LOOP('',(#686,#687,#688,#689));
#268=SURFACE_OF_LINEAR_EXTRUSION('',#269,#270);
#269=B_SPLINE_CURVE_WITH_KNOTS('',2,
(#690,#691,#692),
.UNSPECIFIED.,.F.,.F.,
(3,3),
(0.,1.),
.UNSPECIFIED.);
#270=VECTOR('',#271,1.);
#271=DIRECTION('',(0.,0.,1.));
#272=FACE_BOUND('',#273,.T.);
#273=EDGE_LOOP('',(#693,#694,#695,#696));
#274=SURFACE_OF_LINEAR_EXTRUSION('',#275,#276);
#275=B_SPLINE_CURVE_WITH_KNOTS('',2,
(#697,#698,#699),
.UNSPECIFIED.,.F.,.F.,
(3,3),
(0.,1.),
.UNSPECIFIED.);
#276=VECTOR('',#277,1.);
#277=DIRECTION('',(0.,0.,1.));
#278=FACE_BOUND('',#279,.T.);
#279=EDGE_LOOP('',(#700,#701,#702,#703));
#280=SURFACE_OF_LINEAR_EXTRUSION('',#281,#282);
#281=B_SPLINE_CURVE_WITH_KNOTS('',2,
(#704,#705,#706),
.UNSPECIFIED.,.F.,.F.,
(3,3),
(0.,1.),
.UNSPECIFIED.);
#282=VECTOR('',#283,1.);
#283=DIRECTION('',(0.,0.,1.));
#284=FACE_BOUND('',#285,.T.);
#285=EDGE_LOOP('',(#707,#708,#709,#710));
#286=SURFACE_OF_LINEAR_EXTRUSION('',#287,#288);
#287=B_SPLINE_CURVE_WITH_KNOTS('',2,
(#711,#712,#713),
.UNSPECIFIED.,.F.,.F.,
(3,3),
(0.,1.),
.UNSPECIFIED.);
#288=VECTOR('',#289,1.);
#289=DIRECTION('',(0.,0.,1.));
#290=FACE_BOUND('',#291,.T.);
#291=EDGE_LOOP('',(#714,#715,#716,#717));
#292=SURFACE_OF_LINEAR_EXTRUSION('',#293,#294);
#293=B_SPLINE_CURVE_WITH_KNOTS('',2,
(#718,#719,#720),
.UNSPECIFIED.,.F.,.F.,
(3,3),
(0.,1.),
.UNSPECIFIED.);
#294=VECTOR('',#295,1.);
#295=DIRECTION('',(0.,0.,1.));
#296=FACE_BOUND('',#297,.T.);
#297=EDGE_LOOP('',(#721,#722,#723,#724));
#298=SURFACE_OF_LINEAR_EXTRUSION('',#299,#300);
#299=B_SPLINE_CURVE_WITH_KNOTS('',2,
(#725,#726,#727),
.UNSPECIFIED.,.F.,.F.,
(3,3),
(0.,1.),
.UNSPECIFIED.);
#300=VECTOR('',#301,1.);
#301=DIRECTION('',(0.,0.,1.));
#302=FACE_BOUND('',#303,.T.);
#303=EDGE_LOOP('',(#728,#729,#730,#731));
#304=SURFACE_OF_LINEAR_EXTRUSION('',#305,#306);
#305=B_SPLINE_CURVE_WITH_KNOTS('',2,
(#732,#733,#734),
.UNSPECIFIED.,.F.,.F.,
(3,3),
(0.,1.),
.UNSPECIFIED.);
#306=VECTOR('',#307,1.);
#307=DIRECTION('',(0.,0.,1.));
#308=FACE_BOUND('',#309,.T.);
#309=EDGE_LOOP('',(#735,#736,#737,#738));
#310=SURFACE_OF_LINEAR_EXTRUSION('',#311,#312);
#311=B_SPLINE_CURVE_WITH_KNOTS('',2,
(#739,#740,#741),
.UNSPECIFIED.,.F.,.F.,
(3,3),
(0.,1.),
.UNSPECIFIED.);
#312=VECTOR('',#313,1.);
#313=DIRECTION('',(0.,0.,1.));
#314=FACE_BOUND('',#315,.T.);
#315=EDGE_LOOP('',(#742,#743,#744,#745));
#316=SURFACE_OF_LINEAR_EXTRUSION('',#317,#318);
#317=B_SPLINE_CURVE_WITH_KNOTS('',2,
(#746,#747,#748),
.UNSPECIFIED.,.F.,.F.,
(3,3),
(0.,1.),
.UNSPECIFIED.);
#318=VECTOR('',#319,1.);
#319=DIRECTION('',(0.,0.,1.));
#320=FACE_BOUND('',#321,.T.);
#321=EDGE_LOOP('',(#749,#750,#751,#752));
#322=SURFACE_OF_LINEAR_EXTRUSION('',#323,#324);
#323=B_SPLINE_CURVE_WITH_KNOTS('',2,
(#753,#754,#755),
.UNSPECIFIED.,.F.,.F.,
(3,3),
(0.,1.),
.UNSPECIFIED.);
#324=VECTOR('',#325,1.);
#325=DIRECTION('',(0.,0.,1.));
#326=FACE_BOUND('',#327,.T.);
#327=EDGE_LOOP('',(#756,#757,#758,#759));
#328=SURFACE_OF_LINEAR_EXTRUSION('',#329,#330);
#329=B_SPLINE_CURVE_WITH_KNOTS('',2,
(#760,#761,#762),
.UNSPECIFIED.,.F.,.F.,
(3,3),
(0.,1.),
.UNSPECIFIED.);
#330=VECTOR('',#331,1.);
#331=DIRECTION('',(0.,0.,1.));
#332=FACE_BOUND('',#333,.T.);
#333=EDGE_LOOP('',(#763,#764,#765,#766));
#334=SURFACE_OF_LINEAR_EXTRUSION('',#335,#336);
#335=B_SPLINE_CURVE_WITH_KNOTS('',2,
(#767,#768,#769),
.UNSPECIFIED.,.F.,.F.,
(3,3),
(0.,1.),
.UNSPECIFIED.);
#336=VECTOR('',#337,1.);
#337=DIRECTION('',(0.,0.,1.));
#338=FACE_BOUND('',#339,.T.);
#339=EDGE_LOOP('',(#770,#771,#772,#773));
#340=SURFACE_OF_LINEAR_EXTRUSION('',#341,#342);
#341=B_SPLINE_CURVE_WITH_KNOTS('',2,
(#774,#775,#776),
.UNSPECIFIED.,.F.,.F.,
(3,3),
(0.,1.),
.UNSPECIFIED.);
#342=VECTOR('',#343,1.);
#343=DIRECTION('',(0.,0.,1.));
#344=FACE_BOUND('',#345,.T.);
#345=EDGE_LOOP('',(#777,#778,#779,#780));
#346=SURFACE_OF_LINEAR_EXTRUSION('',#347,#348);
#347=B_SPLINE_CURVE_WITH_KNOTS('',2,
(#781,#782,#783),
.UNSPECIFIED.,.F.,.F.,
(3,3),
(0.,1.),
.UNSPECIFIED.);
#348=VECTOR('',#349,1.);
#349=DIRECTION('',(0.,0.,1.));
#350=FACE_BOUND('',#351,.T.);
#351=EDGE_LOOP('',(#784,#785,#786,#787));
#352=SURFACE_OF_LINEAR_EXTRUSION('',#353,#354);
#353=B_SPLINE_CURVE_WITH_KNOTS('',2,
(#788,#789,#790),
.UNSPECIFIED.,.F.,.F.,
(3,3),
(0.,1.),
.UNSPECIFIED.);
#354=VECTOR('',#355,1.);
#355=DIRECTION('',(0.,0.,1.));
#356=FACE_BOUND('',#357,.T.);
#357=EDGE_LOOP('',(#791,#792,#793,#794));
#358=SURFACE_OF_LINEAR_EXTRUSION('',#359,#360);
#359=B_SPLINE_CURVE_WITH_KNOTS('',2,
(#795,#796,#797),
.UNSPECIFIED.,.F.,.F.,
(3,3),
(0.,1.),
.UNSPECIFIED.);
#360=VECTOR('',#361,1.);
#361=DIRECTION('',(0.,0.,1.));
#362=FACE_BOUND('',#363,.T.);
#363=EDGE_LOOP('',(#798,#799,#800,#801));
#364=SURFACE_OF_LINEAR_EXTRUSION('',#365,#366);
#365=B_SPLINE_CURVE_WITH_KNOTS('',2,
(#802,#803,#804),
.UNSPECIFIED.,.F.,.F.,
(3,3),
(0.,1.),
.UNSPECIFIED.);
#366=VECTOR('',#367,1.);
#367=DIRECTION('',(0.,0.,1.));
#368=FACE_BOUND('',#369,.T.);
#369=EDGE_LOOP('',(#805,#806,#807,#808));
#370=SURFACE_OF_LINEAR_EXTRUSION('',#371,#372);
#371=B_SPLINE_CURVE_WITH_KNOTS('',2,
(#809,#810,#811),
.UNSPECIFIED.,.F.,.F.,
(3,3),
(0.,1.),
.UNSPECIFIED.);
#372=VECTOR('',#373,1.);
#373=DIRECTION('',(0.,0.,1.));
#374=FACE_BOUND('',#375,.T.);
#375=EDGE_LOOP('',(#812,#813,#814,#815));
#376=PLANE('',#377);
#377=AXIS2_PLACEMENT_3D('',#378,#379,#380);
#378=CARTESIAN_POINT('',(15.9673634620104,8.95841587418611,1.));
#379=DIRECTION('',(0.14699075399873,-0.989137866143484,0.));
#380=DIRECTION('',(0.989137866143484,0.14699075399873,0.));
#381=FACE_BOUND('',#382,.T.);
#382=EDGE_LOOP('',(#816,#817,#818,#819));
#383=PLANE('',#384);
#384=AXIS2_PLACEMENT_3D('',#385,#386,#387);
#385=CARTESIAN_POINT('',(16.2255967953437,9.71829920751945,1.));
#386=DIRECTION('',(-0.946820961730438,0.321760883930675,0.));
#387=DIRECTION('',(-0.321760883930675,-0.946820961730438,0.));
#388=FACE_BOUND('',#389,.T.);
#389=EDGE_LOOP('',(#820,#821,#822,#823));
#390=PLANE('',#391);
#391=AXIS2_PLACEMENT_3D('',#392,#393,#394);
#392=CARTESIAN_POINT('',(20.0684051448262,10.3130825408528,1.));
#393=DIRECTION('',(-0.152956997207341,0.988232845540621,0.));
#394=DIRECTION('',(-0.988232845540621,-0.152956997207341,0.));
#395=FACE_BOUND('',#396,.T.);
#396=EDGE_LOOP('',(#824,#825,#826,#827));
#397=PLANE('',#398);
#398=AXIS2_PLACEMENT_3D('',#399,#400,#401);
#399=CARTESIAN_POINT('',(17.3536147615704,2.32478254085278,1.));
#400=DIRECTION('',(0.946817225303488,-0.32177187861683,0.));
#401=DIRECTION('',(0.32177187861683,0.946817225303488,0.));
#402=FACE_BOUND('',#403,.T.);
#403=EDGE_LOOP('',(#828,#829,#830,#831));
#404=PLANE('',#405);
#405=AXIS2_PLACEMENT_3D('',#406,#407,#408);
#406=CARTESIAN_POINT('',(15.2559980949038,2.32478254085278,1.));
#407=DIRECTION('',(0.,-1.,0.));
#408=DIRECTION('',(1.,0.,0.));
#409=FACE_BOUND('',#410,.T.);
#410=EDGE_LOOP('',(#832,#833,#834,#835));
#411=PLANE('',#412);
#412=AXIS2_PLACEMENT_3D('',#413,#414,#415);
#413=CARTESIAN_POINT('',(17.5924673929888,9.19991431471407,1.));
#414=DIRECTION('',(-0.946817876209609,0.321769963312185,0.));
#415=DIRECTION('',(-0.321769963312185,-0.946817876209609,0.));
#416=FACE_BOUND('',#417,.T.);
#417=EDGE_LOOP('',(#836,#837,#838,#839));
#418=PLANE('',#419);
#419=AXIS2_PLACEMENT_3D('',#420,#421,#422);
#420=CARTESIAN_POINT('',(1.,0.999999999999999,1.));
#421=DIRECTION('',(0.,-1.,0.));
#422=DIRECTION('',(1.,0.,0.));
#423=FACE_BOUND('',#424,.T.);
#424=EDGE_LOOP('',(#840,#841,#842,#843));
#425=PLANE('',#426);
#426=AXIS2_PLACEMENT_3D('',#427,#428,#429);
#427=CARTESIAN_POINT('',(48.5,0.999999999999999,1.));
#428=DIRECTION('',(1.,0.,0.));
#429=DIRECTION('',(0.,1.,0.));
#430=FACE_BOUND('',#431,.T.);
#431=EDGE_LOOP('',(#844,#845,#846,#847));
#432=PLANE('',#433);
#433=AXIS2_PLACEMENT_3D('',#434,#435,#436);
#434=CARTESIAN_POINT('',(48.5,11.5,1.));
#435=DIRECTION('',(0.,1.,0.));
#436=DIRECTION('',(-1.,0.,0.));
#437=FACE_BOUND('',#438,.T.);
#438=EDGE_LOOP('',(#848,#849,#850,#851));
#439=PLANE('',#440);
#440=AXIS2_PLACEMENT_3D('',#441,#442,#443);
#441=CARTESIAN_POINT('',(1.,11.5,1.));
#442=DIRECTION('',(-1.,0.,0.));
#443=DIRECTION('',(0.,-1.,0.));
#444=FACE_BOUND('',#445,.T.);
#445=EDGE_LOOP('',(#852,#853,#854,#855,#856,#857,#858,#859,#860,#861,#862,#863,#864,
#865,#866,#867,#868,#869,#870,#871,#872));
#446=PLANE('',#447);
#447=AXIS2_PLACEMENT_3D('',#448,#449,#450);
#448=CARTESIAN_POINT('',(0.,0.,2.));
#449=DIRECTION('',(0.,0.,1.));
#450=DIRECTION('',(1.,0.,0.));
#451=FACE_BOUND('',#452,.T.);
#452=EDGE_LOOP('',(#873,#874,#875,#876,#877,#878,#879,#880,#881,#882));
#453=FACE_BOUND('',#454,.T.);
#454=EDGE_LOOP('',(#883,#884,#885,#886,#887,#888,#889,#890));
#455=PLANE('',#456);
#456=AXIS2_PLACEMENT_3D('',#457,#458,#459);
#457=CARTESIAN_POINT('',(0.,0.,2.));
#458=DIRECTION('',(0.,0.,1.));
#459=DIRECTION('',(1.,0.,0.));
#460=FACE_BOUND('',#461,.T.);
#461=EDGE_LOOP('',(#891,#892,#893,#894,#895,#896));
#462=PLANE('',#463);
#463=AXIS2_PLACEMENT_3D('',#464,#465,#466);
#464=CARTESIAN_POINT('',(0.,0.,2.));
#465=DIRECTION('',(0.,0.,1.));
#466=DIRECTION('',(1.,0.,0.));
#467=FACE_BOUND('',#468,.T.);
#468=EDGE_LOOP('',(#897,#898,#899,#900));
#469=FACE_BOUND('',#470,.T.);
#470=EDGE_LOOP('',(#901,#902,#903,#904));
#471=PLANE('',#472);
#472=AXIS2_PLACEMENT_3D('',#473,#474,#475);
#473=CARTESIAN_POINT('',(0.,0.,2.));
#474=DIRECTION('',(0.,0.,1.));
#475=DIRECTION('',(1.,0.,0.));
#476=FACE_BOUND('',#477,.T.);
#477=EDGE_LOOP('',(#905,#906,#907,#908));
#478=PLANE('',#479);
#479=AXIS2_PLACEMENT_3D('',#480,#481,#482);
#480=CARTESIAN_POINT('',(-8.17102874259867E-34,12.5,0.));
#481=DIRECTION('',(-1.,-6.53682299407893E-35,0.));
#482=DIRECTION('',(6.53682299407893E-35,-1.,0.));
#483=FACE_BOUND('',#484,.T.);
#484=EDGE_LOOP('',(#909,#910,#911,#912));
#485=PLANE('',#486);
#486=AXIS2_PLACEMENT_3D('',#487,#488,#489);
#487=CARTESIAN_POINT('',(0.,0.,0.));
#488=DIRECTION('',(0.,-1.,0.));
#489=DIRECTION('',(1.,0.,0.));
#490=FACE_BOUND('',#491,.T.);
#491=EDGE_LOOP('',(#913,#914,#915,#916));
#492=PLANE('',#493);
#493=AXIS2_PLACEMENT_3D('',#494,#495,#496);
#494=CARTESIAN_POINT('',(49.5,-1.77635683940025E-15,0.));
#495=DIRECTION('',(1.,0.,0.));
#496=DIRECTION('',(0.,1.,0.));
#497=FACE_BOUND('',#498,.T.);
#498=EDGE_LOOP('',(#917,#918,#919,#920));
#499=PLANE('',#500);
#500=AXIS2_PLACEMENT_3D('',#501,#502,#503);
#501=CARTESIAN_POINT('',(49.5,12.5,0.));
#502=DIRECTION('',(-3.58859967555606E-17,1.,0.));
#503=DIRECTION('',(-1.,-3.58859967555606E-17,0.));
#504=FACE_BOUND('',#505,.T.);
#505=EDGE_LOOP('',(#921,#922,#923,#924));
#506=PLANE('',#507);
#507=AXIS2_PLACEMENT_3D('',#508,#509,#510);
#508=CARTESIAN_POINT('',(0.,0.,0.));
#509=DIRECTION('',(0.,0.,1.));
#510=DIRECTION('',(1.,0.,0.));
#511=ORIENTED_EDGE('',*,*,#925,.F.);
#512=ORIENTED_EDGE('',*,*,#926,.F.);
#513=ORIENTED_EDGE('',*,*,#927,.F.);
#514=ORIENTED_EDGE('',*,*,#928,.F.);
#515=ORIENTED_EDGE('',*,*,#929,.F.);
#516=ORIENTED_EDGE('',*,*,#930,.F.);
#517=ORIENTED_EDGE('',*,*,#931,.F.);
#518=ORIENTED_EDGE('',*,*,#932,.F.);
#519=ORIENTED_EDGE('',*,*,#933,.F.);
#520=ORIENTED_EDGE('',*,*,#934,.F.);
#521=ORIENTED_EDGE('',*,*,#935,.F.);
#522=ORIENTED_EDGE('',*,*,#936,.F.);
#523=ORIENTED_EDGE('',*,*,#937,.F.);
#524=ORIENTED_EDGE('',*,*,#938,.F.);
#525=ORIENTED_EDGE('',*,*,#939,.F.);
#526=ORIENTED_EDGE('',*,*,#940,.F.);
#527=ORIENTED_EDGE('',*,*,#941,.F.);
#528=ORIENTED_EDGE('',*,*,#942,.F.);
#529=ORIENTED_EDGE('',*,*,#943,.F.);
#530=ORIENTED_EDGE('',*,*,#944,.F.);
#531=ORIENTED_EDGE('',*,*,#945,.F.);
#532=ORIENTED_EDGE('',*,*,#946,.F.);
#533=ORIENTED_EDGE('',*,*,#947,.F.);
#534=ORIENTED_EDGE('',*,*,#948,.F.);
#535=ORIENTED_EDGE('',*,*,#949,.F.);
#536=ORIENTED_EDGE('',*,*,#950,.F.);
#537=ORIENTED_EDGE('',*,*,#951,.F.);
#538=ORIENTED_EDGE('',*,*,#952,.F.);
#539=ORIENTED_EDGE('',*,*,#953,.F.);
#540=ORIENTED_EDGE('',*,*,#954,.F.);
#541=ORIENTED_EDGE('',*,*,#955,.F.);
#542=ORIENTED_EDGE('',*,*,#956,.F.);
#543=ORIENTED_EDGE('',*,*,#957,.F.);
#544=ORIENTED_EDGE('',*,*,#958,.F.);
#545=ORIENTED_EDGE('',*,*,#959,.F.);
#546=ORIENTED_EDGE('',*,*,#960,.F.);
#547=ORIENTED_EDGE('',*,*,#961,.F.);
#548=ORIENTED_EDGE('',*,*,#962,.F.);
#549=ORIENTED_EDGE('',*,*,#963,.F.);
#550=ORIENTED_EDGE('',*,*,#964,.F.);
#551=ORIENTED_EDGE('',*,*,#965,.F.);
#552=ORIENTED_EDGE('',*,*,#966,.F.);
#553=ORIENTED_EDGE('',*,*,#967,.F.);
#554=ORIENTED_EDGE('',*,*,#968,.F.);
#555=ORIENTED_EDGE('',*,*,#969,.F.);
#556=ORIENTED_EDGE('',*,*,#970,.F.);
#557=ORIENTED_EDGE('',*,*,#971,.F.);
#558=ORIENTED_EDGE('',*,*,#972,.F.);
#559=ORIENTED_EDGE('',*,*,#973,.F.);
#560=ORIENTED_EDGE('',*,*,#954,.T.);
#561=ORIENTED_EDGE('',*,*,#974,.T.);
#562=ORIENTED_EDGE('',*,*,#975,.F.);
#563=ORIENTED_EDGE('',*,*,#976,.F.);
#564=ORIENTED_EDGE('',*,*,#955,.T.);
#565=ORIENTED_EDGE('',*,*,#976,.T.);
#566=ORIENTED_EDGE('',*,*,#977,.F.);
#567=ORIENTED_EDGE('',*,*,#978,.F.);
#568=CARTESIAN_POINT('',(30.3685340820508,5.07026457462608,1.));
#569=CARTESIAN_POINT('',(29.9856158559121,4.75812240428453,1.));
#570=CARTESIAN_POINT('',(29.7822835622268,4.59318777139117,1.));
#571=ORIENTED_EDGE('',*,*,#956,.T.);
#572=ORIENTED_EDGE('',*,*,#978,.T.);
#573=ORIENTED_EDGE('',*,*,#979,.F.);
#574=ORIENTED_EDGE('',*,*,#980,.F.);
#575=CARTESIAN_POINT('',(33.4890960380031,8.18609712822339,1.));
#576=CARTESIAN_POINT('',(33.2088692347682,7.36149011059923,1.));
#577=CARTESIAN_POINT('',(30.3685340820508,5.07026457462608,1.));
#578=ORIENTED_EDGE('',*,*,#957,.T.);
#579=ORIENTED_EDGE('',*,*,#980,.T.);
#580=ORIENTED_EDGE('',*,*,#981,.F.);
#581=ORIENTED_EDGE('',*,*,#982,.F.);
#582=CARTESIAN_POINT('',(33.4554278118644,9.04896954525246,1.));
#583=CARTESIAN_POINT('',(33.6692442186191,8.71618985068722,1.));
#584=CARTESIAN_POINT('',(33.4890960380031,8.18609712822339,1.));
#585=ORIENTED_EDGE('',*,*,#958,.T.);
#586=ORIENTED_EDGE('',*,*,#982,.T.);
#587=ORIENTED_EDGE('',*,*,#983,.F.);
#588=ORIENTED_EDGE('',*,*,#984,.F.);
#589=CARTESIAN_POINT('',(32.7232595857257,9.38174920751945,1.));
#590=CARTESIAN_POINT('',(33.2416114051098,9.38174920751945,1.));
#591=CARTESIAN_POINT('',(33.4554278118644,9.04896954525246,1.));
#592=ORIENTED_EDGE('',*,*,#959,.T.);
#593=ORIENTED_EDGE('',*,*,#984,.T.);
#594=ORIENTED_EDGE('',*,*,#985,.F.);
#595=ORIENTED_EDGE('',*,*,#986,.F.);
#596=CARTESIAN_POINT('',(31.5828227435803,8.96392253424054,1.));
#597=CARTESIAN_POINT('',(32.1047629645818,9.38174920751945,1.));
#598=CARTESIAN_POINT('',(32.7232595857257,9.38174920751945,1.));
#599=ORIENTED_EDGE('',*,*,#960,.T.);
#600=ORIENTED_EDGE('',*,*,#986,.T.);
#601=ORIENTED_EDGE('',*,*,#987,.F.);
#602=ORIENTED_EDGE('',*,*,#988,.F.);
#603=CARTESIAN_POINT('',(30.8248741730963,7.85166379489006,1.));
#604=CARTESIAN_POINT('',(31.0608825225788,8.54609582866336,1.));
#605=CARTESIAN_POINT('',(31.5828227435803,8.96392253424054,1.));
#606=ORIENTED_EDGE('',*,*,#961,.T.);
#607=ORIENTED_EDGE('',*,*,#988,.T.);
#608=ORIENTED_EDGE('',*,*,#989,.F.);
#609=ORIENTED_EDGE('',*,*,#990,.F.);
#610=ORIENTED_EDGE('',*,*,#962,.T.);
#611=ORIENTED_EDGE('',*,*,#990,.T.);
#612=ORIENTED_EDGE('',*,*,#991,.F.);
#613=ORIENTED_EDGE('',*,*,#992,.F.);
#614=ORIENTED_EDGE('',*,*,#963,.T.);
#615=ORIENTED_EDGE('',*,*,#992,.T.);
#616=ORIENTED_EDGE('',*,*,#993,.F.);
#617=ORIENTED_EDGE('',*,*,#994,.F.);
#618=CARTESIAN_POINT('',(31.1844759924804,9.70095248871779,1.));
#619=CARTESIAN_POINT('',(30.2168616650218,9.02955573761787,1.));
#620=CARTESIAN_POINT('',(29.7437205343283,7.82811587418611,1.));
#621=ORIENTED_EDGE('',*,*,#964,.T.);
#622=ORIENTED_EDGE('',*,*,#994,.T.);
#623=ORIENTED_EDGE('',*,*,#995,.F.);
#624=ORIENTED_EDGE('',*,*,#996,.F.);
#625=CARTESIAN_POINT('',(33.4070752127444,10.3723492075194,1.));
#626=CARTESIAN_POINT('',(32.152090319939,10.3723492075194,1.));
#627=CARTESIAN_POINT('',(31.1844759924804,9.70095248871779,1.));
#628=ORIENTED_EDGE('',*,*,#965,.T.);
#629=ORIENTED_EDGE('',*,*,#996,.T.);
#630=ORIENTED_EDGE('',*,*,#997,.F.);
#631=ORIENTED_EDGE('',*,*,#998,.F.);
#632=CARTESIAN_POINT('',(35.1875226136243,9.63004413923532,1.));
#633=CARTESIAN_POINT('',(34.6620601055497,10.3723492075194,1.));
#634=CARTESIAN_POINT('',(33.4070752127444,10.3723492075194,1.));
#635=ORIENTED_EDGE('',*,*,#966,.T.);
#636=ORIENTED_EDGE('',*,*,#998,.T.);
#637=ORIENTED_EDGE('',*,*,#999,.F.);
#638=ORIENTED_EDGE('',*,*,#1000,.F.);
#639=CARTESIAN_POINT('',(35.3105538676616,7.70356327506605,1.));
#640=CARTESIAN_POINT('',(35.7129851216989,8.8877390709512,1.));
#641=CARTESIAN_POINT('',(35.1875226136243,9.63004413923532,1.));
#642=ORIENTED_EDGE('',*,*,#967,.T.);
#643=ORIENTED_EDGE('',*,*,#1000,.T.);
#644=ORIENTED_EDGE('',*,*,#1001,.F.);
#645=ORIENTED_EDGE('',*,*,#1002,.F.);
#646=CARTESIAN_POINT('',(34.929338890423,6.91118582205112,1.));
#647=CARTESIAN_POINT('',(35.1724082861657,7.29706405480207,1.));
#648=CARTESIAN_POINT('',(35.3105538676616,7.70356327506605,1.));
#649=ORIENTED_EDGE('',*,*,#968,.T.);
#650=ORIENTED_EDGE('',*,*,#1002,.T.);
#651=ORIENTED_EDGE('',*,*,#1003,.F.);
#652=ORIENTED_EDGE('',*,*,#1004,.F.);
#653=CARTESIAN_POINT('',(34.3521668955602,6.18359816787142,1.));
#654=CARTESIAN_POINT('',(34.6862694946802,6.52530755700191,1.));
#655=CARTESIAN_POINT('',(34.929338890423,6.91118582205112,1.));
#656=ORIENTED_EDGE('',*,*,#969,.T.);
#657=ORIENTED_EDGE('',*,*,#1004,.T.);
#658=ORIENTED_EDGE('',*,*,#1005,.F.);
#659=ORIENTED_EDGE('',*,*,#1006,.F.);
#660=CARTESIAN_POINT('',(33.0870782017324,5.06130183893777,1.));
#661=CARTESIAN_POINT('',(33.8975465578271,5.72997006507648,1.));
#662=CARTESIAN_POINT('',(34.3521668955602,6.18359816787142,1.));
#663=ORIENTED_EDGE('',*,*,#970,.T.);
#664=ORIENTED_EDGE('',*,*,#1006,.T.);
#665=ORIENTED_EDGE('',*,*,#1007,.F.);
#666=ORIENTED_EDGE('',*,*,#1008,.F.);
#667=CARTESIAN_POINT('',(30.9622259924804,3.38523254085278,1.));
#668=CARTESIAN_POINT('',(32.2766098456377,4.39263361279907,1.));
#669=CARTESIAN_POINT('',(33.0870782017324,5.06130183893777,1.));
#670=ORIENTED_EDGE('',*,*,#971,.T.);
#671=ORIENTED_EDGE('',*,*,#1008,.T.);
#672=ORIENTED_EDGE('',*,*,#1009,.F.);
#673=ORIENTED_EDGE('',*,*,#1010,.F.);
#674=ORIENTED_EDGE('',*,*,#972,.T.);
#675=ORIENTED_EDGE('',*,*,#1010,.T.);
#676=ORIENTED_EDGE('',*,*,#1011,.F.);
#677=ORIENTED_EDGE('',*,*,#1012,.F.);
#678=ORIENTED_EDGE('',*,*,#973,.T.);
#679=ORIENTED_EDGE('',*,*,#1012,.T.);
#680=ORIENTED_EDGE('',*,*,#1013,.F.);
#681=ORIENTED_EDGE('',*,*,#1014,.F.);
#682=ORIENTED_EDGE('',*,*,#953,.T.);
#683=ORIENTED_EDGE('',*,*,#1014,.T.);
#684=ORIENTED_EDGE('',*,*,#1015,.F.);
#685=ORIENTED_EDGE('',*,*,#974,.F.);
#686=ORIENTED_EDGE('',*,*,#952,.T.);
#687=ORIENTED_EDGE('',*,*,#1016,.T.);
#688=ORIENTED_EDGE('',*,*,#1017,.F.);
#689=ORIENTED_EDGE('',*,*,#1018,.F.);
#690=CARTESIAN_POINT('',(28.6059134732081,9.37372903204069,1.));
#691=CARTESIAN_POINT('',(28.1500364100612,10.3723492075194,1.));
#692=CARTESIAN_POINT('',(26.748009314616,10.3723492075194,1.));
#693=ORIENTED_EDGE('',*,*,#951,.T.);
#694=ORIENTED_EDGE('',*,*,#1019,.T.);
#695=ORIENTED_EDGE('',*,*,#1020,.F.);
#696=ORIENTED_EDGE('',*,*,#1016,.F.);
#697=CARTESIAN_POINT('',(26.748009314616,10.3723492075194,1.));
#698=CARTESIAN_POINT('',(25.1221447272454,10.3723492075194,1.));
#699=CARTESIAN_POINT('',(23.655757755144,9.0909390709512,1.));
#700=ORIENTED_EDGE('',*,*,#950,.T.);
#701=ORIENTED_EDGE('',*,*,#1021,.T.);
#702=ORIENTED_EDGE('',*,*,#1022,.F.);
#703=ORIENTED_EDGE('',*,*,#1019,.F.);
#704=CARTESIAN_POINT('',(23.655757755144,9.0909390709512,1.));
#705=CARTESIAN_POINT('',(22.1893707830426,7.80952890208469,1.));
#706=CARTESIAN_POINT('',(21.4906061956719,5.75335261867379,1.));
#707=ORIENTED_EDGE('',*,*,#949,.T.);
#708=ORIENTED_EDGE('',*,*,#1023,.T.);
#709=ORIENTED_EDGE('',*,*,#1024,.F.);
#710=ORIENTED_EDGE('',*,*,#1021,.F.);
#711=CARTESIAN_POINT('',(21.4906061956719,5.75335261867379,1.));
#712=CARTESIAN_POINT('',(20.9159642529441,4.0624666862204,1.));
#713=CARTESIAN_POINT('',(21.3917016472118,3.09625794686992,1.));
#714=ORIENTED_EDGE('',*,*,#948,.T.);
#715=ORIENTED_EDGE('',*,*,#1025,.T.);
#716=ORIENTED_EDGE('',*,*,#1026,.F.);
#717=ORIENTED_EDGE('',*,*,#1023,.F.);
#718=CARTESIAN_POINT('',(21.3917016472118,3.09625794686992,1.));
#719=CARTESIAN_POINT('',(21.8674390091813,2.13004920751945,1.));
#720=CARTESIAN_POINT('',(23.257659054704,2.13004920751945,1.));
#721=ORIENTED_EDGE('',*,*,#947,.T.);
#722=ORIENTED_EDGE('',*,*,#1027,.T.);
#723=ORIENTED_EDGE('',*,*,#1028,.F.);
#724=ORIENTED_EDGE('',*,*,#1025,.F.);
#725=CARTESIAN_POINT('',(23.257659054704,2.13004920751945,1.));
#726=CARTESIAN_POINT('',(24.0529303997868,2.13004920751945,1.));
#727=CARTESIAN_POINT('',(24.8671690936145,2.48060560766186,1.));
#728=ORIENTED_EDGE('',*,*,#946,.T.);
#729=ORIENTED_EDGE('',*,*,#1029,.T.);
#730=ORIENTED_EDGE('',*,*,#1030,.F.);
#731=ORIENTED_EDGE('',*,*,#1027,.F.);
#732=CARTESIAN_POINT('',(24.8671690936145,2.48060560766186,1.));
#733=CARTESIAN_POINT('',(25.681407755144,2.83116197550602,1.));
#734=CARTESIAN_POINT('',(26.4378515172558,3.49688673174314,1.));
#735=ORIENTED_EDGE('',*,*,#945,.T.);
#736=ORIENTED_EDGE('',*,*,#1031,.T.);
#737=ORIENTED_EDGE('',*,*,#1032,.F.);
#738=ORIENTED_EDGE('',*,*,#1029,.F.);
#739=CARTESIAN_POINT('',(26.4378515172558,3.49688673174314,1.));
#740=CARTESIAN_POINT('',(27.1212371897972,4.10370859664994,1.));
#741=CARTESIAN_POINT('',(27.6319987881798,4.88728868108319,1.));
#742=ORIENTED_EDGE('',*,*,#944,.T.);
#743=ORIENTED_EDGE('',*,*,#1033,.T.);
#744=ORIENTED_EDGE('',*,*,#1034,.F.);
#745=ORIENTED_EDGE('',*,*,#1031,.F.);
#746=CARTESIAN_POINT('',(27.6319987881798,4.88728868108319,1.));
#747=CARTESIAN_POINT('',(28.142760354264,5.67086876551645,1.));
#748=CARTESIAN_POINT('',(28.4571184438345,6.59585209884978,1.));
#749=ORIENTED_EDGE('',*,*,#943,.T.);
#750=ORIENTED_EDGE('',*,*,#1018,.T.);
#751=ORIENTED_EDGE('',*,*,#1035,.F.);
#752=ORIENTED_EDGE('',*,*,#1033,.F.);
#753=CARTESIAN_POINT('',(28.4571184438345,6.59585209884978,1.));
#754=CARTESIAN_POINT('',(29.0617905686533,8.37510885656194,1.));
#755=CARTESIAN_POINT('',(28.6059134732081,9.37372903204069,1.));
#756=ORIENTED_EDGE('',*,*,#926,.T.);
#757=ORIENTED_EDGE('',*,*,#1036,.T.);
#758=ORIENTED_EDGE('',*,*,#1037,.F.);
#759=ORIENTED_EDGE('',*,*,#1038,.F.);
#760=CARTESIAN_POINT('',(26.703559314616,8.66428189107276,1.));
#761=CARTESIAN_POINT('',(26.6891726024266,9.45371587418611,1.));
#762=CARTESIAN_POINT('',(26.0884692235705,9.45371587418611,1.));
#763=ORIENTED_EDGE('',*,*,#927,.T.);
#764=ORIENTED_EDGE('',*,*,#1038,.T.);
#765=ORIENTED_EDGE('',*,*,#1039,.F.);
#766=ORIENTED_EDGE('',*,*,#1040,.F.);
#767=CARTESIAN_POINT('',(26.0884692235705,9.45371587418611,1.));
#768=CARTESIAN_POINT('',(25.5054267610187,9.45371587418611,1.));
#769=CARTESIAN_POINT('',(24.9525964166734,8.67607240428453,1.));
#770=ORIENTED_EDGE('',*,*,#928,.T.);
#771=ORIENTED_EDGE('',*,*,#1040,.T.);
#772=ORIENTED_EDGE('',*,*,#1041,.F.);
#773=ORIENTED_EDGE('',*,*,#1042,.F.);
#774=CARTESIAN_POINT('',(24.9525964166734,8.67607240428453,1.));
#775=CARTESIAN_POINT('',(24.3997661046264,7.89842890208469,1.));
#776=CARTESIAN_POINT('',(23.8671929078614,6.3313349123591,1.));
#777=ORIENTED_EDGE('',*,*,#929,.T.);
#778=ORIENTED_EDGE('',*,*,#1042,.T.);
#779=ORIENTED_EDGE('',*,*,#1043,.F.);
#780=ORIENTED_EDGE('',*,*,#1044,.F.);
#781=CARTESIAN_POINT('',(23.8671929078614,6.3313349123591,1.));
#782=CARTESIAN_POINT('',(23.2845803997868,4.61696720604441,1.));
#783=CARTESIAN_POINT('',(23.2960236420746,3.82753322293106,1.));
#784=ORIENTED_EDGE('',*,*,#930,.T.);
#785=ORIENTED_EDGE('',*,*,#1044,.T.);
#786=ORIENTED_EDGE('',*,*,#1045,.F.);
#787=ORIENTED_EDGE('',*,*,#1046,.F.);
#788=CARTESIAN_POINT('',(23.2960236420746,3.82753322293106,1.));
#789=CARTESIAN_POINT('',(23.3074668843625,3.03809920751945,1.));
#790=CARTESIAN_POINT('',(23.9081702632185,3.03809920751945,1.));
#791=ORIENTED_EDGE('',*,*,#931,.T.);
#792=ORIENTED_EDGE('',*,*,#1046,.T.);
#793=ORIENTED_EDGE('',*,*,#1047,.F.);
#794=ORIENTED_EDGE('',*,*,#1048,.F.);
#795=CARTESIAN_POINT('',(23.9081702632185,3.03809920751945,1.));
#796=CARTESIAN_POINT('',(24.4911796200508,3.03809920751945,1.));
#797=CARTESIAN_POINT('',(25.0509883594012,3.82753322293106,1.));
#798=ORIENTED_EDGE('',*,*,#932,.T.);
#799=ORIENTED_EDGE('',*,*,#1048,.T.);
#800=ORIENTED_EDGE('',*,*,#1049,.F.);
#801=ORIENTED_EDGE('',*,*,#1050,.F.);
#802=CARTESIAN_POINT('',(25.0509883594012,3.82753322293106,1.));
#803=CARTESIAN_POINT('',(25.6107970664535,4.61696720604441,1.));
#804=CARTESIAN_POINT('',(26.1393353704132,6.17225417814583,1.));
#805=ORIENTED_EDGE('',*,*,#925,.T.);
#806=ORIENTED_EDGE('',*,*,#1050,.T.);
#807=ORIENTED_EDGE('',*,*,#1051,.F.);
#808=ORIENTED_EDGE('',*,*,#1036,.F.);
#809=CARTESIAN_POINT('',(26.1393353704132,6.17225417814583,1.));
#810=CARTESIAN_POINT('',(26.7179460268054,7.87484790795942,1.));
#811=CARTESIAN_POINT('',(26.703559314616,8.66428189107276,1.));
#812=ORIENTED_EDGE('',*,*,#938,.T.);
#813=ORIENTED_EDGE('',*,*,#1052,.T.);
#814=ORIENTED_EDGE('',*,*,#1053,.F.);
#815=ORIENTED_EDGE('',*,*,#1054,.F.);
#816=ORIENTED_EDGE('',*,*,#939,.T.);
#817=ORIENTED_EDGE('',*,*,#1054,.T.);
#818=ORIENTED_EDGE('',*,*,#1055,.F.);
#819=ORIENTED_EDGE('',*,*,#1056,.F.);
#820=ORIENTED_EDGE('',*,*,#940,.T.);
#821=ORIENTED_EDGE('',*,*,#1056,.T.);
#822=ORIENTED_EDGE('',*,*,#1057,.F.);
#823=ORIENTED_EDGE('',*,*,#1058,.F.);
#824=ORIENTED_EDGE('',*,*,#941,.T.);
#825=ORIENTED_EDGE('',*,*,#1058,.T.);
#826=ORIENTED_EDGE('',*,*,#1059,.F.);
#827=ORIENTED_EDGE('',*,*,#1060,.F.);
#828=ORIENTED_EDGE('',*,*,#942,.T.);
#829=ORIENTED_EDGE('',*,*,#1060,.T.);
#830=ORIENTED_EDGE('',*,*,#1061,.F.);
#831=ORIENTED_EDGE('',*,*,#1062,.F.);
#832=ORIENTED_EDGE('',*,*,#937,.T.);
#833=ORIENTED_EDGE('',*,*,#1062,.T.);
#834=ORIENTED_EDGE('',*,*,#1063,.F.);
#835=ORIENTED_EDGE('',*,*,#1052,.F.);
#836=ORIENTED_EDGE('',*,*,#933,.T.);
#837=ORIENTED_EDGE('',*,*,#1064,.T.);
#838=ORIENTED_EDGE('',*,*,#1065,.F.);
#839=ORIENTED_EDGE('',*,*,#1066,.F.);
#840=ORIENTED_EDGE('',*,*,#934,.T.);
#841=ORIENTED_EDGE('',*,*,#1066,.T.);
#842=ORIENTED_EDGE('',*,*,#1067,.F.);
#843=ORIENTED_EDGE('',*,*,#1068,.F.);
#844=ORIENTED_EDGE('',*,*,#935,.T.);
#845=ORIENTED_EDGE('',*,*,#1068,.T.);
#846=ORIENTED_EDGE('',*,*,#1069,.F.);
#847=ORIENTED_EDGE('',*,*,#1070,.F.);
#848=ORIENTED_EDGE('',*,*,#936,.T.);
#849=ORIENTED_EDGE('',*,*,#1070,.T.);
#850=ORIENTED_EDGE('',*,*,#1071,.F.);
#851=ORIENTED_EDGE('',*,*,#1064,.F.);
#852=ORIENTED_EDGE('',*,*,#1015,.T.);
#853=ORIENTED_EDGE('',*,*,#1013,.T.);
#854=ORIENTED_EDGE('',*,*,#1011,.T.);
#855=ORIENTED_EDGE('',*,*,#1009,.T.);
#856=ORIENTED_EDGE('',*,*,#1007,.T.);
#857=ORIENTED_EDGE('',*,*,#1005,.T.);
#858=ORIENTED_EDGE('',*,*,#1003,.T.);
#859=ORIENTED_EDGE('',*,*,#1001,.T.);
#860=ORIENTED_EDGE('',*,*,#999,.T.);
#861=ORIENTED_EDGE('',*,*,#997,.T.);
#862=ORIENTED_EDGE('',*,*,#995,.T.);
#863=ORIENTED_EDGE('',*,*,#993,.T.);
#864=ORIENTED_EDGE('',*,*,#991,.T.);
#865=ORIENTED_EDGE('',*,*,#989,.T.);
#866=ORIENTED_EDGE('',*,*,#987,.T.);
#867=ORIENTED_EDGE('',*,*,#985,.T.);
#868=ORIENTED_EDGE('',*,*,#983,.T.);
#869=ORIENTED_EDGE('',*,*,#981,.T.);
#870=ORIENTED_EDGE('',*,*,#979,.T.);
#871=ORIENTED_EDGE('',*,*,#977,.T.);
#872=ORIENTED_EDGE('',*,*,#975,.T.);
#873=ORIENTED_EDGE('',*,*,#1017,.T.);
#874=ORIENTED_EDGE('',*,*,#1020,.T.);
#875=ORIENTED_EDGE('',*,*,#1022,.T.);
#876=ORIENTED_EDGE('',*,*,#1024,.T.);
#877=ORIENTED_EDGE('',*,*,#1026,.T.);
#878=ORIENTED_EDGE('',*,*,#1028,.T.);
#879=ORIENTED_EDGE('',*,*,#1030,.T.);
#880=ORIENTED_EDGE('',*,*,#1032,.T.);
#881=ORIENTED_EDGE('',*,*,#1034,.T.);
#882=ORIENTED_EDGE('',*,*,#1035,.T.);
#883=ORIENTED_EDGE('',*,*,#1037,.T.);
#884=ORIENTED_EDGE('',*,*,#1051,.T.);
#885=ORIENTED_EDGE('',*,*,#1049,.T.);
#886=ORIENTED_EDGE('',*,*,#1047,.T.);
#887=ORIENTED_EDGE('',*,*,#1045,.T.);
#888=ORIENTED_EDGE('',*,*,#1043,.T.);
#889=ORIENTED_EDGE('',*,*,#1041,.T.);
#890=ORIENTED_EDGE('',*,*,#1039,.T.);
#891=ORIENTED_EDGE('',*,*,#1063,.T.);
#892=ORIENTED_EDGE('',*,*,#1061,.T.);
#893=ORIENTED_EDGE('',*,*,#1059,.T.);
#894=ORIENTED_EDGE('',*,*,#1057,.T.);
#895=ORIENTED_EDGE('',*,*,#1055,.T.);
#896=ORIENTED_EDGE('',*,*,#1053,.T.);
#897=ORIENTED_EDGE('',*,*,#1072,.T.);
#898=ORIENTED_EDGE('',*,*,#1073,.T.);
#899=ORIENTED_EDGE('',*,*,#1074,.T.);
#900=ORIENTED_EDGE('',*,*,#1075,.T.);
#901=ORIENTED_EDGE('',*,*,#1067,.T.);
#902=ORIENTED_EDGE('',*,*,#1065,.T.);
#903=ORIENTED_EDGE('',*,*,#1071,.T.);
#904=ORIENTED_EDGE('',*,*,#1069,.T.);
#905=ORIENTED_EDGE('',*,*,#1076,.T.);
#906=ORIENTED_EDGE('',*,*,#1077,.T.);
#907=ORIENTED_EDGE('',*,*,#1072,.F.);
#908=ORIENTED_EDGE('',*,*,#1078,.F.);
#909=ORIENTED_EDGE('',*,*,#1079,.T.);
#910=ORIENTED_EDGE('',*,*,#1080,.T.);
#911=ORIENTED_EDGE('',*,*,#1073,.F.);
#912=ORIENTED_EDGE('',*,*,#1077,.F.);
#913=ORIENTED_EDGE('',*,*,#1081,.T.);
#914=ORIENTED_EDGE('',*,*,#1082,.T.);
#915=ORIENTED_EDGE('',*,*,#1074,.F.);
#916=ORIENTED_EDGE('',*,*,#1080,.F.);
#917=ORIENTED_EDGE('',*,*,#1083,.T.);
#918=ORIENTED_EDGE('',*,*,#1078,.T.);
#919=ORIENTED_EDGE('',*,*,#1075,.F.);
#920=ORIENTED_EDGE('',*,*,#1082,.F.);
#921=ORIENTED_EDGE('',*,*,#1079,.F.);
#922=ORIENTED_EDGE('',*,*,#1076,.F.);
#923=ORIENTED_EDGE('',*,*,#1083,.F.);
#924=ORIENTED_EDGE('',*,*,#1081,.F.);
#925=EDGE_CURVE('',#1084,#1085,#1086,.F.);
#926=EDGE_CURVE('',#1087,#1084,#1088,.F.);
#927=EDGE_CURVE('',#1089,#1087,#1090,.F.);
#928=EDGE_CURVE('',#1091,#1089,#1092,.F.);
#929=EDGE_CURVE('',#1093,#1091,#1094,.F.);
#930=EDGE_CURVE('',#1095,#1093,#1096,.F.);
#931=EDGE_CURVE('',#1097,#1095,#1098,.F.);
#932=EDGE_CURVE('',#1085,#1097,#1099,.F.);
#933=EDGE_CURVE('',#1100,#1101,#1102,.F.);
#934=EDGE_CURVE('',#1103,#1100,#1104,.F.);
#935=EDGE_CURVE('',#1105,#1103,#1106,.F.);
#936=EDGE_CURVE('',#1101,#1105,#1107,.F.);
#937=EDGE_CURVE('',#1108,#1109,#1110,.T.);
#938=EDGE_CURVE('',#1111,#1108,#1112,.T.);
#939=EDGE_CURVE('',#1113,#1111,#1114,.T.);
#940=EDGE_CURVE('',#1115,#1113,#1116,.T.);
#941=EDGE_CURVE('',#1117,#1115,#1118,.T.);
#942=EDGE_CURVE('',#1109,#1117,#1119,.T.);
#943=EDGE_CURVE('',#1120,#1121,#1122,.T.);
#944=EDGE_CURVE('',#1123,#1120,#1124,.T.);
#945=EDGE_CURVE('',#1125,#1123,#1126,.T.);
#946=EDGE_CURVE('',#1127,#1125,#1128,.T.);
#947=EDGE_CURVE('',#1129,#1127,#1130,.T.);
#948=EDGE_CURVE('',#1131,#1129,#1132,.T.);
#949=EDGE_CURVE('',#1133,#1131,#1134,.T.);
#950=EDGE_CURVE('',#1135,#1133,#1136,.T.);
#951=EDGE_CURVE('',#1137,#1135,#1138,.T.);
#952=EDGE_CURVE('',#1121,#1137,#1139,.T.);
#953=EDGE_CURVE('',#1140,#1141,#1142,.T.);
#954=EDGE_CURVE('',#1143,#1140,#1144,.T.);
#955=EDGE_CURVE('',#1145,#1143,#1146,.T.);
#956=EDGE_CURVE('',#1147,#1145,#1148,.T.);
#957=EDGE_CURVE('',#1149,#1147,#1150,.T.);
#958=EDGE_CURVE('',#1151,#1149,#1152,.T.);
#959=EDGE_CURVE('',#1153,#1151,#1154,.T.);
#960=EDGE_CURVE('',#1155,#1153,#1156,.T.);
#961=EDGE_CURVE('',#1157,#1155,#1158,.T.);
#962=EDGE_CURVE('',#1159,#1157,#1160,.T.);
#963=EDGE_CURVE('',#1161,#1159,#1162,.T.);
#964=EDGE_CURVE('',#1163,#1161,#1164,.T.);
#965=EDGE_CURVE('',#1165,#1163,#1166,.T.);
#966=EDGE_CURVE('',#1167,#1165,#1168,.T.);
#967=EDGE_CURVE('',#1169,#1167,#1170,.T.);
#968=EDGE_CURVE('',#1171,#1169,#1172,.T.);
#969=EDGE_CURVE('',#1173,#1171,#1174,.T.);
#970=EDGE_CURVE('',#1175,#1173,#1176,.T.);
#971=EDGE_CURVE('',#1177,#1175,#1178,.T.);
#972=EDGE_CURVE('',#1179,#1177,#1180,.T.);
#973=EDGE_CURVE('',#1141,#1179,#1181,.T.);
#974=EDGE_CURVE('',#1140,#1182,#1183,.T.);
#975=EDGE_CURVE('',#1184,#1182,#1185,.T.);
#976=EDGE_CURVE('',#1143,#1184,#1186,.T.);
#977=EDGE_CURVE('',#1187,#1184,#1188,.T.);
#978=EDGE_CURVE('',#1145,#1187,#1189,.T.);
#979=EDGE_CURVE('',#1190,#1187,#1191,.T.);
#980=EDGE_CURVE('',#1147,#1190,#1192,.T.);
#981=EDGE_CURVE('',#1193,#1190,#1194,.T.);
#982=EDGE_CURVE('',#1149,#1193,#1195,.T.);
#983=EDGE_CURVE('',#1196,#1193,#1197,.T.);
#984=EDGE_CURVE('',#1151,#1196,#1198,.T.);
#985=EDGE_CURVE('',#1199,#1196,#1200,.T.);
#986=EDGE_CURVE('',#1153,#1199,#1201,.T.);
#987=EDGE_CURVE('',#1202,#1199,#1203,.T.);
#988=EDGE_CURVE('',#1155,#1202,#1204,.T.);
#989=EDGE_CURVE('',#1205,#1202,#1206,.T.);
#990=EDGE_CURVE('',#1157,#1205,#1207,.T.);
#991=EDGE_CURVE('',#1208,#1205,#1209,.T.);
#992=EDGE_CURVE('',#1159,#1208,#1210,.T.);
#993=EDGE_CURVE('',#1211,#1208,#1212,.T.);
#994=EDGE_CURVE('',#1161,#1211,#1213,.T.);
#995=EDGE_CURVE('',#1214,#1211,#1215,.T.);
#996=EDGE_CURVE('',#1163,#1214,#1216,.T.);
#997=EDGE_CURVE('',#1217,#1214,#1218,.T.);
#998=EDGE_CURVE('',#1165,#1217,#1219,.T.);
#999=EDGE_CURVE('',#1220,#1217,#1221,.T.);
#1000=EDGE_CURVE('',#1167,#1220,#1222,.T.);
#1001=EDGE_CURVE('',#1223,#1220,#1224,.T.);
#1002=EDGE_CURVE('',#1169,#1223,#1225,.T.);
#1003=EDGE_CURVE('',#1226,#1223,#1227,.T.);
#1004=EDGE_CURVE('',#1171,#1226,#1228,.T.);
#1005=EDGE_CURVE('',#1229,#1226,#1230,.T.);
#1006=EDGE_CURVE('',#1173,#1229,#1231,.T.);
#1007=EDGE_CURVE('',#1232,#1229,#1233,.T.);
#1008=EDGE_CURVE('',#1175,#1232,#1234,.T.);
#1009=EDGE_CURVE('',#1235,#1232,#1236,.T.);
#1010=EDGE_CURVE('',#1177,#1235,#1237,.T.);
#1011=EDGE_CURVE('',#1238,#1235,#1239,.T.);
#1012=EDGE_CURVE('',#1179,#1238,#1240,.T.);
#1013=EDGE_CURVE('',#1241,#1238,#1242,.T.);
#1014=EDGE_CURVE('',#1141,#1241,#1243,.T.);
#1015=EDGE_CURVE('',#1182,#1241,#1244,.T.);
#1016=EDGE_CURVE('',#1137,#1245,#1246,.T.);
#1017=EDGE_CURVE('',#1247,#1245,#1248,.T.);
#1018=EDGE_CURVE('',#1121,#1247,#1249,.T.);
#1019=EDGE_CURVE('',#1135,#1250,#1251,.T.);
#1020=EDGE_CURVE('',#1245,#1250,#1252,.T.);
#1021=EDGE_CURVE('',#1133,#1253,#1254,.T.);
#1022=EDGE_CURVE('',#1250,#1253,#1255,.T.);
#1023=EDGE_CURVE('',#1131,#1256,#1257,.T.);
#1024=EDGE_CURVE('',#1253,#1256,#1258,.T.);
#1025=EDGE_CURVE('',#1129,#1259,#1260,.T.);
#1026=EDGE_CURVE('',#1256,#1259,#1261,.T.);
#1027=EDGE_CURVE('',#1127,#1262,#1263,.T.);
#1028=EDGE_CURVE('',#1259,#1262,#1264,.T.);
#1029=EDGE_CURVE('',#1125,#1265,#1266,.T.);
#1030=EDGE_CURVE('',#1262,#1265,#1267,.T.);
#1031=EDGE_CURVE('',#1123,#1268,#1269,.T.);
#1032=EDGE_CURVE('',#1265,#1268,#1270,.T.);
#1033=EDGE_CURVE('',#1120,#1271,#1272,.T.);
#1034=EDGE_CURVE('',#1268,#1271,#1273,.T.);
#1035=EDGE_CURVE('',#1271,#1247,#1274,.T.);
#1036=EDGE_CURVE('',#1084,#1275,#1276,.T.);
#1037=EDGE_CURVE('',#1277,#1275,#1278,.F.);
#1038=EDGE_CURVE('',#1087,#1277,#1279,.T.);
#1039=EDGE_CURVE('',#1280,#1277,#1281,.F.);
#1040=EDGE_CURVE('',#1089,#1280,#1282,.T.);
#1041=EDGE_CURVE('',#1283,#1280,#1284,.F.);
#1042=EDGE_CURVE('',#1091,#1283,#1285,.T.);
#1043=EDGE_CURVE('',#1286,#1283,#1287,.F.);
#1044=EDGE_CURVE('',#1093,#1286,#1288,.T.);
#1045=EDGE_CURVE('',#1289,#1286,#1290,.F.);
#1046=EDGE_CURVE('',#1095,#1289,#1291,.T.);
#1047=EDGE_CURVE('',#1292,#1289,#1293,.F.);
#1048=EDGE_CURVE('',#1097,#1292,#1294,.T.);
#1049=EDGE_CURVE('',#1295,#1292,#1296,.F.);
#1050=EDGE_CURVE('',#1085,#1295,#1297,.T.);
#1051=EDGE_CURVE('',#1275,#1295,#1298,.F.);
#1052=EDGE_CURVE('',#1108,#1299,#1300,.T.);
#1053=EDGE_CURVE('',#1301,#1299,#1302,.T.);
#1054=EDGE_CURVE('',#1111,#1301,#1303,.T.);
#1055=EDGE_CURVE('',#1304,#1301,#1305,.T.);
#1056=EDGE_CURVE('',#1113,#1304,#1306,.T.);
#1057=EDGE_CURVE('',#1307,#1304,#1308,.T.);
#1058=EDGE_CURVE('',#1115,#1307,#1309,.T.);
#1059=EDGE_CURVE('',#1310,#1307,#1311,.T.);
#1060=EDGE_CURVE('',#1117,#1310,#1312,.T.);
#1061=EDGE_CURVE('',#1313,#1310,#1314,.T.);
#1062=EDGE_CURVE('',#1109,#1313,#1315,.T.);
#1063=EDGE_CURVE('',#1299,#1313,#1316,.T.);
#1064=EDGE_CURVE('',#1101,#1317,#1318,.T.);
#1065=EDGE_CURVE('',#1319,#1317,#1320,.F.);
#1066=EDGE_CURVE('',#1100,#1319,#1321,.T.);
#1067=EDGE_CURVE('',#1322,#1319,#1323,.F.);
#1068=EDGE_CURVE('',#1103,#1322,#1324,.T.);
#1069=EDGE_CURVE('',#1325,#1322,#1326,.F.);
#1070=EDGE_CURVE('',#1105,#1325,#1327,.T.);
#1071=EDGE_CURVE('',#1317,#1325,#1328,.F.);
#1072=EDGE_CURVE('',#1329,#1330,#1331,.T.);
#1073=EDGE_CURVE('',#1330,#1332,#1333,.T.);
#1074=EDGE_CURVE('',#1332,#1334,#1335,.T.);
#1075=EDGE_CURVE('',#1334,#1329,#1336,.T.);
#1076=EDGE_CURVE('',#1337,#1338,#1339,.T.);
#1077=EDGE_CURVE('',#1338,#1330,#1340,.T.);
#1078=EDGE_CURVE('',#1337,#1329,#1341,.T.);
#1079=EDGE_CURVE('',#1338,#1342,#1343,.T.);
#1080=EDGE_CURVE('',#1342,#1332,#1344,.T.);
#1081=EDGE_CURVE('',#1342,#1345,#1346,.T.);
#1082=EDGE_CURVE('',#1345,#1334,#1347,.T.);
#1083=EDGE_CURVE('',#1345,#1337,#1348,.T.);
#1084=VERTEX_POINT('',#1349);
#1085=VERTEX_POINT('',#1350);
#1086=B_SPLINE_CURVE_WITH_KNOTS('',2,
(#1351,#1352,#1353),
.UNSPECIFIED.,.F.,.F.,
(3,3),
(0.,1.),
.UNSPECIFIED.);
#1087=VERTEX_POINT('',#1354);
#1088=B_SPLINE_CURVE_WITH_KNOTS('',2,
(#1355,#1356,#1357),
.UNSPECIFIED.,.F.,.F.,
(3,3),
(0.,1.),
.UNSPECIFIED.);
#1089=VERTEX_POINT('',#1358);
#1090=B_SPLINE_CURVE_WITH_KNOTS('',2,
(#1359,#1360,#1361),
.UNSPECIFIED.,.F.,.F.,
(3,3),
(0.,1.),
.UNSPECIFIED.);
#1091=VERTEX_POINT('',#1362);
#1092=B_SPLINE_CURVE_WITH_KNOTS('',2,
(#1363,#1364,#1365),
.UNSPECIFIED.,.F.,.F.,
(3,3),
(0.,1.),
.UNSPECIFIED.);
#1093=VERTEX_POINT('',#1366);
#1094=B_SPLINE_CURVE_WITH_KNOTS('',2,
(#1367,#1368,#1369),
.UNSPECIFIED.,.F.,.F.,
(3,3),
(0.,1.),
.UNSPECIFIED.);
#1095=VERTEX_POINT('',#1370);
#1096=B_SPLINE_CURVE_WITH_KNOTS('',2,
(#1371,#1372,#1373),
.UNSPECIFIED.,.F.,.F.,
(3,3),
(0.,1.),
.UNSPECIFIED.);
#1097=VERTEX_POINT('',#1374);
#1098=B_SPLINE_CURVE_WITH_KNOTS('',2,
(#1375,#1376,#1377),
.UNSPECIFIED.,.F.,.F.,
(3,3),
(0.,1.),
.UNSPECIFIED.);
#1099=B_SPLINE_CURVE_WITH_KNOTS('',2,
(#1378,#1379,#1380),
.UNSPECIFIED.,.F.,.F.,
(3,3),
(0.,1.),
.UNSPECIFIED.);
#1100=VERTEX_POINT('',#1381);
#1101=VERTEX_POINT('',#1382);
#1102=LINE('',#1383,#1384);
#1103=VERTEX_POINT('',#1386);
#1104=LINE('',#1387,#1388);
#1105=VERTEX_POINT('',#1390);
#1106=LINE('',#1391,#1392);
#1107=LINE('',#1394,#1395);
#1108=VERTEX_POINT('',#1397);
#1109=VERTEX_POINT('',#1398);
#1110=LINE('',#1399,#1400);
#1111=VERTEX_POINT('',#1402);
#1112=LINE('',#1403,#1404);
#1113=VERTEX_POINT('',#1406);
#1114=LINE('',#1407,#1408);
#1115=VERTEX_POINT('',#1410);
#1116=LINE('',#1411,#1412);
#1117=VERTEX_POINT('',#1414);
#1118=LINE('',#1415,#1416);
#1119=LINE('',#1418,#1419);
#1120=VERTEX_POINT('',#1421);
#1121=VERTEX_POINT('',#1422);
#1122=B_SPLINE_CURVE_WITH_KNOTS('',2,
(#1423,#1424,#1425),
.UNSPECIFIED.,.F.,.F.,
(3,3),
(0.,1.),
.UNSPECIFIED.);
#1123=VERTEX_POINT('',#1426);
#1124=B_SPLINE_CURVE_WITH_KNOTS('',2,
(#1427,#1428,#1429),
.UNSPECIFIED.,.F.,.F.,
(3,3),
(0.,1.),
.UNSPECIFIED.);
#1125=VERTEX_POINT('',#1430);
#1126=B_SPLINE_CURVE_WITH_KNOTS('',2,
(#1431,#1432,#1433),
.UNSPECIFIED.,.F.,.F.,
(3,3),
(0.,1.),
.UNSPECIFIED.);
#1127=VERTEX_POINT('',#1434);
#1128=B_SPLINE_CURVE_WITH_KNOTS('',2,
(#1435,#1436,#1437),
.UNSPECIFIED.,.F.,.F.,
(3,3),
(0.,1.),
.UNSPECIFIED.);
#1129=VERTEX_POINT('',#1438);
#1130=B_SPLINE_CURVE_WITH_KNOTS('',2,
(#1439,#1440,#1441),
.UNSPECIFIED.,.F.,.F.,
(3,3),
(0.,1.),
.UNSPECIFIED.);
#1131=VERTEX_POINT('',#1442);
#1132=B_SPLINE_CURVE_WITH_KNOTS('',2,
(#1443,#1444,#1445),
.UNSPECIFIED.,.F.,.F.,
(3,3),
(0.,1.),
.UNSPECIFIED.);
#1133=VERTEX_POINT('',#1446);
#1134=B_SPLINE_CURVE_WITH_KNOTS('',2,
(#1447,#1448,#1449),
.UNSPECIFIED.,.F.,.F.,
(3,3),
(0.,1.),
.UNSPECIFIED.);
#1135=VERTEX_POINT('',#1450);
#1136=B_SPLINE_CURVE_WITH_KNOTS('',2,
(#1451,#1452,#1453),
.UNSPECIFIED.,.F.,.F.,
(3,3),
(0.,1.),
.UNSPECIFIED.);
#1137=VERTEX_POINT('',#1454);
#1138=B_SPLINE_CURVE_WITH_KNOTS('',2,
(#1455,#1456,#1457),
.UNSPECIFIED.,.F.,.F.,
(3,3),
(0.,1.),
.UNSPECIFIED.);
#1139=B_SPLINE_CURVE_WITH_KNOTS('',2,
(#1458,#1459,#1460),
.UNSPECIFIED.,.F.,.F.,
(3,3),
(0.,1.),
.UNSPECIFIED.);
#1140=VERTEX_POINT('',#1461);
#1141=VERTEX_POINT('',#1462);
#1142=LINE('',#1463,#1464);
#1143=VERTEX_POINT('',#1466);
#1144=LINE('',#1467,#1468);
#1145=VERTEX_POINT('',#1470);
#1146=B_SPLINE_CURVE_WITH_KNOTS('',2,
(#1471,#1472,#1473),
.UNSPECIFIED.,.F.,.F.,
(3,3),
(0.,1.),
.UNSPECIFIED.);
#1147=VERTEX_POINT('',#1474);
#1148=B_SPLINE_CURVE_WITH_KNOTS('',2,
(#1475,#1476,#1477),
.UNSPECIFIED.,.F.,.F.,
(3,3),
(0.,1.),
.UNSPECIFIED.);
#1149=VERTEX_POINT('',#1478);
#1150=B_SPLINE_CURVE_WITH_KNOTS('',2,
(#1479,#1480,#1481),
.UNSPECIFIED.,.F.,.F.,
(3,3),
(0.,1.),
.UNSPECIFIED.);
#1151=VERTEX_POINT('',#1482);
#1152=B_SPLINE_CURVE_WITH_KNOTS('',2,
(#1483,#1484,#1485),
.UNSPECIFIED.,.F.,.F.,
(3,3),
(0.,1.),
.UNSPECIFIED.);
#1153=VERTEX_POINT('',#1486);
#1154=B_SPLINE_CURVE_WITH_KNOTS('',2,
(#1487,#1488,#1489),
.UNSPECIFIED.,.F.,.F.,
(3,3),
(0.,1.),
.UNSPECIFIED.);
#1155=VERTEX_POINT('',#1490);
#1156=B_SPLINE_CURVE_WITH_KNOTS('',2,
(#1491,#1492,#1493),
.UNSPECIFIED.,.F.,.F.,
(3,3),
(0.,1.),
.UNSPECIFIED.);
#1157=VERTEX_POINT('',#1494);
#1158=LINE('',#1495,#1496);
#1159=VERTEX_POINT('',#1498);
#1160=LINE('',#1499,#1500);
#1161=VERTEX_POINT('',#1502);
#1162=B_SPLINE_CURVE_WITH_KNOTS('',2,
(#1503,#1504,#1505),
.UNSPECIFIED.,.F.,.F.,
(3,3),
(0.,1.),
.UNSPECIFIED.);
#1163=VERTEX_POINT('',#1506);
#1164=B_SPLINE_CURVE_WITH_KNOTS('',2,
(#1507,#1508,#1509),
.UNSPECIFIED.,.F.,.F.,
(3,3),
(0.,1.),
.UNSPECIFIED.);
#1165=VERTEX_POINT('',#1510);
#1166=B_SPLINE_CURVE_WITH_KNOTS('',2,
(#1511,#1512,#1513),
.UNSPECIFIED.,.F.,.F.,
(3,3),
(0.,1.),
.UNSPECIFIED.);
#1167=VERTEX_POINT('',#1514);
#1168=B_SPLINE_CURVE_WITH_KNOTS('',2,
(#1515,#1516,#1517),
.UNSPECIFIED.,.F.,.F.,
(3,3),
(0.,1.),
.UNSPECIFIED.);
#1169=VERTEX_POINT('',#1518);
#1170=B_SPLINE_CURVE_WITH_KNOTS('',2,
(#1519,#1520,#1521),
.UNSPECIFIED.,.F.,.F.,
(3,3),
(0.,1.),
.UNSPECIFIED.);
#1171=VERTEX_POINT('',#1522);
#1172=B_SPLINE_CURVE_WITH_KNOTS('',2,
(#1523,#1524,#1525),
.UNSPECIFIED.,.F.,.F.,
(3,3),
(0.,1.),
.UNSPECIFIED.);
#1173=VERTEX_POINT('',#1526);
#1174=B_SPLINE_CURVE_WITH_KNOTS('',2,
(#1527,#1528,#1529),
.UNSPECIFIED.,.F.,.F.,
(3,3),
(0.,1.),
.UNSPECIFIED.);
#1175=VERTEX_POINT('',#1530);
#1176=B_SPLINE_CURVE_WITH_KNOTS('',2,
(#1531,#1532,#1533),
.UNSPECIFIED.,.F.,.F.,
(3,3),
(0.,1.),
.UNSPECIFIED.);
#1177=VERTEX_POINT('',#1534);
#1178=LINE('',#1535,#1536);
#1179=VERTEX_POINT('',#1538);
#1180=LINE('',#1539,#1540);
#1181=LINE('',#1542,#1543);
#1182=VERTEX_POINT('',#1545);
#1183=LINE('',#1546,#1547);
#1184=VERTEX_POINT('',#1549);
#1185=LINE('',#1550,#1551);
#1186=LINE('',#1553,#1554);
#1187=VERTEX_POINT('',#1556);
#1188=B_SPLINE_CURVE_WITH_KNOTS('',2,
(#1557,#1558,#1559),
.UNSPECIFIED.,.F.,.F.,
(3,3),
(0.,1.),
.UNSPECIFIED.);
#1189=LINE('',#1560,#1561);
#1190=VERTEX_POINT('',#1563);
#1191=B_SPLINE_CURVE_WITH_KNOTS('',2,
(#1564,#1565,#1566),
.UNSPECIFIED.,.F.,.F.,
(3,3),
(0.,1.),
.UNSPECIFIED.);
#1192=LINE('',#1567,#1568);
#1193=VERTEX_POINT('',#1570);
#1194=B_SPLINE_CURVE_WITH_KNOTS('',2,
(#1571,#1572,#1573),
.UNSPECIFIED.,.F.,.F.,
(3,3),
(0.,1.),
.UNSPECIFIED.);
#1195=LINE('',#1574,#1575);
#1196=VERTEX_POINT('',#1577);
#1197=B_SPLINE_CURVE_WITH_KNOTS('',2,
(#1578,#1579,#1580),
.UNSPECIFIED.,.F.,.F.,
(3,3),
(0.,1.),
.UNSPECIFIED.);
#1198=LINE('',#1581,#1582);
#1199=VERTEX_POINT('',#1584);
#1200=B_SPLINE_CURVE_WITH_KNOTS('',2,
(#1585,#1586,#1587),
.UNSPECIFIED.,.F.,.F.,
(3,3),
(0.,1.),
.UNSPECIFIED.);
#1201=LINE('',#1588,#1589);
#1202=VERTEX_POINT('',#1591);
#1203=B_SPLINE_CURVE_WITH_KNOTS('',2,
(#1592,#1593,#1594),
.UNSPECIFIED.,.F.,.F.,
(3,3),
(0.,1.),
.UNSPECIFIED.);
#1204=LINE('',#1595,#1596);
#1205=VERTEX_POINT('',#1598);
#1206=LINE('',#1599,#1600);
#1207=LINE('',#1602,#1603);
#1208=VERTEX_POINT('',#1605);
#1209=LINE('',#1606,#1607);
#1210=LINE('',#1609,#1610);
#1211=VERTEX_POINT('',#1612);
#1212=B_SPLINE_CURVE_WITH_KNOTS('',2,
(#1613,#1614,#1615),
.UNSPECIFIED.,.F.,.F.,
(3,3),
(0.,1.),
.UNSPECIFIED.);
#1213=LINE('',#1616,#1617);
#1214=VERTEX_POINT('',#1619);
#1215=B_SPLINE_CURVE_WITH_KNOTS('',2,
(#1620,#1621,#1622),
.UNSPECIFIED.,.F.,.F.,
(3,3),
(0.,1.),
.UNSPECIFIED.);
#1216=LINE('',#1623,#1624);
#1217=VERTEX_POINT('',#1626);
#1218=B_SPLINE_CURVE_WITH_KNOTS('',2,
(#1627,#1628,#1629),
.UNSPECIFIED.,.F.,.F.,
(3,3),
(0.,1.),
.UNSPECIFIED.);
#1219=LINE('',#1630,#1631);
#1220=VERTEX_POINT('',#1633);
#1221=B_SPLINE_CURVE_WITH_KNOTS('',2,
(#1634,#1635,#1636),
.UNSPECIFIED.,.F.,.F.,
(3,3),
(0.,1.),
.UNSPECIFIED.);
#1222=LINE('',#1637,#1638);
#1223=VERTEX_POINT('',#1640);
#1224=B_SPLINE_CURVE_WITH_KNOTS('',2,
(#1641,#1642,#1643),
.UNSPECIFIED.,.F.,.F.,
(3,3),
(0.,1.),
.UNSPECIFIED.);
#1225=LINE('',#1644,#1645);
#1226=VERTEX_POINT('',#1647);
#1227=B_SPLINE_CURVE_WITH_KNOTS('',2,
(#1648,#1649,#1650),
.UNSPECIFIED.,.F.,.F.,
(3,3),
(0.,1.),
.UNSPECIFIED.);
#1228=LINE('',#1651,#1652);
#1229=VERTEX_POINT('',#1654);
#1230=B_SPLINE_CURVE_WITH_KNOTS('',2,
(#1655,#1656,#1657),
.UNSPECIFIED.,.F.,.F.,
(3,3),
(0.,1.),
.UNSPECIFIED.);
#1231=LINE('',#1658,#1659);
#1232=VERTEX_POINT('',#1661);
#1233=B_SPLINE_CURVE_WITH_KNOTS('',2,
(#1662,#1663,#1664),
.UNSPECIFIED.,.F.,.F.,
(3,3),
(0.,1.),
.UNSPECIFIED.);
#1234=LINE('',#1665,#1666);
#1235=VERTEX_POINT('',#1668);
#1236=LINE('',#1669,#1670);
#1237=LINE('',#1672,#1673);
#1238=VERTEX_POINT('',#1675);
#1239=LINE('',#1676,#1677);
#1240=LINE('',#1679,#1680);
#1241=VERTEX_POINT('',#1682);
#1242=LINE('',#1683,#1684);
#1243=LINE('',#1686,#1687);
#1244=LINE('',#1689,#1690);
#1245=VERTEX_POINT('',#1692);
#1246=LINE('',#1693,#1694);
#1247=VERTEX_POINT('',#1696);
#1248=B_SPLINE_CURVE_WITH_KNOTS('',2,
(#1697,#1698,#1699),
.UNSPECIFIED.,.F.,.F.,
(3,3),
(0.,1.),
.UNSPECIFIED.);
#1249=LINE('',#1700,#1701);
#1250=VERTEX_POINT('',#1703);
#1251=LINE('',#1704,#1705);
#1252=B_SPLINE_CURVE_WITH_KNOTS('',2,
(#1707,#1708,#1709),
.UNSPECIFIED.,.F.,.F.,
(3,3),
(0.,1.),
.UNSPECIFIED.);
#1253=VERTEX_POINT('',#1710);
#1254=LINE('',#1711,#1712);
#1255=B_SPLINE_CURVE_WITH_KNOTS('',2,
(#1714,#1715,#1716),
.UNSPECIFIED.,.F.,.F.,
(3,3),
(0.,1.),
.UNSPECIFIED.);
#1256=VERTEX_POINT('',#1717);
#1257=LINE('',#1718,#1719);
#1258=B_SPLINE_CURVE_WITH_KNOTS('',2,
(#1721,#1722,#1723),
.UNSPECIFIED.,.F.,.F.,
(3,3),
(0.,1.),
.UNSPECIFIED.);
#1259=VERTEX_POINT('',#1724);
#1260=LINE('',#1725,#1726);
#1261=B_SPLINE_CURVE_WITH_KNOTS('',2,
(#1728,#1729,#1730),
.UNSPECIFIED.,.F.,.F.,
(3,3),
(0.,1.),
.UNSPECIFIED.);
#1262=VERTEX_POINT('',#1731);
#1263=LINE('',#1732,#1733);
#1264=B_SPLINE_CURVE_WITH_KNOTS('',2,
(#1735,#1736,#1737),
.UNSPECIFIED.,.F.,.F.,
(3,3),
(0.,1.),
.UNSPECIFIED.);
#1265=VERTEX_POINT('',#1738);
#1266=LINE('',#1739,#1740);
#1267=B_SPLINE_CURVE_WITH_KNOTS('',2,
(#1742,#1743,#1744),
.UNSPECIFIED.,.F.,.F.,
(3,3),
(0.,1.),
.UNSPECIFIED.);
#1268=VERTEX_POINT('',#1745);
#1269=LINE('',#1746,#1747);
#1270=B_SPLINE_CURVE_WITH_KNOTS('',2,
(#1749,#1750,#1751),
.UNSPECIFIED.,.F.,.F.,
(3,3),
(0.,1.),
.UNSPECIFIED.);
#1271=VERTEX_POINT('',#1752);
#1272=LINE('',#1753,#1754);
#1273=B_SPLINE_CURVE_WITH_KNOTS('',2,
(#1756,#1757,#1758),
.UNSPECIFIED.,.F.,.F.,
(3,3),
(0.,1.),
.UNSPECIFIED.);
#1274=B_SPLINE_CURVE_WITH_KNOTS('',2,
(#1759,#1760,#1761),
.UNSPECIFIED.,.F.,.F.,
(3,3),
(0.,1.),
.UNSPECIFIED.);
#1275=VERTEX_POINT('',#1762);
#1276=LINE('',#1763,#1764);
#1277=VERTEX_POINT('',#1766);
#1278=B_SPLINE_CURVE_WITH_KNOTS('',2,
(#1767,#1768,#1769),
.UNSPECIFIED.,.F.,.F.,
(3,3),
(0.,1.),
.UNSPECIFIED.);
#1279=LINE('',#1770,#1771);
#1280=VERTEX_POINT('',#1773);
#1281=B_SPLINE_CURVE_WITH_KNOTS('',2,
(#1774,#1775,#1776),
.UNSPECIFIED.,.F.,.F.,
(3,3),
(0.,1.),
.UNSPECIFIED.);
#1282=LINE('',#1777,#1778);
#1283=VERTEX_POINT('',#1780);
#1284=B_SPLINE_CURVE_WITH_KNOTS('',2,
(#1781,#1782,#1783),
.UNSPECIFIED.,.F.,.F.,
(3,3),
(0.,1.),
.UNSPECIFIED.);
#1285=LINE('',#1784,#1785);
#1286=VERTEX_POINT('',#1787);
#1287=B_SPLINE_CURVE_WITH_KNOTS('',2,
(#1788,#1789,#1790),
.UNSPECIFIED.,.F.,.F.,
(3,3),
(0.,1.),
.UNSPECIFIED.);
#1288=LINE('',#1791,#1792);
#1289=VERTEX_POINT('',#1794);
#1290=B_SPLINE_CURVE_WITH_KNOTS('',2,
(#1795,#1796,#1797),
.UNSPECIFIED.,.F.,.F.,
(3,3),
(0.,1.),
.UNSPECIFIED.);
#1291=LINE('',#1798,#1799);
#1292=VERTEX_POINT('',#1801);
#1293=B_SPLINE_CURVE_WITH_KNOTS('',2,
(#1802,#1803,#1804),
.UNSPECIFIED.,.F.,.F.,
(3,3),
(0.,1.),
.UNSPECIFIED.);
#1294=LINE('',#1805,#1806);
#1295=VERTEX_POINT('',#1808);
#1296=B_SPLINE_CURVE_WITH_KNOTS('',2,
(#1809,#1810,#1811),
.UNSPECIFIED.,.F.,.F.,
(3,3),
(0.,1.),
.UNSPECIFIED.);
#1297=LINE('',#1812,#1813);
#1298=B_SPLINE_CURVE_WITH_KNOTS('',2,
(#1815,#1816,#1817),
.UNSPECIFIED.,.F.,.F.,
(3,3),
(0.,1.),
.UNSPECIFIED.);
#1299=VERTEX_POINT('',#1818);
#1300=LINE('',#1819,#1820);
#1301=VERTEX_POINT('',#1822);
#1302=LINE('',#1823,#1824);
#1303=LINE('',#1826,#1827);
#1304=VERTEX_POINT('',#1829);
#1305=LINE('',#1830,#1831);
#1306=LINE('',#1833,#1834);
#1307=VERTEX_POINT('',#1836);
#1308=LINE('',#1837,#1838);
#1309=LINE('',#1840,#1841);
#1310=VERTEX_POINT('',#1843);
#1311=LINE('',#1844,#1845);
#1312=LINE('',#1847,#1848);
#1313=VERTEX_POINT('',#1850);
#1314=LINE('',#1851,#1852);
#1315=LINE('',#1854,#1855);
#1316=LINE('',#1857,#1858);
#1317=VERTEX_POINT('',#1860);
#1318=LINE('',#1861,#1862);
#1319=VERTEX_POINT('',#1864);
#1320=LINE('',#1865,#1866);
#1321=LINE('',#1868,#1869);
#1322=VERTEX_POINT('',#1871);
#1323=LINE('',#1872,#1873);
#1324=LINE('',#1875,#1876);
#1325=VERTEX_POINT('',#1878);
#1326=LINE('',#1879,#1880);
#1327=LINE('',#1882,#1883);
#1328=LINE('',#1885,#1886);
#1329=VERTEX_POINT('',#1888);
#1330=VERTEX_POINT('',#1889);
#1331=LINE('',#1890,#1891);
#1332=VERTEX_POINT('',#1893);
#1333=LINE('',#1894,#1895);
#1334=VERTEX_POINT('',#1897);
#1335=LINE('',#1898,#1899);
#1336=LINE('',#1901,#1902);
#1337=VERTEX_POINT('',#1904);
#1338=VERTEX_POINT('',#1905);
#1339=LINE('',#1906,#1907);
#1340=LINE('',#1909,#1910);
#1341=LINE('',#1912,#1913);
#1342=VERTEX_POINT('',#1915);
#1343=LINE('',#1916,#1917);
#1344=LINE('',#1919,#1920);
#1345=VERTEX_POINT('',#1922);
#1346=LINE('',#1923,#1924);
#1347=LINE('',#1926,#1927);
#1348=LINE('',#1929,#1930);
#1349=CARTESIAN_POINT('',(26.703559314616,8.66428189107276,1.));
#1350=CARTESIAN_POINT('',(26.1393353704132,6.17225417814583,1.));
#1351=CARTESIAN_POINT('',(26.1393353704132,6.17225417814583,1.));
#1352=CARTESIAN_POINT('',(26.7179460268054,7.87484790795942,1.));
#1353=CARTESIAN_POINT('',(26.703559314616,8.66428189107276,1.));
#1354=CARTESIAN_POINT('',(26.0884692235705,9.45371587418611,1.));
#1355=CARTESIAN_POINT('',(26.703559314616,8.66428189107276,1.));
#1356=CARTESIAN_POINT('',(26.6891726024266,9.45371587418611,1.));
#1357=CARTESIAN_POINT('',(26.0884692235705,9.45371587418611,1.));
#1358=CARTESIAN_POINT('',(24.9525964166734,8.67607240428453,1.));
#1359=CARTESIAN_POINT('',(26.0884692235705,9.45371587418611,1.));
#1360=CARTESIAN_POINT('',(25.5054267610187,9.45371587418611,1.));
#1361=CARTESIAN_POINT('',(24.9525964166734,8.67607240428453,1.));
#1362=CARTESIAN_POINT('',(23.8671929078614,6.3313349123591,1.));
#1363=CARTESIAN_POINT('',(24.9525964166734,8.67607240428453,1.));
#1364=CARTESIAN_POINT('',(24.3997661046264,7.89842890208469,1.));
#1365=CARTESIAN_POINT('',(23.8671929078614,6.3313349123591,1.));
#1366=CARTESIAN_POINT('',(23.2960236420746,3.82753322293106,1.));
#1367=CARTESIAN_POINT('',(23.8671929078614,6.3313349123591,1.));
#1368=CARTESIAN_POINT('',(23.2845803997868,4.61696720604441,1.));
#1369=CARTESIAN_POINT('',(23.2960236420746,3.82753322293106,1.));
#1370=CARTESIAN_POINT('',(23.9081702632185,3.03809920751945,1.));
#1371=CARTESIAN_POINT('',(23.2960236420746,3.82753322293106,1.));
#1372=CARTESIAN_POINT('',(23.3074668843625,3.03809920751945,1.));
#1373=CARTESIAN_POINT('',(23.9081702632185,3.03809920751945,1.));
#1374=CARTESIAN_POINT('',(25.0509883594012,3.82753322293106,1.));
#1375=CARTESIAN_POINT('',(23.9081702632185,3.03809920751945,1.));
#1376=CARTESIAN_POINT('',(24.4911796200508,3.03809920751945,1.));
#1377=CARTESIAN_POINT('',(25.0509883594012,3.82753322293106,1.));
#1378=CARTESIAN_POINT('',(25.0509883594012,3.82753322293106,1.));
#1379=CARTESIAN_POINT('',(25.6107970664535,4.61696720604441,1.));
#1380=CARTESIAN_POINT('',(26.1393353704132,6.17225417814583,1.));
#1381=CARTESIAN_POINT('',(48.5,0.999999999999999,1.));
#1382=CARTESIAN_POINT('',(1.,0.999999999999999,1.));
#1383=CARTESIAN_POINT('',(1.,0.999999999999999,1.));
#1384=VECTOR('',#1385,1.);
#1385=DIRECTION('',(1.,0.,0.));
#1386=CARTESIAN_POINT('',(48.5,11.5,1.));
#1387=CARTESIAN_POINT('',(48.5,0.999999999999999,1.));
#1388=VECTOR('',#1389,1.);
#1389=DIRECTION('',(0.,1.,0.));
#1390=CARTESIAN_POINT('',(1.,11.5,1.));
#1391=CARTESIAN_POINT('',(48.5,11.5,1.));
#1392=VECTOR('',#1393,1.);
#1393=DIRECTION('',(-1.,0.,0.));
#1394=CARTESIAN_POINT('',(1.,11.5,1.));
#1395=VECTOR('',#1396,1.);
#1396=DIRECTION('',(0.,-1.,0.));
#1397=CARTESIAN_POINT('',(17.5924673929888,9.19991431471407,1.));
#1398=CARTESIAN_POINT('',(15.2559980949038,2.32478254085278,1.));
#1399=CARTESIAN_POINT('',(17.5924673929888,9.19991431471407,1.));
#1400=VECTOR('',#1401,1.);
#1401=DIRECTION('',(-0.321769963312185,-0.946817876209609,0.));
#1402=CARTESIAN_POINT('',(15.9673634620104,8.95841587418611,1.));
#1403=CARTESIAN_POINT('',(15.9673634620104,8.95841587418611,1.));
#1404=VECTOR('',#1405,1.);
#1405=DIRECTION('',(0.989137866143484,0.14699075399873,0.));
#1406=CARTESIAN_POINT('',(16.2255967953437,9.71829920751945,1.));
#1407=CARTESIAN_POINT('',(16.2255967953437,9.71829920751945,1.));
#1408=VECTOR('',#1409,1.);
#1409=DIRECTION('',(-0.321760883930675,-0.946820961730438,0.));
#1410=CARTESIAN_POINT('',(20.0684051448262,10.3130825408528,1.));
#1411=CARTESIAN_POINT('',(20.0684051448262,10.3130825408528,1.));
#1412=VECTOR('',#1413,1.);
#1413=DIRECTION('',(-0.988232845540621,-0.152956997207341,0.));
#1414=CARTESIAN_POINT('',(17.3536147615704,2.32478254085278,1.));
#1415=CARTESIAN_POINT('',(17.3536147615704,2.32478254085278,1.));
#1416=VECTOR('',#1417,1.);
#1417=DIRECTION('',(0.32177187861683,0.946817225303488,0.));
#1418=CARTESIAN_POINT('',(15.2559980949038,2.32478254085278,1.));
#1419=VECTOR('',#1420,1.);
#1420=DIRECTION('',(1.,0.,0.));
#1421=CARTESIAN_POINT('',(28.4571184438345,6.59585209884978,1.));
#1422=CARTESIAN_POINT('',(28.6059134732081,9.37372903204069,1.));
#1423=CARTESIAN_POINT('',(28.4571184438345,6.59585209884978,1.));
#1424=CARTESIAN_POINT('',(29.0617905686533,8.37510885656194,1.));
#1425=CARTESIAN_POINT('',(28.6059134732081,9.37372903204069,1.));
#1426=CARTESIAN_POINT('',(27.6319987881798,4.88728868108319,1.));
#1427=CARTESIAN_POINT('',(27.6319987881798,4.88728868108319,1.));
#1428=CARTESIAN_POINT('',(28.142760354264,5.67086876551645,1.));
#1429=CARTESIAN_POINT('',(28.4571184438345,6.59585209884978,1.));
#1430=CARTESIAN_POINT('',(26.4378515172558,3.49688673174314,1.));
#1431=CARTESIAN_POINT('',(26.4378515172558,3.49688673174314,1.));
#1432=CARTESIAN_POINT('',(27.1212371897972,4.10370859664994,1.));
#1433=CARTESIAN_POINT('',(27.6319987881798,4.88728868108319,1.));
#1434=CARTESIAN_POINT('',(24.8671690936145,2.48060560766186,1.));
#1435=CARTESIAN_POINT('',(24.8671690936145,2.48060560766186,1.));
#1436=CARTESIAN_POINT('',(25.681407755144,2.83116197550602,1.));
#1437=CARTESIAN_POINT('',(26.4378515172558,3.49688673174314,1.));
#1438=CARTESIAN_POINT('',(23.257659054704,2.13004920751945,1.));
#1439=CARTESIAN_POINT('',(23.257659054704,2.13004920751945,1.));
#1440=CARTESIAN_POINT('',(24.0529303997868,2.13004920751945,1.));
#1441=CARTESIAN_POINT('',(24.8671690936145,2.48060560766186,1.));
#1442=CARTESIAN_POINT('',(21.3917016472118,3.09625794686992,1.));
#1443=CARTESIAN_POINT('',(21.3917016472118,3.09625794686992,1.));
#1444=CARTESIAN_POINT('',(21.8674390091813,2.13004920751945,1.));
#1445=CARTESIAN_POINT('',(23.257659054704,2.13004920751945,1.));
#1446=CARTESIAN_POINT('',(21.4906061956719,5.75335261867379,1.));
#1447=CARTESIAN_POINT('',(21.4906061956719,5.75335261867379,1.));
#1448=CARTESIAN_POINT('',(20.9159642529441,4.0624666862204,1.));
#1449=CARTESIAN_POINT('',(21.3917016472118,3.09625794686992,1.));
#1450=CARTESIAN_POINT('',(23.655757755144,9.0909390709512,1.));
#1451=CARTESIAN_POINT('',(23.655757755144,9.0909390709512,1.));
#1452=CARTESIAN_POINT('',(22.1893707830426,7.80952890208469,1.));
#1453=CARTESIAN_POINT('',(21.4906061956719,5.75335261867379,1.));
#1454=CARTESIAN_POINT('',(26.748009314616,10.3723492075194,1.));
#1455=CARTESIAN_POINT('',(26.748009314616,10.3723492075194,1.));
#1456=CARTESIAN_POINT('',(25.1221447272454,10.3723492075194,1.));
#1457=CARTESIAN_POINT('',(23.655757755144,9.0909390709512,1.));
#1458=CARTESIAN_POINT('',(28.6059134732081,9.37372903204069,1.));
#1459=CARTESIAN_POINT('',(28.1500364100612,10.3723492075194,1.));
#1460=CARTESIAN_POINT('',(26.748009314616,10.3723492075194,1.));
#1461=CARTESIAN_POINT('',(28.2098317428428,3.31462188446052,1.));
#1462=CARTESIAN_POINT('',(27.8734470776512,2.32478254085278,1.));
#1463=CARTESIAN_POINT('',(28.2098317428428,3.31462188446052,1.));
#1464=VECTOR('',#1465,1.);
#1465=DIRECTION('',(-0.321764932330298,-0.946819585941524,0.));
#1466=CARTESIAN_POINT('',(29.7822835622268,4.59318777139117,1.));
#1467=CARTESIAN_POINT('',(29.7822835622268,4.59318777139117,1.));
#1468=VECTOR('',#1469,1.);
#1469=DIRECTION('',(-0.775884829665511,-0.630874576358028,0.));
#1470=CARTESIAN_POINT('',(30.3685340820508,5.07026457462608,1.));
#1471=CARTESIAN_POINT('',(30.3685340820508,5.07026457462608,1.));
#1472=CARTESIAN_POINT('',(29.9856158559121,4.75812240428453,1.));
#1473=CARTESIAN_POINT('',(29.7822835622268,4.59318777139117,1.));
#1474=CARTESIAN_POINT('',(33.4890960380031,8.18609712822339,1.));
#1475=CARTESIAN_POINT('',(33.4890960380031,8.18609712822339,1.));
#1476=CARTESIAN_POINT('',(33.2088692347682,7.36149011059923,1.));
#1477=CARTESIAN_POINT('',(30.3685340820508,5.07026457462608,1.));
#1478=CARTESIAN_POINT('',(33.4554278118644,9.04896954525246,1.));
#1479=CARTESIAN_POINT('',(33.4554278118644,9.04896954525246,1.));
#1480=CARTESIAN_POINT('',(33.6692442186191,8.71618985068722,1.));
#1481=CARTESIAN_POINT('',(33.4890960380031,8.18609712822339,1.));
#1482=CARTESIAN_POINT('',(32.7232595857257,9.38174920751945,1.));
#1483=CARTESIAN_POINT('',(32.7232595857257,9.38174920751945,1.));
#1484=CARTESIAN_POINT('',(33.2416114051098,9.38174920751945,1.));
#1485=CARTESIAN_POINT('',(33.4554278118644,9.04896954525246,1.));
#1486=CARTESIAN_POINT('',(31.5828227435803,8.96392253424054,1.));
#1487=CARTESIAN_POINT('',(31.5828227435803,8.96392253424054,1.));
#1488=CARTESIAN_POINT('',(32.1047629645818,9.38174920751945,1.));
#1489=CARTESIAN_POINT('',(32.7232595857257,9.38174920751945,1.));
#1490=CARTESIAN_POINT('',(30.8248741730963,7.85166379489006,1.));
#1491=CARTESIAN_POINT('',(30.8248741730963,7.85166379489006,1.));
#1492=CARTESIAN_POINT('',(31.0608825225788,8.54609582866336,1.));
#1493=CARTESIAN_POINT('',(31.5828227435803,8.96392253424054,1.));
#1494=CARTESIAN_POINT('',(30.8168705343283,7.82811587418611,1.));
#1495=CARTESIAN_POINT('',(30.8168705343283,7.82811587418611,1.));
#1496=VECTOR('',#1497,1.);
#1497=DIRECTION('',(0.321807068396856,0.94680526547428,0.));
#1498=CARTESIAN_POINT('',(29.7437205343283,7.82811587418611,1.));
#1499=CARTESIAN_POINT('',(29.7437205343283,7.82811587418611,1.));
#1500=VECTOR('',#1501,1.);
#1501=DIRECTION('',(1.,0.,0.));
#1502=CARTESIAN_POINT('',(31.1844759924804,9.70095248871779,1.));
#1503=CARTESIAN_POINT('',(31.1844759924804,9.70095248871779,1.));
#1504=CARTESIAN_POINT('',(30.2168616650218,9.02955573761787,1.));
#1505=CARTESIAN_POINT('',(29.7437205343283,7.82811587418611,1.));
#1506=CARTESIAN_POINT('',(33.4070752127444,10.3723492075194,1.));
#1507=CARTESIAN_POINT('',(33.4070752127444,10.3723492075194,1.));
#1508=CARTESIAN_POINT('',(32.152090319939,10.3723492075194,1.));
#1509=CARTESIAN_POINT('',(31.1844759924804,9.70095248871779,1.));
#1510=CARTESIAN_POINT('',(35.1875226136243,9.63004413923532,1.));
#1511=CARTESIAN_POINT('',(35.1875226136243,9.63004413923532,1.));
#1512=CARTESIAN_POINT('',(34.6620601055497,10.3723492075194,1.));
#1513=CARTESIAN_POINT('',(33.4070752127444,10.3723492075194,1.));
#1514=CARTESIAN_POINT('',(35.3105538676616,7.70356327506605,1.));
#1515=CARTESIAN_POINT('',(35.3105538676616,7.70356327506605,1.));
#1516=CARTESIAN_POINT('',(35.7129851216989,8.8877390709512,1.));
#1517=CARTESIAN_POINT('',(35.1875226136243,9.63004413923532,1.));
#1518=CARTESIAN_POINT('',(34.929338890423,6.91118582205112,1.));
#1519=CARTESIAN_POINT('',(34.929338890423,6.91118582205112,1.));
#1520=CARTESIAN_POINT('',(35.1724082861657,7.29706405480207,1.));
#1521=CARTESIAN_POINT('',(35.3105538676616,7.70356327506605,1.));
#1522=CARTESIAN_POINT('',(34.3521668955602,6.18359816787142,1.));
#1523=CARTESIAN_POINT('',(34.3521668955602,6.18359816787142,1.));
#1524=CARTESIAN_POINT('',(34.6862694946802,6.52530755700191,1.));
#1525=CARTESIAN_POINT('',(34.929338890423,6.91118582205112,1.));
#1526=CARTESIAN_POINT('',(33.0870782017324,5.06130183893777,1.));
#1527=CARTESIAN_POINT('',(33.0870782017324,5.06130183893777,1.));
#1528=CARTESIAN_POINT('',(33.8975465578271,5.72997006507648,1.));
#1529=CARTESIAN_POINT('',(34.3521668955602,6.18359816787142,1.));
#1530=CARTESIAN_POINT('',(30.9622259924804,3.38523254085278,1.));
#1531=CARTESIAN_POINT('',(30.9622259924804,3.38523254085278,1.));
#1532=CARTESIAN_POINT('',(32.2766098456377,4.39263361279907,1.));
#1533=CARTESIAN_POINT('',(33.0870782017324,5.06130183893777,1.));
#1534=CARTESIAN_POINT('',(33.9784759924804,3.38523254085278,1.));
#1535=CARTESIAN_POINT('',(33.9784759924804,3.38523254085278,1.));
#1536=VECTOR('',#1537,1.);
#1537=DIRECTION('',(-1.,0.,0.));
#1538=CARTESIAN_POINT('',(33.6180804109845,2.32478254085278,1.));
#1539=CARTESIAN_POINT('',(33.6180804109845,2.32478254085278,1.));
#1540=VECTOR('',#1541,1.);
#1541=DIRECTION('',(0.321776744335445,0.946815571695397,0.));
#1542=CARTESIAN_POINT('',(27.8734470776512,2.32478254085278,1.));
#1543=VECTOR('',#1544,1.);
#1544=DIRECTION('',(1.,0.,0.));
#1545=CARTESIAN_POINT('',(28.2098317428428,3.31462188446052,2.));
#1546=CARTESIAN_POINT('',(28.2098317428428,3.31462188446052,1.));
#1547=VECTOR('',#1548,1.);
#1548=DIRECTION('',(0.,0.,1.));
#1549=CARTESIAN_POINT('',(29.7822835622268,4.59318777139117,2.));
#1550=CARTESIAN_POINT('',(29.7822835622268,4.59318777139117,2.));
#1551=VECTOR('',#1552,1.);
#1552=DIRECTION('',(-0.775884829665511,-0.630874576358027,0.));
#1553=CARTESIAN_POINT('',(29.7822835622268,4.59318777139117,1.));
#1554=VECTOR('',#1555,1.);
#1555=DIRECTION('',(0.,0.,1.));
#1556=CARTESIAN_POINT('',(30.3685340820508,5.07026457462608,2.));
#1557=CARTESIAN_POINT('',(30.3685340820508,5.07026457462608,2.));
#1558=CARTESIAN_POINT('',(29.9856158559121,4.75812240428453,2.));
#1559=CARTESIAN_POINT('',(29.7822835622268,4.59318777139117,2.));
#1560=CARTESIAN_POINT('',(30.3685340820508,5.07026457462608,1.));
#1561=VECTOR('',#1562,1.);
#1562=DIRECTION('',(0.,0.,1.));
#1563=CARTESIAN_POINT('',(33.4890960380031,8.18609712822339,2.));
#1564=CARTESIAN_POINT('',(33.4890960380031,8.18609712822339,2.));
#1565=CARTESIAN_POINT('',(33.2088692347682,7.36149011059923,2.));
#1566=CARTESIAN_POINT('',(30.3685340820508,5.07026457462608,2.));
#1567=CARTESIAN_POINT('',(33.4890960380031,8.18609712822339,1.));
#1568=VECTOR('',#1569,1.);
#1569=DIRECTION('',(0.,0.,1.));
#1570=CARTESIAN_POINT('',(33.4554278118644,9.04896954525246,2.));
#1571=CARTESIAN_POINT('',(33.4554278118644,9.04896954525246,2.));
#1572=CARTESIAN_POINT('',(33.6692442186191,8.71618985068722,2.));
#1573=CARTESIAN_POINT('',(33.4890960380031,8.18609712822339,2.));
#1574=CARTESIAN_POINT('',(33.4554278118644,9.04896954525246,1.));
#1575=VECTOR('',#1576,1.);
#1576=DIRECTION('',(0.,0.,1.));
#1577=CARTESIAN_POINT('',(32.7232595857257,9.38174920751945,2.));
#1578=CARTESIAN_POINT('',(32.7232595857257,9.38174920751945,2.));
#1579=CARTESIAN_POINT('',(33.2416114051098,9.38174920751945,2.));
#1580=CARTESIAN_POINT('',(33.4554278118644,9.04896954525246,2.));
#1581=CARTESIAN_POINT('',(32.7232595857257,9.38174920751945,1.));
#1582=VECTOR('',#1583,1.);
#1583=DIRECTION('',(0.,0.,1.));
#1584=CARTESIAN_POINT('',(31.5828227435803,8.96392253424054,2.));
#1585=CARTESIAN_POINT('',(31.5828227435803,8.96392253424054,2.));
#1586=CARTESIAN_POINT('',(32.1047629645818,9.38174920751945,2.));
#1587=CARTESIAN_POINT('',(32.7232595857257,9.38174920751945,2.));
#1588=CARTESIAN_POINT('',(31.5828227435803,8.96392253424054,1.));
#1589=VECTOR('',#1590,1.);
#1590=DIRECTION('',(0.,0.,1.));
#1591=CARTESIAN_POINT('',(30.8248741730963,7.85166379489006,2.));
#1592=CARTESIAN_POINT('',(30.8248741730963,7.85166379489006,2.));
#1593=CARTESIAN_POINT('',(31.0608825225788,8.54609582866336,2.));
#1594=CARTESIAN_POINT('',(31.5828227435803,8.96392253424054,2.));
#1595=CARTESIAN_POINT('',(30.8248741730963,7.85166379489006,1.));
#1596=VECTOR('',#1597,1.);
#1597=DIRECTION('',(0.,0.,1.));
#1598=CARTESIAN_POINT('',(30.8168705343283,7.82811587418611,2.));
#1599=CARTESIAN_POINT('',(30.8168705343283,7.82811587418611,2.));
#1600=VECTOR('',#1601,1.);
#1601=DIRECTION('',(0.321807068396856,0.94680526547428,0.));
#1602=CARTESIAN_POINT('',(30.8168705343283,7.82811587418611,1.));
#1603=VECTOR('',#1604,1.);
#1604=DIRECTION('',(0.,0.,1.));
#1605=CARTESIAN_POINT('',(29.7437205343283,7.82811587418611,2.));
#1606=CARTESIAN_POINT('',(29.7437205343283,7.82811587418611,2.));
#1607=VECTOR('',#1608,1.);
#1608=DIRECTION('',(1.,0.,0.));
#1609=CARTESIAN_POINT('',(29.7437205343283,7.82811587418611,1.));
#1610=VECTOR('',#1611,1.);
#1611=DIRECTION('',(0.,0.,1.));
#1612=CARTESIAN_POINT('',(31.1844759924804,9.70095248871779,2.));
#1613=CARTESIAN_POINT('',(31.1844759924804,9.70095248871779,2.));
#1614=CARTESIAN_POINT('',(30.2168616650218,9.02955573761787,2.));
#1615=CARTESIAN_POINT('',(29.7437205343283,7.82811587418611,2.));
#1616=CARTESIAN_POINT('',(31.1844759924804,9.70095248871779,1.));
#1617=VECTOR('',#1618,1.);
#1618=DIRECTION('',(0.,0.,1.));
#1619=CARTESIAN_POINT('',(33.4070752127444,10.3723492075194,2.));
#1620=CARTESIAN_POINT('',(33.4070752127444,10.3723492075194,2.));
#1621=CARTESIAN_POINT('',(32.152090319939,10.3723492075194,2.));
#1622=CARTESIAN_POINT('',(31.1844759924804,9.70095248871779,2.));
#1623=CARTESIAN_POINT('',(33.4070752127444,10.3723492075194,1.));
#1624=VECTOR('',#1625,1.);
#1625=DIRECTION('',(0.,0.,1.));
#1626=CARTESIAN_POINT('',(35.1875226136243,9.63004413923532,2.));
#1627=CARTESIAN_POINT('',(35.1875226136243,9.63004413923532,2.));
#1628=CARTESIAN_POINT('',(34.6620601055497,10.3723492075194,2.));
#1629=CARTESIAN_POINT('',(33.4070752127444,10.3723492075194,2.));
#1630=CARTESIAN_POINT('',(35.1875226136243,9.63004413923532,1.));
#1631=VECTOR('',#1632,1.);
#1632=DIRECTION('',(0.,0.,1.));
#1633=CARTESIAN_POINT('',(35.3105538676616,7.70356327506605,2.));
#1634=CARTESIAN_POINT('',(35.3105538676616,7.70356327506605,2.));
#1635=CARTESIAN_POINT('',(35.7129851216989,8.8877390709512,2.));
#1636=CARTESIAN_POINT('',(35.1875226136243,9.63004413923532,2.));
#1637=CARTESIAN_POINT('',(35.3105538676616,7.70356327506605,1.));
#1638=VECTOR('',#1639,1.);
#1639=DIRECTION('',(0.,0.,1.));
#1640=CARTESIAN_POINT('',(34.929338890423,6.91118582205112,2.));
#1641=CARTESIAN_POINT('',(34.929338890423,6.91118582205112,2.));
#1642=CARTESIAN_POINT('',(35.1724082861657,7.29706405480207,2.));
#1643=CARTESIAN_POINT('',(35.3105538676616,7.70356327506605,2.));
#1644=CARTESIAN_POINT('',(34.929338890423,6.91118582205112,1.));
#1645=VECTOR('',#1646,1.);
#1646=DIRECTION('',(0.,0.,1.));
#1647=CARTESIAN_POINT('',(34.3521668955602,6.18359816787142,2.));
#1648=CARTESIAN_POINT('',(34.3521668955602,6.18359816787142,2.));
#1649=CARTESIAN_POINT('',(34.6862694946802,6.52530755700191,2.));
#1650=CARTESIAN_POINT('',(34.929338890423,6.91118582205112,2.));
#1651=CARTESIAN_POINT('',(34.3521668955602,6.18359816787142,1.));
#1652=VECTOR('',#1653,1.);
#1653=DIRECTION('',(0.,0.,1.));
#1654=CARTESIAN_POINT('',(33.0870782017324,5.06130183893777,2.));
#1655=CARTESIAN_POINT('',(33.0870782017324,5.06130183893777,2.));
#1656=CARTESIAN_POINT('',(33.8975465578271,5.72997006507648,2.));
#1657=CARTESIAN_POINT('',(34.3521668955602,6.18359816787142,2.));
#1658=CARTESIAN_POINT('',(33.0870782017324,5.06130183893777,1.));
#1659=VECTOR('',#1660,1.);
#1660=DIRECTION('',(0.,0.,1.));
#1661=CARTESIAN_POINT('',(30.9622259924804,3.38523254085278,2.));
#1662=CARTESIAN_POINT('',(30.9622259924804,3.38523254085278,2.));
#1663=CARTESIAN_POINT('',(32.2766098456377,4.39263361279907,2.));
#1664=CARTESIAN_POINT('',(33.0870782017324,5.06130183893777,2.));
#1665=CARTESIAN_POINT('',(30.9622259924804,3.38523254085278,1.));
#1666=VECTOR('',#1667,1.);
#1667=DIRECTION('',(0.,0.,1.));
#1668=CARTESIAN_POINT('',(33.9784759924804,3.38523254085278,2.));
#1669=CARTESIAN_POINT('',(33.9784759924804,3.38523254085278,2.));
#1670=VECTOR('',#1671,1.);
#1671=DIRECTION('',(-1.,0.,0.));
#1672=CARTESIAN_POINT('',(33.9784759924804,3.38523254085278,1.));
#1673=VECTOR('',#1674,1.);
#1674=DIRECTION('',(0.,0.,1.));
#1675=CARTESIAN_POINT('',(33.6180804109845,2.32478254085278,2.));
#1676=CARTESIAN_POINT('',(33.6180804109845,2.32478254085278,2.));
#1677=VECTOR('',#1678,1.);
#1678=DIRECTION('',(0.321776744335445,0.946815571695397,0.));
#1679=CARTESIAN_POINT('',(33.6180804109845,2.32478254085278,1.));
#1680=VECTOR('',#1681,1.);
#1681=DIRECTION('',(0.,0.,1.));
#1682=CARTESIAN_POINT('',(27.8734470776512,2.32478254085278,2.));
#1683=CARTESIAN_POINT('',(27.8734470776512,2.32478254085278,2.));
#1684=VECTOR('',#1685,1.);
#1685=DIRECTION('',(1.,0.,0.));
#1686=CARTESIAN_POINT('',(27.8734470776512,2.32478254085278,1.));
#1687=VECTOR('',#1688,1.);
#1688=DIRECTION('',(0.,0.,1.));
#1689=CARTESIAN_POINT('',(28.2098317428428,3.31462188446052,2.));
#1690=VECTOR('',#1691,1.);
#1691=DIRECTION('',(-0.321764932330298,-0.946819585941524,0.));
#1692=CARTESIAN_POINT('',(26.748009314616,10.3723492075194,2.));
#1693=CARTESIAN_POINT('',(26.748009314616,10.3723492075194,1.));
#1694=VECTOR('',#1695,1.);
#1695=DIRECTION('',(0.,0.,1.));
#1696=CARTESIAN_POINT('',(28.6059134732081,9.37372903204069,2.));
#1697=CARTESIAN_POINT('',(28.6059134732081,9.37372903204069,2.));
#1698=CARTESIAN_POINT('',(28.1500364100612,10.3723492075194,2.));
#1699=CARTESIAN_POINT('',(26.748009314616,10.3723492075194,2.));
#1700=CARTESIAN_POINT('',(28.6059134732081,9.37372903204069,1.));
#1701=VECTOR('',#1702,1.);
#1702=DIRECTION('',(0.,0.,1.));
#1703=CARTESIAN_POINT('',(23.655757755144,9.0909390709512,2.));
#1704=CARTESIAN_POINT('',(23.655757755144,9.0909390709512,1.));
#1705=VECTOR('',#1706,1.);
#1706=DIRECTION('',(0.,0.,1.));
#1707=CARTESIAN_POINT('',(26.748009314616,10.3723492075194,2.));
#1708=CARTESIAN_POINT('',(25.1221447272454,10.3723492075194,2.));
#1709=CARTESIAN_POINT('',(23.655757755144,9.0909390709512,2.));
#1710=CARTESIAN_POINT('',(21.4906061956719,5.75335261867379,2.));
#1711=CARTESIAN_POINT('',(21.4906061956719,5.75335261867379,1.));
#1712=VECTOR('',#1713,1.);
#1713=DIRECTION('',(0.,0.,1.));
#1714=CARTESIAN_POINT('',(23.655757755144,9.0909390709512,2.));
#1715=CARTESIAN_POINT('',(22.1893707830426,7.80952890208469,2.));
#1716=CARTESIAN_POINT('',(21.4906061956719,5.75335261867379,2.));
#1717=CARTESIAN_POINT('',(21.3917016472118,3.09625794686992,2.));
#1718=CARTESIAN_POINT('',(21.3917016472118,3.09625794686992,1.));
#1719=VECTOR('',#1720,1.);
#1720=DIRECTION('',(0.,0.,1.));
#1721=CARTESIAN_POINT('',(21.4906061956719,5.75335261867379,2.));
#1722=CARTESIAN_POINT('',(20.9159642529441,4.0624666862204,2.));
#1723=CARTESIAN_POINT('',(21.3917016472118,3.09625794686992,2.));
#1724=CARTESIAN_POINT('',(23.257659054704,2.13004920751945,2.));
#1725=CARTESIAN_POINT('',(23.257659054704,2.13004920751945,1.));
#1726=VECTOR('',#1727,1.);
#1727=DIRECTION('',(0.,0.,1.));
#1728=CARTESIAN_POINT('',(21.3917016472118,3.09625794686992,2.));
#1729=CARTESIAN_POINT('',(21.8674390091813,2.13004920751945,2.));
#1730=CARTESIAN_POINT('',(23.257659054704,2.13004920751945,2.));
#1731=CARTESIAN_POINT('',(24.8671690936145,2.48060560766186,2.));
#1732=CARTESIAN_POINT('',(24.8671690936145,2.48060560766186,1.));
#1733=VECTOR('',#1734,1.);
#1734=DIRECTION('',(0.,0.,1.));
#1735=CARTESIAN_POINT('',(23.257659054704,2.13004920751945,2.));
#1736=CARTESIAN_POINT('',(24.0529303997868,2.13004920751945,2.));
#1737=CARTESIAN_POINT('',(24.8671690936145,2.48060560766186,2.));
#1738=CARTESIAN_POINT('',(26.4378515172558,3.49688673174314,2.));
#1739=CARTESIAN_POINT('',(26.4378515172558,3.49688673174314,1.));
#1740=VECTOR('',#1741,1.);
#1741=DIRECTION('',(0.,0.,1.));
#1742=CARTESIAN_POINT('',(24.8671690936145,2.48060560766186,2.));
#1743=CARTESIAN_POINT('',(25.681407755144,2.83116197550602,2.));
#1744=CARTESIAN_POINT('',(26.4378515172558,3.49688673174314,2.));
#1745=CARTESIAN_POINT('',(27.6319987881798,4.88728868108319,2.));
#1746=CARTESIAN_POINT('',(27.6319987881798,4.88728868108319,1.));
#1747=VECTOR('',#1748,1.);
#1748=DIRECTION('',(0.,0.,1.));
#1749=CARTESIAN_POINT('',(26.4378515172558,3.49688673174314,2.));
#1750=CARTESIAN_POINT('',(27.1212371897972,4.10370859664994,2.));
#1751=CARTESIAN_POINT('',(27.6319987881798,4.88728868108319,2.));
#1752=CARTESIAN_POINT('',(28.4571184438345,6.59585209884978,2.));
#1753=CARTESIAN_POINT('',(28.4571184438345,6.59585209884978,1.));
#1754=VECTOR('',#1755,1.);
#1755=DIRECTION('',(0.,0.,1.));
#1756=CARTESIAN_POINT('',(27.6319987881798,4.88728868108319,2.));
#1757=CARTESIAN_POINT('',(28.142760354264,5.67086876551645,2.));
#1758=CARTESIAN_POINT('',(28.4571184438345,6.59585209884978,2.));
#1759=CARTESIAN_POINT('',(28.4571184438345,6.59585209884978,2.));
#1760=CARTESIAN_POINT('',(29.0617905686533,8.37510885656194,2.));
#1761=CARTESIAN_POINT('',(28.6059134732081,9.37372903204069,2.));
#1762=CARTESIAN_POINT('',(26.703559314616,8.66428189107276,2.));
#1763=CARTESIAN_POINT('',(26.703559314616,8.66428189107276,1.));
#1764=VECTOR('',#1765,1.);
#1765=DIRECTION('',(0.,0.,1.));
#1766=CARTESIAN_POINT('',(26.0884692235705,9.45371587418611,2.));
#1767=CARTESIAN_POINT('',(26.703559314616,8.66428189107276,2.));
#1768=CARTESIAN_POINT('',(26.6891726024266,9.45371587418611,2.));
#1769=CARTESIAN_POINT('',(26.0884692235705,9.45371587418611,2.));
#1770=CARTESIAN_POINT('',(26.0884692235705,9.45371587418611,1.));
#1771=VECTOR('',#1772,1.);
#1772=DIRECTION('',(0.,0.,1.));
#1773=CARTESIAN_POINT('',(24.9525964166734,8.67607240428453,2.));
#1774=CARTESIAN_POINT('',(26.0884692235705,9.45371587418611,2.));
#1775=CARTESIAN_POINT('',(25.5054267610187,9.45371587418611,2.));
#1776=CARTESIAN_POINT('',(24.9525964166734,8.67607240428453,2.));
#1777=CARTESIAN_POINT('',(24.9525964166734,8.67607240428453,1.));
#1778=VECTOR('',#1779,1.);
#1779=DIRECTION('',(0.,0.,1.));
#1780=CARTESIAN_POINT('',(23.8671929078614,6.3313349123591,2.));
#1781=CARTESIAN_POINT('',(24.9525964166734,8.67607240428453,2.));
#1782=CARTESIAN_POINT('',(24.3997661046264,7.89842890208469,2.));
#1783=CARTESIAN_POINT('',(23.8671929078614,6.3313349123591,2.));
#1784=CARTESIAN_POINT('',(23.8671929078614,6.3313349123591,1.));
#1785=VECTOR('',#1786,1.);
#1786=DIRECTION('',(0.,0.,1.));
#1787=CARTESIAN_POINT('',(23.2960236420746,3.82753322293106,2.));
#1788=CARTESIAN_POINT('',(23.8671929078614,6.3313349123591,2.));
#1789=CARTESIAN_POINT('',(23.2845803997868,4.61696720604441,2.));
#1790=CARTESIAN_POINT('',(23.2960236420746,3.82753322293106,2.));
#1791=CARTESIAN_POINT('',(23.2960236420746,3.82753322293106,1.));
#1792=VECTOR('',#1793,1.);
#1793=DIRECTION('',(0.,0.,1.));
#1794=CARTESIAN_POINT('',(23.9081702632185,3.03809920751945,2.));
#1795=CARTESIAN_POINT('',(23.2960236420746,3.82753322293106,2.));
#1796=CARTESIAN_POINT('',(23.3074668843625,3.03809920751945,2.));
#1797=CARTESIAN_POINT('',(23.9081702632185,3.03809920751945,2.));
#1798=CARTESIAN_POINT('',(23.9081702632185,3.03809920751945,1.));
#1799=VECTOR('',#1800,1.);
#1800=DIRECTION('',(0.,0.,1.));
#1801=CARTESIAN_POINT('',(25.0509883594012,3.82753322293106,2.));
#1802=CARTESIAN_POINT('',(23.9081702632185,3.03809920751945,2.));
#1803=CARTESIAN_POINT('',(24.4911796200508,3.03809920751945,2.));
#1804=CARTESIAN_POINT('',(25.0509883594012,3.82753322293106,2.));
#1805=CARTESIAN_POINT('',(25.0509883594012,3.82753322293106,1.));
#1806=VECTOR('',#1807,1.);
#1807=DIRECTION('',(0.,0.,1.));
#1808=CARTESIAN_POINT('',(26.1393353704132,6.17225417814583,2.));
#1809=CARTESIAN_POINT('',(25.0509883594012,3.82753322293106,2.));
#1810=CARTESIAN_POINT('',(25.6107970664535,4.61696720604441,2.));
#1811=CARTESIAN_POINT('',(26.1393353704132,6.17225417814583,2.));
#1812=CARTESIAN_POINT('',(26.1393353704132,6.17225417814583,1.));
#1813=VECTOR('',#1814,1.);
#1814=DIRECTION('',(0.,0.,1.));
#1815=CARTESIAN_POINT('',(26.1393353704132,6.17225417814583,2.));
#1816=CARTESIAN_POINT('',(26.7179460268054,7.87484790795942,2.));
#1817=CARTESIAN_POINT('',(26.703559314616,8.66428189107276,2.));
#1818=CARTESIAN_POINT('',(17.5924673929888,9.19991431471407,2.));
#1819=CARTESIAN_POINT('',(17.5924673929888,9.19991431471407,1.));
#1820=VECTOR('',#1821,1.);
#1821=DIRECTION('',(0.,0.,1.));
#1822=CARTESIAN_POINT('',(15.9673634620104,8.95841587418611,2.));
#1823=CARTESIAN_POINT('',(15.9673634620104,8.95841587418611,2.));
#1824=VECTOR('',#1825,1.);
#1825=DIRECTION('',(0.989137866143484,0.14699075399873,0.));
#1826=CARTESIAN_POINT('',(15.9673634620104,8.95841587418611,1.));
#1827=VECTOR('',#1828,1.);
#1828=DIRECTION('',(0.,0.,1.));
#1829=CARTESIAN_POINT('',(16.2255967953437,9.71829920751945,2.));
#1830=CARTESIAN_POINT('',(16.2255967953437,9.71829920751945,2.));
#1831=VECTOR('',#1832,1.);
#1832=DIRECTION('',(-0.321760883930675,-0.946820961730438,0.));
#1833=CARTESIAN_POINT('',(16.2255967953437,9.71829920751945,1.));
#1834=VECTOR('',#1835,1.);
#1835=DIRECTION('',(0.,0.,1.));
#1836=CARTESIAN_POINT('',(20.0684051448262,10.3130825408528,2.));
#1837=CARTESIAN_POINT('',(20.0684051448262,10.3130825408528,2.));
#1838=VECTOR('',#1839,1.);
#1839=DIRECTION('',(-0.988232845540621,-0.152956997207341,0.));
#1840=CARTESIAN_POINT('',(20.0684051448262,10.3130825408528,1.));
#1841=VECTOR('',#1842,1.);
#1842=DIRECTION('',(0.,0.,1.));
#1843=CARTESIAN_POINT('',(17.3536147615704,2.32478254085278,2.));
#1844=CARTESIAN_POINT('',(17.3536147615704,2.32478254085278,2.));
#1845=VECTOR('',#1846,1.);
#1846=DIRECTION('',(0.32177187861683,0.946817225303488,0.));
#1847=CARTESIAN_POINT('',(17.3536147615704,2.32478254085278,1.));
#1848=VECTOR('',#1849,1.);
#1849=DIRECTION('',(0.,0.,1.));
#1850=CARTESIAN_POINT('',(15.2559980949038,2.32478254085278,2.));
#1851=CARTESIAN_POINT('',(15.2559980949038,2.32478254085278,2.));
#1852=VECTOR('',#1853,1.);
#1853=DIRECTION('',(1.,0.,0.));
#1854=CARTESIAN_POINT('',(15.2559980949038,2.32478254085278,1.));
#1855=VECTOR('',#1856,1.);
#1856=DIRECTION('',(0.,0.,1.));
#1857=CARTESIAN_POINT('',(17.5924673929888,9.19991431471407,2.));
#1858=VECTOR('',#1859,1.);
#1859=DIRECTION('',(-0.321769963312185,-0.946817876209609,0.));
#1860=CARTESIAN_POINT('',(1.,0.999999999999999,2.));
#1861=CARTESIAN_POINT('',(1.,0.999999999999999,1.));
#1862=VECTOR('',#1863,1.);
#1863=DIRECTION('',(0.,0.,1.));
#1864=CARTESIAN_POINT('',(48.5,0.999999999999999,2.));
#1865=CARTESIAN_POINT('',(1.,0.999999999999999,2.));
#1866=VECTOR('',#1867,1.);
#1867=DIRECTION('',(1.,0.,0.));
#1868=CARTESIAN_POINT('',(48.5,0.999999999999999,1.));
#1869=VECTOR('',#1870,1.);
#1870=DIRECTION('',(0.,0.,1.));
#1871=CARTESIAN_POINT('',(48.5,11.5,2.));
#1872=CARTESIAN_POINT('',(48.5,0.999999999999999,2.));
#1873=VECTOR('',#1874,1.);
#1874=DIRECTION('',(0.,1.,0.));
#1875=CARTESIAN_POINT('',(48.5,11.5,1.));
#1876=VECTOR('',#1877,1.);
#1877=DIRECTION('',(0.,0.,1.));
#1878=CARTESIAN_POINT('',(1.,11.5,2.));
#1879=CARTESIAN_POINT('',(48.5,11.5,2.));
#1880=VECTOR('',#1881,1.);
#1881=DIRECTION('',(-1.,0.,0.));
#1882=CARTESIAN_POINT('',(1.,11.5,1.));
#1883=VECTOR('',#1884,1.);
#1884=DIRECTION('',(0.,0.,1.));
#1885=CARTESIAN_POINT('',(1.,11.5,2.));
#1886=VECTOR('',#1887,1.);
#1887=DIRECTION('',(0.,-1.,0.));
#1888=CARTESIAN_POINT('',(0.,12.5,2.));
#1889=CARTESIAN_POINT('',(0.,0.,2.));
#1890=CARTESIAN_POINT('',(-4.08551437129934E-34,12.5,2.));
#1891=VECTOR('',#1892,1.);
#1892=DIRECTION('',(3.26841149703947E-35,-1.,0.));
#1893=CARTESIAN_POINT('',(49.5,0.,2.));
#1894=CARTESIAN_POINT('',(0.,0.,2.));
#1895=VECTOR('',#1896,1.);
#1896=DIRECTION('',(1.,0.,0.));
#1897=CARTESIAN_POINT('',(49.5,12.5,2.));
#1898=CARTESIAN_POINT('',(49.5,0.,2.));
#1899=VECTOR('',#1900,1.);
#1900=DIRECTION('',(0.,1.,0.));
#1901=CARTESIAN_POINT('',(49.5,12.5,2.));
#1902=VECTOR('',#1903,1.);
#1903=DIRECTION('',(-1.,-3.58859967555606E-17,0.));
#1904=CARTESIAN_POINT('',(-8.17102874259867E-34,12.5,0.));
#1905=CARTESIAN_POINT('',(0.,0.,0.));
#1906=CARTESIAN_POINT('',(-8.17102874259867E-34,12.5,0.));
#1907=VECTOR('',#1908,1.);
#1908=DIRECTION('',(6.53682299407893E-35,-1.,0.));
#1909=CARTESIAN_POINT('',(0.,0.,0.));
#1910=VECTOR('',#1911,1.);
#1911=DIRECTION('',(0.,0.,1.));
#1912=CARTESIAN_POINT('',(-4.08551437129933E-34,12.5,0.));
#1913=VECTOR('',#1914,1.);
#1914=DIRECTION('',(-4.27642353614751E-50,0.,1.));
#1915=CARTESIAN_POINT('',(49.5,-8.88178419700125E-16,0.));
#1916=CARTESIAN_POINT('',(0.,0.,0.));
#1917=VECTOR('',#1918,1.);
#1918=DIRECTION('',(1.,0.,0.));
#1919=CARTESIAN_POINT('',(49.5,-8.88178419700125E-16,0.));
#1920=VECTOR('',#1921,1.);
#1921=DIRECTION('',(0.,4.44089209850063E-16,1.));
#1922=CARTESIAN_POINT('',(49.5,12.5,0.));
#1923=CARTESIAN_POINT('',(49.5,-1.77635683940025E-15,0.));
#1924=VECTOR('',#1925,1.);
#1925=DIRECTION('',(0.,1.,0.));
#1926=CARTESIAN_POINT('',(49.5,12.5,0.));
#1927=VECTOR('',#1928,1.);
#1928=DIRECTION('',(0.,0.,1.));
#1929=CARTESIAN_POINT('',(49.5,12.5,0.));
#1930=VECTOR('',#1931,1.);
#1931=DIRECTION('',(-1.,-3.58859967555606E-17,0.));
ENDSEC;
END-ISO-10303-21;
