ISO-10303-21;
HEADER;
FILE_DESCRIPTION(('STEP AP242'),
    '1');
FILE_NAME('NumberTablet_110',
    '',
    ('UNSPECIFIED'),
    ('UNSPECIFIED'),
    'C3D Converter',
    'C3D Toolkit',
    '');
FILE_SCHEMA(('AP242_MANAGED_MODEL_BASED_3D_ENGINEERING_MIM_LF { 1 0 10303 442 1 1 4 }'));
ENDSEC;

DATA;
#1=PRODUCT_DEFINITION('','UNSPECIFIED',#28,#31);
#2=SHAPE_DEFINITION_REPRESENTATION(#26,#3);
#3=SHAPE_REPRESENTATION('NONE',(#4),#8);
#4=AXIS2_PLACEMENT_3D('',#5,#6,#7);
#5=CARTESIAN_POINT('',(0.,0.,0.));
#6=DIRECTION('',(0.,0.,1.));
#7=DIRECTION('',(1.,0.,0.));
#8=(GEOMETRIC_REPRESENTATION_CONTEXT(3)GLOBAL_UNCERTAINTY_ASSIGNED_CONTEXT((#10))
GLOBAL_UNIT_ASSIGNED_CONTEXT((#9,#11,#12))REPRESENTATION_CONTEXT('NONE','NONE'));
#9=(LENGTH_UNIT()NAMED_UNIT(*)SI_UNIT(.MILLI.,.METRE.));
#10=UNCERTAINTY_MEASURE_WITH_UNIT(LENGTH_MEASURE(1.E-5),#9,'NONE','NONE');
#11=(NAMED_UNIT(*)PLANE_ANGLE_UNIT()SI_UNIT($,.RADIAN.));
#12=(NAMED_UNIT(*)SI_UNIT($,.STERADIAN.)SOLID_ANGLE_UNIT());
#13=MANIFOLD_SOLID_BREP('',#14);
#14=CLOSED_SHELL('',(#53,#54,#55,#56,#57,#58,#59,#60,#61,#62,#63,#64,#65,#66,#67,
#68,#69,#70,#71,#72,#73,#74,#75,#76,#77,#78,#79,#80,#81,#82,#83,#84,#85,#86,#87,
#88,#89,#90,#91,#92,#93,#94,#95,#96,#97));
#15=COLOUR_RGB('',0.564705882352941,0.564705882352941,0.564705882352941);
#16=FILL_AREA_STYLE_COLOUR('',#15);
#17=FILL_AREA_STYLE($,(#16));
#18=SURFACE_STYLE_FILL_AREA(#17);
#19=SURFACE_SIDE_STYLE('',(#18));
#20=SURFACE_STYLE_USAGE(.BOTH.,#19);
#21=PRESENTATION_STYLE_ASSIGNMENT((#20));
#22=MECHANICAL_DESIGN_GEOMETRIC_PRESENTATION_REPRESENTATION('NONE',(#23),#8);
#23=STYLED_ITEM('',(#21),#13);
#24=ADVANCED_BREP_SHAPE_REPRESENTATION('NONE',(#13),#8);
#25=SHAPE_REPRESENTATION_RELATIONSHIP('','',#3,#24);
#26=PRODUCT_DEFINITION_SHAPE('NONE','NONE',#1);
#27=MECHANICAL_CONTEXT('NONE',#32,'mechanical');
#28=PRODUCT_DEFINITION_FORMATION_WITH_SPECIFIED_SOURCE('ANY','UNSPECIFIED',#29,.NOT_KNOWN.);
#29=PRODUCT('','\X2\0414043504420430043B044C\X0\','NONE',(#27));
#30=PRODUCT_RELATED_PRODUCT_CATEGORY('detail','',(#29));
#31=DESIGN_CONTEXT('detailed design',#32,'design');
#32=APPLICATION_CONTEXT('configuration controlled 3d designs of mechanical parts and assemblies');
#33=APPLICATION_PROTOCOL_DEFINITION('international standard','config_control_design',
1994,#32);
#34=CC_DESIGN_DATE_AND_TIME_ASSIGNMENT(#35,#39,(#1));
#35=DATE_AND_TIME(#36,#37);
#36=CALENDAR_DATE(0,1,1);
#37=LOCAL_TIME(0,0,0.,#38);
#38=COORDINATED_UNIVERSAL_TIME_OFFSET(0,0,.AHEAD.);
#39=DATE_TIME_ROLE('creation_date');
#40=CC_DESIGN_APPROVAL(#41,(#1));
#41=APPROVAL(#42,'UNSPECIFIED');
#42=APPROVAL_STATUS('not_yet_approved');
#43=APPROVAL_DATE_TIME(#44,#41);
#44=DATE_AND_TIME(#45,#46);
#45=CALENDAR_DATE(0,1,1);
#46=LOCAL_TIME(0,0,0.,#47);
#47=COORDINATED_UNIVERSAL_TIME_OFFSET(0,0,.AHEAD.);
#48=PERSON('UNSPECIFIED','Cybermeatball','UNSPECIFIED',('UNSPECIFIED'),('UNSPECIFIED'),
('UNSPECIFIED'));
#49=ORGANIZATION('UNSPECIFIED','UNSPECIFIED','UNSPECIFIED');
#50=PERSON_AND_ORGANIZATION(#48,#49);
#51=PERSON_AND_ORGANIZATION_ROLE('creator');
#52=CC_DESIGN_PERSON_AND_ORGANIZATION_ASSIGNMENT(#50,#51,(#28,#1));
#53=ADVANCED_FACE('',(#98),#100,.T.);
#54=ADVANCED_FACE('',(#105,#107,#109,#111),#113,.T.);
#55=ADVANCED_FACE('',(#118),#120,.T.);
#56=ADVANCED_FACE('',(#124),#126,.T.);
#57=ADVANCED_FACE('',(#130),#132,.T.);
#58=ADVANCED_FACE('',(#136),#138,.T.);
#59=ADVANCED_FACE('',(#142),#144,.T.);
#60=ADVANCED_FACE('',(#148),#150,.T.);
#61=ADVANCED_FACE('',(#154),#156,.T.);
#62=ADVANCED_FACE('',(#160),#162,.T.);
#63=ADVANCED_FACE('',(#166),#168,.T.);
#64=ADVANCED_FACE('',(#172),#174,.T.);
#65=ADVANCED_FACE('',(#178),#180,.F.);
#66=ADVANCED_FACE('',(#184),#186,.F.);
#67=ADVANCED_FACE('',(#190),#192,.F.);
#68=ADVANCED_FACE('',(#196),#198,.F.);
#69=ADVANCED_FACE('',(#202),#204,.F.);
#70=ADVANCED_FACE('',(#208),#210,.F.);
#71=ADVANCED_FACE('',(#214),#216,.F.);
#72=ADVANCED_FACE('',(#220),#222,.F.);
#73=ADVANCED_FACE('',(#226),#228,.T.);
#74=ADVANCED_FACE('',(#233),#235,.T.);
#75=ADVANCED_FACE('',(#240),#242,.T.);
#76=ADVANCED_FACE('',(#247),#249,.T.);
#77=ADVANCED_FACE('',(#254),#256,.T.);
#78=ADVANCED_FACE('',(#261),#263,.T.);
#79=ADVANCED_FACE('',(#268),#270,.T.);
#80=ADVANCED_FACE('',(#275),#277,.T.);
#81=ADVANCED_FACE('',(#282),#284,.T.);
#82=ADVANCED_FACE('',(#289),#291,.T.);
#83=ADVANCED_FACE('',(#296),#298,.T.);
#84=ADVANCED_FACE('',(#303),#305,.T.);
#85=ADVANCED_FACE('',(#310),#312,.F.);
#86=ADVANCED_FACE('',(#317),#319,.F.);
#87=ADVANCED_FACE('',(#324),#326,.F.);
#88=ADVANCED_FACE('',(#331),#333,.F.);
#89=ADVANCED_FACE('',(#338,#340),#342,.T.);
#90=ADVANCED_FACE('',(#347),#349,.T.);
#91=ADVANCED_FACE('',(#354),#356,.T.);
#92=ADVANCED_FACE('',(#361,#363),#365,.T.);
#93=ADVANCED_FACE('',(#370),#372,.T.);
#94=ADVANCED_FACE('',(#377),#379,.T.);
#95=ADVANCED_FACE('',(#384),#386,.T.);
#96=ADVANCED_FACE('',(#391),#393,.T.);
#97=ADVANCED_FACE('',(#398),#400,.F.);
#98=FACE_BOUND('',#99,.T.);
#99=EDGE_LOOP('',(#405,#406,#407,#408,#409,#410,#411,#412));
#100=PLANE('',#101);
#101=AXIS2_PLACEMENT_3D('',#102,#103,#104);
#102=CARTESIAN_POINT('',(0.,0.,1.));
#103=DIRECTION('',(0.,0.,1.));
#104=DIRECTION('',(1.,0.,0.));
#105=FACE_BOUND('',#106,.T.);
#106=EDGE_LOOP('',(#413,#414,#415,#416));
#107=FACE_BOUND('',#108,.T.);
#108=EDGE_LOOP('',(#417,#418,#419,#420,#421,#422));
#109=FACE_BOUND('',#110,.T.);
#110=EDGE_LOOP('',(#423,#424,#425,#426,#427,#428));
#111=FACE_BOUND('',#112,.T.);
#112=EDGE_LOOP('',(#429,#430,#431,#432,#433,#434,#435,#436,#437,#438));
#113=PLANE('',#114);
#114=AXIS2_PLACEMENT_3D('',#115,#116,#117);
#115=CARTESIAN_POINT('',(0.,0.,1.));
#116=DIRECTION('',(0.,0.,1.));
#117=DIRECTION('',(1.,0.,0.));
#118=FACE_BOUND('',#119,.T.);
#119=EDGE_LOOP('',(#439,#440,#441,#442));
#120=SURFACE_OF_LINEAR_EXTRUSION('',#121,#122);
#121=B_SPLINE_CURVE_WITH_KNOTS('',2,
(#443,#444,#445),
.UNSPECIFIED.,.F.,.F.,
(3,3),
(0.,1.),
.UNSPECIFIED.);
#122=VECTOR('',#123,1.);
#123=DIRECTION('',(0.,0.,1.));
#124=FACE_BOUND('',#125,.T.);
#125=EDGE_LOOP('',(#446,#447,#448,#449));
#126=SURFACE_OF_LINEAR_EXTRUSION('',#127,#128);
#127=B_SPLINE_CURVE_WITH_KNOTS('',2,
(#450,#451,#452),
.UNSPECIFIED.,.F.,.F.,
(3,3),
(0.,1.),
.UNSPECIFIED.);
#128=VECTOR('',#129,1.);
#129=DIRECTION('',(0.,0.,1.));
#130=FACE_BOUND('',#131,.T.);
#131=EDGE_LOOP('',(#453,#454,#455,#456));
#132=SURFACE_OF_LINEAR_EXTRUSION('',#133,#134);
#133=B_SPLINE_CURVE_WITH_KNOTS('',2,
(#457,#458,#459),
.UNSPECIFIED.,.F.,.F.,
(3,3),
(0.,1.),
.UNSPECIFIED.);
#134=VECTOR('',#135,1.);
#135=DIRECTION('',(0.,0.,1.));
#136=FACE_BOUND('',#137,.T.);
#137=EDGE_LOOP('',(#460,#461,#462,#463));
#138=SURFACE_OF_LINEAR_EXTRUSION('',#139,#140);
#139=B_SPLINE_CURVE_WITH_KNOTS('',2,
(#464,#465,#466),
.UNSPECIFIED.,.F.,.F.,
(3,3),
(0.,1.),
.UNSPECIFIED.);
#140=VECTOR('',#141,1.);
#141=DIRECTION('',(0.,0.,1.));
#142=FACE_BOUND('',#143,.T.);
#143=EDGE_LOOP('',(#467,#468,#469,#470));
#144=SURFACE_OF_LINEAR_EXTRUSION('',#145,#146);
#145=B_SPLINE_CURVE_WITH_KNOTS('',2,
(#471,#472,#473),
.UNSPECIFIED.,.F.,.F.,
(3,3),
(0.,1.),
.UNSPECIFIED.);
#146=VECTOR('',#147,1.);
#147=DIRECTION('',(0.,0.,1.));
#148=FACE_BOUND('',#149,.T.);
#149=EDGE_LOOP('',(#474,#475,#476,#477));
#150=SURFACE_OF_LINEAR_EXTRUSION('',#151,#152);
#151=B_SPLINE_CURVE_WITH_KNOTS('',2,
(#478,#479,#480),
.UNSPECIFIED.,.F.,.F.,
(3,3),
(0.,1.),
.UNSPECIFIED.);
#152=VECTOR('',#153,1.);
#153=DIRECTION('',(0.,0.,1.));
#154=FACE_BOUND('',#155,.T.);
#155=EDGE_LOOP('',(#481,#482,#483,#484));
#156=SURFACE_OF_LINEAR_EXTRUSION('',#157,#158);
#157=B_SPLINE_CURVE_WITH_KNOTS('',2,
(#485,#486,#487),
.UNSPECIFIED.,.F.,.F.,
(3,3),
(0.,1.),
.UNSPECIFIED.);
#158=VECTOR('',#159,1.);
#159=DIRECTION('',(0.,0.,1.));
#160=FACE_BOUND('',#161,.T.);
#161=EDGE_LOOP('',(#488,#489,#490,#491));
#162=SURFACE_OF_LINEAR_EXTRUSION('',#163,#164);
#163=B_SPLINE_CURVE_WITH_KNOTS('',2,
(#492,#493,#494),
.UNSPECIFIED.,.F.,.F.,
(3,3),
(0.,1.),
.UNSPECIFIED.);
#164=VECTOR('',#165,1.);
#165=DIRECTION('',(0.,0.,1.));
#166=FACE_BOUND('',#167,.T.);
#167=EDGE_LOOP('',(#495,#496,#497,#498));
#168=SURFACE_OF_LINEAR_EXTRUSION('',#169,#170);
#169=B_SPLINE_CURVE_WITH_KNOTS('',2,
(#499,#500,#501),
.UNSPECIFIED.,.F.,.F.,
(3,3),
(0.,1.),
.UNSPECIFIED.);
#170=VECTOR('',#171,1.);
#171=DIRECTION('',(0.,0.,1.));
#172=FACE_BOUND('',#173,.T.);
#173=EDGE_LOOP('',(#502,#503,#504,#505));
#174=SURFACE_OF_LINEAR_EXTRUSION('',#175,#176);
#175=B_SPLINE_CURVE_WITH_KNOTS('',2,
(#506,#507,#508),
.UNSPECIFIED.,.F.,.F.,
(3,3),
(0.,1.),
.UNSPECIFIED.);
#176=VECTOR('',#177,1.);
#177=DIRECTION('',(0.,0.,1.));
#178=FACE_BOUND('',#179,.T.);
#179=EDGE_LOOP('',(#509,#510,#511,#512));
#180=SURFACE_OF_LINEAR_EXTRUSION('',#181,#182);
#181=B_SPLINE_CURVE_WITH_KNOTS('',2,
(#513,#514,#515),
.UNSPECIFIED.,.F.,.F.,
(3,3),
(0.,1.),
.UNSPECIFIED.);
#182=VECTOR('',#183,1.);
#183=DIRECTION('',(0.,0.,1.));
#184=FACE_BOUND('',#185,.T.);
#185=EDGE_LOOP('',(#516,#517,#518,#519));
#186=SURFACE_OF_LINEAR_EXTRUSION('',#187,#188);
#187=B_SPLINE_CURVE_WITH_KNOTS('',2,
(#520,#521,#522),
.UNSPECIFIED.,.F.,.F.,
(3,3),
(0.,1.),
.UNSPECIFIED.);
#188=VECTOR('',#189,1.);
#189=DIRECTION('',(0.,0.,1.));
#190=FACE_BOUND('',#191,.T.);
#191=EDGE_LOOP('',(#523,#524,#525,#526));
#192=SURFACE_OF_LINEAR_EXTRUSION('',#193,#194);
#193=B_SPLINE_CURVE_WITH_KNOTS('',2,
(#527,#528,#529),
.UNSPECIFIED.,.F.,.F.,
(3,3),
(0.,1.),
.UNSPECIFIED.);
#194=VECTOR('',#195,1.);
#195=DIRECTION('',(0.,0.,1.));
#196=FACE_BOUND('',#197,.T.);
#197=EDGE_LOOP('',(#530,#531,#532,#533));
#198=SURFACE_OF_LINEAR_EXTRUSION('',#199,#200);
#199=B_SPLINE_CURVE_WITH_KNOTS('',2,
(#534,#535,#536),
.UNSPECIFIED.,.F.,.F.,
(3,3),
(0.,1.),
.UNSPECIFIED.);
#200=VECTOR('',#201,1.);
#201=DIRECTION('',(0.,0.,1.));
#202=FACE_BOUND('',#203,.T.);
#203=EDGE_LOOP('',(#537,#538,#539,#540));
#204=SURFACE_OF_LINEAR_EXTRUSION('',#205,#206);
#205=B_SPLINE_CURVE_WITH_KNOTS('',2,
(#541,#542,#543),
.UNSPECIFIED.,.F.,.F.,
(3,3),
(0.,1.),
.UNSPECIFIED.);
#206=VECTOR('',#207,1.);
#207=DIRECTION('',(0.,0.,1.));
#208=FACE_BOUND('',#209,.T.);
#209=EDGE_LOOP('',(#544,#545,#546,#547));
#210=SURFACE_OF_LINEAR_EXTRUSION('',#211,#212);
#211=B_SPLINE_CURVE_WITH_KNOTS('',2,
(#548,#549,#550),
.UNSPECIFIED.,.F.,.F.,
(3,3),
(0.,1.),
.UNSPECIFIED.);
#212=VECTOR('',#213,1.);
#213=DIRECTION('',(0.,0.,1.));
#214=FACE_BOUND('',#215,.T.);
#215=EDGE_LOOP('',(#551,#552,#553,#554));
#216=SURFACE_OF_LINEAR_EXTRUSION('',#217,#218);
#217=B_SPLINE_CURVE_WITH_KNOTS('',2,
(#555,#556,#557),
.UNSPECIFIED.,.F.,.F.,
(3,3),
(0.,1.),
.UNSPECIFIED.);
#218=VECTOR('',#219,1.);
#219=DIRECTION('',(0.,0.,1.));
#220=FACE_BOUND('',#221,.T.);
#221=EDGE_LOOP('',(#558,#559,#560,#561));
#222=SURFACE_OF_LINEAR_EXTRUSION('',#223,#224);
#223=B_SPLINE_CURVE_WITH_KNOTS('',2,
(#562,#563,#564),
.UNSPECIFIED.,.F.,.F.,
(3,3),
(0.,1.),
.UNSPECIFIED.);
#224=VECTOR('',#225,1.);
#225=DIRECTION('',(0.,0.,1.));
#226=FACE_BOUND('',#227,.T.);
#227=EDGE_LOOP('',(#565,#566,#567,#568));
#228=PLANE('',#229);
#229=AXIS2_PLACEMENT_3D('',#230,#231,#232);
#230=CARTESIAN_POINT('',(23.422263512873,9.71829920751945,1.));
#231=DIRECTION('',(-0.946820961730438,0.321760883930673,0.));
#232=DIRECTION('',(-0.321760883930673,-0.946820961730438,0.));
#233=FACE_BOUND('',#234,.T.);
#234=EDGE_LOOP('',(#569,#570,#571,#572));
#235=PLANE('',#236);
#236=AXIS2_PLACEMENT_3D('',#237,#238,#239);
#237=CARTESIAN_POINT('',(27.2650718623555,10.3130825408528,1.));
#238=DIRECTION('',(-0.152956997207341,0.988232845540621,0.));
#239=DIRECTION('',(-0.988232845540621,-0.152956997207341,0.));
#240=FACE_BOUND('',#241,.T.);
#241=EDGE_LOOP('',(#573,#574,#575,#576));
#242=PLANE('',#243);
#243=AXIS2_PLACEMENT_3D('',#244,#245,#246);
#244=CARTESIAN_POINT('',(24.5502814790997,2.32478254085278,1.));
#245=DIRECTION('',(0.946817225303488,-0.32177187861683,0.));
#246=DIRECTION('',(0.32177187861683,0.946817225303488,0.));
#247=FACE_BOUND('',#248,.T.);
#248=EDGE_LOOP('',(#577,#578,#579,#580));
#249=PLANE('',#250);
#250=AXIS2_PLACEMENT_3D('',#251,#252,#253);
#251=CARTESIAN_POINT('',(22.4526648124331,2.32478254085278,1.));
#252=DIRECTION('',(0.,-1.,0.));
#253=DIRECTION('',(1.,0.,0.));
#254=FACE_BOUND('',#255,.T.);
#255=EDGE_LOOP('',(#581,#582,#583,#584));
#256=PLANE('',#257);
#257=AXIS2_PLACEMENT_3D('',#258,#259,#260);
#258=CARTESIAN_POINT('',(24.7891341105181,9.19991431471407,1.));
#259=DIRECTION('',(-0.946817876209609,0.321769963312185,0.));
#260=DIRECTION('',(-0.321769963312185,-0.946817876209609,0.));
#261=FACE_BOUND('',#262,.T.);
#262=EDGE_LOOP('',(#585,#586,#587,#588));
#263=PLANE('',#264);
#264=AXIS2_PLACEMENT_3D('',#265,#266,#267);
#265=CARTESIAN_POINT('',(23.1640301795397,8.95841587418611,1.));
#266=DIRECTION('',(0.14699075399873,-0.989137866143484,0.));
#267=DIRECTION('',(0.989137866143484,0.14699075399873,0.));
#268=FACE_BOUND('',#269,.T.);
#269=EDGE_LOOP('',(#589,#590,#591,#592));
#270=PLANE('',#271);
#271=AXIS2_PLACEMENT_3D('',#272,#273,#274);
#272=CARTESIAN_POINT('',(15.7556973548327,8.95841587418611,1.));
#273=DIRECTION('',(0.14699075399873,-0.989137866143484,0.));
#274=DIRECTION('',(0.989137866143484,0.14699075399873,0.));
#275=FACE_BOUND('',#276,.T.);
#276=EDGE_LOOP('',(#593,#594,#595,#596));
#277=PLANE('',#278);
#278=AXIS2_PLACEMENT_3D('',#279,#280,#281);
#279=CARTESIAN_POINT('',(16.013930688166,9.71829920751945,1.));
#280=DIRECTION('',(-0.946820961730438,0.321760883930675,0.));
#281=DIRECTION('',(-0.321760883930675,-0.946820961730438,0.));
#282=FACE_BOUND('',#283,.T.);
#283=EDGE_LOOP('',(#597,#598,#599,#600));
#284=PLANE('',#285);
#285=AXIS2_PLACEMENT_3D('',#286,#287,#288);
#286=CARTESIAN_POINT('',(19.8567390376485,10.3130825408528,1.));
#287=DIRECTION('',(-0.152956997207341,0.988232845540621,0.));
#288=DIRECTION('',(-0.988232845540621,-0.152956997207341,0.));
#289=FACE_BOUND('',#290,.T.);
#290=EDGE_LOOP('',(#601,#602,#603,#604));
#291=PLANE('',#292);
#292=AXIS2_PLACEMENT_3D('',#293,#294,#295);
#293=CARTESIAN_POINT('',(17.1419486543927,2.32478254085278,1.));
#294=DIRECTION('',(0.946817225303488,-0.32177187861683,0.));
#295=DIRECTION('',(0.32177187861683,0.946817225303488,0.));
#296=FACE_BOUND('',#297,.T.);
#297=EDGE_LOOP('',(#605,#606,#607,#608));
#298=PLANE('',#299);
#299=AXIS2_PLACEMENT_3D('',#300,#301,#302);
#300=CARTESIAN_POINT('',(15.044331987726,2.32478254085278,1.));
#301=DIRECTION('',(0.,-1.,0.));
#302=DIRECTION('',(1.,0.,0.));
#303=FACE_BOUND('',#304,.T.);
#304=EDGE_LOOP('',(#609,#610,#611,#612));
#305=PLANE('',#306);
#306=AXIS2_PLACEMENT_3D('',#307,#308,#309);
#307=CARTESIAN_POINT('',(17.380801285811,9.19991431471407,1.));
#308=DIRECTION('',(-0.946817876209609,0.321769963312185,0.));
#309=DIRECTION('',(-0.321769963312185,-0.946817876209609,0.));
#310=FACE_BOUND('',#311,.T.);
#311=EDGE_LOOP('',(#613,#614,#615,#616));
#312=PLANE('',#313);
#313=AXIS2_PLACEMENT_3D('',#314,#315,#316);
#314=CARTESIAN_POINT('',(1.,0.999999999999999,1.));
#315=DIRECTION('',(0.,-1.,0.));
#316=DIRECTION('',(1.,0.,0.));
#317=FACE_BOUND('',#318,.T.);
#318=EDGE_LOOP('',(#617,#618,#619,#620));
#319=PLANE('',#320);
#320=AXIS2_PLACEMENT_3D('',#321,#322,#323);
#321=CARTESIAN_POINT('',(48.5,0.999999999999999,1.));
#322=DIRECTION('',(1.,0.,0.));
#323=DIRECTION('',(0.,1.,0.));
#324=FACE_BOUND('',#325,.T.);
#325=EDGE_LOOP('',(#621,#622,#623,#624));
#326=PLANE('',#327);
#327=AXIS2_PLACEMENT_3D('',#328,#329,#330);
#328=CARTESIAN_POINT('',(48.5,11.5,1.));
#329=DIRECTION('',(0.,1.,0.));
#330=DIRECTION('',(-1.,0.,0.));
#331=FACE_BOUND('',#332,.T.);
#332=EDGE_LOOP('',(#625,#626,#627,#628));
#333=PLANE('',#334);
#334=AXIS2_PLACEMENT_3D('',#335,#336,#337);
#335=CARTESIAN_POINT('',(1.,11.5,1.));
#336=DIRECTION('',(-1.,0.,0.));
#337=DIRECTION('',(0.,-1.,0.));
#338=FACE_BOUND('',#339,.T.);
#339=EDGE_LOOP('',(#629,#630,#631,#632,#633,#634,#635,#636,#637,#638));
#340=FACE_BOUND('',#341,.T.);
#341=EDGE_LOOP('',(#639,#640,#641,#642,#643,#644,#645,#646));
#342=PLANE('',#343);
#343=AXIS2_PLACEMENT_3D('',#344,#345,#346);
#344=CARTESIAN_POINT('',(0.,0.,2.));
#345=DIRECTION('',(0.,0.,1.));
#346=DIRECTION('',(1.,0.,0.));
#347=FACE_BOUND('',#348,.T.);
#348=EDGE_LOOP('',(#647,#648,#649,#650,#651,#652));
#349=PLANE('',#350);
#350=AXIS2_PLACEMENT_3D('',#351,#352,#353);
#351=CARTESIAN_POINT('',(0.,0.,2.));
#352=DIRECTION('',(0.,0.,1.));
#353=DIRECTION('',(1.,0.,0.));
#354=FACE_BOUND('',#355,.T.);
#355=EDGE_LOOP('',(#653,#654,#655,#656,#657,#658));
#356=PLANE('',#357);
#357=AXIS2_PLACEMENT_3D('',#358,#359,#360);
#358=CARTESIAN_POINT('',(0.,0.,2.));
#359=DIRECTION('',(0.,0.,1.));
#360=DIRECTION('',(1.,0.,0.));
#361=FACE_BOUND('',#362,.T.);
#362=EDGE_LOOP('',(#659,#660,#661,#662));
#363=FACE_BOUND('',#364,.T.);
#364=EDGE_LOOP('',(#663,#664,#665,#666));
#365=PLANE('',#366);
#366=AXIS2_PLACEMENT_3D('',#367,#368,#369);
#367=CARTESIAN_POINT('',(0.,0.,2.));
#368=DIRECTION('',(0.,0.,1.));
#369=DIRECTION('',(1.,0.,0.));
#370=FACE_BOUND('',#371,.T.);
#371=EDGE_LOOP('',(#667,#668,#669,#670));
#372=PLANE('',#373);
#373=AXIS2_PLACEMENT_3D('',#374,#375,#376);
#374=CARTESIAN_POINT('',(-8.17102874259867E-34,12.5,0.));
#375=DIRECTION('',(-1.,-6.53682299407893E-35,0.));
#376=DIRECTION('',(6.53682299407893E-35,-1.,0.));
#377=FACE_BOUND('',#378,.T.);
#378=EDGE_LOOP('',(#671,#672,#673,#674));
#379=PLANE('',#380);
#380=AXIS2_PLACEMENT_3D('',#381,#382,#383);
#381=CARTESIAN_POINT('',(0.,0.,0.));
#382=DIRECTION('',(0.,-1.,0.));
#383=DIRECTION('',(1.,0.,0.));
#384=FACE_BOUND('',#385,.T.);
#385=EDGE_LOOP('',(#675,#676,#677,#678));
#386=PLANE('',#387);
#387=AXIS2_PLACEMENT_3D('',#388,#389,#390);
#388=CARTESIAN_POINT('',(49.5,-1.77635683940025E-15,0.));
#389=DIRECTION('',(1.,0.,0.));
#390=DIRECTION('',(0.,1.,0.));
#391=FACE_BOUND('',#392,.T.);
#392=EDGE_LOOP('',(#679,#680,#681,#682));
#393=PLANE('',#394);
#394=AXIS2_PLACEMENT_3D('',#395,#396,#397);
#395=CARTESIAN_POINT('',(49.5,12.5,0.));
#396=DIRECTION('',(-3.58859967555606E-17,1.,0.));
#397=DIRECTION('',(-1.,-3.58859967555606E-17,0.));
#398=FACE_BOUND('',#399,.T.);
#399=EDGE_LOOP('',(#683,#684,#685,#686));
#400=PLANE('',#401);
#401=AXIS2_PLACEMENT_3D('',#402,#403,#404);
#402=CARTESIAN_POINT('',(0.,0.,0.));
#403=DIRECTION('',(0.,0.,1.));
#404=DIRECTION('',(1.,0.,0.));
#405=ORIENTED_EDGE('',*,*,#687,.F.);
#406=ORIENTED_EDGE('',*,*,#688,.F.);
#407=ORIENTED_EDGE('',*,*,#689,.F.);
#408=ORIENTED_EDGE('',*,*,#690,.F.);
#409=ORIENTED_EDGE('',*,*,#691,.F.);
#410=ORIENTED_EDGE('',*,*,#692,.F.);
#411=ORIENTED_EDGE('',*,*,#693,.F.);
#412=ORIENTED_EDGE('',*,*,#694,.F.);
#413=ORIENTED_EDGE('',*,*,#695,.F.);
#414=ORIENTED_EDGE('',*,*,#696,.F.);
#415=ORIENTED_EDGE('',*,*,#697,.F.);
#416=ORIENTED_EDGE('',*,*,#698,.F.);
#417=ORIENTED_EDGE('',*,*,#699,.F.);
#418=ORIENTED_EDGE('',*,*,#700,.F.);
#419=ORIENTED_EDGE('',*,*,#701,.F.);
#420=ORIENTED_EDGE('',*,*,#702,.F.);
#421=ORIENTED_EDGE('',*,*,#703,.F.);
#422=ORIENTED_EDGE('',*,*,#704,.F.);
#423=ORIENTED_EDGE('',*,*,#705,.F.);
#424=ORIENTED_EDGE('',*,*,#706,.F.);
#425=ORIENTED_EDGE('',*,*,#707,.F.);
#426=ORIENTED_EDGE('',*,*,#708,.F.);
#427=ORIENTED_EDGE('',*,*,#709,.F.);
#428=ORIENTED_EDGE('',*,*,#710,.F.);
#429=ORIENTED_EDGE('',*,*,#711,.F.);
#430=ORIENTED_EDGE('',*,*,#712,.F.);
#431=ORIENTED_EDGE('',*,*,#713,.F.);
#432=ORIENTED_EDGE('',*,*,#714,.F.);
#433=ORIENTED_EDGE('',*,*,#715,.F.);
#434=ORIENTED_EDGE('',*,*,#716,.F.);
#435=ORIENTED_EDGE('',*,*,#717,.F.);
#436=ORIENTED_EDGE('',*,*,#718,.F.);
#437=ORIENTED_EDGE('',*,*,#719,.F.);
#438=ORIENTED_EDGE('',*,*,#720,.F.);
#439=ORIENTED_EDGE('',*,*,#720,.T.);
#440=ORIENTED_EDGE('',*,*,#721,.T.);
#441=ORIENTED_EDGE('',*,*,#722,.F.);
#442=ORIENTED_EDGE('',*,*,#723,.F.);
#443=CARTESIAN_POINT('',(33.6345182347851,3.49688673174314,1.));
#444=CARTESIAN_POINT('',(34.3179039073265,4.10370859664994,1.));
#445=CARTESIAN_POINT('',(34.8286655057091,4.88728868108319,1.));
#446=ORIENTED_EDGE('',*,*,#719,.T.);
#447=ORIENTED_EDGE('',*,*,#724,.T.);
#448=ORIENTED_EDGE('',*,*,#725,.F.);
#449=ORIENTED_EDGE('',*,*,#721,.F.);
#450=CARTESIAN_POINT('',(34.8286655057091,4.88728868108319,1.));
#451=CARTESIAN_POINT('',(35.3394270717933,5.67086876551645,1.));
#452=CARTESIAN_POINT('',(35.6537851613638,6.59585209884978,1.));
#453=ORIENTED_EDGE('',*,*,#718,.T.);
#454=ORIENTED_EDGE('',*,*,#726,.T.);
#455=ORIENTED_EDGE('',*,*,#727,.F.);
#456=ORIENTED_EDGE('',*,*,#724,.F.);
#457=CARTESIAN_POINT('',(35.6537851613638,6.59585209884978,1.));
#458=CARTESIAN_POINT('',(36.2584572861826,8.37510885656194,1.));
#459=CARTESIAN_POINT('',(35.8025801907374,9.37372903204069,1.));
#460=ORIENTED_EDGE('',*,*,#717,.T.);
#461=ORIENTED_EDGE('',*,*,#728,.T.);
#462=ORIENTED_EDGE('',*,*,#729,.F.);
#463=ORIENTED_EDGE('',*,*,#726,.F.);
#464=CARTESIAN_POINT('',(35.8025801907374,9.37372903204069,1.));
#465=CARTESIAN_POINT('',(35.3467031275905,10.3723492075194,1.));
#466=CARTESIAN_POINT('',(33.9446760321453,10.3723492075194,1.));
#467=ORIENTED_EDGE('',*,*,#716,.T.);
#468=ORIENTED_EDGE('',*,*,#730,.T.);
#469=ORIENTED_EDGE('',*,*,#731,.F.);
#470=ORIENTED_EDGE('',*,*,#728,.F.);
#471=CARTESIAN_POINT('',(33.9446760321453,10.3723492075194,1.));
#472=CARTESIAN_POINT('',(32.3188114447747,10.3723492075194,1.));
#473=CARTESIAN_POINT('',(30.8524244726733,9.0909390709512,1.));
#474=ORIENTED_EDGE('',*,*,#715,.T.);
#475=ORIENTED_EDGE('',*,*,#732,.T.);
#476=ORIENTED_EDGE('',*,*,#733,.F.);
#477=ORIENTED_EDGE('',*,*,#730,.F.);
#478=CARTESIAN_POINT('',(30.8524244726733,9.0909390709512,1.));
#479=CARTESIAN_POINT('',(29.3860375005718,7.80952890208469,1.));
#480=CARTESIAN_POINT('',(28.6872729132012,5.75335261867379,1.));
#481=ORIENTED_EDGE('',*,*,#714,.T.);
#482=ORIENTED_EDGE('',*,*,#734,.T.);
#483=ORIENTED_EDGE('',*,*,#735,.F.);
#484=ORIENTED_EDGE('',*,*,#732,.F.);
#485=CARTESIAN_POINT('',(28.6872729132012,5.75335261867379,1.));
#486=CARTESIAN_POINT('',(28.1126309704734,4.0624666862204,1.));
#487=CARTESIAN_POINT('',(28.5883683647411,3.09625794686992,1.));
#488=ORIENTED_EDGE('',*,*,#713,.T.);
#489=ORIENTED_EDGE('',*,*,#736,.T.);
#490=ORIENTED_EDGE('',*,*,#737,.F.);
#491=ORIENTED_EDGE('',*,*,#734,.F.);
#492=CARTESIAN_POINT('',(28.5883683647411,3.09625794686992,1.));
#493=CARTESIAN_POINT('',(29.0641057267106,2.13004920751945,1.));
#494=CARTESIAN_POINT('',(30.4543257722333,2.13004920751945,1.));
#495=ORIENTED_EDGE('',*,*,#712,.T.);
#496=ORIENTED_EDGE('',*,*,#738,.T.);
#497=ORIENTED_EDGE('',*,*,#739,.F.);
#498=ORIENTED_EDGE('',*,*,#736,.F.);
#499=CARTESIAN_POINT('',(30.4543257722333,2.13004920751945,1.));
#500=CARTESIAN_POINT('',(31.2495971173161,2.13004920751945,1.));
#501=CARTESIAN_POINT('',(32.0638358111438,2.48060560766186,1.));
#502=ORIENTED_EDGE('',*,*,#711,.T.);
#503=ORIENTED_EDGE('',*,*,#723,.T.);
#504=ORIENTED_EDGE('',*,*,#740,.F.);
#505=ORIENTED_EDGE('',*,*,#738,.F.);
#506=CARTESIAN_POINT('',(32.0638358111438,2.48060560766186,1.));
#507=CARTESIAN_POINT('',(32.8780744726733,2.83116197550602,1.));
#508=CARTESIAN_POINT('',(33.6345182347851,3.49688673174314,1.));
#509=ORIENTED_EDGE('',*,*,#688,.T.);
#510=ORIENTED_EDGE('',*,*,#741,.T.);
#511=ORIENTED_EDGE('',*,*,#742,.F.);
#512=ORIENTED_EDGE('',*,*,#743,.F.);
#513=CARTESIAN_POINT('',(33.9002260321453,8.66428189107276,1.));
#514=CARTESIAN_POINT('',(33.8858393199559,9.45371587418611,1.));
#515=CARTESIAN_POINT('',(33.2851359410998,9.45371587418611,1.));
#516=ORIENTED_EDGE('',*,*,#689,.T.);
#517=ORIENTED_EDGE('',*,*,#743,.T.);
#518=ORIENTED_EDGE('',*,*,#744,.F.);
#519=ORIENTED_EDGE('',*,*,#745,.F.);
#520=CARTESIAN_POINT('',(33.2851359410998,9.45371587418611,1.));
#521=CARTESIAN_POINT('',(32.702093478548,9.45371587418611,1.));
#522=CARTESIAN_POINT('',(32.1492631342027,8.67607240428453,1.));
#523=ORIENTED_EDGE('',*,*,#690,.T.);
#524=ORIENTED_EDGE('',*,*,#745,.T.);
#525=ORIENTED_EDGE('',*,*,#746,.F.);
#526=ORIENTED_EDGE('',*,*,#747,.F.);
#527=CARTESIAN_POINT('',(32.1492631342027,8.67607240428453,1.));
#528=CARTESIAN_POINT('',(31.5964328221557,7.89842890208469,1.));
#529=CARTESIAN_POINT('',(31.0638596253906,6.3313349123591,1.));
#530=ORIENTED_EDGE('',*,*,#691,.T.);
#531=ORIENTED_EDGE('',*,*,#747,.T.);
#532=ORIENTED_EDGE('',*,*,#748,.F.);
#533=ORIENTED_EDGE('',*,*,#749,.F.);
#534=CARTESIAN_POINT('',(31.0638596253906,6.3313349123591,1.));
#535=CARTESIAN_POINT('',(30.4812471173161,4.61696720604441,1.));
#536=CARTESIAN_POINT('',(30.4926903596039,3.82753322293106,1.));
#537=ORIENTED_EDGE('',*,*,#692,.T.);
#538=ORIENTED_EDGE('',*,*,#749,.T.);
#539=ORIENTED_EDGE('',*,*,#750,.F.);
#540=ORIENTED_EDGE('',*,*,#751,.F.);
#541=CARTESIAN_POINT('',(30.4926903596039,3.82753322293106,1.));
#542=CARTESIAN_POINT('',(30.5041336018918,3.03809920751945,1.));
#543=CARTESIAN_POINT('',(31.1048369807478,3.03809920751945,1.));
#544=ORIENTED_EDGE('',*,*,#693,.T.);
#545=ORIENTED_EDGE('',*,*,#751,.T.);
#546=ORIENTED_EDGE('',*,*,#752,.F.);
#547=ORIENTED_EDGE('',*,*,#753,.F.);
#548=CARTESIAN_POINT('',(31.1048369807478,3.03809920751945,1.));
#549=CARTESIAN_POINT('',(31.6878463375801,3.03809920751945,1.));
#550=CARTESIAN_POINT('',(32.2476550769305,3.82753322293106,1.));
#551=ORIENTED_EDGE('',*,*,#694,.T.);
#552=ORIENTED_EDGE('',*,*,#753,.T.);
#553=ORIENTED_EDGE('',*,*,#754,.F.);
#554=ORIENTED_EDGE('',*,*,#755,.F.);
#555=CARTESIAN_POINT('',(32.2476550769305,3.82753322293106,1.));
#556=CARTESIAN_POINT('',(32.8074637839827,4.61696720604441,1.));
#557=CARTESIAN_POINT('',(33.3360020879425,6.17225417814583,1.));
#558=ORIENTED_EDGE('',*,*,#687,.T.);
#559=ORIENTED_EDGE('',*,*,#755,.T.);
#560=ORIENTED_EDGE('',*,*,#756,.F.);
#561=ORIENTED_EDGE('',*,*,#741,.F.);
#562=CARTESIAN_POINT('',(33.3360020879425,6.17225417814583,1.));
#563=CARTESIAN_POINT('',(33.9146127443347,7.87484790795942,1.));
#564=CARTESIAN_POINT('',(33.9002260321453,8.66428189107276,1.));
#565=ORIENTED_EDGE('',*,*,#706,.T.);
#566=ORIENTED_EDGE('',*,*,#757,.T.);
#567=ORIENTED_EDGE('',*,*,#758,.F.);
#568=ORIENTED_EDGE('',*,*,#759,.F.);
#569=ORIENTED_EDGE('',*,*,#707,.T.);
#570=ORIENTED_EDGE('',*,*,#759,.T.);
#571=ORIENTED_EDGE('',*,*,#760,.F.);
#572=ORIENTED_EDGE('',*,*,#761,.F.);
#573=ORIENTED_EDGE('',*,*,#708,.T.);
#574=ORIENTED_EDGE('',*,*,#761,.T.);
#575=ORIENTED_EDGE('',*,*,#762,.F.);
#576=ORIENTED_EDGE('',*,*,#763,.F.);
#577=ORIENTED_EDGE('',*,*,#709,.T.);
#578=ORIENTED_EDGE('',*,*,#763,.T.);
#579=ORIENTED_EDGE('',*,*,#764,.F.);
#580=ORIENTED_EDGE('',*,*,#765,.F.);
#581=ORIENTED_EDGE('',*,*,#710,.T.);
#582=ORIENTED_EDGE('',*,*,#765,.T.);
#583=ORIENTED_EDGE('',*,*,#766,.F.);
#584=ORIENTED_EDGE('',*,*,#767,.F.);
#585=ORIENTED_EDGE('',*,*,#705,.T.);
#586=ORIENTED_EDGE('',*,*,#767,.T.);
#587=ORIENTED_EDGE('',*,*,#768,.F.);
#588=ORIENTED_EDGE('',*,*,#757,.F.);
#589=ORIENTED_EDGE('',*,*,#700,.T.);
#590=ORIENTED_EDGE('',*,*,#769,.T.);
#591=ORIENTED_EDGE('',*,*,#770,.F.);
#592=ORIENTED_EDGE('',*,*,#771,.F.);
#593=ORIENTED_EDGE('',*,*,#701,.T.);
#594=ORIENTED_EDGE('',*,*,#771,.T.);
#595=ORIENTED_EDGE('',*,*,#772,.F.);
#596=ORIENTED_EDGE('',*,*,#773,.F.);
#597=ORIENTED_EDGE('',*,*,#702,.T.);
#598=ORIENTED_EDGE('',*,*,#773,.T.);
#599=ORIENTED_EDGE('',*,*,#774,.F.);
#600=ORIENTED_EDGE('',*,*,#775,.F.);
#601=ORIENTED_EDGE('',*,*,#703,.T.);
#602=ORIENTED_EDGE('',*,*,#775,.T.);
#603=ORIENTED_EDGE('',*,*,#776,.F.);
#604=ORIENTED_EDGE('',*,*,#777,.F.);
#605=ORIENTED_EDGE('',*,*,#704,.T.);
#606=ORIENTED_EDGE('',*,*,#777,.T.);
#607=ORIENTED_EDGE('',*,*,#778,.F.);
#608=ORIENTED_EDGE('',*,*,#779,.F.);
#609=ORIENTED_EDGE('',*,*,#699,.T.);
#610=ORIENTED_EDGE('',*,*,#779,.T.);
#611=ORIENTED_EDGE('',*,*,#780,.F.);
#612=ORIENTED_EDGE('',*,*,#769,.F.);
#613=ORIENTED_EDGE('',*,*,#695,.T.);
#614=ORIENTED_EDGE('',*,*,#781,.T.);
#615=ORIENTED_EDGE('',*,*,#782,.F.);
#616=ORIENTED_EDGE('',*,*,#783,.F.);
#617=ORIENTED_EDGE('',*,*,#696,.T.);
#618=ORIENTED_EDGE('',*,*,#783,.T.);
#619=ORIENTED_EDGE('',*,*,#784,.F.);
#620=ORIENTED_EDGE('',*,*,#785,.F.);
#621=ORIENTED_EDGE('',*,*,#697,.T.);
#622=ORIENTED_EDGE('',*,*,#785,.T.);
#623=ORIENTED_EDGE('',*,*,#786,.F.);
#624=ORIENTED_EDGE('',*,*,#787,.F.);
#625=ORIENTED_EDGE('',*,*,#698,.T.);
#626=ORIENTED_EDGE('',*,*,#787,.T.);
#627=ORIENTED_EDGE('',*,*,#788,.F.);
#628=ORIENTED_EDGE('',*,*,#781,.F.);
#629=ORIENTED_EDGE('',*,*,#722,.T.);
#630=ORIENTED_EDGE('',*,*,#725,.T.);
#631=ORIENTED_EDGE('',*,*,#727,.T.);
#632=ORIENTED_EDGE('',*,*,#729,.T.);
#633=ORIENTED_EDGE('',*,*,#731,.T.);
#634=ORIENTED_EDGE('',*,*,#733,.T.);
#635=ORIENTED_EDGE('',*,*,#735,.T.);
#636=ORIENTED_EDGE('',*,*,#737,.T.);
#637=ORIENTED_EDGE('',*,*,#739,.T.);
#638=ORIENTED_EDGE('',*,*,#740,.T.);
#639=ORIENTED_EDGE('',*,*,#742,.T.);
#640=ORIENTED_EDGE('',*,*,#756,.T.);
#641=ORIENTED_EDGE('',*,*,#754,.T.);
#642=ORIENTED_EDGE('',*,*,#752,.T.);
#643=ORIENTED_EDGE('',*,*,#750,.T.);
#644=ORIENTED_EDGE('',*,*,#748,.T.);
#645=ORIENTED_EDGE('',*,*,#746,.T.);
#646=ORIENTED_EDGE('',*,*,#744,.T.);
#647=ORIENTED_EDGE('',*,*,#768,.T.);
#648=ORIENTED_EDGE('',*,*,#766,.T.);
#649=ORIENTED_EDGE('',*,*,#764,.T.);
#650=ORIENTED_EDGE('',*,*,#762,.T.);
#651=ORIENTED_EDGE('',*,*,#760,.T.);
#652=ORIENTED_EDGE('',*,*,#758,.T.);
#653=ORIENTED_EDGE('',*,*,#780,.T.);
#654=ORIENTED_EDGE('',*,*,#778,.T.);
#655=ORIENTED_EDGE('',*,*,#776,.T.);
#656=ORIENTED_EDGE('',*,*,#774,.T.);
#657=ORIENTED_EDGE('',*,*,#772,.T.);
#658=ORIENTED_EDGE('',*,*,#770,.T.);
#659=ORIENTED_EDGE('',*,*,#789,.T.);
#660=ORIENTED_EDGE('',*,*,#790,.T.);
#661=ORIENTED_EDGE('',*,*,#791,.T.);
#662=ORIENTED_EDGE('',*,*,#792,.T.);
#663=ORIENTED_EDGE('',*,*,#784,.T.);
#664=ORIENTED_EDGE('',*,*,#782,.T.);
#665=ORIENTED_EDGE('',*,*,#788,.T.);
#666=ORIENTED_EDGE('',*,*,#786,.T.);
#667=ORIENTED_EDGE('',*,*,#793,.T.);
#668=ORIENTED_EDGE('',*,*,#794,.T.);
#669=ORIENTED_EDGE('',*,*,#789,.F.);
#670=ORIENTED_EDGE('',*,*,#795,.F.);
#671=ORIENTED_EDGE('',*,*,#796,.T.);
#672=ORIENTED_EDGE('',*,*,#797,.T.);
#673=ORIENTED_EDGE('',*,*,#790,.F.);
#674=ORIENTED_EDGE('',*,*,#794,.F.);
#675=ORIENTED_EDGE('',*,*,#798,.T.);
#676=ORIENTED_EDGE('',*,*,#799,.T.);
#677=ORIENTED_EDGE('',*,*,#791,.F.);
#678=ORIENTED_EDGE('',*,*,#797,.F.);
#679=ORIENTED_EDGE('',*,*,#800,.T.);
#680=ORIENTED_EDGE('',*,*,#795,.T.);
#681=ORIENTED_EDGE('',*,*,#792,.F.);
#682=ORIENTED_EDGE('',*,*,#799,.F.);
#683=ORIENTED_EDGE('',*,*,#796,.F.);
#684=ORIENTED_EDGE('',*,*,#793,.F.);
#685=ORIENTED_EDGE('',*,*,#800,.F.);
#686=ORIENTED_EDGE('',*,*,#798,.F.);
#687=EDGE_CURVE('',#801,#802,#803,.F.);
#688=EDGE_CURVE('',#804,#801,#805,.F.);
#689=EDGE_CURVE('',#806,#804,#807,.F.);
#690=EDGE_CURVE('',#808,#806,#809,.F.);
#691=EDGE_CURVE('',#810,#808,#811,.F.);
#692=EDGE_CURVE('',#812,#810,#813,.F.);
#693=EDGE_CURVE('',#814,#812,#815,.F.);
#694=EDGE_CURVE('',#802,#814,#816,.F.);
#695=EDGE_CURVE('',#817,#818,#819,.F.);
#696=EDGE_CURVE('',#820,#817,#821,.F.);
#697=EDGE_CURVE('',#822,#820,#823,.F.);
#698=EDGE_CURVE('',#818,#822,#824,.F.);
#699=EDGE_CURVE('',#825,#826,#827,.T.);
#700=EDGE_CURVE('',#828,#825,#829,.T.);
#701=EDGE_CURVE('',#830,#828,#831,.T.);
#702=EDGE_CURVE('',#832,#830,#833,.T.);
#703=EDGE_CURVE('',#834,#832,#835,.T.);
#704=EDGE_CURVE('',#826,#834,#836,.T.);
#705=EDGE_CURVE('',#837,#838,#839,.T.);
#706=EDGE_CURVE('',#840,#837,#841,.T.);
#707=EDGE_CURVE('',#842,#840,#843,.T.);
#708=EDGE_CURVE('',#844,#842,#845,.T.);
#709=EDGE_CURVE('',#846,#844,#847,.T.);
#710=EDGE_CURVE('',#838,#846,#848,.T.);
#711=EDGE_CURVE('',#849,#850,#851,.T.);
#712=EDGE_CURVE('',#852,#849,#853,.T.);
#713=EDGE_CURVE('',#854,#852,#855,.T.);
#714=EDGE_CURVE('',#856,#854,#857,.T.);
#715=EDGE_CURVE('',#858,#856,#859,.T.);
#716=EDGE_CURVE('',#860,#858,#861,.T.);
#717=EDGE_CURVE('',#862,#860,#863,.T.);
#718=EDGE_CURVE('',#864,#862,#865,.T.);
#719=EDGE_CURVE('',#866,#864,#867,.T.);
#720=EDGE_CURVE('',#850,#866,#868,.T.);
#721=EDGE_CURVE('',#866,#869,#870,.T.);
#722=EDGE_CURVE('',#871,#869,#872,.T.);
#723=EDGE_CURVE('',#850,#871,#873,.T.);
#724=EDGE_CURVE('',#864,#874,#875,.T.);
#725=EDGE_CURVE('',#869,#874,#876,.T.);
#726=EDGE_CURVE('',#862,#877,#878,.T.);
#727=EDGE_CURVE('',#874,#877,#879,.T.);
#728=EDGE_CURVE('',#860,#880,#881,.T.);
#729=EDGE_CURVE('',#877,#880,#882,.T.);
#730=EDGE_CURVE('',#858,#883,#884,.T.);
#731=EDGE_CURVE('',#880,#883,#885,.T.);
#732=EDGE_CURVE('',#856,#886,#887,.T.);
#733=EDGE_CURVE('',#883,#886,#888,.T.);
#734=EDGE_CURVE('',#854,#889,#890,.T.);
#735=EDGE_CURVE('',#886,#889,#891,.T.);
#736=EDGE_CURVE('',#852,#892,#893,.T.);
#737=EDGE_CURVE('',#889,#892,#894,.T.);
#738=EDGE_CURVE('',#849,#895,#896,.T.);
#739=EDGE_CURVE('',#892,#895,#897,.T.);
#740=EDGE_CURVE('',#895,#871,#898,.T.);
#741=EDGE_CURVE('',#801,#899,#900,.T.);
#742=EDGE_CURVE('',#901,#899,#902,.F.);
#743=EDGE_CURVE('',#804,#901,#903,.T.);
#744=EDGE_CURVE('',#904,#901,#905,.F.);
#745=EDGE_CURVE('',#806,#904,#906,.T.);
#746=EDGE_CURVE('',#907,#904,#908,.F.);
#747=EDGE_CURVE('',#808,#907,#909,.T.);
#748=EDGE_CURVE('',#910,#907,#911,.F.);
#749=EDGE_CURVE('',#810,#910,#912,.T.);
#750=EDGE_CURVE('',#913,#910,#914,.F.);
#751=EDGE_CURVE('',#812,#913,#915,.T.);
#752=EDGE_CURVE('',#916,#913,#917,.F.);
#753=EDGE_CURVE('',#814,#916,#918,.T.);
#754=EDGE_CURVE('',#919,#916,#920,.F.);
#755=EDGE_CURVE('',#802,#919,#921,.T.);
#756=EDGE_CURVE('',#899,#919,#922,.F.);
#757=EDGE_CURVE('',#837,#923,#924,.T.);
#758=EDGE_CURVE('',#925,#923,#926,.T.);
#759=EDGE_CURVE('',#840,#925,#927,.T.);
#760=EDGE_CURVE('',#928,#925,#929,.T.);
#761=EDGE_CURVE('',#842,#928,#930,.T.);
#762=EDGE_CURVE('',#931,#928,#932,.T.);
#763=EDGE_CURVE('',#844,#931,#933,.T.);
#764=EDGE_CURVE('',#934,#931,#935,.T.);
#765=EDGE_CURVE('',#846,#934,#936,.T.);
#766=EDGE_CURVE('',#937,#934,#938,.T.);
#767=EDGE_CURVE('',#838,#937,#939,.T.);
#768=EDGE_CURVE('',#923,#937,#940,.T.);
#769=EDGE_CURVE('',#825,#941,#942,.T.);
#770=EDGE_CURVE('',#943,#941,#944,.T.);
#771=EDGE_CURVE('',#828,#943,#945,.T.);
#772=EDGE_CURVE('',#946,#943,#947,.T.);
#773=EDGE_CURVE('',#830,#946,#948,.T.);
#774=EDGE_CURVE('',#949,#946,#950,.T.);
#775=EDGE_CURVE('',#832,#949,#951,.T.);
#776=EDGE_CURVE('',#952,#949,#953,.T.);
#777=EDGE_CURVE('',#834,#952,#954,.T.);
#778=EDGE_CURVE('',#955,#952,#956,.T.);
#779=EDGE_CURVE('',#826,#955,#957,.T.);
#780=EDGE_CURVE('',#941,#955,#958,.T.);
#781=EDGE_CURVE('',#818,#959,#960,.T.);
#782=EDGE_CURVE('',#961,#959,#962,.F.);
#783=EDGE_CURVE('',#817,#961,#963,.T.);
#784=EDGE_CURVE('',#964,#961,#965,.F.);
#785=EDGE_CURVE('',#820,#964,#966,.T.);
#786=EDGE_CURVE('',#967,#964,#968,.F.);
#787=EDGE_CURVE('',#822,#967,#969,.T.);
#788=EDGE_CURVE('',#959,#967,#970,.F.);
#789=EDGE_CURVE('',#971,#972,#973,.T.);
#790=EDGE_CURVE('',#972,#974,#975,.T.);
#791=EDGE_CURVE('',#974,#976,#977,.T.);
#792=EDGE_CURVE('',#976,#971,#978,.T.);
#793=EDGE_CURVE('',#979,#980,#981,.T.);
#794=EDGE_CURVE('',#980,#972,#982,.T.);
#795=EDGE_CURVE('',#979,#971,#983,.T.);
#796=EDGE_CURVE('',#980,#984,#985,.T.);
#797=EDGE_CURVE('',#984,#974,#986,.T.);
#798=EDGE_CURVE('',#984,#987,#988,.T.);
#799=EDGE_CURVE('',#987,#976,#989,.T.);
#800=EDGE_CURVE('',#987,#979,#990,.T.);
#801=VERTEX_POINT('',#991);
#802=VERTEX_POINT('',#992);
#803=B_SPLINE_CURVE_WITH_KNOTS('',2,
(#993,#994,#995),
.UNSPECIFIED.,.F.,.F.,
(3,3),
(0.,1.),
.UNSPECIFIED.);
#804=VERTEX_POINT('',#996);
#805=B_SPLINE_CURVE_WITH_KNOTS('',2,
(#997,#998,#999),
.UNSPECIFIED.,.F.,.F.,
(3,3),
(0.,1.),
.UNSPECIFIED.);
#806=VERTEX_POINT('',#1000);
#807=B_SPLINE_CURVE_WITH_KNOTS('',2,
(#1001,#1002,#1003),
.UNSPECIFIED.,.F.,.F.,
(3,3),
(0.,1.),
.UNSPECIFIED.);
#808=VERTEX_POINT('',#1004);
#809=B_SPLINE_CURVE_WITH_KNOTS('',2,
(#1005,#1006,#1007),
.UNSPECIFIED.,.F.,.F.,
(3,3),
(0.,1.),
.UNSPECIFIED.);
#810=VERTEX_POINT('',#1008);
#811=B_SPLINE_CURVE_WITH_KNOTS('',2,
(#1009,#1010,#1011),
.UNSPECIFIED.,.F.,.F.,
(3,3),
(0.,1.),
.UNSPECIFIED.);
#812=VERTEX_POINT('',#1012);
#813=B_SPLINE_CURVE_WITH_KNOTS('',2,
(#1013,#1014,#1015),
.UNSPECIFIED.,.F.,.F.,
(3,3),
(0.,1.),
.UNSPECIFIED.);
#814=VERTEX_POINT('',#1016);
#815=B_SPLINE_CURVE_WITH_KNOTS('',2,
(#1017,#1018,#1019),
.UNSPECIFIED.,.F.,.F.,
(3,3),
(0.,1.),
.UNSPECIFIED.);
#816=B_SPLINE_CURVE_WITH_KNOTS('',2,
(#1020,#1021,#1022),
.UNSPECIFIED.,.F.,.F.,
(3,3),
(0.,1.),
.UNSPECIFIED.);
#817=VERTEX_POINT('',#1023);
#818=VERTEX_POINT('',#1024);
#819=LINE('',#1025,#1026);
#820=VERTEX_POINT('',#1028);
#821=LINE('',#1029,#1030);
#822=VERTEX_POINT('',#1032);
#823=LINE('',#1033,#1034);
#824=LINE('',#1036,#1037);
#825=VERTEX_POINT('',#1039);
#826=VERTEX_POINT('',#1040);
#827=LINE('',#1041,#1042);
#828=VERTEX_POINT('',#1044);
#829=LINE('',#1045,#1046);
#830=VERTEX_POINT('',#1048);
#831=LINE('',#1049,#1050);
#832=VERTEX_POINT('',#1052);
#833=LINE('',#1053,#1054);
#834=VERTEX_POINT('',#1056);
#835=LINE('',#1057,#1058);
#836=LINE('',#1060,#1061);
#837=VERTEX_POINT('',#1063);
#838=VERTEX_POINT('',#1064);
#839=LINE('',#1065,#1066);
#840=VERTEX_POINT('',#1068);
#841=LINE('',#1069,#1070);
#842=VERTEX_POINT('',#1072);
#843=LINE('',#1073,#1074);
#844=VERTEX_POINT('',#1076);
#845=LINE('',#1077,#1078);
#846=VERTEX_POINT('',#1080);
#847=LINE('',#1081,#1082);
#848=LINE('',#1084,#1085);
#849=VERTEX_POINT('',#1087);
#850=VERTEX_POINT('',#1088);
#851=B_SPLINE_CURVE_WITH_KNOTS('',2,
(#1089,#1090,#1091),
.UNSPECIFIED.,.F.,.F.,
(3,3),
(0.,1.),
.UNSPECIFIED.);
#852=VERTEX_POINT('',#1092);
#853=B_SPLINE_CURVE_WITH_KNOTS('',2,
(#1093,#1094,#1095),
.UNSPECIFIED.,.F.,.F.,
(3,3),
(0.,1.),
.UNSPECIFIED.);
#854=VERTEX_POINT('',#1096);
#855=B_SPLINE_CURVE_WITH_KNOTS('',2,
(#1097,#1098,#1099),
.UNSPECIFIED.,.F.,.F.,
(3,3),
(0.,1.),
.UNSPECIFIED.);
#856=VERTEX_POINT('',#1100);
#857=B_SPLINE_CURVE_WITH_KNOTS('',2,
(#1101,#1102,#1103),
.UNSPECIFIED.,.F.,.F.,
(3,3),
(0.,1.),
.UNSPECIFIED.);
#858=VERTEX_POINT('',#1104);
#859=B_SPLINE_CURVE_WITH_KNOTS('',2,
(#1105,#1106,#1107),
.UNSPECIFIED.,.F.,.F.,
(3,3),
(0.,1.),
.UNSPECIFIED.);
#860=VERTEX_POINT('',#1108);
#861=B_SPLINE_CURVE_WITH_KNOTS('',2,
(#1109,#1110,#1111),
.UNSPECIFIED.,.F.,.F.,
(3,3),
(0.,1.),
.UNSPECIFIED.);
#862=VERTEX_POINT('',#1112);
#863=B_SPLINE_CURVE_WITH_KNOTS('',2,
(#1113,#1114,#1115),
.UNSPECIFIED.,.F.,.F.,
(3,3),
(0.,1.),
.UNSPECIFIED.);
#864=VERTEX_POINT('',#1116);
#865=B_SPLINE_CURVE_WITH_KNOTS('',2,
(#1117,#1118,#1119),
.UNSPECIFIED.,.F.,.F.,
(3,3),
(0.,1.),
.UNSPECIFIED.);
#866=VERTEX_POINT('',#1120);
#867=B_SPLINE_CURVE_WITH_KNOTS('',2,
(#1121,#1122,#1123),
.UNSPECIFIED.,.F.,.F.,
(3,3),
(0.,1.),
.UNSPECIFIED.);
#868=B_SPLINE_CURVE_WITH_KNOTS('',2,
(#1124,#1125,#1126),
.UNSPECIFIED.,.F.,.F.,
(3,3),
(0.,1.),
.UNSPECIFIED.);
#869=VERTEX_POINT('',#1127);
#870=LINE('',#1128,#1129);
#871=VERTEX_POINT('',#1131);
#872=B_SPLINE_CURVE_WITH_KNOTS('',2,
(#1132,#1133,#1134),
.UNSPECIFIED.,.F.,.F.,
(3,3),
(0.,1.),
.UNSPECIFIED.);
#873=LINE('',#1135,#1136);
#874=VERTEX_POINT('',#1138);
#875=LINE('',#1139,#1140);
#876=B_SPLINE_CURVE_WITH_KNOTS('',2,
(#1142,#1143,#1144),
.UNSPECIFIED.,.F.,.F.,
(3,3),
(0.,1.),
.UNSPECIFIED.);
#877=VERTEX_POINT('',#1145);
#878=LINE('',#1146,#1147);
#879=B_SPLINE_CURVE_WITH_KNOTS('',2,
(#1149,#1150,#1151),
.UNSPECIFIED.,.F.,.F.,
(3,3),
(0.,1.),
.UNSPECIFIED.);
#880=VERTEX_POINT('',#1152);
#881=LINE('',#1153,#1154);
#882=B_SPLINE_CURVE_WITH_KNOTS('',2,
(#1156,#1157,#1158),
.UNSPECIFIED.,.F.,.F.,
(3,3),
(0.,1.),
.UNSPECIFIED.);
#883=VERTEX_POINT('',#1159);
#884=LINE('',#1160,#1161);
#885=B_SPLINE_CURVE_WITH_KNOTS('',2,
(#1163,#1164,#1165),
.UNSPECIFIED.,.F.,.F.,
(3,3),
(0.,1.),
.UNSPECIFIED.);
#886=VERTEX_POINT('',#1166);
#887=LINE('',#1167,#1168);
#888=B_SPLINE_CURVE_WITH_KNOTS('',2,
(#1170,#1171,#1172),
.UNSPECIFIED.,.F.,.F.,
(3,3),
(0.,1.),
.UNSPECIFIED.);
#889=VERTEX_POINT('',#1173);
#890=LINE('',#1174,#1175);
#891=B_SPLINE_CURVE_WITH_KNOTS('',2,
(#1177,#1178,#1179),
.UNSPECIFIED.,.F.,.F.,
(3,3),
(0.,1.),
.UNSPECIFIED.);
#892=VERTEX_POINT('',#1180);
#893=LINE('',#1181,#1182);
#894=B_SPLINE_CURVE_WITH_KNOTS('',2,
(#1184,#1185,#1186),
.UNSPECIFIED.,.F.,.F.,
(3,3),
(0.,1.),
.UNSPECIFIED.);
#895=VERTEX_POINT('',#1187);
#896=LINE('',#1188,#1189);
#897=B_SPLINE_CURVE_WITH_KNOTS('',2,
(#1191,#1192,#1193),
.UNSPECIFIED.,.F.,.F.,
(3,3),
(0.,1.),
.UNSPECIFIED.);
#898=B_SPLINE_CURVE_WITH_KNOTS('',2,
(#1194,#1195,#1196),
.UNSPECIFIED.,.F.,.F.,
(3,3),
(0.,1.),
.UNSPECIFIED.);
#899=VERTEX_POINT('',#1197);
#900=LINE('',#1198,#1199);
#901=VERTEX_POINT('',#1201);
#902=B_SPLINE_CURVE_WITH_KNOTS('',2,
(#1202,#1203,#1204),
.UNSPECIFIED.,.F.,.F.,
(3,3),
(0.,1.),
.UNSPECIFIED.);
#903=LINE('',#1205,#1206);
#904=VERTEX_POINT('',#1208);
#905=B_SPLINE_CURVE_WITH_KNOTS('',2,
(#1209,#1210,#1211),
.UNSPECIFIED.,.F.,.F.,
(3,3),
(0.,1.),
.UNSPECIFIED.);
#906=LINE('',#1212,#1213);
#907=VERTEX_POINT('',#1215);
#908=B_SPLINE_CURVE_WITH_KNOTS('',2,
(#1216,#1217,#1218),
.UNSPECIFIED.,.F.,.F.,
(3,3),
(0.,1.),
.UNSPECIFIED.);
#909=LINE('',#1219,#1220);
#910=VERTEX_POINT('',#1222);
#911=B_SPLINE_CURVE_WITH_KNOTS('',2,
(#1223,#1224,#1225),
.UNSPECIFIED.,.F.,.F.,
(3,3),
(0.,1.),
.UNSPECIFIED.);
#912=LINE('',#1226,#1227);
#913=VERTEX_POINT('',#1229);
#914=B_SPLINE_CURVE_WITH_KNOTS('',2,
(#1230,#1231,#1232),
.UNSPECIFIED.,.F.,.F.,
(3,3),
(0.,1.),
.UNSPECIFIED.);
#915=LINE('',#1233,#1234);
#916=VERTEX_POINT('',#1236);
#917=B_SPLINE_CURVE_WITH_KNOTS('',2,
(#1237,#1238,#1239),
.UNSPECIFIED.,.F.,.F.,
(3,3),
(0.,1.),
.UNSPECIFIED.);
#918=LINE('',#1240,#1241);
#919=VERTEX_POINT('',#1243);
#920=B_SPLINE_CURVE_WITH_KNOTS('',2,
(#1244,#1245,#1246),
.UNSPECIFIED.,.F.,.F.,
(3,3),
(0.,1.),
.UNSPECIFIED.);
#921=LINE('',#1247,#1248);
#922=B_SPLINE_CURVE_WITH_KNOTS('',2,
(#1250,#1251,#1252),
.UNSPECIFIED.,.F.,.F.,
(3,3),
(0.,1.),
.UNSPECIFIED.);
#923=VERTEX_POINT('',#1253);
#924=LINE('',#1254,#1255);
#925=VERTEX_POINT('',#1257);
#926=LINE('',#1258,#1259);
#927=LINE('',#1261,#1262);
#928=VERTEX_POINT('',#1264);
#929=LINE('',#1265,#1266);
#930=LINE('',#1268,#1269);
#931=VERTEX_POINT('',#1271);
#932=LINE('',#1272,#1273);
#933=LINE('',#1275,#1276);
#934=VERTEX_POINT('',#1278);
#935=LINE('',#1279,#1280);
#936=LINE('',#1282,#1283);
#937=VERTEX_POINT('',#1285);
#938=LINE('',#1286,#1287);
#939=LINE('',#1289,#1290);
#940=LINE('',#1292,#1293);
#941=VERTEX_POINT('',#1295);
#942=LINE('',#1296,#1297);
#943=VERTEX_POINT('',#1299);
#944=LINE('',#1300,#1301);
#945=LINE('',#1303,#1304);
#946=VERTEX_POINT('',#1306);
#947=LINE('',#1307,#1308);
#948=LINE('',#1310,#1311);
#949=VERTEX_POINT('',#1313);
#950=LINE('',#1314,#1315);
#951=LINE('',#1317,#1318);
#952=VERTEX_POINT('',#1320);
#953=LINE('',#1321,#1322);
#954=LINE('',#1324,#1325);
#955=VERTEX_POINT('',#1327);
#956=LINE('',#1328,#1329);
#957=LINE('',#1331,#1332);
#958=LINE('',#1334,#1335);
#959=VERTEX_POINT('',#1337);
#960=LINE('',#1338,#1339);
#961=VERTEX_POINT('',#1341);
#962=LINE('',#1342,#1343);
#963=LINE('',#1345,#1346);
#964=VERTEX_POINT('',#1348);
#965=LINE('',#1349,#1350);
#966=LINE('',#1352,#1353);
#967=VERTEX_POINT('',#1355);
#968=LINE('',#1356,#1357);
#969=LINE('',#1359,#1360);
#970=LINE('',#1362,#1363);
#971=VERTEX_POINT('',#1365);
#972=VERTEX_POINT('',#1366);
#973=LINE('',#1367,#1368);
#974=VERTEX_POINT('',#1370);
#975=LINE('',#1371,#1372);
#976=VERTEX_POINT('',#1374);
#977=LINE('',#1375,#1376);
#978=LINE('',#1378,#1379);
#979=VERTEX_POINT('',#1381);
#980=VERTEX_POINT('',#1382);
#981=LINE('',#1383,#1384);
#982=LINE('',#1386,#1387);
#983=LINE('',#1389,#1390);
#984=VERTEX_POINT('',#1392);
#985=LINE('',#1393,#1394);
#986=LINE('',#1396,#1397);
#987=VERTEX_POINT('',#1399);
#988=LINE('',#1400,#1401);
#989=LINE('',#1403,#1404);
#990=LINE('',#1406,#1407);
#991=CARTESIAN_POINT('',(33.9002260321453,8.66428189107276,1.));
#992=CARTESIAN_POINT('',(33.3360020879425,6.17225417814583,1.));
#993=CARTESIAN_POINT('',(33.3360020879425,6.17225417814583,1.));
#994=CARTESIAN_POINT('',(33.9146127443347,7.87484790795942,1.));
#995=CARTESIAN_POINT('',(33.9002260321453,8.66428189107276,1.));
#996=CARTESIAN_POINT('',(33.2851359410998,9.45371587418611,1.));
#997=CARTESIAN_POINT('',(33.9002260321453,8.66428189107276,1.));
#998=CARTESIAN_POINT('',(33.8858393199559,9.45371587418611,1.));
#999=CARTESIAN_POINT('',(33.2851359410998,9.45371587418611,1.));
#1000=CARTESIAN_POINT('',(32.1492631342027,8.67607240428453,1.));
#1001=CARTESIAN_POINT('',(33.2851359410998,9.45371587418611,1.));
#1002=CARTESIAN_POINT('',(32.702093478548,9.45371587418611,1.));
#1003=CARTESIAN_POINT('',(32.1492631342027,8.67607240428453,1.));
#1004=CARTESIAN_POINT('',(31.0638596253906,6.3313349123591,1.));
#1005=CARTESIAN_POINT('',(32.1492631342027,8.67607240428453,1.));
#1006=CARTESIAN_POINT('',(31.5964328221557,7.89842890208469,1.));
#1007=CARTESIAN_POINT('',(31.0638596253906,6.3313349123591,1.));
#1008=CARTESIAN_POINT('',(30.4926903596039,3.82753322293106,1.));
#1009=CARTESIAN_POINT('',(31.0638596253906,6.3313349123591,1.));
#1010=CARTESIAN_POINT('',(30.4812471173161,4.61696720604441,1.));
#1011=CARTESIAN_POINT('',(30.4926903596039,3.82753322293106,1.));
#1012=CARTESIAN_POINT('',(31.1048369807478,3.03809920751945,1.));
#1013=CARTESIAN_POINT('',(30.4926903596039,3.82753322293106,1.));
#1014=CARTESIAN_POINT('',(30.5041336018918,3.03809920751945,1.));
#1015=CARTESIAN_POINT('',(31.1048369807478,3.03809920751945,1.));
#1016=CARTESIAN_POINT('',(32.2476550769305,3.82753322293106,1.));
#1017=CARTESIAN_POINT('',(31.1048369807478,3.03809920751945,1.));
#1018=CARTESIAN_POINT('',(31.6878463375801,3.03809920751945,1.));
#1019=CARTESIAN_POINT('',(32.2476550769305,3.82753322293106,1.));
#1020=CARTESIAN_POINT('',(32.2476550769305,3.82753322293106,1.));
#1021=CARTESIAN_POINT('',(32.8074637839827,4.61696720604441,1.));
#1022=CARTESIAN_POINT('',(33.3360020879425,6.17225417814583,1.));
#1023=CARTESIAN_POINT('',(48.5,0.999999999999999,1.));
#1024=CARTESIAN_POINT('',(1.,0.999999999999999,1.));
#1025=CARTESIAN_POINT('',(1.,0.999999999999999,1.));
#1026=VECTOR('',#1027,1.);
#1027=DIRECTION('',(1.,0.,0.));
#1028=CARTESIAN_POINT('',(48.5,11.5,1.));
#1029=CARTESIAN_POINT('',(48.5,0.999999999999999,1.));
#1030=VECTOR('',#1031,1.);
#1031=DIRECTION('',(0.,1.,0.));
#1032=CARTESIAN_POINT('',(1.,11.5,1.));
#1033=CARTESIAN_POINT('',(48.5,11.5,1.));
#1034=VECTOR('',#1035,1.);
#1035=DIRECTION('',(-1.,0.,0.));
#1036=CARTESIAN_POINT('',(1.,11.5,1.));
#1037=VECTOR('',#1038,1.);
#1038=DIRECTION('',(0.,-1.,0.));
#1039=CARTESIAN_POINT('',(17.380801285811,9.19991431471407,1.));
#1040=CARTESIAN_POINT('',(15.044331987726,2.32478254085278,1.));
#1041=CARTESIAN_POINT('',(17.380801285811,9.19991431471407,1.));
#1042=VECTOR('',#1043,1.);
#1043=DIRECTION('',(-0.321769963312185,-0.946817876209609,0.));
#1044=CARTESIAN_POINT('',(15.7556973548327,8.95841587418611,1.));
#1045=CARTESIAN_POINT('',(15.7556973548327,8.95841587418611,1.));
#1046=VECTOR('',#1047,1.);
#1047=DIRECTION('',(0.989137866143484,0.14699075399873,0.));
#1048=CARTESIAN_POINT('',(16.013930688166,9.71829920751945,1.));
#1049=CARTESIAN_POINT('',(16.013930688166,9.71829920751945,1.));
#1050=VECTOR('',#1051,1.);
#1051=DIRECTION('',(-0.321760883930675,-0.946820961730438,0.));
#1052=CARTESIAN_POINT('',(19.8567390376485,10.3130825408528,1.));
#1053=CARTESIAN_POINT('',(19.8567390376485,10.3130825408528,1.));
#1054=VECTOR('',#1055,1.);
#1055=DIRECTION('',(-0.988232845540621,-0.152956997207341,0.));
#1056=CARTESIAN_POINT('',(17.1419486543927,2.32478254085278,1.));
#1057=CARTESIAN_POINT('',(17.1419486543927,2.32478254085278,1.));
#1058=VECTOR('',#1059,1.);
#1059=DIRECTION('',(0.32177187861683,0.946817225303488,0.));
#1060=CARTESIAN_POINT('',(15.044331987726,2.32478254085278,1.));
#1061=VECTOR('',#1062,1.);
#1062=DIRECTION('',(1.,0.,0.));
#1063=CARTESIAN_POINT('',(23.1640301795397,8.95841587418611,1.));
#1064=CARTESIAN_POINT('',(24.7891341105181,9.19991431471407,1.));
#1065=CARTESIAN_POINT('',(23.1640301795397,8.95841587418611,1.));
#1066=VECTOR('',#1067,1.);
#1067=DIRECTION('',(0.989137866143484,0.14699075399873,0.));
#1068=CARTESIAN_POINT('',(23.422263512873,9.71829920751945,1.));
#1069=CARTESIAN_POINT('',(23.422263512873,9.71829920751945,1.));
#1070=VECTOR('',#1071,1.);
#1071=DIRECTION('',(-0.321760883930673,-0.946820961730438,0.));
#1072=CARTESIAN_POINT('',(27.2650718623555,10.3130825408528,1.));
#1073=CARTESIAN_POINT('',(27.2650718623555,10.3130825408528,1.));
#1074=VECTOR('',#1075,1.);
#1075=DIRECTION('',(-0.988232845540621,-0.152956997207341,0.));
#1076=CARTESIAN_POINT('',(24.5502814790997,2.32478254085278,1.));
#1077=CARTESIAN_POINT('',(24.5502814790997,2.32478254085278,1.));
#1078=VECTOR('',#1079,1.);
#1079=DIRECTION('',(0.32177187861683,0.946817225303488,0.));
#1080=CARTESIAN_POINT('',(22.4526648124331,2.32478254085278,1.));
#1081=CARTESIAN_POINT('',(22.4526648124331,2.32478254085278,1.));
#1082=VECTOR('',#1083,1.);
#1083=DIRECTION('',(1.,0.,0.));
#1084=CARTESIAN_POINT('',(24.7891341105181,9.19991431471407,1.));
#1085=VECTOR('',#1086,1.);
#1086=DIRECTION('',(-0.321769963312185,-0.946817876209609,0.));
#1087=CARTESIAN_POINT('',(32.0638358111438,2.48060560766186,1.));
#1088=CARTESIAN_POINT('',(33.6345182347851,3.49688673174314,1.));
#1089=CARTESIAN_POINT('',(32.0638358111438,2.48060560766186,1.));
#1090=CARTESIAN_POINT('',(32.8780744726733,2.83116197550602,1.));
#1091=CARTESIAN_POINT('',(33.6345182347851,3.49688673174314,1.));
#1092=CARTESIAN_POINT('',(30.4543257722333,2.13004920751945,1.));
#1093=CARTESIAN_POINT('',(30.4543257722333,2.13004920751945,1.));
#1094=CARTESIAN_POINT('',(31.2495971173161,2.13004920751945,1.));
#1095=CARTESIAN_POINT('',(32.0638358111438,2.48060560766186,1.));
#1096=CARTESIAN_POINT('',(28.5883683647411,3.09625794686992,1.));
#1097=CARTESIAN_POINT('',(28.5883683647411,3.09625794686992,1.));
#1098=CARTESIAN_POINT('',(29.0641057267106,2.13004920751945,1.));
#1099=CARTESIAN_POINT('',(30.4543257722333,2.13004920751945,1.));
#1100=CARTESIAN_POINT('',(28.6872729132012,5.75335261867379,1.));
#1101=CARTESIAN_POINT('',(28.6872729132012,5.75335261867379,1.));
#1102=CARTESIAN_POINT('',(28.1126309704734,4.0624666862204,1.));
#1103=CARTESIAN_POINT('',(28.5883683647411,3.09625794686992,1.));
#1104=CARTESIAN_POINT('',(30.8524244726733,9.0909390709512,1.));
#1105=CARTESIAN_POINT('',(30.8524244726733,9.0909390709512,1.));
#1106=CARTESIAN_POINT('',(29.3860375005718,7.80952890208469,1.));
#1107=CARTESIAN_POINT('',(28.6872729132012,5.75335261867379,1.));
#1108=CARTESIAN_POINT('',(33.9446760321453,10.3723492075194,1.));
#1109=CARTESIAN_POINT('',(33.9446760321453,10.3723492075194,1.));
#1110=CARTESIAN_POINT('',(32.3188114447747,10.3723492075194,1.));
#1111=CARTESIAN_POINT('',(30.8524244726733,9.0909390709512,1.));
#1112=CARTESIAN_POINT('',(35.8025801907374,9.37372903204069,1.));
#1113=CARTESIAN_POINT('',(35.8025801907374,9.37372903204069,1.));
#1114=CARTESIAN_POINT('',(35.3467031275905,10.3723492075194,1.));
#1115=CARTESIAN_POINT('',(33.9446760321453,10.3723492075194,1.));
#1116=CARTESIAN_POINT('',(35.6537851613638,6.59585209884978,1.));
#1117=CARTESIAN_POINT('',(35.6537851613638,6.59585209884978,1.));
#1118=CARTESIAN_POINT('',(36.2584572861826,8.37510885656194,1.));
#1119=CARTESIAN_POINT('',(35.8025801907374,9.37372903204069,1.));
#1120=CARTESIAN_POINT('',(34.8286655057091,4.88728868108319,1.));
#1121=CARTESIAN_POINT('',(34.8286655057091,4.88728868108319,1.));
#1122=CARTESIAN_POINT('',(35.3394270717933,5.67086876551645,1.));
#1123=CARTESIAN_POINT('',(35.6537851613638,6.59585209884978,1.));
#1124=CARTESIAN_POINT('',(33.6345182347851,3.49688673174314,1.));
#1125=CARTESIAN_POINT('',(34.3179039073265,4.10370859664994,1.));
#1126=CARTESIAN_POINT('',(34.8286655057091,4.88728868108319,1.));
#1127=CARTESIAN_POINT('',(34.8286655057091,4.88728868108319,2.));
#1128=CARTESIAN_POINT('',(34.8286655057091,4.88728868108319,1.));
#1129=VECTOR('',#1130,1.);
#1130=DIRECTION('',(0.,0.,1.));
#1131=CARTESIAN_POINT('',(33.6345182347851,3.49688673174314,2.));
#1132=CARTESIAN_POINT('',(33.6345182347851,3.49688673174314,2.));
#1133=CARTESIAN_POINT('',(34.3179039073265,4.10370859664994,2.));
#1134=CARTESIAN_POINT('',(34.8286655057091,4.88728868108319,2.));
#1135=CARTESIAN_POINT('',(33.6345182347851,3.49688673174314,1.));
#1136=VECTOR('',#1137,1.);
#1137=DIRECTION('',(0.,0.,1.));
#1138=CARTESIAN_POINT('',(35.6537851613638,6.59585209884978,2.));
#1139=CARTESIAN_POINT('',(35.6537851613638,6.59585209884978,1.));
#1140=VECTOR('',#1141,1.);
#1141=DIRECTION('',(0.,0.,1.));
#1142=CARTESIAN_POINT('',(34.8286655057091,4.88728868108319,2.));
#1143=CARTESIAN_POINT('',(35.3394270717933,5.67086876551645,2.));
#1144=CARTESIAN_POINT('',(35.6537851613638,6.59585209884978,2.));
#1145=CARTESIAN_POINT('',(35.8025801907374,9.37372903204069,2.));
#1146=CARTESIAN_POINT('',(35.8025801907374,9.37372903204069,1.));
#1147=VECTOR('',#1148,1.);
#1148=DIRECTION('',(0.,0.,1.));
#1149=CARTESIAN_POINT('',(35.6537851613638,6.59585209884978,2.));
#1150=CARTESIAN_POINT('',(36.2584572861826,8.37510885656194,2.));
#1151=CARTESIAN_POINT('',(35.8025801907374,9.37372903204069,2.));
#1152=CARTESIAN_POINT('',(33.9446760321453,10.3723492075194,2.));
#1153=CARTESIAN_POINT('',(33.9446760321453,10.3723492075194,1.));
#1154=VECTOR('',#1155,1.);
#1155=DIRECTION('',(0.,0.,1.));
#1156=CARTESIAN_POINT('',(35.8025801907374,9.37372903204069,2.));
#1157=CARTESIAN_POINT('',(35.3467031275905,10.3723492075194,2.));
#1158=CARTESIAN_POINT('',(33.9446760321453,10.3723492075194,2.));
#1159=CARTESIAN_POINT('',(30.8524244726733,9.0909390709512,2.));
#1160=CARTESIAN_POINT('',(30.8524244726733,9.0909390709512,1.));
#1161=VECTOR('',#1162,1.);
#1162=DIRECTION('',(0.,0.,1.));
#1163=CARTESIAN_POINT('',(33.9446760321453,10.3723492075194,2.));
#1164=CARTESIAN_POINT('',(32.3188114447747,10.3723492075194,2.));
#1165=CARTESIAN_POINT('',(30.8524244726733,9.0909390709512,2.));
#1166=CARTESIAN_POINT('',(28.6872729132012,5.75335261867379,2.));
#1167=CARTESIAN_POINT('',(28.6872729132012,5.75335261867379,1.));
#1168=VECTOR('',#1169,1.);
#1169=DIRECTION('',(0.,0.,1.));
#1170=CARTESIAN_POINT('',(30.8524244726733,9.0909390709512,2.));
#1171=CARTESIAN_POINT('',(29.3860375005718,7.80952890208469,2.));
#1172=CARTESIAN_POINT('',(28.6872729132012,5.75335261867379,2.));
#1173=CARTESIAN_POINT('',(28.5883683647411,3.09625794686992,2.));
#1174=CARTESIAN_POINT('',(28.5883683647411,3.09625794686992,1.));
#1175=VECTOR('',#1176,1.);
#1176=DIRECTION('',(0.,0.,1.));
#1177=CARTESIAN_POINT('',(28.6872729132012,5.75335261867379,2.));
#1178=CARTESIAN_POINT('',(28.1126309704734,4.0624666862204,2.));
#1179=CARTESIAN_POINT('',(28.5883683647411,3.09625794686992,2.));
#1180=CARTESIAN_POINT('',(30.4543257722333,2.13004920751945,2.));
#1181=CARTESIAN_POINT('',(30.4543257722333,2.13004920751945,1.));
#1182=VECTOR('',#1183,1.);
#1183=DIRECTION('',(0.,0.,1.));
#1184=CARTESIAN_POINT('',(28.5883683647411,3.09625794686992,2.));
#1185=CARTESIAN_POINT('',(29.0641057267106,2.13004920751945,2.));
#1186=CARTESIAN_POINT('',(30.4543257722333,2.13004920751945,2.));
#1187=CARTESIAN_POINT('',(32.0638358111438,2.48060560766186,2.));
#1188=CARTESIAN_POINT('',(32.0638358111438,2.48060560766186,1.));
#1189=VECTOR('',#1190,1.);
#1190=DIRECTION('',(0.,0.,1.));
#1191=CARTESIAN_POINT('',(30.4543257722333,2.13004920751945,2.));
#1192=CARTESIAN_POINT('',(31.2495971173161,2.13004920751945,2.));
#1193=CARTESIAN_POINT('',(32.0638358111438,2.48060560766186,2.));
#1194=CARTESIAN_POINT('',(32.0638358111438,2.48060560766186,2.));
#1195=CARTESIAN_POINT('',(32.8780744726733,2.83116197550602,2.));
#1196=CARTESIAN_POINT('',(33.6345182347851,3.49688673174314,2.));
#1197=CARTESIAN_POINT('',(33.9002260321453,8.66428189107276,2.));
#1198=CARTESIAN_POINT('',(33.9002260321453,8.66428189107276,1.));
#1199=VECTOR('',#1200,1.);
#1200=DIRECTION('',(0.,0.,1.));
#1201=CARTESIAN_POINT('',(33.2851359410998,9.45371587418611,2.));
#1202=CARTESIAN_POINT('',(33.9002260321453,8.66428189107276,2.));
#1203=CARTESIAN_POINT('',(33.8858393199559,9.45371587418611,2.));
#1204=CARTESIAN_POINT('',(33.2851359410998,9.45371587418611,2.));
#1205=CARTESIAN_POINT('',(33.2851359410998,9.45371587418611,1.));
#1206=VECTOR('',#1207,1.);
#1207=DIRECTION('',(0.,0.,1.));
#1208=CARTESIAN_POINT('',(32.1492631342027,8.67607240428453,2.));
#1209=CARTESIAN_POINT('',(33.2851359410998,9.45371587418611,2.));
#1210=CARTESIAN_POINT('',(32.702093478548,9.45371587418611,2.));
#1211=CARTESIAN_POINT('',(32.1492631342027,8.67607240428453,2.));
#1212=CARTESIAN_POINT('',(32.1492631342027,8.67607240428453,1.));
#1213=VECTOR('',#1214,1.);
#1214=DIRECTION('',(0.,0.,1.));
#1215=CARTESIAN_POINT('',(31.0638596253906,6.3313349123591,2.));
#1216=CARTESIAN_POINT('',(32.1492631342027,8.67607240428453,2.));
#1217=CARTESIAN_POINT('',(31.5964328221557,7.89842890208469,2.));
#1218=CARTESIAN_POINT('',(31.0638596253906,6.3313349123591,2.));
#1219=CARTESIAN_POINT('',(31.0638596253906,6.3313349123591,1.));
#1220=VECTOR('',#1221,1.);
#1221=DIRECTION('',(0.,0.,1.));
#1222=CARTESIAN_POINT('',(30.4926903596039,3.82753322293106,2.));
#1223=CARTESIAN_POINT('',(31.0638596253906,6.3313349123591,2.));
#1224=CARTESIAN_POINT('',(30.4812471173161,4.61696720604441,2.));
#1225=CARTESIAN_POINT('',(30.4926903596039,3.82753322293106,2.));
#1226=CARTESIAN_POINT('',(30.4926903596039,3.82753322293106,1.));
#1227=VECTOR('',#1228,1.);
#1228=DIRECTION('',(0.,0.,1.));
#1229=CARTESIAN_POINT('',(31.1048369807478,3.03809920751945,2.));
#1230=CARTESIAN_POINT('',(30.4926903596039,3.82753322293106,2.));
#1231=CARTESIAN_POINT('',(30.5041336018918,3.03809920751945,2.));
#1232=CARTESIAN_POINT('',(31.1048369807478,3.03809920751945,2.));
#1233=CARTESIAN_POINT('',(31.1048369807478,3.03809920751945,1.));
#1234=VECTOR('',#1235,1.);
#1235=DIRECTION('',(0.,0.,1.));
#1236=CARTESIAN_POINT('',(32.2476550769305,3.82753322293106,2.));
#1237=CARTESIAN_POINT('',(31.1048369807478,3.03809920751945,2.));
#1238=CARTESIAN_POINT('',(31.6878463375801,3.03809920751945,2.));
#1239=CARTESIAN_POINT('',(32.2476550769305,3.82753322293106,2.));
#1240=CARTESIAN_POINT('',(32.2476550769305,3.82753322293106,1.));
#1241=VECTOR('',#1242,1.);
#1242=DIRECTION('',(0.,0.,1.));
#1243=CARTESIAN_POINT('',(33.3360020879425,6.17225417814583,2.));
#1244=CARTESIAN_POINT('',(32.2476550769305,3.82753322293106,2.));
#1245=CARTESIAN_POINT('',(32.8074637839827,4.61696720604441,2.));
#1246=CARTESIAN_POINT('',(33.3360020879425,6.17225417814583,2.));
#1247=CARTESIAN_POINT('',(33.3360020879425,6.17225417814583,1.));
#1248=VECTOR('',#1249,1.);
#1249=DIRECTION('',(0.,0.,1.));
#1250=CARTESIAN_POINT('',(33.3360020879425,6.17225417814583,2.));
#1251=CARTESIAN_POINT('',(33.9146127443347,7.87484790795942,2.));
#1252=CARTESIAN_POINT('',(33.9002260321453,8.66428189107276,2.));
#1253=CARTESIAN_POINT('',(23.1640301795397,8.95841587418611,2.));
#1254=CARTESIAN_POINT('',(23.1640301795397,8.95841587418611,1.));
#1255=VECTOR('',#1256,1.);
#1256=DIRECTION('',(0.,0.,1.));
#1257=CARTESIAN_POINT('',(23.422263512873,9.71829920751945,2.));
#1258=CARTESIAN_POINT('',(23.422263512873,9.71829920751945,2.));
#1259=VECTOR('',#1260,1.);
#1260=DIRECTION('',(-0.321760883930673,-0.946820961730438,0.));
#1261=CARTESIAN_POINT('',(23.422263512873,9.71829920751945,1.));
#1262=VECTOR('',#1263,1.);
#1263=DIRECTION('',(0.,0.,1.));
#1264=CARTESIAN_POINT('',(27.2650718623555,10.3130825408528,2.));
#1265=CARTESIAN_POINT('',(27.2650718623555,10.3130825408528,2.));
#1266=VECTOR('',#1267,1.);
#1267=DIRECTION('',(-0.988232845540621,-0.152956997207341,0.));
#1268=CARTESIAN_POINT('',(27.2650718623555,10.3130825408528,1.));
#1269=VECTOR('',#1270,1.);
#1270=DIRECTION('',(0.,0.,1.));
#1271=CARTESIAN_POINT('',(24.5502814790997,2.32478254085278,2.));
#1272=CARTESIAN_POINT('',(24.5502814790997,2.32478254085278,2.));
#1273=VECTOR('',#1274,1.);
#1274=DIRECTION('',(0.32177187861683,0.946817225303488,0.));
#1275=CARTESIAN_POINT('',(24.5502814790997,2.32478254085278,1.));
#1276=VECTOR('',#1277,1.);
#1277=DIRECTION('',(0.,0.,1.));
#1278=CARTESIAN_POINT('',(22.4526648124331,2.32478254085278,2.));
#1279=CARTESIAN_POINT('',(22.4526648124331,2.32478254085278,2.));
#1280=VECTOR('',#1281,1.);
#1281=DIRECTION('',(1.,0.,0.));
#1282=CARTESIAN_POINT('',(22.4526648124331,2.32478254085278,1.));
#1283=VECTOR('',#1284,1.);
#1284=DIRECTION('',(0.,0.,1.));
#1285=CARTESIAN_POINT('',(24.7891341105181,9.19991431471407,2.));
#1286=CARTESIAN_POINT('',(24.7891341105181,9.19991431471407,2.));
#1287=VECTOR('',#1288,1.);
#1288=DIRECTION('',(-0.321769963312185,-0.946817876209609,0.));
#1289=CARTESIAN_POINT('',(24.7891341105181,9.19991431471407,1.));
#1290=VECTOR('',#1291,1.);
#1291=DIRECTION('',(0.,0.,1.));
#1292=CARTESIAN_POINT('',(23.1640301795397,8.95841587418611,2.));
#1293=VECTOR('',#1294,1.);
#1294=DIRECTION('',(0.989137866143484,0.14699075399873,0.));
#1295=CARTESIAN_POINT('',(17.380801285811,9.19991431471407,2.));
#1296=CARTESIAN_POINT('',(17.380801285811,9.19991431471407,1.));
#1297=VECTOR('',#1298,1.);
#1298=DIRECTION('',(0.,0.,1.));
#1299=CARTESIAN_POINT('',(15.7556973548327,8.95841587418611,2.));
#1300=CARTESIAN_POINT('',(15.7556973548327,8.95841587418611,2.));
#1301=VECTOR('',#1302,1.);
#1302=DIRECTION('',(0.989137866143484,0.14699075399873,0.));
#1303=CARTESIAN_POINT('',(15.7556973548327,8.95841587418611,1.));
#1304=VECTOR('',#1305,1.);
#1305=DIRECTION('',(0.,0.,1.));
#1306=CARTESIAN_POINT('',(16.013930688166,9.71829920751945,2.));
#1307=CARTESIAN_POINT('',(16.013930688166,9.71829920751945,2.));
#1308=VECTOR('',#1309,1.);
#1309=DIRECTION('',(-0.321760883930675,-0.946820961730438,0.));
#1310=CARTESIAN_POINT('',(16.013930688166,9.71829920751945,1.));
#1311=VECTOR('',#1312,1.);
#1312=DIRECTION('',(0.,0.,1.));
#1313=CARTESIAN_POINT('',(19.8567390376485,10.3130825408528,2.));
#1314=CARTESIAN_POINT('',(19.8567390376485,10.3130825408528,2.));
#1315=VECTOR('',#1316,1.);
#1316=DIRECTION('',(-0.988232845540621,-0.152956997207341,0.));
#1317=CARTESIAN_POINT('',(19.8567390376485,10.3130825408528,1.));
#1318=VECTOR('',#1319,1.);
#1319=DIRECTION('',(0.,0.,1.));
#1320=CARTESIAN_POINT('',(17.1419486543927,2.32478254085278,2.));
#1321=CARTESIAN_POINT('',(17.1419486543927,2.32478254085278,2.));
#1322=VECTOR('',#1323,1.);
#1323=DIRECTION('',(0.32177187861683,0.946817225303488,0.));
#1324=CARTESIAN_POINT('',(17.1419486543927,2.32478254085278,1.));
#1325=VECTOR('',#1326,1.);
#1326=DIRECTION('',(0.,0.,1.));
#1327=CARTESIAN_POINT('',(15.044331987726,2.32478254085278,2.));
#1328=CARTESIAN_POINT('',(15.044331987726,2.32478254085278,2.));
#1329=VECTOR('',#1330,1.);
#1330=DIRECTION('',(1.,0.,0.));
#1331=CARTESIAN_POINT('',(15.044331987726,2.32478254085278,1.));
#1332=VECTOR('',#1333,1.);
#1333=DIRECTION('',(0.,0.,1.));
#1334=CARTESIAN_POINT('',(17.380801285811,9.19991431471407,2.));
#1335=VECTOR('',#1336,1.);
#1336=DIRECTION('',(-0.321769963312185,-0.946817876209609,0.));
#1337=CARTESIAN_POINT('',(1.,0.999999999999999,2.));
#1338=CARTESIAN_POINT('',(1.,0.999999999999999,1.));
#1339=VECTOR('',#1340,1.);
#1340=DIRECTION('',(0.,0.,1.));
#1341=CARTESIAN_POINT('',(48.5,0.999999999999999,2.));
#1342=CARTESIAN_POINT('',(1.,0.999999999999999,2.));
#1343=VECTOR('',#1344,1.);
#1344=DIRECTION('',(1.,0.,0.));
#1345=CARTESIAN_POINT('',(48.5,0.999999999999999,1.));
#1346=VECTOR('',#1347,1.);
#1347=DIRECTION('',(0.,0.,1.));
#1348=CARTESIAN_POINT('',(48.5,11.5,2.));
#1349=CARTESIAN_POINT('',(48.5,0.999999999999999,2.));
#1350=VECTOR('',#1351,1.);
#1351=DIRECTION('',(0.,1.,0.));
#1352=CARTESIAN_POINT('',(48.5,11.5,1.));
#1353=VECTOR('',#1354,1.);
#1354=DIRECTION('',(0.,0.,1.));
#1355=CARTESIAN_POINT('',(1.,11.5,2.));
#1356=CARTESIAN_POINT('',(48.5,11.5,2.));
#1357=VECTOR('',#1358,1.);
#1358=DIRECTION('',(-1.,0.,0.));
#1359=CARTESIAN_POINT('',(1.,11.5,1.));
#1360=VECTOR('',#1361,1.);
#1361=DIRECTION('',(0.,0.,1.));
#1362=CARTESIAN_POINT('',(1.,11.5,2.));
#1363=VECTOR('',#1364,1.);
#1364=DIRECTION('',(0.,-1.,0.));
#1365=CARTESIAN_POINT('',(0.,12.5,2.));
#1366=CARTESIAN_POINT('',(0.,0.,2.));
#1367=CARTESIAN_POINT('',(-4.08551437129934E-34,12.5,2.));
#1368=VECTOR('',#1369,1.);
#1369=DIRECTION('',(3.26841149703947E-35,-1.,0.));
#1370=CARTESIAN_POINT('',(49.5,0.,2.));
#1371=CARTESIAN_POINT('',(0.,0.,2.));
#1372=VECTOR('',#1373,1.);
#1373=DIRECTION('',(1.,0.,0.));
#1374=CARTESIAN_POINT('',(49.5,12.5,2.));
#1375=CARTESIAN_POINT('',(49.5,0.,2.));
#1376=VECTOR('',#1377,1.);
#1377=DIRECTION('',(0.,1.,0.));
#1378=CARTESIAN_POINT('',(49.5,12.5,2.));
#1379=VECTOR('',#1380,1.);
#1380=DIRECTION('',(-1.,-3.58859967555606E-17,0.));
#1381=CARTESIAN_POINT('',(-8.17102874259867E-34,12.5,0.));
#1382=CARTESIAN_POINT('',(0.,0.,0.));
#1383=CARTESIAN_POINT('',(-8.17102874259867E-34,12.5,0.));
#1384=VECTOR('',#1385,1.);
#1385=DIRECTION('',(6.53682299407893E-35,-1.,0.));
#1386=CARTESIAN_POINT('',(0.,0.,0.));
#1387=VECTOR('',#1388,1.);
#1388=DIRECTION('',(0.,0.,1.));
#1389=CARTESIAN_POINT('',(-4.08551437129933E-34,12.5,0.));
#1390=VECTOR('',#1391,1.);
#1391=DIRECTION('',(-4.27642353614751E-50,0.,1.));
#1392=CARTESIAN_POINT('',(49.5,-8.88178419700125E-16,0.));
#1393=CARTESIAN_POINT('',(0.,0.,0.));
#1394=VECTOR('',#1395,1.);
#1395=DIRECTION('',(1.,0.,0.));
#1396=CARTESIAN_POINT('',(49.5,-8.88178419700125E-16,0.));
#1397=VECTOR('',#1398,1.);
#1398=DIRECTION('',(0.,4.44089209850063E-16,1.));
#1399=CARTESIAN_POINT('',(49.5,12.5,0.));
#1400=CARTESIAN_POINT('',(49.5,-1.77635683940025E-15,0.));
#1401=VECTOR('',#1402,1.);
#1402=DIRECTION('',(0.,1.,0.));
#1403=CARTESIAN_POINT('',(49.5,12.5,0.));
#1404=VECTOR('',#1405,1.);
#1405=DIRECTION('',(0.,0.,1.));
#1406=CARTESIAN_POINT('',(49.5,12.5,0.));
#1407=VECTOR('',#1408,1.);
#1408=DIRECTION('',(-1.,-3.58859967555606E-17,0.));
ENDSEC;
END-ISO-10303-21;
