ISO-10303-21;
HEADER;
FILE_DESCRIPTION(('STEP AP242'),
    '1');
FILE_NAME('NumberTablet_109',
    '',
    ('UNSPECIFIED'),
    ('UNSPECIFIED'),
    'C3D Converter',
    'C3D Toolkit',
    '');
FILE_SCHEMA(('AP242_MANAGED_MODEL_BASED_3D_ENGINEERING_MIM_LF { 1 0 10303 442 1 1 4 }'));
ENDSEC;

DATA;
#1=PRODUCT_DEFINITION('','UNSPECIFIED',#28,#31);
#2=SHAPE_DEFINITION_REPRESENTATION(#26,#3);
#3=SHAPE_REPRESENTATION('NONE',(#4),#8);
#4=AXIS2_PLACEMENT_3D('',#5,#6,#7);
#5=CARTESIAN_POINT('',(0.,0.,0.));
#6=DIRECTION('',(0.,0.,1.));
#7=DIRECTION('',(1.,0.,0.));
#8=(GEOMETRIC_REPRESENTATION_CONTEXT(3)GLOBAL_UNCERTAINTY_ASSIGNED_CONTEXT((#10))
GLOBAL_UNIT_ASSIGNED_CONTEXT((#9,#11,#12))REPRESENTATION_CONTEXT('NONE','NONE'));
#9=(LENGTH_UNIT()NAMED_UNIT(*)SI_UNIT(.MILLI.,.METRE.));
#10=UNCERTAINTY_MEASURE_WITH_UNIT(LENGTH_MEASURE(1.E-5),#9,'NONE','NONE');
#11=(NAMED_UNIT(*)PLANE_ANGLE_UNIT()SI_UNIT($,.RADIAN.));
#12=(NAMED_UNIT(*)SI_UNIT($,.STERADIAN.)SOLID_ANGLE_UNIT());
#13=MANIFOLD_SOLID_BREP('',#14);
#14=CLOSED_SHELL('',(#53,#54,#55,#56,#57,#58,#59,#60,#61,#62,#63,#64,#65,#66,#67,
#68,#69,#70,#71,#72,#73,#74,#75,#76,#77,#78,#79,#80,#81,#82,#83,#84,#85,#86,#87,
#88,#89,#90,#91,#92,#93,#94,#95,#96,#97,#98,#99,#100,#101,#102,#103,#104,#105,#106,
#107,#108,#109,#110,#111,#112,#113));
#15=COLOUR_RGB('',0.564705882352941,0.564705882352941,0.564705882352941);
#16=FILL_AREA_STYLE_COLOUR('',#15);
#17=FILL_AREA_STYLE($,(#16));
#18=SURFACE_STYLE_FILL_AREA(#17);
#19=SURFACE_SIDE_STYLE('',(#18));
#20=SURFACE_STYLE_USAGE(.BOTH.,#19);
#21=PRESENTATION_STYLE_ASSIGNMENT((#20));
#22=MECHANICAL_DESIGN_GEOMETRIC_PRESENTATION_REPRESENTATION('NONE',(#23),#8);
#23=STYLED_ITEM('',(#21),#13);
#24=ADVANCED_BREP_SHAPE_REPRESENTATION('NONE',(#13),#8);
#25=SHAPE_REPRESENTATION_RELATIONSHIP('','',#3,#24);
#26=PRODUCT_DEFINITION_SHAPE('NONE','NONE',#1);
#27=MECHANICAL_CONTEXT('NONE',#32,'mechanical');
#28=PRODUCT_DEFINITION_FORMATION_WITH_SPECIFIED_SOURCE('ANY','UNSPECIFIED',#29,.NOT_KNOWN.);
#29=PRODUCT('','\X2\0414043504420430043B044C\X0\','NONE',(#27));
#30=PRODUCT_RELATED_PRODUCT_CATEGORY('detail','',(#29));
#31=DESIGN_CONTEXT('detailed design',#32,'design');
#32=APPLICATION_CONTEXT('configuration controlled 3d designs of mechanical parts and assemblies');
#33=APPLICATION_PROTOCOL_DEFINITION('international standard','config_control_design',
1994,#32);
#34=CC_DESIGN_DATE_AND_TIME_ASSIGNMENT(#35,#39,(#1));
#35=DATE_AND_TIME(#36,#37);
#36=CALENDAR_DATE(0,1,1);
#37=LOCAL_TIME(0,0,0.,#38);
#38=COORDINATED_UNIVERSAL_TIME_OFFSET(0,0,.AHEAD.);
#39=DATE_TIME_ROLE('creation_date');
#40=CC_DESIGN_APPROVAL(#41,(#1));
#41=APPROVAL(#42,'UNSPECIFIED');
#42=APPROVAL_STATUS('not_yet_approved');
#43=APPROVAL_DATE_TIME(#44,#41);
#44=DATE_AND_TIME(#45,#46);
#45=CALENDAR_DATE(0,1,1);
#46=LOCAL_TIME(0,0,0.,#47);
#47=COORDINATED_UNIVERSAL_TIME_OFFSET(0,0,.AHEAD.);
#48=PERSON('UNSPECIFIED','Cybermeatball','UNSPECIFIED',('UNSPECIFIED'),('UNSPECIFIED'),
('UNSPECIFIED'));
#49=ORGANIZATION('UNSPECIFIED','UNSPECIFIED','UNSPECIFIED');
#50=PERSON_AND_ORGANIZATION(#48,#49);
#51=PERSON_AND_ORGANIZATION_ROLE('creator');
#52=CC_DESIGN_PERSON_AND_ORGANIZATION_ASSIGNMENT(#50,#51,(#28,#1));
#53=ADVANCED_FACE('',(#114),#116,.T.);
#54=ADVANCED_FACE('',(#121),#123,.T.);
#55=ADVANCED_FACE('',(#128,#130,#132,#134),#136,.T.);
#56=ADVANCED_FACE('',(#141),#143,.T.);
#57=ADVANCED_FACE('',(#147),#149,.T.);
#58=ADVANCED_FACE('',(#153),#155,.T.);
#59=ADVANCED_FACE('',(#159),#161,.T.);
#60=ADVANCED_FACE('',(#165),#167,.T.);
#61=ADVANCED_FACE('',(#171),#173,.T.);
#62=ADVANCED_FACE('',(#177),#179,.T.);
#63=ADVANCED_FACE('',(#183),#185,.T.);
#64=ADVANCED_FACE('',(#189),#191,.T.);
#65=ADVANCED_FACE('',(#196),#198,.T.);
#66=ADVANCED_FACE('',(#203),#205,.T.);
#67=ADVANCED_FACE('',(#210),#212,.T.);
#68=ADVANCED_FACE('',(#216),#218,.T.);
#69=ADVANCED_FACE('',(#222),#224,.F.);
#70=ADVANCED_FACE('',(#228),#230,.F.);
#71=ADVANCED_FACE('',(#234),#236,.F.);
#72=ADVANCED_FACE('',(#240),#242,.F.);
#73=ADVANCED_FACE('',(#246),#248,.F.);
#74=ADVANCED_FACE('',(#252),#254,.F.);
#75=ADVANCED_FACE('',(#258),#260,.F.);
#76=ADVANCED_FACE('',(#264),#266,.F.);
#77=ADVANCED_FACE('',(#270),#272,.T.);
#78=ADVANCED_FACE('',(#276),#278,.T.);
#79=ADVANCED_FACE('',(#282),#284,.T.);
#80=ADVANCED_FACE('',(#288),#290,.T.);
#81=ADVANCED_FACE('',(#294),#296,.T.);
#82=ADVANCED_FACE('',(#300),#302,.T.);
#83=ADVANCED_FACE('',(#306),#308,.T.);
#84=ADVANCED_FACE('',(#312),#314,.T.);
#85=ADVANCED_FACE('',(#318),#320,.T.);
#86=ADVANCED_FACE('',(#324),#326,.T.);
#87=ADVANCED_FACE('',(#330),#332,.F.);
#88=ADVANCED_FACE('',(#336),#338,.F.);
#89=ADVANCED_FACE('',(#342),#344,.F.);
#90=ADVANCED_FACE('',(#348),#350,.F.);
#91=ADVANCED_FACE('',(#354),#356,.F.);
#92=ADVANCED_FACE('',(#360),#362,.F.);
#93=ADVANCED_FACE('',(#366),#368,.F.);
#94=ADVANCED_FACE('',(#372),#374,.F.);
#95=ADVANCED_FACE('',(#378),#380,.T.);
#96=ADVANCED_FACE('',(#385),#387,.T.);
#97=ADVANCED_FACE('',(#392),#394,.T.);
#98=ADVANCED_FACE('',(#399),#401,.T.);
#99=ADVANCED_FACE('',(#406),#408,.T.);
#100=ADVANCED_FACE('',(#413),#415,.T.);
#101=ADVANCED_FACE('',(#420),#422,.F.);
#102=ADVANCED_FACE('',(#427),#429,.F.);
#103=ADVANCED_FACE('',(#434),#436,.F.);
#104=ADVANCED_FACE('',(#441),#443,.F.);
#105=ADVANCED_FACE('',(#448,#450),#452,.T.);
#106=ADVANCED_FACE('',(#457,#459),#461,.T.);
#107=ADVANCED_FACE('',(#466),#468,.T.);
#108=ADVANCED_FACE('',(#473,#475),#477,.T.);
#109=ADVANCED_FACE('',(#482),#484,.T.);
#110=ADVANCED_FACE('',(#489),#491,.T.);
#111=ADVANCED_FACE('',(#496),#498,.T.);
#112=ADVANCED_FACE('',(#503),#505,.T.);
#113=ADVANCED_FACE('',(#510),#512,.F.);
#114=FACE_BOUND('',#115,.T.);
#115=EDGE_LOOP('',(#517,#518,#519,#520,#521,#522,#523,#524));
#116=PLANE('',#117);
#117=AXIS2_PLACEMENT_3D('',#118,#119,#120);
#118=CARTESIAN_POINT('',(0.,0.,1.));
#119=DIRECTION('',(0.,0.,1.));
#120=DIRECTION('',(1.,0.,0.));
#121=FACE_BOUND('',#122,.T.);
#122=EDGE_LOOP('',(#525,#526,#527,#528,#529,#530,#531,#532));
#123=PLANE('',#124);
#124=AXIS2_PLACEMENT_3D('',#125,#126,#127);
#125=CARTESIAN_POINT('',(0.,0.,1.));
#126=DIRECTION('',(0.,0.,1.));
#127=DIRECTION('',(1.,0.,0.));
#128=FACE_BOUND('',#129,.T.);
#129=EDGE_LOOP('',(#533,#534,#535,#536));
#130=FACE_BOUND('',#131,.T.);
#131=EDGE_LOOP('',(#537,#538,#539,#540,#541,#542));
#132=FACE_BOUND('',#133,.T.);
#133=EDGE_LOOP('',(#543,#544,#545,#546,#547,#548,#549,#550,#551,#552));
#134=FACE_BOUND('',#135,.T.);
#135=EDGE_LOOP('',(#553,#554,#555,#556,#557,#558,#559,#560,#561,#562,#563,#564,#565));
#136=PLANE('',#137);
#137=AXIS2_PLACEMENT_3D('',#138,#139,#140);
#138=CARTESIAN_POINT('',(0.,0.,1.));
#139=DIRECTION('',(0.,0.,1.));
#140=DIRECTION('',(1.,0.,0.));
#141=FACE_BOUND('',#142,.T.);
#142=EDGE_LOOP('',(#566,#567,#568,#569));
#143=SURFACE_OF_LINEAR_EXTRUSION('',#144,#145);
#144=B_SPLINE_CURVE_WITH_KNOTS('',2,
(#570,#571,#572),
.UNSPECIFIED.,.F.,.F.,
(3,3),
(0.,1.),
.UNSPECIFIED.);
#145=VECTOR('',#146,1.);
#146=DIRECTION('',(0.,0.,1.));
#147=FACE_BOUND('',#148,.T.);
#148=EDGE_LOOP('',(#573,#574,#575,#576));
#149=SURFACE_OF_LINEAR_EXTRUSION('',#150,#151);
#150=B_SPLINE_CURVE_WITH_KNOTS('',2,
(#577,#578,#579),
.UNSPECIFIED.,.F.,.F.,
(3,3),
(0.,1.),
.UNSPECIFIED.);
#151=VECTOR('',#152,1.);
#152=DIRECTION('',(0.,0.,1.));
#153=FACE_BOUND('',#154,.T.);
#154=EDGE_LOOP('',(#580,#581,#582,#583));
#155=SURFACE_OF_LINEAR_EXTRUSION('',#156,#157);
#156=B_SPLINE_CURVE_WITH_KNOTS('',2,
(#584,#585,#586),
.UNSPECIFIED.,.F.,.F.,
(3,3),
(0.,1.),
.UNSPECIFIED.);
#157=VECTOR('',#158,1.);
#158=DIRECTION('',(0.,0.,1.));
#159=FACE_BOUND('',#160,.T.);
#160=EDGE_LOOP('',(#587,#588,#589,#590));
#161=SURFACE_OF_LINEAR_EXTRUSION('',#162,#163);
#162=B_SPLINE_CURVE_WITH_KNOTS('',2,
(#591,#592,#593),
.UNSPECIFIED.,.F.,.F.,
(3,3),
(0.,1.),
.UNSPECIFIED.);
#163=VECTOR('',#164,1.);
#164=DIRECTION('',(0.,0.,1.));
#165=FACE_BOUND('',#166,.T.);
#166=EDGE_LOOP('',(#594,#595,#596,#597));
#167=SURFACE_OF_LINEAR_EXTRUSION('',#168,#169);
#168=B_SPLINE_CURVE_WITH_KNOTS('',2,
(#598,#599,#600),
.UNSPECIFIED.,.F.,.F.,
(3,3),
(0.,1.),
.UNSPECIFIED.);
#169=VECTOR('',#170,1.);
#170=DIRECTION('',(0.,0.,1.));
#171=FACE_BOUND('',#172,.T.);
#172=EDGE_LOOP('',(#601,#602,#603,#604));
#173=SURFACE_OF_LINEAR_EXTRUSION('',#174,#175);
#174=B_SPLINE_CURVE_WITH_KNOTS('',2,
(#605,#606,#607),
.UNSPECIFIED.,.F.,.F.,
(3,3),
(0.,1.),
.UNSPECIFIED.);
#175=VECTOR('',#176,1.);
#176=DIRECTION('',(0.,0.,1.));
#177=FACE_BOUND('',#178,.T.);
#178=EDGE_LOOP('',(#608,#609,#610,#611));
#179=SURFACE_OF_LINEAR_EXTRUSION('',#180,#181);
#180=B_SPLINE_CURVE_WITH_KNOTS('',2,
(#612,#613,#614),
.UNSPECIFIED.,.F.,.F.,
(3,3),
(0.,1.),
.UNSPECIFIED.);
#181=VECTOR('',#182,1.);
#182=DIRECTION('',(0.,0.,1.));
#183=FACE_BOUND('',#184,.T.);
#184=EDGE_LOOP('',(#615,#616,#617,#618));
#185=SURFACE_OF_LINEAR_EXTRUSION('',#186,#187);
#186=B_SPLINE_CURVE_WITH_KNOTS('',2,
(#619,#620,#621),
.UNSPECIFIED.,.F.,.F.,
(3,3),
(0.,1.),
.UNSPECIFIED.);
#187=VECTOR('',#188,1.);
#188=DIRECTION('',(0.,0.,1.));
#189=FACE_BOUND('',#190,.T.);
#190=EDGE_LOOP('',(#622,#623,#624,#625));
#191=PLANE('',#192);
#192=AXIS2_PLACEMENT_3D('',#193,#194,#195);
#193=CARTESIAN_POINT('',(32.1180589600955,5.76664790795942,1.));
#194=DIRECTION('',(-0.765143178943849,0.643860167828156,0.));
#195=DIRECTION('',(-0.643860167828156,-0.765143178943849,0.));
#196=FACE_BOUND('',#197,.T.);
#197=EDGE_LOOP('',(#626,#627,#628,#629));
#198=PLANE('',#199);
#199=AXIS2_PLACEMENT_3D('',#200,#201,#202);
#200=CARTESIAN_POINT('',(29.2217644182477,2.32478254085278,1.));
#201=DIRECTION('',(0.,-1.,0.));
#202=DIRECTION('',(1.,0.,0.));
#203=FACE_BOUND('',#204,.T.);
#204=EDGE_LOOP('',(#630,#631,#632,#633));
#205=PLANE('',#206);
#206=AXIS2_PLACEMENT_3D('',#207,#208,#209);
#207=CARTESIAN_POINT('',(31.4669524622954,2.32478254085278,1.));
#208=DIRECTION('',(0.775852102572932,-0.630914823833741,0.));
#209=DIRECTION('',(0.630914823833741,0.775852102572932,0.));
#210=FACE_BOUND('',#211,.T.);
#211=EDGE_LOOP('',(#634,#635,#636,#637));
#212=SURFACE_OF_LINEAR_EXTRUSION('',#213,#214);
#213=B_SPLINE_CURVE_WITH_KNOTS('',2,
(#638,#639,#640),
.UNSPECIFIED.,.F.,.F.,
(3,3),
(0.,1.),
.UNSPECIFIED.);
#214=VECTOR('',#215,1.);
#215=DIRECTION('',(0.,0.,1.));
#216=FACE_BOUND('',#217,.T.);
#217=EDGE_LOOP('',(#641,#642,#643,#644));
#218=SURFACE_OF_LINEAR_EXTRUSION('',#219,#220);
#219=B_SPLINE_CURVE_WITH_KNOTS('',2,
(#645,#646,#647),
.UNSPECIFIED.,.F.,.F.,
(3,3),
(0.,1.),
.UNSPECIFIED.);
#220=VECTOR('',#221,1.);
#221=DIRECTION('',(0.,0.,1.));
#222=FACE_BOUND('',#223,.T.);
#223=EDGE_LOOP('',(#648,#649,#650,#651));
#224=SURFACE_OF_LINEAR_EXTRUSION('',#225,#226);
#225=B_SPLINE_CURVE_WITH_KNOTS('',2,
(#652,#653,#654),
.UNSPECIFIED.,.F.,.F.,
(3,3),
(0.,1.),
.UNSPECIFIED.);
#226=VECTOR('',#227,1.);
#227=DIRECTION('',(0.,0.,1.));
#228=FACE_BOUND('',#229,.T.);
#229=EDGE_LOOP('',(#655,#656,#657,#658));
#230=SURFACE_OF_LINEAR_EXTRUSION('',#231,#232);
#231=B_SPLINE_CURVE_WITH_KNOTS('',2,
(#659,#660,#661),
.UNSPECIFIED.,.F.,.F.,
(3,3),
(0.,1.),
.UNSPECIFIED.);
#232=VECTOR('',#233,1.);
#233=DIRECTION('',(0.,0.,1.));
#234=FACE_BOUND('',#235,.T.);
#235=EDGE_LOOP('',(#662,#663,#664,#665));
#236=SURFACE_OF_LINEAR_EXTRUSION('',#237,#238);
#237=B_SPLINE_CURVE_WITH_KNOTS('',2,
(#666,#667,#668),
.UNSPECIFIED.,.F.,.F.,
(3,3),
(0.,1.),
.UNSPECIFIED.);
#238=VECTOR('',#239,1.);
#239=DIRECTION('',(0.,0.,1.));
#240=FACE_BOUND('',#241,.T.);
#241=EDGE_LOOP('',(#669,#670,#671,#672));
#242=SURFACE_OF_LINEAR_EXTRUSION('',#243,#244);
#243=B_SPLINE_CURVE_WITH_KNOTS('',2,
(#673,#674,#675),
.UNSPECIFIED.,.F.,.F.,
(3,3),
(0.,1.),
.UNSPECIFIED.);
#244=VECTOR('',#245,1.);
#245=DIRECTION('',(0.,0.,1.));
#246=FACE_BOUND('',#247,.T.);
#247=EDGE_LOOP('',(#676,#677,#678,#679));
#248=SURFACE_OF_LINEAR_EXTRUSION('',#249,#250);
#249=B_SPLINE_CURVE_WITH_KNOTS('',2,
(#680,#681,#682),
.UNSPECIFIED.,.F.,.F.,
(3,3),
(0.,1.),
.UNSPECIFIED.);
#250=VECTOR('',#251,1.);
#251=DIRECTION('',(0.,0.,1.));
#252=FACE_BOUND('',#253,.T.);
#253=EDGE_LOOP('',(#683,#684,#685,#686));
#254=SURFACE_OF_LINEAR_EXTRUSION('',#255,#256);
#255=B_SPLINE_CURVE_WITH_KNOTS('',2,
(#687,#688,#689),
.UNSPECIFIED.,.F.,.F.,
(3,3),
(0.,1.),
.UNSPECIFIED.);
#256=VECTOR('',#257,1.);
#257=DIRECTION('',(0.,0.,1.));
#258=FACE_BOUND('',#259,.T.);
#259=EDGE_LOOP('',(#690,#691,#692,#693));
#260=SURFACE_OF_LINEAR_EXTRUSION('',#261,#262);
#261=B_SPLINE_CURVE_WITH_KNOTS('',2,
(#694,#695,#696),
.UNSPECIFIED.,.F.,.F.,
(3,3),
(0.,1.),
.UNSPECIFIED.);
#262=VECTOR('',#263,1.);
#263=DIRECTION('',(0.,0.,1.));
#264=FACE_BOUND('',#265,.T.);
#265=EDGE_LOOP('',(#697,#698,#699,#700));
#266=SURFACE_OF_LINEAR_EXTRUSION('',#267,#268);
#267=B_SPLINE_CURVE_WITH_KNOTS('',2,
(#701,#702,#703),
.UNSPECIFIED.,.F.,.F.,
(3,3),
(0.,1.),
.UNSPECIFIED.);
#268=VECTOR('',#269,1.);
#269=DIRECTION('',(0.,0.,1.));
#270=FACE_BOUND('',#271,.T.);
#271=EDGE_LOOP('',(#704,#705,#706,#707));
#272=SURFACE_OF_LINEAR_EXTRUSION('',#273,#274);
#273=B_SPLINE_CURVE_WITH_KNOTS('',2,
(#708,#709,#710),
.UNSPECIFIED.,.F.,.F.,
(3,3),
(0.,1.),
.UNSPECIFIED.);
#274=VECTOR('',#275,1.);
#275=DIRECTION('',(0.,0.,1.));
#276=FACE_BOUND('',#277,.T.);
#277=EDGE_LOOP('',(#711,#712,#713,#714));
#278=SURFACE_OF_LINEAR_EXTRUSION('',#279,#280);
#279=B_SPLINE_CURVE_WITH_KNOTS('',2,
(#715,#716,#717),
.UNSPECIFIED.,.F.,.F.,
(3,3),
(0.,1.),
.UNSPECIFIED.);
#280=VECTOR('',#281,1.);
#281=DIRECTION('',(0.,0.,1.));
#282=FACE_BOUND('',#283,.T.);
#283=EDGE_LOOP('',(#718,#719,#720,#721));
#284=SURFACE_OF_LINEAR_EXTRUSION('',#285,#286);
#285=B_SPLINE_CURVE_WITH_KNOTS('',2,
(#722,#723,#724),
.UNSPECIFIED.,.F.,.F.,
(3,3),
(0.,1.),
.UNSPECIFIED.);
#286=VECTOR('',#287,1.);
#287=DIRECTION('',(0.,0.,1.));
#288=FACE_BOUND('',#289,.T.);
#289=EDGE_LOOP('',(#725,#726,#727,#728));
#290=SURFACE_OF_LINEAR_EXTRUSION('',#291,#292);
#291=B_SPLINE_CURVE_WITH_KNOTS('',2,
(#729,#730,#731),
.UNSPECIFIED.,.F.,.F.,
(3,3),
(0.,1.),
.UNSPECIFIED.);
#292=VECTOR('',#293,1.);
#293=DIRECTION('',(0.,0.,1.));
#294=FACE_BOUND('',#295,.T.);
#295=EDGE_LOOP('',(#732,#733,#734,#735));
#296=SURFACE_OF_LINEAR_EXTRUSION('',#297,#298);
#297=B_SPLINE_CURVE_WITH_KNOTS('',2,
(#736,#737,#738),
.UNSPECIFIED.,.F.,.F.,
(3,3),
(0.,1.),
.UNSPECIFIED.);
#298=VECTOR('',#299,1.);
#299=DIRECTION('',(0.,0.,1.));
#300=FACE_BOUND('',#301,.T.);
#301=EDGE_LOOP('',(#739,#740,#741,#742));
#302=SURFACE_OF_LINEAR_EXTRUSION('',#303,#304);
#303=B_SPLINE_CURVE_WITH_KNOTS('',2,
(#743,#744,#745),
.UNSPECIFIED.,.F.,.F.,
(3,3),
(0.,1.),
.UNSPECIFIED.);
#304=VECTOR('',#305,1.);
#305=DIRECTION('',(0.,0.,1.));
#306=FACE_BOUND('',#307,.T.);
#307=EDGE_LOOP('',(#746,#747,#748,#749));
#308=SURFACE_OF_LINEAR_EXTRUSION('',#309,#310);
#309=B_SPLINE_CURVE_WITH_KNOTS('',2,
(#750,#751,#752),
.UNSPECIFIED.,.F.,.F.,
(3,3),
(0.,1.),
.UNSPECIFIED.);
#310=VECTOR('',#311,1.);
#311=DIRECTION('',(0.,0.,1.));
#312=FACE_BOUND('',#313,.T.);
#313=EDGE_LOOP('',(#753,#754,#755,#756));
#314=SURFACE_OF_LINEAR_EXTRUSION('',#315,#316);
#315=B_SPLINE_CURVE_WITH_KNOTS('',2,
(#757,#758,#759),
.UNSPECIFIED.,.F.,.F.,
(3,3),
(0.,1.),
.UNSPECIFIED.);
#316=VECTOR('',#317,1.);
#317=DIRECTION('',(0.,0.,1.));
#318=FACE_BOUND('',#319,.T.);
#319=EDGE_LOOP('',(#760,#761,#762,#763));
#320=SURFACE_OF_LINEAR_EXTRUSION('',#321,#322);
#321=B_SPLINE_CURVE_WITH_KNOTS('',2,
(#764,#765,#766),
.UNSPECIFIED.,.F.,.F.,
(3,3),
(0.,1.),
.UNSPECIFIED.);
#322=VECTOR('',#323,1.);
#323=DIRECTION('',(0.,0.,1.));
#324=FACE_BOUND('',#325,.T.);
#325=EDGE_LOOP('',(#767,#768,#769,#770));
#326=SURFACE_OF_LINEAR_EXTRUSION('',#327,#328);
#327=B_SPLINE_CURVE_WITH_KNOTS('',2,
(#771,#772,#773),
.UNSPECIFIED.,.F.,.F.,
(3,3),
(0.,1.),
.UNSPECIFIED.);
#328=VECTOR('',#329,1.);
#329=DIRECTION('',(0.,0.,1.));
#330=FACE_BOUND('',#331,.T.);
#331=EDGE_LOOP('',(#774,#775,#776,#777));
#332=SURFACE_OF_LINEAR_EXTRUSION('',#333,#334);
#333=B_SPLINE_CURVE_WITH_KNOTS('',2,
(#778,#779,#780),
.UNSPECIFIED.,.F.,.F.,
(3,3),
(0.,1.),
.UNSPECIFIED.);
#334=VECTOR('',#335,1.);
#335=DIRECTION('',(0.,0.,1.));
#336=FACE_BOUND('',#337,.T.);
#337=EDGE_LOOP('',(#781,#782,#783,#784));
#338=SURFACE_OF_LINEAR_EXTRUSION('',#339,#340);
#339=B_SPLINE_CURVE_WITH_KNOTS('',2,
(#785,#786,#787),
.UNSPECIFIED.,.F.,.F.,
(3,3),
(0.,1.),
.UNSPECIFIED.);
#340=VECTOR('',#341,1.);
#341=DIRECTION('',(0.,0.,1.));
#342=FACE_BOUND('',#343,.T.);
#343=EDGE_LOOP('',(#788,#789,#790,#791));
#344=SURFACE_OF_LINEAR_EXTRUSION('',#345,#346);
#345=B_SPLINE_CURVE_WITH_KNOTS('',2,
(#792,#793,#794),
.UNSPECIFIED.,.F.,.F.,
(3,3),
(0.,1.),
.UNSPECIFIED.);
#346=VECTOR('',#347,1.);
#347=DIRECTION('',(0.,0.,1.));
#348=FACE_BOUND('',#349,.T.);
#349=EDGE_LOOP('',(#795,#796,#797,#798));
#350=SURFACE_OF_LINEAR_EXTRUSION('',#351,#352);
#351=B_SPLINE_CURVE_WITH_KNOTS('',2,
(#799,#800,#801),
.UNSPECIFIED.,.F.,.F.,
(3,3),
(0.,1.),
.UNSPECIFIED.);
#352=VECTOR('',#353,1.);
#353=DIRECTION('',(0.,0.,1.));
#354=FACE_BOUND('',#355,.T.);
#355=EDGE_LOOP('',(#802,#803,#804,#805));
#356=SURFACE_OF_LINEAR_EXTRUSION('',#357,#358);
#357=B_SPLINE_CURVE_WITH_KNOTS('',2,
(#806,#807,#808),
.UNSPECIFIED.,.F.,.F.,
(3,3),
(0.,1.),
.UNSPECIFIED.);
#358=VECTOR('',#359,1.);
#359=DIRECTION('',(0.,0.,1.));
#360=FACE_BOUND('',#361,.T.);
#361=EDGE_LOOP('',(#809,#810,#811,#812));
#362=SURFACE_OF_LINEAR_EXTRUSION('',#363,#364);
#363=B_SPLINE_CURVE_WITH_KNOTS('',2,
(#813,#814,#815),
.UNSPECIFIED.,.F.,.F.,
(3,3),
(0.,1.),
.UNSPECIFIED.);
#364=VECTOR('',#365,1.);
#365=DIRECTION('',(0.,0.,1.));
#366=FACE_BOUND('',#367,.T.);
#367=EDGE_LOOP('',(#816,#817,#818,#819));
#368=SURFACE_OF_LINEAR_EXTRUSION('',#369,#370);
#369=B_SPLINE_CURVE_WITH_KNOTS('',2,
(#820,#821,#822),
.UNSPECIFIED.,.F.,.F.,
(3,3),
(0.,1.),
.UNSPECIFIED.);
#370=VECTOR('',#371,1.);
#371=DIRECTION('',(0.,0.,1.));
#372=FACE_BOUND('',#373,.T.);
#373=EDGE_LOOP('',(#823,#824,#825,#826));
#374=SURFACE_OF_LINEAR_EXTRUSION('',#375,#376);
#375=B_SPLINE_CURVE_WITH_KNOTS('',2,
(#827,#828,#829),
.UNSPECIFIED.,.F.,.F.,
(3,3),
(0.,1.),
.UNSPECIFIED.);
#376=VECTOR('',#377,1.);
#377=DIRECTION('',(0.,0.,1.));
#378=FACE_BOUND('',#379,.T.);
#379=EDGE_LOOP('',(#830,#831,#832,#833));
#380=PLANE('',#381);
#381=AXIS2_PLACEMENT_3D('',#382,#383,#384);
#382=CARTESIAN_POINT('',(16.0731974692736,8.95841587418611,1.));
#383=DIRECTION('',(0.146990753998729,-0.989137866143484,0.));
#384=DIRECTION('',(0.989137866143484,0.146990753998729,0.));
#385=FACE_BOUND('',#386,.T.);
#386=EDGE_LOOP('',(#834,#835,#836,#837));
#387=PLANE('',#388);
#388=AXIS2_PLACEMENT_3D('',#389,#390,#391);
#389=CARTESIAN_POINT('',(16.3314308026069,9.71829920751945,1.));
#390=DIRECTION('',(-0.946820961730437,0.321760883930677,0.));
#391=DIRECTION('',(-0.321760883930677,-0.946820961730437,0.));
#392=FACE_BOUND('',#393,.T.);
#393=EDGE_LOOP('',(#838,#839,#840,#841));
#394=PLANE('',#395);
#395=AXIS2_PLACEMENT_3D('',#396,#397,#398);
#396=CARTESIAN_POINT('',(20.1742391520894,10.3130825408528,1.));
#397=DIRECTION('',(-0.152956997207341,0.988232845540621,0.));
#398=DIRECTION('',(-0.988232845540621,-0.152956997207341,0.));
#399=FACE_BOUND('',#400,.T.);
#400=EDGE_LOOP('',(#842,#843,#844,#845));
#401=PLANE('',#402);
#402=AXIS2_PLACEMENT_3D('',#403,#404,#405);
#403=CARTESIAN_POINT('',(17.4594487688336,2.32478254085278,1.));
#404=DIRECTION('',(0.946817225303488,-0.32177187861683,0.));
#405=DIRECTION('',(0.32177187861683,0.946817225303488,0.));
#406=FACE_BOUND('',#407,.T.);
#407=EDGE_LOOP('',(#846,#847,#848,#849));
#408=PLANE('',#409);
#409=AXIS2_PLACEMENT_3D('',#410,#411,#412);
#410=CARTESIAN_POINT('',(15.361832102167,2.32478254085278,1.));
#411=DIRECTION('',(0.,-1.,0.));
#412=DIRECTION('',(1.,0.,0.));
#413=FACE_BOUND('',#414,.T.);
#414=EDGE_LOOP('',(#850,#851,#852,#853));
#415=PLANE('',#416);
#416=AXIS2_PLACEMENT_3D('',#417,#418,#419);
#417=CARTESIAN_POINT('',(17.6983014002519,9.19991431471407,1.));
#418=DIRECTION('',(-0.946817876209609,0.321769963312185,0.));
#419=DIRECTION('',(-0.321769963312185,-0.946817876209609,0.));
#420=FACE_BOUND('',#421,.T.);
#421=EDGE_LOOP('',(#854,#855,#856,#857));
#422=PLANE('',#423);
#423=AXIS2_PLACEMENT_3D('',#424,#425,#426);
#424=CARTESIAN_POINT('',(1.,0.999999999999999,1.));
#425=DIRECTION('',(0.,-1.,0.));
#426=DIRECTION('',(1.,0.,0.));
#427=FACE_BOUND('',#428,.T.);
#428=EDGE_LOOP('',(#858,#859,#860,#861));
#429=PLANE('',#430);
#430=AXIS2_PLACEMENT_3D('',#431,#432,#433);
#431=CARTESIAN_POINT('',(48.5,0.999999999999999,1.));
#432=DIRECTION('',(1.,0.,0.));
#433=DIRECTION('',(0.,1.,0.));
#434=FACE_BOUND('',#435,.T.);
#435=EDGE_LOOP('',(#862,#863,#864,#865));
#436=PLANE('',#437);
#437=AXIS2_PLACEMENT_3D('',#438,#439,#440);
#438=CARTESIAN_POINT('',(48.5,11.5,1.));
#439=DIRECTION('',(0.,1.,0.));
#440=DIRECTION('',(-1.,0.,0.));
#441=FACE_BOUND('',#442,.T.);
#442=EDGE_LOOP('',(#866,#867,#868,#869));
#443=PLANE('',#444);
#444=AXIS2_PLACEMENT_3D('',#445,#446,#447);
#445=CARTESIAN_POINT('',(1.,11.5,1.));
#446=DIRECTION('',(-1.,0.,0.));
#447=DIRECTION('',(0.,-1.,0.));
#448=FACE_BOUND('',#449,.T.);
#449=EDGE_LOOP('',(#870,#871,#872,#873,#874,#875,#876,#877,#878,#879,#880,#881,#882));
#450=FACE_BOUND('',#451,.T.);
#451=EDGE_LOOP('',(#883,#884,#885,#886,#887,#888,#889,#890));
#452=PLANE('',#453);
#453=AXIS2_PLACEMENT_3D('',#454,#455,#456);
#454=CARTESIAN_POINT('',(0.,0.,2.));
#455=DIRECTION('',(0.,0.,1.));
#456=DIRECTION('',(1.,0.,0.));
#457=FACE_BOUND('',#458,.T.);
#458=EDGE_LOOP('',(#891,#892,#893,#894,#895,#896,#897,#898,#899,#900));
#459=FACE_BOUND('',#460,.T.);
#460=EDGE_LOOP('',(#901,#902,#903,#904,#905,#906,#907,#908));
#461=PLANE('',#462);
#462=AXIS2_PLACEMENT_3D('',#463,#464,#465);
#463=CARTESIAN_POINT('',(0.,0.,2.));
#464=DIRECTION('',(0.,0.,1.));
#465=DIRECTION('',(1.,0.,0.));
#466=FACE_BOUND('',#467,.T.);
#467=EDGE_LOOP('',(#909,#910,#911,#912,#913,#914));
#468=PLANE('',#469);
#469=AXIS2_PLACEMENT_3D('',#470,#471,#472);
#470=CARTESIAN_POINT('',(0.,0.,2.));
#471=DIRECTION('',(0.,0.,1.));
#472=DIRECTION('',(1.,0.,0.));
#473=FACE_BOUND('',#474,.T.);
#474=EDGE_LOOP('',(#915,#916,#917,#918));
#475=FACE_BOUND('',#476,.T.);
#476=EDGE_LOOP('',(#919,#920,#921,#922));
#477=PLANE('',#478);
#478=AXIS2_PLACEMENT_3D('',#479,#480,#481);
#479=CARTESIAN_POINT('',(0.,0.,2.));
#480=DIRECTION('',(0.,0.,1.));
#481=DIRECTION('',(1.,0.,0.));
#482=FACE_BOUND('',#483,.T.);
#483=EDGE_LOOP('',(#923,#924,#925,#926));
#484=PLANE('',#485);
#485=AXIS2_PLACEMENT_3D('',#486,#487,#488);
#486=CARTESIAN_POINT('',(-8.17102874259867E-34,12.5,0.));
#487=DIRECTION('',(-1.,-6.53682299407893E-35,0.));
#488=DIRECTION('',(6.53682299407893E-35,-1.,0.));
#489=FACE_BOUND('',#490,.T.);
#490=EDGE_LOOP('',(#927,#928,#929,#930));
#491=PLANE('',#492);
#492=AXIS2_PLACEMENT_3D('',#493,#494,#495);
#493=CARTESIAN_POINT('',(0.,0.,0.));
#494=DIRECTION('',(0.,-1.,0.));
#495=DIRECTION('',(1.,0.,0.));
#496=FACE_BOUND('',#497,.T.);
#497=EDGE_LOOP('',(#931,#932,#933,#934));
#498=PLANE('',#499);
#499=AXIS2_PLACEMENT_3D('',#500,#501,#502);
#500=CARTESIAN_POINT('',(49.5,-1.77635683940025E-15,0.));
#501=DIRECTION('',(1.,0.,0.));
#502=DIRECTION('',(0.,1.,0.));
#503=FACE_BOUND('',#504,.T.);
#504=EDGE_LOOP('',(#935,#936,#937,#938));
#505=PLANE('',#506);
#506=AXIS2_PLACEMENT_3D('',#507,#508,#509);
#507=CARTESIAN_POINT('',(49.5,12.5,0.));
#508=DIRECTION('',(-3.58859967555606E-17,1.,0.));
#509=DIRECTION('',(-1.,-3.58859967555606E-17,0.));
#510=FACE_BOUND('',#511,.T.);
#511=EDGE_LOOP('',(#939,#940,#941,#942));
#512=PLANE('',#513);
#513=AXIS2_PLACEMENT_3D('',#514,#515,#516);
#514=CARTESIAN_POINT('',(0.,0.,0.));
#515=DIRECTION('',(0.,0.,1.));
#516=DIRECTION('',(1.,0.,0.));
#517=ORIENTED_EDGE('',*,*,#943,.F.);
#518=ORIENTED_EDGE('',*,*,#944,.F.);
#519=ORIENTED_EDGE('',*,*,#945,.F.);
#520=ORIENTED_EDGE('',*,*,#946,.F.);
#521=ORIENTED_EDGE('',*,*,#947,.F.);
#522=ORIENTED_EDGE('',*,*,#948,.F.);
#523=ORIENTED_EDGE('',*,*,#949,.F.);
#524=ORIENTED_EDGE('',*,*,#950,.F.);
#525=ORIENTED_EDGE('',*,*,#951,.F.);
#526=ORIENTED_EDGE('',*,*,#952,.F.);
#527=ORIENTED_EDGE('',*,*,#953,.F.);
#528=ORIENTED_EDGE('',*,*,#954,.F.);
#529=ORIENTED_EDGE('',*,*,#955,.F.);
#530=ORIENTED_EDGE('',*,*,#956,.F.);
#531=ORIENTED_EDGE('',*,*,#957,.F.);
#532=ORIENTED_EDGE('',*,*,#958,.F.);
#533=ORIENTED_EDGE('',*,*,#959,.F.);
#534=ORIENTED_EDGE('',*,*,#960,.F.);
#535=ORIENTED_EDGE('',*,*,#961,.F.);
#536=ORIENTED_EDGE('',*,*,#962,.F.);
#537=ORIENTED_EDGE('',*,*,#963,.F.);
#538=ORIENTED_EDGE('',*,*,#964,.F.);
#539=ORIENTED_EDGE('',*,*,#965,.F.);
#540=ORIENTED_EDGE('',*,*,#966,.F.);
#541=ORIENTED_EDGE('',*,*,#967,.F.);
#542=ORIENTED_EDGE('',*,*,#968,.F.);
#543=ORIENTED_EDGE('',*,*,#969,.F.);
#544=ORIENTED_EDGE('',*,*,#970,.F.);
#545=ORIENTED_EDGE('',*,*,#971,.F.);
#546=ORIENTED_EDGE('',*,*,#972,.F.);
#547=ORIENTED_EDGE('',*,*,#973,.F.);
#548=ORIENTED_EDGE('',*,*,#974,.F.);
#549=ORIENTED_EDGE('',*,*,#975,.F.);
#550=ORIENTED_EDGE('',*,*,#976,.F.);
#551=ORIENTED_EDGE('',*,*,#977,.F.);
#552=ORIENTED_EDGE('',*,*,#978,.F.);
#553=ORIENTED_EDGE('',*,*,#979,.F.);
#554=ORIENTED_EDGE('',*,*,#980,.F.);
#555=ORIENTED_EDGE('',*,*,#981,.F.);
#556=ORIENTED_EDGE('',*,*,#982,.F.);
#557=ORIENTED_EDGE('',*,*,#983,.F.);
#558=ORIENTED_EDGE('',*,*,#984,.F.);
#559=ORIENTED_EDGE('',*,*,#985,.F.);
#560=ORIENTED_EDGE('',*,*,#986,.F.);
#561=ORIENTED_EDGE('',*,*,#987,.F.);
#562=ORIENTED_EDGE('',*,*,#988,.F.);
#563=ORIENTED_EDGE('',*,*,#989,.F.);
#564=ORIENTED_EDGE('',*,*,#990,.F.);
#565=ORIENTED_EDGE('',*,*,#991,.F.);
#566=ORIENTED_EDGE('',*,*,#991,.T.);
#567=ORIENTED_EDGE('',*,*,#992,.T.);
#568=ORIENTED_EDGE('',*,*,#993,.F.);
#569=ORIENTED_EDGE('',*,*,#994,.F.);
#570=CARTESIAN_POINT('',(35.5588329365967,7.89846197550602,1.));
#571=CARTESIAN_POINT('',(35.9431732875542,9.02939037051123,1.));
#572=CARTESIAN_POINT('',(35.4526192589181,9.70086980516447,1.));
#573=ORIENTED_EDGE('',*,*,#990,.T.);
#574=ORIENTED_EDGE('',*,*,#995,.T.);
#575=ORIENTED_EDGE('',*,*,#996,.F.);
#576=ORIENTED_EDGE('',*,*,#992,.F.);
#577=CARTESIAN_POINT('',(35.4526192589181,9.70086980516447,1.));
#578=CARTESIAN_POINT('',(34.962065230282,10.3723492075194,1.));
#579=CARTESIAN_POINT('',(33.7543084402715,10.3723492075194,1.));
#580=ORIENTED_EDGE('',*,*,#989,.T.);
#581=ORIENTED_EDGE('',*,*,#997,.T.);
#582=ORIENTED_EDGE('',*,*,#998,.F.);
#583=ORIENTED_EDGE('',*,*,#995,.F.);
#584=CARTESIAN_POINT('',(33.7543084402715,10.3723492075194,1.));
#585=CARTESIAN_POINT('',(32.4994227677301,10.3723492075194,1.));
#586=CARTESIAN_POINT('',(31.3818723778621,9.58900066933374,1.));
#587=ORIENTED_EDGE('',*,*,#988,.T.);
#588=ORIENTED_EDGE('',*,*,#999,.T.);
#589=ORIENTED_EDGE('',*,*,#1000,.F.);
#590=ORIENTED_EDGE('',*,*,#997,.F.);
#591=CARTESIAN_POINT('',(31.3818723778621,9.58900066933374,1.));
#592=CARTESIAN_POINT('',(30.2643219879941,8.80565209884978,1.));
#593=CARTESIAN_POINT('',(29.873995412373,7.65712890208469,1.));
#594=ORIENTED_EDGE('',*,*,#987,.T.);
#595=ORIENTED_EDGE('',*,*,#1001,.T.);
#596=ORIENTED_EDGE('',*,*,#1002,.F.);
#597=ORIENTED_EDGE('',*,*,#999,.F.);
#598=CARTESIAN_POINT('',(29.873995412373,7.65712890208469,1.));
#599=CARTESIAN_POINT('',(29.5557347559807,6.72063621191913,1.));
#600=CARTESIAN_POINT('',(29.9243324167726,6.17582604305262,1.));
#601=ORIENTED_EDGE('',*,*,#986,.T.);
#602=ORIENTED_EDGE('',*,*,#1003,.T.);
#603=ORIENTED_EDGE('',*,*,#1004,.F.);
#604=ORIENTED_EDGE('',*,*,#1001,.F.);
#605=CARTESIAN_POINT('',(29.9243324167726,6.17582604305262,1.));
#606=CARTESIAN_POINT('',(30.2929300452663,5.63101587418611,1.));
#607=CARTESIAN_POINT('',(31.2531691289621,5.63101587418611,1.));
#608=ORIENTED_EDGE('',*,*,#985,.T.);
#609=ORIENTED_EDGE('',*,*,#1005,.T.);
#610=ORIENTED_EDGE('',*,*,#1006,.F.);
#611=ORIENTED_EDGE('',*,*,#1003,.F.);
#612=CARTESIAN_POINT('',(31.2531691289621,5.63101587418611,1.));
#613=CARTESIAN_POINT('',(31.4181037618554,5.63101587418611,1.));
#614=CARTESIAN_POINT('',(31.6294066208875,5.66344387932332,1.));
#615=ORIENTED_EDGE('',*,*,#984,.T.);
#616=ORIENTED_EDGE('',*,*,#1007,.T.);
#617=ORIENTED_EDGE('',*,*,#1008,.F.);
#618=ORIENTED_EDGE('',*,*,#1005,.F.);
#619=CARTESIAN_POINT('',(31.6294066208875,5.66344387932332,1.));
#620=CARTESIAN_POINT('',(31.8407094799196,5.69587188446052,1.));
#621=CARTESIAN_POINT('',(32.1180589600955,5.76664790795942,1.));
#622=ORIENTED_EDGE('',*,*,#983,.T.);
#623=ORIENTED_EDGE('',*,*,#1009,.T.);
#624=ORIENTED_EDGE('',*,*,#1010,.F.);
#625=ORIENTED_EDGE('',*,*,#1007,.F.);
#626=ORIENTED_EDGE('',*,*,#982,.T.);
#627=ORIENTED_EDGE('',*,*,#1011,.T.);
#628=ORIENTED_EDGE('',*,*,#1012,.F.);
#629=ORIENTED_EDGE('',*,*,#1009,.F.);
#630=ORIENTED_EDGE('',*,*,#981,.T.);
#631=ORIENTED_EDGE('',*,*,#1013,.T.);
#632=ORIENTED_EDGE('',*,*,#1014,.F.);
#633=ORIENTED_EDGE('',*,*,#1011,.F.);
#634=ORIENTED_EDGE('',*,*,#980,.T.);
#635=ORIENTED_EDGE('',*,*,#1015,.T.);
#636=ORIENTED_EDGE('',*,*,#1016,.F.);
#637=ORIENTED_EDGE('',*,*,#1013,.F.);
#638=CARTESIAN_POINT('',(33.7242120790396,5.10059244980728,1.));
#639=CARTESIAN_POINT('',(33.7835779659703,5.17126928534046,1.));
#640=CARTESIAN_POINT('',(33.9043602596556,5.3185429696313,1.));
#641=ORIENTED_EDGE('',*,*,#979,.T.);
#642=ORIENTED_EDGE('',*,*,#994,.T.);
#643=ORIENTED_EDGE('',*,*,#1017,.F.);
#644=ORIENTED_EDGE('',*,*,#1015,.F.);
#645=CARTESIAN_POINT('',(33.9043602596556,5.3185429696313,1.));
#646=CARTESIAN_POINT('',(35.2345529821194,6.94424218989528,1.));
#647=CARTESIAN_POINT('',(35.5588329365967,7.89846197550602,1.));
#648=ORIENTED_EDGE('',*,*,#952,.T.);
#649=ORIENTED_EDGE('',*,*,#1018,.T.);
#650=ORIENTED_EDGE('',*,*,#1019,.F.);
#651=ORIENTED_EDGE('',*,*,#1020,.F.);
#652=CARTESIAN_POINT('',(32.9043510327794,7.04853764143517,1.));
#653=CARTESIAN_POINT('',(33.2645316370366,7.47545937638596,1.));
#654=CARTESIAN_POINT('',(33.5106602596556,8.19972318402055,1.));
#655=ORIENTED_EDGE('',*,*,#953,.T.);
#656=ORIENTED_EDGE('',*,*,#1020,.T.);
#657=ORIENTED_EDGE('',*,*,#1021,.F.);
#658=ORIENTED_EDGE('',*,*,#1022,.F.);
#659=CARTESIAN_POINT('',(33.5106602596556,8.19972318402055,1.));
#660=CARTESIAN_POINT('',(33.7047983037033,8.77092552322861,1.));
#661=CARTESIAN_POINT('',(33.6400745871142,9.10067903204069,1.));
#662=ORIENTED_EDGE('',*,*,#954,.T.);
#663=ORIENTED_EDGE('',*,*,#1022,.T.);
#664=ORIENTED_EDGE('',*,*,#1023,.F.);
#665=ORIENTED_EDGE('',*,*,#1024,.F.);
#666=CARTESIAN_POINT('',(33.6400745871142,9.10067903204069,1.));
#667=CARTESIAN_POINT('',(33.5753509028234,9.43043254085278,1.));
#668=CARTESIAN_POINT('',(33.2806712082581,9.43043254085278,1.));
#669=ORIENTED_EDGE('',*,*,#955,.T.);
#670=ORIENTED_EDGE('',*,*,#1024,.T.);
#671=ORIENTED_EDGE('',*,*,#1025,.F.);
#672=ORIENTED_EDGE('',*,*,#1026,.F.);
#673=CARTESIAN_POINT('',(33.2806712082581,9.43043254085278,1.));
#674=CARTESIAN_POINT('',(32.921168609138,9.43043254085278,1.));
#675=CARTESIAN_POINT('',(32.5718193888741,9.00939777800341,1.));
#676=ORIENTED_EDGE('',*,*,#956,.T.);
#677=ORIENTED_EDGE('',*,*,#1026,.T.);
#678=ORIENTED_EDGE('',*,*,#1027,.F.);
#679=ORIENTED_EDGE('',*,*,#1028,.F.);
#680=CARTESIAN_POINT('',(32.5718193888741,9.00939777800341,1.));
#681=CARTESIAN_POINT('',(32.2224701686101,8.58836301515404,1.));
#682=CARTESIAN_POINT('',(31.9723396943088,7.8523252633166,1.));
#683=ORIENTED_EDGE('',*,*,#957,.T.);
#684=ORIENTED_EDGE('',*,*,#1028,.T.);
#685=ORIENTED_EDGE('',*,*,#1029,.F.);
#686=ORIENTED_EDGE('',*,*,#1030,.F.);
#687=CARTESIAN_POINT('',(31.9723396943088,7.8523252633166,1.));
#688=CARTESIAN_POINT('',(31.7802191289621,7.28700989620997,1.));
#689=CARTESIAN_POINT('',(31.8380636385117,6.95431288519804,1.));
#690=ORIENTED_EDGE('',*,*,#958,.T.);
#691=ORIENTED_EDGE('',*,*,#1030,.T.);
#692=ORIENTED_EDGE('',*,*,#1031,.F.);
#693=ORIENTED_EDGE('',*,*,#1032,.F.);
#694=CARTESIAN_POINT('',(31.8380636385117,6.95431288519804,1.));
#695=CARTESIAN_POINT('',(31.8959081803595,6.62161587418611,1.));
#696=CARTESIAN_POINT('',(32.1787808250023,6.62161587418611,1.));
#697=ORIENTED_EDGE('',*,*,#951,.T.);
#698=ORIENTED_EDGE('',*,*,#1032,.T.);
#699=ORIENTED_EDGE('',*,*,#1033,.F.);
#700=ORIENTED_EDGE('',*,*,#1018,.F.);
#701=CARTESIAN_POINT('',(32.1787808250023,6.62161587418611,1.));
#702=CARTESIAN_POINT('',(32.5441704285221,6.62161587418611,1.));
#703=CARTESIAN_POINT('',(32.9043510327794,7.04853764143517,1.));
#704=ORIENTED_EDGE('',*,*,#978,.T.);
#705=ORIENTED_EDGE('',*,*,#1034,.T.);
#706=ORIENTED_EDGE('',*,*,#1035,.F.);
#707=ORIENTED_EDGE('',*,*,#1036,.F.);
#708=CARTESIAN_POINT('',(28.7117474804713,9.37372903204069,1.));
#709=CARTESIAN_POINT('',(28.2558704173244,10.3723492075194,1.));
#710=CARTESIAN_POINT('',(26.8538433218792,10.3723492075194,1.));
#711=ORIENTED_EDGE('',*,*,#977,.T.);
#712=ORIENTED_EDGE('',*,*,#1037,.T.);
#713=ORIENTED_EDGE('',*,*,#1038,.F.);
#714=ORIENTED_EDGE('',*,*,#1034,.F.);
#715=CARTESIAN_POINT('',(26.8538433218792,10.3723492075194,1.));
#716=CARTESIAN_POINT('',(25.2279787345086,10.3723492075194,1.));
#717=CARTESIAN_POINT('',(23.7615917624072,9.0909390709512,1.));
#718=ORIENTED_EDGE('',*,*,#976,.T.);
#719=ORIENTED_EDGE('',*,*,#1039,.T.);
#720=ORIENTED_EDGE('',*,*,#1040,.F.);
#721=ORIENTED_EDGE('',*,*,#1037,.F.);
#722=CARTESIAN_POINT('',(23.7615917624072,9.0909390709512,1.));
#723=CARTESIAN_POINT('',(22.2952047903057,7.80952890208469,1.));
#724=CARTESIAN_POINT('',(21.5964402029351,5.75335261867379,1.));
#725=ORIENTED_EDGE('',*,*,#975,.T.);
#726=ORIENTED_EDGE('',*,*,#1041,.T.);
#727=ORIENTED_EDGE('',*,*,#1042,.F.);
#728=ORIENTED_EDGE('',*,*,#1039,.F.);
#729=CARTESIAN_POINT('',(21.5964402029351,5.75335261867379,1.));
#730=CARTESIAN_POINT('',(21.0217982602073,4.0624666862204,1.));
#731=CARTESIAN_POINT('',(21.497535654475,3.09625794686992,1.));
#732=ORIENTED_EDGE('',*,*,#974,.T.);
#733=ORIENTED_EDGE('',*,*,#1043,.T.);
#734=ORIENTED_EDGE('',*,*,#1044,.F.);
#735=ORIENTED_EDGE('',*,*,#1041,.F.);
#736=CARTESIAN_POINT('',(21.497535654475,3.09625794686992,1.));
#737=CARTESIAN_POINT('',(21.9732730164444,2.13004920751945,1.));
#738=CARTESIAN_POINT('',(23.3634930619672,2.13004920751945,1.));
#739=ORIENTED_EDGE('',*,*,#973,.T.);
#740=ORIENTED_EDGE('',*,*,#1045,.T.);
#741=ORIENTED_EDGE('',*,*,#1046,.F.);
#742=ORIENTED_EDGE('',*,*,#1043,.F.);
#743=CARTESIAN_POINT('',(23.3634930619672,2.13004920751945,1.));
#744=CARTESIAN_POINT('',(24.15876440705,2.13004920751945,1.));
#745=CARTESIAN_POINT('',(24.9730031008777,2.48060560766186,1.));
#746=ORIENTED_EDGE('',*,*,#972,.T.);
#747=ORIENTED_EDGE('',*,*,#1047,.T.);
#748=ORIENTED_EDGE('',*,*,#1048,.F.);
#749=ORIENTED_EDGE('',*,*,#1045,.F.);
#750=CARTESIAN_POINT('',(24.9730031008777,2.48060560766186,1.));
#751=CARTESIAN_POINT('',(25.7872417624072,2.83116197550602,1.));
#752=CARTESIAN_POINT('',(26.543685524519,3.49688673174314,1.));
#753=ORIENTED_EDGE('',*,*,#971,.T.);
#754=ORIENTED_EDGE('',*,*,#1049,.T.);
#755=ORIENTED_EDGE('',*,*,#1050,.F.);
#756=ORIENTED_EDGE('',*,*,#1047,.F.);
#757=CARTESIAN_POINT('',(26.543685524519,3.49688673174314,1.));
#758=CARTESIAN_POINT('',(27.2270711970604,4.10370859664994,1.));
#759=CARTESIAN_POINT('',(27.7378327954429,4.88728868108319,1.));
#760=ORIENTED_EDGE('',*,*,#970,.T.);
#761=ORIENTED_EDGE('',*,*,#1051,.T.);
#762=ORIENTED_EDGE('',*,*,#1052,.F.);
#763=ORIENTED_EDGE('',*,*,#1049,.F.);
#764=CARTESIAN_POINT('',(27.7378327954429,4.88728868108319,1.));
#765=CARTESIAN_POINT('',(28.2485943615272,5.67086876551645,1.));
#766=CARTESIAN_POINT('',(28.5629524510977,6.59585209884978,1.));
#767=ORIENTED_EDGE('',*,*,#969,.T.);
#768=ORIENTED_EDGE('',*,*,#1036,.T.);
#769=ORIENTED_EDGE('',*,*,#1053,.F.);
#770=ORIENTED_EDGE('',*,*,#1051,.F.);
#771=CARTESIAN_POINT('',(28.5629524510977,6.59585209884978,1.));
#772=CARTESIAN_POINT('',(29.1676245759165,8.37510885656194,1.));
#773=CARTESIAN_POINT('',(28.7117474804713,9.37372903204069,1.));
#774=ORIENTED_EDGE('',*,*,#944,.T.);
#775=ORIENTED_EDGE('',*,*,#1054,.T.);
#776=ORIENTED_EDGE('',*,*,#1055,.F.);
#777=ORIENTED_EDGE('',*,*,#1056,.F.);
#778=CARTESIAN_POINT('',(26.8093933218792,8.66428189107276,1.));
#779=CARTESIAN_POINT('',(26.7950066096898,9.45371587418611,1.));
#780=CARTESIAN_POINT('',(26.1943032308337,9.45371587418611,1.));
#781=ORIENTED_EDGE('',*,*,#945,.T.);
#782=ORIENTED_EDGE('',*,*,#1056,.T.);
#783=ORIENTED_EDGE('',*,*,#1057,.F.);
#784=ORIENTED_EDGE('',*,*,#1058,.F.);
#785=CARTESIAN_POINT('',(26.1943032308337,9.45371587418611,1.));
#786=CARTESIAN_POINT('',(25.6112607682819,9.45371587418611,1.));
#787=CARTESIAN_POINT('',(25.0584304239366,8.67607240428453,1.));
#788=ORIENTED_EDGE('',*,*,#946,.T.);
#789=ORIENTED_EDGE('',*,*,#1058,.T.);
#790=ORIENTED_EDGE('',*,*,#1059,.F.);
#791=ORIENTED_EDGE('',*,*,#1060,.F.);
#792=CARTESIAN_POINT('',(25.0584304239366,8.67607240428453,1.));
#793=CARTESIAN_POINT('',(24.5056001118896,7.89842890208469,1.));
#794=CARTESIAN_POINT('',(23.9730269151245,6.3313349123591,1.));
#795=ORIENTED_EDGE('',*,*,#947,.T.);
#796=ORIENTED_EDGE('',*,*,#1060,.T.);
#797=ORIENTED_EDGE('',*,*,#1061,.F.);
#798=ORIENTED_EDGE('',*,*,#1062,.F.);
#799=CARTESIAN_POINT('',(23.9730269151245,6.3313349123591,1.));
#800=CARTESIAN_POINT('',(23.39041440705,4.61696720604441,1.));
#801=CARTESIAN_POINT('',(23.4018576493378,3.82753322293106,1.));
#802=ORIENTED_EDGE('',*,*,#948,.T.);
#803=ORIENTED_EDGE('',*,*,#1062,.T.);
#804=ORIENTED_EDGE('',*,*,#1063,.F.);
#805=ORIENTED_EDGE('',*,*,#1064,.F.);
#806=CARTESIAN_POINT('',(23.4018576493378,3.82753322293106,1.));
#807=CARTESIAN_POINT('',(23.4133008916256,3.03809920751945,1.));
#808=CARTESIAN_POINT('',(24.0140042704817,3.03809920751945,1.));
#809=ORIENTED_EDGE('',*,*,#949,.T.);
#810=ORIENTED_EDGE('',*,*,#1064,.T.);
#811=ORIENTED_EDGE('',*,*,#1065,.F.);
#812=ORIENTED_EDGE('',*,*,#1066,.F.);
#813=CARTESIAN_POINT('',(24.0140042704817,3.03809920751945,1.));
#814=CARTESIAN_POINT('',(24.5970136273139,3.03809920751945,1.));
#815=CARTESIAN_POINT('',(25.1568223666644,3.82753322293106,1.));
#816=ORIENTED_EDGE('',*,*,#950,.T.);
#817=ORIENTED_EDGE('',*,*,#1066,.T.);
#818=ORIENTED_EDGE('',*,*,#1067,.F.);
#819=ORIENTED_EDGE('',*,*,#1068,.F.);
#820=CARTESIAN_POINT('',(25.1568223666644,3.82753322293106,1.));
#821=CARTESIAN_POINT('',(25.7166310737166,4.61696720604441,1.));
#822=CARTESIAN_POINT('',(26.2451693776764,6.17225417814583,1.));
#823=ORIENTED_EDGE('',*,*,#943,.T.);
#824=ORIENTED_EDGE('',*,*,#1068,.T.);
#825=ORIENTED_EDGE('',*,*,#1069,.F.);
#826=ORIENTED_EDGE('',*,*,#1054,.F.);
#827=CARTESIAN_POINT('',(26.2451693776764,6.17225417814583,1.));
#828=CARTESIAN_POINT('',(26.8237800340686,7.87484790795942,1.));
#829=CARTESIAN_POINT('',(26.8093933218792,8.66428189107276,1.));
#830=ORIENTED_EDGE('',*,*,#964,.T.);
#831=ORIENTED_EDGE('',*,*,#1070,.T.);
#832=ORIENTED_EDGE('',*,*,#1071,.F.);
#833=ORIENTED_EDGE('',*,*,#1072,.F.);
#834=ORIENTED_EDGE('',*,*,#965,.T.);
#835=ORIENTED_EDGE('',*,*,#1072,.T.);
#836=ORIENTED_EDGE('',*,*,#1073,.F.);
#837=ORIENTED_EDGE('',*,*,#1074,.F.);
#838=ORIENTED_EDGE('',*,*,#966,.T.);
#839=ORIENTED_EDGE('',*,*,#1074,.T.);
#840=ORIENTED_EDGE('',*,*,#1075,.F.);
#841=ORIENTED_EDGE('',*,*,#1076,.F.);
#842=ORIENTED_EDGE('',*,*,#967,.T.);
#843=ORIENTED_EDGE('',*,*,#1076,.T.);
#844=ORIENTED_EDGE('',*,*,#1077,.F.);
#845=ORIENTED_EDGE('',*,*,#1078,.F.);
#846=ORIENTED_EDGE('',*,*,#968,.T.);
#847=ORIENTED_EDGE('',*,*,#1078,.T.);
#848=ORIENTED_EDGE('',*,*,#1079,.F.);
#849=ORIENTED_EDGE('',*,*,#1080,.F.);
#850=ORIENTED_EDGE('',*,*,#963,.T.);
#851=ORIENTED_EDGE('',*,*,#1080,.T.);
#852=ORIENTED_EDGE('',*,*,#1081,.F.);
#853=ORIENTED_EDGE('',*,*,#1070,.F.);
#854=ORIENTED_EDGE('',*,*,#959,.T.);
#855=ORIENTED_EDGE('',*,*,#1082,.T.);
#856=ORIENTED_EDGE('',*,*,#1083,.F.);
#857=ORIENTED_EDGE('',*,*,#1084,.F.);
#858=ORIENTED_EDGE('',*,*,#960,.T.);
#859=ORIENTED_EDGE('',*,*,#1084,.T.);
#860=ORIENTED_EDGE('',*,*,#1085,.F.);
#861=ORIENTED_EDGE('',*,*,#1086,.F.);
#862=ORIENTED_EDGE('',*,*,#961,.T.);
#863=ORIENTED_EDGE('',*,*,#1086,.T.);
#864=ORIENTED_EDGE('',*,*,#1087,.F.);
#865=ORIENTED_EDGE('',*,*,#1088,.F.);
#866=ORIENTED_EDGE('',*,*,#962,.T.);
#867=ORIENTED_EDGE('',*,*,#1088,.T.);
#868=ORIENTED_EDGE('',*,*,#1089,.F.);
#869=ORIENTED_EDGE('',*,*,#1082,.F.);
#870=ORIENTED_EDGE('',*,*,#993,.T.);
#871=ORIENTED_EDGE('',*,*,#996,.T.);
#872=ORIENTED_EDGE('',*,*,#998,.T.);
#873=ORIENTED_EDGE('',*,*,#1000,.T.);
#874=ORIENTED_EDGE('',*,*,#1002,.T.);
#875=ORIENTED_EDGE('',*,*,#1004,.T.);
#876=ORIENTED_EDGE('',*,*,#1006,.T.);
#877=ORIENTED_EDGE('',*,*,#1008,.T.);
#878=ORIENTED_EDGE('',*,*,#1010,.T.);
#879=ORIENTED_EDGE('',*,*,#1012,.T.);
#880=ORIENTED_EDGE('',*,*,#1014,.T.);
#881=ORIENTED_EDGE('',*,*,#1016,.T.);
#882=ORIENTED_EDGE('',*,*,#1017,.T.);
#883=ORIENTED_EDGE('',*,*,#1019,.T.);
#884=ORIENTED_EDGE('',*,*,#1033,.T.);
#885=ORIENTED_EDGE('',*,*,#1031,.T.);
#886=ORIENTED_EDGE('',*,*,#1029,.T.);
#887=ORIENTED_EDGE('',*,*,#1027,.T.);
#888=ORIENTED_EDGE('',*,*,#1025,.T.);
#889=ORIENTED_EDGE('',*,*,#1023,.T.);
#890=ORIENTED_EDGE('',*,*,#1021,.T.);
#891=ORIENTED_EDGE('',*,*,#1035,.T.);
#892=ORIENTED_EDGE('',*,*,#1038,.T.);
#893=ORIENTED_EDGE('',*,*,#1040,.T.);
#894=ORIENTED_EDGE('',*,*,#1042,.T.);
#895=ORIENTED_EDGE('',*,*,#1044,.T.);
#896=ORIENTED_EDGE('',*,*,#1046,.T.);
#897=ORIENTED_EDGE('',*,*,#1048,.T.);
#898=ORIENTED_EDGE('',*,*,#1050,.T.);
#899=ORIENTED_EDGE('',*,*,#1052,.T.);
#900=ORIENTED_EDGE('',*,*,#1053,.T.);
#901=ORIENTED_EDGE('',*,*,#1055,.T.);
#902=ORIENTED_EDGE('',*,*,#1069,.T.);
#903=ORIENTED_EDGE('',*,*,#1067,.T.);
#904=ORIENTED_EDGE('',*,*,#1065,.T.);
#905=ORIENTED_EDGE('',*,*,#1063,.T.);
#906=ORIENTED_EDGE('',*,*,#1061,.T.);
#907=ORIENTED_EDGE('',*,*,#1059,.T.);
#908=ORIENTED_EDGE('',*,*,#1057,.T.);
#909=ORIENTED_EDGE('',*,*,#1081,.T.);
#910=ORIENTED_EDGE('',*,*,#1079,.T.);
#911=ORIENTED_EDGE('',*,*,#1077,.T.);
#912=ORIENTED_EDGE('',*,*,#1075,.T.);
#913=ORIENTED_EDGE('',*,*,#1073,.T.);
#914=ORIENTED_EDGE('',*,*,#1071,.T.);
#915=ORIENTED_EDGE('',*,*,#1090,.T.);
#916=ORIENTED_EDGE('',*,*,#1091,.T.);
#917=ORIENTED_EDGE('',*,*,#1092,.T.);
#918=ORIENTED_EDGE('',*,*,#1093,.T.);
#919=ORIENTED_EDGE('',*,*,#1085,.T.);
#920=ORIENTED_EDGE('',*,*,#1083,.T.);
#921=ORIENTED_EDGE('',*,*,#1089,.T.);
#922=ORIENTED_EDGE('',*,*,#1087,.T.);
#923=ORIENTED_EDGE('',*,*,#1094,.T.);
#924=ORIENTED_EDGE('',*,*,#1095,.T.);
#925=ORIENTED_EDGE('',*,*,#1090,.F.);
#926=ORIENTED_EDGE('',*,*,#1096,.F.);
#927=ORIENTED_EDGE('',*,*,#1097,.T.);
#928=ORIENTED_EDGE('',*,*,#1098,.T.);
#929=ORIENTED_EDGE('',*,*,#1091,.F.);
#930=ORIENTED_EDGE('',*,*,#1095,.F.);
#931=ORIENTED_EDGE('',*,*,#1099,.T.);
#932=ORIENTED_EDGE('',*,*,#1100,.T.);
#933=ORIENTED_EDGE('',*,*,#1092,.F.);
#934=ORIENTED_EDGE('',*,*,#1098,.F.);
#935=ORIENTED_EDGE('',*,*,#1101,.T.);
#936=ORIENTED_EDGE('',*,*,#1096,.T.);
#937=ORIENTED_EDGE('',*,*,#1093,.F.);
#938=ORIENTED_EDGE('',*,*,#1100,.F.);
#939=ORIENTED_EDGE('',*,*,#1097,.F.);
#940=ORIENTED_EDGE('',*,*,#1094,.F.);
#941=ORIENTED_EDGE('',*,*,#1101,.F.);
#942=ORIENTED_EDGE('',*,*,#1099,.F.);
#943=EDGE_CURVE('',#1102,#1103,#1104,.F.);
#944=EDGE_CURVE('',#1105,#1102,#1106,.F.);
#945=EDGE_CURVE('',#1107,#1105,#1108,.F.);
#946=EDGE_CURVE('',#1109,#1107,#1110,.F.);
#947=EDGE_CURVE('',#1111,#1109,#1112,.F.);
#948=EDGE_CURVE('',#1113,#1111,#1114,.F.);
#949=EDGE_CURVE('',#1115,#1113,#1116,.F.);
#950=EDGE_CURVE('',#1103,#1115,#1117,.F.);
#951=EDGE_CURVE('',#1118,#1119,#1120,.F.);
#952=EDGE_CURVE('',#1121,#1118,#1122,.F.);
#953=EDGE_CURVE('',#1123,#1121,#1124,.F.);
#954=EDGE_CURVE('',#1125,#1123,#1126,.F.);
#955=EDGE_CURVE('',#1127,#1125,#1128,.F.);
#956=EDGE_CURVE('',#1129,#1127,#1130,.F.);
#957=EDGE_CURVE('',#1131,#1129,#1132,.F.);
#958=EDGE_CURVE('',#1119,#1131,#1133,.F.);
#959=EDGE_CURVE('',#1134,#1135,#1136,.F.);
#960=EDGE_CURVE('',#1137,#1134,#1138,.F.);
#961=EDGE_CURVE('',#1139,#1137,#1140,.F.);
#962=EDGE_CURVE('',#1135,#1139,#1141,.F.);
#963=EDGE_CURVE('',#1142,#1143,#1144,.T.);
#964=EDGE_CURVE('',#1145,#1142,#1146,.T.);
#965=EDGE_CURVE('',#1147,#1145,#1148,.T.);
#966=EDGE_CURVE('',#1149,#1147,#1150,.T.);
#967=EDGE_CURVE('',#1151,#1149,#1152,.T.);
#968=EDGE_CURVE('',#1143,#1151,#1153,.T.);
#969=EDGE_CURVE('',#1154,#1155,#1156,.T.);
#970=EDGE_CURVE('',#1157,#1154,#1158,.T.);
#971=EDGE_CURVE('',#1159,#1157,#1160,.T.);
#972=EDGE_CURVE('',#1161,#1159,#1162,.T.);
#973=EDGE_CURVE('',#1163,#1161,#1164,.T.);
#974=EDGE_CURVE('',#1165,#1163,#1166,.T.);
#975=EDGE_CURVE('',#1167,#1165,#1168,.T.);
#976=EDGE_CURVE('',#1169,#1167,#1170,.T.);
#977=EDGE_CURVE('',#1171,#1169,#1172,.T.);
#978=EDGE_CURVE('',#1155,#1171,#1173,.T.);
#979=EDGE_CURVE('',#1174,#1175,#1176,.T.);
#980=EDGE_CURVE('',#1177,#1174,#1178,.T.);
#981=EDGE_CURVE('',#1179,#1177,#1180,.T.);
#982=EDGE_CURVE('',#1181,#1179,#1182,.T.);
#983=EDGE_CURVE('',#1183,#1181,#1184,.T.);
#984=EDGE_CURVE('',#1185,#1183,#1186,.T.);
#985=EDGE_CURVE('',#1187,#1185,#1188,.T.);
#986=EDGE_CURVE('',#1189,#1187,#1190,.T.);
#987=EDGE_CURVE('',#1191,#1189,#1192,.T.);
#988=EDGE_CURVE('',#1193,#1191,#1194,.T.);
#989=EDGE_CURVE('',#1195,#1193,#1196,.T.);
#990=EDGE_CURVE('',#1197,#1195,#1198,.T.);
#991=EDGE_CURVE('',#1175,#1197,#1199,.T.);
#992=EDGE_CURVE('',#1197,#1200,#1201,.T.);
#993=EDGE_CURVE('',#1202,#1200,#1203,.T.);
#994=EDGE_CURVE('',#1175,#1202,#1204,.T.);
#995=EDGE_CURVE('',#1195,#1205,#1206,.T.);
#996=EDGE_CURVE('',#1200,#1205,#1207,.T.);
#997=EDGE_CURVE('',#1193,#1208,#1209,.T.);
#998=EDGE_CURVE('',#1205,#1208,#1210,.T.);
#999=EDGE_CURVE('',#1191,#1211,#1212,.T.);
#1000=EDGE_CURVE('',#1208,#1211,#1213,.T.);
#1001=EDGE_CURVE('',#1189,#1214,#1215,.T.);
#1002=EDGE_CURVE('',#1211,#1214,#1216,.T.);
#1003=EDGE_CURVE('',#1187,#1217,#1218,.T.);
#1004=EDGE_CURVE('',#1214,#1217,#1219,.T.);
#1005=EDGE_CURVE('',#1185,#1220,#1221,.T.);
#1006=EDGE_CURVE('',#1217,#1220,#1222,.T.);
#1007=EDGE_CURVE('',#1183,#1223,#1224,.T.);
#1008=EDGE_CURVE('',#1220,#1223,#1225,.T.);
#1009=EDGE_CURVE('',#1181,#1226,#1227,.T.);
#1010=EDGE_CURVE('',#1223,#1226,#1228,.T.);
#1011=EDGE_CURVE('',#1179,#1229,#1230,.T.);
#1012=EDGE_CURVE('',#1226,#1229,#1231,.T.);
#1013=EDGE_CURVE('',#1177,#1232,#1233,.T.);
#1014=EDGE_CURVE('',#1229,#1232,#1234,.T.);
#1015=EDGE_CURVE('',#1174,#1235,#1236,.T.);
#1016=EDGE_CURVE('',#1232,#1235,#1237,.T.);
#1017=EDGE_CURVE('',#1235,#1202,#1238,.T.);
#1018=EDGE_CURVE('',#1118,#1239,#1240,.T.);
#1019=EDGE_CURVE('',#1241,#1239,#1242,.F.);
#1020=EDGE_CURVE('',#1121,#1241,#1243,.T.);
#1021=EDGE_CURVE('',#1244,#1241,#1245,.F.);
#1022=EDGE_CURVE('',#1123,#1244,#1246,.T.);
#1023=EDGE_CURVE('',#1247,#1244,#1248,.F.);
#1024=EDGE_CURVE('',#1125,#1247,#1249,.T.);
#1025=EDGE_CURVE('',#1250,#1247,#1251,.F.);
#1026=EDGE_CURVE('',#1127,#1250,#1252,.T.);
#1027=EDGE_CURVE('',#1253,#1250,#1254,.F.);
#1028=EDGE_CURVE('',#1129,#1253,#1255,.T.);
#1029=EDGE_CURVE('',#1256,#1253,#1257,.F.);
#1030=EDGE_CURVE('',#1131,#1256,#1258,.T.);
#1031=EDGE_CURVE('',#1259,#1256,#1260,.F.);
#1032=EDGE_CURVE('',#1119,#1259,#1261,.T.);
#1033=EDGE_CURVE('',#1239,#1259,#1262,.F.);
#1034=EDGE_CURVE('',#1171,#1263,#1264,.T.);
#1035=EDGE_CURVE('',#1265,#1263,#1266,.T.);
#1036=EDGE_CURVE('',#1155,#1265,#1267,.T.);
#1037=EDGE_CURVE('',#1169,#1268,#1269,.T.);
#1038=EDGE_CURVE('',#1263,#1268,#1270,.T.);
#1039=EDGE_CURVE('',#1167,#1271,#1272,.T.);
#1040=EDGE_CURVE('',#1268,#1271,#1273,.T.);
#1041=EDGE_CURVE('',#1165,#1274,#1275,.T.);
#1042=EDGE_CURVE('',#1271,#1274,#1276,.T.);
#1043=EDGE_CURVE('',#1163,#1277,#1278,.T.);
#1044=EDGE_CURVE('',#1274,#1277,#1279,.T.);
#1045=EDGE_CURVE('',#1161,#1280,#1281,.T.);
#1046=EDGE_CURVE('',#1277,#1280,#1282,.T.);
#1047=EDGE_CURVE('',#1159,#1283,#1284,.T.);
#1048=EDGE_CURVE('',#1280,#1283,#1285,.T.);
#1049=EDGE_CURVE('',#1157,#1286,#1287,.T.);
#1050=EDGE_CURVE('',#1283,#1286,#1288,.T.);
#1051=EDGE_CURVE('',#1154,#1289,#1290,.T.);
#1052=EDGE_CURVE('',#1286,#1289,#1291,.T.);
#1053=EDGE_CURVE('',#1289,#1265,#1292,.T.);
#1054=EDGE_CURVE('',#1102,#1293,#1294,.T.);
#1055=EDGE_CURVE('',#1295,#1293,#1296,.F.);
#1056=EDGE_CURVE('',#1105,#1295,#1297,.T.);
#1057=EDGE_CURVE('',#1298,#1295,#1299,.F.);
#1058=EDGE_CURVE('',#1107,#1298,#1300,.T.);
#1059=EDGE_CURVE('',#1301,#1298,#1302,.F.);
#1060=EDGE_CURVE('',#1109,#1301,#1303,.T.);
#1061=EDGE_CURVE('',#1304,#1301,#1305,.F.);
#1062=EDGE_CURVE('',#1111,#1304,#1306,.T.);
#1063=EDGE_CURVE('',#1307,#1304,#1308,.F.);
#1064=EDGE_CURVE('',#1113,#1307,#1309,.T.);
#1065=EDGE_CURVE('',#1310,#1307,#1311,.F.);
#1066=EDGE_CURVE('',#1115,#1310,#1312,.T.);
#1067=EDGE_CURVE('',#1313,#1310,#1314,.F.);
#1068=EDGE_CURVE('',#1103,#1313,#1315,.T.);
#1069=EDGE_CURVE('',#1293,#1313,#1316,.F.);
#1070=EDGE_CURVE('',#1142,#1317,#1318,.T.);
#1071=EDGE_CURVE('',#1319,#1317,#1320,.T.);
#1072=EDGE_CURVE('',#1145,#1319,#1321,.T.);
#1073=EDGE_CURVE('',#1322,#1319,#1323,.T.);
#1074=EDGE_CURVE('',#1147,#1322,#1324,.T.);
#1075=EDGE_CURVE('',#1325,#1322,#1326,.T.);
#1076=EDGE_CURVE('',#1149,#1325,#1327,.T.);
#1077=EDGE_CURVE('',#1328,#1325,#1329,.T.);
#1078=EDGE_CURVE('',#1151,#1328,#1330,.T.);
#1079=EDGE_CURVE('',#1331,#1328,#1332,.T.);
#1080=EDGE_CURVE('',#1143,#1331,#1333,.T.);
#1081=EDGE_CURVE('',#1317,#1331,#1334,.T.);
#1082=EDGE_CURVE('',#1135,#1335,#1336,.T.);
#1083=EDGE_CURVE('',#1337,#1335,#1338,.F.);
#1084=EDGE_CURVE('',#1134,#1337,#1339,.T.);
#1085=EDGE_CURVE('',#1340,#1337,#1341,.F.);
#1086=EDGE_CURVE('',#1137,#1340,#1342,.T.);
#1087=EDGE_CURVE('',#1343,#1340,#1344,.F.);
#1088=EDGE_CURVE('',#1139,#1343,#1345,.T.);
#1089=EDGE_CURVE('',#1335,#1343,#1346,.F.);
#1090=EDGE_CURVE('',#1347,#1348,#1349,.T.);
#1091=EDGE_CURVE('',#1348,#1350,#1351,.T.);
#1092=EDGE_CURVE('',#1350,#1352,#1353,.T.);
#1093=EDGE_CURVE('',#1352,#1347,#1354,.T.);
#1094=EDGE_CURVE('',#1355,#1356,#1357,.T.);
#1095=EDGE_CURVE('',#1356,#1348,#1358,.T.);
#1096=EDGE_CURVE('',#1355,#1347,#1359,.T.);
#1097=EDGE_CURVE('',#1356,#1360,#1361,.T.);
#1098=EDGE_CURVE('',#1360,#1350,#1362,.T.);
#1099=EDGE_CURVE('',#1360,#1363,#1364,.T.);
#1100=EDGE_CURVE('',#1363,#1352,#1365,.T.);
#1101=EDGE_CURVE('',#1363,#1355,#1366,.T.);
#1102=VERTEX_POINT('',#1367);
#1103=VERTEX_POINT('',#1368);
#1104=B_SPLINE_CURVE_WITH_KNOTS('',2,
(#1369,#1370,#1371),
.UNSPECIFIED.,.F.,.F.,
(3,3),
(0.,1.),
.UNSPECIFIED.);
#1105=VERTEX_POINT('',#1372);
#1106=B_SPLINE_CURVE_WITH_KNOTS('',2,
(#1373,#1374,#1375),
.UNSPECIFIED.,.F.,.F.,
(3,3),
(0.,1.),
.UNSPECIFIED.);
#1107=VERTEX_POINT('',#1376);
#1108=B_SPLINE_CURVE_WITH_KNOTS('',2,
(#1377,#1378,#1379),
.UNSPECIFIED.,.F.,.F.,
(3,3),
(0.,1.),
.UNSPECIFIED.);
#1109=VERTEX_POINT('',#1380);
#1110=B_SPLINE_CURVE_WITH_KNOTS('',2,
(#1381,#1382,#1383),
.UNSPECIFIED.,.F.,.F.,
(3,3),
(0.,1.),
.UNSPECIFIED.);
#1111=VERTEX_POINT('',#1384);
#1112=B_SPLINE_CURVE_WITH_KNOTS('',2,
(#1385,#1386,#1387),
.UNSPECIFIED.,.F.,.F.,
(3,3),
(0.,1.),
.UNSPECIFIED.);
#1113=VERTEX_POINT('',#1388);
#1114=B_SPLINE_CURVE_WITH_KNOTS('',2,
(#1389,#1390,#1391),
.UNSPECIFIED.,.F.,.F.,
(3,3),
(0.,1.),
.UNSPECIFIED.);
#1115=VERTEX_POINT('',#1392);
#1116=B_SPLINE_CURVE_WITH_KNOTS('',2,
(#1393,#1394,#1395),
.UNSPECIFIED.,.F.,.F.,
(3,3),
(0.,1.),
.UNSPECIFIED.);
#1117=B_SPLINE_CURVE_WITH_KNOTS('',2,
(#1396,#1397,#1398),
.UNSPECIFIED.,.F.,.F.,
(3,3),
(0.,1.),
.UNSPECIFIED.);
#1118=VERTEX_POINT('',#1399);
#1119=VERTEX_POINT('',#1400);
#1120=B_SPLINE_CURVE_WITH_KNOTS('',2,
(#1401,#1402,#1403),
.UNSPECIFIED.,.F.,.F.,
(3,3),
(0.,1.),
.UNSPECIFIED.);
#1121=VERTEX_POINT('',#1404);
#1122=B_SPLINE_CURVE_WITH_KNOTS('',2,
(#1405,#1406,#1407),
.UNSPECIFIED.,.F.,.F.,
(3,3),
(0.,1.),
.UNSPECIFIED.);
#1123=VERTEX_POINT('',#1408);
#1124=B_SPLINE_CURVE_WITH_KNOTS('',2,
(#1409,#1410,#1411),
.UNSPECIFIED.,.F.,.F.,
(3,3),
(0.,1.),
.UNSPECIFIED.);
#1125=VERTEX_POINT('',#1412);
#1126=B_SPLINE_CURVE_WITH_KNOTS('',2,
(#1413,#1414,#1415),
.UNSPECIFIED.,.F.,.F.,
(3,3),
(0.,1.),
.UNSPECIFIED.);
#1127=VERTEX_POINT('',#1416);
#1128=B_SPLINE_CURVE_WITH_KNOTS('',2,
(#1417,#1418,#1419),
.UNSPECIFIED.,.F.,.F.,
(3,3),
(0.,1.),
.UNSPECIFIED.);
#1129=VERTEX_POINT('',#1420);
#1130=B_SPLINE_CURVE_WITH_KNOTS('',2,
(#1421,#1422,#1423),
.UNSPECIFIED.,.F.,.F.,
(3,3),
(0.,1.),
.UNSPECIFIED.);
#1131=VERTEX_POINT('',#1424);
#1132=B_SPLINE_CURVE_WITH_KNOTS('',2,
(#1425,#1426,#1427),
.UNSPECIFIED.,.F.,.F.,
(3,3),
(0.,1.),
.UNSPECIFIED.);
#1133=B_SPLINE_CURVE_WITH_KNOTS('',2,
(#1428,#1429,#1430),
.UNSPECIFIED.,.F.,.F.,
(3,3),
(0.,1.),
.UNSPECIFIED.);
#1134=VERTEX_POINT('',#1431);
#1135=VERTEX_POINT('',#1432);
#1136=LINE('',#1433,#1434);
#1137=VERTEX_POINT('',#1436);
#1138=LINE('',#1437,#1438);
#1139=VERTEX_POINT('',#1440);
#1140=LINE('',#1441,#1442);
#1141=LINE('',#1444,#1445);
#1142=VERTEX_POINT('',#1447);
#1143=VERTEX_POINT('',#1448);
#1144=LINE('',#1449,#1450);
#1145=VERTEX_POINT('',#1452);
#1146=LINE('',#1453,#1454);
#1147=VERTEX_POINT('',#1456);
#1148=LINE('',#1457,#1458);
#1149=VERTEX_POINT('',#1460);
#1150=LINE('',#1461,#1462);
#1151=VERTEX_POINT('',#1464);
#1152=LINE('',#1465,#1466);
#1153=LINE('',#1468,#1469);
#1154=VERTEX_POINT('',#1471);
#1155=VERTEX_POINT('',#1472);
#1156=B_SPLINE_CURVE_WITH_KNOTS('',2,
(#1473,#1474,#1475),
.UNSPECIFIED.,.F.,.F.,
(3,3),
(0.,1.),
.UNSPECIFIED.);
#1157=VERTEX_POINT('',#1476);
#1158=B_SPLINE_CURVE_WITH_KNOTS('',2,
(#1477,#1478,#1479),
.UNSPECIFIED.,.F.,.F.,
(3,3),
(0.,1.),
.UNSPECIFIED.);
#1159=VERTEX_POINT('',#1480);
#1160=B_SPLINE_CURVE_WITH_KNOTS('',2,
(#1481,#1482,#1483),
.UNSPECIFIED.,.F.,.F.,
(3,3),
(0.,1.),
.UNSPECIFIED.);
#1161=VERTEX_POINT('',#1484);
#1162=B_SPLINE_CURVE_WITH_KNOTS('',2,
(#1485,#1486,#1487),
.UNSPECIFIED.,.F.,.F.,
(3,3),
(0.,1.),
.UNSPECIFIED.);
#1163=VERTEX_POINT('',#1488);
#1164=B_SPLINE_CURVE_WITH_KNOTS('',2,
(#1489,#1490,#1491),
.UNSPECIFIED.,.F.,.F.,
(3,3),
(0.,1.),
.UNSPECIFIED.);
#1165=VERTEX_POINT('',#1492);
#1166=B_SPLINE_CURVE_WITH_KNOTS('',2,
(#1493,#1494,#1495),
.UNSPECIFIED.,.F.,.F.,
(3,3),
(0.,1.),
.UNSPECIFIED.);
#1167=VERTEX_POINT('',#1496);
#1168=B_SPLINE_CURVE_WITH_KNOTS('',2,
(#1497,#1498,#1499),
.UNSPECIFIED.,.F.,.F.,
(3,3),
(0.,1.),
.UNSPECIFIED.);
#1169=VERTEX_POINT('',#1500);
#1170=B_SPLINE_CURVE_WITH_KNOTS('',2,
(#1501,#1502,#1503),
.UNSPECIFIED.,.F.,.F.,
(3,3),
(0.,1.),
.UNSPECIFIED.);
#1171=VERTEX_POINT('',#1504);
#1172=B_SPLINE_CURVE_WITH_KNOTS('',2,
(#1505,#1506,#1507),
.UNSPECIFIED.,.F.,.F.,
(3,3),
(0.,1.),
.UNSPECIFIED.);
#1173=B_SPLINE_CURVE_WITH_KNOTS('',2,
(#1508,#1509,#1510),
.UNSPECIFIED.,.F.,.F.,
(3,3),
(0.,1.),
.UNSPECIFIED.);
#1174=VERTEX_POINT('',#1511);
#1175=VERTEX_POINT('',#1512);
#1176=B_SPLINE_CURVE_WITH_KNOTS('',2,
(#1513,#1514,#1515),
.UNSPECIFIED.,.F.,.F.,
(3,3),
(0.,1.),
.UNSPECIFIED.);
#1177=VERTEX_POINT('',#1516);
#1178=B_SPLINE_CURVE_WITH_KNOTS('',2,
(#1517,#1518,#1519),
.UNSPECIFIED.,.F.,.F.,
(3,3),
(0.,1.),
.UNSPECIFIED.);
#1179=VERTEX_POINT('',#1520);
#1180=LINE('',#1521,#1522);
#1181=VERTEX_POINT('',#1524);
#1182=LINE('',#1525,#1526);
#1183=VERTEX_POINT('',#1528);
#1184=LINE('',#1529,#1530);
#1185=VERTEX_POINT('',#1532);
#1186=B_SPLINE_CURVE_WITH_KNOTS('',2,
(#1533,#1534,#1535),
.UNSPECIFIED.,.F.,.F.,
(3,3),
(0.,1.),
.UNSPECIFIED.);
#1187=VERTEX_POINT('',#1536);
#1188=B_SPLINE_CURVE_WITH_KNOTS('',2,
(#1537,#1538,#1539),
.UNSPECIFIED.,.F.,.F.,
(3,3),
(0.,1.),
.UNSPECIFIED.);
#1189=VERTEX_POINT('',#1540);
#1190=B_SPLINE_CURVE_WITH_KNOTS('',2,
(#1541,#1542,#1543),
.UNSPECIFIED.,.F.,.F.,
(3,3),
(0.,1.),
.UNSPECIFIED.);
#1191=VERTEX_POINT('',#1544);
#1192=B_SPLINE_CURVE_WITH_KNOTS('',2,
(#1545,#1546,#1547),
.UNSPECIFIED.,.F.,.F.,
(3,3),
(0.,1.),
.UNSPECIFIED.);
#1193=VERTEX_POINT('',#1548);
#1194=B_SPLINE_CURVE_WITH_KNOTS('',2,
(#1549,#1550,#1551),
.UNSPECIFIED.,.F.,.F.,
(3,3),
(0.,1.),
.UNSPECIFIED.);
#1195=VERTEX_POINT('',#1552);
#1196=B_SPLINE_CURVE_WITH_KNOTS('',2,
(#1553,#1554,#1555),
.UNSPECIFIED.,.F.,.F.,
(3,3),
(0.,1.),
.UNSPECIFIED.);
#1197=VERTEX_POINT('',#1556);
#1198=B_SPLINE_CURVE_WITH_KNOTS('',2,
(#1557,#1558,#1559),
.UNSPECIFIED.,.F.,.F.,
(3,3),
(0.,1.),
.UNSPECIFIED.);
#1199=B_SPLINE_CURVE_WITH_KNOTS('',2,
(#1560,#1561,#1562),
.UNSPECIFIED.,.F.,.F.,
(3,3),
(0.,1.),
.UNSPECIFIED.);
#1200=VERTEX_POINT('',#1563);
#1201=LINE('',#1564,#1565);
#1202=VERTEX_POINT('',#1567);
#1203=B_SPLINE_CURVE_WITH_KNOTS('',2,
(#1568,#1569,#1570),
.UNSPECIFIED.,.F.,.F.,
(3,3),
(0.,1.),
.UNSPECIFIED.);
#1204=LINE('',#1571,#1572);
#1205=VERTEX_POINT('',#1574);
#1206=LINE('',#1575,#1576);
#1207=B_SPLINE_CURVE_WITH_KNOTS('',2,
(#1578,#1579,#1580),
.UNSPECIFIED.,.F.,.F.,
(3,3),
(0.,1.),
.UNSPECIFIED.);
#1208=VERTEX_POINT('',#1581);
#1209=LINE('',#1582,#1583);
#1210=B_SPLINE_CURVE_WITH_KNOTS('',2,
(#1585,#1586,#1587),
.UNSPECIFIED.,.F.,.F.,
(3,3),
(0.,1.),
.UNSPECIFIED.);
#1211=VERTEX_POINT('',#1588);
#1212=LINE('',#1589,#1590);
#1213=B_SPLINE_CURVE_WITH_KNOTS('',2,
(#1592,#1593,#1594),
.UNSPECIFIED.,.F.,.F.,
(3,3),
(0.,1.),
.UNSPECIFIED.);
#1214=VERTEX_POINT('',#1595);
#1215=LINE('',#1596,#1597);
#1216=B_SPLINE_CURVE_WITH_KNOTS('',2,
(#1599,#1600,#1601),
.UNSPECIFIED.,.F.,.F.,
(3,3),
(0.,1.),
.UNSPECIFIED.);
#1217=VERTEX_POINT('',#1602);
#1218=LINE('',#1603,#1604);
#1219=B_SPLINE_CURVE_WITH_KNOTS('',2,
(#1606,#1607,#1608),
.UNSPECIFIED.,.F.,.F.,
(3,3),
(0.,1.),
.UNSPECIFIED.);
#1220=VERTEX_POINT('',#1609);
#1221=LINE('',#1610,#1611);
#1222=B_SPLINE_CURVE_WITH_KNOTS('',2,
(#1613,#1614,#1615),
.UNSPECIFIED.,.F.,.F.,
(3,3),
(0.,1.),
.UNSPECIFIED.);
#1223=VERTEX_POINT('',#1616);
#1224=LINE('',#1617,#1618);
#1225=B_SPLINE_CURVE_WITH_KNOTS('',2,
(#1620,#1621,#1622),
.UNSPECIFIED.,.F.,.F.,
(3,3),
(0.,1.),
.UNSPECIFIED.);
#1226=VERTEX_POINT('',#1623);
#1227=LINE('',#1624,#1625);
#1228=LINE('',#1627,#1628);
#1229=VERTEX_POINT('',#1630);
#1230=LINE('',#1631,#1632);
#1231=LINE('',#1634,#1635);
#1232=VERTEX_POINT('',#1637);
#1233=LINE('',#1638,#1639);
#1234=LINE('',#1641,#1642);
#1235=VERTEX_POINT('',#1644);
#1236=LINE('',#1645,#1646);
#1237=B_SPLINE_CURVE_WITH_KNOTS('',2,
(#1648,#1649,#1650),
.UNSPECIFIED.,.F.,.F.,
(3,3),
(0.,1.),
.UNSPECIFIED.);
#1238=B_SPLINE_CURVE_WITH_KNOTS('',2,
(#1651,#1652,#1653),
.UNSPECIFIED.,.F.,.F.,
(3,3),
(0.,1.),
.UNSPECIFIED.);
#1239=VERTEX_POINT('',#1654);
#1240=LINE('',#1655,#1656);
#1241=VERTEX_POINT('',#1658);
#1242=B_SPLINE_CURVE_WITH_KNOTS('',2,
(#1659,#1660,#1661),
.UNSPECIFIED.,.F.,.F.,
(3,3),
(0.,1.),
.UNSPECIFIED.);
#1243=LINE('',#1662,#1663);
#1244=VERTEX_POINT('',#1665);
#1245=B_SPLINE_CURVE_WITH_KNOTS('',2,
(#1666,#1667,#1668),
.UNSPECIFIED.,.F.,.F.,
(3,3),
(0.,1.),
.UNSPECIFIED.);
#1246=LINE('',#1669,#1670);
#1247=VERTEX_POINT('',#1672);
#1248=B_SPLINE_CURVE_WITH_KNOTS('',2,
(#1673,#1674,#1675),
.UNSPECIFIED.,.F.,.F.,
(3,3),
(0.,1.),
.UNSPECIFIED.);
#1249=LINE('',#1676,#1677);
#1250=VERTEX_POINT('',#1679);
#1251=B_SPLINE_CURVE_WITH_KNOTS('',2,
(#1680,#1681,#1682),
.UNSPECIFIED.,.F.,.F.,
(3,3),
(0.,1.),
.UNSPECIFIED.);
#1252=LINE('',#1683,#1684);
#1253=VERTEX_POINT('',#1686);
#1254=B_SPLINE_CURVE_WITH_KNOTS('',2,
(#1687,#1688,#1689),
.UNSPECIFIED.,.F.,.F.,
(3,3),
(0.,1.),
.UNSPECIFIED.);
#1255=LINE('',#1690,#1691);
#1256=VERTEX_POINT('',#1693);
#1257=B_SPLINE_CURVE_WITH_KNOTS('',2,
(#1694,#1695,#1696),
.UNSPECIFIED.,.F.,.F.,
(3,3),
(0.,1.),
.UNSPECIFIED.);
#1258=LINE('',#1697,#1698);
#1259=VERTEX_POINT('',#1700);
#1260=B_SPLINE_CURVE_WITH_KNOTS('',2,
(#1701,#1702,#1703),
.UNSPECIFIED.,.F.,.F.,
(3,3),
(0.,1.),
.UNSPECIFIED.);
#1261=LINE('',#1704,#1705);
#1262=B_SPLINE_CURVE_WITH_KNOTS('',2,
(#1707,#1708,#1709),
.UNSPECIFIED.,.F.,.F.,
(3,3),
(0.,1.),
.UNSPECIFIED.);
#1263=VERTEX_POINT('',#1710);
#1264=LINE('',#1711,#1712);
#1265=VERTEX_POINT('',#1714);
#1266=B_SPLINE_CURVE_WITH_KNOTS('',2,
(#1715,#1716,#1717),
.UNSPECIFIED.,.F.,.F.,
(3,3),
(0.,1.),
.UNSPECIFIED.);
#1267=LINE('',#1718,#1719);
#1268=VERTEX_POINT('',#1721);
#1269=LINE('',#1722,#1723);
#1270=B_SPLINE_CURVE_WITH_KNOTS('',2,
(#1725,#1726,#1727),
.UNSPECIFIED.,.F.,.F.,
(3,3),
(0.,1.),
.UNSPECIFIED.);
#1271=VERTEX_POINT('',#1728);
#1272=LINE('',#1729,#1730);
#1273=B_SPLINE_CURVE_WITH_KNOTS('',2,
(#1732,#1733,#1734),
.UNSPECIFIED.,.F.,.F.,
(3,3),
(0.,1.),
.UNSPECIFIED.);
#1274=VERTEX_POINT('',#1735);
#1275=LINE('',#1736,#1737);
#1276=B_SPLINE_CURVE_WITH_KNOTS('',2,
(#1739,#1740,#1741),
.UNSPECIFIED.,.F.,.F.,
(3,3),
(0.,1.),
.UNSPECIFIED.);
#1277=VERTEX_POINT('',#1742);
#1278=LINE('',#1743,#1744);
#1279=B_SPLINE_CURVE_WITH_KNOTS('',2,
(#1746,#1747,#1748),
.UNSPECIFIED.,.F.,.F.,
(3,3),
(0.,1.),
.UNSPECIFIED.);
#1280=VERTEX_POINT('',#1749);
#1281=LINE('',#1750,#1751);
#1282=B_SPLINE_CURVE_WITH_KNOTS('',2,
(#1753,#1754,#1755),
.UNSPECIFIED.,.F.,.F.,
(3,3),
(0.,1.),
.UNSPECIFIED.);
#1283=VERTEX_POINT('',#1756);
#1284=LINE('',#1757,#1758);
#1285=B_SPLINE_CURVE_WITH_KNOTS('',2,
(#1760,#1761,#1762),
.UNSPECIFIED.,.F.,.F.,
(3,3),
(0.,1.),
.UNSPECIFIED.);
#1286=VERTEX_POINT('',#1763);
#1287=LINE('',#1764,#1765);
#1288=B_SPLINE_CURVE_WITH_KNOTS('',2,
(#1767,#1768,#1769),
.UNSPECIFIED.,.F.,.F.,
(3,3),
(0.,1.),
.UNSPECIFIED.);
#1289=VERTEX_POINT('',#1770);
#1290=LINE('',#1771,#1772);
#1291=B_SPLINE_CURVE_WITH_KNOTS('',2,
(#1774,#1775,#1776),
.UNSPECIFIED.,.F.,.F.,
(3,3),
(0.,1.),
.UNSPECIFIED.);
#1292=B_SPLINE_CURVE_WITH_KNOTS('',2,
(#1777,#1778,#1779),
.UNSPECIFIED.,.F.,.F.,
(3,3),
(0.,1.),
.UNSPECIFIED.);
#1293=VERTEX_POINT('',#1780);
#1294=LINE('',#1781,#1782);
#1295=VERTEX_POINT('',#1784);
#1296=B_SPLINE_CURVE_WITH_KNOTS('',2,
(#1785,#1786,#1787),
.UNSPECIFIED.,.F.,.F.,
(3,3),
(0.,1.),
.UNSPECIFIED.);
#1297=LINE('',#1788,#1789);
#1298=VERTEX_POINT('',#1791);
#1299=B_SPLINE_CURVE_WITH_KNOTS('',2,
(#1792,#1793,#1794),
.UNSPECIFIED.,.F.,.F.,
(3,3),
(0.,1.),
.UNSPECIFIED.);
#1300=LINE('',#1795,#1796);
#1301=VERTEX_POINT('',#1798);
#1302=B_SPLINE_CURVE_WITH_KNOTS('',2,
(#1799,#1800,#1801),
.UNSPECIFIED.,.F.,.F.,
(3,3),
(0.,1.),
.UNSPECIFIED.);
#1303=LINE('',#1802,#1803);
#1304=VERTEX_POINT('',#1805);
#1305=B_SPLINE_CURVE_WITH_KNOTS('',2,
(#1806,#1807,#1808),
.UNSPECIFIED.,.F.,.F.,
(3,3),
(0.,1.),
.UNSPECIFIED.);
#1306=LINE('',#1809,#1810);
#1307=VERTEX_POINT('',#1812);
#1308=B_SPLINE_CURVE_WITH_KNOTS('',2,
(#1813,#1814,#1815),
.UNSPECIFIED.,.F.,.F.,
(3,3),
(0.,1.),
.UNSPECIFIED.);
#1309=LINE('',#1816,#1817);
#1310=VERTEX_POINT('',#1819);
#1311=B_SPLINE_CURVE_WITH_KNOTS('',2,
(#1820,#1821,#1822),
.UNSPECIFIED.,.F.,.F.,
(3,3),
(0.,1.),
.UNSPECIFIED.);
#1312=LINE('',#1823,#1824);
#1313=VERTEX_POINT('',#1826);
#1314=B_SPLINE_CURVE_WITH_KNOTS('',2,
(#1827,#1828,#1829),
.UNSPECIFIED.,.F.,.F.,
(3,3),
(0.,1.),
.UNSPECIFIED.);
#1315=LINE('',#1830,#1831);
#1316=B_SPLINE_CURVE_WITH_KNOTS('',2,
(#1833,#1834,#1835),
.UNSPECIFIED.,.F.,.F.,
(3,3),
(0.,1.),
.UNSPECIFIED.);
#1317=VERTEX_POINT('',#1836);
#1318=LINE('',#1837,#1838);
#1319=VERTEX_POINT('',#1840);
#1320=LINE('',#1841,#1842);
#1321=LINE('',#1844,#1845);
#1322=VERTEX_POINT('',#1847);
#1323=LINE('',#1848,#1849);
#1324=LINE('',#1851,#1852);
#1325=VERTEX_POINT('',#1854);
#1326=LINE('',#1855,#1856);
#1327=LINE('',#1858,#1859);
#1328=VERTEX_POINT('',#1861);
#1329=LINE('',#1862,#1863);
#1330=LINE('',#1865,#1866);
#1331=VERTEX_POINT('',#1868);
#1332=LINE('',#1869,#1870);
#1333=LINE('',#1872,#1873);
#1334=LINE('',#1875,#1876);
#1335=VERTEX_POINT('',#1878);
#1336=LINE('',#1879,#1880);
#1337=VERTEX_POINT('',#1882);
#1338=LINE('',#1883,#1884);
#1339=LINE('',#1886,#1887);
#1340=VERTEX_POINT('',#1889);
#1341=LINE('',#1890,#1891);
#1342=LINE('',#1893,#1894);
#1343=VERTEX_POINT('',#1896);
#1344=LINE('',#1897,#1898);
#1345=LINE('',#1900,#1901);
#1346=LINE('',#1903,#1904);
#1347=VERTEX_POINT('',#1906);
#1348=VERTEX_POINT('',#1907);
#1349=LINE('',#1908,#1909);
#1350=VERTEX_POINT('',#1911);
#1351=LINE('',#1912,#1913);
#1352=VERTEX_POINT('',#1915);
#1353=LINE('',#1916,#1917);
#1354=LINE('',#1919,#1920);
#1355=VERTEX_POINT('',#1922);
#1356=VERTEX_POINT('',#1923);
#1357=LINE('',#1924,#1925);
#1358=LINE('',#1927,#1928);
#1359=LINE('',#1930,#1931);
#1360=VERTEX_POINT('',#1933);
#1361=LINE('',#1934,#1935);
#1362=LINE('',#1937,#1938);
#1363=VERTEX_POINT('',#1940);
#1364=LINE('',#1941,#1942);
#1365=LINE('',#1944,#1945);
#1366=LINE('',#1947,#1948);
#1367=CARTESIAN_POINT('',(26.8093933218792,8.66428189107276,1.));
#1368=CARTESIAN_POINT('',(26.2451693776764,6.17225417814583,1.));
#1369=CARTESIAN_POINT('',(26.2451693776764,6.17225417814583,1.));
#1370=CARTESIAN_POINT('',(26.8237800340686,7.87484790795942,1.));
#1371=CARTESIAN_POINT('',(26.8093933218792,8.66428189107276,1.));
#1372=CARTESIAN_POINT('',(26.1943032308337,9.45371587418611,1.));
#1373=CARTESIAN_POINT('',(26.8093933218792,8.66428189107276,1.));
#1374=CARTESIAN_POINT('',(26.7950066096898,9.45371587418611,1.));
#1375=CARTESIAN_POINT('',(26.1943032308337,9.45371587418611,1.));
#1376=CARTESIAN_POINT('',(25.0584304239366,8.67607240428453,1.));
#1377=CARTESIAN_POINT('',(26.1943032308337,9.45371587418611,1.));
#1378=CARTESIAN_POINT('',(25.6112607682819,9.45371587418611,1.));
#1379=CARTESIAN_POINT('',(25.0584304239366,8.67607240428453,1.));
#1380=CARTESIAN_POINT('',(23.9730269151245,6.3313349123591,1.));
#1381=CARTESIAN_POINT('',(25.0584304239366,8.67607240428453,1.));
#1382=CARTESIAN_POINT('',(24.5056001118896,7.89842890208469,1.));
#1383=CARTESIAN_POINT('',(23.9730269151245,6.3313349123591,1.));
#1384=CARTESIAN_POINT('',(23.4018576493378,3.82753322293106,1.));
#1385=CARTESIAN_POINT('',(23.9730269151245,6.3313349123591,1.));
#1386=CARTESIAN_POINT('',(23.39041440705,4.61696720604441,1.));
#1387=CARTESIAN_POINT('',(23.4018576493378,3.82753322293106,1.));
#1388=CARTESIAN_POINT('',(24.0140042704817,3.03809920751945,1.));
#1389=CARTESIAN_POINT('',(23.4018576493378,3.82753322293106,1.));
#1390=CARTESIAN_POINT('',(23.4133008916256,3.03809920751945,1.));
#1391=CARTESIAN_POINT('',(24.0140042704817,3.03809920751945,1.));
#1392=CARTESIAN_POINT('',(25.1568223666644,3.82753322293106,1.));
#1393=CARTESIAN_POINT('',(24.0140042704817,3.03809920751945,1.));
#1394=CARTESIAN_POINT('',(24.5970136273139,3.03809920751945,1.));
#1395=CARTESIAN_POINT('',(25.1568223666644,3.82753322293106,1.));
#1396=CARTESIAN_POINT('',(25.1568223666644,3.82753322293106,1.));
#1397=CARTESIAN_POINT('',(25.7166310737166,4.61696720604441,1.));
#1398=CARTESIAN_POINT('',(26.2451693776764,6.17225417814583,1.));
#1399=CARTESIAN_POINT('',(32.9043510327794,7.04853764143517,1.));
#1400=CARTESIAN_POINT('',(32.1787808250023,6.62161587418611,1.));
#1401=CARTESIAN_POINT('',(32.1787808250023,6.62161587418611,1.));
#1402=CARTESIAN_POINT('',(32.5441704285221,6.62161587418611,1.));
#1403=CARTESIAN_POINT('',(32.9043510327794,7.04853764143517,1.));
#1404=CARTESIAN_POINT('',(33.5106602596556,8.19972318402055,1.));
#1405=CARTESIAN_POINT('',(32.9043510327794,7.04853764143517,1.));
#1406=CARTESIAN_POINT('',(33.2645316370366,7.47545937638596,1.));
#1407=CARTESIAN_POINT('',(33.5106602596556,8.19972318402055,1.));
#1408=CARTESIAN_POINT('',(33.6400745871142,9.10067903204069,1.));
#1409=CARTESIAN_POINT('',(33.5106602596556,8.19972318402055,1.));
#1410=CARTESIAN_POINT('',(33.7047983037033,8.77092552322861,1.));
#1411=CARTESIAN_POINT('',(33.6400745871142,9.10067903204069,1.));
#1412=CARTESIAN_POINT('',(33.2806712082581,9.43043254085278,1.));
#1413=CARTESIAN_POINT('',(33.6400745871142,9.10067903204069,1.));
#1414=CARTESIAN_POINT('',(33.5753509028234,9.43043254085278,1.));
#1415=CARTESIAN_POINT('',(33.2806712082581,9.43043254085278,1.));
#1416=CARTESIAN_POINT('',(32.5718193888741,9.00939777800341,1.));
#1417=CARTESIAN_POINT('',(33.2806712082581,9.43043254085278,1.));
#1418=CARTESIAN_POINT('',(32.921168609138,9.43043254085278,1.));
#1419=CARTESIAN_POINT('',(32.5718193888741,9.00939777800341,1.));
#1420=CARTESIAN_POINT('',(31.9723396943088,7.8523252633166,1.));
#1421=CARTESIAN_POINT('',(32.5718193888741,9.00939777800341,1.));
#1422=CARTESIAN_POINT('',(32.2224701686101,8.58836301515404,1.));
#1423=CARTESIAN_POINT('',(31.9723396943088,7.8523252633166,1.));
#1424=CARTESIAN_POINT('',(31.8380636385117,6.95431288519804,1.));
#1425=CARTESIAN_POINT('',(31.9723396943088,7.8523252633166,1.));
#1426=CARTESIAN_POINT('',(31.7802191289621,7.28700989620997,1.));
#1427=CARTESIAN_POINT('',(31.8380636385117,6.95431288519804,1.));
#1428=CARTESIAN_POINT('',(31.8380636385117,6.95431288519804,1.));
#1429=CARTESIAN_POINT('',(31.8959081803595,6.62161587418611,1.));
#1430=CARTESIAN_POINT('',(32.1787808250023,6.62161587418611,1.));
#1431=CARTESIAN_POINT('',(48.5,0.999999999999999,1.));
#1432=CARTESIAN_POINT('',(1.,0.999999999999999,1.));
#1433=CARTESIAN_POINT('',(1.,0.999999999999999,1.));
#1434=VECTOR('',#1435,1.);
#1435=DIRECTION('',(1.,0.,0.));
#1436=CARTESIAN_POINT('',(48.5,11.5,1.));
#1437=CARTESIAN_POINT('',(48.5,0.999999999999999,1.));
#1438=VECTOR('',#1439,1.);
#1439=DIRECTION('',(0.,1.,0.));
#1440=CARTESIAN_POINT('',(1.,11.5,1.));
#1441=CARTESIAN_POINT('',(48.5,11.5,1.));
#1442=VECTOR('',#1443,1.);
#1443=DIRECTION('',(-1.,0.,0.));
#1444=CARTESIAN_POINT('',(1.,11.5,1.));
#1445=VECTOR('',#1446,1.);
#1446=DIRECTION('',(0.,-1.,0.));
#1447=CARTESIAN_POINT('',(17.6983014002519,9.19991431471407,1.));
#1448=CARTESIAN_POINT('',(15.361832102167,2.32478254085278,1.));
#1449=CARTESIAN_POINT('',(17.6983014002519,9.19991431471407,1.));
#1450=VECTOR('',#1451,1.);
#1451=DIRECTION('',(-0.321769963312185,-0.946817876209609,0.));
#1452=CARTESIAN_POINT('',(16.0731974692736,8.95841587418611,1.));
#1453=CARTESIAN_POINT('',(16.0731974692736,8.95841587418611,1.));
#1454=VECTOR('',#1455,1.);
#1455=DIRECTION('',(0.989137866143484,0.146990753998729,0.));
#1456=CARTESIAN_POINT('',(16.3314308026069,9.71829920751945,1.));
#1457=CARTESIAN_POINT('',(16.3314308026069,9.71829920751945,1.));
#1458=VECTOR('',#1459,1.);
#1459=DIRECTION('',(-0.321760883930677,-0.946820961730437,0.));
#1460=CARTESIAN_POINT('',(20.1742391520894,10.3130825408528,1.));
#1461=CARTESIAN_POINT('',(20.1742391520894,10.3130825408528,1.));
#1462=VECTOR('',#1463,1.);
#1463=DIRECTION('',(-0.988232845540621,-0.152956997207341,0.));
#1464=CARTESIAN_POINT('',(17.4594487688336,2.32478254085278,1.));
#1465=CARTESIAN_POINT('',(17.4594487688336,2.32478254085278,1.));
#1466=VECTOR('',#1467,1.);
#1467=DIRECTION('',(0.32177187861683,0.946817225303488,0.));
#1468=CARTESIAN_POINT('',(15.361832102167,2.32478254085278,1.));
#1469=VECTOR('',#1470,1.);
#1470=DIRECTION('',(1.,0.,0.));
#1471=CARTESIAN_POINT('',(28.5629524510977,6.59585209884978,1.));
#1472=CARTESIAN_POINT('',(28.7117474804713,9.37372903204069,1.));
#1473=CARTESIAN_POINT('',(28.5629524510977,6.59585209884978,1.));
#1474=CARTESIAN_POINT('',(29.1676245759165,8.37510885656194,1.));
#1475=CARTESIAN_POINT('',(28.7117474804713,9.37372903204069,1.));
#1476=CARTESIAN_POINT('',(27.7378327954429,4.88728868108319,1.));
#1477=CARTESIAN_POINT('',(27.7378327954429,4.88728868108319,1.));
#1478=CARTESIAN_POINT('',(28.2485943615272,5.67086876551645,1.));
#1479=CARTESIAN_POINT('',(28.5629524510977,6.59585209884978,1.));
#1480=CARTESIAN_POINT('',(26.543685524519,3.49688673174314,1.));
#1481=CARTESIAN_POINT('',(26.543685524519,3.49688673174314,1.));
#1482=CARTESIAN_POINT('',(27.2270711970604,4.10370859664994,1.));
#1483=CARTESIAN_POINT('',(27.7378327954429,4.88728868108319,1.));
#1484=CARTESIAN_POINT('',(24.9730031008777,2.48060560766186,1.));
#1485=CARTESIAN_POINT('',(24.9730031008777,2.48060560766186,1.));
#1486=CARTESIAN_POINT('',(25.7872417624072,2.83116197550602,1.));
#1487=CARTESIAN_POINT('',(26.543685524519,3.49688673174314,1.));
#1488=CARTESIAN_POINT('',(23.3634930619672,2.13004920751945,1.));
#1489=CARTESIAN_POINT('',(23.3634930619672,2.13004920751945,1.));
#1490=CARTESIAN_POINT('',(24.15876440705,2.13004920751945,1.));
#1491=CARTESIAN_POINT('',(24.9730031008777,2.48060560766186,1.));
#1492=CARTESIAN_POINT('',(21.497535654475,3.09625794686992,1.));
#1493=CARTESIAN_POINT('',(21.497535654475,3.09625794686992,1.));
#1494=CARTESIAN_POINT('',(21.9732730164444,2.13004920751945,1.));
#1495=CARTESIAN_POINT('',(23.3634930619672,2.13004920751945,1.));
#1496=CARTESIAN_POINT('',(21.5964402029351,5.75335261867379,1.));
#1497=CARTESIAN_POINT('',(21.5964402029351,5.75335261867379,1.));
#1498=CARTESIAN_POINT('',(21.0217982602073,4.0624666862204,1.));
#1499=CARTESIAN_POINT('',(21.497535654475,3.09625794686992,1.));
#1500=CARTESIAN_POINT('',(23.7615917624072,9.0909390709512,1.));
#1501=CARTESIAN_POINT('',(23.7615917624072,9.0909390709512,1.));
#1502=CARTESIAN_POINT('',(22.2952047903057,7.80952890208469,1.));
#1503=CARTESIAN_POINT('',(21.5964402029351,5.75335261867379,1.));
#1504=CARTESIAN_POINT('',(26.8538433218792,10.3723492075194,1.));
#1505=CARTESIAN_POINT('',(26.8538433218792,10.3723492075194,1.));
#1506=CARTESIAN_POINT('',(25.2279787345086,10.3723492075194,1.));
#1507=CARTESIAN_POINT('',(23.7615917624072,9.0909390709512,1.));
#1508=CARTESIAN_POINT('',(28.7117474804713,9.37372903204069,1.));
#1509=CARTESIAN_POINT('',(28.2558704173244,10.3723492075194,1.));
#1510=CARTESIAN_POINT('',(26.8538433218792,10.3723492075194,1.));
#1511=CARTESIAN_POINT('',(33.9043602596556,5.3185429696313,1.));
#1512=CARTESIAN_POINT('',(35.5588329365967,7.89846197550602,1.));
#1513=CARTESIAN_POINT('',(33.9043602596556,5.3185429696313,1.));
#1514=CARTESIAN_POINT('',(35.2345529821194,6.94424218989528,1.));
#1515=CARTESIAN_POINT('',(35.5588329365967,7.89846197550602,1.));
#1516=CARTESIAN_POINT('',(33.7242120790396,5.10059244980728,1.));
#1517=CARTESIAN_POINT('',(33.7242120790396,5.10059244980728,1.));
#1518=CARTESIAN_POINT('',(33.7835779659703,5.17126928534046,1.));
#1519=CARTESIAN_POINT('',(33.9043602596556,5.3185429696313,1.));
#1520=CARTESIAN_POINT('',(31.4669524622954,2.32478254085278,1.));
#1521=CARTESIAN_POINT('',(31.4669524622954,2.32478254085278,1.));
#1522=VECTOR('',#1523,1.);
#1523=DIRECTION('',(0.630914823833741,0.775852102572932,0.));
#1524=CARTESIAN_POINT('',(29.2217644182477,2.32478254085278,1.));
#1525=CARTESIAN_POINT('',(29.2217644182477,2.32478254085278,1.));
#1526=VECTOR('',#1527,1.);
#1527=DIRECTION('',(1.,0.,0.));
#1528=CARTESIAN_POINT('',(32.1180589600955,5.76664790795942,1.));
#1529=CARTESIAN_POINT('',(32.1180589600955,5.76664790795942,1.));
#1530=VECTOR('',#1531,1.);
#1531=DIRECTION('',(-0.643860167828156,-0.765143178943849,0.));
#1532=CARTESIAN_POINT('',(31.6294066208875,5.66344387932332,1.));
#1533=CARTESIAN_POINT('',(31.6294066208875,5.66344387932332,1.));
#1534=CARTESIAN_POINT('',(31.8407094799196,5.69587188446052,1.));
#1535=CARTESIAN_POINT('',(32.1180589600955,5.76664790795942,1.));
#1536=CARTESIAN_POINT('',(31.2531691289621,5.63101587418611,1.));
#1537=CARTESIAN_POINT('',(31.2531691289621,5.63101587418611,1.));
#1538=CARTESIAN_POINT('',(31.4181037618554,5.63101587418611,1.));
#1539=CARTESIAN_POINT('',(31.6294066208875,5.66344387932332,1.));
#1540=CARTESIAN_POINT('',(29.9243324167726,6.17582604305262,1.));
#1541=CARTESIAN_POINT('',(29.9243324167726,6.17582604305262,1.));
#1542=CARTESIAN_POINT('',(30.2929300452663,5.63101587418611,1.));
#1543=CARTESIAN_POINT('',(31.2531691289621,5.63101587418611,1.));
#1544=CARTESIAN_POINT('',(29.873995412373,7.65712890208469,1.));
#1545=CARTESIAN_POINT('',(29.873995412373,7.65712890208469,1.));
#1546=CARTESIAN_POINT('',(29.5557347559807,6.72063621191913,1.));
#1547=CARTESIAN_POINT('',(29.9243324167726,6.17582604305262,1.));
#1548=CARTESIAN_POINT('',(31.3818723778621,9.58900066933374,1.));
#1549=CARTESIAN_POINT('',(31.3818723778621,9.58900066933374,1.));
#1550=CARTESIAN_POINT('',(30.2643219879941,8.80565209884978,1.));
#1551=CARTESIAN_POINT('',(29.873995412373,7.65712890208469,1.));
#1552=CARTESIAN_POINT('',(33.7543084402715,10.3723492075194,1.));
#1553=CARTESIAN_POINT('',(33.7543084402715,10.3723492075194,1.));
#1554=CARTESIAN_POINT('',(32.4994227677301,10.3723492075194,1.));
#1555=CARTESIAN_POINT('',(31.3818723778621,9.58900066933374,1.));
#1556=CARTESIAN_POINT('',(35.4526192589181,9.70086980516447,1.));
#1557=CARTESIAN_POINT('',(35.4526192589181,9.70086980516447,1.));
#1558=CARTESIAN_POINT('',(34.962065230282,10.3723492075194,1.));
#1559=CARTESIAN_POINT('',(33.7543084402715,10.3723492075194,1.));
#1560=CARTESIAN_POINT('',(35.5588329365967,7.89846197550602,1.));
#1561=CARTESIAN_POINT('',(35.9431732875542,9.02939037051123,1.));
#1562=CARTESIAN_POINT('',(35.4526192589181,9.70086980516447,1.));
#1563=CARTESIAN_POINT('',(35.4526192589181,9.70086980516447,2.));
#1564=CARTESIAN_POINT('',(35.4526192589181,9.70086980516447,1.));
#1565=VECTOR('',#1566,1.);
#1566=DIRECTION('',(0.,0.,1.));
#1567=CARTESIAN_POINT('',(35.5588329365967,7.89846197550602,2.));
#1568=CARTESIAN_POINT('',(35.5588329365967,7.89846197550602,2.));
#1569=CARTESIAN_POINT('',(35.9431732875542,9.02939037051123,2.));
#1570=CARTESIAN_POINT('',(35.4526192589181,9.70086980516447,2.));
#1571=CARTESIAN_POINT('',(35.5588329365967,7.89846197550602,1.));
#1572=VECTOR('',#1573,1.);
#1573=DIRECTION('',(0.,0.,1.));
#1574=CARTESIAN_POINT('',(33.7543084402715,10.3723492075194,2.));
#1575=CARTESIAN_POINT('',(33.7543084402715,10.3723492075194,1.));
#1576=VECTOR('',#1577,1.);
#1577=DIRECTION('',(0.,0.,1.));
#1578=CARTESIAN_POINT('',(35.4526192589181,9.70086980516447,2.));
#1579=CARTESIAN_POINT('',(34.962065230282,10.3723492075194,2.));
#1580=CARTESIAN_POINT('',(33.7543084402715,10.3723492075194,2.));
#1581=CARTESIAN_POINT('',(31.3818723778621,9.58900066933374,2.));
#1582=CARTESIAN_POINT('',(31.3818723778621,9.58900066933374,1.));
#1583=VECTOR('',#1584,1.);
#1584=DIRECTION('',(0.,0.,1.));
#1585=CARTESIAN_POINT('',(33.7543084402715,10.3723492075194,2.));
#1586=CARTESIAN_POINT('',(32.4994227677301,10.3723492075194,2.));
#1587=CARTESIAN_POINT('',(31.3818723778621,9.58900066933374,2.));
#1588=CARTESIAN_POINT('',(29.873995412373,7.65712890208469,2.));
#1589=CARTESIAN_POINT('',(29.873995412373,7.65712890208469,1.));
#1590=VECTOR('',#1591,1.);
#1591=DIRECTION('',(0.,0.,1.));
#1592=CARTESIAN_POINT('',(31.3818723778621,9.58900066933374,2.));
#1593=CARTESIAN_POINT('',(30.2643219879941,8.80565209884978,2.));
#1594=CARTESIAN_POINT('',(29.873995412373,7.65712890208469,2.));
#1595=CARTESIAN_POINT('',(29.9243324167726,6.17582604305262,2.));
#1596=CARTESIAN_POINT('',(29.9243324167726,6.17582604305262,1.));
#1597=VECTOR('',#1598,1.);
#1598=DIRECTION('',(0.,0.,1.));
#1599=CARTESIAN_POINT('',(29.873995412373,7.65712890208469,2.));
#1600=CARTESIAN_POINT('',(29.5557347559807,6.72063621191913,2.));
#1601=CARTESIAN_POINT('',(29.9243324167726,6.17582604305262,2.));
#1602=CARTESIAN_POINT('',(31.2531691289621,5.63101587418611,2.));
#1603=CARTESIAN_POINT('',(31.2531691289621,5.63101587418611,1.));
#1604=VECTOR('',#1605,1.);
#1605=DIRECTION('',(0.,0.,1.));
#1606=CARTESIAN_POINT('',(29.9243324167726,6.17582604305262,2.));
#1607=CARTESIAN_POINT('',(30.2929300452663,5.63101587418611,2.));
#1608=CARTESIAN_POINT('',(31.2531691289621,5.63101587418611,2.));
#1609=CARTESIAN_POINT('',(31.6294066208875,5.66344387932332,2.));
#1610=CARTESIAN_POINT('',(31.6294066208875,5.66344387932332,1.));
#1611=VECTOR('',#1612,1.);
#1612=DIRECTION('',(0.,0.,1.));
#1613=CARTESIAN_POINT('',(31.2531691289621,5.63101587418611,2.));
#1614=CARTESIAN_POINT('',(31.4181037618554,5.63101587418611,2.));
#1615=CARTESIAN_POINT('',(31.6294066208875,5.66344387932332,2.));
#1616=CARTESIAN_POINT('',(32.1180589600955,5.76664790795942,2.));
#1617=CARTESIAN_POINT('',(32.1180589600955,5.76664790795942,1.));
#1618=VECTOR('',#1619,1.);
#1619=DIRECTION('',(0.,0.,1.));
#1620=CARTESIAN_POINT('',(31.6294066208875,5.66344387932332,2.));
#1621=CARTESIAN_POINT('',(31.8407094799196,5.69587188446052,2.));
#1622=CARTESIAN_POINT('',(32.1180589600955,5.76664790795942,2.));
#1623=CARTESIAN_POINT('',(29.2217644182477,2.32478254085278,2.));
#1624=CARTESIAN_POINT('',(29.2217644182477,2.32478254085278,1.));
#1625=VECTOR('',#1626,1.);
#1626=DIRECTION('',(0.,0.,1.));
#1627=CARTESIAN_POINT('',(32.1180589600955,5.76664790795942,2.));
#1628=VECTOR('',#1629,1.);
#1629=DIRECTION('',(-0.643860167828156,-0.765143178943849,0.));
#1630=CARTESIAN_POINT('',(31.4669524622954,2.32478254085278,2.));
#1631=CARTESIAN_POINT('',(31.4669524622954,2.32478254085278,1.));
#1632=VECTOR('',#1633,1.);
#1633=DIRECTION('',(0.,0.,1.));
#1634=CARTESIAN_POINT('',(29.2217644182477,2.32478254085278,2.));
#1635=VECTOR('',#1636,1.);
#1636=DIRECTION('',(1.,0.,0.));
#1637=CARTESIAN_POINT('',(33.7242120790396,5.10059244980728,2.));
#1638=CARTESIAN_POINT('',(33.7242120790396,5.10059244980728,1.));
#1639=VECTOR('',#1640,1.);
#1640=DIRECTION('',(0.,0.,1.));
#1641=CARTESIAN_POINT('',(31.4669524622954,2.32478254085278,2.));
#1642=VECTOR('',#1643,1.);
#1643=DIRECTION('',(0.630914823833741,0.775852102572932,0.));
#1644=CARTESIAN_POINT('',(33.9043602596556,5.3185429696313,2.));
#1645=CARTESIAN_POINT('',(33.9043602596556,5.3185429696313,1.));
#1646=VECTOR('',#1647,1.);
#1647=DIRECTION('',(0.,0.,1.));
#1648=CARTESIAN_POINT('',(33.7242120790396,5.10059244980728,2.));
#1649=CARTESIAN_POINT('',(33.7835779659703,5.17126928534046,2.));
#1650=CARTESIAN_POINT('',(33.9043602596556,5.3185429696313,2.));
#1651=CARTESIAN_POINT('',(33.9043602596556,5.3185429696313,2.));
#1652=CARTESIAN_POINT('',(35.2345529821194,6.94424218989528,2.));
#1653=CARTESIAN_POINT('',(35.5588329365967,7.89846197550602,2.));
#1654=CARTESIAN_POINT('',(32.9043510327794,7.04853764143517,2.));
#1655=CARTESIAN_POINT('',(32.9043510327794,7.04853764143517,1.));
#1656=VECTOR('',#1657,1.);
#1657=DIRECTION('',(0.,0.,1.));
#1658=CARTESIAN_POINT('',(33.5106602596556,8.19972318402055,2.));
#1659=CARTESIAN_POINT('',(32.9043510327794,7.04853764143517,2.));
#1660=CARTESIAN_POINT('',(33.2645316370366,7.47545937638596,2.));
#1661=CARTESIAN_POINT('',(33.5106602596556,8.19972318402055,2.));
#1662=CARTESIAN_POINT('',(33.5106602596556,8.19972318402055,1.));
#1663=VECTOR('',#1664,1.);
#1664=DIRECTION('',(0.,0.,1.));
#1665=CARTESIAN_POINT('',(33.6400745871142,9.10067903204069,2.));
#1666=CARTESIAN_POINT('',(33.5106602596556,8.19972318402055,2.));
#1667=CARTESIAN_POINT('',(33.7047983037033,8.77092552322861,2.));
#1668=CARTESIAN_POINT('',(33.6400745871142,9.10067903204069,2.));
#1669=CARTESIAN_POINT('',(33.6400745871142,9.10067903204069,1.));
#1670=VECTOR('',#1671,1.);
#1671=DIRECTION('',(0.,0.,1.));
#1672=CARTESIAN_POINT('',(33.2806712082581,9.43043254085278,2.));
#1673=CARTESIAN_POINT('',(33.6400745871142,9.10067903204069,2.));
#1674=CARTESIAN_POINT('',(33.5753509028234,9.43043254085278,2.));
#1675=CARTESIAN_POINT('',(33.2806712082581,9.43043254085278,2.));
#1676=CARTESIAN_POINT('',(33.2806712082581,9.43043254085278,1.));
#1677=VECTOR('',#1678,1.);
#1678=DIRECTION('',(0.,0.,1.));
#1679=CARTESIAN_POINT('',(32.5718193888741,9.00939777800341,2.));
#1680=CARTESIAN_POINT('',(33.2806712082581,9.43043254085278,2.));
#1681=CARTESIAN_POINT('',(32.921168609138,9.43043254085278,2.));
#1682=CARTESIAN_POINT('',(32.5718193888741,9.00939777800341,2.));
#1683=CARTESIAN_POINT('',(32.5718193888741,9.00939777800341,1.));
#1684=VECTOR('',#1685,1.);
#1685=DIRECTION('',(0.,0.,1.));
#1686=CARTESIAN_POINT('',(31.9723396943088,7.8523252633166,2.));
#1687=CARTESIAN_POINT('',(32.5718193888741,9.00939777800341,2.));
#1688=CARTESIAN_POINT('',(32.2224701686101,8.58836301515404,2.));
#1689=CARTESIAN_POINT('',(31.9723396943088,7.8523252633166,2.));
#1690=CARTESIAN_POINT('',(31.9723396943088,7.8523252633166,1.));
#1691=VECTOR('',#1692,1.);
#1692=DIRECTION('',(0.,0.,1.));
#1693=CARTESIAN_POINT('',(31.8380636385117,6.95431288519804,2.));
#1694=CARTESIAN_POINT('',(31.9723396943088,7.8523252633166,2.));
#1695=CARTESIAN_POINT('',(31.7802191289621,7.28700989620997,2.));
#1696=CARTESIAN_POINT('',(31.8380636385117,6.95431288519804,2.));
#1697=CARTESIAN_POINT('',(31.8380636385117,6.95431288519804,1.));
#1698=VECTOR('',#1699,1.);
#1699=DIRECTION('',(0.,0.,1.));
#1700=CARTESIAN_POINT('',(32.1787808250023,6.62161587418611,2.));
#1701=CARTESIAN_POINT('',(31.8380636385117,6.95431288519804,2.));
#1702=CARTESIAN_POINT('',(31.8959081803595,6.62161587418611,2.));
#1703=CARTESIAN_POINT('',(32.1787808250023,6.62161587418611,2.));
#1704=CARTESIAN_POINT('',(32.1787808250023,6.62161587418611,1.));
#1705=VECTOR('',#1706,1.);
#1706=DIRECTION('',(0.,0.,1.));
#1707=CARTESIAN_POINT('',(32.1787808250023,6.62161587418611,2.));
#1708=CARTESIAN_POINT('',(32.5441704285221,6.62161587418611,2.));
#1709=CARTESIAN_POINT('',(32.9043510327794,7.04853764143517,2.));
#1710=CARTESIAN_POINT('',(26.8538433218792,10.3723492075194,2.));
#1711=CARTESIAN_POINT('',(26.8538433218792,10.3723492075194,1.));
#1712=VECTOR('',#1713,1.);
#1713=DIRECTION('',(0.,0.,1.));
#1714=CARTESIAN_POINT('',(28.7117474804713,9.37372903204069,2.));
#1715=CARTESIAN_POINT('',(28.7117474804713,9.37372903204069,2.));
#1716=CARTESIAN_POINT('',(28.2558704173244,10.3723492075194,2.));
#1717=CARTESIAN_POINT('',(26.8538433218792,10.3723492075194,2.));
#1718=CARTESIAN_POINT('',(28.7117474804713,9.37372903204069,1.));
#1719=VECTOR('',#1720,1.);
#1720=DIRECTION('',(0.,0.,1.));
#1721=CARTESIAN_POINT('',(23.7615917624072,9.0909390709512,2.));
#1722=CARTESIAN_POINT('',(23.7615917624072,9.0909390709512,1.));
#1723=VECTOR('',#1724,1.);
#1724=DIRECTION('',(0.,0.,1.));
#1725=CARTESIAN_POINT('',(26.8538433218792,10.3723492075194,2.));
#1726=CARTESIAN_POINT('',(25.2279787345086,10.3723492075194,2.));
#1727=CARTESIAN_POINT('',(23.7615917624072,9.0909390709512,2.));
#1728=CARTESIAN_POINT('',(21.5964402029351,5.75335261867379,2.));
#1729=CARTESIAN_POINT('',(21.5964402029351,5.75335261867379,1.));
#1730=VECTOR('',#1731,1.);
#1731=DIRECTION('',(0.,0.,1.));
#1732=CARTESIAN_POINT('',(23.7615917624072,9.0909390709512,2.));
#1733=CARTESIAN_POINT('',(22.2952047903057,7.80952890208469,2.));
#1734=CARTESIAN_POINT('',(21.5964402029351,5.75335261867379,2.));
#1735=CARTESIAN_POINT('',(21.497535654475,3.09625794686992,2.));
#1736=CARTESIAN_POINT('',(21.497535654475,3.09625794686992,1.));
#1737=VECTOR('',#1738,1.);
#1738=DIRECTION('',(0.,0.,1.));
#1739=CARTESIAN_POINT('',(21.5964402029351,5.75335261867379,2.));
#1740=CARTESIAN_POINT('',(21.0217982602073,4.0624666862204,2.));
#1741=CARTESIAN_POINT('',(21.497535654475,3.09625794686992,2.));
#1742=CARTESIAN_POINT('',(23.3634930619672,2.13004920751945,2.));
#1743=CARTESIAN_POINT('',(23.3634930619672,2.13004920751945,1.));
#1744=VECTOR('',#1745,1.);
#1745=DIRECTION('',(0.,0.,1.));
#1746=CARTESIAN_POINT('',(21.497535654475,3.09625794686992,2.));
#1747=CARTESIAN_POINT('',(21.9732730164444,2.13004920751945,2.));
#1748=CARTESIAN_POINT('',(23.3634930619672,2.13004920751945,2.));
#1749=CARTESIAN_POINT('',(24.9730031008777,2.48060560766186,2.));
#1750=CARTESIAN_POINT('',(24.9730031008777,2.48060560766186,1.));
#1751=VECTOR('',#1752,1.);
#1752=DIRECTION('',(0.,0.,1.));
#1753=CARTESIAN_POINT('',(23.3634930619672,2.13004920751945,2.));
#1754=CARTESIAN_POINT('',(24.15876440705,2.13004920751945,2.));
#1755=CARTESIAN_POINT('',(24.9730031008777,2.48060560766186,2.));
#1756=CARTESIAN_POINT('',(26.543685524519,3.49688673174314,2.));
#1757=CARTESIAN_POINT('',(26.543685524519,3.49688673174314,1.));
#1758=VECTOR('',#1759,1.);
#1759=DIRECTION('',(0.,0.,1.));
#1760=CARTESIAN_POINT('',(24.9730031008777,2.48060560766186,2.));
#1761=CARTESIAN_POINT('',(25.7872417624072,2.83116197550602,2.));
#1762=CARTESIAN_POINT('',(26.543685524519,3.49688673174314,2.));
#1763=CARTESIAN_POINT('',(27.7378327954429,4.88728868108319,2.));
#1764=CARTESIAN_POINT('',(27.7378327954429,4.88728868108319,1.));
#1765=VECTOR('',#1766,1.);
#1766=DIRECTION('',(0.,0.,1.));
#1767=CARTESIAN_POINT('',(26.543685524519,3.49688673174314,2.));
#1768=CARTESIAN_POINT('',(27.2270711970604,4.10370859664994,2.));
#1769=CARTESIAN_POINT('',(27.7378327954429,4.88728868108319,2.));
#1770=CARTESIAN_POINT('',(28.5629524510977,6.59585209884978,2.));
#1771=CARTESIAN_POINT('',(28.5629524510977,6.59585209884978,1.));
#1772=VECTOR('',#1773,1.);
#1773=DIRECTION('',(0.,0.,1.));
#1774=CARTESIAN_POINT('',(27.7378327954429,4.88728868108319,2.));
#1775=CARTESIAN_POINT('',(28.2485943615272,5.67086876551645,2.));
#1776=CARTESIAN_POINT('',(28.5629524510977,6.59585209884978,2.));
#1777=CARTESIAN_POINT('',(28.5629524510977,6.59585209884978,2.));
#1778=CARTESIAN_POINT('',(29.1676245759165,8.37510885656194,2.));
#1779=CARTESIAN_POINT('',(28.7117474804713,9.37372903204069,2.));
#1780=CARTESIAN_POINT('',(26.8093933218792,8.66428189107276,2.));
#1781=CARTESIAN_POINT('',(26.8093933218792,8.66428189107276,1.));
#1782=VECTOR('',#1783,1.);
#1783=DIRECTION('',(0.,0.,1.));
#1784=CARTESIAN_POINT('',(26.1943032308337,9.45371587418611,2.));
#1785=CARTESIAN_POINT('',(26.8093933218792,8.66428189107276,2.));
#1786=CARTESIAN_POINT('',(26.7950066096898,9.45371587418611,2.));
#1787=CARTESIAN_POINT('',(26.1943032308337,9.45371587418611,2.));
#1788=CARTESIAN_POINT('',(26.1943032308337,9.45371587418611,1.));
#1789=VECTOR('',#1790,1.);
#1790=DIRECTION('',(0.,0.,1.));
#1791=CARTESIAN_POINT('',(25.0584304239366,8.67607240428453,2.));
#1792=CARTESIAN_POINT('',(26.1943032308337,9.45371587418611,2.));
#1793=CARTESIAN_POINT('',(25.6112607682819,9.45371587418611,2.));
#1794=CARTESIAN_POINT('',(25.0584304239366,8.67607240428453,2.));
#1795=CARTESIAN_POINT('',(25.0584304239366,8.67607240428453,1.));
#1796=VECTOR('',#1797,1.);
#1797=DIRECTION('',(0.,0.,1.));
#1798=CARTESIAN_POINT('',(23.9730269151245,6.3313349123591,2.));
#1799=CARTESIAN_POINT('',(25.0584304239366,8.67607240428453,2.));
#1800=CARTESIAN_POINT('',(24.5056001118896,7.89842890208469,2.));
#1801=CARTESIAN_POINT('',(23.9730269151245,6.3313349123591,2.));
#1802=CARTESIAN_POINT('',(23.9730269151245,6.3313349123591,1.));
#1803=VECTOR('',#1804,1.);
#1804=DIRECTION('',(0.,0.,1.));
#1805=CARTESIAN_POINT('',(23.4018576493378,3.82753322293106,2.));
#1806=CARTESIAN_POINT('',(23.9730269151245,6.3313349123591,2.));
#1807=CARTESIAN_POINT('',(23.39041440705,4.61696720604441,2.));
#1808=CARTESIAN_POINT('',(23.4018576493378,3.82753322293106,2.));
#1809=CARTESIAN_POINT('',(23.4018576493378,3.82753322293106,1.));
#1810=VECTOR('',#1811,1.);
#1811=DIRECTION('',(0.,0.,1.));
#1812=CARTESIAN_POINT('',(24.0140042704817,3.03809920751945,2.));
#1813=CARTESIAN_POINT('',(23.4018576493378,3.82753322293106,2.));
#1814=CARTESIAN_POINT('',(23.4133008916256,3.03809920751945,2.));
#1815=CARTESIAN_POINT('',(24.0140042704817,3.03809920751945,2.));
#1816=CARTESIAN_POINT('',(24.0140042704817,3.03809920751945,1.));
#1817=VECTOR('',#1818,1.);
#1818=DIRECTION('',(0.,0.,1.));
#1819=CARTESIAN_POINT('',(25.1568223666644,3.82753322293106,2.));
#1820=CARTESIAN_POINT('',(24.0140042704817,3.03809920751945,2.));
#1821=CARTESIAN_POINT('',(24.5970136273139,3.03809920751945,2.));
#1822=CARTESIAN_POINT('',(25.1568223666644,3.82753322293106,2.));
#1823=CARTESIAN_POINT('',(25.1568223666644,3.82753322293106,1.));
#1824=VECTOR('',#1825,1.);
#1825=DIRECTION('',(0.,0.,1.));
#1826=CARTESIAN_POINT('',(26.2451693776764,6.17225417814583,2.));
#1827=CARTESIAN_POINT('',(25.1568223666644,3.82753322293106,2.));
#1828=CARTESIAN_POINT('',(25.7166310737166,4.61696720604441,2.));
#1829=CARTESIAN_POINT('',(26.2451693776764,6.17225417814583,2.));
#1830=CARTESIAN_POINT('',(26.2451693776764,6.17225417814583,1.));
#1831=VECTOR('',#1832,1.);
#1832=DIRECTION('',(0.,0.,1.));
#1833=CARTESIAN_POINT('',(26.2451693776764,6.17225417814583,2.));
#1834=CARTESIAN_POINT('',(26.8237800340686,7.87484790795942,2.));
#1835=CARTESIAN_POINT('',(26.8093933218792,8.66428189107276,2.));
#1836=CARTESIAN_POINT('',(17.6983014002519,9.19991431471407,2.));
#1837=CARTESIAN_POINT('',(17.6983014002519,9.19991431471407,1.));
#1838=VECTOR('',#1839,1.);
#1839=DIRECTION('',(0.,0.,1.));
#1840=CARTESIAN_POINT('',(16.0731974692736,8.95841587418611,2.));
#1841=CARTESIAN_POINT('',(16.0731974692736,8.95841587418611,2.));
#1842=VECTOR('',#1843,1.);
#1843=DIRECTION('',(0.989137866143484,0.146990753998729,0.));
#1844=CARTESIAN_POINT('',(16.0731974692736,8.95841587418611,1.));
#1845=VECTOR('',#1846,1.);
#1846=DIRECTION('',(0.,0.,1.));
#1847=CARTESIAN_POINT('',(16.3314308026069,9.71829920751945,2.));
#1848=CARTESIAN_POINT('',(16.3314308026069,9.71829920751945,2.));
#1849=VECTOR('',#1850,1.);
#1850=DIRECTION('',(-0.321760883930677,-0.946820961730437,0.));
#1851=CARTESIAN_POINT('',(16.3314308026069,9.71829920751945,1.));
#1852=VECTOR('',#1853,1.);
#1853=DIRECTION('',(0.,0.,1.));
#1854=CARTESIAN_POINT('',(20.1742391520894,10.3130825408528,2.));
#1855=CARTESIAN_POINT('',(20.1742391520894,10.3130825408528,2.));
#1856=VECTOR('',#1857,1.);
#1857=DIRECTION('',(-0.988232845540621,-0.152956997207341,0.));
#1858=CARTESIAN_POINT('',(20.1742391520894,10.3130825408528,1.));
#1859=VECTOR('',#1860,1.);
#1860=DIRECTION('',(0.,0.,1.));
#1861=CARTESIAN_POINT('',(17.4594487688336,2.32478254085278,2.));
#1862=CARTESIAN_POINT('',(17.4594487688336,2.32478254085278,2.));
#1863=VECTOR('',#1864,1.);
#1864=DIRECTION('',(0.32177187861683,0.946817225303488,0.));
#1865=CARTESIAN_POINT('',(17.4594487688336,2.32478254085278,1.));
#1866=VECTOR('',#1867,1.);
#1867=DIRECTION('',(0.,0.,1.));
#1868=CARTESIAN_POINT('',(15.361832102167,2.32478254085278,2.));
#1869=CARTESIAN_POINT('',(15.361832102167,2.32478254085278,2.));
#1870=VECTOR('',#1871,1.);
#1871=DIRECTION('',(1.,0.,0.));
#1872=CARTESIAN_POINT('',(15.361832102167,2.32478254085278,1.));
#1873=VECTOR('',#1874,1.);
#1874=DIRECTION('',(0.,0.,1.));
#1875=CARTESIAN_POINT('',(17.6983014002519,9.19991431471407,2.));
#1876=VECTOR('',#1877,1.);
#1877=DIRECTION('',(-0.321769963312185,-0.946817876209609,0.));
#1878=CARTESIAN_POINT('',(1.,0.999999999999999,2.));
#1879=CARTESIAN_POINT('',(1.,0.999999999999999,1.));
#1880=VECTOR('',#1881,1.);
#1881=DIRECTION('',(0.,0.,1.));
#1882=CARTESIAN_POINT('',(48.5,0.999999999999999,2.));
#1883=CARTESIAN_POINT('',(1.,0.999999999999999,2.));
#1884=VECTOR('',#1885,1.);
#1885=DIRECTION('',(1.,0.,0.));
#1886=CARTESIAN_POINT('',(48.5,0.999999999999999,1.));
#1887=VECTOR('',#1888,1.);
#1888=DIRECTION('',(0.,0.,1.));
#1889=CARTESIAN_POINT('',(48.5,11.5,2.));
#1890=CARTESIAN_POINT('',(48.5,0.999999999999999,2.));
#1891=VECTOR('',#1892,1.);
#1892=DIRECTION('',(0.,1.,0.));
#1893=CARTESIAN_POINT('',(48.5,11.5,1.));
#1894=VECTOR('',#1895,1.);
#1895=DIRECTION('',(0.,0.,1.));
#1896=CARTESIAN_POINT('',(1.,11.5,2.));
#1897=CARTESIAN_POINT('',(48.5,11.5,2.));
#1898=VECTOR('',#1899,1.);
#1899=DIRECTION('',(-1.,0.,0.));
#1900=CARTESIAN_POINT('',(1.,11.5,1.));
#1901=VECTOR('',#1902,1.);
#1902=DIRECTION('',(0.,0.,1.));
#1903=CARTESIAN_POINT('',(1.,11.5,2.));
#1904=VECTOR('',#1905,1.);
#1905=DIRECTION('',(0.,-1.,0.));
#1906=CARTESIAN_POINT('',(0.,12.5,2.));
#1907=CARTESIAN_POINT('',(0.,0.,2.));
#1908=CARTESIAN_POINT('',(-4.08551437129934E-34,12.5,2.));
#1909=VECTOR('',#1910,1.);
#1910=DIRECTION('',(3.26841149703947E-35,-1.,0.));
#1911=CARTESIAN_POINT('',(49.5,0.,2.));
#1912=CARTESIAN_POINT('',(0.,0.,2.));
#1913=VECTOR('',#1914,1.);
#1914=DIRECTION('',(1.,0.,0.));
#1915=CARTESIAN_POINT('',(49.5,12.5,2.));
#1916=CARTESIAN_POINT('',(49.5,0.,2.));
#1917=VECTOR('',#1918,1.);
#1918=DIRECTION('',(0.,1.,0.));
#1919=CARTESIAN_POINT('',(49.5,12.5,2.));
#1920=VECTOR('',#1921,1.);
#1921=DIRECTION('',(-1.,-3.58859967555606E-17,0.));
#1922=CARTESIAN_POINT('',(-8.17102874259867E-34,12.5,0.));
#1923=CARTESIAN_POINT('',(0.,0.,0.));
#1924=CARTESIAN_POINT('',(-8.17102874259867E-34,12.5,0.));
#1925=VECTOR('',#1926,1.);
#1926=DIRECTION('',(6.53682299407893E-35,-1.,0.));
#1927=CARTESIAN_POINT('',(0.,0.,0.));
#1928=VECTOR('',#1929,1.);
#1929=DIRECTION('',(0.,0.,1.));
#1930=CARTESIAN_POINT('',(-4.08551437129933E-34,12.5,0.));
#1931=VECTOR('',#1932,1.);
#1932=DIRECTION('',(-4.27642353614751E-50,0.,1.));
#1933=CARTESIAN_POINT('',(49.5,-8.88178419700125E-16,0.));
#1934=CARTESIAN_POINT('',(0.,0.,0.));
#1935=VECTOR('',#1936,1.);
#1936=DIRECTION('',(1.,0.,0.));
#1937=CARTESIAN_POINT('',(49.5,-8.88178419700125E-16,0.));
#1938=VECTOR('',#1939,1.);
#1939=DIRECTION('',(0.,4.44089209850063E-16,1.));
#1940=CARTESIAN_POINT('',(49.5,12.5,0.));
#1941=CARTESIAN_POINT('',(49.5,-1.77635683940025E-15,0.));
#1942=VECTOR('',#1943,1.);
#1943=DIRECTION('',(0.,1.,0.));
#1944=CARTESIAN_POINT('',(49.5,12.5,0.));
#1945=VECTOR('',#1946,1.);
#1946=DIRECTION('',(0.,0.,1.));
#1947=CARTESIAN_POINT('',(49.5,12.5,0.));
#1948=VECTOR('',#1949,1.);
#1949=DIRECTION('',(-1.,-3.58859967555606E-17,0.));
ENDSEC;
END-ISO-10303-21;
