ISO-10303-21;
HEADER;
FILE_DESCRIPTION(('STEP AP242'),
    '1');
FILE_NAME('NumberTablet_103',
    '',
    ('UNSPECIFIED'),
    ('UNSPECIFIED'),
    'C3D Converter',
    'C3D Toolkit',
    '');
FILE_SCHEMA(('AP242_MANAGED_MODEL_BASED_3D_ENGINEERING_MIM_LF { 1 0 10303 442 1 1 4 }'));
ENDSEC;

DATA;
#1=PRODUCT_DEFINITION('','UNSPECIFIED',#28,#31);
#2=SHAPE_DEFINITION_REPRESENTATION(#26,#3);
#3=SHAPE_REPRESENTATION('NONE',(#4),#8);
#4=AXIS2_PLACEMENT_3D('',#5,#6,#7);
#5=CARTESIAN_POINT('',(0.,0.,0.));
#6=DIRECTION('',(0.,0.,1.));
#7=DIRECTION('',(1.,0.,0.));
#8=(GEOMETRIC_REPRESENTATION_CONTEXT(3)GLOBAL_UNCERTAINTY_ASSIGNED_CONTEXT((#10))
GLOBAL_UNIT_ASSIGNED_CONTEXT((#9,#11,#12))REPRESENTATION_CONTEXT('NONE','NONE'));
#9=(LENGTH_UNIT()NAMED_UNIT(*)SI_UNIT(.MILLI.,.METRE.));
#10=UNCERTAINTY_MEASURE_WITH_UNIT(LENGTH_MEASURE(1.E-5),#9,'NONE','NONE');
#11=(NAMED_UNIT(*)PLANE_ANGLE_UNIT()SI_UNIT($,.RADIAN.));
#12=(NAMED_UNIT(*)SI_UNIT($,.STERADIAN.)SOLID_ANGLE_UNIT());
#13=MANIFOLD_SOLID_BREP('',#14);
#14=CLOSED_SHELL('',(#53,#54,#55,#56,#57,#58,#59,#60,#61,#62,#63,#64,#65,#66,#67,
#68,#69,#70,#71,#72,#73,#74,#75,#76,#77,#78,#79,#80,#81,#82,#83,#84,#85,#86,#87,
#88,#89,#90,#91,#92,#93,#94,#95,#96,#97,#98,#99,#100,#101,#102,#103,#104,#105,#106,
#107,#108,#109));
#15=COLOUR_RGB('',0.564705882352941,0.564705882352941,0.564705882352941);
#16=FILL_AREA_STYLE_COLOUR('',#15);
#17=FILL_AREA_STYLE($,(#16));
#18=SURFACE_STYLE_FILL_AREA(#17);
#19=SURFACE_SIDE_STYLE('',(#18));
#20=SURFACE_STYLE_USAGE(.BOTH.,#19);
#21=PRESENTATION_STYLE_ASSIGNMENT((#20));
#22=MECHANICAL_DESIGN_GEOMETRIC_PRESENTATION_REPRESENTATION('NONE',(#23),#8);
#23=STYLED_ITEM('',(#21),#13);
#24=ADVANCED_BREP_SHAPE_REPRESENTATION('NONE',(#13),#8);
#25=SHAPE_REPRESENTATION_RELATIONSHIP('','',#3,#24);
#26=PRODUCT_DEFINITION_SHAPE('NONE','NONE',#1);
#27=MECHANICAL_CONTEXT('NONE',#32,'mechanical');
#28=PRODUCT_DEFINITION_FORMATION_WITH_SPECIFIED_SOURCE('ANY','UNSPECIFIED',#29,.NOT_KNOWN.);
#29=PRODUCT('','\X2\0414043504420430043B044C\X0\','NONE',(#27));
#30=PRODUCT_RELATED_PRODUCT_CATEGORY('detail','',(#29));
#31=DESIGN_CONTEXT('detailed design',#32,'design');
#32=APPLICATION_CONTEXT('configuration controlled 3d designs of mechanical parts and assemblies');
#33=APPLICATION_PROTOCOL_DEFINITION('international standard','config_control_design',
1994,#32);
#34=CC_DESIGN_DATE_AND_TIME_ASSIGNMENT(#35,#39,(#1));
#35=DATE_AND_TIME(#36,#37);
#36=CALENDAR_DATE(0,1,1);
#37=LOCAL_TIME(0,0,0.,#38);
#38=COORDINATED_UNIVERSAL_TIME_OFFSET(0,0,.AHEAD.);
#39=DATE_TIME_ROLE('creation_date');
#40=CC_DESIGN_APPROVAL(#41,(#1));
#41=APPROVAL(#42,'UNSPECIFIED');
#42=APPROVAL_STATUS('not_yet_approved');
#43=APPROVAL_DATE_TIME(#44,#41);
#44=DATE_AND_TIME(#45,#46);
#45=CALENDAR_DATE(0,1,1);
#46=LOCAL_TIME(0,0,0.,#47);
#47=COORDINATED_UNIVERSAL_TIME_OFFSET(0,0,.AHEAD.);
#48=PERSON('UNSPECIFIED','Cybermeatball','UNSPECIFIED',('UNSPECIFIED'),('UNSPECIFIED'),
('UNSPECIFIED'));
#49=ORGANIZATION('UNSPECIFIED','UNSPECIFIED','UNSPECIFIED');
#50=PERSON_AND_ORGANIZATION(#48,#49);
#51=PERSON_AND_ORGANIZATION_ROLE('creator');
#52=CC_DESIGN_PERSON_AND_ORGANIZATION_ASSIGNMENT(#50,#51,(#28,#1));
#53=ADVANCED_FACE('',(#110),#112,.T.);
#54=ADVANCED_FACE('',(#117,#119,#121,#123),#125,.T.);
#55=ADVANCED_FACE('',(#130),#132,.T.);
#56=ADVANCED_FACE('',(#136),#138,.T.);
#57=ADVANCED_FACE('',(#142),#144,.T.);
#58=ADVANCED_FACE('',(#148),#150,.T.);
#59=ADVANCED_FACE('',(#154),#156,.T.);
#60=ADVANCED_FACE('',(#161),#163,.T.);
#61=ADVANCED_FACE('',(#168),#170,.T.);
#62=ADVANCED_FACE('',(#175),#177,.T.);
#63=ADVANCED_FACE('',(#182),#184,.T.);
#64=ADVANCED_FACE('',(#189),#191,.T.);
#65=ADVANCED_FACE('',(#196),#198,.T.);
#66=ADVANCED_FACE('',(#203),#205,.T.);
#67=ADVANCED_FACE('',(#209),#211,.T.);
#68=ADVANCED_FACE('',(#215),#217,.T.);
#69=ADVANCED_FACE('',(#221),#223,.T.);
#70=ADVANCED_FACE('',(#227),#229,.T.);
#71=ADVANCED_FACE('',(#234),#236,.T.);
#72=ADVANCED_FACE('',(#241),#243,.T.);
#73=ADVANCED_FACE('',(#248),#250,.T.);
#74=ADVANCED_FACE('',(#254),#256,.T.);
#75=ADVANCED_FACE('',(#260),#262,.T.);
#76=ADVANCED_FACE('',(#266),#268,.T.);
#77=ADVANCED_FACE('',(#272),#274,.T.);
#78=ADVANCED_FACE('',(#278),#280,.T.);
#79=ADVANCED_FACE('',(#284),#286,.T.);
#80=ADVANCED_FACE('',(#290),#292,.T.);
#81=ADVANCED_FACE('',(#296),#298,.T.);
#82=ADVANCED_FACE('',(#302),#304,.T.);
#83=ADVANCED_FACE('',(#308),#310,.F.);
#84=ADVANCED_FACE('',(#314),#316,.F.);
#85=ADVANCED_FACE('',(#320),#322,.F.);
#86=ADVANCED_FACE('',(#326),#328,.F.);
#87=ADVANCED_FACE('',(#332),#334,.F.);
#88=ADVANCED_FACE('',(#338),#340,.F.);
#89=ADVANCED_FACE('',(#344),#346,.F.);
#90=ADVANCED_FACE('',(#350),#352,.F.);
#91=ADVANCED_FACE('',(#356),#358,.T.);
#92=ADVANCED_FACE('',(#363),#365,.T.);
#93=ADVANCED_FACE('',(#370),#372,.T.);
#94=ADVANCED_FACE('',(#377),#379,.T.);
#95=ADVANCED_FACE('',(#384),#386,.T.);
#96=ADVANCED_FACE('',(#391),#393,.T.);
#97=ADVANCED_FACE('',(#398),#400,.F.);
#98=ADVANCED_FACE('',(#405),#407,.F.);
#99=ADVANCED_FACE('',(#412),#414,.F.);
#100=ADVANCED_FACE('',(#419),#421,.F.);
#101=ADVANCED_FACE('',(#426),#428,.T.);
#102=ADVANCED_FACE('',(#433,#435),#437,.T.);
#103=ADVANCED_FACE('',(#442),#444,.T.);
#104=ADVANCED_FACE('',(#449,#451),#453,.T.);
#105=ADVANCED_FACE('',(#458),#460,.T.);
#106=ADVANCED_FACE('',(#465),#467,.T.);
#107=ADVANCED_FACE('',(#472),#474,.T.);
#108=ADVANCED_FACE('',(#479),#481,.T.);
#109=ADVANCED_FACE('',(#486),#488,.F.);
#110=FACE_BOUND('',#111,.T.);
#111=EDGE_LOOP('',(#493,#494,#495,#496,#497,#498,#499,#500));
#112=PLANE('',#113);
#113=AXIS2_PLACEMENT_3D('',#114,#115,#116);
#114=CARTESIAN_POINT('',(0.,0.,1.));
#115=DIRECTION('',(0.,0.,1.));
#116=DIRECTION('',(1.,0.,0.));
#117=FACE_BOUND('',#118,.T.);
#118=EDGE_LOOP('',(#501,#502,#503,#504));
#119=FACE_BOUND('',#120,.T.);
#120=EDGE_LOOP('',(#505,#506,#507,#508,#509,#510));
#121=FACE_BOUND('',#122,.T.);
#122=EDGE_LOOP('',(#511,#512,#513,#514,#515,#516,#517,#518,#519,#520));
#123=FACE_BOUND('',#124,.T.);
#124=EDGE_LOOP('',(#521,#522,#523,#524,#525,#526,#527,#528,#529,#530,#531,#532,#533,
#534,#535,#536,#537,#538));
#125=PLANE('',#126);
#126=AXIS2_PLACEMENT_3D('',#127,#128,#129);
#127=CARTESIAN_POINT('',(0.,0.,1.));
#128=DIRECTION('',(0.,0.,1.));
#129=DIRECTION('',(1.,0.,0.));
#130=FACE_BOUND('',#131,.T.);
#131=EDGE_LOOP('',(#539,#540,#541,#542));
#132=SURFACE_OF_LINEAR_EXTRUSION('',#133,#134);
#133=B_SPLINE_CURVE_WITH_KNOTS('',2,
(#543,#544,#545),
.UNSPECIFIED.,.F.,.F.,
(3,3),
(0.,1.),
.UNSPECIFIED.);
#134=VECTOR('',#135,1.);
#135=DIRECTION('',(0.,0.,1.));
#136=FACE_BOUND('',#137,.T.);
#137=EDGE_LOOP('',(#546,#547,#548,#549));
#138=SURFACE_OF_LINEAR_EXTRUSION('',#139,#140);
#139=B_SPLINE_CURVE_WITH_KNOTS('',2,
(#550,#551,#552),
.UNSPECIFIED.,.F.,.F.,
(3,3),
(0.,1.),
.UNSPECIFIED.);
#140=VECTOR('',#141,1.);
#141=DIRECTION('',(0.,0.,1.));
#142=FACE_BOUND('',#143,.T.);
#143=EDGE_LOOP('',(#553,#554,#555,#556));
#144=SURFACE_OF_LINEAR_EXTRUSION('',#145,#146);
#145=B_SPLINE_CURVE_WITH_KNOTS('',2,
(#557,#558,#559),
.UNSPECIFIED.,.F.,.F.,
(3,3),
(0.,1.),
.UNSPECIFIED.);
#146=VECTOR('',#147,1.);
#147=DIRECTION('',(0.,0.,1.));
#148=FACE_BOUND('',#149,.T.);
#149=EDGE_LOOP('',(#560,#561,#562,#563));
#150=SURFACE_OF_LINEAR_EXTRUSION('',#151,#152);
#151=B_SPLINE_CURVE_WITH_KNOTS('',2,
(#564,#565,#566),
.UNSPECIFIED.,.F.,.F.,
(3,3),
(0.,1.),
.UNSPECIFIED.);
#152=VECTOR('',#153,1.);
#153=DIRECTION('',(0.,0.,1.));
#154=FACE_BOUND('',#155,.T.);
#155=EDGE_LOOP('',(#567,#568,#569,#570));
#156=PLANE('',#157);
#157=AXIS2_PLACEMENT_3D('',#158,#159,#160);
#158=CARTESIAN_POINT('',(30.0918792258654,6.69993254085278,1.));
#159=DIRECTION('',(0.,-1.,0.));
#160=DIRECTION('',(1.,0.,0.));
#161=FACE_BOUND('',#162,.T.);
#162=EDGE_LOOP('',(#571,#572,#573,#574));
#163=PLANE('',#164);
#164=AXIS2_PLACEMENT_3D('',#165,#166,#167);
#165=CARTESIAN_POINT('',(32.8452657104411,9.27591587418611,1.));
#166=DIRECTION('',(-0.683190321743253,0.730240360618577,0.));
#167=DIRECTION('',(-0.730240360618577,-0.683190321743253,0.));
#168=FACE_BOUND('',#169,.T.);
#169=EDGE_LOOP('',(#575,#576,#577,#578));
#170=PLANE('',#171);
#171=AXIS2_PLACEMENT_3D('',#172,#173,#174);
#172=CARTESIAN_POINT('',(30.1595464123561,9.27591587418611,1.));
#173=DIRECTION('',(0.,-1.,0.));
#174=DIRECTION('',(1.,0.,0.));
#175=FACE_BOUND('',#176,.T.);
#176=EDGE_LOOP('',(#579,#580,#581,#582));
#177=PLANE('',#178);
#178=AXIS2_PLACEMENT_3D('',#179,#180,#181);
#179=CARTESIAN_POINT('',(30.4739045019265,10.2008992075194,1.));
#180=DIRECTION('',(-0.946815239448274,0.321777721958042,0.));
#181=DIRECTION('',(-0.321777721958042,-0.946815239448274,0.));
#182=FACE_BOUND('',#183,.T.);
#183=EDGE_LOOP('',(#583,#584,#585,#586));
#184=PLANE('',#185);
#185=AXIS2_PLACEMENT_3D('',#186,#187,#188);
#186=CARTESIAN_POINT('',(36.2121878352599,10.2008992075194,1.));
#187=DIRECTION('',(0.,1.,0.));
#188=DIRECTION('',(-1.,0.,0.));
#189=FACE_BOUND('',#190,.T.);
#190=EDGE_LOOP('',(#587,#588,#589,#590));
#191=PLANE('',#192);
#192=AXIS2_PLACEMENT_3D('',#193,#194,#195);
#193=CARTESIAN_POINT('',(33.3810800056014,7.50214920751945,1.));
#194=DIRECTION('',(0.689984478755181,-0.723824163092765,0.));
#195=DIRECTION('',(0.723824163092765,0.689984478755181,0.));
#196=FACE_BOUND('',#197,.T.);
#197=EDGE_LOOP('',(#591,#592,#593,#594));
#198=PLANE('',#199);
#199=AXIS2_PLACEMENT_3D('',#200,#201,#202);
#200=CARTESIAN_POINT('',(33.4517237677132,7.50214920751945,1.));
#201=DIRECTION('',(0.,1.,0.));
#202=DIRECTION('',(-1.,0.,0.));
#203=FACE_BOUND('',#204,.T.);
#204=EDGE_LOOP('',(#595,#596,#597,#598));
#205=SURFACE_OF_LINEAR_EXTRUSION('',#206,#207);
#206=B_SPLINE_CURVE_WITH_KNOTS('',2,
(#599,#600,#601),
.UNSPECIFIED.,.F.,.F.,
(3,3),
(0.,1.),
.UNSPECIFIED.);
#207=VECTOR('',#208,1.);
#208=DIRECTION('',(0.,0.,1.));
#209=FACE_BOUND('',#210,.T.);
#210=EDGE_LOOP('',(#602,#603,#604,#605));
#211=SURFACE_OF_LINEAR_EXTRUSION('',#212,#213);
#212=B_SPLINE_CURVE_WITH_KNOTS('',2,
(#606,#607,#608),
.UNSPECIFIED.,.F.,.F.,
(3,3),
(0.,1.),
.UNSPECIFIED.);
#213=VECTOR('',#214,1.);
#214=DIRECTION('',(0.,0.,1.));
#215=FACE_BOUND('',#216,.T.);
#216=EDGE_LOOP('',(#609,#610,#611,#612));
#217=SURFACE_OF_LINEAR_EXTRUSION('',#218,#219);
#218=B_SPLINE_CURVE_WITH_KNOTS('',2,
(#613,#614,#615),
.UNSPECIFIED.,.F.,.F.,
(3,3),
(0.,1.),
.UNSPECIFIED.);
#219=VECTOR('',#220,1.);
#220=DIRECTION('',(0.,0.,1.));
#221=FACE_BOUND('',#222,.T.);
#222=EDGE_LOOP('',(#616,#617,#618,#619));
#223=SURFACE_OF_LINEAR_EXTRUSION('',#224,#225);
#224=B_SPLINE_CURVE_WITH_KNOTS('',2,
(#620,#621,#622),
.UNSPECIFIED.,.F.,.F.,
(3,3),
(0.,1.),
.UNSPECIFIED.);
#225=VECTOR('',#226,1.);
#226=DIRECTION('',(0.,0.,1.));
#227=FACE_BOUND('',#228,.T.);
#228=EDGE_LOOP('',(#623,#624,#625,#626));
#229=PLANE('',#230);
#230=AXIS2_PLACEMENT_3D('',#231,#232,#233);
#231=CARTESIAN_POINT('',(30.8388971920921,2.32478254085278,1.));
#232=DIRECTION('',(0.689845993762772,-0.723956148457525,0.));
#233=DIRECTION('',(0.723956148457525,0.689845993762772,0.));
#234=FACE_BOUND('',#235,.T.);
#235=EDGE_LOOP('',(#627,#628,#629,#630));
#236=PLANE('',#237);
#237=AXIS2_PLACEMENT_3D('',#238,#239,#240);
#238=CARTESIAN_POINT('',(28.1105138587587,2.32478254085278,1.));
#239=DIRECTION('',(0.,-1.,0.));
#240=DIRECTION('',(1.,0.,0.));
#241=FACE_BOUND('',#242,.T.);
#242=EDGE_LOOP('',(#631,#632,#633,#634));
#243=PLANE('',#244);
#244=AXIS2_PLACEMENT_3D('',#245,#246,#247);
#245=CARTESIAN_POINT('',(31.717942253764,5.69888150120475,1.));
#246=DIRECTION('',(-0.683093196905083,0.730331215505673,0.));
#247=DIRECTION('',(-0.730331215505673,-0.683093196905083,0.));
#248=FACE_BOUND('',#249,.T.);
#249=EDGE_LOOP('',(#635,#636,#637,#638));
#250=SURFACE_OF_LINEAR_EXTRUSION('',#251,#252);
#251=B_SPLINE_CURVE_WITH_KNOTS('',2,
(#639,#640,#641),
.UNSPECIFIED.,.F.,.F.,
(3,3),
(0.,1.),
.UNSPECIFIED.);
#252=VECTOR('',#253,1.);
#253=DIRECTION('',(0.,0.,1.));
#254=FACE_BOUND('',#255,.T.);
#255=EDGE_LOOP('',(#642,#643,#644,#645));
#256=SURFACE_OF_LINEAR_EXTRUSION('',#257,#258);
#257=B_SPLINE_CURVE_WITH_KNOTS('',2,
(#646,#647,#648),
.UNSPECIFIED.,.F.,.F.,
(3,3),
(0.,1.),
.UNSPECIFIED.);
#258=VECTOR('',#259,1.);
#259=DIRECTION('',(0.,0.,1.));
#260=FACE_BOUND('',#261,.T.);
#261=EDGE_LOOP('',(#649,#650,#651,#652));
#262=SURFACE_OF_LINEAR_EXTRUSION('',#263,#264);
#263=B_SPLINE_CURVE_WITH_KNOTS('',2,
(#653,#654,#655),
.UNSPECIFIED.,.F.,.F.,
(3,3),
(0.,1.),
.UNSPECIFIED.);
#264=VECTOR('',#265,1.);
#265=DIRECTION('',(0.,0.,1.));
#266=FACE_BOUND('',#267,.T.);
#267=EDGE_LOOP('',(#656,#657,#658,#659));
#268=SURFACE_OF_LINEAR_EXTRUSION('',#269,#270);
#269=B_SPLINE_CURVE_WITH_KNOTS('',2,
(#660,#661,#662),
.UNSPECIFIED.,.F.,.F.,
(3,3),
(0.,1.),
.UNSPECIFIED.);
#270=VECTOR('',#271,1.);
#271=DIRECTION('',(0.,0.,1.));
#272=FACE_BOUND('',#273,.T.);
#273=EDGE_LOOP('',(#663,#664,#665,#666));
#274=SURFACE_OF_LINEAR_EXTRUSION('',#275,#276);
#275=B_SPLINE_CURVE_WITH_KNOTS('',2,
(#667,#668,#669),
.UNSPECIFIED.,.F.,.F.,
(3,3),
(0.,1.),
.UNSPECIFIED.);
#276=VECTOR('',#277,1.);
#277=DIRECTION('',(0.,0.,1.));
#278=FACE_BOUND('',#279,.T.);
#279=EDGE_LOOP('',(#670,#671,#672,#673));
#280=SURFACE_OF_LINEAR_EXTRUSION('',#281,#282);
#281=B_SPLINE_CURVE_WITH_KNOTS('',2,
(#674,#675,#676),
.UNSPECIFIED.,.F.,.F.,
(3,3),
(0.,1.),
.UNSPECIFIED.);
#282=VECTOR('',#283,1.);
#283=DIRECTION('',(0.,0.,1.));
#284=FACE_BOUND('',#285,.T.);
#285=EDGE_LOOP('',(#677,#678,#679,#680));
#286=SURFACE_OF_LINEAR_EXTRUSION('',#287,#288);
#287=B_SPLINE_CURVE_WITH_KNOTS('',2,
(#681,#682,#683),
.UNSPECIFIED.,.F.,.F.,
(3,3),
(0.,1.),
.UNSPECIFIED.);
#288=VECTOR('',#289,1.);
#289=DIRECTION('',(0.,0.,1.));
#290=FACE_BOUND('',#291,.T.);
#291=EDGE_LOOP('',(#684,#685,#686,#687));
#292=SURFACE_OF_LINEAR_EXTRUSION('',#293,#294);
#293=B_SPLINE_CURVE_WITH_KNOTS('',2,
(#688,#689,#690),
.UNSPECIFIED.,.F.,.F.,
(3,3),
(0.,1.),
.UNSPECIFIED.);
#294=VECTOR('',#295,1.);
#295=DIRECTION('',(0.,0.,1.));
#296=FACE_BOUND('',#297,.T.);
#297=EDGE_LOOP('',(#691,#692,#693,#694));
#298=SURFACE_OF_LINEAR_EXTRUSION('',#299,#300);
#299=B_SPLINE_CURVE_WITH_KNOTS('',2,
(#695,#696,#697),
.UNSPECIFIED.,.F.,.F.,
(3,3),
(0.,1.),
.UNSPECIFIED.);
#300=VECTOR('',#301,1.);
#301=DIRECTION('',(0.,0.,1.));
#302=FACE_BOUND('',#303,.T.);
#303=EDGE_LOOP('',(#698,#699,#700,#701));
#304=SURFACE_OF_LINEAR_EXTRUSION('',#305,#306);
#305=B_SPLINE_CURVE_WITH_KNOTS('',2,
(#702,#703,#704),
.UNSPECIFIED.,.F.,.F.,
(3,3),
(0.,1.),
.UNSPECIFIED.);
#306=VECTOR('',#307,1.);
#307=DIRECTION('',(0.,0.,1.));
#308=FACE_BOUND('',#309,.T.);
#309=EDGE_LOOP('',(#705,#706,#707,#708));
#310=SURFACE_OF_LINEAR_EXTRUSION('',#311,#312);
#311=B_SPLINE_CURVE_WITH_KNOTS('',2,
(#709,#710,#711),
.UNSPECIFIED.,.F.,.F.,
(3,3),
(0.,1.),
.UNSPECIFIED.);
#312=VECTOR('',#313,1.);
#313=DIRECTION('',(0.,0.,1.));
#314=FACE_BOUND('',#315,.T.);
#315=EDGE_LOOP('',(#712,#713,#714,#715));
#316=SURFACE_OF_LINEAR_EXTRUSION('',#317,#318);
#317=B_SPLINE_CURVE_WITH_KNOTS('',2,
(#716,#717,#718),
.UNSPECIFIED.,.F.,.F.,
(3,3),
(0.,1.),
.UNSPECIFIED.);
#318=VECTOR('',#319,1.);
#319=DIRECTION('',(0.,0.,1.));
#320=FACE_BOUND('',#321,.T.);
#321=EDGE_LOOP('',(#719,#720,#721,#722));
#322=SURFACE_OF_LINEAR_EXTRUSION('',#323,#324);
#323=B_SPLINE_CURVE_WITH_KNOTS('',2,
(#723,#724,#725),
.UNSPECIFIED.,.F.,.F.,
(3,3),
(0.,1.),
.UNSPECIFIED.);
#324=VECTOR('',#325,1.);
#325=DIRECTION('',(0.,0.,1.));
#326=FACE_BOUND('',#327,.T.);
#327=EDGE_LOOP('',(#726,#727,#728,#729));
#328=SURFACE_OF_LINEAR_EXTRUSION('',#329,#330);
#329=B_SPLINE_CURVE_WITH_KNOTS('',2,
(#730,#731,#732),
.UNSPECIFIED.,.F.,.F.,
(3,3),
(0.,1.),
.UNSPECIFIED.);
#330=VECTOR('',#331,1.);
#331=DIRECTION('',(0.,0.,1.));
#332=FACE_BOUND('',#333,.T.);
#333=EDGE_LOOP('',(#733,#734,#735,#736));
#334=SURFACE_OF_LINEAR_EXTRUSION('',#335,#336);
#335=B_SPLINE_CURVE_WITH_KNOTS('',2,
(#737,#738,#739),
.UNSPECIFIED.,.F.,.F.,
(3,3),
(0.,1.),
.UNSPECIFIED.);
#336=VECTOR('',#337,1.);
#337=DIRECTION('',(0.,0.,1.));
#338=FACE_BOUND('',#339,.T.);
#339=EDGE_LOOP('',(#740,#741,#742,#743));
#340=SURFACE_OF_LINEAR_EXTRUSION('',#341,#342);
#341=B_SPLINE_CURVE_WITH_KNOTS('',2,
(#744,#745,#746),
.UNSPECIFIED.,.F.,.F.,
(3,3),
(0.,1.),
.UNSPECIFIED.);
#342=VECTOR('',#343,1.);
#343=DIRECTION('',(0.,0.,1.));
#344=FACE_BOUND('',#345,.T.);
#345=EDGE_LOOP('',(#747,#748,#749,#750));
#346=SURFACE_OF_LINEAR_EXTRUSION('',#347,#348);
#347=B_SPLINE_CURVE_WITH_KNOTS('',2,
(#751,#752,#753),
.UNSPECIFIED.,.F.,.F.,
(3,3),
(0.,1.),
.UNSPECIFIED.);
#348=VECTOR('',#349,1.);
#349=DIRECTION('',(0.,0.,1.));
#350=FACE_BOUND('',#351,.T.);
#351=EDGE_LOOP('',(#754,#755,#756,#757));
#352=SURFACE_OF_LINEAR_EXTRUSION('',#353,#354);
#353=B_SPLINE_CURVE_WITH_KNOTS('',2,
(#758,#759,#760),
.UNSPECIFIED.,.F.,.F.,
(3,3),
(0.,1.),
.UNSPECIFIED.);
#354=VECTOR('',#355,1.);
#355=DIRECTION('',(0.,0.,1.));
#356=FACE_BOUND('',#357,.T.);
#357=EDGE_LOOP('',(#761,#762,#763,#764));
#358=PLANE('',#359);
#359=AXIS2_PLACEMENT_3D('',#360,#361,#362);
#360=CARTESIAN_POINT('',(16.2848635764513,8.95841587418611,1.));
#361=DIRECTION('',(0.146990753998729,-0.989137866143484,0.));
#362=DIRECTION('',(0.989137866143484,0.146990753998729,0.));
#363=FACE_BOUND('',#364,.T.);
#364=EDGE_LOOP('',(#765,#766,#767,#768));
#365=PLANE('',#366);
#366=AXIS2_PLACEMENT_3D('',#367,#368,#369);
#367=CARTESIAN_POINT('',(16.5430969097847,9.71829920751945,1.));
#368=DIRECTION('',(-0.946820961730437,0.321760883930677,0.));
#369=DIRECTION('',(-0.321760883930677,-0.946820961730437,0.));
#370=FACE_BOUND('',#371,.T.);
#371=EDGE_LOOP('',(#769,#770,#771,#772));
#372=PLANE('',#373);
#373=AXIS2_PLACEMENT_3D('',#374,#375,#376);
#374=CARTESIAN_POINT('',(20.3859052592671,10.3130825408528,1.));
#375=DIRECTION('',(-0.152956997207341,0.988232845540621,0.));
#376=DIRECTION('',(-0.988232845540621,-0.152956997207341,0.));
#377=FACE_BOUND('',#378,.T.);
#378=EDGE_LOOP('',(#773,#774,#775,#776));
#379=PLANE('',#380);
#380=AXIS2_PLACEMENT_3D('',#381,#382,#383);
#381=CARTESIAN_POINT('',(17.6711148760114,2.32478254085278,1.));
#382=DIRECTION('',(0.946817225303488,-0.32177187861683,0.));
#383=DIRECTION('',(0.32177187861683,0.946817225303488,0.));
#384=FACE_BOUND('',#385,.T.);
#385=EDGE_LOOP('',(#777,#778,#779,#780));
#386=PLANE('',#387);
#387=AXIS2_PLACEMENT_3D('',#388,#389,#390);
#388=CARTESIAN_POINT('',(15.5734982093447,2.32478254085278,1.));
#389=DIRECTION('',(0.,-1.,0.));
#390=DIRECTION('',(1.,0.,0.));
#391=FACE_BOUND('',#392,.T.);
#392=EDGE_LOOP('',(#781,#782,#783,#784));
#393=PLANE('',#394);
#394=AXIS2_PLACEMENT_3D('',#395,#396,#397);
#395=CARTESIAN_POINT('',(17.9099675074297,9.19991431471407,1.));
#396=DIRECTION('',(-0.946817876209609,0.321769963312185,0.));
#397=DIRECTION('',(-0.321769963312185,-0.946817876209609,0.));
#398=FACE_BOUND('',#399,.T.);
#399=EDGE_LOOP('',(#785,#786,#787,#788));
#400=PLANE('',#401);
#401=AXIS2_PLACEMENT_3D('',#402,#403,#404);
#402=CARTESIAN_POINT('',(1.,0.999999999999999,1.));
#403=DIRECTION('',(0.,-1.,0.));
#404=DIRECTION('',(1.,0.,0.));
#405=FACE_BOUND('',#406,.T.);
#406=EDGE_LOOP('',(#789,#790,#791,#792));
#407=PLANE('',#408);
#408=AXIS2_PLACEMENT_3D('',#409,#410,#411);
#409=CARTESIAN_POINT('',(48.5,0.999999999999999,1.));
#410=DIRECTION('',(1.,0.,0.));
#411=DIRECTION('',(0.,1.,0.));
#412=FACE_BOUND('',#413,.T.);
#413=EDGE_LOOP('',(#793,#794,#795,#796));
#414=PLANE('',#415);
#415=AXIS2_PLACEMENT_3D('',#416,#417,#418);
#416=CARTESIAN_POINT('',(48.5,11.5,1.));
#417=DIRECTION('',(0.,1.,0.));
#418=DIRECTION('',(-1.,0.,0.));
#419=FACE_BOUND('',#420,.T.);
#420=EDGE_LOOP('',(#797,#798,#799,#800));
#421=PLANE('',#422);
#422=AXIS2_PLACEMENT_3D('',#423,#424,#425);
#423=CARTESIAN_POINT('',(1.,11.5,1.));
#424=DIRECTION('',(-1.,0.,0.));
#425=DIRECTION('',(0.,-1.,0.));
#426=FACE_BOUND('',#427,.T.);
#427=EDGE_LOOP('',(#801,#802,#803,#804,#805,#806,#807,#808,#809,#810,#811,#812,#813,
#814,#815,#816,#817,#818));
#428=PLANE('',#429);
#429=AXIS2_PLACEMENT_3D('',#430,#431,#432);
#430=CARTESIAN_POINT('',(0.,0.,2.));
#431=DIRECTION('',(0.,0.,1.));
#432=DIRECTION('',(1.,0.,0.));
#433=FACE_BOUND('',#434,.T.);
#434=EDGE_LOOP('',(#819,#820,#821,#822,#823,#824,#825,#826,#827,#828));
#435=FACE_BOUND('',#436,.T.);
#436=EDGE_LOOP('',(#829,#830,#831,#832,#833,#834,#835,#836));
#437=PLANE('',#438);
#438=AXIS2_PLACEMENT_3D('',#439,#440,#441);
#439=CARTESIAN_POINT('',(0.,0.,2.));
#440=DIRECTION('',(0.,0.,1.));
#441=DIRECTION('',(1.,0.,0.));
#442=FACE_BOUND('',#443,.T.);
#443=EDGE_LOOP('',(#837,#838,#839,#840,#841,#842));
#444=PLANE('',#445);
#445=AXIS2_PLACEMENT_3D('',#446,#447,#448);
#446=CARTESIAN_POINT('',(0.,0.,2.));
#447=DIRECTION('',(0.,0.,1.));
#448=DIRECTION('',(1.,0.,0.));
#449=FACE_BOUND('',#450,.T.);
#450=EDGE_LOOP('',(#843,#844,#845,#846));
#451=FACE_BOUND('',#452,.T.);
#452=EDGE_LOOP('',(#847,#848,#849,#850));
#453=PLANE('',#454);
#454=AXIS2_PLACEMENT_3D('',#455,#456,#457);
#455=CARTESIAN_POINT('',(0.,0.,2.));
#456=DIRECTION('',(0.,0.,1.));
#457=DIRECTION('',(1.,0.,0.));
#458=FACE_BOUND('',#459,.T.);
#459=EDGE_LOOP('',(#851,#852,#853,#854));
#460=PLANE('',#461);
#461=AXIS2_PLACEMENT_3D('',#462,#463,#464);
#462=CARTESIAN_POINT('',(-8.17102874259867E-34,12.5,0.));
#463=DIRECTION('',(-1.,-6.53682299407893E-35,0.));
#464=DIRECTION('',(6.53682299407893E-35,-1.,0.));
#465=FACE_BOUND('',#466,.T.);
#466=EDGE_LOOP('',(#855,#856,#857,#858));
#467=PLANE('',#468);
#468=AXIS2_PLACEMENT_3D('',#469,#470,#471);
#469=CARTESIAN_POINT('',(0.,0.,0.));
#470=DIRECTION('',(0.,-1.,0.));
#471=DIRECTION('',(1.,0.,0.));
#472=FACE_BOUND('',#473,.T.);
#473=EDGE_LOOP('',(#859,#860,#861,#862));
#474=PLANE('',#475);
#475=AXIS2_PLACEMENT_3D('',#476,#477,#478);
#476=CARTESIAN_POINT('',(49.5,-1.77635683940025E-15,0.));
#477=DIRECTION('',(1.,0.,0.));
#478=DIRECTION('',(0.,1.,0.));
#479=FACE_BOUND('',#480,.T.);
#480=EDGE_LOOP('',(#863,#864,#865,#866));
#481=PLANE('',#482);
#482=AXIS2_PLACEMENT_3D('',#483,#484,#485);
#483=CARTESIAN_POINT('',(49.5,12.5,0.));
#484=DIRECTION('',(-3.58859967555606E-17,1.,0.));
#485=DIRECTION('',(-1.,-3.58859967555606E-17,0.));
#486=FACE_BOUND('',#487,.T.);
#487=EDGE_LOOP('',(#867,#868,#869,#870));
#488=PLANE('',#489);
#489=AXIS2_PLACEMENT_3D('',#490,#491,#492);
#490=CARTESIAN_POINT('',(0.,0.,0.));
#491=DIRECTION('',(0.,0.,1.));
#492=DIRECTION('',(1.,0.,0.));
#493=ORIENTED_EDGE('',*,*,#871,.F.);
#494=ORIENTED_EDGE('',*,*,#872,.F.);
#495=ORIENTED_EDGE('',*,*,#873,.F.);
#496=ORIENTED_EDGE('',*,*,#874,.F.);
#497=ORIENTED_EDGE('',*,*,#875,.F.);
#498=ORIENTED_EDGE('',*,*,#876,.F.);
#499=ORIENTED_EDGE('',*,*,#877,.F.);
#500=ORIENTED_EDGE('',*,*,#878,.F.);
#501=ORIENTED_EDGE('',*,*,#879,.F.);
#502=ORIENTED_EDGE('',*,*,#880,.F.);
#503=ORIENTED_EDGE('',*,*,#881,.F.);
#504=ORIENTED_EDGE('',*,*,#882,.F.);
#505=ORIENTED_EDGE('',*,*,#883,.F.);
#506=ORIENTED_EDGE('',*,*,#884,.F.);
#507=ORIENTED_EDGE('',*,*,#885,.F.);
#508=ORIENTED_EDGE('',*,*,#886,.F.);
#509=ORIENTED_EDGE('',*,*,#887,.F.);
#510=ORIENTED_EDGE('',*,*,#888,.F.);
#511=ORIENTED_EDGE('',*,*,#889,.F.);
#512=ORIENTED_EDGE('',*,*,#890,.F.);
#513=ORIENTED_EDGE('',*,*,#891,.F.);
#514=ORIENTED_EDGE('',*,*,#892,.F.);
#515=ORIENTED_EDGE('',*,*,#893,.F.);
#516=ORIENTED_EDGE('',*,*,#894,.F.);
#517=ORIENTED_EDGE('',*,*,#895,.F.);
#518=ORIENTED_EDGE('',*,*,#896,.F.);
#519=ORIENTED_EDGE('',*,*,#897,.F.);
#520=ORIENTED_EDGE('',*,*,#898,.F.);
#521=ORIENTED_EDGE('',*,*,#899,.F.);
#522=ORIENTED_EDGE('',*,*,#900,.F.);
#523=ORIENTED_EDGE('',*,*,#901,.F.);
#524=ORIENTED_EDGE('',*,*,#902,.F.);
#525=ORIENTED_EDGE('',*,*,#903,.F.);
#526=ORIENTED_EDGE('',*,*,#904,.F.);
#527=ORIENTED_EDGE('',*,*,#905,.F.);
#528=ORIENTED_EDGE('',*,*,#906,.F.);
#529=ORIENTED_EDGE('',*,*,#907,.F.);
#530=ORIENTED_EDGE('',*,*,#908,.F.);
#531=ORIENTED_EDGE('',*,*,#909,.F.);
#532=ORIENTED_EDGE('',*,*,#910,.F.);
#533=ORIENTED_EDGE('',*,*,#911,.F.);
#534=ORIENTED_EDGE('',*,*,#912,.F.);
#535=ORIENTED_EDGE('',*,*,#913,.F.);
#536=ORIENTED_EDGE('',*,*,#914,.F.);
#537=ORIENTED_EDGE('',*,*,#915,.F.);
#538=ORIENTED_EDGE('',*,*,#916,.F.);
#539=ORIENTED_EDGE('',*,*,#900,.T.);
#540=ORIENTED_EDGE('',*,*,#917,.T.);
#541=ORIENTED_EDGE('',*,*,#918,.F.);
#542=ORIENTED_EDGE('',*,*,#919,.F.);
#543=CARTESIAN_POINT('',(31.9344375753478,5.94620079928975,1.));
#544=CARTESIAN_POINT('',(31.8502670100011,5.82842812234867,1.));
#545=CARTESIAN_POINT('',(31.717942253764,5.69888150120475,1.));
#546=ORIENTED_EDGE('',*,*,#901,.T.);
#547=ORIENTED_EDGE('',*,*,#919,.T.);
#548=ORIENTED_EDGE('',*,*,#920,.F.);
#549=ORIENTED_EDGE('',*,*,#921,.F.);
#550=CARTESIAN_POINT('',(32.0546576208706,6.16997214437253,1.));
#551=CARTESIAN_POINT('',(32.0186081406946,6.06397344393256,1.));
#552=CARTESIAN_POINT('',(31.9344375753478,5.94620079928975,1.));
#553=ORIENTED_EDGE('',*,*,#902,.T.);
#554=ORIENTED_EDGE('',*,*,#921,.T.);
#555=ORIENTED_EDGE('',*,*,#922,.F.);
#556=ORIENTED_EDGE('',*,*,#923,.F.);
#557=CARTESIAN_POINT('',(31.9944980041264,6.5733294219087,1.));
#558=CARTESIAN_POINT('',(32.1486839365798,6.44672630296463,1.));
#559=CARTESIAN_POINT('',(32.0546576208706,6.16997214437253,1.));
#560=ORIENTED_EDGE('',*,*,#903,.T.);
#561=ORIENTED_EDGE('',*,*,#923,.T.);
#562=ORIENTED_EDGE('',*,*,#924,.F.);
#563=ORIENTED_EDGE('',*,*,#925,.F.);
#564=CARTESIAN_POINT('',(31.4046755870973,6.69993254085278,1.));
#565=CARTESIAN_POINT('',(31.8403120393747,6.69993254085278,1.));
#566=CARTESIAN_POINT('',(31.9944980041264,6.5733294219087,1.));
#567=ORIENTED_EDGE('',*,*,#904,.T.);
#568=ORIENTED_EDGE('',*,*,#925,.T.);
#569=ORIENTED_EDGE('',*,*,#926,.F.);
#570=ORIENTED_EDGE('',*,*,#927,.F.);
#571=ORIENTED_EDGE('',*,*,#905,.T.);
#572=ORIENTED_EDGE('',*,*,#927,.T.);
#573=ORIENTED_EDGE('',*,*,#928,.F.);
#574=ORIENTED_EDGE('',*,*,#929,.F.);
#575=ORIENTED_EDGE('',*,*,#906,.T.);
#576=ORIENTED_EDGE('',*,*,#929,.T.);
#577=ORIENTED_EDGE('',*,*,#930,.F.);
#578=ORIENTED_EDGE('',*,*,#931,.F.);
#579=ORIENTED_EDGE('',*,*,#907,.T.);
#580=ORIENTED_EDGE('',*,*,#931,.T.);
#581=ORIENTED_EDGE('',*,*,#932,.F.);
#582=ORIENTED_EDGE('',*,*,#933,.F.);
#583=ORIENTED_EDGE('',*,*,#908,.T.);
#584=ORIENTED_EDGE('',*,*,#933,.T.);
#585=ORIENTED_EDGE('',*,*,#934,.F.);
#586=ORIENTED_EDGE('',*,*,#935,.F.);
#587=ORIENTED_EDGE('',*,*,#909,.T.);
#588=ORIENTED_EDGE('',*,*,#935,.T.);
#589=ORIENTED_EDGE('',*,*,#936,.F.);
#590=ORIENTED_EDGE('',*,*,#937,.F.);
#591=ORIENTED_EDGE('',*,*,#910,.T.);
#592=ORIENTED_EDGE('',*,*,#937,.T.);
#593=ORIENTED_EDGE('',*,*,#938,.F.);
#594=ORIENTED_EDGE('',*,*,#939,.F.);
#595=ORIENTED_EDGE('',*,*,#911,.T.);
#596=ORIENTED_EDGE('',*,*,#939,.T.);
#597=ORIENTED_EDGE('',*,*,#940,.F.);
#598=ORIENTED_EDGE('',*,*,#941,.F.);
#599=CARTESIAN_POINT('',(34.458645242752,7.16632682278864,1.));
#600=CARTESIAN_POINT('',(34.1637836766677,7.50214920751945,1.));
#601=CARTESIAN_POINT('',(33.4517237677132,7.50214920751945,1.));
#602=ORIENTED_EDGE('',*,*,#912,.T.);
#603=ORIENTED_EDGE('',*,*,#941,.T.);
#604=ORIENTED_EDGE('',*,*,#942,.F.);
#605=ORIENTED_EDGE('',*,*,#943,.F.);
#606=CARTESIAN_POINT('',(34.5592696091211,6.25900443805784,1.));
#607=CARTESIAN_POINT('',(34.7535068411346,6.83050443805784,1.));
#608=CARTESIAN_POINT('',(34.458645242752,7.16632682278864,1.));
#609=ORIENTED_EDGE('',*,*,#913,.T.);
#610=ORIENTED_EDGE('',*,*,#943,.T.);
#611=ORIENTED_EDGE('',*,*,#944,.F.);
#612=ORIENTED_EDGE('',*,*,#945,.F.);
#613=CARTESIAN_POINT('',(34.2038680496491,5.63744855773943,1.));
#614=CARTESIAN_POINT('',(34.4691789659534,5.99389192998327,1.));
#615=CARTESIAN_POINT('',(34.5592696091211,6.25900443805784,1.));
#616=ORIENTED_EDGE('',*,*,#914,.T.);
#617=ORIENTED_EDGE('',*,*,#945,.T.);
#618=ORIENTED_EDGE('',*,*,#946,.F.);
#619=ORIENTED_EDGE('',*,*,#947,.F.);
#620=CARTESIAN_POINT('',(33.5455847163158,4.90394089033524,1.));
#621=CARTESIAN_POINT('',(33.9385571010466,5.28100521779385,1.));
#622=CARTESIAN_POINT('',(34.2038680496491,5.63744855773943,1.));
#623=ORIENTED_EDGE('',*,*,#915,.T.);
#624=ORIENTED_EDGE('',*,*,#947,.T.);
#625=ORIENTED_EDGE('',*,*,#948,.F.);
#626=ORIENTED_EDGE('',*,*,#949,.F.);
#627=ORIENTED_EDGE('',*,*,#916,.T.);
#628=ORIENTED_EDGE('',*,*,#949,.T.);
#629=ORIENTED_EDGE('',*,*,#950,.F.);
#630=ORIENTED_EDGE('',*,*,#951,.F.);
#631=ORIENTED_EDGE('',*,*,#899,.T.);
#632=ORIENTED_EDGE('',*,*,#951,.T.);
#633=ORIENTED_EDGE('',*,*,#952,.F.);
#634=ORIENTED_EDGE('',*,*,#917,.F.);
#635=ORIENTED_EDGE('',*,*,#898,.T.);
#636=ORIENTED_EDGE('',*,*,#953,.T.);
#637=ORIENTED_EDGE('',*,*,#954,.F.);
#638=ORIENTED_EDGE('',*,*,#955,.F.);
#639=CARTESIAN_POINT('',(28.923413587649,9.37372903204069,1.));
#640=CARTESIAN_POINT('',(28.4675365245021,10.3723492075194,1.));
#641=CARTESIAN_POINT('',(27.0655094290569,10.3723492075194,1.));
#642=ORIENTED_EDGE('',*,*,#897,.T.);
#643=ORIENTED_EDGE('',*,*,#956,.T.);
#644=ORIENTED_EDGE('',*,*,#957,.F.);
#645=ORIENTED_EDGE('',*,*,#953,.F.);
#646=CARTESIAN_POINT('',(27.0655094290569,10.3723492075194,1.));
#647=CARTESIAN_POINT('',(25.4396448416863,10.3723492075194,1.));
#648=CARTESIAN_POINT('',(23.9732578695849,9.0909390709512,1.));
#649=ORIENTED_EDGE('',*,*,#896,.T.);
#650=ORIENTED_EDGE('',*,*,#958,.T.);
#651=ORIENTED_EDGE('',*,*,#959,.F.);
#652=ORIENTED_EDGE('',*,*,#956,.F.);
#653=CARTESIAN_POINT('',(23.9732578695849,9.0909390709512,1.));
#654=CARTESIAN_POINT('',(22.5068708974835,7.80952890208469,1.));
#655=CARTESIAN_POINT('',(21.8081063101129,5.75335261867379,1.));
#656=ORIENTED_EDGE('',*,*,#895,.T.);
#657=ORIENTED_EDGE('',*,*,#960,.T.);
#658=ORIENTED_EDGE('',*,*,#961,.F.);
#659=ORIENTED_EDGE('',*,*,#958,.F.);
#660=CARTESIAN_POINT('',(21.8081063101129,5.75335261867379,1.));
#661=CARTESIAN_POINT('',(21.233464367385,4.0624666862204,1.));
#662=CARTESIAN_POINT('',(21.7092017616527,3.09625794686992,1.));
#663=ORIENTED_EDGE('',*,*,#894,.T.);
#664=ORIENTED_EDGE('',*,*,#962,.T.);
#665=ORIENTED_EDGE('',*,*,#963,.F.);
#666=ORIENTED_EDGE('',*,*,#960,.F.);
#667=CARTESIAN_POINT('',(21.7092017616527,3.09625794686992,1.));
#668=CARTESIAN_POINT('',(22.1849391236222,2.13004920751945,1.));
#669=CARTESIAN_POINT('',(23.5751591691449,2.13004920751945,1.));
#670=ORIENTED_EDGE('',*,*,#893,.T.);
#671=ORIENTED_EDGE('',*,*,#964,.T.);
#672=ORIENTED_EDGE('',*,*,#965,.F.);
#673=ORIENTED_EDGE('',*,*,#962,.F.);
#674=CARTESIAN_POINT('',(23.5751591691449,2.13004920751945,1.));
#675=CARTESIAN_POINT('',(24.3704305142277,2.13004920751945,1.));
#676=CARTESIAN_POINT('',(25.1846692080554,2.48060560766186,1.));
#677=ORIENTED_EDGE('',*,*,#892,.T.);
#678=ORIENTED_EDGE('',*,*,#966,.T.);
#679=ORIENTED_EDGE('',*,*,#967,.F.);
#680=ORIENTED_EDGE('',*,*,#964,.F.);
#681=CARTESIAN_POINT('',(25.1846692080554,2.48060560766186,1.));
#682=CARTESIAN_POINT('',(25.9989078695849,2.83116197550602,1.));
#683=CARTESIAN_POINT('',(26.7553516316967,3.49688673174314,1.));
#684=ORIENTED_EDGE('',*,*,#891,.T.);
#685=ORIENTED_EDGE('',*,*,#968,.T.);
#686=ORIENTED_EDGE('',*,*,#969,.F.);
#687=ORIENTED_EDGE('',*,*,#966,.F.);
#688=CARTESIAN_POINT('',(26.7553516316967,3.49688673174314,1.));
#689=CARTESIAN_POINT('',(27.4387373042381,4.10370859664994,1.));
#690=CARTESIAN_POINT('',(27.9494989026207,4.88728868108319,1.));
#691=ORIENTED_EDGE('',*,*,#890,.T.);
#692=ORIENTED_EDGE('',*,*,#970,.T.);
#693=ORIENTED_EDGE('',*,*,#971,.F.);
#694=ORIENTED_EDGE('',*,*,#968,.F.);
#695=CARTESIAN_POINT('',(27.9494989026207,4.88728868108319,1.));
#696=CARTESIAN_POINT('',(28.460260468705,5.67086876551645,1.));
#697=CARTESIAN_POINT('',(28.7746185582754,6.59585209884978,1.));
#698=ORIENTED_EDGE('',*,*,#889,.T.);
#699=ORIENTED_EDGE('',*,*,#955,.T.);
#700=ORIENTED_EDGE('',*,*,#972,.F.);
#701=ORIENTED_EDGE('',*,*,#970,.F.);
#702=CARTESIAN_POINT('',(28.7746185582754,6.59585209884978,1.));
#703=CARTESIAN_POINT('',(29.3792906830942,8.37510885656194,1.));
#704=CARTESIAN_POINT('',(28.923413587649,9.37372903204069,1.));
#705=ORIENTED_EDGE('',*,*,#872,.T.);
#706=ORIENTED_EDGE('',*,*,#973,.T.);
#707=ORIENTED_EDGE('',*,*,#974,.F.);
#708=ORIENTED_EDGE('',*,*,#975,.F.);
#709=CARTESIAN_POINT('',(27.0210594290569,8.66428189107276,1.));
#710=CARTESIAN_POINT('',(27.0066727168675,9.45371587418611,1.));
#711=CARTESIAN_POINT('',(26.4059693380114,9.45371587418611,1.));
#712=ORIENTED_EDGE('',*,*,#873,.T.);
#713=ORIENTED_EDGE('',*,*,#975,.T.);
#714=ORIENTED_EDGE('',*,*,#976,.F.);
#715=ORIENTED_EDGE('',*,*,#977,.F.);
#716=CARTESIAN_POINT('',(26.4059693380114,9.45371587418611,1.));
#717=CARTESIAN_POINT('',(25.8229268754596,9.45371587418611,1.));
#718=CARTESIAN_POINT('',(25.2700965311144,8.67607240428453,1.));
#719=ORIENTED_EDGE('',*,*,#874,.T.);
#720=ORIENTED_EDGE('',*,*,#977,.T.);
#721=ORIENTED_EDGE('',*,*,#978,.F.);
#722=ORIENTED_EDGE('',*,*,#979,.F.);
#723=CARTESIAN_POINT('',(25.2700965311144,8.67607240428453,1.));
#724=CARTESIAN_POINT('',(24.7172662190674,7.89842890208469,1.));
#725=CARTESIAN_POINT('',(24.1846930223023,6.3313349123591,1.));
#726=ORIENTED_EDGE('',*,*,#875,.T.);
#727=ORIENTED_EDGE('',*,*,#979,.T.);
#728=ORIENTED_EDGE('',*,*,#980,.F.);
#729=ORIENTED_EDGE('',*,*,#981,.F.);
#730=CARTESIAN_POINT('',(24.1846930223023,6.3313349123591,1.));
#731=CARTESIAN_POINT('',(23.6020805142277,4.61696720604441,1.));
#732=CARTESIAN_POINT('',(23.6135237565155,3.82753322293106,1.));
#733=ORIENTED_EDGE('',*,*,#876,.T.);
#734=ORIENTED_EDGE('',*,*,#981,.T.);
#735=ORIENTED_EDGE('',*,*,#982,.F.);
#736=ORIENTED_EDGE('',*,*,#983,.F.);
#737=CARTESIAN_POINT('',(23.6135237565155,3.82753322293106,1.));
#738=CARTESIAN_POINT('',(23.6249669988034,3.03809920751945,1.));
#739=CARTESIAN_POINT('',(24.2256703776595,3.03809920751945,1.));
#740=ORIENTED_EDGE('',*,*,#877,.T.);
#741=ORIENTED_EDGE('',*,*,#983,.T.);
#742=ORIENTED_EDGE('',*,*,#984,.F.);
#743=ORIENTED_EDGE('',*,*,#985,.F.);
#744=CARTESIAN_POINT('',(24.2256703776595,3.03809920751945,1.));
#745=CARTESIAN_POINT('',(24.8086797344917,3.03809920751945,1.));
#746=CARTESIAN_POINT('',(25.3684884738422,3.82753322293106,1.));
#747=ORIENTED_EDGE('',*,*,#878,.T.);
#748=ORIENTED_EDGE('',*,*,#985,.T.);
#749=ORIENTED_EDGE('',*,*,#986,.F.);
#750=ORIENTED_EDGE('',*,*,#987,.F.);
#751=CARTESIAN_POINT('',(25.3684884738422,3.82753322293106,1.));
#752=CARTESIAN_POINT('',(25.9282971808944,4.61696720604441,1.));
#753=CARTESIAN_POINT('',(26.4568354848541,6.17225417814583,1.));
#754=ORIENTED_EDGE('',*,*,#871,.T.);
#755=ORIENTED_EDGE('',*,*,#987,.T.);
#756=ORIENTED_EDGE('',*,*,#988,.F.);
#757=ORIENTED_EDGE('',*,*,#973,.F.);
#758=CARTESIAN_POINT('',(26.4568354848541,6.17225417814583,1.));
#759=CARTESIAN_POINT('',(27.0354461412463,7.87484790795942,1.));
#760=CARTESIAN_POINT('',(27.0210594290569,8.66428189107276,1.));
#761=ORIENTED_EDGE('',*,*,#884,.T.);
#762=ORIENTED_EDGE('',*,*,#989,.T.);
#763=ORIENTED_EDGE('',*,*,#990,.F.);
#764=ORIENTED_EDGE('',*,*,#991,.F.);
#765=ORIENTED_EDGE('',*,*,#885,.T.);
#766=ORIENTED_EDGE('',*,*,#991,.T.);
#767=ORIENTED_EDGE('',*,*,#992,.F.);
#768=ORIENTED_EDGE('',*,*,#993,.F.);
#769=ORIENTED_EDGE('',*,*,#886,.T.);
#770=ORIENTED_EDGE('',*,*,#993,.T.);
#771=ORIENTED_EDGE('',*,*,#994,.F.);
#772=ORIENTED_EDGE('',*,*,#995,.F.);
#773=ORIENTED_EDGE('',*,*,#887,.T.);
#774=ORIENTED_EDGE('',*,*,#995,.T.);
#775=ORIENTED_EDGE('',*,*,#996,.F.);
#776=ORIENTED_EDGE('',*,*,#997,.F.);
#777=ORIENTED_EDGE('',*,*,#888,.T.);
#778=ORIENTED_EDGE('',*,*,#997,.T.);
#779=ORIENTED_EDGE('',*,*,#998,.F.);
#780=ORIENTED_EDGE('',*,*,#999,.F.);
#781=ORIENTED_EDGE('',*,*,#883,.T.);
#782=ORIENTED_EDGE('',*,*,#999,.T.);
#783=ORIENTED_EDGE('',*,*,#1000,.F.);
#784=ORIENTED_EDGE('',*,*,#989,.F.);
#785=ORIENTED_EDGE('',*,*,#879,.T.);
#786=ORIENTED_EDGE('',*,*,#1001,.T.);
#787=ORIENTED_EDGE('',*,*,#1002,.F.);
#788=ORIENTED_EDGE('',*,*,#1003,.F.);
#789=ORIENTED_EDGE('',*,*,#880,.T.);
#790=ORIENTED_EDGE('',*,*,#1003,.T.);
#791=ORIENTED_EDGE('',*,*,#1004,.F.);
#792=ORIENTED_EDGE('',*,*,#1005,.F.);
#793=ORIENTED_EDGE('',*,*,#881,.T.);
#794=ORIENTED_EDGE('',*,*,#1005,.T.);
#795=ORIENTED_EDGE('',*,*,#1006,.F.);
#796=ORIENTED_EDGE('',*,*,#1007,.F.);
#797=ORIENTED_EDGE('',*,*,#882,.T.);
#798=ORIENTED_EDGE('',*,*,#1007,.T.);
#799=ORIENTED_EDGE('',*,*,#1008,.F.);
#800=ORIENTED_EDGE('',*,*,#1001,.F.);
#801=ORIENTED_EDGE('',*,*,#952,.T.);
#802=ORIENTED_EDGE('',*,*,#950,.T.);
#803=ORIENTED_EDGE('',*,*,#948,.T.);
#804=ORIENTED_EDGE('',*,*,#946,.T.);
#805=ORIENTED_EDGE('',*,*,#944,.T.);
#806=ORIENTED_EDGE('',*,*,#942,.T.);
#807=ORIENTED_EDGE('',*,*,#940,.T.);
#808=ORIENTED_EDGE('',*,*,#938,.T.);
#809=ORIENTED_EDGE('',*,*,#936,.T.);
#810=ORIENTED_EDGE('',*,*,#934,.T.);
#811=ORIENTED_EDGE('',*,*,#932,.T.);
#812=ORIENTED_EDGE('',*,*,#930,.T.);
#813=ORIENTED_EDGE('',*,*,#928,.T.);
#814=ORIENTED_EDGE('',*,*,#926,.T.);
#815=ORIENTED_EDGE('',*,*,#924,.T.);
#816=ORIENTED_EDGE('',*,*,#922,.T.);
#817=ORIENTED_EDGE('',*,*,#920,.T.);
#818=ORIENTED_EDGE('',*,*,#918,.T.);
#819=ORIENTED_EDGE('',*,*,#954,.T.);
#820=ORIENTED_EDGE('',*,*,#957,.T.);
#821=ORIENTED_EDGE('',*,*,#959,.T.);
#822=ORIENTED_EDGE('',*,*,#961,.T.);
#823=ORIENTED_EDGE('',*,*,#963,.T.);
#824=ORIENTED_EDGE('',*,*,#965,.T.);
#825=ORIENTED_EDGE('',*,*,#967,.T.);
#826=ORIENTED_EDGE('',*,*,#969,.T.);
#827=ORIENTED_EDGE('',*,*,#971,.T.);
#828=ORIENTED_EDGE('',*,*,#972,.T.);
#829=ORIENTED_EDGE('',*,*,#974,.T.);
#830=ORIENTED_EDGE('',*,*,#988,.T.);
#831=ORIENTED_EDGE('',*,*,#986,.T.);
#832=ORIENTED_EDGE('',*,*,#984,.T.);
#833=ORIENTED_EDGE('',*,*,#982,.T.);
#834=ORIENTED_EDGE('',*,*,#980,.T.);
#835=ORIENTED_EDGE('',*,*,#978,.T.);
#836=ORIENTED_EDGE('',*,*,#976,.T.);
#837=ORIENTED_EDGE('',*,*,#1000,.T.);
#838=ORIENTED_EDGE('',*,*,#998,.T.);
#839=ORIENTED_EDGE('',*,*,#996,.T.);
#840=ORIENTED_EDGE('',*,*,#994,.T.);
#841=ORIENTED_EDGE('',*,*,#992,.T.);
#842=ORIENTED_EDGE('',*,*,#990,.T.);
#843=ORIENTED_EDGE('',*,*,#1009,.T.);
#844=ORIENTED_EDGE('',*,*,#1010,.T.);
#845=ORIENTED_EDGE('',*,*,#1011,.T.);
#846=ORIENTED_EDGE('',*,*,#1012,.T.);
#847=ORIENTED_EDGE('',*,*,#1004,.T.);
#848=ORIENTED_EDGE('',*,*,#1002,.T.);
#849=ORIENTED_EDGE('',*,*,#1008,.T.);
#850=ORIENTED_EDGE('',*,*,#1006,.T.);
#851=ORIENTED_EDGE('',*,*,#1013,.T.);
#852=ORIENTED_EDGE('',*,*,#1014,.T.);
#853=ORIENTED_EDGE('',*,*,#1009,.F.);
#854=ORIENTED_EDGE('',*,*,#1015,.F.);
#855=ORIENTED_EDGE('',*,*,#1016,.T.);
#856=ORIENTED_EDGE('',*,*,#1017,.T.);
#857=ORIENTED_EDGE('',*,*,#1010,.F.);
#858=ORIENTED_EDGE('',*,*,#1014,.F.);
#859=ORIENTED_EDGE('',*,*,#1018,.T.);
#860=ORIENTED_EDGE('',*,*,#1019,.T.);
#861=ORIENTED_EDGE('',*,*,#1011,.F.);
#862=ORIENTED_EDGE('',*,*,#1017,.F.);
#863=ORIENTED_EDGE('',*,*,#1020,.T.);
#864=ORIENTED_EDGE('',*,*,#1015,.T.);
#865=ORIENTED_EDGE('',*,*,#1012,.F.);
#866=ORIENTED_EDGE('',*,*,#1019,.F.);
#867=ORIENTED_EDGE('',*,*,#1016,.F.);
#868=ORIENTED_EDGE('',*,*,#1013,.F.);
#869=ORIENTED_EDGE('',*,*,#1020,.F.);
#870=ORIENTED_EDGE('',*,*,#1018,.F.);
#871=EDGE_CURVE('',#1021,#1022,#1023,.F.);
#872=EDGE_CURVE('',#1024,#1021,#1025,.F.);
#873=EDGE_CURVE('',#1026,#1024,#1027,.F.);
#874=EDGE_CURVE('',#1028,#1026,#1029,.F.);
#875=EDGE_CURVE('',#1030,#1028,#1031,.F.);
#876=EDGE_CURVE('',#1032,#1030,#1033,.F.);
#877=EDGE_CURVE('',#1034,#1032,#1035,.F.);
#878=EDGE_CURVE('',#1022,#1034,#1036,.F.);
#879=EDGE_CURVE('',#1037,#1038,#1039,.F.);
#880=EDGE_CURVE('',#1040,#1037,#1041,.F.);
#881=EDGE_CURVE('',#1042,#1040,#1043,.F.);
#882=EDGE_CURVE('',#1038,#1042,#1044,.F.);
#883=EDGE_CURVE('',#1045,#1046,#1047,.T.);
#884=EDGE_CURVE('',#1048,#1045,#1049,.T.);
#885=EDGE_CURVE('',#1050,#1048,#1051,.T.);
#886=EDGE_CURVE('',#1052,#1050,#1053,.T.);
#887=EDGE_CURVE('',#1054,#1052,#1055,.T.);
#888=EDGE_CURVE('',#1046,#1054,#1056,.T.);
#889=EDGE_CURVE('',#1057,#1058,#1059,.T.);
#890=EDGE_CURVE('',#1060,#1057,#1061,.T.);
#891=EDGE_CURVE('',#1062,#1060,#1063,.T.);
#892=EDGE_CURVE('',#1064,#1062,#1065,.T.);
#893=EDGE_CURVE('',#1066,#1064,#1067,.T.);
#894=EDGE_CURVE('',#1068,#1066,#1069,.T.);
#895=EDGE_CURVE('',#1070,#1068,#1071,.T.);
#896=EDGE_CURVE('',#1072,#1070,#1073,.T.);
#897=EDGE_CURVE('',#1074,#1072,#1075,.T.);
#898=EDGE_CURVE('',#1058,#1074,#1076,.T.);
#899=EDGE_CURVE('',#1077,#1078,#1079,.T.);
#900=EDGE_CURVE('',#1080,#1077,#1081,.T.);
#901=EDGE_CURVE('',#1082,#1080,#1083,.T.);
#902=EDGE_CURVE('',#1084,#1082,#1085,.T.);
#903=EDGE_CURVE('',#1086,#1084,#1087,.T.);
#904=EDGE_CURVE('',#1088,#1086,#1089,.T.);
#905=EDGE_CURVE('',#1090,#1088,#1091,.T.);
#906=EDGE_CURVE('',#1092,#1090,#1093,.T.);
#907=EDGE_CURVE('',#1094,#1092,#1095,.T.);
#908=EDGE_CURVE('',#1096,#1094,#1097,.T.);
#909=EDGE_CURVE('',#1098,#1096,#1099,.T.);
#910=EDGE_CURVE('',#1100,#1098,#1101,.T.);
#911=EDGE_CURVE('',#1102,#1100,#1103,.T.);
#912=EDGE_CURVE('',#1104,#1102,#1105,.T.);
#913=EDGE_CURVE('',#1106,#1104,#1107,.T.);
#914=EDGE_CURVE('',#1108,#1106,#1109,.T.);
#915=EDGE_CURVE('',#1110,#1108,#1111,.T.);
#916=EDGE_CURVE('',#1078,#1110,#1112,.T.);
#917=EDGE_CURVE('',#1077,#1113,#1114,.T.);
#918=EDGE_CURVE('',#1115,#1113,#1116,.T.);
#919=EDGE_CURVE('',#1080,#1115,#1117,.T.);
#920=EDGE_CURVE('',#1118,#1115,#1119,.T.);
#921=EDGE_CURVE('',#1082,#1118,#1120,.T.);
#922=EDGE_CURVE('',#1121,#1118,#1122,.T.);
#923=EDGE_CURVE('',#1084,#1121,#1123,.T.);
#924=EDGE_CURVE('',#1124,#1121,#1125,.T.);
#925=EDGE_CURVE('',#1086,#1124,#1126,.T.);
#926=EDGE_CURVE('',#1127,#1124,#1128,.T.);
#927=EDGE_CURVE('',#1088,#1127,#1129,.T.);
#928=EDGE_CURVE('',#1130,#1127,#1131,.T.);
#929=EDGE_CURVE('',#1090,#1130,#1132,.T.);
#930=EDGE_CURVE('',#1133,#1130,#1134,.T.);
#931=EDGE_CURVE('',#1092,#1133,#1135,.T.);
#932=EDGE_CURVE('',#1136,#1133,#1137,.T.);
#933=EDGE_CURVE('',#1094,#1136,#1138,.T.);
#934=EDGE_CURVE('',#1139,#1136,#1140,.T.);
#935=EDGE_CURVE('',#1096,#1139,#1141,.T.);
#936=EDGE_CURVE('',#1142,#1139,#1143,.T.);
#937=EDGE_CURVE('',#1098,#1142,#1144,.T.);
#938=EDGE_CURVE('',#1145,#1142,#1146,.T.);
#939=EDGE_CURVE('',#1100,#1145,#1147,.T.);
#940=EDGE_CURVE('',#1148,#1145,#1149,.T.);
#941=EDGE_CURVE('',#1102,#1148,#1150,.T.);
#942=EDGE_CURVE('',#1151,#1148,#1152,.T.);
#943=EDGE_CURVE('',#1104,#1151,#1153,.T.);
#944=EDGE_CURVE('',#1154,#1151,#1155,.T.);
#945=EDGE_CURVE('',#1106,#1154,#1156,.T.);
#946=EDGE_CURVE('',#1157,#1154,#1158,.T.);
#947=EDGE_CURVE('',#1108,#1157,#1159,.T.);
#948=EDGE_CURVE('',#1160,#1157,#1161,.T.);
#949=EDGE_CURVE('',#1110,#1160,#1162,.T.);
#950=EDGE_CURVE('',#1163,#1160,#1164,.T.);
#951=EDGE_CURVE('',#1078,#1163,#1165,.T.);
#952=EDGE_CURVE('',#1113,#1163,#1166,.T.);
#953=EDGE_CURVE('',#1074,#1167,#1168,.T.);
#954=EDGE_CURVE('',#1169,#1167,#1170,.T.);
#955=EDGE_CURVE('',#1058,#1169,#1171,.T.);
#956=EDGE_CURVE('',#1072,#1172,#1173,.T.);
#957=EDGE_CURVE('',#1167,#1172,#1174,.T.);
#958=EDGE_CURVE('',#1070,#1175,#1176,.T.);
#959=EDGE_CURVE('',#1172,#1175,#1177,.T.);
#960=EDGE_CURVE('',#1068,#1178,#1179,.T.);
#961=EDGE_CURVE('',#1175,#1178,#1180,.T.);
#962=EDGE_CURVE('',#1066,#1181,#1182,.T.);
#963=EDGE_CURVE('',#1178,#1181,#1183,.T.);
#964=EDGE_CURVE('',#1064,#1184,#1185,.T.);
#965=EDGE_CURVE('',#1181,#1184,#1186,.T.);
#966=EDGE_CURVE('',#1062,#1187,#1188,.T.);
#967=EDGE_CURVE('',#1184,#1187,#1189,.T.);
#968=EDGE_CURVE('',#1060,#1190,#1191,.T.);
#969=EDGE_CURVE('',#1187,#1190,#1192,.T.);
#970=EDGE_CURVE('',#1057,#1193,#1194,.T.);
#971=EDGE_CURVE('',#1190,#1193,#1195,.T.);
#972=EDGE_CURVE('',#1193,#1169,#1196,.T.);
#973=EDGE_CURVE('',#1021,#1197,#1198,.T.);
#974=EDGE_CURVE('',#1199,#1197,#1200,.F.);
#975=EDGE_CURVE('',#1024,#1199,#1201,.T.);
#976=EDGE_CURVE('',#1202,#1199,#1203,.F.);
#977=EDGE_CURVE('',#1026,#1202,#1204,.T.);
#978=EDGE_CURVE('',#1205,#1202,#1206,.F.);
#979=EDGE_CURVE('',#1028,#1205,#1207,.T.);
#980=EDGE_CURVE('',#1208,#1205,#1209,.F.);
#981=EDGE_CURVE('',#1030,#1208,#1210,.T.);
#982=EDGE_CURVE('',#1211,#1208,#1212,.F.);
#983=EDGE_CURVE('',#1032,#1211,#1213,.T.);
#984=EDGE_CURVE('',#1214,#1211,#1215,.F.);
#985=EDGE_CURVE('',#1034,#1214,#1216,.T.);
#986=EDGE_CURVE('',#1217,#1214,#1218,.F.);
#987=EDGE_CURVE('',#1022,#1217,#1219,.T.);
#988=EDGE_CURVE('',#1197,#1217,#1220,.F.);
#989=EDGE_CURVE('',#1045,#1221,#1222,.T.);
#990=EDGE_CURVE('',#1223,#1221,#1224,.T.);
#991=EDGE_CURVE('',#1048,#1223,#1225,.T.);
#992=EDGE_CURVE('',#1226,#1223,#1227,.T.);
#993=EDGE_CURVE('',#1050,#1226,#1228,.T.);
#994=EDGE_CURVE('',#1229,#1226,#1230,.T.);
#995=EDGE_CURVE('',#1052,#1229,#1231,.T.);
#996=EDGE_CURVE('',#1232,#1229,#1233,.T.);
#997=EDGE_CURVE('',#1054,#1232,#1234,.T.);
#998=EDGE_CURVE('',#1235,#1232,#1236,.T.);
#999=EDGE_CURVE('',#1046,#1235,#1237,.T.);
#1000=EDGE_CURVE('',#1221,#1235,#1238,.T.);
#1001=EDGE_CURVE('',#1038,#1239,#1240,.T.);
#1002=EDGE_CURVE('',#1241,#1239,#1242,.F.);
#1003=EDGE_CURVE('',#1037,#1241,#1243,.T.);
#1004=EDGE_CURVE('',#1244,#1241,#1245,.F.);
#1005=EDGE_CURVE('',#1040,#1244,#1246,.T.);
#1006=EDGE_CURVE('',#1247,#1244,#1248,.F.);
#1007=EDGE_CURVE('',#1042,#1247,#1249,.T.);
#1008=EDGE_CURVE('',#1239,#1247,#1250,.F.);
#1009=EDGE_CURVE('',#1251,#1252,#1253,.T.);
#1010=EDGE_CURVE('',#1252,#1254,#1255,.T.);
#1011=EDGE_CURVE('',#1254,#1256,#1257,.T.);
#1012=EDGE_CURVE('',#1256,#1251,#1258,.T.);
#1013=EDGE_CURVE('',#1259,#1260,#1261,.T.);
#1014=EDGE_CURVE('',#1260,#1252,#1262,.T.);
#1015=EDGE_CURVE('',#1259,#1251,#1263,.T.);
#1016=EDGE_CURVE('',#1260,#1264,#1265,.T.);
#1017=EDGE_CURVE('',#1264,#1254,#1266,.T.);
#1018=EDGE_CURVE('',#1264,#1267,#1268,.T.);
#1019=EDGE_CURVE('',#1267,#1256,#1269,.T.);
#1020=EDGE_CURVE('',#1267,#1259,#1270,.T.);
#1021=VERTEX_POINT('',#1271);
#1022=VERTEX_POINT('',#1272);
#1023=B_SPLINE_CURVE_WITH_KNOTS('',2,
(#1273,#1274,#1275),
.UNSPECIFIED.,.F.,.F.,
(3,3),
(0.,1.),
.UNSPECIFIED.);
#1024=VERTEX_POINT('',#1276);
#1025=B_SPLINE_CURVE_WITH_KNOTS('',2,
(#1277,#1278,#1279),
.UNSPECIFIED.,.F.,.F.,
(3,3),
(0.,1.),
.UNSPECIFIED.);
#1026=VERTEX_POINT('',#1280);
#1027=B_SPLINE_CURVE_WITH_KNOTS('',2,
(#1281,#1282,#1283),
.UNSPECIFIED.,.F.,.F.,
(3,3),
(0.,1.),
.UNSPECIFIED.);
#1028=VERTEX_POINT('',#1284);
#1029=B_SPLINE_CURVE_WITH_KNOTS('',2,
(#1285,#1286,#1287),
.UNSPECIFIED.,.F.,.F.,
(3,3),
(0.,1.),
.UNSPECIFIED.);
#1030=VERTEX_POINT('',#1288);
#1031=B_SPLINE_CURVE_WITH_KNOTS('',2,
(#1289,#1290,#1291),
.UNSPECIFIED.,.F.,.F.,
(3,3),
(0.,1.),
.UNSPECIFIED.);
#1032=VERTEX_POINT('',#1292);
#1033=B_SPLINE_CURVE_WITH_KNOTS('',2,
(#1293,#1294,#1295),
.UNSPECIFIED.,.F.,.F.,
(3,3),
(0.,1.),
.UNSPECIFIED.);
#1034=VERTEX_POINT('',#1296);
#1035=B_SPLINE_CURVE_WITH_KNOTS('',2,
(#1297,#1298,#1299),
.UNSPECIFIED.,.F.,.F.,
(3,3),
(0.,1.),
.UNSPECIFIED.);
#1036=B_SPLINE_CURVE_WITH_KNOTS('',2,
(#1300,#1301,#1302),
.UNSPECIFIED.,.F.,.F.,
(3,3),
(0.,1.),
.UNSPECIFIED.);
#1037=VERTEX_POINT('',#1303);
#1038=VERTEX_POINT('',#1304);
#1039=LINE('',#1305,#1306);
#1040=VERTEX_POINT('',#1308);
#1041=LINE('',#1309,#1310);
#1042=VERTEX_POINT('',#1312);
#1043=LINE('',#1313,#1314);
#1044=LINE('',#1316,#1317);
#1045=VERTEX_POINT('',#1319);
#1046=VERTEX_POINT('',#1320);
#1047=LINE('',#1321,#1322);
#1048=VERTEX_POINT('',#1324);
#1049=LINE('',#1325,#1326);
#1050=VERTEX_POINT('',#1328);
#1051=LINE('',#1329,#1330);
#1052=VERTEX_POINT('',#1332);
#1053=LINE('',#1333,#1334);
#1054=VERTEX_POINT('',#1336);
#1055=LINE('',#1337,#1338);
#1056=LINE('',#1340,#1341);
#1057=VERTEX_POINT('',#1343);
#1058=VERTEX_POINT('',#1344);
#1059=B_SPLINE_CURVE_WITH_KNOTS('',2,
(#1345,#1346,#1347),
.UNSPECIFIED.,.F.,.F.,
(3,3),
(0.,1.),
.UNSPECIFIED.);
#1060=VERTEX_POINT('',#1348);
#1061=B_SPLINE_CURVE_WITH_KNOTS('',2,
(#1349,#1350,#1351),
.UNSPECIFIED.,.F.,.F.,
(3,3),
(0.,1.),
.UNSPECIFIED.);
#1062=VERTEX_POINT('',#1352);
#1063=B_SPLINE_CURVE_WITH_KNOTS('',2,
(#1353,#1354,#1355),
.UNSPECIFIED.,.F.,.F.,
(3,3),
(0.,1.),
.UNSPECIFIED.);
#1064=VERTEX_POINT('',#1356);
#1065=B_SPLINE_CURVE_WITH_KNOTS('',2,
(#1357,#1358,#1359),
.UNSPECIFIED.,.F.,.F.,
(3,3),
(0.,1.),
.UNSPECIFIED.);
#1066=VERTEX_POINT('',#1360);
#1067=B_SPLINE_CURVE_WITH_KNOTS('',2,
(#1361,#1362,#1363),
.UNSPECIFIED.,.F.,.F.,
(3,3),
(0.,1.),
.UNSPECIFIED.);
#1068=VERTEX_POINT('',#1364);
#1069=B_SPLINE_CURVE_WITH_KNOTS('',2,
(#1365,#1366,#1367),
.UNSPECIFIED.,.F.,.F.,
(3,3),
(0.,1.),
.UNSPECIFIED.);
#1070=VERTEX_POINT('',#1368);
#1071=B_SPLINE_CURVE_WITH_KNOTS('',2,
(#1369,#1370,#1371),
.UNSPECIFIED.,.F.,.F.,
(3,3),
(0.,1.),
.UNSPECIFIED.);
#1072=VERTEX_POINT('',#1372);
#1073=B_SPLINE_CURVE_WITH_KNOTS('',2,
(#1373,#1374,#1375),
.UNSPECIFIED.,.F.,.F.,
(3,3),
(0.,1.),
.UNSPECIFIED.);
#1074=VERTEX_POINT('',#1376);
#1075=B_SPLINE_CURVE_WITH_KNOTS('',2,
(#1377,#1378,#1379),
.UNSPECIFIED.,.F.,.F.,
(3,3),
(0.,1.),
.UNSPECIFIED.);
#1076=B_SPLINE_CURVE_WITH_KNOTS('',2,
(#1380,#1381,#1382),
.UNSPECIFIED.,.F.,.F.,
(3,3),
(0.,1.),
.UNSPECIFIED.);
#1077=VERTEX_POINT('',#1383);
#1078=VERTEX_POINT('',#1384);
#1079=LINE('',#1385,#1386);
#1080=VERTEX_POINT('',#1388);
#1081=B_SPLINE_CURVE_WITH_KNOTS('',2,
(#1389,#1390,#1391),
.UNSPECIFIED.,.F.,.F.,
(3,3),
(0.,1.),
.UNSPECIFIED.);
#1082=VERTEX_POINT('',#1392);
#1083=B_SPLINE_CURVE_WITH_KNOTS('',2,
(#1393,#1394,#1395),
.UNSPECIFIED.,.F.,.F.,
(3,3),
(0.,1.),
.UNSPECIFIED.);
#1084=VERTEX_POINT('',#1396);
#1085=B_SPLINE_CURVE_WITH_KNOTS('',2,
(#1397,#1398,#1399),
.UNSPECIFIED.,.F.,.F.,
(3,3),
(0.,1.),
.UNSPECIFIED.);
#1086=VERTEX_POINT('',#1400);
#1087=B_SPLINE_CURVE_WITH_KNOTS('',2,
(#1401,#1402,#1403),
.UNSPECIFIED.,.F.,.F.,
(3,3),
(0.,1.),
.UNSPECIFIED.);
#1088=VERTEX_POINT('',#1404);
#1089=LINE('',#1405,#1406);
#1090=VERTEX_POINT('',#1408);
#1091=LINE('',#1409,#1410);
#1092=VERTEX_POINT('',#1412);
#1093=LINE('',#1413,#1414);
#1094=VERTEX_POINT('',#1416);
#1095=LINE('',#1417,#1418);
#1096=VERTEX_POINT('',#1420);
#1097=LINE('',#1421,#1422);
#1098=VERTEX_POINT('',#1424);
#1099=LINE('',#1425,#1426);
#1100=VERTEX_POINT('',#1428);
#1101=LINE('',#1429,#1430);
#1102=VERTEX_POINT('',#1432);
#1103=B_SPLINE_CURVE_WITH_KNOTS('',2,
(#1433,#1434,#1435),
.UNSPECIFIED.,.F.,.F.,
(3,3),
(0.,1.),
.UNSPECIFIED.);
#1104=VERTEX_POINT('',#1436);
#1105=B_SPLINE_CURVE_WITH_KNOTS('',2,
(#1437,#1438,#1439),
.UNSPECIFIED.,.F.,.F.,
(3,3),
(0.,1.),
.UNSPECIFIED.);
#1106=VERTEX_POINT('',#1440);
#1107=B_SPLINE_CURVE_WITH_KNOTS('',2,
(#1441,#1442,#1443),
.UNSPECIFIED.,.F.,.F.,
(3,3),
(0.,1.),
.UNSPECIFIED.);
#1108=VERTEX_POINT('',#1444);
#1109=B_SPLINE_CURVE_WITH_KNOTS('',2,
(#1445,#1446,#1447),
.UNSPECIFIED.,.F.,.F.,
(3,3),
(0.,1.),
.UNSPECIFIED.);
#1110=VERTEX_POINT('',#1448);
#1111=LINE('',#1449,#1450);
#1112=LINE('',#1452,#1453);
#1113=VERTEX_POINT('',#1455);
#1114=LINE('',#1456,#1457);
#1115=VERTEX_POINT('',#1459);
#1116=B_SPLINE_CURVE_WITH_KNOTS('',2,
(#1460,#1461,#1462),
.UNSPECIFIED.,.F.,.F.,
(3,3),
(0.,1.),
.UNSPECIFIED.);
#1117=LINE('',#1463,#1464);
#1118=VERTEX_POINT('',#1466);
#1119=B_SPLINE_CURVE_WITH_KNOTS('',2,
(#1467,#1468,#1469),
.UNSPECIFIED.,.F.,.F.,
(3,3),
(0.,1.),
.UNSPECIFIED.);
#1120=LINE('',#1470,#1471);
#1121=VERTEX_POINT('',#1473);
#1122=B_SPLINE_CURVE_WITH_KNOTS('',2,
(#1474,#1475,#1476),
.UNSPECIFIED.,.F.,.F.,
(3,3),
(0.,1.),
.UNSPECIFIED.);
#1123=LINE('',#1477,#1478);
#1124=VERTEX_POINT('',#1480);
#1125=B_SPLINE_CURVE_WITH_KNOTS('',2,
(#1481,#1482,#1483),
.UNSPECIFIED.,.F.,.F.,
(3,3),
(0.,1.),
.UNSPECIFIED.);
#1126=LINE('',#1484,#1485);
#1127=VERTEX_POINT('',#1487);
#1128=LINE('',#1488,#1489);
#1129=LINE('',#1491,#1492);
#1130=VERTEX_POINT('',#1494);
#1131=LINE('',#1495,#1496);
#1132=LINE('',#1498,#1499);
#1133=VERTEX_POINT('',#1501);
#1134=LINE('',#1502,#1503);
#1135=LINE('',#1505,#1506);
#1136=VERTEX_POINT('',#1508);
#1137=LINE('',#1509,#1510);
#1138=LINE('',#1512,#1513);
#1139=VERTEX_POINT('',#1515);
#1140=LINE('',#1516,#1517);
#1141=LINE('',#1519,#1520);
#1142=VERTEX_POINT('',#1522);
#1143=LINE('',#1523,#1524);
#1144=LINE('',#1526,#1527);
#1145=VERTEX_POINT('',#1529);
#1146=LINE('',#1530,#1531);
#1147=LINE('',#1533,#1534);
#1148=VERTEX_POINT('',#1536);
#1149=B_SPLINE_CURVE_WITH_KNOTS('',2,
(#1537,#1538,#1539),
.UNSPECIFIED.,.F.,.F.,
(3,3),
(0.,1.),
.UNSPECIFIED.);
#1150=LINE('',#1540,#1541);
#1151=VERTEX_POINT('',#1543);
#1152=B_SPLINE_CURVE_WITH_KNOTS('',2,
(#1544,#1545,#1546),
.UNSPECIFIED.,.F.,.F.,
(3,3),
(0.,1.),
.UNSPECIFIED.);
#1153=LINE('',#1547,#1548);
#1154=VERTEX_POINT('',#1550);
#1155=B_SPLINE_CURVE_WITH_KNOTS('',2,
(#1551,#1552,#1553),
.UNSPECIFIED.,.F.,.F.,
(3,3),
(0.,1.),
.UNSPECIFIED.);
#1156=LINE('',#1554,#1555);
#1157=VERTEX_POINT('',#1557);
#1158=B_SPLINE_CURVE_WITH_KNOTS('',2,
(#1558,#1559,#1560),
.UNSPECIFIED.,.F.,.F.,
(3,3),
(0.,1.),
.UNSPECIFIED.);
#1159=LINE('',#1561,#1562);
#1160=VERTEX_POINT('',#1564);
#1161=LINE('',#1565,#1566);
#1162=LINE('',#1568,#1569);
#1163=VERTEX_POINT('',#1571);
#1164=LINE('',#1572,#1573);
#1165=LINE('',#1575,#1576);
#1166=LINE('',#1578,#1579);
#1167=VERTEX_POINT('',#1581);
#1168=LINE('',#1582,#1583);
#1169=VERTEX_POINT('',#1585);
#1170=B_SPLINE_CURVE_WITH_KNOTS('',2,
(#1586,#1587,#1588),
.UNSPECIFIED.,.F.,.F.,
(3,3),
(0.,1.),
.UNSPECIFIED.);
#1171=LINE('',#1589,#1590);
#1172=VERTEX_POINT('',#1592);
#1173=LINE('',#1593,#1594);
#1174=B_SPLINE_CURVE_WITH_KNOTS('',2,
(#1596,#1597,#1598),
.UNSPECIFIED.,.F.,.F.,
(3,3),
(0.,1.),
.UNSPECIFIED.);
#1175=VERTEX_POINT('',#1599);
#1176=LINE('',#1600,#1601);
#1177=B_SPLINE_CURVE_WITH_KNOTS('',2,
(#1603,#1604,#1605),
.UNSPECIFIED.,.F.,.F.,
(3,3),
(0.,1.),
.UNSPECIFIED.);
#1178=VERTEX_POINT('',#1606);
#1179=LINE('',#1607,#1608);
#1180=B_SPLINE_CURVE_WITH_KNOTS('',2,
(#1610,#1611,#1612),
.UNSPECIFIED.,.F.,.F.,
(3,3),
(0.,1.),
.UNSPECIFIED.);
#1181=VERTEX_POINT('',#1613);
#1182=LINE('',#1614,#1615);
#1183=B_SPLINE_CURVE_WITH_KNOTS('',2,
(#1617,#1618,#1619),
.UNSPECIFIED.,.F.,.F.,
(3,3),
(0.,1.),
.UNSPECIFIED.);
#1184=VERTEX_POINT('',#1620);
#1185=LINE('',#1621,#1622);
#1186=B_SPLINE_CURVE_WITH_KNOTS('',2,
(#1624,#1625,#1626),
.UNSPECIFIED.,.F.,.F.,
(3,3),
(0.,1.),
.UNSPECIFIED.);
#1187=VERTEX_POINT('',#1627);
#1188=LINE('',#1628,#1629);
#1189=B_SPLINE_CURVE_WITH_KNOTS('',2,
(#1631,#1632,#1633),
.UNSPECIFIED.,.F.,.F.,
(3,3),
(0.,1.),
.UNSPECIFIED.);
#1190=VERTEX_POINT('',#1634);
#1191=LINE('',#1635,#1636);
#1192=B_SPLINE_CURVE_WITH_KNOTS('',2,
(#1638,#1639,#1640),
.UNSPECIFIED.,.F.,.F.,
(3,3),
(0.,1.),
.UNSPECIFIED.);
#1193=VERTEX_POINT('',#1641);
#1194=LINE('',#1642,#1643);
#1195=B_SPLINE_CURVE_WITH_KNOTS('',2,
(#1645,#1646,#1647),
.UNSPECIFIED.,.F.,.F.,
(3,3),
(0.,1.),
.UNSPECIFIED.);
#1196=B_SPLINE_CURVE_WITH_KNOTS('',2,
(#1648,#1649,#1650),
.UNSPECIFIED.,.F.,.F.,
(3,3),
(0.,1.),
.UNSPECIFIED.);
#1197=VERTEX_POINT('',#1651);
#1198=LINE('',#1652,#1653);
#1199=VERTEX_POINT('',#1655);
#1200=B_SPLINE_CURVE_WITH_KNOTS('',2,
(#1656,#1657,#1658),
.UNSPECIFIED.,.F.,.F.,
(3,3),
(0.,1.),
.UNSPECIFIED.);
#1201=LINE('',#1659,#1660);
#1202=VERTEX_POINT('',#1662);
#1203=B_SPLINE_CURVE_WITH_KNOTS('',2,
(#1663,#1664,#1665),
.UNSPECIFIED.,.F.,.F.,
(3,3),
(0.,1.),
.UNSPECIFIED.);
#1204=LINE('',#1666,#1667);
#1205=VERTEX_POINT('',#1669);
#1206=B_SPLINE_CURVE_WITH_KNOTS('',2,
(#1670,#1671,#1672),
.UNSPECIFIED.,.F.,.F.,
(3,3),
(0.,1.),
.UNSPECIFIED.);
#1207=LINE('',#1673,#1674);
#1208=VERTEX_POINT('',#1676);
#1209=B_SPLINE_CURVE_WITH_KNOTS('',2,
(#1677,#1678,#1679),
.UNSPECIFIED.,.F.,.F.,
(3,3),
(0.,1.),
.UNSPECIFIED.);
#1210=LINE('',#1680,#1681);
#1211=VERTEX_POINT('',#1683);
#1212=B_SPLINE_CURVE_WITH_KNOTS('',2,
(#1684,#1685,#1686),
.UNSPECIFIED.,.F.,.F.,
(3,3),
(0.,1.),
.UNSPECIFIED.);
#1213=LINE('',#1687,#1688);
#1214=VERTEX_POINT('',#1690);
#1215=B_SPLINE_CURVE_WITH_KNOTS('',2,
(#1691,#1692,#1693),
.UNSPECIFIED.,.F.,.F.,
(3,3),
(0.,1.),
.UNSPECIFIED.);
#1216=LINE('',#1694,#1695);
#1217=VERTEX_POINT('',#1697);
#1218=B_SPLINE_CURVE_WITH_KNOTS('',2,
(#1698,#1699,#1700),
.UNSPECIFIED.,.F.,.F.,
(3,3),
(0.,1.),
.UNSPECIFIED.);
#1219=LINE('',#1701,#1702);
#1220=B_SPLINE_CURVE_WITH_KNOTS('',2,
(#1704,#1705,#1706),
.UNSPECIFIED.,.F.,.F.,
(3,3),
(0.,1.),
.UNSPECIFIED.);
#1221=VERTEX_POINT('',#1707);
#1222=LINE('',#1708,#1709);
#1223=VERTEX_POINT('',#1711);
#1224=LINE('',#1712,#1713);
#1225=LINE('',#1715,#1716);
#1226=VERTEX_POINT('',#1718);
#1227=LINE('',#1719,#1720);
#1228=LINE('',#1722,#1723);
#1229=VERTEX_POINT('',#1725);
#1230=LINE('',#1726,#1727);
#1231=LINE('',#1729,#1730);
#1232=VERTEX_POINT('',#1732);
#1233=LINE('',#1733,#1734);
#1234=LINE('',#1736,#1737);
#1235=VERTEX_POINT('',#1739);
#1236=LINE('',#1740,#1741);
#1237=LINE('',#1743,#1744);
#1238=LINE('',#1746,#1747);
#1239=VERTEX_POINT('',#1749);
#1240=LINE('',#1750,#1751);
#1241=VERTEX_POINT('',#1753);
#1242=LINE('',#1754,#1755);
#1243=LINE('',#1757,#1758);
#1244=VERTEX_POINT('',#1760);
#1245=LINE('',#1761,#1762);
#1246=LINE('',#1764,#1765);
#1247=VERTEX_POINT('',#1767);
#1248=LINE('',#1768,#1769);
#1249=LINE('',#1771,#1772);
#1250=LINE('',#1774,#1775);
#1251=VERTEX_POINT('',#1777);
#1252=VERTEX_POINT('',#1778);
#1253=LINE('',#1779,#1780);
#1254=VERTEX_POINT('',#1782);
#1255=LINE('',#1783,#1784);
#1256=VERTEX_POINT('',#1786);
#1257=LINE('',#1787,#1788);
#1258=LINE('',#1790,#1791);
#1259=VERTEX_POINT('',#1793);
#1260=VERTEX_POINT('',#1794);
#1261=LINE('',#1795,#1796);
#1262=LINE('',#1798,#1799);
#1263=LINE('',#1801,#1802);
#1264=VERTEX_POINT('',#1804);
#1265=LINE('',#1805,#1806);
#1266=LINE('',#1808,#1809);
#1267=VERTEX_POINT('',#1811);
#1268=LINE('',#1812,#1813);
#1269=LINE('',#1815,#1816);
#1270=LINE('',#1818,#1819);
#1271=CARTESIAN_POINT('',(27.0210594290569,8.66428189107276,1.));
#1272=CARTESIAN_POINT('',(26.4568354848541,6.17225417814583,1.));
#1273=CARTESIAN_POINT('',(26.4568354848541,6.17225417814583,1.));
#1274=CARTESIAN_POINT('',(27.0354461412463,7.87484790795942,1.));
#1275=CARTESIAN_POINT('',(27.0210594290569,8.66428189107276,1.));
#1276=CARTESIAN_POINT('',(26.4059693380114,9.45371587418611,1.));
#1277=CARTESIAN_POINT('',(27.0210594290569,8.66428189107276,1.));
#1278=CARTESIAN_POINT('',(27.0066727168675,9.45371587418611,1.));
#1279=CARTESIAN_POINT('',(26.4059693380114,9.45371587418611,1.));
#1280=CARTESIAN_POINT('',(25.2700965311144,8.67607240428453,1.));
#1281=CARTESIAN_POINT('',(26.4059693380114,9.45371587418611,1.));
#1282=CARTESIAN_POINT('',(25.8229268754596,9.45371587418611,1.));
#1283=CARTESIAN_POINT('',(25.2700965311144,8.67607240428453,1.));
#1284=CARTESIAN_POINT('',(24.1846930223023,6.3313349123591,1.));
#1285=CARTESIAN_POINT('',(25.2700965311144,8.67607240428453,1.));
#1286=CARTESIAN_POINT('',(24.7172662190674,7.89842890208469,1.));
#1287=CARTESIAN_POINT('',(24.1846930223023,6.3313349123591,1.));
#1288=CARTESIAN_POINT('',(23.6135237565155,3.82753322293106,1.));
#1289=CARTESIAN_POINT('',(24.1846930223023,6.3313349123591,1.));
#1290=CARTESIAN_POINT('',(23.6020805142277,4.61696720604441,1.));
#1291=CARTESIAN_POINT('',(23.6135237565155,3.82753322293106,1.));
#1292=CARTESIAN_POINT('',(24.2256703776595,3.03809920751945,1.));
#1293=CARTESIAN_POINT('',(23.6135237565155,3.82753322293106,1.));
#1294=CARTESIAN_POINT('',(23.6249669988034,3.03809920751945,1.));
#1295=CARTESIAN_POINT('',(24.2256703776595,3.03809920751945,1.));
#1296=CARTESIAN_POINT('',(25.3684884738422,3.82753322293106,1.));
#1297=CARTESIAN_POINT('',(24.2256703776595,3.03809920751945,1.));
#1298=CARTESIAN_POINT('',(24.8086797344917,3.03809920751945,1.));
#1299=CARTESIAN_POINT('',(25.3684884738422,3.82753322293106,1.));
#1300=CARTESIAN_POINT('',(25.3684884738422,3.82753322293106,1.));
#1301=CARTESIAN_POINT('',(25.9282971808944,4.61696720604441,1.));
#1302=CARTESIAN_POINT('',(26.4568354848541,6.17225417814583,1.));
#1303=CARTESIAN_POINT('',(48.5,0.999999999999999,1.));
#1304=CARTESIAN_POINT('',(1.,0.999999999999999,1.));
#1305=CARTESIAN_POINT('',(1.,0.999999999999999,1.));
#1306=VECTOR('',#1307,1.);
#1307=DIRECTION('',(1.,0.,0.));
#1308=CARTESIAN_POINT('',(48.5,11.5,1.));
#1309=CARTESIAN_POINT('',(48.5,0.999999999999999,1.));
#1310=VECTOR('',#1311,1.);
#1311=DIRECTION('',(0.,1.,0.));
#1312=CARTESIAN_POINT('',(1.,11.5,1.));
#1313=CARTESIAN_POINT('',(48.5,11.5,1.));
#1314=VECTOR('',#1315,1.);
#1315=DIRECTION('',(-1.,0.,0.));
#1316=CARTESIAN_POINT('',(1.,11.5,1.));
#1317=VECTOR('',#1318,1.);
#1318=DIRECTION('',(0.,-1.,0.));
#1319=CARTESIAN_POINT('',(17.9099675074297,9.19991431471407,1.));
#1320=CARTESIAN_POINT('',(15.5734982093447,2.32478254085278,1.));
#1321=CARTESIAN_POINT('',(17.9099675074297,9.19991431471407,1.));
#1322=VECTOR('',#1323,1.);
#1323=DIRECTION('',(-0.321769963312185,-0.946817876209609,0.));
#1324=CARTESIAN_POINT('',(16.2848635764513,8.95841587418611,1.));
#1325=CARTESIAN_POINT('',(16.2848635764513,8.95841587418611,1.));
#1326=VECTOR('',#1327,1.);
#1327=DIRECTION('',(0.989137866143484,0.146990753998729,0.));
#1328=CARTESIAN_POINT('',(16.5430969097847,9.71829920751945,1.));
#1329=CARTESIAN_POINT('',(16.5430969097847,9.71829920751945,1.));
#1330=VECTOR('',#1331,1.);
#1331=DIRECTION('',(-0.321760883930677,-0.946820961730437,0.));
#1332=CARTESIAN_POINT('',(20.3859052592671,10.3130825408528,1.));
#1333=CARTESIAN_POINT('',(20.3859052592671,10.3130825408528,1.));
#1334=VECTOR('',#1335,1.);
#1335=DIRECTION('',(-0.988232845540621,-0.152956997207341,0.));
#1336=CARTESIAN_POINT('',(17.6711148760114,2.32478254085278,1.));
#1337=CARTESIAN_POINT('',(17.6711148760114,2.32478254085278,1.));
#1338=VECTOR('',#1339,1.);
#1339=DIRECTION('',(0.32177187861683,0.946817225303488,0.));
#1340=CARTESIAN_POINT('',(15.5734982093447,2.32478254085278,1.));
#1341=VECTOR('',#1342,1.);
#1342=DIRECTION('',(1.,0.,0.));
#1343=CARTESIAN_POINT('',(28.7746185582754,6.59585209884978,1.));
#1344=CARTESIAN_POINT('',(28.923413587649,9.37372903204069,1.));
#1345=CARTESIAN_POINT('',(28.7746185582754,6.59585209884978,1.));
#1346=CARTESIAN_POINT('',(29.3792906830942,8.37510885656194,1.));
#1347=CARTESIAN_POINT('',(28.923413587649,9.37372903204069,1.));
#1348=CARTESIAN_POINT('',(27.9494989026207,4.88728868108319,1.));
#1349=CARTESIAN_POINT('',(27.9494989026207,4.88728868108319,1.));
#1350=CARTESIAN_POINT('',(28.460260468705,5.67086876551645,1.));
#1351=CARTESIAN_POINT('',(28.7746185582754,6.59585209884978,1.));
#1352=CARTESIAN_POINT('',(26.7553516316967,3.49688673174314,1.));
#1353=CARTESIAN_POINT('',(26.7553516316967,3.49688673174314,1.));
#1354=CARTESIAN_POINT('',(27.4387373042381,4.10370859664994,1.));
#1355=CARTESIAN_POINT('',(27.9494989026207,4.88728868108319,1.));
#1356=CARTESIAN_POINT('',(25.1846692080554,2.48060560766186,1.));
#1357=CARTESIAN_POINT('',(25.1846692080554,2.48060560766186,1.));
#1358=CARTESIAN_POINT('',(25.9989078695849,2.83116197550602,1.));
#1359=CARTESIAN_POINT('',(26.7553516316967,3.49688673174314,1.));
#1360=CARTESIAN_POINT('',(23.5751591691449,2.13004920751945,1.));
#1361=CARTESIAN_POINT('',(23.5751591691449,2.13004920751945,1.));
#1362=CARTESIAN_POINT('',(24.3704305142277,2.13004920751945,1.));
#1363=CARTESIAN_POINT('',(25.1846692080554,2.48060560766186,1.));
#1364=CARTESIAN_POINT('',(21.7092017616527,3.09625794686992,1.));
#1365=CARTESIAN_POINT('',(21.7092017616527,3.09625794686992,1.));
#1366=CARTESIAN_POINT('',(22.1849391236222,2.13004920751945,1.));
#1367=CARTESIAN_POINT('',(23.5751591691449,2.13004920751945,1.));
#1368=CARTESIAN_POINT('',(21.8081063101129,5.75335261867379,1.));
#1369=CARTESIAN_POINT('',(21.8081063101129,5.75335261867379,1.));
#1370=CARTESIAN_POINT('',(21.233464367385,4.0624666862204,1.));
#1371=CARTESIAN_POINT('',(21.7092017616527,3.09625794686992,1.));
#1372=CARTESIAN_POINT('',(23.9732578695849,9.0909390709512,1.));
#1373=CARTESIAN_POINT('',(23.9732578695849,9.0909390709512,1.));
#1374=CARTESIAN_POINT('',(22.5068708974835,7.80952890208469,1.));
#1375=CARTESIAN_POINT('',(21.8081063101129,5.75335261867379,1.));
#1376=CARTESIAN_POINT('',(27.0655094290569,10.3723492075194,1.));
#1377=CARTESIAN_POINT('',(27.0655094290569,10.3723492075194,1.));
#1378=CARTESIAN_POINT('',(25.4396448416863,10.3723492075194,1.));
#1379=CARTESIAN_POINT('',(23.9732578695849,9.0909390709512,1.));
#1380=CARTESIAN_POINT('',(28.923413587649,9.37372903204069,1.));
#1381=CARTESIAN_POINT('',(28.4675365245021,10.3723492075194,1.));
#1382=CARTESIAN_POINT('',(27.0655094290569,10.3723492075194,1.));
#1383=CARTESIAN_POINT('',(31.717942253764,5.69888150120475,1.));
#1384=CARTESIAN_POINT('',(28.1105138587587,2.32478254085278,1.));
#1385=CARTESIAN_POINT('',(31.717942253764,5.69888150120475,1.));
#1386=VECTOR('',#1387,1.);
#1387=DIRECTION('',(-0.730331215505673,-0.683093196905083,0.));
#1388=CARTESIAN_POINT('',(31.9344375753478,5.94620079928975,1.));
#1389=CARTESIAN_POINT('',(31.9344375753478,5.94620079928975,1.));
#1390=CARTESIAN_POINT('',(31.8502670100011,5.82842812234867,1.));
#1391=CARTESIAN_POINT('',(31.717942253764,5.69888150120475,1.));
#1392=CARTESIAN_POINT('',(32.0546576208706,6.16997214437253,1.));
#1393=CARTESIAN_POINT('',(32.0546576208706,6.16997214437253,1.));
#1394=CARTESIAN_POINT('',(32.0186081406946,6.06397344393256,1.));
#1395=CARTESIAN_POINT('',(31.9344375753478,5.94620079928975,1.));
#1396=CARTESIAN_POINT('',(31.9944980041264,6.5733294219087,1.));
#1397=CARTESIAN_POINT('',(31.9944980041264,6.5733294219087,1.));
#1398=CARTESIAN_POINT('',(32.1486839365798,6.44672630296463,1.));
#1399=CARTESIAN_POINT('',(32.0546576208706,6.16997214437253,1.));
#1400=CARTESIAN_POINT('',(31.4046755870973,6.69993254085278,1.));
#1401=CARTESIAN_POINT('',(31.4046755870973,6.69993254085278,1.));
#1402=CARTESIAN_POINT('',(31.8403120393747,6.69993254085278,1.));
#1403=CARTESIAN_POINT('',(31.9944980041264,6.5733294219087,1.));
#1404=CARTESIAN_POINT('',(30.0918792258654,6.69993254085278,1.));
#1405=CARTESIAN_POINT('',(30.0918792258654,6.69993254085278,1.));
#1406=VECTOR('',#1407,1.);
#1407=DIRECTION('',(1.,0.,0.));
#1408=CARTESIAN_POINT('',(32.8452657104411,9.27591587418611,1.));
#1409=CARTESIAN_POINT('',(32.8452657104411,9.27591587418611,1.));
#1410=VECTOR('',#1411,1.);
#1411=DIRECTION('',(-0.730240360618577,-0.683190321743253,0.));
#1412=CARTESIAN_POINT('',(30.1595464123561,9.27591587418611,1.));
#1413=CARTESIAN_POINT('',(30.1595464123561,9.27591587418611,1.));
#1414=VECTOR('',#1415,1.);
#1415=DIRECTION('',(1.,0.,0.));
#1416=CARTESIAN_POINT('',(30.4739045019265,10.2008992075194,1.));
#1417=CARTESIAN_POINT('',(30.4739045019265,10.2008992075194,1.));
#1418=VECTOR('',#1419,1.);
#1419=DIRECTION('',(-0.321777721958042,-0.946815239448274,0.));
#1420=CARTESIAN_POINT('',(36.2121878352599,10.2008992075194,1.));
#1421=CARTESIAN_POINT('',(36.2121878352599,10.2008992075194,1.));
#1422=VECTOR('',#1423,1.);
#1423=DIRECTION('',(-1.,0.,0.));
#1424=CARTESIAN_POINT('',(33.3810800056014,7.50214920751945,1.));
#1425=CARTESIAN_POINT('',(33.3810800056014,7.50214920751945,1.));
#1426=VECTOR('',#1427,1.);
#1427=DIRECTION('',(0.723824163092765,0.689984478755181,0.));
#1428=CARTESIAN_POINT('',(33.4517237677132,7.50214920751945,1.));
#1429=CARTESIAN_POINT('',(33.4517237677132,7.50214920751945,1.));
#1430=VECTOR('',#1431,1.);
#1431=DIRECTION('',(-1.,0.,0.));
#1432=CARTESIAN_POINT('',(34.458645242752,7.16632682278864,1.));
#1433=CARTESIAN_POINT('',(34.458645242752,7.16632682278864,1.));
#1434=CARTESIAN_POINT('',(34.1637836766677,7.50214920751945,1.));
#1435=CARTESIAN_POINT('',(33.4517237677132,7.50214920751945,1.));
#1436=CARTESIAN_POINT('',(34.5592696091211,6.25900443805784,1.));
#1437=CARTESIAN_POINT('',(34.5592696091211,6.25900443805784,1.));
#1438=CARTESIAN_POINT('',(34.7535068411346,6.83050443805784,1.));
#1439=CARTESIAN_POINT('',(34.458645242752,7.16632682278864,1.));
#1440=CARTESIAN_POINT('',(34.2038680496491,5.63744855773943,1.));
#1441=CARTESIAN_POINT('',(34.2038680496491,5.63744855773943,1.));
#1442=CARTESIAN_POINT('',(34.4691789659534,5.99389192998327,1.));
#1443=CARTESIAN_POINT('',(34.5592696091211,6.25900443805784,1.));
#1444=CARTESIAN_POINT('',(33.5455847163158,4.90394089033524,1.));
#1445=CARTESIAN_POINT('',(33.5455847163158,4.90394089033524,1.));
#1446=CARTESIAN_POINT('',(33.9385571010466,5.28100521779385,1.));
#1447=CARTESIAN_POINT('',(34.2038680496491,5.63744855773943,1.));
#1448=CARTESIAN_POINT('',(30.8388971920921,2.32478254085278,1.));
#1449=CARTESIAN_POINT('',(30.8388971920921,2.32478254085278,1.));
#1450=VECTOR('',#1451,1.);
#1451=DIRECTION('',(0.723956148457525,0.689845993762772,0.));
#1452=CARTESIAN_POINT('',(28.1105138587587,2.32478254085278,1.));
#1453=VECTOR('',#1454,1.);
#1454=DIRECTION('',(1.,0.,0.));
#1455=CARTESIAN_POINT('',(31.717942253764,5.69888150120475,2.));
#1456=CARTESIAN_POINT('',(31.717942253764,5.69888150120475,1.));
#1457=VECTOR('',#1458,1.);
#1458=DIRECTION('',(0.,0.,1.));
#1459=CARTESIAN_POINT('',(31.9344375753478,5.94620079928975,2.));
#1460=CARTESIAN_POINT('',(31.9344375753478,5.94620079928975,2.));
#1461=CARTESIAN_POINT('',(31.8502670100011,5.82842812234867,2.));
#1462=CARTESIAN_POINT('',(31.717942253764,5.69888150120475,2.));
#1463=CARTESIAN_POINT('',(31.9344375753478,5.94620079928975,1.));
#1464=VECTOR('',#1465,1.);
#1465=DIRECTION('',(0.,0.,1.));
#1466=CARTESIAN_POINT('',(32.0546576208706,6.16997214437253,2.));
#1467=CARTESIAN_POINT('',(32.0546576208706,6.16997214437253,2.));
#1468=CARTESIAN_POINT('',(32.0186081406946,6.06397344393256,2.));
#1469=CARTESIAN_POINT('',(31.9344375753478,5.94620079928975,2.));
#1470=CARTESIAN_POINT('',(32.0546576208706,6.16997214437253,1.));
#1471=VECTOR('',#1472,1.);
#1472=DIRECTION('',(0.,0.,1.));
#1473=CARTESIAN_POINT('',(31.9944980041264,6.5733294219087,2.));
#1474=CARTESIAN_POINT('',(31.9944980041264,6.5733294219087,2.));
#1475=CARTESIAN_POINT('',(32.1486839365798,6.44672630296463,2.));
#1476=CARTESIAN_POINT('',(32.0546576208706,6.16997214437253,2.));
#1477=CARTESIAN_POINT('',(31.9944980041264,6.5733294219087,1.));
#1478=VECTOR('',#1479,1.);
#1479=DIRECTION('',(0.,0.,1.));
#1480=CARTESIAN_POINT('',(31.4046755870973,6.69993254085278,2.));
#1481=CARTESIAN_POINT('',(31.4046755870973,6.69993254085278,2.));
#1482=CARTESIAN_POINT('',(31.8403120393747,6.69993254085278,2.));
#1483=CARTESIAN_POINT('',(31.9944980041264,6.5733294219087,2.));
#1484=CARTESIAN_POINT('',(31.4046755870973,6.69993254085278,1.));
#1485=VECTOR('',#1486,1.);
#1486=DIRECTION('',(0.,0.,1.));
#1487=CARTESIAN_POINT('',(30.0918792258654,6.69993254085278,2.));
#1488=CARTESIAN_POINT('',(30.0918792258654,6.69993254085278,2.));
#1489=VECTOR('',#1490,1.);
#1490=DIRECTION('',(1.,0.,0.));
#1491=CARTESIAN_POINT('',(30.0918792258654,6.69993254085278,1.));
#1492=VECTOR('',#1493,1.);
#1493=DIRECTION('',(0.,0.,1.));
#1494=CARTESIAN_POINT('',(32.8452657104411,9.27591587418611,2.));
#1495=CARTESIAN_POINT('',(32.8452657104411,9.27591587418611,2.));
#1496=VECTOR('',#1497,1.);
#1497=DIRECTION('',(-0.730240360618577,-0.683190321743253,0.));
#1498=CARTESIAN_POINT('',(32.8452657104411,9.27591587418611,1.));
#1499=VECTOR('',#1500,1.);
#1500=DIRECTION('',(0.,0.,1.));
#1501=CARTESIAN_POINT('',(30.1595464123561,9.27591587418611,2.));
#1502=CARTESIAN_POINT('',(30.1595464123561,9.27591587418611,2.));
#1503=VECTOR('',#1504,1.);
#1504=DIRECTION('',(1.,0.,0.));
#1505=CARTESIAN_POINT('',(30.1595464123561,9.27591587418611,1.));
#1506=VECTOR('',#1507,1.);
#1507=DIRECTION('',(0.,0.,1.));
#1508=CARTESIAN_POINT('',(30.4739045019265,10.2008992075194,2.));
#1509=CARTESIAN_POINT('',(30.4739045019265,10.2008992075194,2.));
#1510=VECTOR('',#1511,1.);
#1511=DIRECTION('',(-0.321777721958042,-0.946815239448274,0.));
#1512=CARTESIAN_POINT('',(30.4739045019265,10.2008992075194,1.));
#1513=VECTOR('',#1514,1.);
#1514=DIRECTION('',(0.,0.,1.));
#1515=CARTESIAN_POINT('',(36.2121878352599,10.2008992075194,2.));
#1516=CARTESIAN_POINT('',(36.2121878352599,10.2008992075194,2.));
#1517=VECTOR('',#1518,1.);
#1518=DIRECTION('',(-1.,0.,0.));
#1519=CARTESIAN_POINT('',(36.2121878352599,10.2008992075194,1.));
#1520=VECTOR('',#1521,1.);
#1521=DIRECTION('',(0.,0.,1.));
#1522=CARTESIAN_POINT('',(33.3810800056014,7.50214920751945,2.));
#1523=CARTESIAN_POINT('',(33.3810800056014,7.50214920751945,2.));
#1524=VECTOR('',#1525,1.);
#1525=DIRECTION('',(0.723824163092765,0.689984478755181,0.));
#1526=CARTESIAN_POINT('',(33.3810800056014,7.50214920751945,1.));
#1527=VECTOR('',#1528,1.);
#1528=DIRECTION('',(0.,0.,1.));
#1529=CARTESIAN_POINT('',(33.4517237677132,7.50214920751945,2.));
#1530=CARTESIAN_POINT('',(33.4517237677132,7.50214920751945,2.));
#1531=VECTOR('',#1532,1.);
#1532=DIRECTION('',(-1.,0.,0.));
#1533=CARTESIAN_POINT('',(33.4517237677132,7.50214920751945,1.));
#1534=VECTOR('',#1535,1.);
#1535=DIRECTION('',(0.,0.,1.));
#1536=CARTESIAN_POINT('',(34.458645242752,7.16632682278864,2.));
#1537=CARTESIAN_POINT('',(34.458645242752,7.16632682278864,2.));
#1538=CARTESIAN_POINT('',(34.1637836766677,7.50214920751945,2.));
#1539=CARTESIAN_POINT('',(33.4517237677132,7.50214920751945,2.));
#1540=CARTESIAN_POINT('',(34.458645242752,7.16632682278864,1.));
#1541=VECTOR('',#1542,1.);
#1542=DIRECTION('',(0.,0.,1.));
#1543=CARTESIAN_POINT('',(34.5592696091211,6.25900443805784,2.));
#1544=CARTESIAN_POINT('',(34.5592696091211,6.25900443805784,2.));
#1545=CARTESIAN_POINT('',(34.7535068411346,6.83050443805784,2.));
#1546=CARTESIAN_POINT('',(34.458645242752,7.16632682278864,2.));
#1547=CARTESIAN_POINT('',(34.5592696091211,6.25900443805784,1.));
#1548=VECTOR('',#1549,1.);
#1549=DIRECTION('',(0.,0.,1.));
#1550=CARTESIAN_POINT('',(34.2038680496491,5.63744855773943,2.));
#1551=CARTESIAN_POINT('',(34.2038680496491,5.63744855773943,2.));
#1552=CARTESIAN_POINT('',(34.4691789659534,5.99389192998327,2.));
#1553=CARTESIAN_POINT('',(34.5592696091211,6.25900443805784,2.));
#1554=CARTESIAN_POINT('',(34.2038680496491,5.63744855773943,1.));
#1555=VECTOR('',#1556,1.);
#1556=DIRECTION('',(0.,0.,1.));
#1557=CARTESIAN_POINT('',(33.5455847163158,4.90394089033524,2.));
#1558=CARTESIAN_POINT('',(33.5455847163158,4.90394089033524,2.));
#1559=CARTESIAN_POINT('',(33.9385571010466,5.28100521779385,2.));
#1560=CARTESIAN_POINT('',(34.2038680496491,5.63744855773943,2.));
#1561=CARTESIAN_POINT('',(33.5455847163158,4.90394089033524,1.));
#1562=VECTOR('',#1563,1.);
#1563=DIRECTION('',(0.,0.,1.));
#1564=CARTESIAN_POINT('',(30.8388971920921,2.32478254085278,2.));
#1565=CARTESIAN_POINT('',(30.8388971920921,2.32478254085278,2.));
#1566=VECTOR('',#1567,1.);
#1567=DIRECTION('',(0.723956148457525,0.689845993762772,0.));
#1568=CARTESIAN_POINT('',(30.8388971920921,2.32478254085278,1.));
#1569=VECTOR('',#1570,1.);
#1570=DIRECTION('',(0.,0.,1.));
#1571=CARTESIAN_POINT('',(28.1105138587587,2.32478254085278,2.));
#1572=CARTESIAN_POINT('',(28.1105138587587,2.32478254085278,2.));
#1573=VECTOR('',#1574,1.);
#1574=DIRECTION('',(1.,0.,0.));
#1575=CARTESIAN_POINT('',(28.1105138587587,2.32478254085278,1.));
#1576=VECTOR('',#1577,1.);
#1577=DIRECTION('',(0.,0.,1.));
#1578=CARTESIAN_POINT('',(31.717942253764,5.69888150120475,2.));
#1579=VECTOR('',#1580,1.);
#1580=DIRECTION('',(-0.730331215505673,-0.683093196905083,0.));
#1581=CARTESIAN_POINT('',(27.0655094290569,10.3723492075194,2.));
#1582=CARTESIAN_POINT('',(27.0655094290569,10.3723492075194,1.));
#1583=VECTOR('',#1584,1.);
#1584=DIRECTION('',(0.,0.,1.));
#1585=CARTESIAN_POINT('',(28.923413587649,9.37372903204069,2.));
#1586=CARTESIAN_POINT('',(28.923413587649,9.37372903204069,2.));
#1587=CARTESIAN_POINT('',(28.4675365245021,10.3723492075194,2.));
#1588=CARTESIAN_POINT('',(27.0655094290569,10.3723492075194,2.));
#1589=CARTESIAN_POINT('',(28.923413587649,9.37372903204069,1.));
#1590=VECTOR('',#1591,1.);
#1591=DIRECTION('',(0.,0.,1.));
#1592=CARTESIAN_POINT('',(23.9732578695849,9.0909390709512,2.));
#1593=CARTESIAN_POINT('',(23.9732578695849,9.0909390709512,1.));
#1594=VECTOR('',#1595,1.);
#1595=DIRECTION('',(0.,0.,1.));
#1596=CARTESIAN_POINT('',(27.0655094290569,10.3723492075194,2.));
#1597=CARTESIAN_POINT('',(25.4396448416863,10.3723492075194,2.));
#1598=CARTESIAN_POINT('',(23.9732578695849,9.0909390709512,2.));
#1599=CARTESIAN_POINT('',(21.8081063101129,5.75335261867379,2.));
#1600=CARTESIAN_POINT('',(21.8081063101129,5.75335261867379,1.));
#1601=VECTOR('',#1602,1.);
#1602=DIRECTION('',(0.,0.,1.));
#1603=CARTESIAN_POINT('',(23.9732578695849,9.0909390709512,2.));
#1604=CARTESIAN_POINT('',(22.5068708974835,7.80952890208469,2.));
#1605=CARTESIAN_POINT('',(21.8081063101129,5.75335261867379,2.));
#1606=CARTESIAN_POINT('',(21.7092017616527,3.09625794686992,2.));
#1607=CARTESIAN_POINT('',(21.7092017616527,3.09625794686992,1.));
#1608=VECTOR('',#1609,1.);
#1609=DIRECTION('',(0.,0.,1.));
#1610=CARTESIAN_POINT('',(21.8081063101129,5.75335261867379,2.));
#1611=CARTESIAN_POINT('',(21.233464367385,4.0624666862204,2.));
#1612=CARTESIAN_POINT('',(21.7092017616527,3.09625794686992,2.));
#1613=CARTESIAN_POINT('',(23.5751591691449,2.13004920751945,2.));
#1614=CARTESIAN_POINT('',(23.5751591691449,2.13004920751945,1.));
#1615=VECTOR('',#1616,1.);
#1616=DIRECTION('',(0.,0.,1.));
#1617=CARTESIAN_POINT('',(21.7092017616527,3.09625794686992,2.));
#1618=CARTESIAN_POINT('',(22.1849391236222,2.13004920751945,2.));
#1619=CARTESIAN_POINT('',(23.5751591691449,2.13004920751945,2.));
#1620=CARTESIAN_POINT('',(25.1846692080554,2.48060560766186,2.));
#1621=CARTESIAN_POINT('',(25.1846692080554,2.48060560766186,1.));
#1622=VECTOR('',#1623,1.);
#1623=DIRECTION('',(0.,0.,1.));
#1624=CARTESIAN_POINT('',(23.5751591691449,2.13004920751945,2.));
#1625=CARTESIAN_POINT('',(24.3704305142277,2.13004920751945,2.));
#1626=CARTESIAN_POINT('',(25.1846692080554,2.48060560766186,2.));
#1627=CARTESIAN_POINT('',(26.7553516316967,3.49688673174314,2.));
#1628=CARTESIAN_POINT('',(26.7553516316967,3.49688673174314,1.));
#1629=VECTOR('',#1630,1.);
#1630=DIRECTION('',(0.,0.,1.));
#1631=CARTESIAN_POINT('',(25.1846692080554,2.48060560766186,2.));
#1632=CARTESIAN_POINT('',(25.9989078695849,2.83116197550602,2.));
#1633=CARTESIAN_POINT('',(26.7553516316967,3.49688673174314,2.));
#1634=CARTESIAN_POINT('',(27.9494989026207,4.88728868108319,2.));
#1635=CARTESIAN_POINT('',(27.9494989026207,4.88728868108319,1.));
#1636=VECTOR('',#1637,1.);
#1637=DIRECTION('',(0.,0.,1.));
#1638=CARTESIAN_POINT('',(26.7553516316967,3.49688673174314,2.));
#1639=CARTESIAN_POINT('',(27.4387373042381,4.10370859664994,2.));
#1640=CARTESIAN_POINT('',(27.9494989026207,4.88728868108319,2.));
#1641=CARTESIAN_POINT('',(28.7746185582754,6.59585209884978,2.));
#1642=CARTESIAN_POINT('',(28.7746185582754,6.59585209884978,1.));
#1643=VECTOR('',#1644,1.);
#1644=DIRECTION('',(0.,0.,1.));
#1645=CARTESIAN_POINT('',(27.9494989026207,4.88728868108319,2.));
#1646=CARTESIAN_POINT('',(28.460260468705,5.67086876551645,2.));
#1647=CARTESIAN_POINT('',(28.7746185582754,6.59585209884978,2.));
#1648=CARTESIAN_POINT('',(28.7746185582754,6.59585209884978,2.));
#1649=CARTESIAN_POINT('',(29.3792906830942,8.37510885656194,2.));
#1650=CARTESIAN_POINT('',(28.923413587649,9.37372903204069,2.));
#1651=CARTESIAN_POINT('',(27.0210594290569,8.66428189107276,2.));
#1652=CARTESIAN_POINT('',(27.0210594290569,8.66428189107276,1.));
#1653=VECTOR('',#1654,1.);
#1654=DIRECTION('',(0.,0.,1.));
#1655=CARTESIAN_POINT('',(26.4059693380114,9.45371587418611,2.));
#1656=CARTESIAN_POINT('',(27.0210594290569,8.66428189107276,2.));
#1657=CARTESIAN_POINT('',(27.0066727168675,9.45371587418611,2.));
#1658=CARTESIAN_POINT('',(26.4059693380114,9.45371587418611,2.));
#1659=CARTESIAN_POINT('',(26.4059693380114,9.45371587418611,1.));
#1660=VECTOR('',#1661,1.);
#1661=DIRECTION('',(0.,0.,1.));
#1662=CARTESIAN_POINT('',(25.2700965311144,8.67607240428453,2.));
#1663=CARTESIAN_POINT('',(26.4059693380114,9.45371587418611,2.));
#1664=CARTESIAN_POINT('',(25.8229268754596,9.45371587418611,2.));
#1665=CARTESIAN_POINT('',(25.2700965311144,8.67607240428453,2.));
#1666=CARTESIAN_POINT('',(25.2700965311144,8.67607240428453,1.));
#1667=VECTOR('',#1668,1.);
#1668=DIRECTION('',(0.,0.,1.));
#1669=CARTESIAN_POINT('',(24.1846930223023,6.3313349123591,2.));
#1670=CARTESIAN_POINT('',(25.2700965311144,8.67607240428453,2.));
#1671=CARTESIAN_POINT('',(24.7172662190674,7.89842890208469,2.));
#1672=CARTESIAN_POINT('',(24.1846930223023,6.3313349123591,2.));
#1673=CARTESIAN_POINT('',(24.1846930223023,6.3313349123591,1.));
#1674=VECTOR('',#1675,1.);
#1675=DIRECTION('',(0.,0.,1.));
#1676=CARTESIAN_POINT('',(23.6135237565155,3.82753322293106,2.));
#1677=CARTESIAN_POINT('',(24.1846930223023,6.3313349123591,2.));
#1678=CARTESIAN_POINT('',(23.6020805142277,4.61696720604441,2.));
#1679=CARTESIAN_POINT('',(23.6135237565155,3.82753322293106,2.));
#1680=CARTESIAN_POINT('',(23.6135237565155,3.82753322293106,1.));
#1681=VECTOR('',#1682,1.);
#1682=DIRECTION('',(0.,0.,1.));
#1683=CARTESIAN_POINT('',(24.2256703776595,3.03809920751945,2.));
#1684=CARTESIAN_POINT('',(23.6135237565155,3.82753322293106,2.));
#1685=CARTESIAN_POINT('',(23.6249669988034,3.03809920751945,2.));
#1686=CARTESIAN_POINT('',(24.2256703776595,3.03809920751945,2.));
#1687=CARTESIAN_POINT('',(24.2256703776595,3.03809920751945,1.));
#1688=VECTOR('',#1689,1.);
#1689=DIRECTION('',(0.,0.,1.));
#1690=CARTESIAN_POINT('',(25.3684884738422,3.82753322293106,2.));
#1691=CARTESIAN_POINT('',(24.2256703776595,3.03809920751945,2.));
#1692=CARTESIAN_POINT('',(24.8086797344917,3.03809920751945,2.));
#1693=CARTESIAN_POINT('',(25.3684884738422,3.82753322293106,2.));
#1694=CARTESIAN_POINT('',(25.3684884738422,3.82753322293106,1.));
#1695=VECTOR('',#1696,1.);
#1696=DIRECTION('',(0.,0.,1.));
#1697=CARTESIAN_POINT('',(26.4568354848541,6.17225417814583,2.));
#1698=CARTESIAN_POINT('',(25.3684884738422,3.82753322293106,2.));
#1699=CARTESIAN_POINT('',(25.9282971808944,4.61696720604441,2.));
#1700=CARTESIAN_POINT('',(26.4568354848541,6.17225417814583,2.));
#1701=CARTESIAN_POINT('',(26.4568354848541,6.17225417814583,1.));
#1702=VECTOR('',#1703,1.);
#1703=DIRECTION('',(0.,0.,1.));
#1704=CARTESIAN_POINT('',(26.4568354848541,6.17225417814583,2.));
#1705=CARTESIAN_POINT('',(27.0354461412463,7.87484790795942,2.));
#1706=CARTESIAN_POINT('',(27.0210594290569,8.66428189107276,2.));
#1707=CARTESIAN_POINT('',(17.9099675074297,9.19991431471407,2.));
#1708=CARTESIAN_POINT('',(17.9099675074297,9.19991431471407,1.));
#1709=VECTOR('',#1710,1.);
#1710=DIRECTION('',(0.,0.,1.));
#1711=CARTESIAN_POINT('',(16.2848635764513,8.95841587418611,2.));
#1712=CARTESIAN_POINT('',(16.2848635764513,8.95841587418611,2.));
#1713=VECTOR('',#1714,1.);
#1714=DIRECTION('',(0.989137866143484,0.146990753998729,0.));
#1715=CARTESIAN_POINT('',(16.2848635764513,8.95841587418611,1.));
#1716=VECTOR('',#1717,1.);
#1717=DIRECTION('',(0.,0.,1.));
#1718=CARTESIAN_POINT('',(16.5430969097847,9.71829920751945,2.));
#1719=CARTESIAN_POINT('',(16.5430969097847,9.71829920751945,2.));
#1720=VECTOR('',#1721,1.);
#1721=DIRECTION('',(-0.321760883930677,-0.946820961730437,0.));
#1722=CARTESIAN_POINT('',(16.5430969097847,9.71829920751945,1.));
#1723=VECTOR('',#1724,1.);
#1724=DIRECTION('',(0.,0.,1.));
#1725=CARTESIAN_POINT('',(20.3859052592671,10.3130825408528,2.));
#1726=CARTESIAN_POINT('',(20.3859052592671,10.3130825408528,2.));
#1727=VECTOR('',#1728,1.);
#1728=DIRECTION('',(-0.988232845540621,-0.152956997207341,0.));
#1729=CARTESIAN_POINT('',(20.3859052592671,10.3130825408528,1.));
#1730=VECTOR('',#1731,1.);
#1731=DIRECTION('',(0.,0.,1.));
#1732=CARTESIAN_POINT('',(17.6711148760114,2.32478254085278,2.));
#1733=CARTESIAN_POINT('',(17.6711148760114,2.32478254085278,2.));
#1734=VECTOR('',#1735,1.);
#1735=DIRECTION('',(0.32177187861683,0.946817225303488,0.));
#1736=CARTESIAN_POINT('',(17.6711148760114,2.32478254085278,1.));
#1737=VECTOR('',#1738,1.);
#1738=DIRECTION('',(0.,0.,1.));
#1739=CARTESIAN_POINT('',(15.5734982093447,2.32478254085278,2.));
#1740=CARTESIAN_POINT('',(15.5734982093447,2.32478254085278,2.));
#1741=VECTOR('',#1742,1.);
#1742=DIRECTION('',(1.,0.,0.));
#1743=CARTESIAN_POINT('',(15.5734982093447,2.32478254085278,1.));
#1744=VECTOR('',#1745,1.);
#1745=DIRECTION('',(0.,0.,1.));
#1746=CARTESIAN_POINT('',(17.9099675074297,9.19991431471407,2.));
#1747=VECTOR('',#1748,1.);
#1748=DIRECTION('',(-0.321769963312185,-0.946817876209609,0.));
#1749=CARTESIAN_POINT('',(1.,0.999999999999999,2.));
#1750=CARTESIAN_POINT('',(1.,0.999999999999999,1.));
#1751=VECTOR('',#1752,1.);
#1752=DIRECTION('',(0.,0.,1.));
#1753=CARTESIAN_POINT('',(48.5,0.999999999999999,2.));
#1754=CARTESIAN_POINT('',(1.,0.999999999999999,2.));
#1755=VECTOR('',#1756,1.);
#1756=DIRECTION('',(1.,0.,0.));
#1757=CARTESIAN_POINT('',(48.5,0.999999999999999,1.));
#1758=VECTOR('',#1759,1.);
#1759=DIRECTION('',(0.,0.,1.));
#1760=CARTESIAN_POINT('',(48.5,11.5,2.));
#1761=CARTESIAN_POINT('',(48.5,0.999999999999999,2.));
#1762=VECTOR('',#1763,1.);
#1763=DIRECTION('',(0.,1.,0.));
#1764=CARTESIAN_POINT('',(48.5,11.5,1.));
#1765=VECTOR('',#1766,1.);
#1766=DIRECTION('',(0.,0.,1.));
#1767=CARTESIAN_POINT('',(1.,11.5,2.));
#1768=CARTESIAN_POINT('',(48.5,11.5,2.));
#1769=VECTOR('',#1770,1.);
#1770=DIRECTION('',(-1.,0.,0.));
#1771=CARTESIAN_POINT('',(1.,11.5,1.));
#1772=VECTOR('',#1773,1.);
#1773=DIRECTION('',(0.,0.,1.));
#1774=CARTESIAN_POINT('',(1.,11.5,2.));
#1775=VECTOR('',#1776,1.);
#1776=DIRECTION('',(0.,-1.,0.));
#1777=CARTESIAN_POINT('',(0.,12.5,2.));
#1778=CARTESIAN_POINT('',(0.,0.,2.));
#1779=CARTESIAN_POINT('',(-4.08551437129934E-34,12.5,2.));
#1780=VECTOR('',#1781,1.);
#1781=DIRECTION('',(3.26841149703947E-35,-1.,0.));
#1782=CARTESIAN_POINT('',(49.5,0.,2.));
#1783=CARTESIAN_POINT('',(0.,0.,2.));
#1784=VECTOR('',#1785,1.);
#1785=DIRECTION('',(1.,0.,0.));
#1786=CARTESIAN_POINT('',(49.5,12.5,2.));
#1787=CARTESIAN_POINT('',(49.5,0.,2.));
#1788=VECTOR('',#1789,1.);
#1789=DIRECTION('',(0.,1.,0.));
#1790=CARTESIAN_POINT('',(49.5,12.5,2.));
#1791=VECTOR('',#1792,1.);
#1792=DIRECTION('',(-1.,-3.58859967555606E-17,0.));
#1793=CARTESIAN_POINT('',(-8.17102874259867E-34,12.5,0.));
#1794=CARTESIAN_POINT('',(0.,0.,0.));
#1795=CARTESIAN_POINT('',(-8.17102874259867E-34,12.5,0.));
#1796=VECTOR('',#1797,1.);
#1797=DIRECTION('',(6.53682299407893E-35,-1.,0.));
#1798=CARTESIAN_POINT('',(0.,0.,0.));
#1799=VECTOR('',#1800,1.);
#1800=DIRECTION('',(0.,0.,1.));
#1801=CARTESIAN_POINT('',(-4.08551437129933E-34,12.5,0.));
#1802=VECTOR('',#1803,1.);
#1803=DIRECTION('',(-4.27642353614751E-50,0.,1.));
#1804=CARTESIAN_POINT('',(49.5,-8.88178419700125E-16,0.));
#1805=CARTESIAN_POINT('',(0.,0.,0.));
#1806=VECTOR('',#1807,1.);
#1807=DIRECTION('',(1.,0.,0.));
#1808=CARTESIAN_POINT('',(49.5,-8.88178419700125E-16,0.));
#1809=VECTOR('',#1810,1.);
#1810=DIRECTION('',(0.,4.44089209850063E-16,1.));
#1811=CARTESIAN_POINT('',(49.5,12.5,0.));
#1812=CARTESIAN_POINT('',(49.5,-1.77635683940025E-15,0.));
#1813=VECTOR('',#1814,1.);
#1814=DIRECTION('',(0.,1.,0.));
#1815=CARTESIAN_POINT('',(49.5,12.5,0.));
#1816=VECTOR('',#1817,1.);
#1817=DIRECTION('',(0.,0.,1.));
#1818=CARTESIAN_POINT('',(49.5,12.5,0.));
#1819=VECTOR('',#1820,1.);
#1820=DIRECTION('',(-1.,-3.58859967555606E-17,0.));
ENDSEC;
END-ISO-10303-21;
