ISO-10303-21;
HEADER;
FILE_DESCRIPTION(('STEP AP242'),
    '1');
FILE_NAME('NumberTablet_104',
    '',
    ('UNSPECIFIED'),
    ('UNSPECIFIED'),
    'C3D Converter',
    'C3D Toolkit',
    '');
FILE_SCHEMA(('AP242_MANAGED_MODEL_BASED_3D_ENGINEERING_MIM_LF { 1 0 10303 442 1 1 4 }'));
ENDSEC;

DATA;
#1=PRODUCT_DEFINITION('','UNSPECIFIED',#28,#31);
#2=SHAPE_DEFINITION_REPRESENTATION(#26,#3);
#3=SHAPE_REPRESENTATION('NONE',(#4),#8);
#4=AXIS2_PLACEMENT_3D('',#5,#6,#7);
#5=CARTESIAN_POINT('',(0.,0.,0.));
#6=DIRECTION('',(0.,0.,1.));
#7=DIRECTION('',(1.,0.,0.));
#8=(GEOMETRIC_REPRESENTATION_CONTEXT(3)GLOBAL_UNCERTAINTY_ASSIGNED_CONTEXT((#10))
GLOBAL_UNIT_ASSIGNED_CONTEXT((#9,#11,#12))REPRESENTATION_CONTEXT('NONE','NONE'));
#9=(LENGTH_UNIT()NAMED_UNIT(*)SI_UNIT(.MILLI.,.METRE.));
#10=UNCERTAINTY_MEASURE_WITH_UNIT(LENGTH_MEASURE(1.E-5),#9,'NONE','NONE');
#11=(NAMED_UNIT(*)PLANE_ANGLE_UNIT()SI_UNIT($,.RADIAN.));
#12=(NAMED_UNIT(*)SI_UNIT($,.STERADIAN.)SOLID_ANGLE_UNIT());
#13=MANIFOLD_SOLID_BREP('',#14);
#14=CLOSED_SHELL('',(#53,#54,#55,#56,#57,#58,#59,#60,#61,#62,#63,#64,#65,#66,#67,
#68,#69,#70,#71,#72,#73,#74,#75,#76,#77,#78,#79,#80,#81,#82,#83,#84,#85,#86,#87,
#88,#89,#90,#91,#92,#93,#94,#95,#96,#97,#98,#99,#100,#101,#102,#103,#104,#105,#106));
#15=COLOUR_RGB('',0.564705882352941,0.564705882352941,0.564705882352941);
#16=FILL_AREA_STYLE_COLOUR('',#15);
#17=FILL_AREA_STYLE($,(#16));
#18=SURFACE_STYLE_FILL_AREA(#17);
#19=SURFACE_SIDE_STYLE('',(#18));
#20=SURFACE_STYLE_USAGE(.BOTH.,#19);
#21=PRESENTATION_STYLE_ASSIGNMENT((#20));
#22=MECHANICAL_DESIGN_GEOMETRIC_PRESENTATION_REPRESENTATION('NONE',(#23),#8);
#23=STYLED_ITEM('',(#21),#13);
#24=ADVANCED_BREP_SHAPE_REPRESENTATION('NONE',(#13),#8);
#25=SHAPE_REPRESENTATION_RELATIONSHIP('','',#3,#24);
#26=PRODUCT_DEFINITION_SHAPE('NONE','NONE',#1);
#27=MECHANICAL_CONTEXT('NONE',#32,'mechanical');
#28=PRODUCT_DEFINITION_FORMATION_WITH_SPECIFIED_SOURCE('ANY','UNSPECIFIED',#29,.NOT_KNOWN.);
#29=PRODUCT('','\X2\0414043504420430043B044C\X0\','NONE',(#27));
#30=PRODUCT_RELATED_PRODUCT_CATEGORY('detail','',(#29));
#31=DESIGN_CONTEXT('detailed design',#32,'design');
#32=APPLICATION_CONTEXT('configuration controlled 3d designs of mechanical parts and assemblies');
#33=APPLICATION_PROTOCOL_DEFINITION('international standard','config_control_design',
1994,#32);
#34=CC_DESIGN_DATE_AND_TIME_ASSIGNMENT(#35,#39,(#1));
#35=DATE_AND_TIME(#36,#37);
#36=CALENDAR_DATE(0,1,1);
#37=LOCAL_TIME(0,0,0.,#38);
#38=COORDINATED_UNIVERSAL_TIME_OFFSET(0,0,.AHEAD.);
#39=DATE_TIME_ROLE('creation_date');
#40=CC_DESIGN_APPROVAL(#41,(#1));
#41=APPROVAL(#42,'UNSPECIFIED');
#42=APPROVAL_STATUS('not_yet_approved');
#43=APPROVAL_DATE_TIME(#44,#41);
#44=DATE_AND_TIME(#45,#46);
#45=CALENDAR_DATE(0,1,1);
#46=LOCAL_TIME(0,0,0.,#47);
#47=COORDINATED_UNIVERSAL_TIME_OFFSET(0,0,.AHEAD.);
#48=PERSON('UNSPECIFIED','Cybermeatball','UNSPECIFIED',('UNSPECIFIED'),('UNSPECIFIED'),
('UNSPECIFIED'));
#49=ORGANIZATION('UNSPECIFIED','UNSPECIFIED','UNSPECIFIED');
#50=PERSON_AND_ORGANIZATION(#48,#49);
#51=PERSON_AND_ORGANIZATION_ROLE('creator');
#52=CC_DESIGN_PERSON_AND_ORGANIZATION_ASSIGNMENT(#50,#51,(#28,#1));
#53=ADVANCED_FACE('',(#107),#109,.T.);
#54=ADVANCED_FACE('',(#114),#116,.T.);
#55=ADVANCED_FACE('',(#121,#123,#125,#127),#129,.T.);
#56=ADVANCED_FACE('',(#134),#136,.T.);
#57=ADVANCED_FACE('',(#141),#143,.T.);
#58=ADVANCED_FACE('',(#148),#150,.T.);
#59=ADVANCED_FACE('',(#155),#157,.T.);
#60=ADVANCED_FACE('',(#162),#164,.T.);
#61=ADVANCED_FACE('',(#169),#171,.T.);
#62=ADVANCED_FACE('',(#176),#178,.T.);
#63=ADVANCED_FACE('',(#183),#185,.T.);
#64=ADVANCED_FACE('',(#190),#192,.T.);
#65=ADVANCED_FACE('',(#197),#199,.T.);
#66=ADVANCED_FACE('',(#204),#206,.T.);
#67=ADVANCED_FACE('',(#211),#213,.F.);
#68=ADVANCED_FACE('',(#218),#220,.F.);
#69=ADVANCED_FACE('',(#225),#227,.F.);
#70=ADVANCED_FACE('',(#232),#234,.T.);
#71=ADVANCED_FACE('',(#238),#240,.T.);
#72=ADVANCED_FACE('',(#244),#246,.T.);
#73=ADVANCED_FACE('',(#250),#252,.T.);
#74=ADVANCED_FACE('',(#256),#258,.T.);
#75=ADVANCED_FACE('',(#262),#264,.T.);
#76=ADVANCED_FACE('',(#268),#270,.T.);
#77=ADVANCED_FACE('',(#274),#276,.T.);
#78=ADVANCED_FACE('',(#280),#282,.T.);
#79=ADVANCED_FACE('',(#286),#288,.T.);
#80=ADVANCED_FACE('',(#292),#294,.F.);
#81=ADVANCED_FACE('',(#298),#300,.F.);
#82=ADVANCED_FACE('',(#304),#306,.F.);
#83=ADVANCED_FACE('',(#310),#312,.F.);
#84=ADVANCED_FACE('',(#316),#318,.F.);
#85=ADVANCED_FACE('',(#322),#324,.F.);
#86=ADVANCED_FACE('',(#328),#330,.F.);
#87=ADVANCED_FACE('',(#334),#336,.F.);
#88=ADVANCED_FACE('',(#340),#342,.T.);
#89=ADVANCED_FACE('',(#347),#349,.T.);
#90=ADVANCED_FACE('',(#354),#356,.T.);
#91=ADVANCED_FACE('',(#361),#363,.T.);
#92=ADVANCED_FACE('',(#368),#370,.T.);
#93=ADVANCED_FACE('',(#375),#377,.T.);
#94=ADVANCED_FACE('',(#382),#384,.F.);
#95=ADVANCED_FACE('',(#389),#391,.F.);
#96=ADVANCED_FACE('',(#396),#398,.F.);
#97=ADVANCED_FACE('',(#403),#405,.F.);
#98=ADVANCED_FACE('',(#410,#412),#414,.T.);
#99=ADVANCED_FACE('',(#419,#421),#423,.T.);
#100=ADVANCED_FACE('',(#428),#430,.T.);
#101=ADVANCED_FACE('',(#435,#437),#439,.T.);
#102=ADVANCED_FACE('',(#444),#446,.T.);
#103=ADVANCED_FACE('',(#451),#453,.T.);
#104=ADVANCED_FACE('',(#458),#460,.T.);
#105=ADVANCED_FACE('',(#465),#467,.T.);
#106=ADVANCED_FACE('',(#472),#474,.F.);
#107=FACE_BOUND('',#108,.T.);
#108=EDGE_LOOP('',(#479,#480,#481,#482,#483,#484,#485,#486));
#109=PLANE('',#110);
#110=AXIS2_PLACEMENT_3D('',#111,#112,#113);
#111=CARTESIAN_POINT('',(0.,0.,1.));
#112=DIRECTION('',(0.,0.,1.));
#113=DIRECTION('',(1.,0.,0.));
#114=FACE_BOUND('',#115,.T.);
#115=EDGE_LOOP('',(#487,#488,#489));
#116=PLANE('',#117);
#117=AXIS2_PLACEMENT_3D('',#118,#119,#120);
#118=CARTESIAN_POINT('',(0.,0.,1.));
#119=DIRECTION('',(0.,0.,1.));
#120=DIRECTION('',(1.,0.,0.));
#121=FACE_BOUND('',#122,.T.);
#122=EDGE_LOOP('',(#490,#491,#492,#493));
#123=FACE_BOUND('',#124,.T.);
#124=EDGE_LOOP('',(#494,#495,#496,#497,#498,#499));
#125=FACE_BOUND('',#126,.T.);
#126=EDGE_LOOP('',(#500,#501,#502,#503,#504,#505,#506,#507,#508,#509));
#127=FACE_BOUND('',#128,.T.);
#128=EDGE_LOOP('',(#510,#511,#512,#513,#514,#515,#516,#517,#518,#519,#520));
#129=PLANE('',#130);
#130=AXIS2_PLACEMENT_3D('',#131,#132,#133);
#131=CARTESIAN_POINT('',(0.,0.,1.));
#132=DIRECTION('',(0.,0.,1.));
#133=DIRECTION('',(1.,0.,0.));
#134=FACE_BOUND('',#135,.T.);
#135=EDGE_LOOP('',(#521,#522,#523,#524));
#136=PLANE('',#137);
#137=AXIS2_PLACEMENT_3D('',#138,#139,#140);
#138=CARTESIAN_POINT('',(33.7447502685584,10.2008992075194,1.));
#139=DIRECTION('',(-0.692966317853975,0.720969959374109,0.));
#140=DIRECTION('',(-0.720969959374109,-0.692966317853975,0.));
#141=FACE_BOUND('',#142,.T.);
#142=EDGE_LOOP('',(#525,#526,#527,#528));
#143=PLANE('',#144);
#144=AXIS2_PLACEMENT_3D('',#145,#146,#147);
#145=CARTESIAN_POINT('',(28.4000015681185,5.06374920751945,1.));
#146=DIRECTION('',(-0.946815571695396,0.321776744335448,0.));
#147=DIRECTION('',(-0.321776744335448,-0.946815571695396,0.));
#148=FACE_BOUND('',#149,.T.);
#149=EDGE_LOOP('',(#529,#530,#531,#532));
#150=PLANE('',#151);
#151=AXIS2_PLACEMENT_3D('',#152,#153,#154);
#152=CARTESIAN_POINT('',(28.0396059866226,4.00329920751945,1.));
#153=DIRECTION('',(0.,-1.,0.));
#154=DIRECTION('',(1.,0.,0.));
#155=FACE_BOUND('',#156,.T.);
#156=EDGE_LOOP('',(#533,#534,#535,#536));
#157=PLANE('',#158);
#158=AXIS2_PLACEMENT_3D('',#159,#160,#161);
#159=CARTESIAN_POINT('',(31.5617393199559,4.00329920751945,1.));
#160=DIRECTION('',(-0.946816399417409,0.321774308785293,0.));
#161=DIRECTION('',(-0.321774308785293,-0.946816399417409,0.));
#162=FACE_BOUND('',#163,.T.);
#163=EDGE_LOOP('',(#537,#538,#539,#540));
#164=PLANE('',#165);
#165=AXIS2_PLACEMENT_3D('',#166,#167,#168);
#166=CARTESIAN_POINT('',(30.9912976371401,2.32478254085278,1.));
#167=DIRECTION('',(0.,-1.,0.));
#168=DIRECTION('',(1.,0.,0.));
#169=FACE_BOUND('',#170,.T.);
#170=EDGE_LOOP('',(#541,#542,#543,#544));
#171=PLANE('',#172);
#172=AXIS2_PLACEMENT_3D('',#173,#174,#175);
#173=CARTESIAN_POINT('',(33.0825643038068,2.32478254085278,1.));
#174=DIRECTION('',(0.946816399417409,-0.321774308785293,0.));
#175=DIRECTION('',(0.321774308785293,0.946816399417409,0.));
#176=FACE_BOUND('',#177,.T.);
#177=EDGE_LOOP('',(#545,#546,#547,#548));
#178=PLANE('',#179);
#179=AXIS2_PLACEMENT_3D('',#180,#181,#182);
#180=CARTESIAN_POINT('',(33.6530059866226,4.00329920751945,1.));
#181=DIRECTION('',(0.,-1.,0.));
#182=DIRECTION('',(1.,0.,0.));
#183=FACE_BOUND('',#184,.T.);
#184=EDGE_LOOP('',(#549,#550,#551,#552));
#185=PLANE('',#186);
#186=AXIS2_PLACEMENT_3D('',#187,#188,#189);
#187=CARTESIAN_POINT('',(34.6436059866226,4.00329920751945,1.));
#188=DIRECTION('',(0.946815571695395,-0.321776744335451,0.));
#189=DIRECTION('',(0.321776744335451,0.946815571695395,0.));
#190=FACE_BOUND('',#191,.T.);
#191=EDGE_LOOP('',(#553,#554,#555,#556));
#192=PLANE('',#193);
#193=AXIS2_PLACEMENT_3D('',#194,#195,#196);
#194=CARTESIAN_POINT('',(35.0040015681185,5.06374920751945,1.));
#195=DIRECTION('',(0.,1.,0.));
#196=DIRECTION('',(-1.,0.,0.));
#197=FACE_BOUND('',#198,.T.);
#198=EDGE_LOOP('',(#557,#558,#559,#560));
#199=PLANE('',#200);
#200=AXIS2_PLACEMENT_3D('',#201,#202,#203);
#201=CARTESIAN_POINT('',(34.0134015681185,5.06374920751945,1.));
#202=DIRECTION('',(0.94681828774168,-0.321768752364044,0.));
#203=DIRECTION('',(0.321768752364044,0.94681828774168,0.));
#204=FACE_BOUND('',#205,.T.);
#205=EDGE_LOOP('',(#561,#562,#563,#564));
#206=PLANE('',#207);
#207=AXIS2_PLACEMENT_3D('',#208,#209,#210);
#208=CARTESIAN_POINT('',(35.7592216136412,10.2008992075194,1.));
#209=DIRECTION('',(0.,1.,0.));
#210=DIRECTION('',(-1.,0.,0.));
#211=FACE_BOUND('',#212,.T.);
#212=EDGE_LOOP('',(#565,#566,#567,#568));
#213=PLANE('',#214);
#214=AXIS2_PLACEMENT_3D('',#215,#216,#217);
#215=CARTESIAN_POINT('',(29.6781044271505,5.06374920751945,1.));
#216=DIRECTION('',(0.,-1.,0.));
#217=DIRECTION('',(1.,0.,0.));
#218=FACE_BOUND('',#219,.T.);
#219=EDGE_LOOP('',(#569,#570,#571,#572));
#220=PLANE('',#221);
#221=AXIS2_PLACEMENT_3D('',#222,#223,#224);
#222=CARTESIAN_POINT('',(31.9221349014518,5.06374920751945,1.));
#223=DIRECTION('',(0.94681791827329,-0.321769839538503,0.));
#224=DIRECTION('',(0.321769839538503,0.94681791827329,0.));
#225=FACE_BOUND('',#226,.T.);
#226=EDGE_LOOP('',(#573,#574,#575,#576));
#227=PLANE('',#228);
#228=AXIS2_PLACEMENT_3D('',#229,#230,#231);
#229=CARTESIAN_POINT('',(33.0132765519693,8.27446798578043,1.));
#230=DIRECTION('',(-0.693537621005837,0.720420410766911,0.));
#231=DIRECTION('',(-0.720420410766911,-0.693537621005837,0.));
#232=FACE_BOUND('',#233,.T.);
#233=EDGE_LOOP('',(#577,#578,#579,#580));
#234=SURFACE_OF_LINEAR_EXTRUSION('',#235,#236);
#235=B_SPLINE_CURVE_WITH_KNOTS('',2,
(#581,#582,#583),
.UNSPECIFIED.,.F.,.F.,
(3,3),
(0.,1.),
.UNSPECIFIED.);
#236=VECTOR('',#237,1.);
#237=DIRECTION('',(0.,0.,1.));
#238=FACE_BOUND('',#239,.T.);
#239=EDGE_LOOP('',(#584,#585,#586,#587));
#240=SURFACE_OF_LINEAR_EXTRUSION('',#241,#242);
#241=B_SPLINE_CURVE_WITH_KNOTS('',2,
(#588,#589,#590),
.UNSPECIFIED.,.F.,.F.,
(3,3),
(0.,1.),
.UNSPECIFIED.);
#242=VECTOR('',#243,1.);
#243=DIRECTION('',(0.,0.,1.));
#244=FACE_BOUND('',#245,.T.);
#245=EDGE_LOOP('',(#591,#592,#593,#594));
#246=SURFACE_OF_LINEAR_EXTRUSION('',#247,#248);
#247=B_SPLINE_CURVE_WITH_KNOTS('',2,
(#595,#596,#597),
.UNSPECIFIED.,.F.,.F.,
(3,3),
(0.,1.),
.UNSPECIFIED.);
#248=VECTOR('',#249,1.);
#249=DIRECTION('',(0.,0.,1.));
#250=FACE_BOUND('',#251,.T.);
#251=EDGE_LOOP('',(#598,#599,#600,#601));
#252=SURFACE_OF_LINEAR_EXTRUSION('',#253,#254);
#253=B_SPLINE_CURVE_WITH_KNOTS('',2,
(#602,#603,#604),
.UNSPECIFIED.,.F.,.F.,
(3,3),
(0.,1.),
.UNSPECIFIED.);
#254=VECTOR('',#255,1.);
#255=DIRECTION('',(0.,0.,1.));
#256=FACE_BOUND('',#257,.T.);
#257=EDGE_LOOP('',(#605,#606,#607,#608));
#258=SURFACE_OF_LINEAR_EXTRUSION('',#259,#260);
#259=B_SPLINE_CURVE_WITH_KNOTS('',2,
(#609,#610,#611),
.UNSPECIFIED.,.F.,.F.,
(3,3),
(0.,1.),
.UNSPECIFIED.);
#260=VECTOR('',#261,1.);
#261=DIRECTION('',(0.,0.,1.));
#262=FACE_BOUND('',#263,.T.);
#263=EDGE_LOOP('',(#612,#613,#614,#615));
#264=SURFACE_OF_LINEAR_EXTRUSION('',#265,#266);
#265=B_SPLINE_CURVE_WITH_KNOTS('',2,
(#616,#617,#618),
.UNSPECIFIED.,.F.,.F.,
(3,3),
(0.,1.),
.UNSPECIFIED.);
#266=VECTOR('',#267,1.);
#267=DIRECTION('',(0.,0.,1.));
#268=FACE_BOUND('',#269,.T.);
#269=EDGE_LOOP('',(#619,#620,#621,#622));
#270=SURFACE_OF_LINEAR_EXTRUSION('',#271,#272);
#271=B_SPLINE_CURVE_WITH_KNOTS('',2,
(#623,#624,#625),
.UNSPECIFIED.,.F.,.F.,
(3,3),
(0.,1.),
.UNSPECIFIED.);
#272=VECTOR('',#273,1.);
#273=DIRECTION('',(0.,0.,1.));
#274=FACE_BOUND('',#275,.T.);
#275=EDGE_LOOP('',(#626,#627,#628,#629));
#276=SURFACE_OF_LINEAR_EXTRUSION('',#277,#278);
#277=B_SPLINE_CURVE_WITH_KNOTS('',2,
(#630,#631,#632),
.UNSPECIFIED.,.F.,.F.,
(3,3),
(0.,1.),
.UNSPECIFIED.);
#278=VECTOR('',#279,1.);
#279=DIRECTION('',(0.,0.,1.));
#280=FACE_BOUND('',#281,.T.);
#281=EDGE_LOOP('',(#633,#634,#635,#636));
#282=SURFACE_OF_LINEAR_EXTRUSION('',#283,#284);
#283=B_SPLINE_CURVE_WITH_KNOTS('',2,
(#637,#638,#639),
.UNSPECIFIED.,.F.,.F.,
(3,3),
(0.,1.),
.UNSPECIFIED.);
#284=VECTOR('',#285,1.);
#285=DIRECTION('',(0.,0.,1.));
#286=FACE_BOUND('',#287,.T.);
#287=EDGE_LOOP('',(#640,#641,#642,#643));
#288=SURFACE_OF_LINEAR_EXTRUSION('',#289,#290);
#289=B_SPLINE_CURVE_WITH_KNOTS('',2,
(#644,#645,#646),
.UNSPECIFIED.,.F.,.F.,
(3,3),
(0.,1.),
.UNSPECIFIED.);
#290=VECTOR('',#291,1.);
#291=DIRECTION('',(0.,0.,1.));
#292=FACE_BOUND('',#293,.T.);
#293=EDGE_LOOP('',(#647,#648,#649,#650));
#294=SURFACE_OF_LINEAR_EXTRUSION('',#295,#296);
#295=B_SPLINE_CURVE_WITH_KNOTS('',2,
(#651,#652,#653),
.UNSPECIFIED.,.F.,.F.,
(3,3),
(0.,1.),
.UNSPECIFIED.);
#296=VECTOR('',#297,1.);
#297=DIRECTION('',(0.,0.,1.));
#298=FACE_BOUND('',#299,.T.);
#299=EDGE_LOOP('',(#654,#655,#656,#657));
#300=SURFACE_OF_LINEAR_EXTRUSION('',#301,#302);
#301=B_SPLINE_CURVE_WITH_KNOTS('',2,
(#658,#659,#660),
.UNSPECIFIED.,.F.,.F.,
(3,3),
(0.,1.),
.UNSPECIFIED.);
#302=VECTOR('',#303,1.);
#303=DIRECTION('',(0.,0.,1.));
#304=FACE_BOUND('',#305,.T.);
#305=EDGE_LOOP('',(#661,#662,#663,#664));
#306=SURFACE_OF_LINEAR_EXTRUSION('',#307,#308);
#307=B_SPLINE_CURVE_WITH_KNOTS('',2,
(#665,#666,#667),
.UNSPECIFIED.,.F.,.F.,
(3,3),
(0.,1.),
.UNSPECIFIED.);
#308=VECTOR('',#309,1.);
#309=DIRECTION('',(0.,0.,1.));
#310=FACE_BOUND('',#311,.T.);
#311=EDGE_LOOP('',(#668,#669,#670,#671));
#312=SURFACE_OF_LINEAR_EXTRUSION('',#313,#314);
#313=B_SPLINE_CURVE_WITH_KNOTS('',2,
(#672,#673,#674),
.UNSPECIFIED.,.F.,.F.,
(3,3),
(0.,1.),
.UNSPECIFIED.);
#314=VECTOR('',#315,1.);
#315=DIRECTION('',(0.,0.,1.));
#316=FACE_BOUND('',#317,.T.);
#317=EDGE_LOOP('',(#675,#676,#677,#678));
#318=SURFACE_OF_LINEAR_EXTRUSION('',#319,#320);
#319=B_SPLINE_CURVE_WITH_KNOTS('',2,
(#679,#680,#681),
.UNSPECIFIED.,.F.,.F.,
(3,3),
(0.,1.),
.UNSPECIFIED.);
#320=VECTOR('',#321,1.);
#321=DIRECTION('',(0.,0.,1.));
#322=FACE_BOUND('',#323,.T.);
#323=EDGE_LOOP('',(#682,#683,#684,#685));
#324=SURFACE_OF_LINEAR_EXTRUSION('',#325,#326);
#325=B_SPLINE_CURVE_WITH_KNOTS('',2,
(#686,#687,#688),
.UNSPECIFIED.,.F.,.F.,
(3,3),
(0.,1.),
.UNSPECIFIED.);
#326=VECTOR('',#327,1.);
#327=DIRECTION('',(0.,0.,1.));
#328=FACE_BOUND('',#329,.T.);
#329=EDGE_LOOP('',(#689,#690,#691,#692));
#330=SURFACE_OF_LINEAR_EXTRUSION('',#331,#332);
#331=B_SPLINE_CURVE_WITH_KNOTS('',2,
(#693,#694,#695),
.UNSPECIFIED.,.F.,.F.,
(3,3),
(0.,1.),
.UNSPECIFIED.);
#332=VECTOR('',#333,1.);
#333=DIRECTION('',(0.,0.,1.));
#334=FACE_BOUND('',#335,.T.);
#335=EDGE_LOOP('',(#696,#697,#698,#699));
#336=SURFACE_OF_LINEAR_EXTRUSION('',#337,#338);
#337=B_SPLINE_CURVE_WITH_KNOTS('',2,
(#700,#701,#702),
.UNSPECIFIED.,.F.,.F.,
(3,3),
(0.,1.),
.UNSPECIFIED.);
#338=VECTOR('',#339,1.);
#339=DIRECTION('',(0.,0.,1.));
#340=FACE_BOUND('',#341,.T.);
#341=EDGE_LOOP('',(#703,#704,#705,#706));
#342=PLANE('',#343);
#343=AXIS2_PLACEMENT_3D('',#344,#345,#346);
#344=CARTESIAN_POINT('',(15.7556973548327,8.95841587418611,1.));
#345=DIRECTION('',(0.14699075399873,-0.989137866143484,0.));
#346=DIRECTION('',(0.989137866143484,0.14699075399873,0.));
#347=FACE_BOUND('',#348,.T.);
#348=EDGE_LOOP('',(#707,#708,#709,#710));
#349=PLANE('',#350);
#350=AXIS2_PLACEMENT_3D('',#351,#352,#353);
#351=CARTESIAN_POINT('',(16.013930688166,9.71829920751945,1.));
#352=DIRECTION('',(-0.946820961730438,0.321760883930675,0.));
#353=DIRECTION('',(-0.321760883930675,-0.946820961730438,0.));
#354=FACE_BOUND('',#355,.T.);
#355=EDGE_LOOP('',(#711,#712,#713,#714));
#356=PLANE('',#357);
#357=AXIS2_PLACEMENT_3D('',#358,#359,#360);
#358=CARTESIAN_POINT('',(19.8567390376485,10.3130825408528,1.));
#359=DIRECTION('',(-0.152956997207341,0.988232845540621,0.));
#360=DIRECTION('',(-0.988232845540621,-0.152956997207341,0.));
#361=FACE_BOUND('',#362,.T.);
#362=EDGE_LOOP('',(#715,#716,#717,#718));
#363=PLANE('',#364);
#364=AXIS2_PLACEMENT_3D('',#365,#366,#367);
#365=CARTESIAN_POINT('',(17.1419486543927,2.32478254085278,1.));
#366=DIRECTION('',(0.946817225303488,-0.32177187861683,0.));
#367=DIRECTION('',(0.32177187861683,0.946817225303488,0.));
#368=FACE_BOUND('',#369,.T.);
#369=EDGE_LOOP('',(#719,#720,#721,#722));
#370=PLANE('',#371);
#371=AXIS2_PLACEMENT_3D('',#372,#373,#374);
#372=CARTESIAN_POINT('',(15.044331987726,2.32478254085278,1.));
#373=DIRECTION('',(0.,-1.,0.));
#374=DIRECTION('',(1.,0.,0.));
#375=FACE_BOUND('',#376,.T.);
#376=EDGE_LOOP('',(#723,#724,#725,#726));
#377=PLANE('',#378);
#378=AXIS2_PLACEMENT_3D('',#379,#380,#381);
#379=CARTESIAN_POINT('',(17.380801285811,9.19991431471407,1.));
#380=DIRECTION('',(-0.946817876209609,0.321769963312185,0.));
#381=DIRECTION('',(-0.321769963312185,-0.946817876209609,0.));
#382=FACE_BOUND('',#383,.T.);
#383=EDGE_LOOP('',(#727,#728,#729,#730));
#384=PLANE('',#385);
#385=AXIS2_PLACEMENT_3D('',#386,#387,#388);
#386=CARTESIAN_POINT('',(1.,0.999999999999999,1.));
#387=DIRECTION('',(0.,-1.,0.));
#388=DIRECTION('',(1.,0.,0.));
#389=FACE_BOUND('',#390,.T.);
#390=EDGE_LOOP('',(#731,#732,#733,#734));
#391=PLANE('',#392);
#392=AXIS2_PLACEMENT_3D('',#393,#394,#395);
#393=CARTESIAN_POINT('',(48.5,0.999999999999999,1.));
#394=DIRECTION('',(1.,0.,0.));
#395=DIRECTION('',(0.,1.,0.));
#396=FACE_BOUND('',#397,.T.);
#397=EDGE_LOOP('',(#735,#736,#737,#738));
#398=PLANE('',#399);
#399=AXIS2_PLACEMENT_3D('',#400,#401,#402);
#400=CARTESIAN_POINT('',(48.5,11.5,1.));
#401=DIRECTION('',(0.,1.,0.));
#402=DIRECTION('',(-1.,0.,0.));
#403=FACE_BOUND('',#404,.T.);
#404=EDGE_LOOP('',(#739,#740,#741,#742));
#405=PLANE('',#406);
#406=AXIS2_PLACEMENT_3D('',#407,#408,#409);
#407=CARTESIAN_POINT('',(1.,11.5,1.));
#408=DIRECTION('',(-1.,0.,0.));
#409=DIRECTION('',(0.,-1.,0.));
#410=FACE_BOUND('',#411,.T.);
#411=EDGE_LOOP('',(#743,#744,#745,#746,#747,#748,#749,#750,#751,#752,#753));
#412=FACE_BOUND('',#413,.T.);
#413=EDGE_LOOP('',(#754,#755,#756));
#414=PLANE('',#415);
#415=AXIS2_PLACEMENT_3D('',#416,#417,#418);
#416=CARTESIAN_POINT('',(0.,0.,2.));
#417=DIRECTION('',(0.,0.,1.));
#418=DIRECTION('',(1.,0.,0.));
#419=FACE_BOUND('',#420,.T.);
#420=EDGE_LOOP('',(#757,#758,#759,#760,#761,#762,#763,#764,#765,#766));
#421=FACE_BOUND('',#422,.T.);
#422=EDGE_LOOP('',(#767,#768,#769,#770,#771,#772,#773,#774));
#423=PLANE('',#424);
#424=AXIS2_PLACEMENT_3D('',#425,#426,#427);
#425=CARTESIAN_POINT('',(0.,0.,2.));
#426=DIRECTION('',(0.,0.,1.));
#427=DIRECTION('',(1.,0.,0.));
#428=FACE_BOUND('',#429,.T.);
#429=EDGE_LOOP('',(#775,#776,#777,#778,#779,#780));
#430=PLANE('',#431);
#431=AXIS2_PLACEMENT_3D('',#432,#433,#434);
#432=CARTESIAN_POINT('',(0.,0.,2.));
#433=DIRECTION('',(0.,0.,1.));
#434=DIRECTION('',(1.,0.,0.));
#435=FACE_BOUND('',#436,.T.);
#436=EDGE_LOOP('',(#781,#782,#783,#784));
#437=FACE_BOUND('',#438,.T.);
#438=EDGE_LOOP('',(#785,#786,#787,#788));
#439=PLANE('',#440);
#440=AXIS2_PLACEMENT_3D('',#441,#442,#443);
#441=CARTESIAN_POINT('',(0.,0.,2.));
#442=DIRECTION('',(0.,0.,1.));
#443=DIRECTION('',(1.,0.,0.));
#444=FACE_BOUND('',#445,.T.);
#445=EDGE_LOOP('',(#789,#790,#791,#792));
#446=PLANE('',#447);
#447=AXIS2_PLACEMENT_3D('',#448,#449,#450);
#448=CARTESIAN_POINT('',(-8.17102874259867E-34,12.5,0.));
#449=DIRECTION('',(-1.,-6.53682299407893E-35,0.));
#450=DIRECTION('',(6.53682299407893E-35,-1.,0.));
#451=FACE_BOUND('',#452,.T.);
#452=EDGE_LOOP('',(#793,#794,#795,#796));
#453=PLANE('',#454);
#454=AXIS2_PLACEMENT_3D('',#455,#456,#457);
#455=CARTESIAN_POINT('',(0.,0.,0.));
#456=DIRECTION('',(0.,-1.,0.));
#457=DIRECTION('',(1.,0.,0.));
#458=FACE_BOUND('',#459,.T.);
#459=EDGE_LOOP('',(#797,#798,#799,#800));
#460=PLANE('',#461);
#461=AXIS2_PLACEMENT_3D('',#462,#463,#464);
#462=CARTESIAN_POINT('',(49.5,-1.77635683940025E-15,0.));
#463=DIRECTION('',(1.,0.,0.));
#464=DIRECTION('',(0.,1.,0.));
#465=FACE_BOUND('',#466,.T.);
#466=EDGE_LOOP('',(#801,#802,#803,#804));
#467=PLANE('',#468);
#468=AXIS2_PLACEMENT_3D('',#469,#470,#471);
#469=CARTESIAN_POINT('',(49.5,12.5,0.));
#470=DIRECTION('',(-3.58859967555606E-17,1.,0.));
#471=DIRECTION('',(-1.,-3.58859967555606E-17,0.));
#472=FACE_BOUND('',#473,.T.);
#473=EDGE_LOOP('',(#805,#806,#807,#808));
#474=PLANE('',#475);
#475=AXIS2_PLACEMENT_3D('',#476,#477,#478);
#476=CARTESIAN_POINT('',(0.,0.,0.));
#477=DIRECTION('',(0.,0.,1.));
#478=DIRECTION('',(1.,0.,0.));
#479=ORIENTED_EDGE('',*,*,#809,.F.);
#480=ORIENTED_EDGE('',*,*,#810,.F.);
#481=ORIENTED_EDGE('',*,*,#811,.F.);
#482=ORIENTED_EDGE('',*,*,#812,.F.);
#483=ORIENTED_EDGE('',*,*,#813,.F.);
#484=ORIENTED_EDGE('',*,*,#814,.F.);
#485=ORIENTED_EDGE('',*,*,#815,.F.);
#486=ORIENTED_EDGE('',*,*,#816,.F.);
#487=ORIENTED_EDGE('',*,*,#817,.F.);
#488=ORIENTED_EDGE('',*,*,#818,.F.);
#489=ORIENTED_EDGE('',*,*,#819,.F.);
#490=ORIENTED_EDGE('',*,*,#820,.F.);
#491=ORIENTED_EDGE('',*,*,#821,.F.);
#492=ORIENTED_EDGE('',*,*,#822,.F.);
#493=ORIENTED_EDGE('',*,*,#823,.F.);
#494=ORIENTED_EDGE('',*,*,#824,.F.);
#495=ORIENTED_EDGE('',*,*,#825,.F.);
#496=ORIENTED_EDGE('',*,*,#826,.F.);
#497=ORIENTED_EDGE('',*,*,#827,.F.);
#498=ORIENTED_EDGE('',*,*,#828,.F.);
#499=ORIENTED_EDGE('',*,*,#829,.F.);
#500=ORIENTED_EDGE('',*,*,#830,.F.);
#501=ORIENTED_EDGE('',*,*,#831,.F.);
#502=ORIENTED_EDGE('',*,*,#832,.F.);
#503=ORIENTED_EDGE('',*,*,#833,.F.);
#504=ORIENTED_EDGE('',*,*,#834,.F.);
#505=ORIENTED_EDGE('',*,*,#835,.F.);
#506=ORIENTED_EDGE('',*,*,#836,.F.);
#507=ORIENTED_EDGE('',*,*,#837,.F.);
#508=ORIENTED_EDGE('',*,*,#838,.F.);
#509=ORIENTED_EDGE('',*,*,#839,.F.);
#510=ORIENTED_EDGE('',*,*,#840,.F.);
#511=ORIENTED_EDGE('',*,*,#841,.F.);
#512=ORIENTED_EDGE('',*,*,#842,.F.);
#513=ORIENTED_EDGE('',*,*,#843,.F.);
#514=ORIENTED_EDGE('',*,*,#844,.F.);
#515=ORIENTED_EDGE('',*,*,#845,.F.);
#516=ORIENTED_EDGE('',*,*,#846,.F.);
#517=ORIENTED_EDGE('',*,*,#847,.F.);
#518=ORIENTED_EDGE('',*,*,#848,.F.);
#519=ORIENTED_EDGE('',*,*,#849,.F.);
#520=ORIENTED_EDGE('',*,*,#850,.F.);
#521=ORIENTED_EDGE('',*,*,#850,.T.);
#522=ORIENTED_EDGE('',*,*,#851,.T.);
#523=ORIENTED_EDGE('',*,*,#852,.F.);
#524=ORIENTED_EDGE('',*,*,#853,.F.);
#525=ORIENTED_EDGE('',*,*,#849,.T.);
#526=ORIENTED_EDGE('',*,*,#854,.T.);
#527=ORIENTED_EDGE('',*,*,#855,.F.);
#528=ORIENTED_EDGE('',*,*,#851,.F.);
#529=ORIENTED_EDGE('',*,*,#848,.T.);
#530=ORIENTED_EDGE('',*,*,#856,.T.);
#531=ORIENTED_EDGE('',*,*,#857,.F.);
#532=ORIENTED_EDGE('',*,*,#854,.F.);
#533=ORIENTED_EDGE('',*,*,#847,.T.);
#534=ORIENTED_EDGE('',*,*,#858,.T.);
#535=ORIENTED_EDGE('',*,*,#859,.F.);
#536=ORIENTED_EDGE('',*,*,#856,.F.);
#537=ORIENTED_EDGE('',*,*,#846,.T.);
#538=ORIENTED_EDGE('',*,*,#860,.T.);
#539=ORIENTED_EDGE('',*,*,#861,.F.);
#540=ORIENTED_EDGE('',*,*,#858,.F.);
#541=ORIENTED_EDGE('',*,*,#845,.T.);
#542=ORIENTED_EDGE('',*,*,#862,.T.);
#543=ORIENTED_EDGE('',*,*,#863,.F.);
#544=ORIENTED_EDGE('',*,*,#860,.F.);
#545=ORIENTED_EDGE('',*,*,#844,.T.);
#546=ORIENTED_EDGE('',*,*,#864,.T.);
#547=ORIENTED_EDGE('',*,*,#865,.F.);
#548=ORIENTED_EDGE('',*,*,#862,.F.);
#549=ORIENTED_EDGE('',*,*,#843,.T.);
#550=ORIENTED_EDGE('',*,*,#866,.T.);
#551=ORIENTED_EDGE('',*,*,#867,.F.);
#552=ORIENTED_EDGE('',*,*,#864,.F.);
#553=ORIENTED_EDGE('',*,*,#842,.T.);
#554=ORIENTED_EDGE('',*,*,#868,.T.);
#555=ORIENTED_EDGE('',*,*,#869,.F.);
#556=ORIENTED_EDGE('',*,*,#866,.F.);
#557=ORIENTED_EDGE('',*,*,#841,.T.);
#558=ORIENTED_EDGE('',*,*,#870,.T.);
#559=ORIENTED_EDGE('',*,*,#871,.F.);
#560=ORIENTED_EDGE('',*,*,#868,.F.);
#561=ORIENTED_EDGE('',*,*,#840,.T.);
#562=ORIENTED_EDGE('',*,*,#853,.T.);
#563=ORIENTED_EDGE('',*,*,#872,.F.);
#564=ORIENTED_EDGE('',*,*,#870,.F.);
#565=ORIENTED_EDGE('',*,*,#818,.T.);
#566=ORIENTED_EDGE('',*,*,#873,.T.);
#567=ORIENTED_EDGE('',*,*,#874,.F.);
#568=ORIENTED_EDGE('',*,*,#875,.F.);
#569=ORIENTED_EDGE('',*,*,#819,.T.);
#570=ORIENTED_EDGE('',*,*,#875,.T.);
#571=ORIENTED_EDGE('',*,*,#876,.F.);
#572=ORIENTED_EDGE('',*,*,#877,.F.);
#573=ORIENTED_EDGE('',*,*,#817,.T.);
#574=ORIENTED_EDGE('',*,*,#877,.T.);
#575=ORIENTED_EDGE('',*,*,#878,.F.);
#576=ORIENTED_EDGE('',*,*,#873,.F.);
#577=ORIENTED_EDGE('',*,*,#839,.T.);
#578=ORIENTED_EDGE('',*,*,#879,.T.);
#579=ORIENTED_EDGE('',*,*,#880,.F.);
#580=ORIENTED_EDGE('',*,*,#881,.F.);
#581=CARTESIAN_POINT('',(28.3942473660304,9.37372903204069,1.));
#582=CARTESIAN_POINT('',(27.9383703028835,10.3723492075194,1.));
#583=CARTESIAN_POINT('',(26.5363432074383,10.3723492075194,1.));
#584=ORIENTED_EDGE('',*,*,#838,.T.);
#585=ORIENTED_EDGE('',*,*,#882,.T.);
#586=ORIENTED_EDGE('',*,*,#883,.F.);
#587=ORIENTED_EDGE('',*,*,#879,.F.);
#588=CARTESIAN_POINT('',(26.5363432074383,10.3723492075194,1.));
#589=CARTESIAN_POINT('',(24.9104786200677,10.3723492075194,1.));
#590=CARTESIAN_POINT('',(23.4440916479662,9.0909390709512,1.));
#591=ORIENTED_EDGE('',*,*,#837,.T.);
#592=ORIENTED_EDGE('',*,*,#884,.T.);
#593=ORIENTED_EDGE('',*,*,#885,.F.);
#594=ORIENTED_EDGE('',*,*,#882,.F.);
#595=CARTESIAN_POINT('',(23.4440916479662,9.0909390709512,1.));
#596=CARTESIAN_POINT('',(21.9777046758648,7.80952890208469,1.));
#597=CARTESIAN_POINT('',(21.2789400884942,5.75335261867379,1.));
#598=ORIENTED_EDGE('',*,*,#836,.T.);
#599=ORIENTED_EDGE('',*,*,#886,.T.);
#600=ORIENTED_EDGE('',*,*,#887,.F.);
#601=ORIENTED_EDGE('',*,*,#884,.F.);
#602=CARTESIAN_POINT('',(21.2789400884942,5.75335261867379,1.));
#603=CARTESIAN_POINT('',(20.7042981457664,4.0624666862204,1.));
#604=CARTESIAN_POINT('',(21.1800355400341,3.09625794686992,1.));
#605=ORIENTED_EDGE('',*,*,#835,.T.);
#606=ORIENTED_EDGE('',*,*,#888,.T.);
#607=ORIENTED_EDGE('',*,*,#889,.F.);
#608=ORIENTED_EDGE('',*,*,#886,.F.);
#609=CARTESIAN_POINT('',(21.1800355400341,3.09625794686992,1.));
#610=CARTESIAN_POINT('',(21.6557729020035,2.13004920751945,1.));
#611=CARTESIAN_POINT('',(23.0459929475263,2.13004920751945,1.));
#612=ORIENTED_EDGE('',*,*,#834,.T.);
#613=ORIENTED_EDGE('',*,*,#890,.T.);
#614=ORIENTED_EDGE('',*,*,#891,.F.);
#615=ORIENTED_EDGE('',*,*,#888,.F.);
#616=CARTESIAN_POINT('',(23.0459929475263,2.13004920751945,1.));
#617=CARTESIAN_POINT('',(23.8412642926091,2.13004920751945,1.));
#618=CARTESIAN_POINT('',(24.6555029864368,2.48060560766186,1.));
#619=ORIENTED_EDGE('',*,*,#833,.T.);
#620=ORIENTED_EDGE('',*,*,#892,.T.);
#621=ORIENTED_EDGE('',*,*,#893,.F.);
#622=ORIENTED_EDGE('',*,*,#890,.F.);
#623=CARTESIAN_POINT('',(24.6555029864368,2.48060560766186,1.));
#624=CARTESIAN_POINT('',(25.4697416479662,2.83116197550602,1.));
#625=CARTESIAN_POINT('',(26.2261854100781,3.49688673174314,1.));
#626=ORIENTED_EDGE('',*,*,#832,.T.);
#627=ORIENTED_EDGE('',*,*,#894,.T.);
#628=ORIENTED_EDGE('',*,*,#895,.F.);
#629=ORIENTED_EDGE('',*,*,#892,.F.);
#630=CARTESIAN_POINT('',(26.2261854100781,3.49688673174314,1.));
#631=CARTESIAN_POINT('',(26.9095710826195,4.10370859664994,1.));
#632=CARTESIAN_POINT('',(27.420332681002,4.88728868108319,1.));
#633=ORIENTED_EDGE('',*,*,#831,.T.);
#634=ORIENTED_EDGE('',*,*,#896,.T.);
#635=ORIENTED_EDGE('',*,*,#897,.F.);
#636=ORIENTED_EDGE('',*,*,#894,.F.);
#637=CARTESIAN_POINT('',(27.420332681002,4.88728868108319,1.));
#638=CARTESIAN_POINT('',(27.9310942470863,5.67086876551645,1.));
#639=CARTESIAN_POINT('',(28.2454523366568,6.59585209884978,1.));
#640=ORIENTED_EDGE('',*,*,#830,.T.);
#641=ORIENTED_EDGE('',*,*,#881,.T.);
#642=ORIENTED_EDGE('',*,*,#898,.F.);
#643=ORIENTED_EDGE('',*,*,#896,.F.);
#644=CARTESIAN_POINT('',(28.2454523366568,6.59585209884978,1.));
#645=CARTESIAN_POINT('',(28.8501244614756,8.37510885656194,1.));
#646=CARTESIAN_POINT('',(28.3942473660304,9.37372903204069,1.));
#647=ORIENTED_EDGE('',*,*,#810,.T.);
#648=ORIENTED_EDGE('',*,*,#899,.T.);
#649=ORIENTED_EDGE('',*,*,#900,.F.);
#650=ORIENTED_EDGE('',*,*,#901,.F.);
#651=CARTESIAN_POINT('',(26.4918932074383,8.66428189107276,1.));
#652=CARTESIAN_POINT('',(26.4775064952489,9.45371587418611,1.));
#653=CARTESIAN_POINT('',(25.8768031163928,9.45371587418611,1.));
#654=ORIENTED_EDGE('',*,*,#811,.T.);
#655=ORIENTED_EDGE('',*,*,#901,.T.);
#656=ORIENTED_EDGE('',*,*,#902,.F.);
#657=ORIENTED_EDGE('',*,*,#903,.F.);
#658=CARTESIAN_POINT('',(25.8768031163928,9.45371587418611,1.));
#659=CARTESIAN_POINT('',(25.293760653841,9.45371587418611,1.));
#660=CARTESIAN_POINT('',(24.7409303094957,8.67607240428453,1.));
#661=ORIENTED_EDGE('',*,*,#812,.T.);
#662=ORIENTED_EDGE('',*,*,#903,.T.);
#663=ORIENTED_EDGE('',*,*,#904,.F.);
#664=ORIENTED_EDGE('',*,*,#905,.F.);
#665=CARTESIAN_POINT('',(24.7409303094957,8.67607240428453,1.));
#666=CARTESIAN_POINT('',(24.1880999974487,7.89842890208469,1.));
#667=CARTESIAN_POINT('',(23.6555268006836,6.3313349123591,1.));
#668=ORIENTED_EDGE('',*,*,#813,.T.);
#669=ORIENTED_EDGE('',*,*,#905,.T.);
#670=ORIENTED_EDGE('',*,*,#906,.F.);
#671=ORIENTED_EDGE('',*,*,#907,.F.);
#672=CARTESIAN_POINT('',(23.6555268006836,6.3313349123591,1.));
#673=CARTESIAN_POINT('',(23.072914292609,4.61696720604441,1.));
#674=CARTESIAN_POINT('',(23.0843575348969,3.82753322293106,1.));
#675=ORIENTED_EDGE('',*,*,#814,.T.);
#676=ORIENTED_EDGE('',*,*,#907,.T.);
#677=ORIENTED_EDGE('',*,*,#908,.F.);
#678=ORIENTED_EDGE('',*,*,#909,.F.);
#679=CARTESIAN_POINT('',(23.0843575348969,3.82753322293106,1.));
#680=CARTESIAN_POINT('',(23.0958007771847,3.03809920751945,1.));
#681=CARTESIAN_POINT('',(23.6965041560408,3.03809920751945,1.));
#682=ORIENTED_EDGE('',*,*,#815,.T.);
#683=ORIENTED_EDGE('',*,*,#909,.T.);
#684=ORIENTED_EDGE('',*,*,#910,.F.);
#685=ORIENTED_EDGE('',*,*,#911,.F.);
#686=CARTESIAN_POINT('',(23.6965041560408,3.03809920751945,1.));
#687=CARTESIAN_POINT('',(24.279513512873,3.03809920751945,1.));
#688=CARTESIAN_POINT('',(24.8393222522235,3.82753322293106,1.));
#689=ORIENTED_EDGE('',*,*,#816,.T.);
#690=ORIENTED_EDGE('',*,*,#911,.T.);
#691=ORIENTED_EDGE('',*,*,#912,.F.);
#692=ORIENTED_EDGE('',*,*,#913,.F.);
#693=CARTESIAN_POINT('',(24.8393222522235,3.82753322293106,1.));
#694=CARTESIAN_POINT('',(25.3991309592757,4.61696720604441,1.));
#695=CARTESIAN_POINT('',(25.9276692632354,6.17225417814583,1.));
#696=ORIENTED_EDGE('',*,*,#809,.T.);
#697=ORIENTED_EDGE('',*,*,#913,.T.);
#698=ORIENTED_EDGE('',*,*,#914,.F.);
#699=ORIENTED_EDGE('',*,*,#899,.F.);
#700=CARTESIAN_POINT('',(25.9276692632354,6.17225417814583,1.));
#701=CARTESIAN_POINT('',(26.5062799196277,7.87484790795942,1.));
#702=CARTESIAN_POINT('',(26.4918932074383,8.66428189107276,1.));
#703=ORIENTED_EDGE('',*,*,#825,.T.);
#704=ORIENTED_EDGE('',*,*,#915,.T.);
#705=ORIENTED_EDGE('',*,*,#916,.F.);
#706=ORIENTED_EDGE('',*,*,#917,.F.);
#707=ORIENTED_EDGE('',*,*,#826,.T.);
#708=ORIENTED_EDGE('',*,*,#917,.T.);
#709=ORIENTED_EDGE('',*,*,#918,.F.);
#710=ORIENTED_EDGE('',*,*,#919,.F.);
#711=ORIENTED_EDGE('',*,*,#827,.T.);
#712=ORIENTED_EDGE('',*,*,#919,.T.);
#713=ORIENTED_EDGE('',*,*,#920,.F.);
#714=ORIENTED_EDGE('',*,*,#921,.F.);
#715=ORIENTED_EDGE('',*,*,#828,.T.);
#716=ORIENTED_EDGE('',*,*,#921,.T.);
#717=ORIENTED_EDGE('',*,*,#922,.F.);
#718=ORIENTED_EDGE('',*,*,#923,.F.);
#719=ORIENTED_EDGE('',*,*,#829,.T.);
#720=ORIENTED_EDGE('',*,*,#923,.T.);
#721=ORIENTED_EDGE('',*,*,#924,.F.);
#722=ORIENTED_EDGE('',*,*,#925,.F.);
#723=ORIENTED_EDGE('',*,*,#824,.T.);
#724=ORIENTED_EDGE('',*,*,#925,.T.);
#725=ORIENTED_EDGE('',*,*,#926,.F.);
#726=ORIENTED_EDGE('',*,*,#915,.F.);
#727=ORIENTED_EDGE('',*,*,#820,.T.);
#728=ORIENTED_EDGE('',*,*,#927,.T.);
#729=ORIENTED_EDGE('',*,*,#928,.F.);
#730=ORIENTED_EDGE('',*,*,#929,.F.);
#731=ORIENTED_EDGE('',*,*,#821,.T.);
#732=ORIENTED_EDGE('',*,*,#929,.T.);
#733=ORIENTED_EDGE('',*,*,#930,.F.);
#734=ORIENTED_EDGE('',*,*,#931,.F.);
#735=ORIENTED_EDGE('',*,*,#822,.T.);
#736=ORIENTED_EDGE('',*,*,#931,.T.);
#737=ORIENTED_EDGE('',*,*,#932,.F.);
#738=ORIENTED_EDGE('',*,*,#933,.F.);
#739=ORIENTED_EDGE('',*,*,#823,.T.);
#740=ORIENTED_EDGE('',*,*,#933,.T.);
#741=ORIENTED_EDGE('',*,*,#934,.F.);
#742=ORIENTED_EDGE('',*,*,#927,.F.);
#743=ORIENTED_EDGE('',*,*,#852,.T.);
#744=ORIENTED_EDGE('',*,*,#855,.T.);
#745=ORIENTED_EDGE('',*,*,#857,.T.);
#746=ORIENTED_EDGE('',*,*,#859,.T.);
#747=ORIENTED_EDGE('',*,*,#861,.T.);
#748=ORIENTED_EDGE('',*,*,#863,.T.);
#749=ORIENTED_EDGE('',*,*,#865,.T.);
#750=ORIENTED_EDGE('',*,*,#867,.T.);
#751=ORIENTED_EDGE('',*,*,#869,.T.);
#752=ORIENTED_EDGE('',*,*,#871,.T.);
#753=ORIENTED_EDGE('',*,*,#872,.T.);
#754=ORIENTED_EDGE('',*,*,#874,.T.);
#755=ORIENTED_EDGE('',*,*,#878,.T.);
#756=ORIENTED_EDGE('',*,*,#876,.T.);
#757=ORIENTED_EDGE('',*,*,#880,.T.);
#758=ORIENTED_EDGE('',*,*,#883,.T.);
#759=ORIENTED_EDGE('',*,*,#885,.T.);
#760=ORIENTED_EDGE('',*,*,#887,.T.);
#761=ORIENTED_EDGE('',*,*,#889,.T.);
#762=ORIENTED_EDGE('',*,*,#891,.T.);
#763=ORIENTED_EDGE('',*,*,#893,.T.);
#764=ORIENTED_EDGE('',*,*,#895,.T.);
#765=ORIENTED_EDGE('',*,*,#897,.T.);
#766=ORIENTED_EDGE('',*,*,#898,.T.);
#767=ORIENTED_EDGE('',*,*,#900,.T.);
#768=ORIENTED_EDGE('',*,*,#914,.T.);
#769=ORIENTED_EDGE('',*,*,#912,.T.);
#770=ORIENTED_EDGE('',*,*,#910,.T.);
#771=ORIENTED_EDGE('',*,*,#908,.T.);
#772=ORIENTED_EDGE('',*,*,#906,.T.);
#773=ORIENTED_EDGE('',*,*,#904,.T.);
#774=ORIENTED_EDGE('',*,*,#902,.T.);
#775=ORIENTED_EDGE('',*,*,#926,.T.);
#776=ORIENTED_EDGE('',*,*,#924,.T.);
#777=ORIENTED_EDGE('',*,*,#922,.T.);
#778=ORIENTED_EDGE('',*,*,#920,.T.);
#779=ORIENTED_EDGE('',*,*,#918,.T.);
#780=ORIENTED_EDGE('',*,*,#916,.T.);
#781=ORIENTED_EDGE('',*,*,#935,.T.);
#782=ORIENTED_EDGE('',*,*,#936,.T.);
#783=ORIENTED_EDGE('',*,*,#937,.T.);
#784=ORIENTED_EDGE('',*,*,#938,.T.);
#785=ORIENTED_EDGE('',*,*,#930,.T.);
#786=ORIENTED_EDGE('',*,*,#928,.T.);
#787=ORIENTED_EDGE('',*,*,#934,.T.);
#788=ORIENTED_EDGE('',*,*,#932,.T.);
#789=ORIENTED_EDGE('',*,*,#939,.T.);
#790=ORIENTED_EDGE('',*,*,#940,.T.);
#791=ORIENTED_EDGE('',*,*,#935,.F.);
#792=ORIENTED_EDGE('',*,*,#941,.F.);
#793=ORIENTED_EDGE('',*,*,#942,.T.);
#794=ORIENTED_EDGE('',*,*,#943,.T.);
#795=ORIENTED_EDGE('',*,*,#936,.F.);
#796=ORIENTED_EDGE('',*,*,#940,.F.);
#797=ORIENTED_EDGE('',*,*,#944,.T.);
#798=ORIENTED_EDGE('',*,*,#945,.T.);
#799=ORIENTED_EDGE('',*,*,#937,.F.);
#800=ORIENTED_EDGE('',*,*,#943,.F.);
#801=ORIENTED_EDGE('',*,*,#946,.T.);
#802=ORIENTED_EDGE('',*,*,#941,.T.);
#803=ORIENTED_EDGE('',*,*,#938,.F.);
#804=ORIENTED_EDGE('',*,*,#945,.F.);
#805=ORIENTED_EDGE('',*,*,#942,.F.);
#806=ORIENTED_EDGE('',*,*,#939,.F.);
#807=ORIENTED_EDGE('',*,*,#946,.F.);
#808=ORIENTED_EDGE('',*,*,#944,.F.);
#809=EDGE_CURVE('',#947,#948,#949,.F.);
#810=EDGE_CURVE('',#950,#947,#951,.F.);
#811=EDGE_CURVE('',#952,#950,#953,.F.);
#812=EDGE_CURVE('',#954,#952,#955,.F.);
#813=EDGE_CURVE('',#956,#954,#957,.F.);
#814=EDGE_CURVE('',#958,#956,#959,.F.);
#815=EDGE_CURVE('',#960,#958,#961,.F.);
#816=EDGE_CURVE('',#948,#960,#962,.F.);
#817=EDGE_CURVE('',#963,#964,#965,.F.);
#818=EDGE_CURVE('',#966,#963,#967,.F.);
#819=EDGE_CURVE('',#964,#966,#968,.F.);
#820=EDGE_CURVE('',#969,#970,#971,.F.);
#821=EDGE_CURVE('',#972,#969,#973,.F.);
#822=EDGE_CURVE('',#974,#972,#975,.F.);
#823=EDGE_CURVE('',#970,#974,#976,.F.);
#824=EDGE_CURVE('',#977,#978,#979,.T.);
#825=EDGE_CURVE('',#980,#977,#981,.T.);
#826=EDGE_CURVE('',#982,#980,#983,.T.);
#827=EDGE_CURVE('',#984,#982,#985,.T.);
#828=EDGE_CURVE('',#986,#984,#987,.T.);
#829=EDGE_CURVE('',#978,#986,#988,.T.);
#830=EDGE_CURVE('',#989,#990,#991,.T.);
#831=EDGE_CURVE('',#992,#989,#993,.T.);
#832=EDGE_CURVE('',#994,#992,#995,.T.);
#833=EDGE_CURVE('',#996,#994,#997,.T.);
#834=EDGE_CURVE('',#998,#996,#999,.T.);
#835=EDGE_CURVE('',#1000,#998,#1001,.T.);
#836=EDGE_CURVE('',#1002,#1000,#1003,.T.);
#837=EDGE_CURVE('',#1004,#1002,#1005,.T.);
#838=EDGE_CURVE('',#1006,#1004,#1007,.T.);
#839=EDGE_CURVE('',#990,#1006,#1008,.T.);
#840=EDGE_CURVE('',#1009,#1010,#1011,.T.);
#841=EDGE_CURVE('',#1012,#1009,#1013,.T.);
#842=EDGE_CURVE('',#1014,#1012,#1015,.T.);
#843=EDGE_CURVE('',#1016,#1014,#1017,.T.);
#844=EDGE_CURVE('',#1018,#1016,#1019,.T.);
#845=EDGE_CURVE('',#1020,#1018,#1021,.T.);
#846=EDGE_CURVE('',#1022,#1020,#1023,.T.);
#847=EDGE_CURVE('',#1024,#1022,#1025,.T.);
#848=EDGE_CURVE('',#1026,#1024,#1027,.T.);
#849=EDGE_CURVE('',#1028,#1026,#1029,.T.);
#850=EDGE_CURVE('',#1010,#1028,#1030,.T.);
#851=EDGE_CURVE('',#1028,#1031,#1032,.T.);
#852=EDGE_CURVE('',#1033,#1031,#1034,.T.);
#853=EDGE_CURVE('',#1010,#1033,#1035,.T.);
#854=EDGE_CURVE('',#1026,#1036,#1037,.T.);
#855=EDGE_CURVE('',#1031,#1036,#1038,.T.);
#856=EDGE_CURVE('',#1024,#1039,#1040,.T.);
#857=EDGE_CURVE('',#1036,#1039,#1041,.T.);
#858=EDGE_CURVE('',#1022,#1042,#1043,.T.);
#859=EDGE_CURVE('',#1039,#1042,#1044,.T.);
#860=EDGE_CURVE('',#1020,#1045,#1046,.T.);
#861=EDGE_CURVE('',#1042,#1045,#1047,.T.);
#862=EDGE_CURVE('',#1018,#1048,#1049,.T.);
#863=EDGE_CURVE('',#1045,#1048,#1050,.T.);
#864=EDGE_CURVE('',#1016,#1051,#1052,.T.);
#865=EDGE_CURVE('',#1048,#1051,#1053,.T.);
#866=EDGE_CURVE('',#1014,#1054,#1055,.T.);
#867=EDGE_CURVE('',#1051,#1054,#1056,.T.);
#868=EDGE_CURVE('',#1012,#1057,#1058,.T.);
#869=EDGE_CURVE('',#1054,#1057,#1059,.T.);
#870=EDGE_CURVE('',#1009,#1060,#1061,.T.);
#871=EDGE_CURVE('',#1057,#1060,#1062,.T.);
#872=EDGE_CURVE('',#1060,#1033,#1063,.T.);
#873=EDGE_CURVE('',#963,#1064,#1065,.T.);
#874=EDGE_CURVE('',#1066,#1064,#1067,.F.);
#875=EDGE_CURVE('',#966,#1066,#1068,.T.);
#876=EDGE_CURVE('',#1069,#1066,#1070,.F.);
#877=EDGE_CURVE('',#964,#1069,#1071,.T.);
#878=EDGE_CURVE('',#1064,#1069,#1072,.F.);
#879=EDGE_CURVE('',#1006,#1073,#1074,.T.);
#880=EDGE_CURVE('',#1075,#1073,#1076,.T.);
#881=EDGE_CURVE('',#990,#1075,#1077,.T.);
#882=EDGE_CURVE('',#1004,#1078,#1079,.T.);
#883=EDGE_CURVE('',#1073,#1078,#1080,.T.);
#884=EDGE_CURVE('',#1002,#1081,#1082,.T.);
#885=EDGE_CURVE('',#1078,#1081,#1083,.T.);
#886=EDGE_CURVE('',#1000,#1084,#1085,.T.);
#887=EDGE_CURVE('',#1081,#1084,#1086,.T.);
#888=EDGE_CURVE('',#998,#1087,#1088,.T.);
#889=EDGE_CURVE('',#1084,#1087,#1089,.T.);
#890=EDGE_CURVE('',#996,#1090,#1091,.T.);
#891=EDGE_CURVE('',#1087,#1090,#1092,.T.);
#892=EDGE_CURVE('',#994,#1093,#1094,.T.);
#893=EDGE_CURVE('',#1090,#1093,#1095,.T.);
#894=EDGE_CURVE('',#992,#1096,#1097,.T.);
#895=EDGE_CURVE('',#1093,#1096,#1098,.T.);
#896=EDGE_CURVE('',#989,#1099,#1100,.T.);
#897=EDGE_CURVE('',#1096,#1099,#1101,.T.);
#898=EDGE_CURVE('',#1099,#1075,#1102,.T.);
#899=EDGE_CURVE('',#947,#1103,#1104,.T.);
#900=EDGE_CURVE('',#1105,#1103,#1106,.F.);
#901=EDGE_CURVE('',#950,#1105,#1107,.T.);
#902=EDGE_CURVE('',#1108,#1105,#1109,.F.);
#903=EDGE_CURVE('',#952,#1108,#1110,.T.);
#904=EDGE_CURVE('',#1111,#1108,#1112,.F.);
#905=EDGE_CURVE('',#954,#1111,#1113,.T.);
#906=EDGE_CURVE('',#1114,#1111,#1115,.F.);
#907=EDGE_CURVE('',#956,#1114,#1116,.T.);
#908=EDGE_CURVE('',#1117,#1114,#1118,.F.);
#909=EDGE_CURVE('',#958,#1117,#1119,.T.);
#910=EDGE_CURVE('',#1120,#1117,#1121,.F.);
#911=EDGE_CURVE('',#960,#1120,#1122,.T.);
#912=EDGE_CURVE('',#1123,#1120,#1124,.F.);
#913=EDGE_CURVE('',#948,#1123,#1125,.T.);
#914=EDGE_CURVE('',#1103,#1123,#1126,.F.);
#915=EDGE_CURVE('',#977,#1127,#1128,.T.);
#916=EDGE_CURVE('',#1129,#1127,#1130,.T.);
#917=EDGE_CURVE('',#980,#1129,#1131,.T.);
#918=EDGE_CURVE('',#1132,#1129,#1133,.T.);
#919=EDGE_CURVE('',#982,#1132,#1134,.T.);
#920=EDGE_CURVE('',#1135,#1132,#1136,.T.);
#921=EDGE_CURVE('',#984,#1135,#1137,.T.);
#922=EDGE_CURVE('',#1138,#1135,#1139,.T.);
#923=EDGE_CURVE('',#986,#1138,#1140,.T.);
#924=EDGE_CURVE('',#1141,#1138,#1142,.T.);
#925=EDGE_CURVE('',#978,#1141,#1143,.T.);
#926=EDGE_CURVE('',#1127,#1141,#1144,.T.);
#927=EDGE_CURVE('',#970,#1145,#1146,.T.);
#928=EDGE_CURVE('',#1147,#1145,#1148,.F.);
#929=EDGE_CURVE('',#969,#1147,#1149,.T.);
#930=EDGE_CURVE('',#1150,#1147,#1151,.F.);
#931=EDGE_CURVE('',#972,#1150,#1152,.T.);
#932=EDGE_CURVE('',#1153,#1150,#1154,.F.);
#933=EDGE_CURVE('',#974,#1153,#1155,.T.);
#934=EDGE_CURVE('',#1145,#1153,#1156,.F.);
#935=EDGE_CURVE('',#1157,#1158,#1159,.T.);
#936=EDGE_CURVE('',#1158,#1160,#1161,.T.);
#937=EDGE_CURVE('',#1160,#1162,#1163,.T.);
#938=EDGE_CURVE('',#1162,#1157,#1164,.T.);
#939=EDGE_CURVE('',#1165,#1166,#1167,.T.);
#940=EDGE_CURVE('',#1166,#1158,#1168,.T.);
#941=EDGE_CURVE('',#1165,#1157,#1169,.T.);
#942=EDGE_CURVE('',#1166,#1170,#1171,.T.);
#943=EDGE_CURVE('',#1170,#1160,#1172,.T.);
#944=EDGE_CURVE('',#1170,#1173,#1174,.T.);
#945=EDGE_CURVE('',#1173,#1162,#1175,.T.);
#946=EDGE_CURVE('',#1173,#1165,#1176,.T.);
#947=VERTEX_POINT('',#1177);
#948=VERTEX_POINT('',#1178);
#949=B_SPLINE_CURVE_WITH_KNOTS('',2,
(#1179,#1180,#1181),
.UNSPECIFIED.,.F.,.F.,
(3,3),
(0.,1.),
.UNSPECIFIED.);
#950=VERTEX_POINT('',#1182);
#951=B_SPLINE_CURVE_WITH_KNOTS('',2,
(#1183,#1184,#1185),
.UNSPECIFIED.,.F.,.F.,
(3,3),
(0.,1.),
.UNSPECIFIED.);
#952=VERTEX_POINT('',#1186);
#953=B_SPLINE_CURVE_WITH_KNOTS('',2,
(#1187,#1188,#1189),
.UNSPECIFIED.,.F.,.F.,
(3,3),
(0.,1.),
.UNSPECIFIED.);
#954=VERTEX_POINT('',#1190);
#955=B_SPLINE_CURVE_WITH_KNOTS('',2,
(#1191,#1192,#1193),
.UNSPECIFIED.,.F.,.F.,
(3,3),
(0.,1.),
.UNSPECIFIED.);
#956=VERTEX_POINT('',#1194);
#957=B_SPLINE_CURVE_WITH_KNOTS('',2,
(#1195,#1196,#1197),
.UNSPECIFIED.,.F.,.F.,
(3,3),
(0.,1.),
.UNSPECIFIED.);
#958=VERTEX_POINT('',#1198);
#959=B_SPLINE_CURVE_WITH_KNOTS('',2,
(#1199,#1200,#1201),
.UNSPECIFIED.,.F.,.F.,
(3,3),
(0.,1.),
.UNSPECIFIED.);
#960=VERTEX_POINT('',#1202);
#961=B_SPLINE_CURVE_WITH_KNOTS('',2,
(#1203,#1204,#1205),
.UNSPECIFIED.,.F.,.F.,
(3,3),
(0.,1.),
.UNSPECIFIED.);
#962=B_SPLINE_CURVE_WITH_KNOTS('',2,
(#1206,#1207,#1208),
.UNSPECIFIED.,.F.,.F.,
(3,3),
(0.,1.),
.UNSPECIFIED.);
#963=VERTEX_POINT('',#1209);
#964=VERTEX_POINT('',#1210);
#965=LINE('',#1211,#1212);
#966=VERTEX_POINT('',#1214);
#967=LINE('',#1215,#1216);
#968=LINE('',#1218,#1219);
#969=VERTEX_POINT('',#1221);
#970=VERTEX_POINT('',#1222);
#971=LINE('',#1223,#1224);
#972=VERTEX_POINT('',#1226);
#973=LINE('',#1227,#1228);
#974=VERTEX_POINT('',#1230);
#975=LINE('',#1231,#1232);
#976=LINE('',#1234,#1235);
#977=VERTEX_POINT('',#1237);
#978=VERTEX_POINT('',#1238);
#979=LINE('',#1239,#1240);
#980=VERTEX_POINT('',#1242);
#981=LINE('',#1243,#1244);
#982=VERTEX_POINT('',#1246);
#983=LINE('',#1247,#1248);
#984=VERTEX_POINT('',#1250);
#985=LINE('',#1251,#1252);
#986=VERTEX_POINT('',#1254);
#987=LINE('',#1255,#1256);
#988=LINE('',#1258,#1259);
#989=VERTEX_POINT('',#1261);
#990=VERTEX_POINT('',#1262);
#991=B_SPLINE_CURVE_WITH_KNOTS('',2,
(#1263,#1264,#1265),
.UNSPECIFIED.,.F.,.F.,
(3,3),
(0.,1.),
.UNSPECIFIED.);
#992=VERTEX_POINT('',#1266);
#993=B_SPLINE_CURVE_WITH_KNOTS('',2,
(#1267,#1268,#1269),
.UNSPECIFIED.,.F.,.F.,
(3,3),
(0.,1.),
.UNSPECIFIED.);
#994=VERTEX_POINT('',#1270);
#995=B_SPLINE_CURVE_WITH_KNOTS('',2,
(#1271,#1272,#1273),
.UNSPECIFIED.,.F.,.F.,
(3,3),
(0.,1.),
.UNSPECIFIED.);
#996=VERTEX_POINT('',#1274);
#997=B_SPLINE_CURVE_WITH_KNOTS('',2,
(#1275,#1276,#1277),
.UNSPECIFIED.,.F.,.F.,
(3,3),
(0.,1.),
.UNSPECIFIED.);
#998=VERTEX_POINT('',#1278);
#999=B_SPLINE_CURVE_WITH_KNOTS('',2,
(#1279,#1280,#1281),
.UNSPECIFIED.,.F.,.F.,
(3,3),
(0.,1.),
.UNSPECIFIED.);
#1000=VERTEX_POINT('',#1282);
#1001=B_SPLINE_CURVE_WITH_KNOTS('',2,
(#1283,#1284,#1285),
.UNSPECIFIED.,.F.,.F.,
(3,3),
(0.,1.),
.UNSPECIFIED.);
#1002=VERTEX_POINT('',#1286);
#1003=B_SPLINE_CURVE_WITH_KNOTS('',2,
(#1287,#1288,#1289),
.UNSPECIFIED.,.F.,.F.,
(3,3),
(0.,1.),
.UNSPECIFIED.);
#1004=VERTEX_POINT('',#1290);
#1005=B_SPLINE_CURVE_WITH_KNOTS('',2,
(#1291,#1292,#1293),
.UNSPECIFIED.,.F.,.F.,
(3,3),
(0.,1.),
.UNSPECIFIED.);
#1006=VERTEX_POINT('',#1294);
#1007=B_SPLINE_CURVE_WITH_KNOTS('',2,
(#1295,#1296,#1297),
.UNSPECIFIED.,.F.,.F.,
(3,3),
(0.,1.),
.UNSPECIFIED.);
#1008=B_SPLINE_CURVE_WITH_KNOTS('',2,
(#1298,#1299,#1300),
.UNSPECIFIED.,.F.,.F.,
(3,3),
(0.,1.),
.UNSPECIFIED.);
#1009=VERTEX_POINT('',#1301);
#1010=VERTEX_POINT('',#1302);
#1011=LINE('',#1303,#1304);
#1012=VERTEX_POINT('',#1306);
#1013=LINE('',#1307,#1308);
#1014=VERTEX_POINT('',#1310);
#1015=LINE('',#1311,#1312);
#1016=VERTEX_POINT('',#1314);
#1017=LINE('',#1315,#1316);
#1018=VERTEX_POINT('',#1318);
#1019=LINE('',#1319,#1320);
#1020=VERTEX_POINT('',#1322);
#1021=LINE('',#1323,#1324);
#1022=VERTEX_POINT('',#1326);
#1023=LINE('',#1327,#1328);
#1024=VERTEX_POINT('',#1330);
#1025=LINE('',#1331,#1332);
#1026=VERTEX_POINT('',#1334);
#1027=LINE('',#1335,#1336);
#1028=VERTEX_POINT('',#1338);
#1029=LINE('',#1339,#1340);
#1030=LINE('',#1342,#1343);
#1031=VERTEX_POINT('',#1345);
#1032=LINE('',#1346,#1347);
#1033=VERTEX_POINT('',#1349);
#1034=LINE('',#1350,#1351);
#1035=LINE('',#1353,#1354);
#1036=VERTEX_POINT('',#1356);
#1037=LINE('',#1357,#1358);
#1038=LINE('',#1360,#1361);
#1039=VERTEX_POINT('',#1363);
#1040=LINE('',#1364,#1365);
#1041=LINE('',#1367,#1368);
#1042=VERTEX_POINT('',#1370);
#1043=LINE('',#1371,#1372);
#1044=LINE('',#1374,#1375);
#1045=VERTEX_POINT('',#1377);
#1046=LINE('',#1378,#1379);
#1047=LINE('',#1381,#1382);
#1048=VERTEX_POINT('',#1384);
#1049=LINE('',#1385,#1386);
#1050=LINE('',#1388,#1389);
#1051=VERTEX_POINT('',#1391);
#1052=LINE('',#1392,#1393);
#1053=LINE('',#1395,#1396);
#1054=VERTEX_POINT('',#1398);
#1055=LINE('',#1399,#1400);
#1056=LINE('',#1402,#1403);
#1057=VERTEX_POINT('',#1405);
#1058=LINE('',#1406,#1407);
#1059=LINE('',#1409,#1410);
#1060=VERTEX_POINT('',#1412);
#1061=LINE('',#1413,#1414);
#1062=LINE('',#1416,#1417);
#1063=LINE('',#1419,#1420);
#1064=VERTEX_POINT('',#1422);
#1065=LINE('',#1423,#1424);
#1066=VERTEX_POINT('',#1426);
#1067=LINE('',#1427,#1428);
#1068=LINE('',#1430,#1431);
#1069=VERTEX_POINT('',#1433);
#1070=LINE('',#1434,#1435);
#1071=LINE('',#1437,#1438);
#1072=LINE('',#1440,#1441);
#1073=VERTEX_POINT('',#1443);
#1074=LINE('',#1444,#1445);
#1075=VERTEX_POINT('',#1447);
#1076=B_SPLINE_CURVE_WITH_KNOTS('',2,
(#1448,#1449,#1450),
.UNSPECIFIED.,.F.,.F.,
(3,3),
(0.,1.),
.UNSPECIFIED.);
#1077=LINE('',#1451,#1452);
#1078=VERTEX_POINT('',#1454);
#1079=LINE('',#1455,#1456);
#1080=B_SPLINE_CURVE_WITH_KNOTS('',2,
(#1458,#1459,#1460),
.UNSPECIFIED.,.F.,.F.,
(3,3),
(0.,1.),
.UNSPECIFIED.);
#1081=VERTEX_POINT('',#1461);
#1082=LINE('',#1462,#1463);
#1083=B_SPLINE_CURVE_WITH_KNOTS('',2,
(#1465,#1466,#1467),
.UNSPECIFIED.,.F.,.F.,
(3,3),
(0.,1.),
.UNSPECIFIED.);
#1084=VERTEX_POINT('',#1468);
#1085=LINE('',#1469,#1470);
#1086=B_SPLINE_CURVE_WITH_KNOTS('',2,
(#1472,#1473,#1474),
.UNSPECIFIED.,.F.,.F.,
(3,3),
(0.,1.),
.UNSPECIFIED.);
#1087=VERTEX_POINT('',#1475);
#1088=LINE('',#1476,#1477);
#1089=B_SPLINE_CURVE_WITH_KNOTS('',2,
(#1479,#1480,#1481),
.UNSPECIFIED.,.F.,.F.,
(3,3),
(0.,1.),
.UNSPECIFIED.);
#1090=VERTEX_POINT('',#1482);
#1091=LINE('',#1483,#1484);
#1092=B_SPLINE_CURVE_WITH_KNOTS('',2,
(#1486,#1487,#1488),
.UNSPECIFIED.,.F.,.F.,
(3,3),
(0.,1.),
.UNSPECIFIED.);
#1093=VERTEX_POINT('',#1489);
#1094=LINE('',#1490,#1491);
#1095=B_SPLINE_CURVE_WITH_KNOTS('',2,
(#1493,#1494,#1495),
.UNSPECIFIED.,.F.,.F.,
(3,3),
(0.,1.),
.UNSPECIFIED.);
#1096=VERTEX_POINT('',#1496);
#1097=LINE('',#1497,#1498);
#1098=B_SPLINE_CURVE_WITH_KNOTS('',2,
(#1500,#1501,#1502),
.UNSPECIFIED.,.F.,.F.,
(3,3),
(0.,1.),
.UNSPECIFIED.);
#1099=VERTEX_POINT('',#1503);
#1100=LINE('',#1504,#1505);
#1101=B_SPLINE_CURVE_WITH_KNOTS('',2,
(#1507,#1508,#1509),
.UNSPECIFIED.,.F.,.F.,
(3,3),
(0.,1.),
.UNSPECIFIED.);
#1102=B_SPLINE_CURVE_WITH_KNOTS('',2,
(#1510,#1511,#1512),
.UNSPECIFIED.,.F.,.F.,
(3,3),
(0.,1.),
.UNSPECIFIED.);
#1103=VERTEX_POINT('',#1513);
#1104=LINE('',#1514,#1515);
#1105=VERTEX_POINT('',#1517);
#1106=B_SPLINE_CURVE_WITH_KNOTS('',2,
(#1518,#1519,#1520),
.UNSPECIFIED.,.F.,.F.,
(3,3),
(0.,1.),
.UNSPECIFIED.);
#1107=LINE('',#1521,#1522);
#1108=VERTEX_POINT('',#1524);
#1109=B_SPLINE_CURVE_WITH_KNOTS('',2,
(#1525,#1526,#1527),
.UNSPECIFIED.,.F.,.F.,
(3,3),
(0.,1.),
.UNSPECIFIED.);
#1110=LINE('',#1528,#1529);
#1111=VERTEX_POINT('',#1531);
#1112=B_SPLINE_CURVE_WITH_KNOTS('',2,
(#1532,#1533,#1534),
.UNSPECIFIED.,.F.,.F.,
(3,3),
(0.,1.),
.UNSPECIFIED.);
#1113=LINE('',#1535,#1536);
#1114=VERTEX_POINT('',#1538);
#1115=B_SPLINE_CURVE_WITH_KNOTS('',2,
(#1539,#1540,#1541),
.UNSPECIFIED.,.F.,.F.,
(3,3),
(0.,1.),
.UNSPECIFIED.);
#1116=LINE('',#1542,#1543);
#1117=VERTEX_POINT('',#1545);
#1118=B_SPLINE_CURVE_WITH_KNOTS('',2,
(#1546,#1547,#1548),
.UNSPECIFIED.,.F.,.F.,
(3,3),
(0.,1.),
.UNSPECIFIED.);
#1119=LINE('',#1549,#1550);
#1120=VERTEX_POINT('',#1552);
#1121=B_SPLINE_CURVE_WITH_KNOTS('',2,
(#1553,#1554,#1555),
.UNSPECIFIED.,.F.,.F.,
(3,3),
(0.,1.),
.UNSPECIFIED.);
#1122=LINE('',#1556,#1557);
#1123=VERTEX_POINT('',#1559);
#1124=B_SPLINE_CURVE_WITH_KNOTS('',2,
(#1560,#1561,#1562),
.UNSPECIFIED.,.F.,.F.,
(3,3),
(0.,1.),
.UNSPECIFIED.);
#1125=LINE('',#1563,#1564);
#1126=B_SPLINE_CURVE_WITH_KNOTS('',2,
(#1566,#1567,#1568),
.UNSPECIFIED.,.F.,.F.,
(3,3),
(0.,1.),
.UNSPECIFIED.);
#1127=VERTEX_POINT('',#1569);
#1128=LINE('',#1570,#1571);
#1129=VERTEX_POINT('',#1573);
#1130=LINE('',#1574,#1575);
#1131=LINE('',#1577,#1578);
#1132=VERTEX_POINT('',#1580);
#1133=LINE('',#1581,#1582);
#1134=LINE('',#1584,#1585);
#1135=VERTEX_POINT('',#1587);
#1136=LINE('',#1588,#1589);
#1137=LINE('',#1591,#1592);
#1138=VERTEX_POINT('',#1594);
#1139=LINE('',#1595,#1596);
#1140=LINE('',#1598,#1599);
#1141=VERTEX_POINT('',#1601);
#1142=LINE('',#1602,#1603);
#1143=LINE('',#1605,#1606);
#1144=LINE('',#1608,#1609);
#1145=VERTEX_POINT('',#1611);
#1146=LINE('',#1612,#1613);
#1147=VERTEX_POINT('',#1615);
#1148=LINE('',#1616,#1617);
#1149=LINE('',#1619,#1620);
#1150=VERTEX_POINT('',#1622);
#1151=LINE('',#1623,#1624);
#1152=LINE('',#1626,#1627);
#1153=VERTEX_POINT('',#1629);
#1154=LINE('',#1630,#1631);
#1155=LINE('',#1633,#1634);
#1156=LINE('',#1636,#1637);
#1157=VERTEX_POINT('',#1639);
#1158=VERTEX_POINT('',#1640);
#1159=LINE('',#1641,#1642);
#1160=VERTEX_POINT('',#1644);
#1161=LINE('',#1645,#1646);
#1162=VERTEX_POINT('',#1648);
#1163=LINE('',#1649,#1650);
#1164=LINE('',#1652,#1653);
#1165=VERTEX_POINT('',#1655);
#1166=VERTEX_POINT('',#1656);
#1167=LINE('',#1657,#1658);
#1168=LINE('',#1660,#1661);
#1169=LINE('',#1663,#1664);
#1170=VERTEX_POINT('',#1666);
#1171=LINE('',#1667,#1668);
#1172=LINE('',#1670,#1671);
#1173=VERTEX_POINT('',#1673);
#1174=LINE('',#1674,#1675);
#1175=LINE('',#1677,#1678);
#1176=LINE('',#1680,#1681);
#1177=CARTESIAN_POINT('',(26.4918932074383,8.66428189107276,1.));
#1178=CARTESIAN_POINT('',(25.9276692632354,6.17225417814583,1.));
#1179=CARTESIAN_POINT('',(25.9276692632354,6.17225417814583,1.));
#1180=CARTESIAN_POINT('',(26.5062799196277,7.87484790795942,1.));
#1181=CARTESIAN_POINT('',(26.4918932074383,8.66428189107276,1.));
#1182=CARTESIAN_POINT('',(25.8768031163928,9.45371587418611,1.));
#1183=CARTESIAN_POINT('',(26.4918932074383,8.66428189107276,1.));
#1184=CARTESIAN_POINT('',(26.4775064952489,9.45371587418611,1.));
#1185=CARTESIAN_POINT('',(25.8768031163928,9.45371587418611,1.));
#1186=CARTESIAN_POINT('',(24.7409303094957,8.67607240428453,1.));
#1187=CARTESIAN_POINT('',(25.8768031163928,9.45371587418611,1.));
#1188=CARTESIAN_POINT('',(25.293760653841,9.45371587418611,1.));
#1189=CARTESIAN_POINT('',(24.7409303094957,8.67607240428453,1.));
#1190=CARTESIAN_POINT('',(23.6555268006836,6.3313349123591,1.));
#1191=CARTESIAN_POINT('',(24.7409303094957,8.67607240428453,1.));
#1192=CARTESIAN_POINT('',(24.1880999974487,7.89842890208469,1.));
#1193=CARTESIAN_POINT('',(23.6555268006836,6.3313349123591,1.));
#1194=CARTESIAN_POINT('',(23.0843575348969,3.82753322293106,1.));
#1195=CARTESIAN_POINT('',(23.6555268006836,6.3313349123591,1.));
#1196=CARTESIAN_POINT('',(23.072914292609,4.61696720604441,1.));
#1197=CARTESIAN_POINT('',(23.0843575348969,3.82753322293106,1.));
#1198=CARTESIAN_POINT('',(23.6965041560408,3.03809920751945,1.));
#1199=CARTESIAN_POINT('',(23.0843575348969,3.82753322293106,1.));
#1200=CARTESIAN_POINT('',(23.0958007771847,3.03809920751945,1.));
#1201=CARTESIAN_POINT('',(23.6965041560408,3.03809920751945,1.));
#1202=CARTESIAN_POINT('',(24.8393222522235,3.82753322293106,1.));
#1203=CARTESIAN_POINT('',(23.6965041560408,3.03809920751945,1.));
#1204=CARTESIAN_POINT('',(24.279513512873,3.03809920751945,1.));
#1205=CARTESIAN_POINT('',(24.8393222522235,3.82753322293106,1.));
#1206=CARTESIAN_POINT('',(24.8393222522235,3.82753322293106,1.));
#1207=CARTESIAN_POINT('',(25.3991309592757,4.61696720604441,1.));
#1208=CARTESIAN_POINT('',(25.9276692632354,6.17225417814583,1.));
#1209=CARTESIAN_POINT('',(29.6781044271505,5.06374920751945,1.));
#1210=CARTESIAN_POINT('',(33.0132765519693,8.27446798578043,1.));
#1211=CARTESIAN_POINT('',(33.0132765519693,8.27446798578043,1.));
#1212=VECTOR('',#1213,1.);
#1213=DIRECTION('',(-0.720420410766911,-0.693537621005837,0.));
#1214=CARTESIAN_POINT('',(31.9221349014518,5.06374920751945,1.));
#1215=CARTESIAN_POINT('',(29.6781044271505,5.06374920751945,1.));
#1216=VECTOR('',#1217,1.);
#1217=DIRECTION('',(1.,0.,0.));
#1218=CARTESIAN_POINT('',(31.9221349014518,5.06374920751945,1.));
#1219=VECTOR('',#1220,1.);
#1220=DIRECTION('',(0.321769839538503,0.94681791827329,0.));
#1221=CARTESIAN_POINT('',(48.5,0.999999999999999,1.));
#1222=CARTESIAN_POINT('',(1.,0.999999999999999,1.));
#1223=CARTESIAN_POINT('',(1.,0.999999999999999,1.));
#1224=VECTOR('',#1225,1.);
#1225=DIRECTION('',(1.,0.,0.));
#1226=CARTESIAN_POINT('',(48.5,11.5,1.));
#1227=CARTESIAN_POINT('',(48.5,0.999999999999999,1.));
#1228=VECTOR('',#1229,1.);
#1229=DIRECTION('',(0.,1.,0.));
#1230=CARTESIAN_POINT('',(1.,11.5,1.));
#1231=CARTESIAN_POINT('',(48.5,11.5,1.));
#1232=VECTOR('',#1233,1.);
#1233=DIRECTION('',(-1.,0.,0.));
#1234=CARTESIAN_POINT('',(1.,11.5,1.));
#1235=VECTOR('',#1236,1.);
#1236=DIRECTION('',(0.,-1.,0.));
#1237=CARTESIAN_POINT('',(17.380801285811,9.19991431471407,1.));
#1238=CARTESIAN_POINT('',(15.044331987726,2.32478254085278,1.));
#1239=CARTESIAN_POINT('',(17.380801285811,9.19991431471407,1.));
#1240=VECTOR('',#1241,1.);
#1241=DIRECTION('',(-0.321769963312185,-0.946817876209609,0.));
#1242=CARTESIAN_POINT('',(15.7556973548327,8.95841587418611,1.));
#1243=CARTESIAN_POINT('',(15.7556973548327,8.95841587418611,1.));
#1244=VECTOR('',#1245,1.);
#1245=DIRECTION('',(0.989137866143484,0.14699075399873,0.));
#1246=CARTESIAN_POINT('',(16.013930688166,9.71829920751945,1.));
#1247=CARTESIAN_POINT('',(16.013930688166,9.71829920751945,1.));
#1248=VECTOR('',#1249,1.);
#1249=DIRECTION('',(-0.321760883930675,-0.946820961730438,0.));
#1250=CARTESIAN_POINT('',(19.8567390376485,10.3130825408528,1.));
#1251=CARTESIAN_POINT('',(19.8567390376485,10.3130825408528,1.));
#1252=VECTOR('',#1253,1.);
#1253=DIRECTION('',(-0.988232845540621,-0.152956997207341,0.));
#1254=CARTESIAN_POINT('',(17.1419486543927,2.32478254085278,1.));
#1255=CARTESIAN_POINT('',(17.1419486543927,2.32478254085278,1.));
#1256=VECTOR('',#1257,1.);
#1257=DIRECTION('',(0.32177187861683,0.946817225303488,0.));
#1258=CARTESIAN_POINT('',(15.044331987726,2.32478254085278,1.));
#1259=VECTOR('',#1260,1.);
#1260=DIRECTION('',(1.,0.,0.));
#1261=CARTESIAN_POINT('',(28.2454523366568,6.59585209884978,1.));
#1262=CARTESIAN_POINT('',(28.3942473660304,9.37372903204069,1.));
#1263=CARTESIAN_POINT('',(28.2454523366568,6.59585209884978,1.));
#1264=CARTESIAN_POINT('',(28.8501244614756,8.37510885656194,1.));
#1265=CARTESIAN_POINT('',(28.3942473660304,9.37372903204069,1.));
#1266=CARTESIAN_POINT('',(27.420332681002,4.88728868108319,1.));
#1267=CARTESIAN_POINT('',(27.420332681002,4.88728868108319,1.));
#1268=CARTESIAN_POINT('',(27.9310942470863,5.67086876551645,1.));
#1269=CARTESIAN_POINT('',(28.2454523366568,6.59585209884978,1.));
#1270=CARTESIAN_POINT('',(26.2261854100781,3.49688673174314,1.));
#1271=CARTESIAN_POINT('',(26.2261854100781,3.49688673174314,1.));
#1272=CARTESIAN_POINT('',(26.9095710826195,4.10370859664994,1.));
#1273=CARTESIAN_POINT('',(27.420332681002,4.88728868108319,1.));
#1274=CARTESIAN_POINT('',(24.6555029864368,2.48060560766186,1.));
#1275=CARTESIAN_POINT('',(24.6555029864368,2.48060560766186,1.));
#1276=CARTESIAN_POINT('',(25.4697416479662,2.83116197550602,1.));
#1277=CARTESIAN_POINT('',(26.2261854100781,3.49688673174314,1.));
#1278=CARTESIAN_POINT('',(23.0459929475263,2.13004920751945,1.));
#1279=CARTESIAN_POINT('',(23.0459929475263,2.13004920751945,1.));
#1280=CARTESIAN_POINT('',(23.8412642926091,2.13004920751945,1.));
#1281=CARTESIAN_POINT('',(24.6555029864368,2.48060560766186,1.));
#1282=CARTESIAN_POINT('',(21.1800355400341,3.09625794686992,1.));
#1283=CARTESIAN_POINT('',(21.1800355400341,3.09625794686992,1.));
#1284=CARTESIAN_POINT('',(21.6557729020035,2.13004920751945,1.));
#1285=CARTESIAN_POINT('',(23.0459929475263,2.13004920751945,1.));
#1286=CARTESIAN_POINT('',(21.2789400884942,5.75335261867379,1.));
#1287=CARTESIAN_POINT('',(21.2789400884942,5.75335261867379,1.));
#1288=CARTESIAN_POINT('',(20.7042981457664,4.0624666862204,1.));
#1289=CARTESIAN_POINT('',(21.1800355400341,3.09625794686992,1.));
#1290=CARTESIAN_POINT('',(23.4440916479662,9.0909390709512,1.));
#1291=CARTESIAN_POINT('',(23.4440916479662,9.0909390709512,1.));
#1292=CARTESIAN_POINT('',(21.9777046758648,7.80952890208469,1.));
#1293=CARTESIAN_POINT('',(21.2789400884942,5.75335261867379,1.));
#1294=CARTESIAN_POINT('',(26.5363432074383,10.3723492075194,1.));
#1295=CARTESIAN_POINT('',(26.5363432074383,10.3723492075194,1.));
#1296=CARTESIAN_POINT('',(24.9104786200677,10.3723492075194,1.));
#1297=CARTESIAN_POINT('',(23.4440916479662,9.0909390709512,1.));
#1298=CARTESIAN_POINT('',(28.3942473660304,9.37372903204069,1.));
#1299=CARTESIAN_POINT('',(27.9383703028835,10.3723492075194,1.));
#1300=CARTESIAN_POINT('',(26.5363432074383,10.3723492075194,1.));
#1301=CARTESIAN_POINT('',(35.7592216136412,10.2008992075194,1.));
#1302=CARTESIAN_POINT('',(33.7447502685584,10.2008992075194,1.));
#1303=CARTESIAN_POINT('',(35.7592216136412,10.2008992075194,1.));
#1304=VECTOR('',#1305,1.);
#1305=DIRECTION('',(-1.,0.,0.));
#1306=CARTESIAN_POINT('',(34.0134015681185,5.06374920751945,1.));
#1307=CARTESIAN_POINT('',(34.0134015681185,5.06374920751945,1.));
#1308=VECTOR('',#1309,1.);
#1309=DIRECTION('',(0.321768752364044,0.94681828774168,0.));
#1310=CARTESIAN_POINT('',(35.0040015681185,5.06374920751945,1.));
#1311=CARTESIAN_POINT('',(35.0040015681185,5.06374920751945,1.));
#1312=VECTOR('',#1313,1.);
#1313=DIRECTION('',(-1.,0.,0.));
#1314=CARTESIAN_POINT('',(34.6436059866226,4.00329920751945,1.));
#1315=CARTESIAN_POINT('',(34.6436059866226,4.00329920751945,1.));
#1316=VECTOR('',#1317,1.);
#1317=DIRECTION('',(0.321776744335451,0.946815571695395,0.));
#1318=CARTESIAN_POINT('',(33.6530059866226,4.00329920751945,1.));
#1319=CARTESIAN_POINT('',(33.6530059866226,4.00329920751945,1.));
#1320=VECTOR('',#1321,1.);
#1321=DIRECTION('',(1.,0.,0.));
#1322=CARTESIAN_POINT('',(33.0825643038068,2.32478254085278,1.));
#1323=CARTESIAN_POINT('',(33.0825643038068,2.32478254085278,1.));
#1324=VECTOR('',#1325,1.);
#1325=DIRECTION('',(0.321774308785293,0.946816399417409,0.));
#1326=CARTESIAN_POINT('',(30.9912976371401,2.32478254085278,1.));
#1327=CARTESIAN_POINT('',(30.9912976371401,2.32478254085278,1.));
#1328=VECTOR('',#1329,1.);
#1329=DIRECTION('',(1.,0.,0.));
#1330=CARTESIAN_POINT('',(31.5617393199559,4.00329920751945,1.));
#1331=CARTESIAN_POINT('',(31.5617393199559,4.00329920751945,1.));
#1332=VECTOR('',#1333,1.);
#1333=DIRECTION('',(-0.321774308785293,-0.946816399417409,0.));
#1334=CARTESIAN_POINT('',(28.0396059866226,4.00329920751945,1.));
#1335=CARTESIAN_POINT('',(28.0396059866226,4.00329920751945,1.));
#1336=VECTOR('',#1337,1.);
#1337=DIRECTION('',(1.,0.,0.));
#1338=CARTESIAN_POINT('',(28.4000015681185,5.06374920751945,1.));
#1339=CARTESIAN_POINT('',(28.4000015681185,5.06374920751945,1.));
#1340=VECTOR('',#1341,1.);
#1341=DIRECTION('',(-0.321776744335448,-0.946815571695396,0.));
#1342=CARTESIAN_POINT('',(33.7447502685584,10.2008992075194,1.));
#1343=VECTOR('',#1344,1.);
#1344=DIRECTION('',(-0.720969959374109,-0.692966317853975,0.));
#1345=CARTESIAN_POINT('',(28.4000015681185,5.06374920751945,2.));
#1346=CARTESIAN_POINT('',(28.4000015681185,5.06374920751945,1.));
#1347=VECTOR('',#1348,1.);
#1348=DIRECTION('',(0.,0.,1.));
#1349=CARTESIAN_POINT('',(33.7447502685584,10.2008992075194,2.));
#1350=CARTESIAN_POINT('',(33.7447502685584,10.2008992075194,2.));
#1351=VECTOR('',#1352,1.);
#1352=DIRECTION('',(-0.720969959374109,-0.692966317853975,0.));
#1353=CARTESIAN_POINT('',(33.7447502685584,10.2008992075194,1.));
#1354=VECTOR('',#1355,1.);
#1355=DIRECTION('',(0.,0.,1.));
#1356=CARTESIAN_POINT('',(28.0396059866226,4.00329920751945,2.));
#1357=CARTESIAN_POINT('',(28.0396059866226,4.00329920751945,1.));
#1358=VECTOR('',#1359,1.);
#1359=DIRECTION('',(0.,0.,1.));
#1360=CARTESIAN_POINT('',(28.4000015681185,5.06374920751945,2.));
#1361=VECTOR('',#1362,1.);
#1362=DIRECTION('',(-0.321776744335448,-0.946815571695396,0.));
#1363=CARTESIAN_POINT('',(31.5617393199559,4.00329920751945,2.));
#1364=CARTESIAN_POINT('',(31.5617393199559,4.00329920751945,1.));
#1365=VECTOR('',#1366,1.);
#1366=DIRECTION('',(0.,0.,1.));
#1367=CARTESIAN_POINT('',(28.0396059866226,4.00329920751945,2.));
#1368=VECTOR('',#1369,1.);
#1369=DIRECTION('',(1.,0.,0.));
#1370=CARTESIAN_POINT('',(30.9912976371401,2.32478254085278,2.));
#1371=CARTESIAN_POINT('',(30.9912976371401,2.32478254085278,1.));
#1372=VECTOR('',#1373,1.);
#1373=DIRECTION('',(0.,0.,1.));
#1374=CARTESIAN_POINT('',(31.5617393199559,4.00329920751945,2.));
#1375=VECTOR('',#1376,1.);
#1376=DIRECTION('',(-0.321774308785293,-0.946816399417409,0.));
#1377=CARTESIAN_POINT('',(33.0825643038068,2.32478254085278,2.));
#1378=CARTESIAN_POINT('',(33.0825643038068,2.32478254085278,1.));
#1379=VECTOR('',#1380,1.);
#1380=DIRECTION('',(0.,0.,1.));
#1381=CARTESIAN_POINT('',(30.9912976371401,2.32478254085278,2.));
#1382=VECTOR('',#1383,1.);
#1383=DIRECTION('',(1.,0.,0.));
#1384=CARTESIAN_POINT('',(33.6530059866226,4.00329920751945,2.));
#1385=CARTESIAN_POINT('',(33.6530059866226,4.00329920751945,1.));
#1386=VECTOR('',#1387,1.);
#1387=DIRECTION('',(0.,0.,1.));
#1388=CARTESIAN_POINT('',(33.0825643038068,2.32478254085278,2.));
#1389=VECTOR('',#1390,1.);
#1390=DIRECTION('',(0.321774308785293,0.946816399417409,0.));
#1391=CARTESIAN_POINT('',(34.6436059866226,4.00329920751945,2.));
#1392=CARTESIAN_POINT('',(34.6436059866226,4.00329920751945,1.));
#1393=VECTOR('',#1394,1.);
#1394=DIRECTION('',(0.,0.,1.));
#1395=CARTESIAN_POINT('',(33.6530059866226,4.00329920751945,2.));
#1396=VECTOR('',#1397,1.);
#1397=DIRECTION('',(1.,0.,0.));
#1398=CARTESIAN_POINT('',(35.0040015681185,5.06374920751945,2.));
#1399=CARTESIAN_POINT('',(35.0040015681185,5.06374920751945,1.));
#1400=VECTOR('',#1401,1.);
#1401=DIRECTION('',(0.,0.,1.));
#1402=CARTESIAN_POINT('',(34.6436059866226,4.00329920751945,2.));
#1403=VECTOR('',#1404,1.);
#1404=DIRECTION('',(0.321776744335451,0.946815571695395,0.));
#1405=CARTESIAN_POINT('',(34.0134015681185,5.06374920751945,2.));
#1406=CARTESIAN_POINT('',(34.0134015681185,5.06374920751945,1.));
#1407=VECTOR('',#1408,1.);
#1408=DIRECTION('',(0.,0.,1.));
#1409=CARTESIAN_POINT('',(35.0040015681185,5.06374920751945,2.));
#1410=VECTOR('',#1411,1.);
#1411=DIRECTION('',(-1.,0.,0.));
#1412=CARTESIAN_POINT('',(35.7592216136412,10.2008992075194,2.));
#1413=CARTESIAN_POINT('',(35.7592216136412,10.2008992075194,1.));
#1414=VECTOR('',#1415,1.);
#1415=DIRECTION('',(0.,0.,1.));
#1416=CARTESIAN_POINT('',(34.0134015681185,5.06374920751945,2.));
#1417=VECTOR('',#1418,1.);
#1418=DIRECTION('',(0.321768752364044,0.94681828774168,0.));
#1419=CARTESIAN_POINT('',(35.7592216136412,10.2008992075194,2.));
#1420=VECTOR('',#1421,1.);
#1421=DIRECTION('',(-1.,0.,0.));
#1422=CARTESIAN_POINT('',(29.6781044271505,5.06374920751945,2.));
#1423=CARTESIAN_POINT('',(29.6781044271505,5.06374920751945,1.));
#1424=VECTOR('',#1425,1.);
#1425=DIRECTION('',(0.,0.,1.));
#1426=CARTESIAN_POINT('',(31.9221349014518,5.06374920751945,2.));
#1427=CARTESIAN_POINT('',(29.6781044271505,5.06374920751945,2.));
#1428=VECTOR('',#1429,1.);
#1429=DIRECTION('',(1.,0.,0.));
#1430=CARTESIAN_POINT('',(31.9221349014518,5.06374920751945,1.));
#1431=VECTOR('',#1432,1.);
#1432=DIRECTION('',(0.,0.,1.));
#1433=CARTESIAN_POINT('',(33.0132765519693,8.27446798578043,2.));
#1434=CARTESIAN_POINT('',(31.9221349014518,5.06374920751945,2.));
#1435=VECTOR('',#1436,1.);
#1436=DIRECTION('',(0.321769839538503,0.94681791827329,0.));
#1437=CARTESIAN_POINT('',(33.0132765519693,8.27446798578043,1.));
#1438=VECTOR('',#1439,1.);
#1439=DIRECTION('',(0.,0.,1.));
#1440=CARTESIAN_POINT('',(33.0132765519693,8.27446798578043,2.));
#1441=VECTOR('',#1442,1.);
#1442=DIRECTION('',(-0.720420410766911,-0.693537621005837,0.));
#1443=CARTESIAN_POINT('',(26.5363432074383,10.3723492075194,2.));
#1444=CARTESIAN_POINT('',(26.5363432074383,10.3723492075194,1.));
#1445=VECTOR('',#1446,1.);
#1446=DIRECTION('',(0.,0.,1.));
#1447=CARTESIAN_POINT('',(28.3942473660304,9.37372903204069,2.));
#1448=CARTESIAN_POINT('',(28.3942473660304,9.37372903204069,2.));
#1449=CARTESIAN_POINT('',(27.9383703028835,10.3723492075194,2.));
#1450=CARTESIAN_POINT('',(26.5363432074383,10.3723492075194,2.));
#1451=CARTESIAN_POINT('',(28.3942473660304,9.37372903204069,1.));
#1452=VECTOR('',#1453,1.);
#1453=DIRECTION('',(0.,0.,1.));
#1454=CARTESIAN_POINT('',(23.4440916479662,9.0909390709512,2.));
#1455=CARTESIAN_POINT('',(23.4440916479662,9.0909390709512,1.));
#1456=VECTOR('',#1457,1.);
#1457=DIRECTION('',(0.,0.,1.));
#1458=CARTESIAN_POINT('',(26.5363432074383,10.3723492075194,2.));
#1459=CARTESIAN_POINT('',(24.9104786200677,10.3723492075194,2.));
#1460=CARTESIAN_POINT('',(23.4440916479662,9.0909390709512,2.));
#1461=CARTESIAN_POINT('',(21.2789400884942,5.75335261867379,2.));
#1462=CARTESIAN_POINT('',(21.2789400884942,5.75335261867379,1.));
#1463=VECTOR('',#1464,1.);
#1464=DIRECTION('',(0.,0.,1.));
#1465=CARTESIAN_POINT('',(23.4440916479662,9.0909390709512,2.));
#1466=CARTESIAN_POINT('',(21.9777046758648,7.80952890208469,2.));
#1467=CARTESIAN_POINT('',(21.2789400884942,5.75335261867379,2.));
#1468=CARTESIAN_POINT('',(21.1800355400341,3.09625794686992,2.));
#1469=CARTESIAN_POINT('',(21.1800355400341,3.09625794686992,1.));
#1470=VECTOR('',#1471,1.);
#1471=DIRECTION('',(0.,0.,1.));
#1472=CARTESIAN_POINT('',(21.2789400884942,5.75335261867379,2.));
#1473=CARTESIAN_POINT('',(20.7042981457664,4.0624666862204,2.));
#1474=CARTESIAN_POINT('',(21.1800355400341,3.09625794686992,2.));
#1475=CARTESIAN_POINT('',(23.0459929475263,2.13004920751945,2.));
#1476=CARTESIAN_POINT('',(23.0459929475263,2.13004920751945,1.));
#1477=VECTOR('',#1478,1.);
#1478=DIRECTION('',(0.,0.,1.));
#1479=CARTESIAN_POINT('',(21.1800355400341,3.09625794686992,2.));
#1480=CARTESIAN_POINT('',(21.6557729020035,2.13004920751945,2.));
#1481=CARTESIAN_POINT('',(23.0459929475263,2.13004920751945,2.));
#1482=CARTESIAN_POINT('',(24.6555029864368,2.48060560766186,2.));
#1483=CARTESIAN_POINT('',(24.6555029864368,2.48060560766186,1.));
#1484=VECTOR('',#1485,1.);
#1485=DIRECTION('',(0.,0.,1.));
#1486=CARTESIAN_POINT('',(23.0459929475263,2.13004920751945,2.));
#1487=CARTESIAN_POINT('',(23.8412642926091,2.13004920751945,2.));
#1488=CARTESIAN_POINT('',(24.6555029864368,2.48060560766186,2.));
#1489=CARTESIAN_POINT('',(26.2261854100781,3.49688673174314,2.));
#1490=CARTESIAN_POINT('',(26.2261854100781,3.49688673174314,1.));
#1491=VECTOR('',#1492,1.);
#1492=DIRECTION('',(0.,0.,1.));
#1493=CARTESIAN_POINT('',(24.6555029864368,2.48060560766186,2.));
#1494=CARTESIAN_POINT('',(25.4697416479662,2.83116197550602,2.));
#1495=CARTESIAN_POINT('',(26.2261854100781,3.49688673174314,2.));
#1496=CARTESIAN_POINT('',(27.420332681002,4.88728868108319,2.));
#1497=CARTESIAN_POINT('',(27.420332681002,4.88728868108319,1.));
#1498=VECTOR('',#1499,1.);
#1499=DIRECTION('',(0.,0.,1.));
#1500=CARTESIAN_POINT('',(26.2261854100781,3.49688673174314,2.));
#1501=CARTESIAN_POINT('',(26.9095710826195,4.10370859664994,2.));
#1502=CARTESIAN_POINT('',(27.420332681002,4.88728868108319,2.));
#1503=CARTESIAN_POINT('',(28.2454523366568,6.59585209884978,2.));
#1504=CARTESIAN_POINT('',(28.2454523366568,6.59585209884978,1.));
#1505=VECTOR('',#1506,1.);
#1506=DIRECTION('',(0.,0.,1.));
#1507=CARTESIAN_POINT('',(27.420332681002,4.88728868108319,2.));
#1508=CARTESIAN_POINT('',(27.9310942470863,5.67086876551645,2.));
#1509=CARTESIAN_POINT('',(28.2454523366568,6.59585209884978,2.));
#1510=CARTESIAN_POINT('',(28.2454523366568,6.59585209884978,2.));
#1511=CARTESIAN_POINT('',(28.8501244614756,8.37510885656194,2.));
#1512=CARTESIAN_POINT('',(28.3942473660304,9.37372903204069,2.));
#1513=CARTESIAN_POINT('',(26.4918932074383,8.66428189107276,2.));
#1514=CARTESIAN_POINT('',(26.4918932074383,8.66428189107276,1.));
#1515=VECTOR('',#1516,1.);
#1516=DIRECTION('',(0.,0.,1.));
#1517=CARTESIAN_POINT('',(25.8768031163928,9.45371587418611,2.));
#1518=CARTESIAN_POINT('',(26.4918932074383,8.66428189107276,2.));
#1519=CARTESIAN_POINT('',(26.4775064952489,9.45371587418611,2.));
#1520=CARTESIAN_POINT('',(25.8768031163928,9.45371587418611,2.));
#1521=CARTESIAN_POINT('',(25.8768031163928,9.45371587418611,1.));
#1522=VECTOR('',#1523,1.);
#1523=DIRECTION('',(0.,0.,1.));
#1524=CARTESIAN_POINT('',(24.7409303094957,8.67607240428453,2.));
#1525=CARTESIAN_POINT('',(25.8768031163928,9.45371587418611,2.));
#1526=CARTESIAN_POINT('',(25.293760653841,9.45371587418611,2.));
#1527=CARTESIAN_POINT('',(24.7409303094957,8.67607240428453,2.));
#1528=CARTESIAN_POINT('',(24.7409303094957,8.67607240428453,1.));
#1529=VECTOR('',#1530,1.);
#1530=DIRECTION('',(0.,0.,1.));
#1531=CARTESIAN_POINT('',(23.6555268006836,6.3313349123591,2.));
#1532=CARTESIAN_POINT('',(24.7409303094957,8.67607240428453,2.));
#1533=CARTESIAN_POINT('',(24.1880999974487,7.89842890208469,2.));
#1534=CARTESIAN_POINT('',(23.6555268006836,6.3313349123591,2.));
#1535=CARTESIAN_POINT('',(23.6555268006836,6.3313349123591,1.));
#1536=VECTOR('',#1537,1.);
#1537=DIRECTION('',(0.,0.,1.));
#1538=CARTESIAN_POINT('',(23.0843575348969,3.82753322293106,2.));
#1539=CARTESIAN_POINT('',(23.6555268006836,6.3313349123591,2.));
#1540=CARTESIAN_POINT('',(23.072914292609,4.61696720604441,2.));
#1541=CARTESIAN_POINT('',(23.0843575348969,3.82753322293106,2.));
#1542=CARTESIAN_POINT('',(23.0843575348969,3.82753322293106,1.));
#1543=VECTOR('',#1544,1.);
#1544=DIRECTION('',(0.,0.,1.));
#1545=CARTESIAN_POINT('',(23.6965041560408,3.03809920751945,2.));
#1546=CARTESIAN_POINT('',(23.0843575348969,3.82753322293106,2.));
#1547=CARTESIAN_POINT('',(23.0958007771847,3.03809920751945,2.));
#1548=CARTESIAN_POINT('',(23.6965041560408,3.03809920751945,2.));
#1549=CARTESIAN_POINT('',(23.6965041560408,3.03809920751945,1.));
#1550=VECTOR('',#1551,1.);
#1551=DIRECTION('',(0.,0.,1.));
#1552=CARTESIAN_POINT('',(24.8393222522235,3.82753322293106,2.));
#1553=CARTESIAN_POINT('',(23.6965041560408,3.03809920751945,2.));
#1554=CARTESIAN_POINT('',(24.279513512873,3.03809920751945,2.));
#1555=CARTESIAN_POINT('',(24.8393222522235,3.82753322293106,2.));
#1556=CARTESIAN_POINT('',(24.8393222522235,3.82753322293106,1.));
#1557=VECTOR('',#1558,1.);
#1558=DIRECTION('',(0.,0.,1.));
#1559=CARTESIAN_POINT('',(25.9276692632354,6.17225417814583,2.));
#1560=CARTESIAN_POINT('',(24.8393222522235,3.82753322293106,2.));
#1561=CARTESIAN_POINT('',(25.3991309592757,4.61696720604441,2.));
#1562=CARTESIAN_POINT('',(25.9276692632354,6.17225417814583,2.));
#1563=CARTESIAN_POINT('',(25.9276692632354,6.17225417814583,1.));
#1564=VECTOR('',#1565,1.);
#1565=DIRECTION('',(0.,0.,1.));
#1566=CARTESIAN_POINT('',(25.9276692632354,6.17225417814583,2.));
#1567=CARTESIAN_POINT('',(26.5062799196277,7.87484790795942,2.));
#1568=CARTESIAN_POINT('',(26.4918932074383,8.66428189107276,2.));
#1569=CARTESIAN_POINT('',(17.380801285811,9.19991431471407,2.));
#1570=CARTESIAN_POINT('',(17.380801285811,9.19991431471407,1.));
#1571=VECTOR('',#1572,1.);
#1572=DIRECTION('',(0.,0.,1.));
#1573=CARTESIAN_POINT('',(15.7556973548327,8.95841587418611,2.));
#1574=CARTESIAN_POINT('',(15.7556973548327,8.95841587418611,2.));
#1575=VECTOR('',#1576,1.);
#1576=DIRECTION('',(0.989137866143484,0.14699075399873,0.));
#1577=CARTESIAN_POINT('',(15.7556973548327,8.95841587418611,1.));
#1578=VECTOR('',#1579,1.);
#1579=DIRECTION('',(0.,0.,1.));
#1580=CARTESIAN_POINT('',(16.013930688166,9.71829920751945,2.));
#1581=CARTESIAN_POINT('',(16.013930688166,9.71829920751945,2.));
#1582=VECTOR('',#1583,1.);
#1583=DIRECTION('',(-0.321760883930675,-0.946820961730438,0.));
#1584=CARTESIAN_POINT('',(16.013930688166,9.71829920751945,1.));
#1585=VECTOR('',#1586,1.);
#1586=DIRECTION('',(0.,0.,1.));
#1587=CARTESIAN_POINT('',(19.8567390376485,10.3130825408528,2.));
#1588=CARTESIAN_POINT('',(19.8567390376485,10.3130825408528,2.));
#1589=VECTOR('',#1590,1.);
#1590=DIRECTION('',(-0.988232845540621,-0.152956997207341,0.));
#1591=CARTESIAN_POINT('',(19.8567390376485,10.3130825408528,1.));
#1592=VECTOR('',#1593,1.);
#1593=DIRECTION('',(0.,0.,1.));
#1594=CARTESIAN_POINT('',(17.1419486543927,2.32478254085278,2.));
#1595=CARTESIAN_POINT('',(17.1419486543927,2.32478254085278,2.));
#1596=VECTOR('',#1597,1.);
#1597=DIRECTION('',(0.32177187861683,0.946817225303488,0.));
#1598=CARTESIAN_POINT('',(17.1419486543927,2.32478254085278,1.));
#1599=VECTOR('',#1600,1.);
#1600=DIRECTION('',(0.,0.,1.));
#1601=CARTESIAN_POINT('',(15.044331987726,2.32478254085278,2.));
#1602=CARTESIAN_POINT('',(15.044331987726,2.32478254085278,2.));
#1603=VECTOR('',#1604,1.);
#1604=DIRECTION('',(1.,0.,0.));
#1605=CARTESIAN_POINT('',(15.044331987726,2.32478254085278,1.));
#1606=VECTOR('',#1607,1.);
#1607=DIRECTION('',(0.,0.,1.));
#1608=CARTESIAN_POINT('',(17.380801285811,9.19991431471407,2.));
#1609=VECTOR('',#1610,1.);
#1610=DIRECTION('',(-0.321769963312185,-0.946817876209609,0.));
#1611=CARTESIAN_POINT('',(1.,0.999999999999999,2.));
#1612=CARTESIAN_POINT('',(1.,0.999999999999999,1.));
#1613=VECTOR('',#1614,1.);
#1614=DIRECTION('',(0.,0.,1.));
#1615=CARTESIAN_POINT('',(48.5,0.999999999999999,2.));
#1616=CARTESIAN_POINT('',(1.,0.999999999999999,2.));
#1617=VECTOR('',#1618,1.);
#1618=DIRECTION('',(1.,0.,0.));
#1619=CARTESIAN_POINT('',(48.5,0.999999999999999,1.));
#1620=VECTOR('',#1621,1.);
#1621=DIRECTION('',(0.,0.,1.));
#1622=CARTESIAN_POINT('',(48.5,11.5,2.));
#1623=CARTESIAN_POINT('',(48.5,0.999999999999999,2.));
#1624=VECTOR('',#1625,1.);
#1625=DIRECTION('',(0.,1.,0.));
#1626=CARTESIAN_POINT('',(48.5,11.5,1.));
#1627=VECTOR('',#1628,1.);
#1628=DIRECTION('',(0.,0.,1.));
#1629=CARTESIAN_POINT('',(1.,11.5,2.));
#1630=CARTESIAN_POINT('',(48.5,11.5,2.));
#1631=VECTOR('',#1632,1.);
#1632=DIRECTION('',(-1.,0.,0.));
#1633=CARTESIAN_POINT('',(1.,11.5,1.));
#1634=VECTOR('',#1635,1.);
#1635=DIRECTION('',(0.,0.,1.));
#1636=CARTESIAN_POINT('',(1.,11.5,2.));
#1637=VECTOR('',#1638,1.);
#1638=DIRECTION('',(0.,-1.,0.));
#1639=CARTESIAN_POINT('',(0.,12.5,2.));
#1640=CARTESIAN_POINT('',(0.,0.,2.));
#1641=CARTESIAN_POINT('',(-4.08551437129934E-34,12.5,2.));
#1642=VECTOR('',#1643,1.);
#1643=DIRECTION('',(3.26841149703947E-35,-1.,0.));
#1644=CARTESIAN_POINT('',(49.5,0.,2.));
#1645=CARTESIAN_POINT('',(0.,0.,2.));
#1646=VECTOR('',#1647,1.);
#1647=DIRECTION('',(1.,0.,0.));
#1648=CARTESIAN_POINT('',(49.5,12.5,2.));
#1649=CARTESIAN_POINT('',(49.5,0.,2.));
#1650=VECTOR('',#1651,1.);
#1651=DIRECTION('',(0.,1.,0.));
#1652=CARTESIAN_POINT('',(49.5,12.5,2.));
#1653=VECTOR('',#1654,1.);
#1654=DIRECTION('',(-1.,-3.58859967555606E-17,0.));
#1655=CARTESIAN_POINT('',(-8.17102874259867E-34,12.5,0.));
#1656=CARTESIAN_POINT('',(0.,0.,0.));
#1657=CARTESIAN_POINT('',(-8.17102874259867E-34,12.5,0.));
#1658=VECTOR('',#1659,1.);
#1659=DIRECTION('',(6.53682299407893E-35,-1.,0.));
#1660=CARTESIAN_POINT('',(0.,0.,0.));
#1661=VECTOR('',#1662,1.);
#1662=DIRECTION('',(0.,0.,1.));
#1663=CARTESIAN_POINT('',(-4.08551437129933E-34,12.5,0.));
#1664=VECTOR('',#1665,1.);
#1665=DIRECTION('',(-4.27642353614751E-50,0.,1.));
#1666=CARTESIAN_POINT('',(49.5,-8.88178419700125E-16,0.));
#1667=CARTESIAN_POINT('',(0.,0.,0.));
#1668=VECTOR('',#1669,1.);
#1669=DIRECTION('',(1.,0.,0.));
#1670=CARTESIAN_POINT('',(49.5,-8.88178419700125E-16,0.));
#1671=VECTOR('',#1672,1.);
#1672=DIRECTION('',(0.,4.44089209850063E-16,1.));
#1673=CARTESIAN_POINT('',(49.5,12.5,0.));
#1674=CARTESIAN_POINT('',(49.5,-1.77635683940025E-15,0.));
#1675=VECTOR('',#1676,1.);
#1676=DIRECTION('',(0.,1.,0.));
#1677=CARTESIAN_POINT('',(49.5,12.5,0.));
#1678=VECTOR('',#1679,1.);
#1679=DIRECTION('',(0.,0.,1.));
#1680=CARTESIAN_POINT('',(49.5,12.5,0.));
#1681=VECTOR('',#1682,1.);
#1682=DIRECTION('',(-1.,-3.58859967555606E-17,0.));
ENDSEC;
END-ISO-10303-21;
