ISO-10303-21;
HEADER;
FILE_DESCRIPTION(('STEP AP242'),
    '1');
FILE_NAME('NumberTablet_107',
    '',
    ('UNSPECIFIED'),
    ('UNSPECIFIED'),
    'C3D Converter',
    'C3D Toolkit',
    '');
FILE_SCHEMA(('AP242_MANAGED_MODEL_BASED_3D_ENGINEERING_MIM_LF { 1 0 10303 442 1 1 4 }'));
ENDSEC;

DATA;
#1=PRODUCT_DEFINITION('','UNSPECIFIED',#28,#31);
#2=SHAPE_DEFINITION_REPRESENTATION(#26,#3);
#3=SHAPE_REPRESENTATION('NONE',(#4),#8);
#4=AXIS2_PLACEMENT_3D('',#5,#6,#7);
#5=CARTESIAN_POINT('',(0.,0.,0.));
#6=DIRECTION('',(0.,0.,1.));
#7=DIRECTION('',(1.,0.,0.));
#8=(GEOMETRIC_REPRESENTATION_CONTEXT(3)GLOBAL_UNCERTAINTY_ASSIGNED_CONTEXT((#10))
GLOBAL_UNIT_ASSIGNED_CONTEXT((#9,#11,#12))REPRESENTATION_CONTEXT('NONE','NONE'));
#9=(LENGTH_UNIT()NAMED_UNIT(*)SI_UNIT(.MILLI.,.METRE.));
#10=UNCERTAINTY_MEASURE_WITH_UNIT(LENGTH_MEASURE(1.E-5),#9,'NONE','NONE');
#11=(NAMED_UNIT(*)PLANE_ANGLE_UNIT()SI_UNIT($,.RADIAN.));
#12=(NAMED_UNIT(*)SI_UNIT($,.STERADIAN.)SOLID_ANGLE_UNIT());
#13=MANIFOLD_SOLID_BREP('',#14);
#14=CLOSED_SHELL('',(#53,#54,#55,#56,#57,#58,#59,#60,#61,#62,#63,#64,#65,#66,#67,
#68,#69,#70,#71,#72,#73,#74,#75,#76,#77,#78,#79,#80,#81,#82,#83,#84,#85,#86,#87,
#88,#89,#90,#91,#92,#93,#94,#95,#96,#97,#98));
#15=COLOUR_RGB('',0.564705882352941,0.564705882352941,0.564705882352941);
#16=FILL_AREA_STYLE_COLOUR('',#15);
#17=FILL_AREA_STYLE($,(#16));
#18=SURFACE_STYLE_FILL_AREA(#17);
#19=SURFACE_SIDE_STYLE('',(#18));
#20=SURFACE_STYLE_USAGE(.BOTH.,#19);
#21=PRESENTATION_STYLE_ASSIGNMENT((#20));
#22=MECHANICAL_DESIGN_GEOMETRIC_PRESENTATION_REPRESENTATION('NONE',(#23),#8);
#23=STYLED_ITEM('',(#21),#13);
#24=ADVANCED_BREP_SHAPE_REPRESENTATION('NONE',(#13),#8);
#25=SHAPE_REPRESENTATION_RELATIONSHIP('','',#3,#24);
#26=PRODUCT_DEFINITION_SHAPE('NONE','NONE',#1);
#27=MECHANICAL_CONTEXT('NONE',#32,'mechanical');
#28=PRODUCT_DEFINITION_FORMATION_WITH_SPECIFIED_SOURCE('ANY','UNSPECIFIED',#29,.NOT_KNOWN.);
#29=PRODUCT('','\X2\0414043504420430043B044C\X0\','NONE',(#27));
#30=PRODUCT_RELATED_PRODUCT_CATEGORY('detail','',(#29));
#31=DESIGN_CONTEXT('detailed design',#32,'design');
#32=APPLICATION_CONTEXT('configuration controlled 3d designs of mechanical parts and assemblies');
#33=APPLICATION_PROTOCOL_DEFINITION('international standard','config_control_design',
1994,#32);
#34=CC_DESIGN_DATE_AND_TIME_ASSIGNMENT(#35,#39,(#1));
#35=DATE_AND_TIME(#36,#37);
#36=CALENDAR_DATE(0,1,1);
#37=LOCAL_TIME(0,0,0.,#38);
#38=COORDINATED_UNIVERSAL_TIME_OFFSET(0,0,.AHEAD.);
#39=DATE_TIME_ROLE('creation_date');
#40=CC_DESIGN_APPROVAL(#41,(#1));
#41=APPROVAL(#42,'UNSPECIFIED');
#42=APPROVAL_STATUS('not_yet_approved');
#43=APPROVAL_DATE_TIME(#44,#41);
#44=DATE_AND_TIME(#45,#46);
#45=CALENDAR_DATE(0,1,1);
#46=LOCAL_TIME(0,0,0.,#47);
#47=COORDINATED_UNIVERSAL_TIME_OFFSET(0,0,.AHEAD.);
#48=PERSON('UNSPECIFIED','Cybermeatball','UNSPECIFIED',('UNSPECIFIED'),('UNSPECIFIED'),
('UNSPECIFIED'));
#49=ORGANIZATION('UNSPECIFIED','UNSPECIFIED','UNSPECIFIED');
#50=PERSON_AND_ORGANIZATION(#48,#49);
#51=PERSON_AND_ORGANIZATION_ROLE('creator');
#52=CC_DESIGN_PERSON_AND_ORGANIZATION_ASSIGNMENT(#50,#51,(#28,#1));
#53=ADVANCED_FACE('',(#99),#101,.T.);
#54=ADVANCED_FACE('',(#106,#108,#110,#112),#114,.T.);
#55=ADVANCED_FACE('',(#119),#121,.T.);
#56=ADVANCED_FACE('',(#126),#128,.T.);
#57=ADVANCED_FACE('',(#133),#135,.T.);
#58=ADVANCED_FACE('',(#140),#142,.T.);
#59=ADVANCED_FACE('',(#147),#149,.T.);
#60=ADVANCED_FACE('',(#154),#156,.T.);
#61=ADVANCED_FACE('',(#161),#163,.T.);
#62=ADVANCED_FACE('',(#168),#170,.T.);
#63=ADVANCED_FACE('',(#174),#176,.T.);
#64=ADVANCED_FACE('',(#180),#182,.T.);
#65=ADVANCED_FACE('',(#186),#188,.T.);
#66=ADVANCED_FACE('',(#192),#194,.T.);
#67=ADVANCED_FACE('',(#198),#200,.T.);
#68=ADVANCED_FACE('',(#204),#206,.T.);
#69=ADVANCED_FACE('',(#210),#212,.T.);
#70=ADVANCED_FACE('',(#216),#218,.T.);
#71=ADVANCED_FACE('',(#222),#224,.T.);
#72=ADVANCED_FACE('',(#228),#230,.F.);
#73=ADVANCED_FACE('',(#234),#236,.F.);
#74=ADVANCED_FACE('',(#240),#242,.F.);
#75=ADVANCED_FACE('',(#246),#248,.F.);
#76=ADVANCED_FACE('',(#252),#254,.F.);
#77=ADVANCED_FACE('',(#258),#260,.F.);
#78=ADVANCED_FACE('',(#264),#266,.F.);
#79=ADVANCED_FACE('',(#270),#272,.F.);
#80=ADVANCED_FACE('',(#276),#278,.T.);
#81=ADVANCED_FACE('',(#283),#285,.T.);
#82=ADVANCED_FACE('',(#290),#292,.T.);
#83=ADVANCED_FACE('',(#297),#299,.T.);
#84=ADVANCED_FACE('',(#304),#306,.T.);
#85=ADVANCED_FACE('',(#311),#313,.T.);
#86=ADVANCED_FACE('',(#318),#320,.F.);
#87=ADVANCED_FACE('',(#325),#327,.F.);
#88=ADVANCED_FACE('',(#332),#334,.F.);
#89=ADVANCED_FACE('',(#339),#341,.F.);
#90=ADVANCED_FACE('',(#346),#348,.T.);
#91=ADVANCED_FACE('',(#353,#355),#357,.T.);
#92=ADVANCED_FACE('',(#362),#364,.T.);
#93=ADVANCED_FACE('',(#369,#371),#373,.T.);
#94=ADVANCED_FACE('',(#378),#380,.T.);
#95=ADVANCED_FACE('',(#385),#387,.T.);
#96=ADVANCED_FACE('',(#392),#394,.T.);
#97=ADVANCED_FACE('',(#399),#401,.T.);
#98=ADVANCED_FACE('',(#406),#408,.F.);
#99=FACE_BOUND('',#100,.T.);
#100=EDGE_LOOP('',(#413,#414,#415,#416,#417,#418,#419,#420));
#101=PLANE('',#102);
#102=AXIS2_PLACEMENT_3D('',#103,#104,#105);
#103=CARTESIAN_POINT('',(0.,0.,1.));
#104=DIRECTION('',(0.,0.,1.));
#105=DIRECTION('',(1.,0.,0.));
#106=FACE_BOUND('',#107,.T.);
#107=EDGE_LOOP('',(#421,#422,#423,#424));
#108=FACE_BOUND('',#109,.T.);
#109=EDGE_LOOP('',(#425,#426,#427,#428,#429,#430));
#110=FACE_BOUND('',#111,.T.);
#111=EDGE_LOOP('',(#431,#432,#433,#434,#435,#436,#437,#438,#439,#440));
#112=FACE_BOUND('',#113,.T.);
#113=EDGE_LOOP('',(#441,#442,#443,#444,#445,#446,#447));
#114=PLANE('',#115);
#115=AXIS2_PLACEMENT_3D('',#116,#117,#118);
#116=CARTESIAN_POINT('',(0.,0.,1.));
#117=DIRECTION('',(0.,0.,1.));
#118=DIRECTION('',(1.,0.,0.));
#119=FACE_BOUND('',#120,.T.);
#120=EDGE_LOOP('',(#448,#449,#450,#451));
#121=PLANE('',#122);
#122=AXIS2_PLACEMENT_3D('',#123,#124,#125);
#123=CARTESIAN_POINT('',(30.1812760011151,9.25263254085278,1.));
#124=DIRECTION('',(0.,-1.,0.));
#125=DIRECTION('',(1.,0.,0.));
#126=FACE_BOUND('',#127,.T.);
#127=EDGE_LOOP('',(#452,#453,#454,#455));
#128=PLANE('',#129);
#129=AXIS2_PLACEMENT_3D('',#130,#131,#132);
#130=CARTESIAN_POINT('',(30.5035385091897,10.2008992075194,1.));
#131=DIRECTION('',(-0.946817820649763,0.321770126798672,0.));
#132=DIRECTION('',(-0.321770126798672,-0.946817820649763,0.));
#133=FACE_BOUND('',#134,.T.);
#134=EDGE_LOOP('',(#456,#457,#458,#459));
#135=PLANE('',#136);
#136=AXIS2_PLACEMENT_3D('',#137,#138,#139);
#137=CARTESIAN_POINT('',(36.0873051758564,10.2008992075194,1.));
#138=DIRECTION('',(0.,1.,0.));
#139=DIRECTION('',(-1.,0.,0.));
#140=FACE_BOUND('',#141,.T.);
#141=EDGE_LOOP('',(#460,#461,#462,#463));
#142=PLANE('',#143);
#143=AXIS2_PLACEMENT_3D('',#144,#145,#146);
#144=CARTESIAN_POINT('',(35.7109353902456,9.09341954525246,1.));
#145=DIRECTION('',(0.946817889748262,-0.321769923474286,0.));
#146=DIRECTION('',(0.321769923474286,0.946817889748262,0.));
#147=FACE_BOUND('',#148,.T.);
#148=EDGE_LOOP('',(#464,#465,#466,#467));
#149=PLANE('',#150);
#150=AXIS2_PLACEMENT_3D('',#151,#152,#153);
#151=CARTESIAN_POINT('',(30.3949270407632,2.32478254085278,1.));
#152=DIRECTION('',(0.786442865888915,-0.617663030051525,0.));
#153=DIRECTION('',(0.617663030051525,0.786442865888915,0.));
#154=FACE_BOUND('',#155,.T.);
#155=EDGE_LOOP('',(#468,#469,#470,#471));
#156=PLANE('',#157);
#157=AXIS2_PLACEMENT_3D('',#158,#159,#160);
#158=CARTESIAN_POINT('',(28.0683796398832,2.32478254085278,1.));
#159=DIRECTION('',(0.,-1.,0.));
#160=DIRECTION('',(1.,0.,0.));
#161=FACE_BOUND('',#162,.T.);
#162=EDGE_LOOP('',(#472,#473,#474,#475));
#163=PLANE('',#164);
#164=AXIS2_PLACEMENT_3D('',#165,#166,#167);
#165=CARTESIAN_POINT('',(33.5621549159444,9.25263254085278,1.));
#166=DIRECTION('',(-0.783537678503585,0.6213442736239,0.));
#167=DIRECTION('',(-0.6213442736239,-0.783537678503585,0.));
#168=FACE_BOUND('',#169,.T.);
#169=EDGE_LOOP('',(#476,#477,#478,#479));
#170=SURFACE_OF_LINEAR_EXTRUSION('',#171,#172);
#171=B_SPLINE_CURVE_WITH_KNOTS('',2,
(#480,#481,#482),
.UNSPECIFIED.,.F.,.F.,
(3,3),
(0.,1.),
.UNSPECIFIED.);
#172=VECTOR('',#173,1.);
#173=DIRECTION('',(0.,0.,1.));
#174=FACE_BOUND('',#175,.T.);
#175=EDGE_LOOP('',(#483,#484,#485,#486));
#176=SURFACE_OF_LINEAR_EXTRUSION('',#177,#178);
#177=B_SPLINE_CURVE_WITH_KNOTS('',2,
(#487,#488,#489),
.UNSPECIFIED.,.F.,.F.,
(3,3),
(0.,1.),
.UNSPECIFIED.);
#178=VECTOR('',#179,1.);
#179=DIRECTION('',(0.,0.,1.));
#180=FACE_BOUND('',#181,.T.);
#181=EDGE_LOOP('',(#490,#491,#492,#493));
#182=SURFACE_OF_LINEAR_EXTRUSION('',#183,#184);
#183=B_SPLINE_CURVE_WITH_KNOTS('',2,
(#494,#495,#496),
.UNSPECIFIED.,.F.,.F.,
(3,3),
(0.,1.),
.UNSPECIFIED.);
#184=VECTOR('',#185,1.);
#185=DIRECTION('',(0.,0.,1.));
#186=FACE_BOUND('',#187,.T.);
#187=EDGE_LOOP('',(#497,#498,#499,#500));
#188=SURFACE_OF_LINEAR_EXTRUSION('',#189,#190);
#189=B_SPLINE_CURVE_WITH_KNOTS('',2,
(#501,#502,#503),
.UNSPECIFIED.,.F.,.F.,
(3,3),
(0.,1.),
.UNSPECIFIED.);
#190=VECTOR('',#191,1.);
#191=DIRECTION('',(0.,0.,1.));
#192=FACE_BOUND('',#193,.T.);
#193=EDGE_LOOP('',(#504,#505,#506,#507));
#194=SURFACE_OF_LINEAR_EXTRUSION('',#195,#196);
#195=B_SPLINE_CURVE_WITH_KNOTS('',2,
(#508,#509,#510),
.UNSPECIFIED.,.F.,.F.,
(3,3),
(0.,1.),
.UNSPECIFIED.);
#196=VECTOR('',#197,1.);
#197=DIRECTION('',(0.,0.,1.));
#198=FACE_BOUND('',#199,.T.);
#199=EDGE_LOOP('',(#511,#512,#513,#514));
#200=SURFACE_OF_LINEAR_EXTRUSION('',#201,#202);
#201=B_SPLINE_CURVE_WITH_KNOTS('',2,
(#515,#516,#517),
.UNSPECIFIED.,.F.,.F.,
(3,3),
(0.,1.),
.UNSPECIFIED.);
#202=VECTOR('',#203,1.);
#203=DIRECTION('',(0.,0.,1.));
#204=FACE_BOUND('',#205,.T.);
#205=EDGE_LOOP('',(#518,#519,#520,#521));
#206=SURFACE_OF_LINEAR_EXTRUSION('',#207,#208);
#207=B_SPLINE_CURVE_WITH_KNOTS('',2,
(#522,#523,#524),
.UNSPECIFIED.,.F.,.F.,
(3,3),
(0.,1.),
.UNSPECIFIED.);
#208=VECTOR('',#209,1.);
#209=DIRECTION('',(0.,0.,1.));
#210=FACE_BOUND('',#211,.T.);
#211=EDGE_LOOP('',(#525,#526,#527,#528));
#212=SURFACE_OF_LINEAR_EXTRUSION('',#213,#214);
#213=B_SPLINE_CURVE_WITH_KNOTS('',2,
(#529,#530,#531),
.UNSPECIFIED.,.F.,.F.,
(3,3),
(0.,1.),
.UNSPECIFIED.);
#214=VECTOR('',#215,1.);
#215=DIRECTION('',(0.,0.,1.));
#216=FACE_BOUND('',#217,.T.);
#217=EDGE_LOOP('',(#532,#533,#534,#535));
#218=SURFACE_OF_LINEAR_EXTRUSION('',#219,#220);
#219=B_SPLINE_CURVE_WITH_KNOTS('',2,
(#536,#537,#538),
.UNSPECIFIED.,.F.,.F.,
(3,3),
(0.,1.),
.UNSPECIFIED.);
#220=VECTOR('',#221,1.);
#221=DIRECTION('',(0.,0.,1.));
#222=FACE_BOUND('',#223,.T.);
#223=EDGE_LOOP('',(#539,#540,#541,#542));
#224=SURFACE_OF_LINEAR_EXTRUSION('',#225,#226);
#225=B_SPLINE_CURVE_WITH_KNOTS('',2,
(#543,#544,#545),
.UNSPECIFIED.,.F.,.F.,
(3,3),
(0.,1.),
.UNSPECIFIED.);
#226=VECTOR('',#227,1.);
#227=DIRECTION('',(0.,0.,1.));
#228=FACE_BOUND('',#229,.T.);
#229=EDGE_LOOP('',(#546,#547,#548,#549));
#230=SURFACE_OF_LINEAR_EXTRUSION('',#231,#232);
#231=B_SPLINE_CURVE_WITH_KNOTS('',2,
(#550,#551,#552),
.UNSPECIFIED.,.F.,.F.,
(3,3),
(0.,1.),
.UNSPECIFIED.);
#232=VECTOR('',#233,1.);
#233=DIRECTION('',(0.,0.,1.));
#234=FACE_BOUND('',#235,.T.);
#235=EDGE_LOOP('',(#553,#554,#555,#556));
#236=SURFACE_OF_LINEAR_EXTRUSION('',#237,#238);
#237=B_SPLINE_CURVE_WITH_KNOTS('',2,
(#557,#558,#559),
.UNSPECIFIED.,.F.,.F.,
(3,3),
(0.,1.),
.UNSPECIFIED.);
#238=VECTOR('',#239,1.);
#239=DIRECTION('',(0.,0.,1.));
#240=FACE_BOUND('',#241,.T.);
#241=EDGE_LOOP('',(#560,#561,#562,#563));
#242=SURFACE_OF_LINEAR_EXTRUSION('',#243,#244);
#243=B_SPLINE_CURVE_WITH_KNOTS('',2,
(#564,#565,#566),
.UNSPECIFIED.,.F.,.F.,
(3,3),
(0.,1.),
.UNSPECIFIED.);
#244=VECTOR('',#245,1.);
#245=DIRECTION('',(0.,0.,1.));
#246=FACE_BOUND('',#247,.T.);
#247=EDGE_LOOP('',(#567,#568,#569,#570));
#248=SURFACE_OF_LINEAR_EXTRUSION('',#249,#250);
#249=B_SPLINE_CURVE_WITH_KNOTS('',2,
(#571,#572,#573),
.UNSPECIFIED.,.F.,.F.,
(3,3),
(0.,1.),
.UNSPECIFIED.);
#250=VECTOR('',#251,1.);
#251=DIRECTION('',(0.,0.,1.));
#252=FACE_BOUND('',#253,.T.);
#253=EDGE_LOOP('',(#574,#575,#576,#577));
#254=SURFACE_OF_LINEAR_EXTRUSION('',#255,#256);
#255=B_SPLINE_CURVE_WITH_KNOTS('',2,
(#578,#579,#580),
.UNSPECIFIED.,.F.,.F.,
(3,3),
(0.,1.),
.UNSPECIFIED.);
#256=VECTOR('',#257,1.);
#257=DIRECTION('',(0.,0.,1.));
#258=FACE_BOUND('',#259,.T.);
#259=EDGE_LOOP('',(#581,#582,#583,#584));
#260=SURFACE_OF_LINEAR_EXTRUSION('',#261,#262);
#261=B_SPLINE_CURVE_WITH_KNOTS('',2,
(#585,#586,#587),
.UNSPECIFIED.,.F.,.F.,
(3,3),
(0.,1.),
.UNSPECIFIED.);
#262=VECTOR('',#263,1.);
#263=DIRECTION('',(0.,0.,1.));
#264=FACE_BOUND('',#265,.T.);
#265=EDGE_LOOP('',(#588,#589,#590,#591));
#266=SURFACE_OF_LINEAR_EXTRUSION('',#267,#268);
#267=B_SPLINE_CURVE_WITH_KNOTS('',2,
(#592,#593,#594),
.UNSPECIFIED.,.F.,.F.,
(3,3),
(0.,1.),
.UNSPECIFIED.);
#268=VECTOR('',#269,1.);
#269=DIRECTION('',(0.,0.,1.));
#270=FACE_BOUND('',#271,.T.);
#271=EDGE_LOOP('',(#595,#596,#597,#598));
#272=SURFACE_OF_LINEAR_EXTRUSION('',#273,#274);
#273=B_SPLINE_CURVE_WITH_KNOTS('',2,
(#599,#600,#601),
.UNSPECIFIED.,.F.,.F.,
(3,3),
(0.,1.),
.UNSPECIFIED.);
#274=VECTOR('',#275,1.);
#275=DIRECTION('',(0.,0.,1.));
#276=FACE_BOUND('',#277,.T.);
#277=EDGE_LOOP('',(#602,#603,#604,#605));
#278=PLANE('',#279);
#279=AXIS2_PLACEMENT_3D('',#280,#281,#282);
#280=CARTESIAN_POINT('',(16.3906975837145,8.95841587418611,1.));
#281=DIRECTION('',(0.146990753998729,-0.989137866143484,0.));
#282=DIRECTION('',(0.989137866143484,0.146990753998729,0.));
#283=FACE_BOUND('',#284,.T.);
#284=EDGE_LOOP('',(#606,#607,#608,#609));
#285=PLANE('',#286);
#286=AXIS2_PLACEMENT_3D('',#287,#288,#289);
#287=CARTESIAN_POINT('',(16.6489309170478,9.71829920751945,1.));
#288=DIRECTION('',(-0.946820961730437,0.321760883930677,0.));
#289=DIRECTION('',(-0.321760883930677,-0.946820961730437,0.));
#290=FACE_BOUND('',#291,.T.);
#291=EDGE_LOOP('',(#610,#611,#612,#613));
#292=PLANE('',#293);
#293=AXIS2_PLACEMENT_3D('',#294,#295,#296);
#294=CARTESIAN_POINT('',(20.4917392665303,10.3130825408528,1.));
#295=DIRECTION('',(-0.152956997207341,0.988232845540621,0.));
#296=DIRECTION('',(-0.988232845540621,-0.152956997207341,0.));
#297=FACE_BOUND('',#298,.T.);
#298=EDGE_LOOP('',(#614,#615,#616,#617));
#299=PLANE('',#300);
#300=AXIS2_PLACEMENT_3D('',#301,#302,#303);
#301=CARTESIAN_POINT('',(17.7769488832745,2.32478254085278,1.));
#302=DIRECTION('',(0.946817225303488,-0.32177187861683,0.));
#303=DIRECTION('',(0.32177187861683,0.946817225303488,0.));
#304=FACE_BOUND('',#305,.T.);
#305=EDGE_LOOP('',(#618,#619,#620,#621));
#306=PLANE('',#307);
#307=AXIS2_PLACEMENT_3D('',#308,#309,#310);
#308=CARTESIAN_POINT('',(15.6793322166079,2.32478254085278,1.));
#309=DIRECTION('',(0.,-1.,0.));
#310=DIRECTION('',(1.,0.,0.));
#311=FACE_BOUND('',#312,.T.);
#312=EDGE_LOOP('',(#622,#623,#624,#625));
#313=PLANE('',#314);
#314=AXIS2_PLACEMENT_3D('',#315,#316,#317);
#315=CARTESIAN_POINT('',(18.0158015146929,9.19991431471407,1.));
#316=DIRECTION('',(-0.946817876209609,0.321769963312185,0.));
#317=DIRECTION('',(-0.321769963312185,-0.946817876209609,0.));
#318=FACE_BOUND('',#319,.T.);
#319=EDGE_LOOP('',(#626,#627,#628,#629));
#320=PLANE('',#321);
#321=AXIS2_PLACEMENT_3D('',#322,#323,#324);
#322=CARTESIAN_POINT('',(1.,0.999999999999999,1.));
#323=DIRECTION('',(0.,-1.,0.));
#324=DIRECTION('',(1.,0.,0.));
#325=FACE_BOUND('',#326,.T.);
#326=EDGE_LOOP('',(#630,#631,#632,#633));
#327=PLANE('',#328);
#328=AXIS2_PLACEMENT_3D('',#329,#330,#331);
#329=CARTESIAN_POINT('',(48.5,0.999999999999999,1.));
#330=DIRECTION('',(1.,0.,0.));
#331=DIRECTION('',(0.,1.,0.));
#332=FACE_BOUND('',#333,.T.);
#333=EDGE_LOOP('',(#634,#635,#636,#637));
#334=PLANE('',#335);
#335=AXIS2_PLACEMENT_3D('',#336,#337,#338);
#336=CARTESIAN_POINT('',(48.5,11.5,1.));
#337=DIRECTION('',(0.,1.,0.));
#338=DIRECTION('',(-1.,0.,0.));
#339=FACE_BOUND('',#340,.T.);
#340=EDGE_LOOP('',(#638,#639,#640,#641));
#341=PLANE('',#342);
#342=AXIS2_PLACEMENT_3D('',#343,#344,#345);
#343=CARTESIAN_POINT('',(1.,11.5,1.));
#344=DIRECTION('',(-1.,0.,0.));
#345=DIRECTION('',(0.,-1.,0.));
#346=FACE_BOUND('',#347,.T.);
#347=EDGE_LOOP('',(#642,#643,#644,#645,#646,#647,#648));
#348=PLANE('',#349);
#349=AXIS2_PLACEMENT_3D('',#350,#351,#352);
#350=CARTESIAN_POINT('',(0.,0.,2.));
#351=DIRECTION('',(0.,0.,1.));
#352=DIRECTION('',(1.,0.,0.));
#353=FACE_BOUND('',#354,.T.);
#354=EDGE_LOOP('',(#649,#650,#651,#652,#653,#654,#655,#656,#657,#658));
#355=FACE_BOUND('',#356,.T.);
#356=EDGE_LOOP('',(#659,#660,#661,#662,#663,#664,#665,#666));
#357=PLANE('',#358);
#358=AXIS2_PLACEMENT_3D('',#359,#360,#361);
#359=CARTESIAN_POINT('',(0.,0.,2.));
#360=DIRECTION('',(0.,0.,1.));
#361=DIRECTION('',(1.,0.,0.));
#362=FACE_BOUND('',#363,.T.);
#363=EDGE_LOOP('',(#667,#668,#669,#670,#671,#672));
#364=PLANE('',#365);
#365=AXIS2_PLACEMENT_3D('',#366,#367,#368);
#366=CARTESIAN_POINT('',(0.,0.,2.));
#367=DIRECTION('',(0.,0.,1.));
#368=DIRECTION('',(1.,0.,0.));
#369=FACE_BOUND('',#370,.T.);
#370=EDGE_LOOP('',(#673,#674,#675,#676));
#371=FACE_BOUND('',#372,.T.);
#372=EDGE_LOOP('',(#677,#678,#679,#680));
#373=PLANE('',#374);
#374=AXIS2_PLACEMENT_3D('',#375,#376,#377);
#375=CARTESIAN_POINT('',(0.,0.,2.));
#376=DIRECTION('',(0.,0.,1.));
#377=DIRECTION('',(1.,0.,0.));
#378=FACE_BOUND('',#379,.T.);
#379=EDGE_LOOP('',(#681,#682,#683,#684));
#380=PLANE('',#381);
#381=AXIS2_PLACEMENT_3D('',#382,#383,#384);
#382=CARTESIAN_POINT('',(-8.17102874259867E-34,12.5,0.));
#383=DIRECTION('',(-1.,-6.53682299407893E-35,0.));
#384=DIRECTION('',(6.53682299407893E-35,-1.,0.));
#385=FACE_BOUND('',#386,.T.);
#386=EDGE_LOOP('',(#685,#686,#687,#688));
#387=PLANE('',#388);
#388=AXIS2_PLACEMENT_3D('',#389,#390,#391);
#389=CARTESIAN_POINT('',(0.,0.,0.));
#390=DIRECTION('',(0.,-1.,0.));
#391=DIRECTION('',(1.,0.,0.));
#392=FACE_BOUND('',#393,.T.);
#393=EDGE_LOOP('',(#689,#690,#691,#692));
#394=PLANE('',#395);
#395=AXIS2_PLACEMENT_3D('',#396,#397,#398);
#396=CARTESIAN_POINT('',(49.5,-1.77635683940025E-15,0.));
#397=DIRECTION('',(1.,0.,0.));
#398=DIRECTION('',(0.,1.,0.));
#399=FACE_BOUND('',#400,.T.);
#400=EDGE_LOOP('',(#693,#694,#695,#696));
#401=PLANE('',#402);
#402=AXIS2_PLACEMENT_3D('',#403,#404,#405);
#403=CARTESIAN_POINT('',(49.5,12.5,0.));
#404=DIRECTION('',(-3.58859967555606E-17,1.,0.));
#405=DIRECTION('',(-1.,-3.58859967555606E-17,0.));
#406=FACE_BOUND('',#407,.T.);
#407=EDGE_LOOP('',(#697,#698,#699,#700));
#408=PLANE('',#409);
#409=AXIS2_PLACEMENT_3D('',#410,#411,#412);
#410=CARTESIAN_POINT('',(0.,0.,0.));
#411=DIRECTION('',(0.,0.,1.));
#412=DIRECTION('',(1.,0.,0.));
#413=ORIENTED_EDGE('',*,*,#701,.F.);
#414=ORIENTED_EDGE('',*,*,#702,.F.);
#415=ORIENTED_EDGE('',*,*,#703,.F.);
#416=ORIENTED_EDGE('',*,*,#704,.F.);
#417=ORIENTED_EDGE('',*,*,#705,.F.);
#418=ORIENTED_EDGE('',*,*,#706,.F.);
#419=ORIENTED_EDGE('',*,*,#707,.F.);
#420=ORIENTED_EDGE('',*,*,#708,.F.);
#421=ORIENTED_EDGE('',*,*,#709,.F.);
#422=ORIENTED_EDGE('',*,*,#710,.F.);
#423=ORIENTED_EDGE('',*,*,#711,.F.);
#424=ORIENTED_EDGE('',*,*,#712,.F.);
#425=ORIENTED_EDGE('',*,*,#713,.F.);
#426=ORIENTED_EDGE('',*,*,#714,.F.);
#427=ORIENTED_EDGE('',*,*,#715,.F.);
#428=ORIENTED_EDGE('',*,*,#716,.F.);
#429=ORIENTED_EDGE('',*,*,#717,.F.);
#430=ORIENTED_EDGE('',*,*,#718,.F.);
#431=ORIENTED_EDGE('',*,*,#719,.F.);
#432=ORIENTED_EDGE('',*,*,#720,.F.);
#433=ORIENTED_EDGE('',*,*,#721,.F.);
#434=ORIENTED_EDGE('',*,*,#722,.F.);
#435=ORIENTED_EDGE('',*,*,#723,.F.);
#436=ORIENTED_EDGE('',*,*,#724,.F.);
#437=ORIENTED_EDGE('',*,*,#725,.F.);
#438=ORIENTED_EDGE('',*,*,#726,.F.);
#439=ORIENTED_EDGE('',*,*,#727,.F.);
#440=ORIENTED_EDGE('',*,*,#728,.F.);
#441=ORIENTED_EDGE('',*,*,#729,.F.);
#442=ORIENTED_EDGE('',*,*,#730,.F.);
#443=ORIENTED_EDGE('',*,*,#731,.F.);
#444=ORIENTED_EDGE('',*,*,#732,.F.);
#445=ORIENTED_EDGE('',*,*,#733,.F.);
#446=ORIENTED_EDGE('',*,*,#734,.F.);
#447=ORIENTED_EDGE('',*,*,#735,.F.);
#448=ORIENTED_EDGE('',*,*,#730,.T.);
#449=ORIENTED_EDGE('',*,*,#736,.T.);
#450=ORIENTED_EDGE('',*,*,#737,.F.);
#451=ORIENTED_EDGE('',*,*,#738,.F.);
#452=ORIENTED_EDGE('',*,*,#731,.T.);
#453=ORIENTED_EDGE('',*,*,#738,.T.);
#454=ORIENTED_EDGE('',*,*,#739,.F.);
#455=ORIENTED_EDGE('',*,*,#740,.F.);
#456=ORIENTED_EDGE('',*,*,#732,.T.);
#457=ORIENTED_EDGE('',*,*,#740,.T.);
#458=ORIENTED_EDGE('',*,*,#741,.F.);
#459=ORIENTED_EDGE('',*,*,#742,.F.);
#460=ORIENTED_EDGE('',*,*,#733,.T.);
#461=ORIENTED_EDGE('',*,*,#742,.T.);
#462=ORIENTED_EDGE('',*,*,#743,.F.);
#463=ORIENTED_EDGE('',*,*,#744,.F.);
#464=ORIENTED_EDGE('',*,*,#734,.T.);
#465=ORIENTED_EDGE('',*,*,#744,.T.);
#466=ORIENTED_EDGE('',*,*,#745,.F.);
#467=ORIENTED_EDGE('',*,*,#746,.F.);
#468=ORIENTED_EDGE('',*,*,#735,.T.);
#469=ORIENTED_EDGE('',*,*,#746,.T.);
#470=ORIENTED_EDGE('',*,*,#747,.F.);
#471=ORIENTED_EDGE('',*,*,#748,.F.);
#472=ORIENTED_EDGE('',*,*,#729,.T.);
#473=ORIENTED_EDGE('',*,*,#748,.T.);
#474=ORIENTED_EDGE('',*,*,#749,.F.);
#475=ORIENTED_EDGE('',*,*,#736,.F.);
#476=ORIENTED_EDGE('',*,*,#728,.T.);
#477=ORIENTED_EDGE('',*,*,#750,.T.);
#478=ORIENTED_EDGE('',*,*,#751,.F.);
#479=ORIENTED_EDGE('',*,*,#752,.F.);
#480=CARTESIAN_POINT('',(29.0292475949122,9.37372903204069,1.));
#481=CARTESIAN_POINT('',(28.5733705317653,10.3723492075194,1.));
#482=CARTESIAN_POINT('',(27.1713434363201,10.3723492075194,1.));
#483=ORIENTED_EDGE('',*,*,#727,.T.);
#484=ORIENTED_EDGE('',*,*,#753,.T.);
#485=ORIENTED_EDGE('',*,*,#754,.F.);
#486=ORIENTED_EDGE('',*,*,#750,.F.);
#487=CARTESIAN_POINT('',(27.1713434363201,10.3723492075194,1.));
#488=CARTESIAN_POINT('',(25.5454788489495,10.3723492075194,1.));
#489=CARTESIAN_POINT('',(24.0790918768481,9.0909390709512,1.));
#490=ORIENTED_EDGE('',*,*,#726,.T.);
#491=ORIENTED_EDGE('',*,*,#755,.T.);
#492=ORIENTED_EDGE('',*,*,#756,.F.);
#493=ORIENTED_EDGE('',*,*,#753,.F.);
#494=CARTESIAN_POINT('',(24.0790918768481,9.0909390709512,1.));
#495=CARTESIAN_POINT('',(22.6127049047467,7.80952890208469,1.));
#496=CARTESIAN_POINT('',(21.913940317376,5.75335261867379,1.));
#497=ORIENTED_EDGE('',*,*,#725,.T.);
#498=ORIENTED_EDGE('',*,*,#757,.T.);
#499=ORIENTED_EDGE('',*,*,#758,.F.);
#500=ORIENTED_EDGE('',*,*,#755,.F.);
#501=CARTESIAN_POINT('',(21.913940317376,5.75335261867379,1.));
#502=CARTESIAN_POINT('',(21.3392983746482,4.0624666862204,1.));
#503=CARTESIAN_POINT('',(21.8150357689159,3.09625794686992,1.));
#504=ORIENTED_EDGE('',*,*,#724,.T.);
#505=ORIENTED_EDGE('',*,*,#759,.T.);
#506=ORIENTED_EDGE('',*,*,#760,.F.);
#507=ORIENTED_EDGE('',*,*,#757,.F.);
#508=CARTESIAN_POINT('',(21.8150357689159,3.09625794686992,1.));
#509=CARTESIAN_POINT('',(22.2907731308854,2.13004920751945,1.));
#510=CARTESIAN_POINT('',(23.6809931764081,2.13004920751945,1.));
#511=ORIENTED_EDGE('',*,*,#723,.T.);
#512=ORIENTED_EDGE('',*,*,#761,.T.);
#513=ORIENTED_EDGE('',*,*,#762,.F.);
#514=ORIENTED_EDGE('',*,*,#759,.F.);
#515=CARTESIAN_POINT('',(23.6809931764081,2.13004920751945,1.));
#516=CARTESIAN_POINT('',(24.4762645214909,2.13004920751945,1.));
#517=CARTESIAN_POINT('',(25.2905032153186,2.48060560766186,1.));
#518=ORIENTED_EDGE('',*,*,#722,.T.);
#519=ORIENTED_EDGE('',*,*,#763,.T.);
#520=ORIENTED_EDGE('',*,*,#764,.F.);
#521=ORIENTED_EDGE('',*,*,#761,.F.);
#522=CARTESIAN_POINT('',(25.2905032153186,2.48060560766186,1.));
#523=CARTESIAN_POINT('',(26.1047418768481,2.83116197550602,1.));
#524=CARTESIAN_POINT('',(26.8611856389599,3.49688673174314,1.));
#525=ORIENTED_EDGE('',*,*,#721,.T.);
#526=ORIENTED_EDGE('',*,*,#765,.T.);
#527=ORIENTED_EDGE('',*,*,#766,.F.);
#528=ORIENTED_EDGE('',*,*,#763,.F.);
#529=CARTESIAN_POINT('',(26.8611856389599,3.49688673174314,1.));
#530=CARTESIAN_POINT('',(27.5445713115013,4.10370859664994,1.));
#531=CARTESIAN_POINT('',(28.0553329098839,4.88728868108319,1.));
#532=ORIENTED_EDGE('',*,*,#720,.T.);
#533=ORIENTED_EDGE('',*,*,#767,.T.);
#534=ORIENTED_EDGE('',*,*,#768,.F.);
#535=ORIENTED_EDGE('',*,*,#765,.F.);
#536=CARTESIAN_POINT('',(28.0553329098839,4.88728868108319,1.));
#537=CARTESIAN_POINT('',(28.5660944759681,5.67086876551645,1.));
#538=CARTESIAN_POINT('',(28.8804525655386,6.59585209884978,1.));
#539=ORIENTED_EDGE('',*,*,#719,.T.);
#540=ORIENTED_EDGE('',*,*,#752,.T.);
#541=ORIENTED_EDGE('',*,*,#769,.F.);
#542=ORIENTED_EDGE('',*,*,#767,.F.);
#543=CARTESIAN_POINT('',(28.8804525655386,6.59585209884978,1.));
#544=CARTESIAN_POINT('',(29.4851246903574,8.37510885656194,1.));
#545=CARTESIAN_POINT('',(29.0292475949122,9.37372903204069,1.));
#546=ORIENTED_EDGE('',*,*,#702,.T.);
#547=ORIENTED_EDGE('',*,*,#770,.T.);
#548=ORIENTED_EDGE('',*,*,#771,.F.);
#549=ORIENTED_EDGE('',*,*,#772,.F.);
#550=CARTESIAN_POINT('',(27.1268934363201,8.66428189107276,1.));
#551=CARTESIAN_POINT('',(27.1125067241307,9.45371587418611,1.));
#552=CARTESIAN_POINT('',(26.5118033452746,9.45371587418611,1.));
#553=ORIENTED_EDGE('',*,*,#703,.T.);
#554=ORIENTED_EDGE('',*,*,#772,.T.);
#555=ORIENTED_EDGE('',*,*,#773,.F.);
#556=ORIENTED_EDGE('',*,*,#774,.F.);
#557=CARTESIAN_POINT('',(26.5118033452746,9.45371587418611,1.));
#558=CARTESIAN_POINT('',(25.9287608827228,9.45371587418611,1.));
#559=CARTESIAN_POINT('',(25.3759305383775,8.67607240428453,1.));
#560=ORIENTED_EDGE('',*,*,#704,.T.);
#561=ORIENTED_EDGE('',*,*,#774,.T.);
#562=ORIENTED_EDGE('',*,*,#775,.F.);
#563=ORIENTED_EDGE('',*,*,#776,.F.);
#564=CARTESIAN_POINT('',(25.3759305383775,8.67607240428453,1.));
#565=CARTESIAN_POINT('',(24.8231002263305,7.89842890208469,1.));
#566=CARTESIAN_POINT('',(24.2905270295655,6.3313349123591,1.));
#567=ORIENTED_EDGE('',*,*,#705,.T.);
#568=ORIENTED_EDGE('',*,*,#776,.T.);
#569=ORIENTED_EDGE('',*,*,#777,.F.);
#570=ORIENTED_EDGE('',*,*,#778,.F.);
#571=CARTESIAN_POINT('',(24.2905270295655,6.3313349123591,1.));
#572=CARTESIAN_POINT('',(23.7079145214909,4.61696720604441,1.));
#573=CARTESIAN_POINT('',(23.7193577637787,3.82753322293106,1.));
#574=ORIENTED_EDGE('',*,*,#706,.T.);
#575=ORIENTED_EDGE('',*,*,#778,.T.);
#576=ORIENTED_EDGE('',*,*,#779,.F.);
#577=ORIENTED_EDGE('',*,*,#780,.F.);
#578=CARTESIAN_POINT('',(23.7193577637787,3.82753322293106,1.));
#579=CARTESIAN_POINT('',(23.7308010060666,3.03809920751945,1.));
#580=CARTESIAN_POINT('',(24.3315043849226,3.03809920751945,1.));
#581=ORIENTED_EDGE('',*,*,#707,.T.);
#582=ORIENTED_EDGE('',*,*,#780,.T.);
#583=ORIENTED_EDGE('',*,*,#781,.F.);
#584=ORIENTED_EDGE('',*,*,#782,.F.);
#585=CARTESIAN_POINT('',(24.3315043849226,3.03809920751945,1.));
#586=CARTESIAN_POINT('',(24.9145137417549,3.03809920751945,1.));
#587=CARTESIAN_POINT('',(25.4743224811053,3.82753322293106,1.));
#588=ORIENTED_EDGE('',*,*,#708,.T.);
#589=ORIENTED_EDGE('',*,*,#782,.T.);
#590=ORIENTED_EDGE('',*,*,#783,.F.);
#591=ORIENTED_EDGE('',*,*,#784,.F.);
#592=CARTESIAN_POINT('',(25.4743224811053,3.82753322293106,1.));
#593=CARTESIAN_POINT('',(26.0341311881576,4.61696720604441,1.));
#594=CARTESIAN_POINT('',(26.5626694921173,6.17225417814583,1.));
#595=ORIENTED_EDGE('',*,*,#701,.T.);
#596=ORIENTED_EDGE('',*,*,#784,.T.);
#597=ORIENTED_EDGE('',*,*,#785,.F.);
#598=ORIENTED_EDGE('',*,*,#770,.F.);
#599=CARTESIAN_POINT('',(26.5626694921173,6.17225417814583,1.));
#600=CARTESIAN_POINT('',(27.1412801485095,7.87484790795942,1.));
#601=CARTESIAN_POINT('',(27.1268934363201,8.66428189107276,1.));
#602=ORIENTED_EDGE('',*,*,#714,.T.);
#603=ORIENTED_EDGE('',*,*,#786,.T.);
#604=ORIENTED_EDGE('',*,*,#787,.F.);
#605=ORIENTED_EDGE('',*,*,#788,.F.);
#606=ORIENTED_EDGE('',*,*,#715,.T.);
#607=ORIENTED_EDGE('',*,*,#788,.T.);
#608=ORIENTED_EDGE('',*,*,#789,.F.);
#609=ORIENTED_EDGE('',*,*,#790,.F.);
#610=ORIENTED_EDGE('',*,*,#716,.T.);
#611=ORIENTED_EDGE('',*,*,#790,.T.);
#612=ORIENTED_EDGE('',*,*,#791,.F.);
#613=ORIENTED_EDGE('',*,*,#792,.F.);
#614=ORIENTED_EDGE('',*,*,#717,.T.);
#615=ORIENTED_EDGE('',*,*,#792,.T.);
#616=ORIENTED_EDGE('',*,*,#793,.F.);
#617=ORIENTED_EDGE('',*,*,#794,.F.);
#618=ORIENTED_EDGE('',*,*,#718,.T.);
#619=ORIENTED_EDGE('',*,*,#794,.T.);
#620=ORIENTED_EDGE('',*,*,#795,.F.);
#621=ORIENTED_EDGE('',*,*,#796,.F.);
#622=ORIENTED_EDGE('',*,*,#713,.T.);
#623=ORIENTED_EDGE('',*,*,#796,.T.);
#624=ORIENTED_EDGE('',*,*,#797,.F.);
#625=ORIENTED_EDGE('',*,*,#786,.F.);
#626=ORIENTED_EDGE('',*,*,#709,.T.);
#627=ORIENTED_EDGE('',*,*,#798,.T.);
#628=ORIENTED_EDGE('',*,*,#799,.F.);
#629=ORIENTED_EDGE('',*,*,#800,.F.);
#630=ORIENTED_EDGE('',*,*,#710,.T.);
#631=ORIENTED_EDGE('',*,*,#800,.T.);
#632=ORIENTED_EDGE('',*,*,#801,.F.);
#633=ORIENTED_EDGE('',*,*,#802,.F.);
#634=ORIENTED_EDGE('',*,*,#711,.T.);
#635=ORIENTED_EDGE('',*,*,#802,.T.);
#636=ORIENTED_EDGE('',*,*,#803,.F.);
#637=ORIENTED_EDGE('',*,*,#804,.F.);
#638=ORIENTED_EDGE('',*,*,#712,.T.);
#639=ORIENTED_EDGE('',*,*,#804,.T.);
#640=ORIENTED_EDGE('',*,*,#805,.F.);
#641=ORIENTED_EDGE('',*,*,#798,.F.);
#642=ORIENTED_EDGE('',*,*,#749,.T.);
#643=ORIENTED_EDGE('',*,*,#747,.T.);
#644=ORIENTED_EDGE('',*,*,#745,.T.);
#645=ORIENTED_EDGE('',*,*,#743,.T.);
#646=ORIENTED_EDGE('',*,*,#741,.T.);
#647=ORIENTED_EDGE('',*,*,#739,.T.);
#648=ORIENTED_EDGE('',*,*,#737,.T.);
#649=ORIENTED_EDGE('',*,*,#751,.T.);
#650=ORIENTED_EDGE('',*,*,#754,.T.);
#651=ORIENTED_EDGE('',*,*,#756,.T.);
#652=ORIENTED_EDGE('',*,*,#758,.T.);
#653=ORIENTED_EDGE('',*,*,#760,.T.);
#654=ORIENTED_EDGE('',*,*,#762,.T.);
#655=ORIENTED_EDGE('',*,*,#764,.T.);
#656=ORIENTED_EDGE('',*,*,#766,.T.);
#657=ORIENTED_EDGE('',*,*,#768,.T.);
#658=ORIENTED_EDGE('',*,*,#769,.T.);
#659=ORIENTED_EDGE('',*,*,#771,.T.);
#660=ORIENTED_EDGE('',*,*,#785,.T.);
#661=ORIENTED_EDGE('',*,*,#783,.T.);
#662=ORIENTED_EDGE('',*,*,#781,.T.);
#663=ORIENTED_EDGE('',*,*,#779,.T.);
#664=ORIENTED_EDGE('',*,*,#777,.T.);
#665=ORIENTED_EDGE('',*,*,#775,.T.);
#666=ORIENTED_EDGE('',*,*,#773,.T.);
#667=ORIENTED_EDGE('',*,*,#797,.T.);
#668=ORIENTED_EDGE('',*,*,#795,.T.);
#669=ORIENTED_EDGE('',*,*,#793,.T.);
#670=ORIENTED_EDGE('',*,*,#791,.T.);
#671=ORIENTED_EDGE('',*,*,#789,.T.);
#672=ORIENTED_EDGE('',*,*,#787,.T.);
#673=ORIENTED_EDGE('',*,*,#806,.T.);
#674=ORIENTED_EDGE('',*,*,#807,.T.);
#675=ORIENTED_EDGE('',*,*,#808,.T.);
#676=ORIENTED_EDGE('',*,*,#809,.T.);
#677=ORIENTED_EDGE('',*,*,#801,.T.);
#678=ORIENTED_EDGE('',*,*,#799,.T.);
#679=ORIENTED_EDGE('',*,*,#805,.T.);
#680=ORIENTED_EDGE('',*,*,#803,.T.);
#681=ORIENTED_EDGE('',*,*,#810,.T.);
#682=ORIENTED_EDGE('',*,*,#811,.T.);
#683=ORIENTED_EDGE('',*,*,#806,.F.);
#684=ORIENTED_EDGE('',*,*,#812,.F.);
#685=ORIENTED_EDGE('',*,*,#813,.T.);
#686=ORIENTED_EDGE('',*,*,#814,.T.);
#687=ORIENTED_EDGE('',*,*,#807,.F.);
#688=ORIENTED_EDGE('',*,*,#811,.F.);
#689=ORIENTED_EDGE('',*,*,#815,.T.);
#690=ORIENTED_EDGE('',*,*,#816,.T.);
#691=ORIENTED_EDGE('',*,*,#808,.F.);
#692=ORIENTED_EDGE('',*,*,#814,.F.);
#693=ORIENTED_EDGE('',*,*,#817,.T.);
#694=ORIENTED_EDGE('',*,*,#812,.T.);
#695=ORIENTED_EDGE('',*,*,#809,.F.);
#696=ORIENTED_EDGE('',*,*,#816,.F.);
#697=ORIENTED_EDGE('',*,*,#813,.F.);
#698=ORIENTED_EDGE('',*,*,#810,.F.);
#699=ORIENTED_EDGE('',*,*,#817,.F.);
#700=ORIENTED_EDGE('',*,*,#815,.F.);
#701=EDGE_CURVE('',#818,#819,#820,.F.);
#702=EDGE_CURVE('',#821,#818,#822,.F.);
#703=EDGE_CURVE('',#823,#821,#824,.F.);
#704=EDGE_CURVE('',#825,#823,#826,.F.);
#705=EDGE_CURVE('',#827,#825,#828,.F.);
#706=EDGE_CURVE('',#829,#827,#830,.F.);
#707=EDGE_CURVE('',#831,#829,#832,.F.);
#708=EDGE_CURVE('',#819,#831,#833,.F.);
#709=EDGE_CURVE('',#834,#835,#836,.F.);
#710=EDGE_CURVE('',#837,#834,#838,.F.);
#711=EDGE_CURVE('',#839,#837,#840,.F.);
#712=EDGE_CURVE('',#835,#839,#841,.F.);
#713=EDGE_CURVE('',#842,#843,#844,.T.);
#714=EDGE_CURVE('',#845,#842,#846,.T.);
#715=EDGE_CURVE('',#847,#845,#848,.T.);
#716=EDGE_CURVE('',#849,#847,#850,.T.);
#717=EDGE_CURVE('',#851,#849,#852,.T.);
#718=EDGE_CURVE('',#843,#851,#853,.T.);
#719=EDGE_CURVE('',#854,#855,#856,.T.);
#720=EDGE_CURVE('',#857,#854,#858,.T.);
#721=EDGE_CURVE('',#859,#857,#860,.T.);
#722=EDGE_CURVE('',#861,#859,#862,.T.);
#723=EDGE_CURVE('',#863,#861,#864,.T.);
#724=EDGE_CURVE('',#865,#863,#866,.T.);
#725=EDGE_CURVE('',#867,#865,#868,.T.);
#726=EDGE_CURVE('',#869,#867,#870,.T.);
#727=EDGE_CURVE('',#871,#869,#872,.T.);
#728=EDGE_CURVE('',#855,#871,#873,.T.);
#729=EDGE_CURVE('',#874,#875,#876,.T.);
#730=EDGE_CURVE('',#877,#874,#878,.T.);
#731=EDGE_CURVE('',#879,#877,#880,.T.);
#732=EDGE_CURVE('',#881,#879,#882,.T.);
#733=EDGE_CURVE('',#883,#881,#884,.T.);
#734=EDGE_CURVE('',#885,#883,#886,.T.);
#735=EDGE_CURVE('',#875,#885,#887,.T.);
#736=EDGE_CURVE('',#874,#888,#889,.T.);
#737=EDGE_CURVE('',#890,#888,#891,.T.);
#738=EDGE_CURVE('',#877,#890,#892,.T.);
#739=EDGE_CURVE('',#893,#890,#894,.T.);
#740=EDGE_CURVE('',#879,#893,#895,.T.);
#741=EDGE_CURVE('',#896,#893,#897,.T.);
#742=EDGE_CURVE('',#881,#896,#898,.T.);
#743=EDGE_CURVE('',#899,#896,#900,.T.);
#744=EDGE_CURVE('',#883,#899,#901,.T.);
#745=EDGE_CURVE('',#902,#899,#903,.T.);
#746=EDGE_CURVE('',#885,#902,#904,.T.);
#747=EDGE_CURVE('',#905,#902,#906,.T.);
#748=EDGE_CURVE('',#875,#905,#907,.T.);
#749=EDGE_CURVE('',#888,#905,#908,.T.);
#750=EDGE_CURVE('',#871,#909,#910,.T.);
#751=EDGE_CURVE('',#911,#909,#912,.T.);
#752=EDGE_CURVE('',#855,#911,#913,.T.);
#753=EDGE_CURVE('',#869,#914,#915,.T.);
#754=EDGE_CURVE('',#909,#914,#916,.T.);
#755=EDGE_CURVE('',#867,#917,#918,.T.);
#756=EDGE_CURVE('',#914,#917,#919,.T.);
#757=EDGE_CURVE('',#865,#920,#921,.T.);
#758=EDGE_CURVE('',#917,#920,#922,.T.);
#759=EDGE_CURVE('',#863,#923,#924,.T.);
#760=EDGE_CURVE('',#920,#923,#925,.T.);
#761=EDGE_CURVE('',#861,#926,#927,.T.);
#762=EDGE_CURVE('',#923,#926,#928,.T.);
#763=EDGE_CURVE('',#859,#929,#930,.T.);
#764=EDGE_CURVE('',#926,#929,#931,.T.);
#765=EDGE_CURVE('',#857,#932,#933,.T.);
#766=EDGE_CURVE('',#929,#932,#934,.T.);
#767=EDGE_CURVE('',#854,#935,#936,.T.);
#768=EDGE_CURVE('',#932,#935,#937,.T.);
#769=EDGE_CURVE('',#935,#911,#938,.T.);
#770=EDGE_CURVE('',#818,#939,#940,.T.);
#771=EDGE_CURVE('',#941,#939,#942,.F.);
#772=EDGE_CURVE('',#821,#941,#943,.T.);
#773=EDGE_CURVE('',#944,#941,#945,.F.);
#774=EDGE_CURVE('',#823,#944,#946,.T.);
#775=EDGE_CURVE('',#947,#944,#948,.F.);
#776=EDGE_CURVE('',#825,#947,#949,.T.);
#777=EDGE_CURVE('',#950,#947,#951,.F.);
#778=EDGE_CURVE('',#827,#950,#952,.T.);
#779=EDGE_CURVE('',#953,#950,#954,.F.);
#780=EDGE_CURVE('',#829,#953,#955,.T.);
#781=EDGE_CURVE('',#956,#953,#957,.F.);
#782=EDGE_CURVE('',#831,#956,#958,.T.);
#783=EDGE_CURVE('',#959,#956,#960,.F.);
#784=EDGE_CURVE('',#819,#959,#961,.T.);
#785=EDGE_CURVE('',#939,#959,#962,.F.);
#786=EDGE_CURVE('',#842,#963,#964,.T.);
#787=EDGE_CURVE('',#965,#963,#966,.T.);
#788=EDGE_CURVE('',#845,#965,#967,.T.);
#789=EDGE_CURVE('',#968,#965,#969,.T.);
#790=EDGE_CURVE('',#847,#968,#970,.T.);
#791=EDGE_CURVE('',#971,#968,#972,.T.);
#792=EDGE_CURVE('',#849,#971,#973,.T.);
#793=EDGE_CURVE('',#974,#971,#975,.T.);
#794=EDGE_CURVE('',#851,#974,#976,.T.);
#795=EDGE_CURVE('',#977,#974,#978,.T.);
#796=EDGE_CURVE('',#843,#977,#979,.T.);
#797=EDGE_CURVE('',#963,#977,#980,.T.);
#798=EDGE_CURVE('',#835,#981,#982,.T.);
#799=EDGE_CURVE('',#983,#981,#984,.F.);
#800=EDGE_CURVE('',#834,#983,#985,.T.);
#801=EDGE_CURVE('',#986,#983,#987,.F.);
#802=EDGE_CURVE('',#837,#986,#988,.T.);
#803=EDGE_CURVE('',#989,#986,#990,.F.);
#804=EDGE_CURVE('',#839,#989,#991,.T.);
#805=EDGE_CURVE('',#981,#989,#992,.F.);
#806=EDGE_CURVE('',#993,#994,#995,.T.);
#807=EDGE_CURVE('',#994,#996,#997,.T.);
#808=EDGE_CURVE('',#996,#998,#999,.T.);
#809=EDGE_CURVE('',#998,#993,#1000,.T.);
#810=EDGE_CURVE('',#1001,#1002,#1003,.T.);
#811=EDGE_CURVE('',#1002,#994,#1004,.T.);
#812=EDGE_CURVE('',#1001,#993,#1005,.T.);
#813=EDGE_CURVE('',#1002,#1006,#1007,.T.);
#814=EDGE_CURVE('',#1006,#996,#1008,.T.);
#815=EDGE_CURVE('',#1006,#1009,#1010,.T.);
#816=EDGE_CURVE('',#1009,#998,#1011,.T.);
#817=EDGE_CURVE('',#1009,#1001,#1012,.T.);
#818=VERTEX_POINT('',#1013);
#819=VERTEX_POINT('',#1014);
#820=B_SPLINE_CURVE_WITH_KNOTS('',2,
(#1015,#1016,#1017),
.UNSPECIFIED.,.F.,.F.,
(3,3),
(0.,1.),
.UNSPECIFIED.);
#821=VERTEX_POINT('',#1018);
#822=B_SPLINE_CURVE_WITH_KNOTS('',2,
(#1019,#1020,#1021),
.UNSPECIFIED.,.F.,.F.,
(3,3),
(0.,1.),
.UNSPECIFIED.);
#823=VERTEX_POINT('',#1022);
#824=B_SPLINE_CURVE_WITH_KNOTS('',2,
(#1023,#1024,#1025),
.UNSPECIFIED.,.F.,.F.,
(3,3),
(0.,1.),
.UNSPECIFIED.);
#825=VERTEX_POINT('',#1026);
#826=B_SPLINE_CURVE_WITH_KNOTS('',2,
(#1027,#1028,#1029),
.UNSPECIFIED.,.F.,.F.,
(3,3),
(0.,1.),
.UNSPECIFIED.);
#827=VERTEX_POINT('',#1030);
#828=B_SPLINE_CURVE_WITH_KNOTS('',2,
(#1031,#1032,#1033),
.UNSPECIFIED.,.F.,.F.,
(3,3),
(0.,1.),
.UNSPECIFIED.);
#829=VERTEX_POINT('',#1034);
#830=B_SPLINE_CURVE_WITH_KNOTS('',2,
(#1035,#1036,#1037),
.UNSPECIFIED.,.F.,.F.,
(3,3),
(0.,1.),
.UNSPECIFIED.);
#831=VERTEX_POINT('',#1038);
#832=B_SPLINE_CURVE_WITH_KNOTS('',2,
(#1039,#1040,#1041),
.UNSPECIFIED.,.F.,.F.,
(3,3),
(0.,1.),
.UNSPECIFIED.);
#833=B_SPLINE_CURVE_WITH_KNOTS('',2,
(#1042,#1043,#1044),
.UNSPECIFIED.,.F.,.F.,
(3,3),
(0.,1.),
.UNSPECIFIED.);
#834=VERTEX_POINT('',#1045);
#835=VERTEX_POINT('',#1046);
#836=LINE('',#1047,#1048);
#837=VERTEX_POINT('',#1050);
#838=LINE('',#1051,#1052);
#839=VERTEX_POINT('',#1054);
#840=LINE('',#1055,#1056);
#841=LINE('',#1058,#1059);
#842=VERTEX_POINT('',#1061);
#843=VERTEX_POINT('',#1062);
#844=LINE('',#1063,#1064);
#845=VERTEX_POINT('',#1066);
#846=LINE('',#1067,#1068);
#847=VERTEX_POINT('',#1070);
#848=LINE('',#1071,#1072);
#849=VERTEX_POINT('',#1074);
#850=LINE('',#1075,#1076);
#851=VERTEX_POINT('',#1078);
#852=LINE('',#1079,#1080);
#853=LINE('',#1082,#1083);
#854=VERTEX_POINT('',#1085);
#855=VERTEX_POINT('',#1086);
#856=B_SPLINE_CURVE_WITH_KNOTS('',2,
(#1087,#1088,#1089),
.UNSPECIFIED.,.F.,.F.,
(3,3),
(0.,1.),
.UNSPECIFIED.);
#857=VERTEX_POINT('',#1090);
#858=B_SPLINE_CURVE_WITH_KNOTS('',2,
(#1091,#1092,#1093),
.UNSPECIFIED.,.F.,.F.,
(3,3),
(0.,1.),
.UNSPECIFIED.);
#859=VERTEX_POINT('',#1094);
#860=B_SPLINE_CURVE_WITH_KNOTS('',2,
(#1095,#1096,#1097),
.UNSPECIFIED.,.F.,.F.,
(3,3),
(0.,1.),
.UNSPECIFIED.);
#861=VERTEX_POINT('',#1098);
#862=B_SPLINE_CURVE_WITH_KNOTS('',2,
(#1099,#1100,#1101),
.UNSPECIFIED.,.F.,.F.,
(3,3),
(0.,1.),
.UNSPECIFIED.);
#863=VERTEX_POINT('',#1102);
#864=B_SPLINE_CURVE_WITH_KNOTS('',2,
(#1103,#1104,#1105),
.UNSPECIFIED.,.F.,.F.,
(3,3),
(0.,1.),
.UNSPECIFIED.);
#865=VERTEX_POINT('',#1106);
#866=B_SPLINE_CURVE_WITH_KNOTS('',2,
(#1107,#1108,#1109),
.UNSPECIFIED.,.F.,.F.,
(3,3),
(0.,1.),
.UNSPECIFIED.);
#867=VERTEX_POINT('',#1110);
#868=B_SPLINE_CURVE_WITH_KNOTS('',2,
(#1111,#1112,#1113),
.UNSPECIFIED.,.F.,.F.,
(3,3),
(0.,1.),
.UNSPECIFIED.);
#869=VERTEX_POINT('',#1114);
#870=B_SPLINE_CURVE_WITH_KNOTS('',2,
(#1115,#1116,#1117),
.UNSPECIFIED.,.F.,.F.,
(3,3),
(0.,1.),
.UNSPECIFIED.);
#871=VERTEX_POINT('',#1118);
#872=B_SPLINE_CURVE_WITH_KNOTS('',2,
(#1119,#1120,#1121),
.UNSPECIFIED.,.F.,.F.,
(3,3),
(0.,1.),
.UNSPECIFIED.);
#873=B_SPLINE_CURVE_WITH_KNOTS('',2,
(#1122,#1123,#1124),
.UNSPECIFIED.,.F.,.F.,
(3,3),
(0.,1.),
.UNSPECIFIED.);
#874=VERTEX_POINT('',#1125);
#875=VERTEX_POINT('',#1126);
#876=LINE('',#1127,#1128);
#877=VERTEX_POINT('',#1130);
#878=LINE('',#1131,#1132);
#879=VERTEX_POINT('',#1134);
#880=LINE('',#1135,#1136);
#881=VERTEX_POINT('',#1138);
#882=LINE('',#1139,#1140);
#883=VERTEX_POINT('',#1142);
#884=LINE('',#1143,#1144);
#885=VERTEX_POINT('',#1146);
#886=LINE('',#1147,#1148);
#887=LINE('',#1150,#1151);
#888=VERTEX_POINT('',#1153);
#889=LINE('',#1154,#1155);
#890=VERTEX_POINT('',#1157);
#891=LINE('',#1158,#1159);
#892=LINE('',#1161,#1162);
#893=VERTEX_POINT('',#1164);
#894=LINE('',#1165,#1166);
#895=LINE('',#1168,#1169);
#896=VERTEX_POINT('',#1171);
#897=LINE('',#1172,#1173);
#898=LINE('',#1175,#1176);
#899=VERTEX_POINT('',#1178);
#900=LINE('',#1179,#1180);
#901=LINE('',#1182,#1183);
#902=VERTEX_POINT('',#1185);
#903=LINE('',#1186,#1187);
#904=LINE('',#1189,#1190);
#905=VERTEX_POINT('',#1192);
#906=LINE('',#1193,#1194);
#907=LINE('',#1196,#1197);
#908=LINE('',#1199,#1200);
#909=VERTEX_POINT('',#1202);
#910=LINE('',#1203,#1204);
#911=VERTEX_POINT('',#1206);
#912=B_SPLINE_CURVE_WITH_KNOTS('',2,
(#1207,#1208,#1209),
.UNSPECIFIED.,.F.,.F.,
(3,3),
(0.,1.),
.UNSPECIFIED.);
#913=LINE('',#1210,#1211);
#914=VERTEX_POINT('',#1213);
#915=LINE('',#1214,#1215);
#916=B_SPLINE_CURVE_WITH_KNOTS('',2,
(#1217,#1218,#1219),
.UNSPECIFIED.,.F.,.F.,
(3,3),
(0.,1.),
.UNSPECIFIED.);
#917=VERTEX_POINT('',#1220);
#918=LINE('',#1221,#1222);
#919=B_SPLINE_CURVE_WITH_KNOTS('',2,
(#1224,#1225,#1226),
.UNSPECIFIED.,.F.,.F.,
(3,3),
(0.,1.),
.UNSPECIFIED.);
#920=VERTEX_POINT('',#1227);
#921=LINE('',#1228,#1229);
#922=B_SPLINE_CURVE_WITH_KNOTS('',2,
(#1231,#1232,#1233),
.UNSPECIFIED.,.F.,.F.,
(3,3),
(0.,1.),
.UNSPECIFIED.);
#923=VERTEX_POINT('',#1234);
#924=LINE('',#1235,#1236);
#925=B_SPLINE_CURVE_WITH_KNOTS('',2,
(#1238,#1239,#1240),
.UNSPECIFIED.,.F.,.F.,
(3,3),
(0.,1.),
.UNSPECIFIED.);
#926=VERTEX_POINT('',#1241);
#927=LINE('',#1242,#1243);
#928=B_SPLINE_CURVE_WITH_KNOTS('',2,
(#1245,#1246,#1247),
.UNSPECIFIED.,.F.,.F.,
(3,3),
(0.,1.),
.UNSPECIFIED.);
#929=VERTEX_POINT('',#1248);
#930=LINE('',#1249,#1250);
#931=B_SPLINE_CURVE_WITH_KNOTS('',2,
(#1252,#1253,#1254),
.UNSPECIFIED.,.F.,.F.,
(3,3),
(0.,1.),
.UNSPECIFIED.);
#932=VERTEX_POINT('',#1255);
#933=LINE('',#1256,#1257);
#934=B_SPLINE_CURVE_WITH_KNOTS('',2,
(#1259,#1260,#1261),
.UNSPECIFIED.,.F.,.F.,
(3,3),
(0.,1.),
.UNSPECIFIED.);
#935=VERTEX_POINT('',#1262);
#936=LINE('',#1263,#1264);
#937=B_SPLINE_CURVE_WITH_KNOTS('',2,
(#1266,#1267,#1268),
.UNSPECIFIED.,.F.,.F.,
(3,3),
(0.,1.),
.UNSPECIFIED.);
#938=B_SPLINE_CURVE_WITH_KNOTS('',2,
(#1269,#1270,#1271),
.UNSPECIFIED.,.F.,.F.,
(3,3),
(0.,1.),
.UNSPECIFIED.);
#939=VERTEX_POINT('',#1272);
#940=LINE('',#1273,#1274);
#941=VERTEX_POINT('',#1276);
#942=B_SPLINE_CURVE_WITH_KNOTS('',2,
(#1277,#1278,#1279),
.UNSPECIFIED.,.F.,.F.,
(3,3),
(0.,1.),
.UNSPECIFIED.);
#943=LINE('',#1280,#1281);
#944=VERTEX_POINT('',#1283);
#945=B_SPLINE_CURVE_WITH_KNOTS('',2,
(#1284,#1285,#1286),
.UNSPECIFIED.,.F.,.F.,
(3,3),
(0.,1.),
.UNSPECIFIED.);
#946=LINE('',#1287,#1288);
#947=VERTEX_POINT('',#1290);
#948=B_SPLINE_CURVE_WITH_KNOTS('',2,
(#1291,#1292,#1293),
.UNSPECIFIED.,.F.,.F.,
(3,3),
(0.,1.),
.UNSPECIFIED.);
#949=LINE('',#1294,#1295);
#950=VERTEX_POINT('',#1297);
#951=B_SPLINE_CURVE_WITH_KNOTS('',2,
(#1298,#1299,#1300),
.UNSPECIFIED.,.F.,.F.,
(3,3),
(0.,1.),
.UNSPECIFIED.);
#952=LINE('',#1301,#1302);
#953=VERTEX_POINT('',#1304);
#954=B_SPLINE_CURVE_WITH_KNOTS('',2,
(#1305,#1306,#1307),
.UNSPECIFIED.,.F.,.F.,
(3,3),
(0.,1.),
.UNSPECIFIED.);
#955=LINE('',#1308,#1309);
#956=VERTEX_POINT('',#1311);
#957=B_SPLINE_CURVE_WITH_KNOTS('',2,
(#1312,#1313,#1314),
.UNSPECIFIED.,.F.,.F.,
(3,3),
(0.,1.),
.UNSPECIFIED.);
#958=LINE('',#1315,#1316);
#959=VERTEX_POINT('',#1318);
#960=B_SPLINE_CURVE_WITH_KNOTS('',2,
(#1319,#1320,#1321),
.UNSPECIFIED.,.F.,.F.,
(3,3),
(0.,1.),
.UNSPECIFIED.);
#961=LINE('',#1322,#1323);
#962=B_SPLINE_CURVE_WITH_KNOTS('',2,
(#1325,#1326,#1327),
.UNSPECIFIED.,.F.,.F.,
(3,3),
(0.,1.),
.UNSPECIFIED.);
#963=VERTEX_POINT('',#1328);
#964=LINE('',#1329,#1330);
#965=VERTEX_POINT('',#1332);
#966=LINE('',#1333,#1334);
#967=LINE('',#1336,#1337);
#968=VERTEX_POINT('',#1339);
#969=LINE('',#1340,#1341);
#970=LINE('',#1343,#1344);
#971=VERTEX_POINT('',#1346);
#972=LINE('',#1347,#1348);
#973=LINE('',#1350,#1351);
#974=VERTEX_POINT('',#1353);
#975=LINE('',#1354,#1355);
#976=LINE('',#1357,#1358);
#977=VERTEX_POINT('',#1360);
#978=LINE('',#1361,#1362);
#979=LINE('',#1364,#1365);
#980=LINE('',#1367,#1368);
#981=VERTEX_POINT('',#1370);
#982=LINE('',#1371,#1372);
#983=VERTEX_POINT('',#1374);
#984=LINE('',#1375,#1376);
#985=LINE('',#1378,#1379);
#986=VERTEX_POINT('',#1381);
#987=LINE('',#1382,#1383);
#988=LINE('',#1385,#1386);
#989=VERTEX_POINT('',#1388);
#990=LINE('',#1389,#1390);
#991=LINE('',#1392,#1393);
#992=LINE('',#1395,#1396);
#993=VERTEX_POINT('',#1398);
#994=VERTEX_POINT('',#1399);
#995=LINE('',#1400,#1401);
#996=VERTEX_POINT('',#1403);
#997=LINE('',#1404,#1405);
#998=VERTEX_POINT('',#1407);
#999=LINE('',#1408,#1409);
#1000=LINE('',#1411,#1412);
#1001=VERTEX_POINT('',#1414);
#1002=VERTEX_POINT('',#1415);
#1003=LINE('',#1416,#1417);
#1004=LINE('',#1419,#1420);
#1005=LINE('',#1422,#1423);
#1006=VERTEX_POINT('',#1425);
#1007=LINE('',#1426,#1427);
#1008=LINE('',#1429,#1430);
#1009=VERTEX_POINT('',#1432);
#1010=LINE('',#1433,#1434);
#1011=LINE('',#1436,#1437);
#1012=LINE('',#1439,#1440);
#1013=CARTESIAN_POINT('',(27.1268934363201,8.66428189107276,1.));
#1014=CARTESIAN_POINT('',(26.5626694921173,6.17225417814583,1.));
#1015=CARTESIAN_POINT('',(26.5626694921173,6.17225417814583,1.));
#1016=CARTESIAN_POINT('',(27.1412801485095,7.87484790795942,1.));
#1017=CARTESIAN_POINT('',(27.1268934363201,8.66428189107276,1.));
#1018=CARTESIAN_POINT('',(26.5118033452746,9.45371587418611,1.));
#1019=CARTESIAN_POINT('',(27.1268934363201,8.66428189107276,1.));
#1020=CARTESIAN_POINT('',(27.1125067241307,9.45371587418611,1.));
#1021=CARTESIAN_POINT('',(26.5118033452746,9.45371587418611,1.));
#1022=CARTESIAN_POINT('',(25.3759305383775,8.67607240428453,1.));
#1023=CARTESIAN_POINT('',(26.5118033452746,9.45371587418611,1.));
#1024=CARTESIAN_POINT('',(25.9287608827228,9.45371587418611,1.));
#1025=CARTESIAN_POINT('',(25.3759305383775,8.67607240428453,1.));
#1026=CARTESIAN_POINT('',(24.2905270295655,6.3313349123591,1.));
#1027=CARTESIAN_POINT('',(25.3759305383775,8.67607240428453,1.));
#1028=CARTESIAN_POINT('',(24.8231002263305,7.89842890208469,1.));
#1029=CARTESIAN_POINT('',(24.2905270295655,6.3313349123591,1.));
#1030=CARTESIAN_POINT('',(23.7193577637787,3.82753322293106,1.));
#1031=CARTESIAN_POINT('',(24.2905270295655,6.3313349123591,1.));
#1032=CARTESIAN_POINT('',(23.7079145214909,4.61696720604441,1.));
#1033=CARTESIAN_POINT('',(23.7193577637787,3.82753322293106,1.));
#1034=CARTESIAN_POINT('',(24.3315043849226,3.03809920751945,1.));
#1035=CARTESIAN_POINT('',(23.7193577637787,3.82753322293106,1.));
#1036=CARTESIAN_POINT('',(23.7308010060666,3.03809920751945,1.));
#1037=CARTESIAN_POINT('',(24.3315043849226,3.03809920751945,1.));
#1038=CARTESIAN_POINT('',(25.4743224811053,3.82753322293106,1.));
#1039=CARTESIAN_POINT('',(24.3315043849226,3.03809920751945,1.));
#1040=CARTESIAN_POINT('',(24.9145137417549,3.03809920751945,1.));
#1041=CARTESIAN_POINT('',(25.4743224811053,3.82753322293106,1.));
#1042=CARTESIAN_POINT('',(25.4743224811053,3.82753322293106,1.));
#1043=CARTESIAN_POINT('',(26.0341311881576,4.61696720604441,1.));
#1044=CARTESIAN_POINT('',(26.5626694921173,6.17225417814583,1.));
#1045=CARTESIAN_POINT('',(48.5,0.999999999999999,1.));
#1046=CARTESIAN_POINT('',(1.,0.999999999999999,1.));
#1047=CARTESIAN_POINT('',(1.,0.999999999999999,1.));
#1048=VECTOR('',#1049,1.);
#1049=DIRECTION('',(1.,0.,0.));
#1050=CARTESIAN_POINT('',(48.5,11.5,1.));
#1051=CARTESIAN_POINT('',(48.5,0.999999999999999,1.));
#1052=VECTOR('',#1053,1.);
#1053=DIRECTION('',(0.,1.,0.));
#1054=CARTESIAN_POINT('',(1.,11.5,1.));
#1055=CARTESIAN_POINT('',(48.5,11.5,1.));
#1056=VECTOR('',#1057,1.);
#1057=DIRECTION('',(-1.,0.,0.));
#1058=CARTESIAN_POINT('',(1.,11.5,1.));
#1059=VECTOR('',#1060,1.);
#1060=DIRECTION('',(0.,-1.,0.));
#1061=CARTESIAN_POINT('',(18.0158015146929,9.19991431471407,1.));
#1062=CARTESIAN_POINT('',(15.6793322166079,2.32478254085278,1.));
#1063=CARTESIAN_POINT('',(18.0158015146929,9.19991431471407,1.));
#1064=VECTOR('',#1065,1.);
#1065=DIRECTION('',(-0.321769963312185,-0.946817876209609,0.));
#1066=CARTESIAN_POINT('',(16.3906975837145,8.95841587418611,1.));
#1067=CARTESIAN_POINT('',(16.3906975837145,8.95841587418611,1.));
#1068=VECTOR('',#1069,1.);
#1069=DIRECTION('',(0.989137866143484,0.146990753998729,0.));
#1070=CARTESIAN_POINT('',(16.6489309170478,9.71829920751945,1.));
#1071=CARTESIAN_POINT('',(16.6489309170478,9.71829920751945,1.));
#1072=VECTOR('',#1073,1.);
#1073=DIRECTION('',(-0.321760883930677,-0.946820961730437,0.));
#1074=CARTESIAN_POINT('',(20.4917392665303,10.3130825408528,1.));
#1075=CARTESIAN_POINT('',(20.4917392665303,10.3130825408528,1.));
#1076=VECTOR('',#1077,1.);
#1077=DIRECTION('',(-0.988232845540621,-0.152956997207341,0.));
#1078=CARTESIAN_POINT('',(17.7769488832745,2.32478254085278,1.));
#1079=CARTESIAN_POINT('',(17.7769488832745,2.32478254085278,1.));
#1080=VECTOR('',#1081,1.);
#1081=DIRECTION('',(0.32177187861683,0.946817225303488,0.));
#1082=CARTESIAN_POINT('',(15.6793322166079,2.32478254085278,1.));
#1083=VECTOR('',#1084,1.);
#1084=DIRECTION('',(1.,0.,0.));
#1085=CARTESIAN_POINT('',(28.8804525655386,6.59585209884978,1.));
#1086=CARTESIAN_POINT('',(29.0292475949122,9.37372903204069,1.));
#1087=CARTESIAN_POINT('',(28.8804525655386,6.59585209884978,1.));
#1088=CARTESIAN_POINT('',(29.4851246903574,8.37510885656194,1.));
#1089=CARTESIAN_POINT('',(29.0292475949122,9.37372903204069,1.));
#1090=CARTESIAN_POINT('',(28.0553329098839,4.88728868108319,1.));
#1091=CARTESIAN_POINT('',(28.0553329098839,4.88728868108319,1.));
#1092=CARTESIAN_POINT('',(28.5660944759681,5.67086876551645,1.));
#1093=CARTESIAN_POINT('',(28.8804525655386,6.59585209884978,1.));
#1094=CARTESIAN_POINT('',(26.8611856389599,3.49688673174314,1.));
#1095=CARTESIAN_POINT('',(26.8611856389599,3.49688673174314,1.));
#1096=CARTESIAN_POINT('',(27.5445713115013,4.10370859664994,1.));
#1097=CARTESIAN_POINT('',(28.0553329098839,4.88728868108319,1.));
#1098=CARTESIAN_POINT('',(25.2905032153186,2.48060560766186,1.));
#1099=CARTESIAN_POINT('',(25.2905032153186,2.48060560766186,1.));
#1100=CARTESIAN_POINT('',(26.1047418768481,2.83116197550602,1.));
#1101=CARTESIAN_POINT('',(26.8611856389599,3.49688673174314,1.));
#1102=CARTESIAN_POINT('',(23.6809931764081,2.13004920751945,1.));
#1103=CARTESIAN_POINT('',(23.6809931764081,2.13004920751945,1.));
#1104=CARTESIAN_POINT('',(24.4762645214909,2.13004920751945,1.));
#1105=CARTESIAN_POINT('',(25.2905032153186,2.48060560766186,1.));
#1106=CARTESIAN_POINT('',(21.8150357689159,3.09625794686992,1.));
#1107=CARTESIAN_POINT('',(21.8150357689159,3.09625794686992,1.));
#1108=CARTESIAN_POINT('',(22.2907731308854,2.13004920751945,1.));
#1109=CARTESIAN_POINT('',(23.6809931764081,2.13004920751945,1.));
#1110=CARTESIAN_POINT('',(21.913940317376,5.75335261867379,1.));
#1111=CARTESIAN_POINT('',(21.913940317376,5.75335261867379,1.));
#1112=CARTESIAN_POINT('',(21.3392983746482,4.0624666862204,1.));
#1113=CARTESIAN_POINT('',(21.8150357689159,3.09625794686992,1.));
#1114=CARTESIAN_POINT('',(24.0790918768481,9.0909390709512,1.));
#1115=CARTESIAN_POINT('',(24.0790918768481,9.0909390709512,1.));
#1116=CARTESIAN_POINT('',(22.6127049047467,7.80952890208469,1.));
#1117=CARTESIAN_POINT('',(21.913940317376,5.75335261867379,1.));
#1118=CARTESIAN_POINT('',(27.1713434363201,10.3723492075194,1.));
#1119=CARTESIAN_POINT('',(27.1713434363201,10.3723492075194,1.));
#1120=CARTESIAN_POINT('',(25.5454788489495,10.3723492075194,1.));
#1121=CARTESIAN_POINT('',(24.0790918768481,9.0909390709512,1.));
#1122=CARTESIAN_POINT('',(29.0292475949122,9.37372903204069,1.));
#1123=CARTESIAN_POINT('',(28.5733705317653,10.3723492075194,1.));
#1124=CARTESIAN_POINT('',(27.1713434363201,10.3723492075194,1.));
#1125=CARTESIAN_POINT('',(33.5621549159444,9.25263254085278,1.));
#1126=CARTESIAN_POINT('',(28.0683796398832,2.32478254085278,1.));
#1127=CARTESIAN_POINT('',(33.5621549159444,9.25263254085278,1.));
#1128=VECTOR('',#1129,1.);
#1129=DIRECTION('',(-0.6213442736239,-0.783537678503585,0.));
#1130=CARTESIAN_POINT('',(30.1812760011151,9.25263254085278,1.));
#1131=CARTESIAN_POINT('',(30.1812760011151,9.25263254085278,1.));
#1132=VECTOR('',#1133,1.);
#1133=DIRECTION('',(1.,0.,0.));
#1134=CARTESIAN_POINT('',(30.5035385091897,10.2008992075194,1.));
#1135=CARTESIAN_POINT('',(30.5035385091897,10.2008992075194,1.));
#1136=VECTOR('',#1137,1.);
#1137=DIRECTION('',(-0.321770126798672,-0.946817820649763,0.));
#1138=CARTESIAN_POINT('',(36.0873051758564,10.2008992075194,1.));
#1139=CARTESIAN_POINT('',(36.0873051758564,10.2008992075194,1.));
#1140=VECTOR('',#1141,1.);
#1141=DIRECTION('',(-1.,0.,0.));
#1142=CARTESIAN_POINT('',(35.7109353902456,9.09341954525246,1.));
#1143=CARTESIAN_POINT('',(35.7109353902456,9.09341954525246,1.));
#1144=VECTOR('',#1145,1.);
#1145=DIRECTION('',(0.321769923474286,0.946817889748262,0.));
#1146=CARTESIAN_POINT('',(30.3949270407632,2.32478254085278,1.));
#1147=CARTESIAN_POINT('',(30.3949270407632,2.32478254085278,1.));
#1148=VECTOR('',#1149,1.);
#1149=DIRECTION('',(0.617663030051524,0.786442865888915,0.));
#1150=CARTESIAN_POINT('',(28.0683796398832,2.32478254085278,1.));
#1151=VECTOR('',#1152,1.);
#1152=DIRECTION('',(1.,0.,0.));
#1153=CARTESIAN_POINT('',(33.5621549159444,9.25263254085278,2.));
#1154=CARTESIAN_POINT('',(33.5621549159444,9.25263254085278,1.));
#1155=VECTOR('',#1156,1.);
#1156=DIRECTION('',(0.,0.,1.));
#1157=CARTESIAN_POINT('',(30.1812760011151,9.25263254085278,2.));
#1158=CARTESIAN_POINT('',(30.1812760011151,9.25263254085278,2.));
#1159=VECTOR('',#1160,1.);
#1160=DIRECTION('',(1.,0.,0.));
#1161=CARTESIAN_POINT('',(30.1812760011151,9.25263254085278,1.));
#1162=VECTOR('',#1163,1.);
#1163=DIRECTION('',(0.,0.,1.));
#1164=CARTESIAN_POINT('',(30.5035385091897,10.2008992075194,2.));
#1165=CARTESIAN_POINT('',(30.5035385091897,10.2008992075194,2.));
#1166=VECTOR('',#1167,1.);
#1167=DIRECTION('',(-0.321770126798672,-0.946817820649763,0.));
#1168=CARTESIAN_POINT('',(30.5035385091897,10.2008992075194,1.));
#1169=VECTOR('',#1170,1.);
#1170=DIRECTION('',(0.,0.,1.));
#1171=CARTESIAN_POINT('',(36.0873051758564,10.2008992075194,2.));
#1172=CARTESIAN_POINT('',(36.0873051758564,10.2008992075194,2.));
#1173=VECTOR('',#1174,1.);
#1174=DIRECTION('',(-1.,0.,0.));
#1175=CARTESIAN_POINT('',(36.0873051758564,10.2008992075194,1.));
#1176=VECTOR('',#1177,1.);
#1177=DIRECTION('',(0.,0.,1.));
#1178=CARTESIAN_POINT('',(35.7109353902456,9.09341954525246,2.));
#1179=CARTESIAN_POINT('',(35.7109353902456,9.09341954525246,2.));
#1180=VECTOR('',#1181,1.);
#1181=DIRECTION('',(0.321769923474286,0.946817889748262,0.));
#1182=CARTESIAN_POINT('',(35.7109353902456,9.09341954525246,1.));
#1183=VECTOR('',#1184,1.);
#1184=DIRECTION('',(0.,0.,1.));
#1185=CARTESIAN_POINT('',(30.3949270407632,2.32478254085278,2.));
#1186=CARTESIAN_POINT('',(30.3949270407632,2.32478254085278,2.));
#1187=VECTOR('',#1188,1.);
#1188=DIRECTION('',(0.617663030051525,0.786442865888915,0.));
#1189=CARTESIAN_POINT('',(30.3949270407632,2.32478254085278,1.));
#1190=VECTOR('',#1191,1.);
#1191=DIRECTION('',(0.,0.,1.));
#1192=CARTESIAN_POINT('',(28.0683796398832,2.32478254085278,2.));
#1193=CARTESIAN_POINT('',(28.0683796398832,2.32478254085278,2.));
#1194=VECTOR('',#1195,1.);
#1195=DIRECTION('',(1.,0.,0.));
#1196=CARTESIAN_POINT('',(28.0683796398832,2.32478254085278,1.));
#1197=VECTOR('',#1198,1.);
#1198=DIRECTION('',(0.,0.,1.));
#1199=CARTESIAN_POINT('',(33.5621549159444,9.25263254085278,2.));
#1200=VECTOR('',#1201,1.);
#1201=DIRECTION('',(-0.6213442736239,-0.783537678503585,0.));
#1202=CARTESIAN_POINT('',(27.1713434363201,10.3723492075194,2.));
#1203=CARTESIAN_POINT('',(27.1713434363201,10.3723492075194,1.));
#1204=VECTOR('',#1205,1.);
#1205=DIRECTION('',(0.,0.,1.));
#1206=CARTESIAN_POINT('',(29.0292475949122,9.37372903204069,2.));
#1207=CARTESIAN_POINT('',(29.0292475949122,9.37372903204069,2.));
#1208=CARTESIAN_POINT('',(28.5733705317653,10.3723492075194,2.));
#1209=CARTESIAN_POINT('',(27.1713434363201,10.3723492075194,2.));
#1210=CARTESIAN_POINT('',(29.0292475949122,9.37372903204069,1.));
#1211=VECTOR('',#1212,1.);
#1212=DIRECTION('',(0.,0.,1.));
#1213=CARTESIAN_POINT('',(24.0790918768481,9.0909390709512,2.));
#1214=CARTESIAN_POINT('',(24.0790918768481,9.0909390709512,1.));
#1215=VECTOR('',#1216,1.);
#1216=DIRECTION('',(0.,0.,1.));
#1217=CARTESIAN_POINT('',(27.1713434363201,10.3723492075194,2.));
#1218=CARTESIAN_POINT('',(25.5454788489495,10.3723492075194,2.));
#1219=CARTESIAN_POINT('',(24.0790918768481,9.0909390709512,2.));
#1220=CARTESIAN_POINT('',(21.913940317376,5.75335261867379,2.));
#1221=CARTESIAN_POINT('',(21.913940317376,5.75335261867379,1.));
#1222=VECTOR('',#1223,1.);
#1223=DIRECTION('',(0.,0.,1.));
#1224=CARTESIAN_POINT('',(24.0790918768481,9.0909390709512,2.));
#1225=CARTESIAN_POINT('',(22.6127049047467,7.80952890208469,2.));
#1226=CARTESIAN_POINT('',(21.913940317376,5.75335261867379,2.));
#1227=CARTESIAN_POINT('',(21.8150357689159,3.09625794686992,2.));
#1228=CARTESIAN_POINT('',(21.8150357689159,3.09625794686992,1.));
#1229=VECTOR('',#1230,1.);
#1230=DIRECTION('',(0.,0.,1.));
#1231=CARTESIAN_POINT('',(21.913940317376,5.75335261867379,2.));
#1232=CARTESIAN_POINT('',(21.3392983746482,4.0624666862204,2.));
#1233=CARTESIAN_POINT('',(21.8150357689159,3.09625794686992,2.));
#1234=CARTESIAN_POINT('',(23.6809931764081,2.13004920751945,2.));
#1235=CARTESIAN_POINT('',(23.6809931764081,2.13004920751945,1.));
#1236=VECTOR('',#1237,1.);
#1237=DIRECTION('',(0.,0.,1.));
#1238=CARTESIAN_POINT('',(21.8150357689159,3.09625794686992,2.));
#1239=CARTESIAN_POINT('',(22.2907731308854,2.13004920751945,2.));
#1240=CARTESIAN_POINT('',(23.6809931764081,2.13004920751945,2.));
#1241=CARTESIAN_POINT('',(25.2905032153186,2.48060560766186,2.));
#1242=CARTESIAN_POINT('',(25.2905032153186,2.48060560766186,1.));
#1243=VECTOR('',#1244,1.);
#1244=DIRECTION('',(0.,0.,1.));
#1245=CARTESIAN_POINT('',(23.6809931764081,2.13004920751945,2.));
#1246=CARTESIAN_POINT('',(24.4762645214909,2.13004920751945,2.));
#1247=CARTESIAN_POINT('',(25.2905032153186,2.48060560766186,2.));
#1248=CARTESIAN_POINT('',(26.8611856389599,3.49688673174314,2.));
#1249=CARTESIAN_POINT('',(26.8611856389599,3.49688673174314,1.));
#1250=VECTOR('',#1251,1.);
#1251=DIRECTION('',(0.,0.,1.));
#1252=CARTESIAN_POINT('',(25.2905032153186,2.48060560766186,2.));
#1253=CARTESIAN_POINT('',(26.1047418768481,2.83116197550602,2.));
#1254=CARTESIAN_POINT('',(26.8611856389599,3.49688673174314,2.));
#1255=CARTESIAN_POINT('',(28.0553329098839,4.88728868108319,2.));
#1256=CARTESIAN_POINT('',(28.0553329098839,4.88728868108319,1.));
#1257=VECTOR('',#1258,1.);
#1258=DIRECTION('',(0.,0.,1.));
#1259=CARTESIAN_POINT('',(26.8611856389599,3.49688673174314,2.));
#1260=CARTESIAN_POINT('',(27.5445713115013,4.10370859664994,2.));
#1261=CARTESIAN_POINT('',(28.0553329098839,4.88728868108319,2.));
#1262=CARTESIAN_POINT('',(28.8804525655386,6.59585209884978,2.));
#1263=CARTESIAN_POINT('',(28.8804525655386,6.59585209884978,1.));
#1264=VECTOR('',#1265,1.);
#1265=DIRECTION('',(0.,0.,1.));
#1266=CARTESIAN_POINT('',(28.0553329098839,4.88728868108319,2.));
#1267=CARTESIAN_POINT('',(28.5660944759681,5.67086876551645,2.));
#1268=CARTESIAN_POINT('',(28.8804525655386,6.59585209884978,2.));
#1269=CARTESIAN_POINT('',(28.8804525655386,6.59585209884978,2.));
#1270=CARTESIAN_POINT('',(29.4851246903574,8.37510885656194,2.));
#1271=CARTESIAN_POINT('',(29.0292475949122,9.37372903204069,2.));
#1272=CARTESIAN_POINT('',(27.1268934363201,8.66428189107276,2.));
#1273=CARTESIAN_POINT('',(27.1268934363201,8.66428189107276,1.));
#1274=VECTOR('',#1275,1.);
#1275=DIRECTION('',(0.,0.,1.));
#1276=CARTESIAN_POINT('',(26.5118033452746,9.45371587418611,2.));
#1277=CARTESIAN_POINT('',(27.1268934363201,8.66428189107276,2.));
#1278=CARTESIAN_POINT('',(27.1125067241307,9.45371587418611,2.));
#1279=CARTESIAN_POINT('',(26.5118033452746,9.45371587418611,2.));
#1280=CARTESIAN_POINT('',(26.5118033452746,9.45371587418611,1.));
#1281=VECTOR('',#1282,1.);
#1282=DIRECTION('',(0.,0.,1.));
#1283=CARTESIAN_POINT('',(25.3759305383775,8.67607240428453,2.));
#1284=CARTESIAN_POINT('',(26.5118033452746,9.45371587418611,2.));
#1285=CARTESIAN_POINT('',(25.9287608827228,9.45371587418611,2.));
#1286=CARTESIAN_POINT('',(25.3759305383775,8.67607240428453,2.));
#1287=CARTESIAN_POINT('',(25.3759305383775,8.67607240428453,1.));
#1288=VECTOR('',#1289,1.);
#1289=DIRECTION('',(0.,0.,1.));
#1290=CARTESIAN_POINT('',(24.2905270295655,6.3313349123591,2.));
#1291=CARTESIAN_POINT('',(25.3759305383775,8.67607240428453,2.));
#1292=CARTESIAN_POINT('',(24.8231002263305,7.89842890208469,2.));
#1293=CARTESIAN_POINT('',(24.2905270295655,6.3313349123591,2.));
#1294=CARTESIAN_POINT('',(24.2905270295655,6.3313349123591,1.));
#1295=VECTOR('',#1296,1.);
#1296=DIRECTION('',(0.,0.,1.));
#1297=CARTESIAN_POINT('',(23.7193577637787,3.82753322293106,2.));
#1298=CARTESIAN_POINT('',(24.2905270295655,6.3313349123591,2.));
#1299=CARTESIAN_POINT('',(23.7079145214909,4.61696720604441,2.));
#1300=CARTESIAN_POINT('',(23.7193577637787,3.82753322293106,2.));
#1301=CARTESIAN_POINT('',(23.7193577637787,3.82753322293106,1.));
#1302=VECTOR('',#1303,1.);
#1303=DIRECTION('',(0.,0.,1.));
#1304=CARTESIAN_POINT('',(24.3315043849226,3.03809920751945,2.));
#1305=CARTESIAN_POINT('',(23.7193577637787,3.82753322293106,2.));
#1306=CARTESIAN_POINT('',(23.7308010060666,3.03809920751945,2.));
#1307=CARTESIAN_POINT('',(24.3315043849226,3.03809920751945,2.));
#1308=CARTESIAN_POINT('',(24.3315043849226,3.03809920751945,1.));
#1309=VECTOR('',#1310,1.);
#1310=DIRECTION('',(0.,0.,1.));
#1311=CARTESIAN_POINT('',(25.4743224811053,3.82753322293106,2.));
#1312=CARTESIAN_POINT('',(24.3315043849226,3.03809920751945,2.));
#1313=CARTESIAN_POINT('',(24.9145137417549,3.03809920751945,2.));
#1314=CARTESIAN_POINT('',(25.4743224811053,3.82753322293106,2.));
#1315=CARTESIAN_POINT('',(25.4743224811053,3.82753322293106,1.));
#1316=VECTOR('',#1317,1.);
#1317=DIRECTION('',(0.,0.,1.));
#1318=CARTESIAN_POINT('',(26.5626694921173,6.17225417814583,2.));
#1319=CARTESIAN_POINT('',(25.4743224811053,3.82753322293106,2.));
#1320=CARTESIAN_POINT('',(26.0341311881576,4.61696720604441,2.));
#1321=CARTESIAN_POINT('',(26.5626694921173,6.17225417814583,2.));
#1322=CARTESIAN_POINT('',(26.5626694921173,6.17225417814583,1.));
#1323=VECTOR('',#1324,1.);
#1324=DIRECTION('',(0.,0.,1.));
#1325=CARTESIAN_POINT('',(26.5626694921173,6.17225417814583,2.));
#1326=CARTESIAN_POINT('',(27.1412801485095,7.87484790795942,2.));
#1327=CARTESIAN_POINT('',(27.1268934363201,8.66428189107276,2.));
#1328=CARTESIAN_POINT('',(18.0158015146929,9.19991431471407,2.));
#1329=CARTESIAN_POINT('',(18.0158015146929,9.19991431471407,1.));
#1330=VECTOR('',#1331,1.);
#1331=DIRECTION('',(0.,0.,1.));
#1332=CARTESIAN_POINT('',(16.3906975837145,8.95841587418611,2.));
#1333=CARTESIAN_POINT('',(16.3906975837145,8.95841587418611,2.));
#1334=VECTOR('',#1335,1.);
#1335=DIRECTION('',(0.989137866143484,0.146990753998729,0.));
#1336=CARTESIAN_POINT('',(16.3906975837145,8.95841587418611,1.));
#1337=VECTOR('',#1338,1.);
#1338=DIRECTION('',(0.,0.,1.));
#1339=CARTESIAN_POINT('',(16.6489309170478,9.71829920751945,2.));
#1340=CARTESIAN_POINT('',(16.6489309170478,9.71829920751945,2.));
#1341=VECTOR('',#1342,1.);
#1342=DIRECTION('',(-0.321760883930677,-0.946820961730437,0.));
#1343=CARTESIAN_POINT('',(16.6489309170478,9.71829920751945,1.));
#1344=VECTOR('',#1345,1.);
#1345=DIRECTION('',(0.,0.,1.));
#1346=CARTESIAN_POINT('',(20.4917392665303,10.3130825408528,2.));
#1347=CARTESIAN_POINT('',(20.4917392665303,10.3130825408528,2.));
#1348=VECTOR('',#1349,1.);
#1349=DIRECTION('',(-0.988232845540621,-0.152956997207341,0.));
#1350=CARTESIAN_POINT('',(20.4917392665303,10.3130825408528,1.));
#1351=VECTOR('',#1352,1.);
#1352=DIRECTION('',(0.,0.,1.));
#1353=CARTESIAN_POINT('',(17.7769488832745,2.32478254085278,2.));
#1354=CARTESIAN_POINT('',(17.7769488832745,2.32478254085278,2.));
#1355=VECTOR('',#1356,1.);
#1356=DIRECTION('',(0.32177187861683,0.946817225303488,0.));
#1357=CARTESIAN_POINT('',(17.7769488832745,2.32478254085278,1.));
#1358=VECTOR('',#1359,1.);
#1359=DIRECTION('',(0.,0.,1.));
#1360=CARTESIAN_POINT('',(15.6793322166079,2.32478254085278,2.));
#1361=CARTESIAN_POINT('',(15.6793322166079,2.32478254085278,2.));
#1362=VECTOR('',#1363,1.);
#1363=DIRECTION('',(1.,0.,0.));
#1364=CARTESIAN_POINT('',(15.6793322166079,2.32478254085278,1.));
#1365=VECTOR('',#1366,1.);
#1366=DIRECTION('',(0.,0.,1.));
#1367=CARTESIAN_POINT('',(18.0158015146929,9.19991431471407,2.));
#1368=VECTOR('',#1369,1.);
#1369=DIRECTION('',(-0.321769963312185,-0.946817876209609,0.));
#1370=CARTESIAN_POINT('',(1.,0.999999999999999,2.));
#1371=CARTESIAN_POINT('',(1.,0.999999999999999,1.));
#1372=VECTOR('',#1373,1.);
#1373=DIRECTION('',(0.,0.,1.));
#1374=CARTESIAN_POINT('',(48.5,0.999999999999999,2.));
#1375=CARTESIAN_POINT('',(1.,0.999999999999999,2.));
#1376=VECTOR('',#1377,1.);
#1377=DIRECTION('',(1.,0.,0.));
#1378=CARTESIAN_POINT('',(48.5,0.999999999999999,1.));
#1379=VECTOR('',#1380,1.);
#1380=DIRECTION('',(0.,0.,1.));
#1381=CARTESIAN_POINT('',(48.5,11.5,2.));
#1382=CARTESIAN_POINT('',(48.5,0.999999999999999,2.));
#1383=VECTOR('',#1384,1.);
#1384=DIRECTION('',(0.,1.,0.));
#1385=CARTESIAN_POINT('',(48.5,11.5,1.));
#1386=VECTOR('',#1387,1.);
#1387=DIRECTION('',(0.,0.,1.));
#1388=CARTESIAN_POINT('',(1.,11.5,2.));
#1389=CARTESIAN_POINT('',(48.5,11.5,2.));
#1390=VECTOR('',#1391,1.);
#1391=DIRECTION('',(-1.,0.,0.));
#1392=CARTESIAN_POINT('',(1.,11.5,1.));
#1393=VECTOR('',#1394,1.);
#1394=DIRECTION('',(0.,0.,1.));
#1395=CARTESIAN_POINT('',(1.,11.5,2.));
#1396=VECTOR('',#1397,1.);
#1397=DIRECTION('',(0.,-1.,0.));
#1398=CARTESIAN_POINT('',(0.,12.5,2.));
#1399=CARTESIAN_POINT('',(0.,0.,2.));
#1400=CARTESIAN_POINT('',(-4.08551437129934E-34,12.5,2.));
#1401=VECTOR('',#1402,1.);
#1402=DIRECTION('',(3.26841149703947E-35,-1.,0.));
#1403=CARTESIAN_POINT('',(49.5,0.,2.));
#1404=CARTESIAN_POINT('',(0.,0.,2.));
#1405=VECTOR('',#1406,1.);
#1406=DIRECTION('',(1.,0.,0.));
#1407=CARTESIAN_POINT('',(49.5,12.5,2.));
#1408=CARTESIAN_POINT('',(49.5,0.,2.));
#1409=VECTOR('',#1410,1.);
#1410=DIRECTION('',(0.,1.,0.));
#1411=CARTESIAN_POINT('',(49.5,12.5,2.));
#1412=VECTOR('',#1413,1.);
#1413=DIRECTION('',(-1.,-3.58859967555606E-17,0.));
#1414=CARTESIAN_POINT('',(-8.17102874259867E-34,12.5,0.));
#1415=CARTESIAN_POINT('',(0.,0.,0.));
#1416=CARTESIAN_POINT('',(-8.17102874259867E-34,12.5,0.));
#1417=VECTOR('',#1418,1.);
#1418=DIRECTION('',(6.53682299407893E-35,-1.,0.));
#1419=CARTESIAN_POINT('',(0.,0.,0.));
#1420=VECTOR('',#1421,1.);
#1421=DIRECTION('',(0.,0.,1.));
#1422=CARTESIAN_POINT('',(-4.08551437129933E-34,12.5,0.));
#1423=VECTOR('',#1424,1.);
#1424=DIRECTION('',(-4.27642353614751E-50,0.,1.));
#1425=CARTESIAN_POINT('',(49.5,-8.88178419700125E-16,0.));
#1426=CARTESIAN_POINT('',(0.,0.,0.));
#1427=VECTOR('',#1428,1.);
#1428=DIRECTION('',(1.,0.,0.));
#1429=CARTESIAN_POINT('',(49.5,-8.88178419700125E-16,0.));
#1430=VECTOR('',#1431,1.);
#1431=DIRECTION('',(0.,4.44089209850063E-16,1.));
#1432=CARTESIAN_POINT('',(49.5,12.5,0.));
#1433=CARTESIAN_POINT('',(49.5,-1.77635683940025E-15,0.));
#1434=VECTOR('',#1435,1.);
#1435=DIRECTION('',(0.,1.,0.));
#1436=CARTESIAN_POINT('',(49.5,12.5,0.));
#1437=VECTOR('',#1438,1.);
#1438=DIRECTION('',(0.,0.,1.));
#1439=CARTESIAN_POINT('',(49.5,12.5,0.));
#1440=VECTOR('',#1441,1.);
#1441=DIRECTION('',(-1.,-3.58859967555606E-17,0.));
ENDSEC;
END-ISO-10303-21;
