ISO-10303-21;
HEADER;
FILE_DESCRIPTION (( 'STEP AP203' ),
    '1' );
FILE_NAME ('крепление м.STEP',
    '2024-03-25T11:59:13',
    ( '' ),
    ( '' ),
    'SwSTEP 2.0',
    'SolidWorks 2018',
    '' );
FILE_SCHEMA (( 'CONFIG_CONTROL_DESIGN' ));
ENDSEC;

DATA;
#1 = AXIS2_PLACEMENT_3D ( 'NONE', #1166, #23, #683 ) ;
#2 = VERTEX_POINT ( 'NONE', #1104 ) ;
#3 = ORIENTED_EDGE ( 'NONE', *, *, #915, .F. ) ;
#4 = EDGE_CURVE ( 'NONE', #1196, #272, #219, .T. ) ;
#5 = EDGE_CURVE ( 'NONE', #809, #880, #398, .T. ) ;
#6 = AXIS2_PLACEMENT_3D ( 'NONE', #801, #1017, #332 ) ;
#7 = DIRECTION ( 'NONE',  ( 0.0000000000000000000, 0.0000000000000000000, -1.000000000000000000 ) ) ;
#8 = EDGE_LOOP ( 'NONE', ( #686, #182 ) ) ;
#9 = LINE ( 'NONE', #590, #1189 ) ;
#10 = DIRECTION ( 'NONE',  ( -1.000000000000000000, -1.000802005371235004E-16, 0.0000000000000000000 ) ) ;
#11 = ORIENTED_EDGE ( 'NONE', *, *, #215, .T. ) ;
#12 = DIRECTION ( 'NONE',  ( -1.000000000000000000, 0.0000000000000000000, 0.0000000000000000000 ) ) ;
#13 = VERTEX_POINT ( 'NONE', #1127 ) ;
#14 = CARTESIAN_POINT ( 'NONE',  ( 11.00000000000000000, -12.10000000000000320, 2.000000000000001776 ) ) ;
#15 = DIRECTION ( 'NONE',  ( 0.0000000000000000000, 0.0000000000000000000, 1.000000000000000000 ) ) ;
#16 = PLANE ( 'NONE',  #979 ) ;
#17 = CARTESIAN_POINT ( 'NONE',  ( -1.000000000000000888, 2.000000000000000000, 10.00000000000000000 ) ) ;
#18 = CARTESIAN_POINT ( 'NONE',  ( 11.00000000000000000, -0.09999999999999971412, 10.00000000000000000 ) ) ;
#19 = DIRECTION ( 'NONE',  ( 0.0000000000000000000, -1.000000000000000000, 0.0000000000000000000 ) ) ;
#20 = FACE_OUTER_BOUND ( 'NONE', #207, .T. ) ;
#21 = ORIENTED_EDGE ( 'NONE', *, *, #865, .T. ) ;
#22 = CYLINDRICAL_SURFACE ( 'NONE', #261, 1.500000000000000444 ) ;
#23 = DIRECTION ( 'NONE',  ( 0.0000000000000000000, -1.000000000000000000, 0.0000000000000000000 ) ) ;
#24 = LINE ( 'NONE', #180, #438 ) ;
#25 = VERTEX_POINT ( 'NONE', #323 ) ;
#26 = PLANE ( 'NONE',  #996 ) ;
#27 = LINE ( 'NONE', #127, #1016 ) ;
#28 = DIRECTION ( 'NONE',  ( -0.0000000000000000000, -0.0000000000000000000, 1.000000000000000000 ) ) ;
#29 = EDGE_CURVE ( 'NONE', #308, #463, #199, .T. ) ;
#30 = EDGE_LOOP ( 'NONE', ( #489, #249, #252, #678 ) ) ;
#31 = PLANE ( 'NONE',  #787 ) ;
#32 = CIRCLE ( 'NONE', #750, 1.500000000000000444 ) ;
#33 = VERTEX_POINT ( 'NONE', #415 ) ;
#34 = ORIENTED_EDGE ( 'NONE', *, *, #381, .T. ) ;
#35 = FACE_OUTER_BOUND ( 'NONE', #52, .T. ) ;
#36 = DIRECTION ( 'NONE',  ( 0.0000000000000000000, 0.0000000000000000000, 1.000000000000000000 ) ) ;
#37 = VERTEX_POINT ( 'NONE', #41 ) ;
#38 = CARTESIAN_POINT ( 'NONE',  ( -1.000000000000000888, -0.09999999999999939493, 10.00000000000000000 ) ) ;
#39 = FACE_OUTER_BOUND ( 'NONE', #329, .T. ) ;
#40 = CARTESIAN_POINT ( 'NONE',  ( 19.99999999999999645, -6.100000000000000533, 2.000000000000001332 ) ) ;
#41 = CARTESIAN_POINT ( 'NONE',  ( 13.00000000000000178, -14.20000000000000284, 0.0000000000000000000 ) ) ;
#42 = DIRECTION ( 'NONE',  ( 0.0000000000000000000, 0.0000000000000000000, 1.000000000000000000 ) ) ;
#43 = CARTESIAN_POINT ( 'NONE',  ( -3.188350818816240828, -12.10000000000000320, 1.999999999999998224 ) ) ;
#44 = EDGE_CURVE ( 'NONE', #344, #155, #54, .T. ) ;
#45 = LINE ( 'NONE', #1219, #225 ) ;
#46 = EDGE_LOOP ( 'NONE', ( #342, #144, #387, #1214 ) ) ;
#47 = AXIS2_PLACEMENT_3D ( 'NONE', #768, #19, #198 ) ;
#48 = ORIENTED_EDGE ( 'NONE', *, *, #714, .F. ) ;
#49 = LINE ( 'NONE', #545, #776 ) ;
#50 = LOCAL_TIME ( 14, 59, 13.00000000000000000, #93 ) ;
#51 = FACE_OUTER_BOUND ( 'NONE', #197, .T. ) ;
#52 = EDGE_LOOP ( 'NONE', ( #327, #959, #138, #154 ) ) ;
#53 = AXIS2_PLACEMENT_3D ( 'NONE', #968, #888, #769 ) ;
#54 = LINE ( 'NONE', #508, #1105 ) ;
#55 = ORIENTED_EDGE ( 'NONE', *, *, #723, .F. ) ;
#56 = EDGE_CURVE ( 'NONE', #852, #25, #1120, .T. ) ;
#57 = CARTESIAN_POINT ( 'NONE',  ( 15.99999999999999645, -2.100000000000000533, 9.000000000000001776 ) ) ;
#58 = LINE ( 'NONE', #604, #1108 ) ;
#59 = CARTESIAN_POINT ( 'NONE',  ( 24.00000000000000000, -12.10000000000000142, 10.00000000000000000 ) ) ;
#60 = ORIENTED_EDGE ( 'NONE', *, *, #521, .T. ) ;
#61 = LINE ( 'NONE', #102, #389 ) ;
#62 = DIRECTION ( 'NONE',  ( 7.339214706055730761E-17, -1.000000000000000000, 0.0000000000000000000 ) ) ;
#63 = PERSON_AND_ORGANIZATION ( #978, #916 ) ;
#64 = PRODUCT_RELATED_PRODUCT_CATEGORY ( 'detail', '', ( #99 ) ) ;
#65 = ORIENTED_EDGE ( 'NONE', *, *, #259, .T. ) ;
#66 = AXIS2_PLACEMENT_3D ( 'NONE', #69, #258, #255 ) ;
#67 = VERTEX_POINT ( 'NONE', #835 ) ;
#68 = DIRECTION ( 'NONE',  ( -1.734723475976808080E-16, 1.000000000000000000, 0.0000000000000000000 ) ) ;
#69 = CARTESIAN_POINT ( 'NONE',  ( 13.00000000000000178, -14.20000000000000284, 10.00000000000000000 ) ) ;
#70 = CARTESIAN_POINT ( 'NONE',  ( 24.00000000000000000, -0.09999999999999971412, 4.000000000000000000 ) ) ;
#71 = DIRECTION ( 'NONE',  ( -1.000000000000000000, -7.339214706055730761E-17, 0.0000000000000000000 ) ) ;
#72 = DIRECTION ( 'NONE',  ( 0.0000000000000000000, 0.0000000000000000000, 1.000000000000000000 ) ) ;
#73 = ORIENTED_EDGE ( 'NONE', *, *, #470, .T. ) ;
#74 = LINE ( 'NONE', #1137, #1129 ) ;
#75 = ORIENTED_EDGE ( 'NONE', *, *, #213, .F. ) ;
#76 = VERTEX_POINT ( 'NONE', #514 ) ;
#77 = VECTOR ( 'NONE', #455, 1000.000000000000000 ) ;
#78 = DIRECTION ( 'NONE',  ( 1.000802005371235128E-16, 1.000000000000000000, -0.0000000000000000000 ) ) ;
#79 = CARTESIAN_POINT ( 'NONE',  ( 15.99999999999999645, -6.100000000000001421, 9.000000000000001776 ) ) ;
#80 = EDGE_LOOP ( 'NONE', ( #1053, #187 ) ) ;
#81 = EDGE_CURVE ( 'NONE', #1027, #308, #124, .T. ) ;
#82 = SECURITY_CLASSIFICATION_LEVEL ( 'unclassified' ) ;
#83 = CARTESIAN_POINT ( 'NONE',  ( 19.99999999999999645, -10.10000000000000142, 2.000000000000001332 ) ) ;
#84 = ORIENTED_EDGE ( 'NONE', *, *, #301, .T. ) ;
#85 = EDGE_CURVE ( 'NONE', #1198, #570, #27, .T. ) ;
#86 = AXIS2_PLACEMENT_3D ( 'NONE', #501, #1185, #36 ) ;
#87 = CARTESIAN_POINT ( 'NONE',  ( 13.00000000000000178, -12.10000000000000497, 0.0000000000000000000 ) ) ;
#88 = CARTESIAN_POINT ( 'NONE',  ( 18.00000000000000355, -0.09999999999999971412, 10.00000000000000000 ) ) ;
#89 = CARTESIAN_POINT ( 'NONE',  ( 4.999999999999997335, 1.999999999999999556, 10.00000000000000000 ) ) ;
#90 = ORIENTED_EDGE ( 'NONE', *, *, #1015, .F. ) ;
#91 = CARTESIAN_POINT ( 'NONE',  ( -1.000000000000000888, -12.10000000000000320, 10.00000000000000000 ) ) ;
#92 = LINE ( 'NONE', #1049, #422 ) ;
#93 = COORDINATED_UNIVERSAL_TIME_OFFSET ( 3, 0, .AHEAD. ) ;
#94 = ORIENTED_EDGE ( 'NONE', *, *, #409, .F. ) ;
#95 = DIRECTION ( 'NONE',  ( 0.0000000000000000000, 0.0000000000000000000, -1.000000000000000000 ) ) ;
#96 =( NAMED_UNIT ( * ) PLANE_ANGLE_UNIT ( ) SI_UNIT ( $, .RADIAN. ) );
#97 = ORIENTED_EDGE ( 'NONE', *, *, #175, .T. ) ;
#98 = CARTESIAN_POINT ( 'NONE',  ( 0.0000000000000000000, 0.0000000000000000000, 0.0000000000000000000 ) ) ;
#99 = PRODUCT ( 'крепление м', 'крепление м', '', ( #670 ) ) ;
#100 = ORIENTED_EDGE ( 'NONE', *, *, #439, .F. ) ;
#101 = FACE_OUTER_BOUND ( 'NONE', #407, .T. ) ;
#102 = CARTESIAN_POINT ( 'NONE',  ( 24.00000000000000000, -10.10000000000000142, 0.0000000000000000000 ) ) ;
#103 = VECTOR ( 'NONE', #563, 1000.000000000000000 ) ;
#104 = ORIENTED_EDGE ( 'NONE', *, *, #911, .F. ) ;
#105 = LINE ( 'NONE', #708, #466 ) ;
#106 = CARTESIAN_POINT ( 'NONE',  ( 8.000000000000000000, -3.100000000000000977, 0.0000000000000000000 ) ) ;
#107 = ORIENTED_EDGE ( 'NONE', *, *, #564, .T. ) ;
#108 = EDGE_CURVE ( 'NONE', #344, #183, #667, .T. ) ;
#109 = CARTESIAN_POINT ( 'NONE',  ( 0.0000000000000000000, -12.10000000000000320, 10.00000000000000000 ) ) ;
#110 = AXIS2_PLACEMENT_3D ( 'NONE', #116, #210, #320 ) ;
#111 = DIRECTION ( 'NONE',  ( 0.0000000000000000000, 1.000000000000000000, 1.302086050141611115E-32 ) ) ;
#112 = VERTEX_POINT ( 'NONE', #707 ) ;
#113 = AXIS2_PLACEMENT_3D ( 'NONE', #1218, #643, #71 ) ;
#114 = CARTESIAN_POINT ( 'NONE',  ( 18.09999999999999787, 1.400000000000000133, 5.000000000000000000 ) ) ;
#115 = CARTESIAN_POINT ( 'NONE',  ( -1.000000000000000888, -14.20000000000000639, 4.000000000000000000 ) ) ;
#116 = CARTESIAN_POINT ( 'NONE',  ( 19.99999999999999645, -10.10000000000000142, 1.000000000000001110 ) ) ;
#117 = ORIENTED_EDGE ( 'NONE', *, *, #269, .F. ) ;
#118 = EDGE_LOOP ( 'NONE', ( #1133, #448, #598, #298 ) ) ;
#119 = CIRCLE ( 'NONE', #1183, 6.000000000000000000 ) ;
#120 = PERSON_AND_ORGANIZATION ( #978, #916 ) ;
#121 = ORIENTED_EDGE ( 'NONE', *, *, #340, .F. ) ;
#122 = CARTESIAN_POINT ( 'NONE',  ( 11.00000000000000000, -12.10000000000000320, 10.00000000000000000 ) ) ;
#123 = DIRECTION ( 'NONE',  ( -1.000000000000000000, 1.000802005371235128E-16, -0.0000000000000000000 ) ) ;
#124 = LINE ( 'NONE', #43, #720 ) ;
#125 = DIRECTION ( 'NONE',  ( 1.000000000000000000, 0.0000000000000000000, 0.0000000000000000000 ) ) ;
#126 = CYLINDRICAL_SURFACE ( 'NONE', #814, 1.650000000000000355 ) ;
#127 = CARTESIAN_POINT ( 'NONE',  ( 4.999999999999999112, 0.0000000000000000000, 10.00000000000000000 ) ) ;
#128 = ORIENTED_EDGE ( 'NONE', *, *, #279, .F. ) ;
#129 = VECTOR ( 'NONE', #1074, 1000.000000000000000 ) ;
#130 = LINE ( 'NONE', #17, #1096 ) ;
#131 = ORIENTED_EDGE ( 'NONE', *, *, #812, .F. ) ;
#132 = CARTESIAN_POINT ( 'NONE',  ( 24.00000000000000000, -0.09999999999999971412, 0.0000000000000000000 ) ) ;
#133 = ORIENTED_EDGE ( 'NONE', *, *, #1091, .T. ) ;
#134 = LINE ( 'NONE', #140, #1192 ) ;
#135 = CARTESIAN_POINT ( 'NONE',  ( 13.00000000000000178, -12.10000000000000497, 10.00000000000000000 ) ) ;
#136 = DIRECTION ( 'NONE',  ( 0.0000000000000000000, 0.0000000000000000000, 1.000000000000000000 ) ) ;
#137 = DATE_AND_TIME ( #321, #379 ) ;
#138 = ORIENTED_EDGE ( 'NONE', *, *, #1119, .F. ) ;
#139 = DIRECTION ( 'NONE',  ( -0.0000000000000000000, -0.0000000000000000000, 1.000000000000000000 ) ) ;
#140 = CARTESIAN_POINT ( 'NONE',  ( 13.00000000000000178, -14.20000000000000284, 0.0000000000000000000 ) ) ;
#141 = EDGE_CURVE ( 'NONE', #1177, #919, #692, .T. ) ;
#142 = ORIENTED_EDGE ( 'NONE', *, *, #1118, .T. ) ;
#143 = EDGE_CURVE ( 'NONE', #912, #966, #537, .T. ) ;
#144 = ORIENTED_EDGE ( 'NONE', *, *, #44, .T. ) ;
#145 = VECTOR ( 'NONE', #426, 1000.000000000000000 ) ;
#146 = DATE_AND_TIME ( #953, #50 ) ;
#147 = ORIENTED_EDGE ( 'NONE', *, *, #705, .T. ) ;
#148 = ADVANCED_FACE ( 'NONE', ( #796, #454 ), #1187, .F. ) ;
#149 = CARTESIAN_POINT ( 'NONE',  ( -1.000000000000000888, -14.20000000000000639, 10.00000000000000000 ) ) ;
#150 = ORIENTED_EDGE ( 'NONE', *, *, #724, .F. ) ;
#151 = DIRECTION ( 'NONE',  ( -1.000802005371235004E-16, 1.000000000000000000, 0.0000000000000000000 ) ) ;
#152 = VECTOR ( 'NONE', #802, 1000.000000000000000 ) ;
#153 = CARTESIAN_POINT ( 'NONE',  ( 11.00000000000000000, -12.10000000000000320, -17.58249980378860755 ) ) ;
#154 = ORIENTED_EDGE ( 'NONE', *, *, #593, .F. ) ;
#155 = VERTEX_POINT ( 'NONE', #808 ) ;
#156 = ADVANCED_FACE ( 'NONE', ( #1012 ), #954, .T. ) ;
#157 = VECTOR ( 'NONE', #755, 1000.000000000000000 ) ;
#158 = PLANE ( 'NONE',  #875 ) ;
#159 = CARTESIAN_POINT ( 'NONE',  ( -1.000000000000000888, -0.09999999999999939493, 4.000000000000000000 ) ) ;
#160 = CC_DESIGN_APPROVAL ( #860, ( #592 ) ) ;
#161 = ADVANCED_FACE ( 'NONE', ( #51 ), #177, .F. ) ;
#162 = CARTESIAN_POINT ( 'NONE',  ( 18.09999999999999787, 1.400000000000000133, 6.500000000000000888 ) ) ;
#163 = ORIENTED_EDGE ( 'NONE', *, *, #724, .T. ) ;
#164 = VECTOR ( 'NONE', #759, 1000.000000000000000 ) ;
#165 = FACE_OUTER_BOUND ( 'NONE', #1164, .T. ) ;
#166 = ORIENTED_EDGE ( 'NONE', *, *, #946, .F. ) ;
#167 = CARTESIAN_POINT ( 'NONE',  ( 24.00000000000000000, -0.09999999999999971412, 10.00000000000000000 ) ) ;
#168 = DIRECTION ( 'NONE',  ( -1.734723475976808080E-16, 1.000000000000000000, -0.0000000000000000000 ) ) ;
#169 = ORIENTED_EDGE ( 'NONE', *, *, #231, .F. ) ;
#170 = LINE ( 'NONE', #1143, #1175 ) ;
#171 = DIRECTION ( 'NONE',  ( 0.0000000000000000000, -1.000000000000000000, 0.0000000000000000000 ) ) ;
#172 = DIRECTION ( 'NONE',  ( 1.000000000000000000, 1.000802005371234881E-16, -0.0000000000000000000 ) ) ;
#173 = ORIENTED_EDGE ( 'NONE', *, *, #4, .F. ) ;
#174 = DIRECTION ( 'NONE',  ( -1.000000000000000000, -7.228014483236695816E-17, 0.0000000000000000000 ) ) ;
#175 = EDGE_CURVE ( 'NONE', #183, #603, #1042, .T. ) ;
#176 = AXIS2_PLACEMENT_3D ( 'NONE', #1102, #139, #524 ) ;
#177 = PLANE ( 'NONE',  #1221 ) ;
#178 = AXIS2_PLACEMENT_3D ( 'NONE', #1232, #669, #857 ) ;
#179 = DATE_TIME_ROLE ( 'creation_date' ) ;
#180 = CARTESIAN_POINT ( 'NONE',  ( -3.188350818816240828, -0.09999999999999939493, 1.999999999999998224 ) ) ;
#181 = PERSON_AND_ORGANIZATION ( #978, #916 ) ;
#182 = ORIENTED_EDGE ( 'NONE', *, *, #825, .F. ) ;
#183 = VERTEX_POINT ( 'NONE', #659 ) ;
#184 = VECTOR ( 'NONE', #335, 1000.000000000000000 ) ;
#185 = DIRECTION ( 'NONE',  ( 2.292448614354099078E-17, 1.000000000000000000, 0.0000000000000000000 ) ) ;
#186 = DIRECTION ( 'NONE',  ( 0.0000000000000000000, 0.0000000000000000000, 1.000000000000000000 ) ) ;
#187 = ORIENTED_EDGE ( 'NONE', *, *, #364, .F. ) ;
#188 = DIRECTION ( 'NONE',  ( 0.0000000000000000000, 0.0000000000000000000, 1.000000000000000000 ) ) ;
#189 = FACE_OUTER_BOUND ( 'NONE', #566, .T. ) ;
#190 = AXIS2_PLACEMENT_3D ( 'NONE', #230, #1208, #626 ) ;
#191 = DIRECTION ( 'NONE',  ( -1.000000000000000000, -1.000802005371235004E-16, 0.0000000000000000000 ) ) ;
#192 = PLANE ( 'NONE',  #866 ) ;
#193 = VERTEX_POINT ( 'NONE', #88 ) ;
#194 = LINE ( 'NONE', #445, #1001 ) ;
#195 = ORIENTED_EDGE ( 'NONE', *, *, #812, .T. ) ;
#196 = CIRCLE ( 'NONE', #574, 1.650000000000000355 ) ;
#197 = EDGE_LOOP ( 'NONE', ( #917, #612, #430, #571, #1010 ) ) ;
#198 = DIRECTION ( 'NONE',  ( 0.0000000000000000000, 0.0000000000000000000, -1.000000000000000000 ) ) ;
#199 = LINE ( 'NONE', #616, #941 ) ;
#200 = DIRECTION ( 'NONE',  ( -0.0000000000000000000, -0.0000000000000000000, -1.000000000000000000 ) ) ;
#201 = VERTEX_POINT ( 'NONE', #1043 ) ;
#202 = DIRECTION ( 'NONE',  ( 0.0000000000000000000, 0.0000000000000000000, 1.000000000000000000 ) ) ;
#203 = CARTESIAN_POINT ( 'NONE',  ( 18.00000000000000355, 0.0000000000000000000, 10.00000000000000000 ) ) ;
#204 = EDGE_CURVE ( 'NONE', #585, #1106, #987, .T. ) ;
#205 = LINE ( 'NONE', #636, #1197 ) ;
#206 = CARTESIAN_POINT ( 'NONE',  ( 24.00000000000000000, -2.100000000000000089, 10.00000000000000000 ) ) ;
#207 = EDGE_LOOP ( 'NONE', ( #881, #468, #779, #393, #629, #1226, #90, #241, #361, #613 ) ) ;
#208 = ORIENTED_EDGE ( 'NONE', *, *, #56, .T. ) ;
#209 = FACE_OUTER_BOUND ( 'NONE', #1152, .T. ) ;
#210 = DIRECTION ( 'NONE',  ( 7.339214706055730761E-17, -1.000000000000000000, 0.0000000000000000000 ) ) ;
#211 = LINE ( 'NONE', #492, #519 ) ;
#212 = ORIENTED_EDGE ( 'NONE', *, *, #269, .T. ) ;
#213 = EDGE_CURVE ( 'NONE', #481, #1112, #270, .T. ) ;
#214 = DIRECTION ( 'NONE',  ( 1.000000000000000000, 0.0000000000000000000, 0.0000000000000000000 ) ) ;
#215 = EDGE_CURVE ( 'NONE', #358, #1188, #778, .T. ) ;
#216 = AXIS2_PLACEMENT_3D ( 'NONE', #240, #918, #509 ) ;
#217 = DIRECTION ( 'NONE',  ( -0.0000000000000000000, -0.0000000000000000000, 1.000000000000000000 ) ) ;
#218 = ORIENTED_EDGE ( 'NONE', *, *, #471, .T. ) ;
#219 = LINE ( 'NONE', #257, #618 ) ;
#220 = DIRECTION ( 'NONE',  ( -0.0000000000000000000, -0.0000000000000000000, -1.000000000000000000 ) ) ;
#221 = APPROVAL ( #383, 'UNSPECIFIED' ) ;
#222 = DIRECTION ( 'NONE',  ( 0.0000000000000000000, 0.0000000000000000000, 1.000000000000000000 ) ) ;
#223 = DIRECTION ( 'NONE',  ( -0.0000000000000000000, 1.000000000000000000, -0.0000000000000000000 ) ) ;
#224 = ORIENTED_EDGE ( 'NONE', *, *, #324, .F. ) ;
#225 = VECTOR ( 'NONE', #437, 1000.000000000000000 ) ;
#226 = PERSON_AND_ORGANIZATION ( #978, #916 ) ;
#227 = ORIENTED_EDGE ( 'NONE', *, *, #924, .F. ) ;
#228 = ORIENTED_EDGE ( 'NONE', *, *, #141, .F. ) ;
#229 = DIRECTION ( 'NONE',  ( 1.734723475976808327E-16, -1.000000000000000000, 0.0000000000000000000 ) ) ;
#230 = CARTESIAN_POINT ( 'NONE',  ( 1.405126015541214930E-15, -14.20000000000000639, 10.00000000000000000 ) ) ;
#231 = EDGE_CURVE ( 'NONE', #674, #703, #1231, .T. ) ;
#232 = CYLINDRICAL_SURFACE ( 'NONE', #1159, 1.000000000000000888 ) ;
#233 = VERTEX_POINT ( 'NONE', #83 ) ;
#234 = ORIENTED_EDGE ( 'NONE', *, *, #1203, .T. ) ;
#235 = FACE_OUTER_BOUND ( 'NONE', #276, .T. ) ;
#236 = AXIS2_PLACEMENT_3D ( 'NONE', #773, #986, #495 ) ;
#237 = CALENDAR_DATE ( 2024, 25, 3 ) ;
#238 = VECTOR ( 'NONE', #281, 1000.000000000000000 ) ;
#239 = ORIENTED_EDGE ( 'NONE', *, *, #863, .T. ) ;
#240 = CARTESIAN_POINT ( 'NONE',  ( 2.000000000000000888, -9.099999999999999645, 1.999999999999998668 ) ) ;
#241 = ORIENTED_EDGE ( 'NONE', *, *, #911, .T. ) ;
#242 = EDGE_CURVE ( 'NONE', #112, #420, #24, .T. ) ;
#243 = AXIS2_PLACEMENT_3D ( 'NONE', #842, #729, #72 ) ;
#244 = CARTESIAN_POINT ( 'NONE',  ( 0.0000000000000000000, 0.0000000000000000000, 10.00000000000000000 ) ) ;
#245 = ADVANCED_FACE ( 'NONE', ( #1184 ), #413, .F. ) ;
#246 = AXIS2_PLACEMENT_3D ( 'NONE', #1026, #475, #850 ) ;
#247 = VECTOR ( 'NONE', #223, 1000.000000000000000 ) ;
#248 = CARTESIAN_POINT ( 'NONE',  ( 18.00000000000000355, -10.10000000000000320, 4.000000000000000000 ) ) ;
#249 = ORIENTED_EDGE ( 'NONE', *, *, #143, .T. ) ;
#250 = AXIS2_PLACEMENT_3D ( 'NONE', #648, #171, #527 ) ;
#251 = AXIS2_PLACEMENT_3D ( 'NONE', #819, #734, #658 ) ;
#252 = ORIENTED_EDGE ( 'NONE', *, *, #748, .T. ) ;
#253 = CYLINDRICAL_SURFACE ( 'NONE', #53, 6.000000000000000000 ) ;
#254 = ORIENTED_EDGE ( 'NONE', *, *, #780, .F. ) ;
#255 = DIRECTION ( 'NONE',  ( 0.0000000000000000000, 0.0000000000000000000, 1.000000000000000000 ) ) ;
#256 = CARTESIAN_POINT ( 'NONE',  ( 20.99999999999999645, -6.100000000000000533, 1.224646799147352862E-15 ) ) ;
#257 = CARTESIAN_POINT ( 'NONE',  ( 24.00000000000000000, -0.09999999999999971412, 4.000000000000000000 ) ) ;
#258 = DIRECTION ( 'NONE',  ( -1.000000000000000000, -1.734723475976808080E-16, 0.0000000000000000000 ) ) ;
#259 = EDGE_CURVE ( 'NONE', #494, #722, #633, .T. ) ;
#260 = DIRECTION ( 'NONE',  ( -1.000000000000000000, 0.0000000000000000000, 0.0000000000000000000 ) ) ;
#261 = AXIS2_PLACEMENT_3D ( 'NONE', #739, #552, #761 ) ;
#262 = CARTESIAN_POINT ( 'NONE',  ( -1.000000000000000888, -2.100000000000000977, 1.999999999999998224 ) ) ;
#263 = LINE ( 'NONE', #206, #504 ) ;
#264 = ORIENTED_EDGE ( 'NONE', *, *, #374, .F. ) ;
#265 = PLANE ( 'NONE',  #644 ) ;
#266 = ORIENTED_EDGE ( 'NONE', *, *, #946, .T. ) ;
#267 = ADVANCED_FACE ( 'NONE', ( #189 ), #926, .T. ) ;
#268 = VECTOR ( 'NONE', #136, 1000.000000000000000 ) ;
#269 = EDGE_CURVE ( 'NONE', #838, #67, #671, .T. ) ;
#270 = LINE ( 'NONE', #365, #238 ) ;
#271 = DIRECTION ( 'NONE',  ( 1.000802005371235004E-16, -1.000000000000000000, -0.0000000000000000000 ) ) ;
#272 = VERTEX_POINT ( 'NONE', #371 ) ;
#273 = APPROVAL_ROLE ( '' ) ;
#274 = CARTESIAN_POINT ( 'NONE',  ( 18.09999999999999787, -13.60000000000000320, 5.000000000000000000 ) ) ;
#275 = ORIENTED_EDGE ( 'NONE', *, *, #682, .F. ) ;
#276 = EDGE_LOOP ( 'NONE', ( #1163, #228, #868, #982 ) ) ;
#277 = DIRECTION ( 'NONE',  ( 0.0000000000000000000, 0.0000000000000000000, 1.000000000000000000 ) ) ;
#278 = EDGE_CURVE ( 'NONE', #1027, #420, #1156, .T. ) ;
#279 = EDGE_CURVE ( 'NONE', #966, #1089, #606, .T. ) ;
#280 = AXIS2_PLACEMENT_3D ( 'NONE', #1006, #623, #339 ) ;
#281 = DIRECTION ( 'NONE',  ( -0.0000000000000000000, -0.0000000000000000000, 1.000000000000000000 ) ) ;
#282 = VECTOR ( 'NONE', #296, 1000.000000000000000 ) ;
#283 = DIRECTION ( 'NONE',  ( 1.000000000000000000, 0.0000000000000000000, 0.0000000000000000000 ) ) ;
#284 = CARTESIAN_POINT ( 'NONE',  ( -1.000000000000000888, -0.09999999999999939493, 1.999999999999998224 ) ) ;
#285 = VERTEX_POINT ( 'NONE', #740 ) ;
#286 = CIRCLE ( 'NONE', #424, 6.000000000000000000 ) ;
#287 = DIRECTION ( 'NONE',  ( 0.0000000000000000000, -1.000000000000000000, 0.0000000000000000000 ) ) ;
#288 = VERTEX_POINT ( 'NONE', #1147 ) ;
#289 = APPLICATION_CONTEXT ( 'configuration controlled 3d designs of mechanical parts and assemblies' ) ;
#290 = DIRECTION ( 'NONE',  ( 0.0000000000000000000, 1.000000000000000000, 0.0000000000000000000 ) ) ;
#291 = EDGE_LOOP ( 'NONE', ( #48, #1088, #878, #421 ) ) ;
#292 = CARTESIAN_POINT ( 'NONE',  ( 18.00000000000000355, -12.10000000000000320, 10.00000000000000000 ) ) ;
#293 = DIRECTION ( 'NONE',  ( -1.000000000000000000, -2.735525481348043208E-16, 0.0000000000000000000 ) ) ;
#294 = DIRECTION ( 'NONE',  ( -1.000000000000000000, 0.0000000000000000000, -0.0000000000000000000 ) ) ;
#295 = CARTESIAN_POINT ( 'NONE',  ( 13.00000000000000000, 1.999999999999998668, 10.00000000000000000 ) ) ;
#296 = DIRECTION ( 'NONE',  ( -1.734723475976808080E-16, 1.000000000000000000, -0.0000000000000000000 ) ) ;
#297 = VECTOR ( 'NONE', #390, 1000.000000000000000 ) ;
#298 = ORIENTED_EDGE ( 'NONE', *, *, #1110, .T. ) ;
#299 = ORIENTED_EDGE ( 'NONE', *, *, #962, .T. ) ;
#300 = VECTOR ( 'NONE', #435, 1000.000000000000000 ) ;
#301 = EDGE_CURVE ( 'NONE', #793, #76, #906, .T. ) ;
#302 = CARTESIAN_POINT ( 'NONE',  ( 1.405126015541214930E-15, -14.20000000000000639, 0.0000000000000000000 ) ) ;
#303 = AXIS2_PLACEMENT_3D ( 'NONE', #591, #125, #411 ) ;
#304 = CARTESIAN_POINT ( 'NONE',  ( 11.00000000000000000, -12.10000000000000320, 10.00000000000000000 ) ) ;
#305 = AXIS2_PLACEMENT_3D ( 'NONE', #386, #1168, #584 ) ;
#306 = VECTOR ( 'NONE', #168, 1000.000000000000000 ) ;
#307 = DIRECTION ( 'NONE',  ( -0.0000000000000000000, -1.000000000000000000, -0.0000000000000000000 ) ) ;
#308 = VERTEX_POINT ( 'NONE', #944 ) ;
#309 = VECTOR ( 'NONE', #111, 1000.000000000000000 ) ;
#310 = CARTESIAN_POINT ( 'NONE',  ( 0.0000000000000000000, 2.000000000000000000, 10.00000000000000000 ) ) ;
#311 = CARTESIAN_POINT ( 'NONE',  ( 13.00000000000000178, -14.20000000000000284, 10.00000000000000000 ) ) ;
#312 = EDGE_CURVE ( 'NONE', #193, #288, #611, .T. ) ;
#313 = AXIS2_PLACEMENT_3D ( 'NONE', #114, #307, #1158 ) ;
#314 = ORIENTED_EDGE ( 'NONE', *, *, #525, .T. ) ;
#315 = LINE ( 'NONE', #109, #764 ) ;
#316 = CARTESIAN_POINT ( 'NONE',  ( -1.000000000000000888, -2.100000000000000977, 4.000000000000000000 ) ) ;
#317 = ORIENTED_EDGE ( 'NONE', *, *, #1203, .F. ) ;
#318 = EDGE_LOOP ( 'NONE', ( #534, #1114, #275, #1111 ) ) ;
#319 = EDGE_CURVE ( 'NONE', #694, #983, #391, .T. ) ;
#320 = DIRECTION ( 'NONE',  ( 1.000000000000000000, 0.0000000000000000000, 0.0000000000000000000 ) ) ;
#321 = CALENDAR_DATE ( 2024, 25, 3 ) ;
#322 = CARTESIAN_POINT ( 'NONE',  ( -1.000000000000000888, -12.10000000000000320, 4.000000000000000000 ) ) ;
#323 = CARTESIAN_POINT ( 'NONE',  ( -1.000000000000000888, -14.20000000000000639, 0.0000000000000000000 ) ) ;
#324 = EDGE_CURVE ( 'NONE', #609, #1027, #1190, .T. ) ;
#325 = CARTESIAN_POINT ( 'NONE',  ( 13.00000000000000000, -0.09999999999999971412, 0.0000000000000000000 ) ) ;
#326 = AXIS2_PLACEMENT_3D ( 'NONE', #955, #652, #368 ) ;
#327 = ORIENTED_EDGE ( 'NONE', *, *, #470, .F. ) ;
#328 = VECTOR ( 'NONE', #484, 1000.000000000000000 ) ;
#329 = EDGE_LOOP ( 'NONE', ( #1149, #392, #820, #11, #218 ) ) ;
#330 = ORIENTED_EDGE ( 'NONE', *, *, #655, .F. ) ;
#331 = CYLINDRICAL_SURFACE ( 'NONE', #250, 6.000000000000000000 ) ;
#332 = DIRECTION ( 'NONE',  ( 0.0000000000000000000, 0.0000000000000000000, -1.000000000000000000 ) ) ;
#333 = ORIENTED_EDGE ( 'NONE', *, *, #748, .F. ) ;
#334 = CARTESIAN_POINT ( 'NONE',  ( 18.00000000000000355, -12.20000000000000284, 10.00000000000000000 ) ) ;
#335 = DIRECTION ( 'NONE',  ( -0.0000000000000000000, 1.000000000000000000, -0.0000000000000000000 ) ) ;
#336 = FACE_OUTER_BOUND ( 'NONE', #774, .T. ) ;
#337 = FACE_BOUND ( 'NONE', #685, .T. ) ;
#338 = ADVANCED_FACE ( 'NONE', ( #165 ), #265, .F. ) ;
#339 = DIRECTION ( 'NONE',  ( -1.000000000000000000, 0.0000000000000000000, 0.0000000000000000000 ) ) ;
#340 = EDGE_CURVE ( 'NONE', #852, #201, #130, .T. ) ;
#341 = EDGE_CURVE ( 'NONE', #13, #377, #1162, .T. ) ;
#342 = ORIENTED_EDGE ( 'NONE', *, *, #108, .F. ) ;
#343 = PLANE ( 'NONE',  #66 ) ;
#344 = VERTEX_POINT ( 'NONE', #770 ) ;
#345 = FACE_OUTER_BOUND ( 'NONE', #318, .T. ) ;
#346 = DIRECTION ( 'NONE',  ( 0.0000000000000000000, 0.0000000000000000000, 1.000000000000000000 ) ) ;
#347 = COORDINATED_UNIVERSAL_TIME_OFFSET ( 3, 0, .AHEAD. ) ;
#348 = VERTEX_POINT ( 'NONE', #961 ) ;
#349 = CC_DESIGN_PERSON_AND_ORGANIZATION_ASSIGNMENT ( #226, #854, ( #500 ) ) ;
#350 = DIRECTION ( 'NONE',  ( 1.000000000000000000, 7.339214706055731994E-17, 0.0000000000000000000 ) ) ;
#351 = CARTESIAN_POINT ( 'NONE',  ( 0.3500000000000002554, -9.099999999999999645, 1.999999999999998668 ) ) ;
#352 = CARTESIAN_POINT ( 'NONE',  ( 9.650000000000000355, -3.100000000000000977, 0.0000000000000000000 ) ) ;
#353 = VECTOR ( 'NONE', #1050, 1000.000000000000000 ) ;
#354 = CARTESIAN_POINT ( 'NONE',  ( 9.650000000000000355, -3.100000000000000977, 0.0000000000000000000 ) ) ;
#355 = CARTESIAN_POINT ( 'NONE',  ( 15.99999999999999645, -10.10000000000000320, 9.000000000000001776 ) ) ;
#356 = ORIENTED_EDGE ( 'NONE', *, *, #471, .F. ) ;
#357 = LINE ( 'NONE', #302, #967 ) ;
#358 = VERTEX_POINT ( 'NONE', #1060 ) ;
#359 = FACE_OUTER_BOUND ( 'NONE', #1039, .T. ) ;
#360 = PLANE ( 'NONE',  #680 ) ;
#361 = ORIENTED_EDGE ( 'NONE', *, *, #259, .F. ) ;
#362 = DIRECTION ( 'NONE',  ( 0.0000000000000000000, 0.0000000000000000000, 1.000000000000000000 ) ) ;
#363 = CYLINDRICAL_SURFACE ( 'NONE', #47, 6.000000000000000000 ) ;
#364 = EDGE_CURVE ( 'NONE', #285, #1065, #886, .T. ) ;
#365 = CARTESIAN_POINT ( 'NONE',  ( 0.3500000000000002554, -9.099999999999999645, 0.0000000000000000000 ) ) ;
#366 = LINE ( 'NONE', #482, #309 ) ;
#367 = DIRECTION ( 'NONE',  ( -1.000000000000000000, 2.292448614354099078E-17, 0.0000000000000000000 ) ) ;
#368 = DIRECTION ( 'NONE',  ( 0.0000000000000000000, 0.0000000000000000000, 1.000000000000000000 ) ) ;
#369 = ORIENTED_EDGE ( 'NONE', *, *, #278, .F. ) ;
#370 = DATE_TIME_ROLE ( 'classification_date' ) ;
#371 = CARTESIAN_POINT ( 'NONE',  ( 24.00000000000000000, -2.100000000000000089, 4.000000000000000000 ) ) ;
#372 = FACE_BOUND ( 'NONE', #1073, .T. ) ;
#373 = DATE_AND_TIME ( #1072, #601 ) ;
#374 = EDGE_CURVE ( 'NONE', #2, #694, #559, .T. ) ;
#375 = ORIENTED_EDGE ( 'NONE', *, *, #381, .F. ) ;
#376 = AXIS2_PLACEMENT_3D ( 'NONE', #1029, #938, #539 ) ;
#377 = VERTEX_POINT ( 'NONE', #578 ) ;
#378 = DIRECTION ( 'NONE',  ( -1.734723475976808080E-16, 1.000000000000000000, 0.0000000000000000000 ) ) ;
#379 = LOCAL_TIME ( 14, 59, 13.00000000000000000, #627 ) ;
#380 = CARTESIAN_POINT ( 'NONE',  ( 18.09999999999999787, 1.400000000000000133, 3.499999999999999112 ) ) ;
#381 = EDGE_CURVE ( 'NONE', #550, #112, #366, .T. ) ;
#382 = AXIS2_PLACEMENT_3D ( 'NONE', #153, #634, #1220 ) ;
#383 = APPROVAL_STATUS ( 'not_yet_approved' ) ;
#384 = CARTESIAN_POINT ( 'NONE',  ( 13.00000000000000000, 1.999999999999998668, 10.00000000000000000 ) ) ;
#385 = VECTOR ( 'NONE', #851, 1000.000000000000000 ) ;
#386 = CARTESIAN_POINT ( 'NONE',  ( 11.00000000000000000, -6.100000000000001421, 9.000000000000001776 ) ) ;
#387 = ORIENTED_EDGE ( 'NONE', *, *, #1181, .T. ) ;
#388 = EDGE_CURVE ( 'NONE', #1065, #285, #32, .T. ) ;
#389 = VECTOR ( 'NONE', #586, 1000.000000000000000 ) ;
#390 = DIRECTION ( 'NONE',  ( -0.0000000000000000000, 1.000000000000000000, -0.0000000000000000000 ) ) ;
#391 = CIRCLE ( 'NONE', #441, 1.500000000000000444 ) ;
#392 = ORIENTED_EDGE ( 'NONE', *, *, #696, .T. ) ;
#393 = ORIENTED_EDGE ( 'NONE', *, *, #1119, .T. ) ;
#394 = CIRCLE ( 'NONE', #6, 1.500000000000000444 ) ;
#395 = DIRECTION ( 'NONE',  ( 0.0000000000000000000, 0.0000000000000000000, -1.000000000000000000 ) ) ;
#396 = AXIS2_PLACEMENT_3D ( 'NONE', #1211, #1020, #1115 ) ;
#397 = DIRECTION ( 'NONE',  ( 0.0000000000000000000, 0.0000000000000000000, 1.000000000000000000 ) ) ;
#398 = LINE ( 'NONE', #1030, #306 ) ;
#399 = ORIENTED_EDGE ( 'NONE', *, *, #1054, .T. ) ;
#400 = CARTESIAN_POINT ( 'NONE',  ( 2.000000000000000888, -9.099999999999999645, 0.0000000000000000000 ) ) ;
#401 = EDGE_CURVE ( 'NONE', #677, #550, #993, .T. ) ;
#402 = CARTESIAN_POINT ( 'NONE',  ( 24.00000000000000000, -12.10000000000000142, 0.0000000000000000000 ) ) ;
#403 = CARTESIAN_POINT ( 'NONE',  ( 0.3500000000000002554, -9.099999999999999645, 0.0000000000000000000 ) ) ;
#404 = EDGE_LOOP ( 'NONE', ( #1178, #782, #548, #97 ) ) ;
#405 = CIRCLE ( 'NONE', #280, 1.650000000000000577 ) ;
#406 = EDGE_CURVE ( 'NONE', #744, #1107, #416, .T. ) ;
#407 = EDGE_LOOP ( 'NONE', ( #131, #711, #314, #752 ) ) ;
#408 = CARTESIAN_POINT ( 'NONE',  ( 2.000000000000000888, -9.099999999999999645, 0.0000000000000000000 ) ) ;
#409 = EDGE_CURVE ( 'NONE', #67, #1191, #902, .T. ) ;
#410 = AXIS2_PLACEMENT_3D ( 'NONE', #700, #607, #989 ) ;
#411 = DIRECTION ( 'NONE',  ( 0.0000000000000000000, 0.0000000000000000000, -1.000000000000000000 ) ) ;
#412 = ORIENTED_EDGE ( 'NONE', *, *, #1015, .T. ) ;
#413 = CYLINDRICAL_SURFACE ( 'NONE', #506, 1.650000000000000355 ) ;
#414 = CARTESIAN_POINT ( 'NONE',  ( 18.09999999999999787, -13.60000000000000320, 5.000000000000000000 ) ) ;
#415 = CARTESIAN_POINT ( 'NONE',  ( 15.99999999999999645, -10.10000000000000320, 10.00000000000000000 ) ) ;
#416 = CIRCLE ( 'NONE', #597, 1.650000000000000355 ) ;
#417 = SECURITY_CLASSIFICATION ( '', '', #82 ) ;
#418 = ORIENTED_EDGE ( 'NONE', *, *, #889, .T. ) ;
#419 = CIRCLE ( 'NONE', #243, 1.500000000000000444 ) ;
#420 = VERTEX_POINT ( 'NONE', #284 ) ;
#421 = ORIENTED_EDGE ( 'NONE', *, *, #439, .T. ) ;
#422 = VECTOR ( 'NONE', #964, 1000.000000000000000 ) ;
#423 = DIRECTION ( 'NONE',  ( 0.0000000000000000000, -1.000000000000000000, 0.0000000000000000000 ) ) ;
#424 = AXIS2_PLACEMENT_3D ( 'NONE', #248, #62, #645 ) ;
#425 = CARTESIAN_POINT ( 'NONE',  ( 18.09999999999999787, -13.60000000000000320, 5.000000000000000000 ) ) ;
#426 = DIRECTION ( 'NONE',  ( -1.000802005371235004E-16, 1.000000000000000000, 0.0000000000000000000 ) ) ;
#427 = EDGE_CURVE ( 'NONE', #898, #348, #635, .T. ) ;
#428 = ORIENTED_EDGE ( 'NONE', *, *, #81, .T. ) ;
#429 = ADVANCED_FACE ( 'NONE', ( #929 ), #363, .T. ) ;
#430 = ORIENTED_EDGE ( 'NONE', *, *, #576, .F. ) ;
#431 = LINE ( 'NONE', #831, #642 ) ;
#432 = CARTESIAN_POINT ( 'NONE',  ( 4.999999999999997335, -14.20000000000000462, 10.00000000000000000 ) ) ;
#433 = EDGE_LOOP ( 'NONE', ( #254, #107, #1207, #972, #1180, #581, #121, #208 ) ) ;
#434 = ADVANCED_FACE ( 'NONE', ( #337, #783, #474 ), #192, .T. ) ;
#435 = DIRECTION ( 'NONE',  ( -0.0000000000000000000, 0.0000000000000000000, -1.000000000000000000 ) ) ;
#436 = EDGE_LOOP ( 'NONE', ( #1005, #789 ) ) ;
#437 = DIRECTION ( 'NONE',  ( -1.000802005371235004E-16, 1.000000000000000000, -0.0000000000000000000 ) ) ;
#438 = VECTOR ( 'NONE', #1227, 1000.000000000000000 ) ;
#439 = EDGE_CURVE ( 'NONE', #529, #37, #899, .T. ) ;
#440 = ADVANCED_FACE ( 'NONE', ( #617 ), #980, .F. ) ;
#441 = AXIS2_PLACEMENT_3D ( 'NONE', #646, #378, #974 ) ;
#442 = CARTESIAN_POINT ( 'NONE',  ( 4.999999999999999112, 1.999999999999999556, 4.000000000000000000 ) ) ;
#443 = VERTEX_POINT ( 'NONE', #788 ) ;
#444 = VECTOR ( 'NONE', #927, 1000.000000000000000 ) ;
#445 = CARTESIAN_POINT ( 'NONE',  ( 24.00000000000000000, -0.09999999999999971412, 0.0000000000000000000 ) ) ;
#446 = ORIENTED_EDGE ( 'NONE', *, *, #1048, .T. ) ;
#447 = LINE ( 'NONE', #162, #661 ) ;
#448 = ORIENTED_EDGE ( 'NONE', *, *, #596, .T. ) ;
#449 = ADVANCED_FACE ( 'NONE', ( #336 ), #126, .F. ) ;
#450 = DIRECTION ( 'NONE',  ( -0.0000000000000000000, -1.000000000000000000, -0.0000000000000000000 ) ) ;
#451 = EDGE_CURVE ( 'NONE', #1191, #201, #1021, .T. ) ;
#452 = CARTESIAN_POINT ( 'NONE',  ( 4.999999999999999112, -12.10000000000000320, 10.00000000000000000 ) ) ;
#453 = CARTESIAN_POINT ( 'NONE',  ( 24.00000000000000000, -2.100000000000000089, 0.0000000000000000000 ) ) ;
#454 = FACE_OUTER_BOUND ( 'NONE', #1003, .T. ) ;
#455 = DIRECTION ( 'NONE',  ( 0.0000000000000000000, 0.0000000000000000000, -1.000000000000000000 ) ) ;
#456 = AXIS2_PLACEMENT_3D ( 'NONE', #847, #1058, #188 ) ;
#457 = CARTESIAN_POINT ( 'NONE',  ( 19.99999999999999645, -6.100000000000000533, 1.000000000000001110 ) ) ;
#458 = ADVANCED_FACE ( 'NONE', ( #1130 ), #31, .F. ) ;
#459 = PERSON_AND_ORGANIZATION_ROLE ( 'creator' ) ;
#460 = DIRECTION ( 'NONE',  ( -1.000802005371235004E-16, 1.000000000000000000, -0.0000000000000000000 ) ) ;
#461 = EDGE_CURVE ( 'NONE', #585, #1028, #758, .T. ) ;
#462 = LINE ( 'NONE', #1216, #1213 ) ;
#463 = VERTEX_POINT ( 'NONE', #304 ) ;
#464 = AXIS2_PLACEMENT_3D ( 'NONE', #1210, #632, #549 ) ;
#465 = ORIENTED_EDGE ( 'NONE', *, *, #887, .T. ) ;
#466 = VECTOR ( 'NONE', #1109, 1000.000000000000000 ) ;
#467 = DIRECTION ( 'NONE',  ( 0.0000000000000000000, 0.0000000000000000000, -1.000000000000000000 ) ) ;
#468 = ORIENTED_EDGE ( 'NONE', *, *, #856, .T. ) ;
#469 = DIRECTION ( 'NONE',  ( -0.0000000000000000000, 0.0000000000000000000, -1.000000000000000000 ) ) ;
#470 = EDGE_CURVE ( 'NONE', #76, #233, #1061, .T. ) ;
#471 = EDGE_CURVE ( 'NONE', #1188, #852, #211, .T. ) ;
#472 = ORIENTED_EDGE ( 'NONE', *, *, #696, .F. ) ;
#473 = AXIS2_PLACEMENT_3D ( 'NONE', #1195, #810, #913 ) ;
#474 = FACE_OUTER_BOUND ( 'NONE', #1047, .T. ) ;
#475 = DIRECTION ( 'NONE',  ( 0.0000000000000000000, 0.0000000000000000000, 1.000000000000000000 ) ) ;
#476 = DIRECTION ( 'NONE',  ( 1.000000000000000000, 0.0000000000000000000, 0.0000000000000000000 ) ) ;
#477 = FACE_OUTER_BOUND ( 'NONE', #46, .T. ) ;
#478 = DATE_AND_TIME ( #237, #713 ) ;
#479 = ORIENTED_EDGE ( 'NONE', *, *, #1182, .F. ) ;
#480 = PLANE ( 'NONE',  #1 ) ;
#481 = VERTEX_POINT ( 'NONE', #403 ) ;
#482 = CARTESIAN_POINT ( 'NONE',  ( 11.00000000000000000, -12.10000000000000320, 2.000000000000001776 ) ) ;
#483 = DIRECTION ( 'NONE',  ( -1.000000000000000000, 0.0000000000000000000, 0.0000000000000000000 ) ) ;
#484 = DIRECTION ( 'NONE',  ( 0.0000000000000000000, 1.000000000000000000, 0.0000000000000000000 ) ) ;
#485 = CARTESIAN_POINT ( 'NONE',  ( 4.999999999999999112, -0.09999999999999958922, 4.000000000000000000 ) ) ;
#486 = EDGE_CURVE ( 'NONE', #703, #1188, #1078, .T. ) ;
#487 = FACE_OUTER_BOUND ( 'NONE', #864, .T. ) ;
#488 = CARTESIAN_POINT ( 'NONE',  ( 3.650000000000001243, -9.099999999999999645, 0.0000000000000000000 ) ) ;
#489 = ORIENTED_EDGE ( 'NONE', *, *, #1144, .T. ) ;
#490 = EDGE_LOOP ( 'NONE', ( #690, #1055, #701, #34, #743, #369, #428, #931 ) ) ;
#491 = VECTOR ( 'NONE', #940, 1000.000000000000000 ) ;
#492 = CARTESIAN_POINT ( 'NONE',  ( 0.0000000000000000000, 2.000000000000000000, 0.0000000000000000000 ) ) ;
#493 = VECTOR ( 'NONE', #555, 1000.000000000000000 ) ;
#494 = VERTEX_POINT ( 'NONE', #1083 ) ;
#495 = DIRECTION ( 'NONE',  ( 0.0000000000000000000, 0.0000000000000000000, -1.000000000000000000 ) ) ;
#496 = ADVANCED_BREP_SHAPE_REPRESENTATION ( 'ъЁхяыхэшх ь', ( #997, #246 ), #738 ) ;
#497 = ORIENTED_EDGE ( 'NONE', *, *, #839, .T. ) ;
#498 = CARTESIAN_POINT ( 'NONE',  ( 13.00000000000000000, -0.09999999999999971412, 10.00000000000000000 ) ) ;
#499 = DIRECTION ( 'NONE',  ( 1.000000000000000000, 0.0000000000000000000, 0.0000000000000000000 ) ) ;
#500 = PRODUCT_DEFINITION_FORMATION_WITH_SPECIFIED_SOURCE ( 'ANY', '', #99, .NOT_KNOWN. ) ;
#501 = CARTESIAN_POINT ( 'NONE',  ( 18.00000000000000355, -12.20000000000000284, 4.000000000000000000 ) ) ;
#502 = ORIENTED_EDGE ( 'NONE', *, *, #994, .F. ) ;
#503 = ORIENTED_EDGE ( 'NONE', *, *, #786, .T. ) ;
#504 = VECTOR ( 'NONE', #200, 1000.000000000000000 ) ;
#505 = ORIENTED_EDGE ( 'NONE', *, *, #1145, .T. ) ;
#506 = AXIS2_PLACEMENT_3D ( 'NONE', #950, #939, #1142 ) ;
#507 = ORIENTED_EDGE ( 'NONE', *, *, #975, .T. ) ;
#508 = CARTESIAN_POINT ( 'NONE',  ( 11.00000000000000000, -6.100000000000001421, 9.000000000000001776 ) ) ;
#509 = DIRECTION ( 'NONE',  ( -1.000000000000000000, 0.0000000000000000000, 0.0000000000000000000 ) ) ;
#510 = CARTESIAN_POINT ( 'NONE',  ( 11.00000000000000178, -10.10000000000000320, 9.000000000000001776 ) ) ;
#511 = AXIS2_PLACEMENT_3D ( 'NONE', #135, #68, #833 ) ;
#512 = DIRECTION ( 'NONE',  ( -1.000000000000000000, -2.735525481348043208E-16, 0.0000000000000000000 ) ) ;
#513 = AXIS2_PLACEMENT_3D ( 'NONE', #1151, #287, #568 ) ;
#514 = CARTESIAN_POINT ( 'NONE',  ( 20.99999999999999645, -10.10000000000000142, 1.000000000000001110 ) ) ;
#515 = LINE ( 'NONE', #869, #1025 ) ;
#516 = ORIENTED_EDGE ( 'NONE', *, *, #714, .T. ) ;
#517 = ORIENTED_EDGE ( 'NONE', *, *, #1048, .F. ) ;
#518 = CIRCLE ( 'NONE', #1063, 1.500000000000000444 ) ;
#519 = VECTOR ( 'NONE', #123, 1000.000000000000000 ) ;
#520 = ORIENTED_EDGE ( 'NONE', *, *, #1081, .T. ) ;
#521 = EDGE_CURVE ( 'NONE', #1128, #983, #58, .T. ) ;
#522 = ADVANCED_FACE ( 'NONE', ( #673 ), #26, .T. ) ;
#523 = PLANE ( 'NONE',  #473 ) ;
#524 = DIRECTION ( 'NONE',  ( 1.000000000000000000, 0.0000000000000000000, 0.0000000000000000000 ) ) ;
#525 = EDGE_CURVE ( 'NONE', #898, #1065, #1124, .T. ) ;
#526 = AXIS2_PLACEMENT_3D ( 'NONE', #575, #884, #12 ) ;
#527 = DIRECTION ( 'NONE',  ( 0.0000000000000000000, 0.0000000000000000000, -1.000000000000000000 ) ) ;
#528 = DIRECTION ( 'NONE',  ( -1.000000000000000000, 2.292448614354099695E-17, -0.0000000000000000000 ) ) ;
#529 = VERTEX_POINT ( 'NONE', #311 ) ;
#530 = LINE ( 'NONE', #203, #328 ) ;
#531 = APPROVAL_PERSON_ORGANIZATION ( #120, #735, #273 ) ;
#532 = ORIENTED_EDGE ( 'NONE', *, *, #1054, .F. ) ;
#533 = ADVANCED_FACE ( 'NONE', ( #999 ), #965, .T. ) ;
#534 = ORIENTED_EDGE ( 'NONE', *, *, #962, .F. ) ;
#535 = CARTESIAN_POINT ( 'NONE',  ( 6.349999999999999645, -3.100000000000000977, 0.0000000000000000000 ) ) ;
#536 = DIRECTION ( 'NONE',  ( 0.0000000000000000000, -1.000000000000000000, 0.0000000000000000000 ) ) ;
#537 = LINE ( 'NONE', #334, #781 ) ;
#538 = CARTESIAN_POINT ( 'NONE',  ( 13.00000000000000178, -12.10000000000000497, 10.00000000000000000 ) ) ;
#539 = DIRECTION ( 'NONE',  ( -1.000000000000000000, 0.0000000000000000000, 0.0000000000000000000 ) ) ;
#540 = CARTESIAN_POINT ( 'NONE',  ( -1.000000000000000888, 0.0000000000000000000, -0.0000000000000000000 ) ) ;
#541 = ADVANCED_FACE ( 'NONE', ( #39 ), #1186, .F. ) ;
#542 = CC_DESIGN_PERSON_AND_ORGANIZATION_ASSIGNMENT ( #747, #1141, ( #417 ) ) ;
#543 = PLANE ( 'NONE',  #113 ) ;
#544 = DIRECTION ( 'NONE',  ( 0.0000000000000000000, 0.0000000000000000000, -1.000000000000000000 ) ) ;
#545 = CARTESIAN_POINT ( 'NONE',  ( 24.00000000000000000, -10.10000000000000142, 10.00000000000000000 ) ) ;
#546 = ORIENTED_EDGE ( 'NONE', *, *, #29, .T. ) ;
#547 = FACE_OUTER_BOUND ( 'NONE', #848, .T. ) ;
#548 = ORIENTED_EDGE ( 'NONE', *, *, #1145, .F. ) ;
#549 = DIRECTION ( 'NONE',  ( 1.000000000000000000, 0.0000000000000000000, 0.0000000000000000000 ) ) ;
#550 = VERTEX_POINT ( 'NONE', #885 ) ;
#551 = CIRCLE ( 'NONE', #1224, 1.650000000000000355 ) ;
#552 = DIRECTION ( 'NONE',  ( -0.0000000000000000000, -1.000000000000000000, -0.0000000000000000000 ) ) ;
#553 = EDGE_CURVE ( 'NONE', #664, #1112, #1113, .T. ) ;
#554 = AXIS2_PLACEMENT_3D ( 'NONE', #442, #78, #1209 ) ;
#555 = DIRECTION ( 'NONE',  ( 1.000000000000000000, 1.000802005371234881E-16, -0.0000000000000000000 ) ) ;
#556 = ORIENTED_EDGE ( 'NONE', *, *, #231, .T. ) ;
#557 = CARTESIAN_POINT ( 'NONE',  ( 11.00000000000000000, -10.10000000000000320, 10.00000000000000000 ) ) ;
#558 = DIRECTION ( 'NONE',  ( -1.000000000000000000, -0.0000000000000000000, -0.0000000000000000000 ) ) ;
#559 = LINE ( 'NONE', #1155, #282 ) ;
#560 = PRODUCT_DEFINITION_SHAPE ( 'NONE', 'NONE',  #592 ) ;
#561 = DIRECTION ( 'NONE',  ( -0.0000000000000000000, -0.0000000000000000000, 1.000000000000000000 ) ) ;
#562 = APPLICATION_PROTOCOL_DEFINITION ( 'international standard', 'config_control_design', 1994, #960 ) ;
#563 = DIRECTION ( 'NONE',  ( 0.0000000000000000000, 0.0000000000000000000, 1.000000000000000000 ) ) ;
#564 = EDGE_CURVE ( 'NONE', #1045, #609, #970, .T. ) ;
#565 = ORIENTED_EDGE ( 'NONE', *, *, #486, .T. ) ;
#566 = EDGE_LOOP ( 'NONE', ( #1131, #790, #706, #330 ) ) ;
#567 = LINE ( 'NONE', #354, #981 ) ;
#568 = DIRECTION ( 'NONE',  ( 0.0000000000000000000, -0.0000000000000000000, -1.000000000000000000 ) ) ;
#569 = COORDINATED_UNIVERSAL_TIME_OFFSET ( 3, 0, .AHEAD. ) ;
#570 = VERTEX_POINT ( 'NONE', #432 ) ;
#571 = ORIENTED_EDGE ( 'NONE', *, *, #242, .F. ) ;
#572 = CARTESIAN_POINT ( 'NONE',  ( 18.09999999999999787, 1.400000000000000133, 5.000000000000000000 ) ) ;
#573 = VECTOR ( 'NONE', #1212, 1000.000000000000000 ) ;
#574 = AXIS2_PLACEMENT_3D ( 'NONE', #1136, #923, #1034 ) ;
#575 = CARTESIAN_POINT ( 'NONE',  ( 8.000000000000000000, -3.100000000000000977, 1.999999999999999556 ) ) ;
#576 = EDGE_CURVE ( 'NONE', #420, #1191, #745, .T. ) ;
#577 = CARTESIAN_POINT ( 'NONE',  ( 18.00000000000000355, -0.09999999999999971412, 4.000000000000000000 ) ) ;
#578 = CARTESIAN_POINT ( 'NONE',  ( 9.650000000000000355, -3.100000000000000977, 1.999999999999999556 ) ) ;
#579 = ORIENTED_EDGE ( 'NONE', *, *, #406, .T. ) ;
#580 = VECTOR ( 'NONE', #220, 1000.000000000000000 ) ;
#581 = ORIENTED_EDGE ( 'NONE', *, *, #451, .T. ) ;
#582 = ORIENTED_EDGE ( 'NONE', *, *, #204, .F. ) ;
#583 = LINE ( 'NONE', #721, #891 ) ;
#584 = DIRECTION ( 'NONE',  ( 1.000000000000000000, 0.0000000000000000000, 0.0000000000000000000 ) ) ;
#585 = VERTEX_POINT ( 'NONE', #1013 ) ;
#586 = DIRECTION ( 'NONE',  ( 1.000000000000000000, 7.339214706055731994E-17, 0.0000000000000000000 ) ) ;
#587 = ORIENTED_EDGE ( 'NONE', *, *, #312, .T. ) ;
#588 = ORIENTED_EDGE ( 'NONE', *, *, #620, .T. ) ;
#589 = EDGE_CURVE ( 'NONE', #1112, #664, #405, .T. ) ;
#590 = CARTESIAN_POINT ( 'NONE',  ( 11.00000000000000000, -0.09999999999999971412, -17.58249980378860755 ) ) ;
#591 = CARTESIAN_POINT ( 'NONE',  ( -1.000000000000000888, -2.100000000000000977, 10.00000000000000000 ) ) ;
#592 = PRODUCT_DEFINITION ( 'UNKNOWN', '', #500, #605 ) ;
#593 = EDGE_CURVE ( 'NONE', #233, #677, #1040, .T. ) ;
#594 = PERSON_AND_ORGANIZATION ( #978, #916 ) ;
#595 = EDGE_LOOP ( 'NONE', ( #588, #794, #767, #3, #100 ) ) ;
#596 = EDGE_CURVE ( 'NONE', #1028, #76, #105, .T. ) ;
#597 = AXIS2_PLACEMENT_3D ( 'NONE', #106, #15, #476 ) ;
#598 = ORIENTED_EDGE ( 'NONE', *, *, #301, .F. ) ;
#599 = VECTOR ( 'NONE', #561, 1000.000000000000000 ) ;
#600 = CARTESIAN_POINT ( 'NONE',  ( 13.00000000000000000, 1.999999999999998668, 0.0000000000000000000 ) ) ;
#601 = LOCAL_TIME ( 14, 59, 13.00000000000000000, #347 ) ;
#602 = ORIENTED_EDGE ( 'NONE', *, *, #705, .F. ) ;
#603 = VERTEX_POINT ( 'NONE', #704 ) ;
#604 = CARTESIAN_POINT ( 'NONE',  ( 18.09999999999999787, -13.60000000000000320, 6.500000000000000888 ) ) ;
#605 = DESIGN_CONTEXT ( 'detailed design', #960, 'design' ) ;
#606 = LINE ( 'NONE', #650, #353 ) ;
#607 = DIRECTION ( 'NONE',  ( -1.000802005371235128E-16, -1.000000000000000000, 0.0000000000000000000 ) ) ;
#608 = CC_DESIGN_DATE_AND_TIME_ASSIGNMENT ( #146, #370, ( #417 ) ) ;
#609 = VERTEX_POINT ( 'NONE', #322 ) ;
#610 = LINE ( 'NONE', #256, #772 ) ;
#611 = LINE ( 'NONE', #1037, #676 ) ;
#612 = ORIENTED_EDGE ( 'NONE', *, *, #409, .T. ) ;
#613 = ORIENTED_EDGE ( 'NONE', *, *, #630, .F. ) ;
#614 = LINE ( 'NONE', #59, #491 ) ;
#615 = EDGE_LOOP ( 'NONE', ( #766, #828, #234, #556, #710 ) ) ;
#616 = CARTESIAN_POINT ( 'NONE',  ( 11.00000000000000000, -12.10000000000000320, -17.58249980378860755 ) ) ;
#617 = FACE_OUTER_BOUND ( 'NONE', #433, .T. ) ;
#618 = VECTOR ( 'NONE', #799, 1000.000000000000000 ) ;
#619 = DIRECTION ( 'NONE',  ( -1.000000000000000000, -2.891205793294678326E-16, -8.673617379884035472E-16 ) ) ;
#620 = EDGE_CURVE ( 'NONE', #529, #570, #1099, .T. ) ;
#621 = AXIS2_PLACEMENT_3D ( 'NONE', #274, #843, #467 ) ;
#622 = VECTOR ( 'NONE', #697, 1000.000000000000000 ) ;
#623 = DIRECTION ( 'NONE',  ( -1.301042606982605567E-16, -1.302086050141611115E-32, 1.000000000000000000 ) ) ;
#624 = ORIENTED_EDGE ( 'NONE', *, *, #887, .F. ) ;
#625 = ADVANCED_FACE ( 'NONE', ( #209 ), #909, .F. ) ;
#626 = DIRECTION ( 'NONE',  ( 1.000000000000000000, 2.735525481348043208E-16, 0.0000000000000000000 ) ) ;
#627 = COORDINATED_UNIVERSAL_TIME_OFFSET ( 3, 0, .AHEAD. ) ;
#628 = CARTESIAN_POINT ( 'NONE',  ( 24.00000000000000000, -2.100000000000000089, 0.0000000000000000000 ) ) ;
#629 = ORIENTED_EDGE ( 'NONE', *, *, #461, .F. ) ;
#630 = EDGE_CURVE ( 'NONE', #603, #494, #845, .T. ) ;
#631 = DIRECTION ( 'NONE',  ( 1.734723475976808327E-16, -1.000000000000000000, 0.0000000000000000000 ) ) ;
#632 = DIRECTION ( 'NONE',  ( 0.0000000000000000000, 0.0000000000000000000, 1.000000000000000000 ) ) ;
#633 = LINE ( 'NONE', #654, #874 ) ;
#634 = DIRECTION ( 'NONE',  ( 1.000000000000000000, -0.0000000000000000000, 0.0000000000000000000 ) ) ;
#635 = CIRCLE ( 'NONE', #725, 1.500000000000000444 ) ;
#636 = CARTESIAN_POINT ( 'NONE',  ( 24.00000000000000000, -0.09999999999999971412, 10.00000000000000000 ) ) ;
#637 = DIRECTION ( 'NONE',  ( 0.0000000000000000000, 0.0000000000000000000, -1.000000000000000000 ) ) ;
#638 = ORIENTED_EDGE ( 'NONE', *, *, #1100, .F. ) ;
#639 = CIRCLE ( 'NONE', #236, 6.000000000000000000 ) ;
#640 = VECTOR ( 'NONE', #544, 1000.000000000000000 ) ;
#641 = ORIENTED_EDGE ( 'NONE', *, *, #319, .T. ) ;
#642 = VECTOR ( 'NONE', #937, 1000.000000000000000 ) ;
#643 = DIRECTION ( 'NONE',  ( 7.339214706055730761E-17, -1.000000000000000000, 0.0000000000000000000 ) ) ;
#644 = AXIS2_PLACEMENT_3D ( 'NONE', #384, #483, #397 ) ;
#645 = DIRECTION ( 'NONE',  ( -1.000000000000000000, 0.0000000000000000000, 0.0000000000000000000 ) ) ;
#646 = CARTESIAN_POINT ( 'NONE',  ( 18.09999999999999787, -12.10000000000000320, 5.000000000000000000 ) ) ;
#647 = ADVANCED_FACE ( 'NONE', ( #712 ), #805, .F. ) ;
#648 = CARTESIAN_POINT ( 'NONE',  ( 4.999999999999999112, 0.0000000000000000000, 4.000000000000000000 ) ) ;
#649 = APPROVAL_STATUS ( 'not_yet_approved' ) ;
#650 = CARTESIAN_POINT ( 'NONE',  ( 13.00000000000000178, -12.10000000000000497, 10.00000000000000000 ) ) ;
#651 = ADVANCED_FACE ( 'NONE', ( #1165, #372, #687 ), #523, .F. ) ;
#652 = DIRECTION ( 'NONE',  ( -1.734723475976808080E-16, 1.000000000000000000, -0.0000000000000000000 ) ) ;
#653 =( NAMED_UNIT ( * ) SI_UNIT ( $, .STERADIAN. ) SOLID_ANGLE_UNIT ( ) );
#654 = CARTESIAN_POINT ( 'NONE',  ( 24.00000000000000000, -2.100000000000000089, 10.00000000000000000 ) ) ;
#655 = EDGE_CURVE ( 'NONE', #983, #694, #394, .T. ) ;
#656 = APPROVAL_PERSON_ORGANIZATION ( #181, #860, #858 ) ;
#657 = ORIENTED_EDGE ( 'NONE', *, *, #341, .F. ) ;
#658 = DIRECTION ( 'NONE',  ( 1.000000000000000000, 0.0000000000000000000, 0.0000000000000000000 ) ) ;
#659 = CARTESIAN_POINT ( 'NONE',  ( 15.99999999999999645, -10.10000000000000320, 9.000000000000001776 ) ) ;
#660 = ORIENTED_EDGE ( 'NONE', *, *, #108, .T. ) ;
#661 = VECTOR ( 'NONE', #450, 1000.000000000000000 ) ;
#662 = APPROVAL_DATE_TIME ( #137, #860 ) ;
#663 = ORIENTED_EDGE ( 'NONE', *, *, #865, .F. ) ;
#664 = VERTEX_POINT ( 'NONE', #797 ) ;
#665 = EDGE_CURVE ( 'NONE', #1089, #529, #583, .T. ) ;
#666 = AXIS2_PLACEMENT_3D ( 'NONE', #485, #777, #971 ) ;
#667 = LINE ( 'NONE', #510, #152 ) ;
#668 = ORIENTED_EDGE ( 'NONE', *, *, #279, .T. ) ;
#669 = DIRECTION ( 'NONE',  ( 0.0000000000000000000, 1.000000000000000000, 0.0000000000000000000 ) ) ;
#670 = MECHANICAL_CONTEXT ( 'NONE', #289, 'mechanical' ) ;
#671 = LINE ( 'NONE', #1032, #157 ) ;
#672 = DIRECTION ( 'NONE',  ( 1.000802005371235004E-16, -1.000000000000000000, 0.0000000000000000000 ) ) ;
#673 = FACE_OUTER_BOUND ( 'NONE', #8, .T. ) ;
#674 = VERTEX_POINT ( 'NONE', #132 ) ;
#675 = CIRCLE ( 'NONE', #963, 1.650000000000000355 ) ;
#676 = VECTOR ( 'NONE', #558, 1000.000000000000000 ) ;
#677 = VERTEX_POINT ( 'NONE', #910 ) ;
#678 = ORIENTED_EDGE ( 'NONE', *, *, #5, .T. ) ;
#679 = CIRCLE ( 'NONE', #326, 1.500000000000000444 ) ;
#680 = AXIS2_PLACEMENT_3D ( 'NONE', #167, #930, #346 ) ;
#681 = DIRECTION ( 'NONE',  ( 0.0000000000000000000, 0.0000000000000000000, -1.000000000000000000 ) ) ;
#682 = EDGE_CURVE ( 'NONE', #570, #1045, #119, .T. ) ;
#683 = DIRECTION ( 'NONE',  ( 0.0000000000000000000, -0.0000000000000000000, -1.000000000000000000 ) ) ;
#684 = CARTESIAN_POINT ( 'NONE',  ( 20.99999999999999645, -6.100000000000000533, 1.224646799147352862E-15 ) ) ;
#685 = EDGE_LOOP ( 'NONE', ( #446, #497 ) ) ;
#686 = ORIENTED_EDGE ( 'NONE', *, *, #1118, .F. ) ;
#687 = FACE_OUTER_BOUND ( 'NONE', #490, .T. ) ;
#688 = DIRECTION ( 'NONE',  ( 0.0000000000000000000, 0.0000000000000000000, 1.000000000000000000 ) ) ;
#689 = CC_DESIGN_APPROVAL ( #221, ( #500 ) ) ;
#690 = ORIENTED_EDGE ( 'NONE', *, *, #863, .F. ) ;
#691 = CARTESIAN_POINT ( 'NONE',  ( 20.99999999999999645, -2.100000000000000089, 1.224646799147352862E-15 ) ) ;
#692 = LINE ( 'NONE', #903, #573 ) ;
#693 = ORIENTED_EDGE ( 'NONE', *, *, #1167, .F. ) ;
#694 = VERTEX_POINT ( 'NONE', #716 ) ;
#695 = CARTESIAN_POINT ( 'NONE',  ( -1.000000000000000888, -2.100000000000000977, 4.000000000000000000 ) ) ;
#696 = EDGE_CURVE ( 'NONE', #201, #838, #1011, .T. ) ;
#697 = DIRECTION ( 'NONE',  ( 0.0000000000000000000, 0.0000000000000000000, 1.000000000000000000 ) ) ;
#698 = VECTOR ( 'NONE', #1002, 1000.000000000000000 ) ;
#699 = VECTOR ( 'NONE', #990, 1000.000000000000000 ) ;
#700 = CARTESIAN_POINT ( 'NONE',  ( 0.0000000000000000000, 2.000000000000000000, 10.00000000000000000 ) ) ;
#701 = ORIENTED_EDGE ( 'NONE', *, *, #401, .T. ) ;
#702 = FACE_OUTER_BOUND ( 'NONE', #934, .T. ) ;
#703 = VERTEX_POINT ( 'NONE', #325 ) ;
#704 = CARTESIAN_POINT ( 'NONE',  ( 15.99999999999999645, -2.100000000000000533, 9.000000000000001776 ) ) ;
#705 = EDGE_CURVE ( 'NONE', #377, #13, #196, .T. ) ;
#706 = ORIENTED_EDGE ( 'NONE', *, *, #374, .T. ) ;
#707 = CARTESIAN_POINT ( 'NONE',  ( 11.00000000000000000, -0.09999999999999971412, 2.000000000000001776 ) ) ;
#708 = CARTESIAN_POINT ( 'NONE',  ( 20.99999999999999645, -6.100000000000000533, 1.000000000000001110 ) ) ;
#709 = LINE ( 'NONE', #498, #580 ) ;
#710 = ORIENTED_EDGE ( 'NONE', *, *, #1079, .F. ) ;
#711 = ORIENTED_EDGE ( 'NONE', *, *, #427, .F. ) ;
#712 = FACE_OUTER_BOUND ( 'NONE', #595, .T. ) ;
#713 = LOCAL_TIME ( 14, 59, 13.00000000000000000, #921 ) ;
#714 = EDGE_CURVE ( 'NONE', #443, #37, #134, .T. ) ;
#715 = VECTOR ( 'NONE', #751, 1000.000000000000000 ) ;
#716 = CARTESIAN_POINT ( 'NONE',  ( 18.09999999999999787, -12.10000000000000320, 3.499999999999999556 ) ) ;
#717 = ORIENTED_EDGE ( 'NONE', *, *, #44, .F. ) ;
#718 = ADVANCED_FACE ( 'NONE', ( #345 ), #331, .T. ) ;
#719 = UNCERTAINTY_MEASURE_WITH_UNIT (LENGTH_MEASURE( 1.000000000000000082E-05 ), #1222, 'distance_accuracy_value', 'NONE');
#720 = VECTOR ( 'NONE', #901, 1000.000000000000000 ) ;
#721 = CARTESIAN_POINT ( 'NONE',  ( 13.00000000000000178, -14.20000000000000284, 10.00000000000000000 ) ) ;
#722 = VERTEX_POINT ( 'NONE', #1121 ) ;
#723 = EDGE_CURVE ( 'NONE', #809, #919, #614, .T. ) ;
#724 = EDGE_CURVE ( 'NONE', #1107, #13, #431, .T. ) ;
#725 = AXIS2_PLACEMENT_3D ( 'NONE', #867, #290, #1157 ) ;
#726 = VECTOR ( 'NONE', #1170, 1000.000000000000000 ) ;
#727 = CARTESIAN_POINT ( 'NONE',  ( 18.09999999999999787, -13.60000000000000320, 6.500000000000000888 ) ) ;
#728 = CYLINDRICAL_SURFACE ( 'NONE', #313, 1.500000000000000444 ) ;
#729 = DIRECTION ( 'NONE',  ( -1.734723475976808080E-16, 1.000000000000000000, -0.0000000000000000000 ) ) ;
#730 = ORIENTED_EDGE ( 'NONE', *, *, #319, .F. ) ;
#731 = ADVANCED_FACE ( 'NONE', ( #1229 ), #343, .F. ) ;
#732 = ORIENTED_EDGE ( 'NONE', *, *, #364, .T. ) ;
#733 = DIRECTION ( 'NONE',  ( -1.000000000000000000, 0.0000000000000000000, -0.0000000000000000000 ) ) ;
#734 = DIRECTION ( 'NONE',  ( -0.0000000000000000000, -0.0000000000000000000, 1.000000000000000000 ) ) ;
#735 = APPROVAL ( #649, 'UNSPECIFIED' ) ;
#736 = ADVANCED_FACE ( 'NONE', ( #702 ), #928, .F. ) ;
#737 = PLANE ( 'NONE',  #456 ) ;
#738 =( GEOMETRIC_REPRESENTATION_CONTEXT ( 3 ) GLOBAL_UNCERTAINTY_ASSIGNED_CONTEXT ( ( #719 ) ) GLOBAL_UNIT_ASSIGNED_CONTEXT ( ( #1222, #96, #653 ) ) REPRESENTATION_CONTEXT ( 'NONE', 'WORKASPACE' ) );
#739 = CARTESIAN_POINT ( 'NONE',  ( 18.09999999999999787, 1.400000000000000133, 5.000000000000000000 ) ) ;
#740 = CARTESIAN_POINT ( 'NONE',  ( 18.09999999999999787, -0.09999999999999982514, 6.500000000000000888 ) ) ;
#741 = ADVANCED_FACE ( 'NONE', ( #1070 ), #158, .F. ) ;
#742 = CIRCLE ( 'NONE', #849, 6.000000000000000000 ) ;
#743 = ORIENTED_EDGE ( 'NONE', *, *, #242, .T. ) ;
#744 = VERTEX_POINT ( 'NONE', #352 ) ;
#745 = LINE ( 'NONE', #38, #268 ) ;
#746 = DIRECTION ( 'NONE',  ( 0.0000000000000000000, 1.000000000000000000, 0.0000000000000000000 ) ) ;
#747 = PERSON_AND_ORGANIZATION ( #978, #916 ) ;
#748 = EDGE_CURVE ( 'NONE', #966, #809, #807, .T. ) ;
#749 = VECTOR ( 'NONE', #855, 1000.000000000000000 ) ;
#750 = AXIS2_PLACEMENT_3D ( 'NONE', #1064, #1062, #395 ) ;
#751 = DIRECTION ( 'NONE',  ( -1.000000000000000000, -0.0000000000000000000, -0.0000000000000000000 ) ) ;
#752 = ORIENTED_EDGE ( 'NONE', *, *, #388, .T. ) ;
#753 = EDGE_LOOP ( 'NONE', ( #317, #1193, #412, #1228 ) ) ;
#754 = PERSON_AND_ORGANIZATION_ROLE ( 'design_owner' ) ;
#755 = DIRECTION ( 'NONE',  ( 0.0000000000000000000, -1.000000000000000000, 0.0000000000000000000 ) ) ;
#756 = ORIENTED_EDGE ( 'NONE', *, *, #1022, .F. ) ;
#757 = CARTESIAN_POINT ( 'NONE',  ( 3.650000000000001243, -9.099999999999999645, 0.0000000000000000000 ) ) ;
#758 = LINE ( 'NONE', #691, #622 ) ;
#759 = DIRECTION ( 'NONE',  ( -1.000000000000000000, -1.734723475976808080E-16, -0.0000000000000000000 ) ) ;
#760 = CARTESIAN_POINT ( 'NONE',  ( 13.00000000000000000, 1.999999999999998668, 10.00000000000000000 ) ) ;
#761 = DIRECTION ( 'NONE',  ( 0.0000000000000000000, 0.0000000000000000000, -1.000000000000000000 ) ) ;
#762 = CARTESIAN_POINT ( 'NONE',  ( 18.09999999999999787, -0.09999999999999982514, 5.000000000000000000 ) ) ;
#763 = ORIENTED_EDGE ( 'NONE', *, *, #451, .F. ) ;
#764 = VECTOR ( 'NONE', #973, 1000.000000000000000 ) ;
#765 = APPROVAL_PERSON_ORGANIZATION ( #1202, #221, #1146 ) ;
#766 = ORIENTED_EDGE ( 'NONE', *, *, #312, .F. ) ;
#767 = ORIENTED_EDGE ( 'NONE', *, *, #780, .T. ) ;
#768 = CARTESIAN_POINT ( 'NONE',  ( 4.999999999999999112, 0.0000000000000000000, 4.000000000000000000 ) ) ;
#769 = DIRECTION ( 'NONE',  ( 0.0000000000000000000, 0.0000000000000000000, 1.000000000000000000 ) ) ;
#770 = CARTESIAN_POINT ( 'NONE',  ( 11.00000000000000000, -10.10000000000000320, 9.000000000000001776 ) ) ;
#771 = AXIS2_PLACEMENT_3D ( 'NONE', #853, #271, #174 ) ;
#772 = VECTOR ( 'NONE', #832, 1000.000000000000000 ) ;
#773 = CARTESIAN_POINT ( 'NONE',  ( 4.999999999999999112, -12.10000000000000320, 4.000000000000000000 ) ) ;
#774 = EDGE_LOOP ( 'NONE', ( #75, #517, #21, #925 ) ) ;
#775 = ORIENTED_EDGE ( 'NONE', *, *, #975, .F. ) ;
#776 = VECTOR ( 'NONE', #350, 1000.000000000000000 ) ;
#777 = DIRECTION ( 'NONE',  ( -2.292448614354099078E-17, -1.000000000000000000, -0.0000000000000000000 ) ) ;
#778 = LINE ( 'NONE', #760, #749 ) ;
#779 = ORIENTED_EDGE ( 'NONE', *, *, #401, .F. ) ;
#780 = EDGE_CURVE ( 'NONE', #1045, #25, #984, .T. ) ;
#781 = VECTOR ( 'NONE', #1194, 1000.000000000000000 ) ;
#782 = ORIENTED_EDGE ( 'NONE', *, *, #1091, .F. ) ;
#783 = FACE_BOUND ( 'NONE', #1173, .T. ) ;
#784 = CARTESIAN_POINT ( 'NONE',  ( 18.09999999999999787, -0.09999999999999982514, 3.499999999999999556 ) ) ;
#785 = EDGE_CURVE ( 'NONE', #33, #912, #49, .T. ) ;
#786 = EDGE_CURVE ( 'NONE', #1089, #443, #1134, .T. ) ;
#787 = AXIS2_PLACEMENT_3D ( 'NONE', #684, #900, #1075 ) ;
#788 = CARTESIAN_POINT ( 'NONE',  ( 13.00000000000000178, -12.10000000000000497, 0.0000000000000000000 ) ) ;
#789 = ORIENTED_EDGE ( 'NONE', *, *, #897, .T. ) ;
#790 = ORIENTED_EDGE ( 'NONE', *, *, #825, .T. ) ;
#791 = VECTOR ( 'NONE', #186, 1000.000000000000000 ) ;
#792 = DATE_AND_TIME ( #1087, #892 ) ;
#793 = VERTEX_POINT ( 'NONE', #1031 ) ;
#794 = ORIENTED_EDGE ( 'NONE', *, *, #682, .T. ) ;
#795 = DIRECTION ( 'NONE',  ( -0.0000000000000000000, 0.0000000000000000000, -1.000000000000000000 ) ) ;
#796 = FACE_BOUND ( 'NONE', #1084, .T. ) ;
#797 = CARTESIAN_POINT ( 'NONE',  ( 3.650000000000001688, -9.099999999999999645, 1.999999999999998668 ) ) ;
#798 = CC_DESIGN_SECURITY_CLASSIFICATION ( #417, ( #500 ) ) ;
#799 = DIRECTION ( 'NONE',  ( -0.0000000000000000000, -1.000000000000000000, -0.0000000000000000000 ) ) ;
#800 = CC_DESIGN_PERSON_AND_ORGANIZATION_ASSIGNMENT ( #63, #459, ( #592 ) ) ;
#801 = CARTESIAN_POINT ( 'NONE',  ( 18.09999999999999787, -12.10000000000000320, 5.000000000000000000 ) ) ;
#802 = DIRECTION ( 'NONE',  ( 1.000000000000000000, 8.673617379884040402E-17, 0.0000000000000000000 ) ) ;
#803 = ORIENTED_EDGE ( 'NONE', *, *, #1079, .T. ) ;
#804 = LINE ( 'NONE', #295, #297 ) ;
#805 = PLANE ( 'NONE',  #190 ) ;
#806 = ORIENTED_EDGE ( 'NONE', *, *, #406, .F. ) ;
#807 = CIRCLE ( 'NONE', #396, 6.000000000000000000 ) ;
#808 = CARTESIAN_POINT ( 'NONE',  ( 11.00000000000000000, -2.100000000000000089, 9.000000000000001776 ) ) ;
#809 = VERTEX_POINT ( 'NONE', #837 ) ;
#810 = DIRECTION ( 'NONE',  ( 1.301042606982605567E-16, 1.302086050141611115E-32, -1.000000000000000000 ) ) ;
#811 = VECTOR ( 'NONE', #795, 1000.000000000000000 ) ;
#812 = EDGE_CURVE ( 'NONE', #348, #285, #447, .T. ) ;
#813 = ORIENTED_EDGE ( 'NONE', *, *, #897, .F. ) ;
#814 = AXIS2_PLACEMENT_3D ( 'NONE', #400, #217, #499 ) ;
#815 = ORIENTED_EDGE ( 'NONE', *, *, #839, .F. ) ;
#816 = ADVANCED_FACE ( 'NONE', ( #882 ), #543, .F. ) ;
#817 = CC_DESIGN_PERSON_AND_ORGANIZATION_ASSIGNMENT ( #862, #956, ( #500 ) ) ;
#818 = PLANE ( 'NONE',  #178 ) ;
#819 = CARTESIAN_POINT ( 'NONE',  ( 8.000000000000000000, -3.100000000000000977, 0.0000000000000000000 ) ) ;
#820 = ORIENTED_EDGE ( 'NONE', *, *, #1052, .F. ) ;
#821 = ADVANCED_FACE ( 'NONE', ( #936, #1201 ), #1223, .F. ) ;
#822 = ORIENTED_EDGE ( 'NONE', *, *, #785, .F. ) ;
#823 = VECTOR ( 'NONE', #895, 1000.000000000000000 ) ;
#824 = SHAPE_DEFINITION_REPRESENTATION ( #560, #496 ) ;
#825 = EDGE_CURVE ( 'NONE', #1128, #2, #679, .T. ) ;
#826 = ORIENTED_EDGE ( 'NONE', *, *, #29, .F. ) ;
#827 = DIRECTION ( 'NONE',  ( 0.0000000000000000000, 0.0000000000000000000, -1.000000000000000000 ) ) ;
#828 = ORIENTED_EDGE ( 'NONE', *, *, #924, .T. ) ;
#829 = DIRECTION ( 'NONE',  ( 1.000000000000000000, 8.673617379884040402E-17, 0.0000000000000000000 ) ) ;
#830 = ADVANCED_FACE ( 'NONE', ( #952 ), #818, .T. ) ;
#831 = CARTESIAN_POINT ( 'NONE',  ( 6.349999999999999645, -3.100000000000000977, 0.0000000000000000000 ) ) ;
#832 = DIRECTION ( 'NONE',  ( -1.000802005371235004E-16, 1.000000000000000000, -0.0000000000000000000 ) ) ;
#833 = DIRECTION ( 'NONE',  ( 0.0000000000000000000, 0.0000000000000000000, -1.000000000000000000 ) ) ;
#834 = CC_DESIGN_APPROVAL ( #735, ( #417 ) ) ;
#835 = CARTESIAN_POINT ( 'NONE',  ( 4.999999999999995559, -0.09999999999999958922, 10.00000000000000000 ) ) ;
#836 = ADVANCED_FACE ( 'NONE', ( #235 ), #737, .F. ) ;
#837 = CARTESIAN_POINT ( 'NONE',  ( 24.00000000000000000, -12.10000000000000142, 4.000000000000000000 ) ) ;
#838 = VERTEX_POINT ( 'NONE', #89 ) ;
#839 = EDGE_CURVE ( 'NONE', #481, #991, #551, .T. ) ;
#840 = LINE ( 'NONE', #310, #823 ) ;
#841 = VECTOR ( 'NONE', #1090, 1000.000000000000000 ) ;
#842 = CARTESIAN_POINT ( 'NONE',  ( 18.09999999999999787, -13.60000000000000320, 5.000000000000000000 ) ) ;
#843 = DIRECTION ( 'NONE',  ( -1.734723475976808080E-16, 1.000000000000000000, -0.0000000000000000000 ) ) ;
#844 = ORIENTED_EDGE ( 'NONE', *, *, #856, .F. ) ;
#845 = LINE ( 'NONE', #57, #1150 ) ;
#846 = ADVANCED_FACE ( 'NONE', ( #359 ), #22, .T. ) ;
#847 = CARTESIAN_POINT ( 'NONE',  ( 24.00000000000000000, -12.10000000000000142, 10.00000000000000000 ) ) ;
#848 = EDGE_LOOP ( 'NONE', ( #224, #299, #166, #826, #871 ) ) ;
#849 = AXIS2_PLACEMENT_3D ( 'NONE', #577, #976, #681 ) ;
#850 = DIRECTION ( 'NONE',  ( 1.000000000000000000, 0.0000000000000000000, 0.0000000000000000000 ) ) ;
#851 = DIRECTION ( 'NONE',  ( -0.0000000000000000000, 1.000000000000000000, 1.302086050141611115E-32 ) ) ;
#852 = VERTEX_POINT ( 'NONE', #945 ) ;
#853 = CARTESIAN_POINT ( 'NONE',  ( 18.00000000000000355, -2.100000000000000089, 4.000000000000000000 ) ) ;
#854 = PERSON_AND_ORGANIZATION_ROLE ( 'design_supplier' ) ;
#855 = DIRECTION ( 'NONE',  ( -0.0000000000000000000, -0.0000000000000000000, -1.000000000000000000 ) ) ;
#856 = EDGE_CURVE ( 'NONE', #155, #550, #170, .T. ) ;
#857 = DIRECTION ( 'NONE',  ( 0.0000000000000000000, -0.0000000000000000000, 1.000000000000000000 ) ) ;
#858 = APPROVAL_ROLE ( '' ) ;
#859 = CARTESIAN_POINT ( 'NONE',  ( 20.99999999999999645, -10.10000000000000142, 1.224646799147352862E-15 ) ) ;
#860 = APPROVAL ( #872, 'UNSPECIFIED' ) ;
#861 = VECTOR ( 'NONE', #512, 1000.000000000000000 ) ;
#862 = PERSON_AND_ORGANIZATION ( #978, #916 ) ;
#863 = EDGE_CURVE ( 'NONE', #233, #893, #92, .T. ) ;
#864 = EDGE_LOOP ( 'NONE', ( #1000, #163, #1101, #693 ) ) ;
#865 = EDGE_CURVE ( 'NONE', #991, #664, #920, .T. ) ;
#866 = AXIS2_PLACEMENT_3D ( 'NONE', #98, #877, #294 ) ;
#867 = CARTESIAN_POINT ( 'NONE',  ( 18.09999999999999787, 1.400000000000000133, 5.000000000000000000 ) ) ;
#868 = ORIENTED_EDGE ( 'NONE', *, *, #889, .F. ) ;
#869 = CARTESIAN_POINT ( 'NONE',  ( 24.00000000000000000, -10.10000000000000142, 10.00000000000000000 ) ) ;
#870 = VECTOR ( 'NONE', #423, 1000.000000000000000 ) ;
#871 = ORIENTED_EDGE ( 'NONE', *, *, #81, .F. ) ;
#872 = APPROVAL_STATUS ( 'not_yet_approved' ) ;
#873 = CARTESIAN_POINT ( 'NONE',  ( 24.00000000000000000, -2.100000000000000089, 10.00000000000000000 ) ) ;
#874 = VECTOR ( 'NONE', #172, 1000.000000000000000 ) ;
#875 = AXIS2_PLACEMENT_3D ( 'NONE', #244, #827, #733 ) ;
#876 = CARTESIAN_POINT ( 'NONE',  ( 20.99999999999999645, -2.100000000000000089, 1.000000000000001110 ) ) ;
#877 = DIRECTION ( 'NONE',  ( 0.0000000000000000000, 0.0000000000000000000, -1.000000000000000000 ) ) ;
#878 = ORIENTED_EDGE ( 'NONE', *, *, #665, .T. ) ;
#879 = CIRCLE ( 'NONE', #464, 1.650000000000000355 ) ;
#880 = VERTEX_POINT ( 'NONE', #1140 ) ;
#881 = ORIENTED_EDGE ( 'NONE', *, *, #1181, .F. ) ;
#882 = FACE_OUTER_BOUND ( 'NONE', #1200, .T. ) ;
#883 = PLANE ( 'NONE',  #305 ) ;
#884 = DIRECTION ( 'NONE',  ( -1.301042606982605567E-16, -1.302086050141611115E-32, 1.000000000000000000 ) ) ;
#885 = CARTESIAN_POINT ( 'NONE',  ( 11.00000000000000000, -2.100000000000000977, 2.000000000000000000 ) ) ;
#886 = CIRCLE ( 'NONE', #1082, 1.500000000000000444 ) ;
#887 = EDGE_CURVE ( 'NONE', #893, #344, #1095, .T. ) ;
#888 = DIRECTION ( 'NONE',  ( 0.0000000000000000000, 1.000000000000000000, 0.0000000000000000000 ) ) ;
#889 = EDGE_CURVE ( 'NONE', #880, #1177, #515, .T. ) ;
#890 = ORIENTED_EDGE ( 'NONE', *, *, #589, .F. ) ;
#891 = VECTOR ( 'NONE', #229, 1000.000000000000000 ) ;
#892 = LOCAL_TIME ( 14, 59, 13.00000000000000000, #569 ) ;
#893 = VERTEX_POINT ( 'NONE', #943 ) ;
#894 = ORIENTED_EDGE ( 'NONE', *, *, #215, .F. ) ;
#895 = DIRECTION ( 'NONE',  ( -1.000000000000000000, 1.000802005371235128E-16, -0.0000000000000000000 ) ) ;
#896 = DIRECTION ( 'NONE',  ( -1.734723475976808080E-16, 1.000000000000000000, -0.0000000000000000000 ) ) ;
#897 = EDGE_CURVE ( 'NONE', #348, #898, #518, .T. ) ;
#898 = VERTEX_POINT ( 'NONE', #380 ) ;
#899 = LINE ( 'NONE', #1176, #811 ) ;
#900 = DIRECTION ( 'NONE',  ( -1.000000000000000000, -1.000802005371235004E-16, 0.0000000000000000000 ) ) ;
#901 = DIRECTION ( 'NONE',  ( 1.000000000000000000, 0.0000000000000000000, 1.301042606982605567E-16 ) ) ;
#902 = CIRCLE ( 'NONE', #666, 6.000000000000000000 ) ;
#903 = CARTESIAN_POINT ( 'NONE',  ( 24.00000000000000000, -12.10000000000000142, 0.0000000000000000000 ) ) ;
#904 = ORIENTED_EDGE ( 'NONE', *, *, #785, .T. ) ;
#905 = LINE ( 'NONE', #14, #129 ) ;
#906 = LINE ( 'NONE', #859, #103 ) ;
#907 = ORIENTED_EDGE ( 'NONE', *, *, #143, .F. ) ;
#908 = ORIENTED_EDGE ( 'NONE', *, *, #1144, .F. ) ;
#909 = CYLINDRICAL_SURFACE ( 'NONE', #176, 1.650000000000000355 ) ;
#910 = CARTESIAN_POINT ( 'NONE',  ( 19.99999999999999645, -2.100000000000000089, 2.000000000000001332 ) ) ;
#911 = EDGE_CURVE ( 'NONE', #272, #722, #1038, .T. ) ;
#912 = VERTEX_POINT ( 'NONE', #1041 ) ;
#913 = DIRECTION ( 'NONE',  ( -1.000000000000000000, 0.0000000000000000000, -1.301042606982605567E-16 ) ) ;
#914 = ADVANCED_FACE ( 'NONE', ( #1086 ), #1046, .F. ) ;
#915 = EDGE_CURVE ( 'NONE', #37, #25, #357, .T. ) ;
#916 = ORGANIZATION ( 'UNSPECIFIED', 'UNSPECIFIED', '' ) ;
#917 = ORIENTED_EDGE ( 'NONE', *, *, #1100, .T. ) ;
#918 = DIRECTION ( 'NONE',  ( -1.301042606982605567E-16, -1.302086050141611115E-32, 1.000000000000000000 ) ) ;
#919 = VERTEX_POINT ( 'NONE', #402 ) ;
#920 = LINE ( 'NONE', #757, #599 ) ;
#921 = COORDINATED_UNIVERSAL_TIME_OFFSET ( 3, 0, .AHEAD. ) ;
#922 = EDGE_LOOP ( 'NONE', ( #472, #763, #94, #117 ) ) ;
#923 = DIRECTION ( 'NONE',  ( -1.301042606982605567E-16, -1.302086050141611115E-32, 1.000000000000000000 ) ) ;
#924 = EDGE_CURVE ( 'NONE', #193, #1196, #742, .T. ) ;
#925 = ORIENTED_EDGE ( 'NONE', *, *, #553, .T. ) ;
#926 = CYLINDRICAL_SURFACE ( 'NONE', #621, 1.500000000000000444 ) ;
#927 = DIRECTION ( 'NONE',  ( 0.0000000000000000000, 0.0000000000000000000, 1.000000000000000000 ) ) ;
#928 = PLANE ( 'NONE',  #382 ) ;
#929 = FACE_OUTER_BOUND ( 'NONE', #922, .T. ) ;
#930 = DIRECTION ( 'NONE',  ( -1.000000000000000000, 0.0000000000000000000, 0.0000000000000000000 ) ) ;
#931 = ORIENTED_EDGE ( 'NONE', *, *, #994, .T. ) ;
#932 = FACE_OUTER_BOUND ( 'NONE', #1116, .T. ) ;
#933 = ORIENTED_EDGE ( 'NONE', *, *, #141, .T. ) ;
#934 = EDGE_LOOP ( 'NONE', ( #717, #624, #502, #546, #399, #1174, #375, #844 ) ) ;
#935 = ADVANCED_FACE ( 'NONE', ( #20 ), #16, .F. ) ;
#936 = FACE_BOUND ( 'NONE', #80, .T. ) ;
#937 = DIRECTION ( 'NONE',  ( -0.0000000000000000000, -0.0000000000000000000, 1.000000000000000000 ) ) ;
#938 = DIRECTION ( 'NONE',  ( -1.000802005371235004E-16, 1.000000000000000000, 0.0000000000000000000 ) ) ;
#939 = DIRECTION ( 'NONE',  ( -0.0000000000000000000, -0.0000000000000000000, 1.000000000000000000 ) ) ;
#940 = DIRECTION ( 'NONE',  ( -0.0000000000000000000, 0.0000000000000000000, -1.000000000000000000 ) ) ;
#941 = VECTOR ( 'NONE', #1004, 1000.000000000000000 ) ;
#942 = ORIENTED_EDGE ( 'NONE', *, *, #85, .T. ) ;
#943 = CARTESIAN_POINT ( 'NONE',  ( 11.00000000000000000, -10.10000000000000320, 2.000000000000000000 ) ) ;
#944 = CARTESIAN_POINT ( 'NONE',  ( 11.00000000000000000, -12.10000000000000320, 2.000000000000001776 ) ) ;
#945 = CARTESIAN_POINT ( 'NONE',  ( -1.000000000000000888, 2.000000000000000000, 0.0000000000000000000 ) ) ;
#946 = EDGE_CURVE ( 'NONE', #463, #1198, #315, .T. ) ;
#947 = CYLINDRICAL_SURFACE ( 'NONE', #251, 1.650000000000000355 ) ;
#948 = EDGE_LOOP ( 'NONE', ( #142, #60, #730, #264 ) ) ;
#949 = APPLICATION_PROTOCOL_DEFINITION ( 'international standard', 'config_control_design', 1994, #289 ) ;
#950 = CARTESIAN_POINT ( 'NONE',  ( 8.000000000000000000, -3.100000000000000977, 0.0000000000000000000 ) ) ;
#951 = CLOSED_SHELL ( 'NONE', ( #625, #1205, #156, #846, #935, #440, #1139, #821, #338, #541, #741, #434, #1044, #830, #1019, #458, #651, #914, #1023, #816, #836, #148, #731, #647, #267, #522, #533, #161, #1033, #736, #245, #449, #718, #429, #1125 ) ) ;
#952 = FACE_OUTER_BOUND ( 'NONE', #436, .T. ) ;
#953 = CALENDAR_DATE ( 2024, 25, 3 ) ;
#954 = CYLINDRICAL_SURFACE ( 'NONE', #1169, 1.500000000000000444 ) ;
#955 = CARTESIAN_POINT ( 'NONE',  ( 18.09999999999999787, -13.60000000000000320, 5.000000000000000000 ) ) ;
#956 = PERSON_AND_ORGANIZATION_ROLE ( 'creator' ) ;
#957 = CARTESIAN_POINT ( 'NONE',  ( 13.00000000000000000, -0.09999999999999971412, 0.0000000000000000000 ) ) ;
#958 = ORIENTED_EDGE ( 'NONE', *, *, #525, .F. ) ;
#959 = ORIENTED_EDGE ( 'NONE', *, *, #596, .F. ) ;
#960 = APPLICATION_CONTEXT ( 'configuration controlled 3d designs of mechanical parts and assemblies' ) ;
#961 = CARTESIAN_POINT ( 'NONE',  ( 18.09999999999999787, 1.400000000000000133, 6.500000000000000888 ) ) ;
#962 = EDGE_CURVE ( 'NONE', #609, #1198, #639, .T. ) ;
#963 = AXIS2_PLACEMENT_3D ( 'NONE', #408, #688, #214 ) ;
#964 = DIRECTION ( 'NONE',  ( -1.000000000000000000, -7.339214706055730761E-17, -1.301042606982605567E-16 ) ) ;
#965 = CYLINDRICAL_SURFACE ( 'NONE', #86, 6.000000000000000000 ) ;
#966 = VERTEX_POINT ( 'NONE', #292 ) ;
#967 = VECTOR ( 'NONE', #293, 1000.000000000000000 ) ;
#968 = CARTESIAN_POINT ( 'NONE',  ( 18.00000000000000355, 0.0000000000000000000, 4.000000000000000000 ) ) ;
#969 = ORIENTED_EDGE ( 'NONE', *, *, #1022, .T. ) ;
#970 = LINE ( 'NONE', #316, #184 ) ;
#971 = DIRECTION ( 'NONE',  ( -1.000000000000000000, 2.258754526011467674E-17, -1.734723475976807094E-15 ) ) ;
#972 = ORIENTED_EDGE ( 'NONE', *, *, #278, .T. ) ;
#973 = DIRECTION ( 'NONE',  ( -1.000000000000000000, 0.0000000000000000000, 0.0000000000000000000 ) ) ;
#974 = DIRECTION ( 'NONE',  ( 0.0000000000000000000, 0.0000000000000000000, -1.000000000000000000 ) ) ;
#975 = EDGE_CURVE ( 'NONE', #722, #193, #530, .T. ) ;
#976 = DIRECTION ( 'NONE',  ( -0.0000000000000000000, 1.000000000000000000, -0.0000000000000000000 ) ) ;
#977 = CARTESIAN_POINT ( 'NONE',  ( 24.00000000000000000, -2.100000000000000089, 2.000000000000001776 ) ) ;
#978 = PERSON ( 'UNSPECIFIED', 'UNSPECIFIED', 'UNSPECIFIED', ('UNSPECIFIED'), ('UNSPECIFIED'), ('UNSPECIFIED') ) ;
#979 = AXIS2_PLACEMENT_3D ( 'NONE', #873, #1080, #191 ) ;
#980 = PLANE ( 'NONE',  #303 ) ;
#981 = VECTOR ( 'NONE', #1117, 1000.000000000000000 ) ;
#982 = ORIENTED_EDGE ( 'NONE', *, *, #5, .F. ) ;
#983 = VERTEX_POINT ( 'NONE', #1171 ) ;
#984 = LINE ( 'NONE', #149, #77 ) ;
#985 = APPROVAL_DATE_TIME ( #792, #735 ) ;
#986 = DIRECTION ( 'NONE',  ( -0.0000000000000000000, 1.000000000000000000, -0.0000000000000000000 ) ) ;
#987 = LINE ( 'NONE', #453, #493 ) ;
#988 = ORIENTED_EDGE ( 'NONE', *, *, #1206, .T. ) ;
#989 = DIRECTION ( 'NONE',  ( 1.000000000000000000, -1.000802005371235128E-16, 0.0000000000000000000 ) ) ;
#990 = DIRECTION ( 'NONE',  ( 0.0000000000000000000, 1.000000000000000000, 0.0000000000000000000 ) ) ;
#991 = VERTEX_POINT ( 'NONE', #488 ) ;
#992 = ORIENTED_EDGE ( 'NONE', *, *, #915, .T. ) ;
#993 = LINE ( 'NONE', #977, #726 ) ;
#994 = EDGE_CURVE ( 'NONE', #308, #893, #905, .T. ) ;
#995 = EDGE_CURVE ( 'NONE', #793, #1177, #61, .T. ) ;
#996 = AXIS2_PLACEMENT_3D ( 'NONE', #414, #998, #222 ) ;
#997 = MANIFOLD_SOLID_BREP ( 'Скругление3', #951 ) ;
#998 = DIRECTION ( 'NONE',  ( 1.734723475976808080E-16, -1.000000000000000000, 0.0000000000000000000 ) ) ;
#999 = FACE_OUTER_BOUND ( 'NONE', #30, .T. ) ;
#1000 = ORIENTED_EDGE ( 'NONE', *, *, #1081, .F. ) ;
#1001 = VECTOR ( 'NONE', #1132, 1000.000000000000000 ) ;
#1002 = DIRECTION ( 'NONE',  ( -0.0000000000000000000, 1.000000000000000000, -0.0000000000000000000 ) ) ;
#1003 = EDGE_LOOP ( 'NONE', ( #668, #503, #1148, #55, #333 ) ) ;
#1004 = DIRECTION ( 'NONE',  ( -0.0000000000000000000, -0.0000000000000000000, 1.000000000000000000 ) ) ;
#1005 = ORIENTED_EDGE ( 'NONE', *, *, #427, .T. ) ;
#1006 = CARTESIAN_POINT ( 'NONE',  ( 2.000000000000000888, -9.099999999999999645, 1.999999999999998668 ) ) ;
#1007 = DIRECTION ( 'NONE',  ( 0.0000000000000000000, 1.000000000000000000, 0.0000000000000000000 ) ) ;
#1008 = LINE ( 'NONE', #355, #444 ) ;
#1009 = VERTEX_POINT ( 'NONE', #18 ) ;
#1010 = ORIENTED_EDGE ( 'NONE', *, *, #1035, .T. ) ;
#1011 = CIRCLE ( 'NONE', #554, 6.000000000000000000 ) ;
#1012 = FACE_OUTER_BOUND ( 'NONE', #948, .T. ) ;
#1013 = CARTESIAN_POINT ( 'NONE',  ( 20.99999999999999645, -2.100000000000000089, 0.0000000000000000000 ) ) ;
#1014 = ORIENTED_EDGE ( 'NONE', *, *, #213, .T. ) ;
#1015 = EDGE_CURVE ( 'NONE', #272, #1106, #263, .T. ) ;
#1016 = VECTOR ( 'NONE', #536, 1000.000000000000000 ) ;
#1017 = DIRECTION ( 'NONE',  ( -1.734723475976808080E-16, 1.000000000000000000, 0.0000000000000000000 ) ) ;
#1018 = ORIENTED_EDGE ( 'NONE', *, *, #620, .F. ) ;
#1019 = ADVANCED_FACE ( 'NONE', ( #932 ), #253, .T. ) ;
#1020 = DIRECTION ( 'NONE',  ( -1.734723475976808080E-16, 1.000000000000000000, 0.0000000000000000000 ) ) ;
#1021 = LINE ( 'NONE', #695, #247 ) ;
#1022 = EDGE_CURVE ( 'NONE', #288, #358, #804, .T. ) ;
#1023 = ADVANCED_FACE ( 'NONE', ( #477 ), #883, .F. ) ;
#1024 = ORIENTED_EDGE ( 'NONE', *, *, #56, .F. ) ;
#1025 = VECTOR ( 'NONE', #469, 1000.000000000000000 ) ;
#1026 = CARTESIAN_POINT ( 'NONE',  ( 0.0000000000000000000, 0.0000000000000000000, 0.0000000000000000000 ) ) ;
#1027 = VERTEX_POINT ( 'NONE', #1067 ) ;
#1028 = VERTEX_POINT ( 'NONE', #876 ) ;
#1029 = CARTESIAN_POINT ( 'NONE',  ( 19.99999999999999645, -2.100000000000000089, 1.000000000000001110 ) ) ;
#1030 = CARTESIAN_POINT ( 'NONE',  ( 24.00000000000000000, -12.10000000000000142, 4.000000000000000000 ) ) ;
#1031 = CARTESIAN_POINT ( 'NONE',  ( 20.99999999999999645, -10.10000000000000142, 0.0000000000000000000 ) ) ;
#1032 = CARTESIAN_POINT ( 'NONE',  ( 4.999999999999999112, 0.0000000000000000000, 10.00000000000000000 ) ) ;
#1033 = ADVANCED_FACE ( 'NONE', ( #547 ), #480, .F. ) ;
#1034 = DIRECTION ( 'NONE',  ( -1.000000000000000000, 0.0000000000000000000, 0.0000000000000000000 ) ) ;
#1035 = EDGE_CURVE ( 'NONE', #112, #1009, #9, .T. ) ;
#1036 = DIRECTION ( 'NONE',  ( -0.0000000000000000000, -0.0000000000000000000, -1.000000000000000000 ) ) ;
#1037 = CARTESIAN_POINT ( 'NONE',  ( 13.00000000000000000, -0.09999999999999971412, 10.00000000000000000 ) ) ;
#1038 = CIRCLE ( 'NONE', #771, 6.000000000000000000 ) ;
#1039 = EDGE_LOOP ( 'NONE', ( #813, #195, #732, #958 ) ) ;
#1040 = LINE ( 'NONE', #40, #145 ) ;
#1041 = CARTESIAN_POINT ( 'NONE',  ( 18.00000000000000355, -10.10000000000000320, 10.00000000000000000 ) ) ;
#1042 = LINE ( 'NONE', #79, #1204 ) ;
#1043 = CARTESIAN_POINT ( 'NONE',  ( -1.000000000000000888, 2.000000000000000000, 4.000000000000000000 ) ) ;
#1044 = ADVANCED_FACE ( 'NONE', ( #101 ), #728, .T. ) ;
#1045 = VERTEX_POINT ( 'NONE', #115 ) ;
#1046 = PLANE ( 'NONE',  #1103 ) ;
#1047 = EDGE_LOOP ( 'NONE', ( #1024, #356, #1059, #169, #479, #582, #1057, #1077, #933, #988, #516, #992 ) ) ;
#1048 = EDGE_CURVE ( 'NONE', #991, #481, #675, .T. ) ;
#1049 = CARTESIAN_POINT ( 'NONE',  ( 11.00000000000000000, -10.10000000000000142, 2.000000000000000000 ) ) ;
#1050 = DIRECTION ( 'NONE',  ( -1.000000000000000000, -1.734723475976808080E-16, -0.0000000000000000000 ) ) ;
#1051 = CARTESIAN_POINT ( 'NONE',  ( 2.000000000000000888, -9.099999999999999645, 0.0000000000000000000 ) ) ;
#1052 = EDGE_CURVE ( 'NONE', #358, #838, #840, .T. ) ;
#1053 = ORIENTED_EDGE ( 'NONE', *, *, #388, .F. ) ;
#1054 = EDGE_CURVE ( 'NONE', #463, #1009, #1066, .T. ) ;
#1055 = ORIENTED_EDGE ( 'NONE', *, *, #593, .T. ) ;
#1056 = LINE ( 'NONE', #87, #164 ) ;
#1057 = ORIENTED_EDGE ( 'NONE', *, *, #1110, .F. ) ;
#1058 = DIRECTION ( 'NONE',  ( -1.000000000000000000, -1.734723475976808080E-16, 0.0000000000000000000 ) ) ;
#1059 = ORIENTED_EDGE ( 'NONE', *, *, #486, .F. ) ;
#1060 = CARTESIAN_POINT ( 'NONE',  ( 13.00000000000000000, 1.999999999999998668, 10.00000000000000000 ) ) ;
#1061 = CIRCLE ( 'NONE', #110, 1.000000000000000888 ) ;
#1062 = DIRECTION ( 'NONE',  ( -0.0000000000000000000, 1.000000000000000000, -0.0000000000000000000 ) ) ;
#1063 = AXIS2_PLACEMENT_3D ( 'NONE', #572, #746, #362 ) ;
#1064 = CARTESIAN_POINT ( 'NONE',  ( 18.09999999999999787, -0.09999999999999982514, 5.000000000000000000 ) ) ;
#1065 = VERTEX_POINT ( 'NONE', #784 ) ;
#1066 = LINE ( 'NONE', #122, #699 ) ;
#1067 = CARTESIAN_POINT ( 'NONE',  ( -1.000000000000000888, -12.10000000000000320, 1.999999999999998224 ) ) ;
#1068 = ORIENTED_EDGE ( 'NONE', *, *, #995, .F. ) ;
#1069 = ORIENTED_EDGE ( 'NONE', *, *, #1052, .T. ) ;
#1070 = FACE_OUTER_BOUND ( 'NONE', #1122, .T. ) ;
#1071 = DIRECTION ( 'NONE',  ( -0.0000000000000000000, 1.000000000000000000, -0.0000000000000000000 ) ) ;
#1072 = CALENDAR_DATE ( 2024, 25, 3 ) ;
#1073 = EDGE_LOOP ( 'NONE', ( #602, #657 ) ) ;
#1074 = DIRECTION ( 'NONE',  ( 0.0000000000000000000, 1.000000000000000000, 1.302086050141611115E-32 ) ) ;
#1075 = DIRECTION ( 'NONE',  ( 1.000802005371235004E-16, -1.000000000000000000, 0.0000000000000000000 ) ) ;
#1076 = ORIENTED_EDGE ( 'NONE', *, *, #553, .F. ) ;
#1077 = ORIENTED_EDGE ( 'NONE', *, *, #995, .T. ) ;
#1078 = LINE ( 'NONE', #600, #698 ) ;
#1079 = EDGE_CURVE ( 'NONE', #288, #703, #709, .T. ) ;
#1080 = DIRECTION ( 'NONE',  ( -1.000802005371235004E-16, 1.000000000000000000, 0.0000000000000000000 ) ) ;
#1081 = EDGE_CURVE ( 'NONE', #1107, #744, #879, .T. ) ;
#1082 = AXIS2_PLACEMENT_3D ( 'NONE', #762, #1071, #7 ) ;
#1083 = CARTESIAN_POINT ( 'NONE',  ( 15.99999999999999645, -2.100000000000000533, 10.00000000000000000 ) ) ;
#1084 = EDGE_LOOP ( 'NONE', ( #641, #1215 ) ) ;
#1085 = ORIENTED_EDGE ( 'NONE', *, *, #665, .F. ) ;
#1086 = FACE_OUTER_BOUND ( 'NONE', #404, .T. ) ;
#1087 = CALENDAR_DATE ( 2024, 25, 3 ) ;
#1088 = ORIENTED_EDGE ( 'NONE', *, *, #786, .F. ) ;
#1089 = VERTEX_POINT ( 'NONE', #1179 ) ;
#1090 = DIRECTION ( 'NONE',  ( -0.0000000000000000000, -1.000000000000000000, -0.0000000000000000000 ) ) ;
#1091 = EDGE_CURVE ( 'NONE', #33, #494, #45, .T. ) ;
#1092 = CC_DESIGN_PERSON_AND_ORGANIZATION_ASSIGNMENT ( #594, #754, ( #99 ) ) ;
#1093 = CARTESIAN_POINT ( 'NONE',  ( 1.405126015541214930E-15, -14.20000000000000639, 10.00000000000000000 ) ) ;
#1094 = EDGE_LOOP ( 'NONE', ( #150, #806, #1098, #147 ) ) ;
#1095 = LINE ( 'NONE', #557, #791 ) ;
#1096 = VECTOR ( 'NONE', #202, 1000.000000000000000 ) ;
#1097 = DIRECTION ( 'NONE',  ( 2.735525481348043208E-16, -1.000000000000000000, -0.0000000000000000000 ) ) ;
#1098 = ORIENTED_EDGE ( 'NONE', *, *, #1167, .T. ) ;
#1099 = LINE ( 'NONE', #1093, #861 ) ;
#1100 = EDGE_CURVE ( 'NONE', #1009, #67, #74, .T. ) ;
#1101 = ORIENTED_EDGE ( 'NONE', *, *, #341, .T. ) ;
#1102 = CARTESIAN_POINT ( 'NONE',  ( 2.000000000000000888, -9.099999999999999645, 0.0000000000000000000 ) ) ;
#1103 = AXIS2_PLACEMENT_3D ( 'NONE', #1154, #10, #672 ) ;
#1104 = CARTESIAN_POINT ( 'NONE',  ( 18.09999999999999787, -13.60000000000000320, 3.499999999999999112 ) ) ;
#1105 = VECTOR ( 'NONE', #1007, 1000.000000000000000 ) ;
#1106 = VERTEX_POINT ( 'NONE', #628 ) ;
#1107 = VERTEX_POINT ( 'NONE', #535 ) ;
#1108 = VECTOR ( 'NONE', #896, 1000.000000000000000 ) ;
#1109 = DIRECTION ( 'NONE',  ( 1.000802005371235004E-16, -1.000000000000000000, -0.0000000000000000000 ) ) ;
#1110 = EDGE_CURVE ( 'NONE', #793, #585, #610, .T. ) ;
#1111 = ORIENTED_EDGE ( 'NONE', *, *, #85, .F. ) ;
#1112 = VERTEX_POINT ( 'NONE', #351 ) ;
#1113 = CIRCLE ( 'NONE', #216, 1.650000000000000577 ) ;
#1114 = ORIENTED_EDGE ( 'NONE', *, *, #564, .F. ) ;
#1115 = DIRECTION ( 'NONE',  ( 0.0000000000000000000, 0.0000000000000000000, -1.000000000000000000 ) ) ;
#1116 = EDGE_LOOP ( 'NONE', ( #104, #173, #227, #775 ) ) ;
#1117 = DIRECTION ( 'NONE',  ( -0.0000000000000000000, -0.0000000000000000000, 1.000000000000000000 ) ) ;
#1118 = EDGE_CURVE ( 'NONE', #2, #1128, #419, .T. ) ;
#1119 = EDGE_CURVE ( 'NONE', #677, #1028, #1225, .T. ) ;
#1120 = LINE ( 'NONE', #540, #870 ) ;
#1121 = CARTESIAN_POINT ( 'NONE',  ( 18.00000000000000355, -2.100000000000000089, 10.00000000000000000 ) ) ;
#1122 = EDGE_LOOP ( 'NONE', ( #266, #942, #1018, #1085, #128, #907, #822, #133, #65, #507, #587, #969, #1069, #212, #638, #532 ) ) ;
#1123 = CARTESIAN_POINT ( 'NONE',  ( 24.00000000000000000, -10.10000000000000142, 0.0000000000000000000 ) ) ;
#1124 = LINE ( 'NONE', #1172, #841 ) ;
#1125 = ADVANCED_FACE ( 'NONE', ( #35 ), #232, .T. ) ;
#1126 = CARTESIAN_POINT ( 'NONE',  ( 13.00000000000000000, 1.999999999999998668, 0.0000000000000000000 ) ) ;
#1127 = CARTESIAN_POINT ( 'NONE',  ( 6.349999999999999645, -3.100000000000000977, 1.999999999999999556 ) ) ;
#1128 = VERTEX_POINT ( 'NONE', #727 ) ;
#1129 = VECTOR ( 'NONE', #528, 1000.000000000000000 ) ;
#1130 = FACE_OUTER_BOUND ( 'NONE', #118, .T. ) ;
#1131 = ORIENTED_EDGE ( 'NONE', *, *, #521, .F. ) ;
#1132 = DIRECTION ( 'NONE',  ( -0.0000000000000000000, 1.000000000000000000, -0.0000000000000000000 ) ) ;
#1133 = ORIENTED_EDGE ( 'NONE', *, *, #461, .T. ) ;
#1134 = LINE ( 'NONE', #538, #300 ) ;
#1135 = CC_DESIGN_DATE_AND_TIME_ASSIGNMENT ( #478, #179, ( #592 ) ) ;
#1136 = CARTESIAN_POINT ( 'NONE',  ( 8.000000000000000000, -3.100000000000000977, 1.999999999999999556 ) ) ;
#1137 = CARTESIAN_POINT ( 'NONE',  ( -3.188350818816238164, -0.09999999999999939493, 10.00000000000000000 ) ) ;
#1138 = CARTESIAN_POINT ( 'NONE',  ( -3.188350818816238164, -0.09999999999999939493, -17.58249980378860755 ) ) ;
#1139 = ADVANCED_FACE ( 'NONE', ( #1161 ), #360, .F. ) ;
#1140 = CARTESIAN_POINT ( 'NONE',  ( 24.00000000000000000, -10.10000000000000142, 4.000000000000000000 ) ) ;
#1141 = PERSON_AND_ORGANIZATION_ROLE ( 'classification_officer' ) ;
#1142 = DIRECTION ( 'NONE',  ( 1.000000000000000000, 0.0000000000000000000, 0.0000000000000000000 ) ) ;
#1143 = CARTESIAN_POINT ( 'NONE',  ( 11.00000000000000000, -2.100000000000000977, 10.00000000000000000 ) ) ;
#1144 = EDGE_CURVE ( 'NONE', #880, #912, #286, .T. ) ;
#1145 = EDGE_CURVE ( 'NONE', #183, #33, #1008, .T. ) ;
#1146 = APPROVAL_ROLE ( '' ) ;
#1147 = CARTESIAN_POINT ( 'NONE',  ( 13.00000000000000000, -0.09999999999999971412, 10.00000000000000000 ) ) ;
#1148 = ORIENTED_EDGE ( 'NONE', *, *, #1206, .F. ) ;
#1149 = ORIENTED_EDGE ( 'NONE', *, *, #340, .T. ) ;
#1150 = VECTOR ( 'NONE', #42, 1000.000000000000000 ) ;
#1151 = CARTESIAN_POINT ( 'NONE',  ( 13.00000000000000000, -0.09999999999999971412, 10.00000000000000000 ) ) ;
#1152 = EDGE_LOOP ( 'NONE', ( #815, #1014, #1153, #663 ) ) ;
#1153 = ORIENTED_EDGE ( 'NONE', *, *, #589, .T. ) ;
#1154 = CARTESIAN_POINT ( 'NONE',  ( 15.99999999999999645, -6.100000000000001421, 9.000000000000001776 ) ) ;
#1155 = CARTESIAN_POINT ( 'NONE',  ( 18.09999999999999787, -13.60000000000000320, 3.499999999999999556 ) ) ;
#1156 = LINE ( 'NONE', #262, #385 ) ;
#1157 = DIRECTION ( 'NONE',  ( 0.0000000000000000000, 0.0000000000000000000, 1.000000000000000000 ) ) ;
#1158 = DIRECTION ( 'NONE',  ( 0.0000000000000000000, 0.0000000000000000000, -1.000000000000000000 ) ) ;
#1159 = AXIS2_PLACEMENT_3D ( 'NONE', #457, #151, #260 ) ;
#1160 = EDGE_LOOP ( 'NONE', ( #1076, #890 ) ) ;
#1161 = FACE_OUTER_BOUND ( 'NONE', #753, .T. ) ;
#1162 = CIRCLE ( 'NONE', #526, 1.650000000000000355 ) ;
#1163 = ORIENTED_EDGE ( 'NONE', *, *, #723, .T. ) ;
#1164 = EDGE_LOOP ( 'NONE', ( #565, #894, #756, #803 ) ) ;
#1165 = FACE_BOUND ( 'NONE', #1160, .T. ) ;
#1166 = CARTESIAN_POINT ( 'NONE',  ( -3.188350818816238164, -12.10000000000000320, -17.58249980378860755 ) ) ;
#1167 = EDGE_CURVE ( 'NONE', #744, #377, #567, .T. ) ;
#1168 = DIRECTION ( 'NONE',  ( -0.0000000000000000000, 0.0000000000000000000, 1.000000000000000000 ) ) ;
#1169 = AXIS2_PLACEMENT_3D ( 'NONE', #425, #1217, #637 ) ;
#1170 = DIRECTION ( 'NONE',  ( -1.000000000000000000, -1.000802005371235004E-16, -1.301042606982605567E-16 ) ) ;
#1171 = CARTESIAN_POINT ( 'NONE',  ( 18.09999999999999787, -12.10000000000000320, 6.500000000000000888 ) ) ;
#1172 = CARTESIAN_POINT ( 'NONE',  ( 18.09999999999999787, 1.400000000000000133, 3.499999999999999556 ) ) ;
#1173 = EDGE_LOOP ( 'NONE', ( #579, #520 ) ) ;
#1174 = ORIENTED_EDGE ( 'NONE', *, *, #1035, .F. ) ;
#1175 = VECTOR ( 'NONE', #95, 1000.000000000000000 ) ;
#1176 = CARTESIAN_POINT ( 'NONE',  ( 13.00000000000000178, -14.20000000000000284, 10.00000000000000000 ) ) ;
#1177 = VERTEX_POINT ( 'NONE', #1123 ) ;
#1178 = ORIENTED_EDGE ( 'NONE', *, *, #630, .T. ) ;
#1179 = CARTESIAN_POINT ( 'NONE',  ( 13.00000000000000178, -12.10000000000000497, 10.00000000000000000 ) ) ;
#1180 = ORIENTED_EDGE ( 'NONE', *, *, #576, .T. ) ;
#1181 = EDGE_CURVE ( 'NONE', #155, #603, #462, .T. ) ;
#1182 = EDGE_CURVE ( 'NONE', #1106, #674, #194, .T. ) ;
#1183 = AXIS2_PLACEMENT_3D ( 'NONE', #1199, #1097, #619 ) ;
#1184 = FACE_OUTER_BOUND ( 'NONE', #1094, .T. ) ;
#1185 = DIRECTION ( 'NONE',  ( 1.734723475976808080E-16, -1.000000000000000000, 0.0000000000000000000 ) ) ;
#1186 = PLANE ( 'NONE',  #410 ) ;
#1187 = PLANE ( 'NONE',  #511 ) ;
#1188 = VERTEX_POINT ( 'NONE', #1126 ) ;
#1189 = VECTOR ( 'NONE', #28, 1000.000000000000000 ) ;
#1190 = LINE ( 'NONE', #91, #640 ) ;
#1191 = VERTEX_POINT ( 'NONE', #159 ) ;
#1192 = VECTOR ( 'NONE', #631, 1000.000000000000000 ) ;
#1193 = ORIENTED_EDGE ( 'NONE', *, *, #4, .T. ) ;
#1194 = DIRECTION ( 'NONE',  ( 1.734723475976808080E-16, -1.000000000000000000, 0.0000000000000000000 ) ) ;
#1195 = CARTESIAN_POINT ( 'NONE',  ( 11.00000000000000000, -6.100000000000001421, 2.000000000000000000 ) ) ;
#1196 = VERTEX_POINT ( 'NONE', #70 ) ;
#1197 = VECTOR ( 'NONE', #1036, 1000.000000000000000 ) ;
#1198 = VERTEX_POINT ( 'NONE', #452 ) ;
#1199 = CARTESIAN_POINT ( 'NONE',  ( 4.999999999999999112, -14.20000000000000462, 4.000000000000000000 ) ) ;
#1200 = EDGE_LOOP ( 'NONE', ( #84, #73, #239, #465, #660, #505, #904, #908, #418, #1068 ) ) ;
#1201 = FACE_OUTER_BOUND ( 'NONE', #615, .T. ) ;
#1202 = PERSON_AND_ORGANIZATION ( #978, #916 ) ;
#1203 = EDGE_CURVE ( 'NONE', #1196, #674, #205, .T. ) ;
#1204 = VECTOR ( 'NONE', #460, 1000.000000000000000 ) ;
#1205 = ADVANCED_FACE ( 'NONE', ( #487 ), #947, .F. ) ;
#1206 = EDGE_CURVE ( 'NONE', #919, #443, #1056, .T. ) ;
#1207 = ORIENTED_EDGE ( 'NONE', *, *, #324, .T. ) ;
#1208 = DIRECTION ( 'NONE',  ( -2.735525481348043208E-16, 1.000000000000000000, 0.0000000000000000000 ) ) ;
#1209 = DIRECTION ( 'NONE',  ( 1.000000000000000000, -7.228014483236695816E-17, -8.673617379884035472E-16 ) ) ;
#1210 = CARTESIAN_POINT ( 'NONE',  ( 8.000000000000000000, -3.100000000000000977, 0.0000000000000000000 ) ) ;
#1211 = CARTESIAN_POINT ( 'NONE',  ( 18.00000000000000355, -12.10000000000000320, 4.000000000000000000 ) ) ;
#1212 = DIRECTION ( 'NONE',  ( 1.734723475976808080E-16, -1.000000000000000000, 0.0000000000000000000 ) ) ;
#1213 = VECTOR ( 'NONE', #829, 1000.000000000000000 ) ;
#1214 = ORIENTED_EDGE ( 'NONE', *, *, #175, .F. ) ;
#1215 = ORIENTED_EDGE ( 'NONE', *, *, #655, .T. ) ;
#1216 = CARTESIAN_POINT ( 'NONE',  ( 11.00000000000000000, -2.100000000000000977, 9.000000000000001776 ) ) ;
#1217 = DIRECTION ( 'NONE',  ( -1.734723475976808080E-16, 1.000000000000000000, -0.0000000000000000000 ) ) ;
#1218 = CARTESIAN_POINT ( 'NONE',  ( 24.00000000000000000, -10.10000000000000142, 10.00000000000000000 ) ) ;
#1219 = CARTESIAN_POINT ( 'NONE',  ( 15.99999999999999645, -6.100000000000001421, 10.00000000000000000 ) ) ;
#1220 = DIRECTION ( 'NONE',  ( 0.0000000000000000000, 0.0000000000000000000, -1.000000000000000000 ) ) ;
#1221 = AXIS2_PLACEMENT_3D ( 'NONE', #1138, #185, #367 ) ;
#1222 =( LENGTH_UNIT ( ) NAMED_UNIT ( * ) SI_UNIT ( .MILLI., .METRE. ) );
#1223 = PLANE ( 'NONE',  #513 ) ;
#1224 = AXIS2_PLACEMENT_3D ( 'NONE', #1051, #277, #283 ) ;
#1225 = CIRCLE ( 'NONE', #376, 1.000000000000000888 ) ;
#1226 = ORIENTED_EDGE ( 'NONE', *, *, #204, .T. ) ;
#1227 = DIRECTION ( 'NONE',  ( -1.000000000000000000, 2.292448614354099078E-17, -1.301042606982605567E-16 ) ) ;
#1228 = ORIENTED_EDGE ( 'NONE', *, *, #1182, .T. ) ;
#1229 = FACE_OUTER_BOUND ( 'NONE', #291, .T. ) ;
#1230 = APPROVAL_DATE_TIME ( #373, #221 ) ;
#1231 = LINE ( 'NONE', #957, #715 ) ;
#1232 = CARTESIAN_POINT ( 'NONE',  ( 18.09999999999999787, 1.400000000000000133, 5.000000000000000000 ) ) ;
ENDSEC;
END-ISO-10303-21;
