ISO-10303-21;
HEADER;
FILE_DESCRIPTION(('STEP AP242'),
    '1');
FILE_NAME('Под провода',
    '',
    ('UNSPECIFIED'),
    ('UNSPECIFIED'),
    'C3D Converter',
    'C3D Toolkit',
    '');
FILE_SCHEMA(('AP242_MANAGED_MODEL_BASED_3D_ENGINEERING_MIM_LF { 1 0 10303 442 1 1 4 }'));
ENDSEC;

DATA;
#1=PRODUCT_DEFINITION('','UNSPECIFIED',#28,#31);
#2=SHAPE_DEFINITION_REPRESENTATION(#26,#3);
#3=SHAPE_REPRESENTATION('NONE',(#4),#8);
#4=AXIS2_PLACEMENT_3D('',#5,#6,#7);
#5=CARTESIAN_POINT('',(0.,0.,0.));
#6=DIRECTION('',(0.,0.,1.));
#7=DIRECTION('',(1.,0.,0.));
#8=(GEOMETRIC_REPRESENTATION_CONTEXT(3)GLOBAL_UNCERTAINTY_ASSIGNED_CONTEXT((#10))
GLOBAL_UNIT_ASSIGNED_CONTEXT((#9,#11,#12))REPRESENTATION_CONTEXT('NONE','NONE'));
#9=(LENGTH_UNIT()NAMED_UNIT(*)SI_UNIT(.MILLI.,.METRE.));
#10=UNCERTAINTY_MEASURE_WITH_UNIT(LENGTH_MEASURE(1.E-5),#9,'NONE','NONE');
#11=(NAMED_UNIT(*)PLANE_ANGLE_UNIT()SI_UNIT($,.RADIAN.));
#12=(NAMED_UNIT(*)SI_UNIT($,.STERADIAN.)SOLID_ANGLE_UNIT());
#13=MANIFOLD_SOLID_BREP('',#14);
#14=CLOSED_SHELL('',(#53,#62,#71,#80,#89,#98,#107,#116,#125,#134,#143,#152,#161,
#170,#179,#188,#197,#206,#215,#224,#233,#242,#251,#260,#269,#278,#287,#296,#305,
#314,#323,#332,#341,#350,#359,#368,#377,#386,#395,#404));
#15=COLOUR_RGB('',0.564705882352941,0.564705882352941,0.564705882352941);
#16=FILL_AREA_STYLE_COLOUR('',#15);
#17=FILL_AREA_STYLE($,(#16));
#18=SURFACE_STYLE_FILL_AREA(#17);
#19=SURFACE_SIDE_STYLE('',(#18));
#20=SURFACE_STYLE_USAGE(.BOTH.,#19);
#21=PRESENTATION_STYLE_ASSIGNMENT((#20));
#22=MECHANICAL_DESIGN_GEOMETRIC_PRESENTATION_REPRESENTATION('NONE',(#23,#61,#70,
#79,#88,#97,#106,#115,#124,#133,#142,#151,#160,#169,#178,#187,#196,#205,#214,#223,
#232,#241,#250,#259,#268,#277,#286,#295,#304,#313,#322,#331,#340,#349,#358,#367,
#376,#385,#394,#403,#412),#8);
#23=STYLED_ITEM('',(#21),#13);
#24=ADVANCED_BREP_SHAPE_REPRESENTATION('NONE',(#13),#8);
#25=SHAPE_REPRESENTATION_RELATIONSHIP('','',#3,#24);
#26=PRODUCT_DEFINITION_SHAPE('NONE','NONE',#1);
#27=MECHANICAL_CONTEXT('NONE',#32,'mechanical');
#28=PRODUCT_DEFINITION_FORMATION_WITH_SPECIFIED_SOURCE('ANY','UNSPECIFIED',#29,.NOT_KNOWN.);
#29=PRODUCT('','\X2\0414043504420430043B044C\X0\','NONE',(#27));
#30=PRODUCT_RELATED_PRODUCT_CATEGORY('detail','',(#29));
#31=DESIGN_CONTEXT('detailed design',#32,'design');
#32=APPLICATION_CONTEXT('configuration controlled 3d designs of mechanical parts and assemblies');
#33=APPLICATION_PROTOCOL_DEFINITION('international standard','config_control_design',
1994,#32);
#34=CC_DESIGN_DATE_AND_TIME_ASSIGNMENT(#35,#39,(#1));
#35=DATE_AND_TIME(#36,#37);
#36=CALENDAR_DATE(0,1,1);
#37=LOCAL_TIME(0,0,0.,#38);
#38=COORDINATED_UNIVERSAL_TIME_OFFSET(0,0,.AHEAD.);
#39=DATE_TIME_ROLE('creation_date');
#40=CC_DESIGN_APPROVAL(#41,(#1));
#41=APPROVAL(#42,'UNSPECIFIED');
#42=APPROVAL_STATUS('not_yet_approved');
#43=APPROVAL_DATE_TIME(#44,#41);
#44=DATE_AND_TIME(#45,#46);
#45=CALENDAR_DATE(0,1,1);
#46=LOCAL_TIME(0,0,0.,#47);
#47=COORDINATED_UNIVERSAL_TIME_OFFSET(0,0,.AHEAD.);
#48=PERSON('UNSPECIFIED','Cybermeatball','UNSPECIFIED',('UNSPECIFIED'),('UNSPECIFIED'),
('UNSPECIFIED'));
#49=ORGANIZATION('UNSPECIFIED','UNSPECIFIED','UNSPECIFIED');
#50=PERSON_AND_ORGANIZATION(#48,#49);
#51=PERSON_AND_ORGANIZATION_ROLE('creator');
#52=CC_DESIGN_PERSON_AND_ORGANIZATION_ASSIGNMENT(#50,#51,(#28,#1));
#53=ADVANCED_FACE('',(#413,#415),#417,.T.);
#54=COLOUR_RGB('',0.564705882352941,0.564705882352941,0.564705882352941);
#55=FILL_AREA_STYLE_COLOUR('',#54);
#56=FILL_AREA_STYLE($,(#55));
#57=SURFACE_STYLE_FILL_AREA(#56);
#58=SURFACE_SIDE_STYLE('',(#57));
#59=SURFACE_STYLE_USAGE(.BOTH.,#58);
#60=PRESENTATION_STYLE_ASSIGNMENT((#59));
#61=STYLED_ITEM('',(#60),#53);
#62=ADVANCED_FACE('',(#422,#424),#426,.T.);
#63=COLOUR_RGB('',0.564705882352941,0.564705882352941,0.564705882352941);
#64=FILL_AREA_STYLE_COLOUR('',#63);
#65=FILL_AREA_STYLE($,(#64));
#66=SURFACE_STYLE_FILL_AREA(#65);
#67=SURFACE_SIDE_STYLE('',(#66));
#68=SURFACE_STYLE_USAGE(.BOTH.,#67);
#69=PRESENTATION_STYLE_ASSIGNMENT((#68));
#70=STYLED_ITEM('',(#69),#62);
#71=ADVANCED_FACE('',(#431),#433,.F.);
#72=COLOUR_RGB('',0.564705882352941,0.564705882352941,0.564705882352941);
#73=FILL_AREA_STYLE_COLOUR('',#72);
#74=FILL_AREA_STYLE($,(#73));
#75=SURFACE_STYLE_FILL_AREA(#74);
#76=SURFACE_SIDE_STYLE('',(#75));
#77=SURFACE_STYLE_USAGE(.BOTH.,#76);
#78=PRESENTATION_STYLE_ASSIGNMENT((#77));
#79=STYLED_ITEM('',(#78),#71);
#80=ADVANCED_FACE('',(#438),#440,.F.);
#81=COLOUR_RGB('',0.564705882352941,0.564705882352941,0.564705882352941);
#82=FILL_AREA_STYLE_COLOUR('',#81);
#83=FILL_AREA_STYLE($,(#82));
#84=SURFACE_STYLE_FILL_AREA(#83);
#85=SURFACE_SIDE_STYLE('',(#84));
#86=SURFACE_STYLE_USAGE(.BOTH.,#85);
#87=PRESENTATION_STYLE_ASSIGNMENT((#86));
#88=STYLED_ITEM('',(#87),#80);
#89=ADVANCED_FACE('',(#445),#447,.F.);
#90=COLOUR_RGB('',0.564705882352941,0.564705882352941,0.564705882352941);
#91=FILL_AREA_STYLE_COLOUR('',#90);
#92=FILL_AREA_STYLE($,(#91));
#93=SURFACE_STYLE_FILL_AREA(#92);
#94=SURFACE_SIDE_STYLE('',(#93));
#95=SURFACE_STYLE_USAGE(.BOTH.,#94);
#96=PRESENTATION_STYLE_ASSIGNMENT((#95));
#97=STYLED_ITEM('',(#96),#89);
#98=ADVANCED_FACE('',(#452),#454,.F.);
#99=COLOUR_RGB('',0.564705882352941,0.564705882352941,0.564705882352941);
#100=FILL_AREA_STYLE_COLOUR('',#99);
#101=FILL_AREA_STYLE($,(#100));
#102=SURFACE_STYLE_FILL_AREA(#101);
#103=SURFACE_SIDE_STYLE('',(#102));
#104=SURFACE_STYLE_USAGE(.BOTH.,#103);
#105=PRESENTATION_STYLE_ASSIGNMENT((#104));
#106=STYLED_ITEM('',(#105),#98);
#107=ADVANCED_FACE('',(#459),#461,.F.);
#108=COLOUR_RGB('',0.564705882352941,0.564705882352941,0.564705882352941);
#109=FILL_AREA_STYLE_COLOUR('',#108);
#110=FILL_AREA_STYLE($,(#109));
#111=SURFACE_STYLE_FILL_AREA(#110);
#112=SURFACE_SIDE_STYLE('',(#111));
#113=SURFACE_STYLE_USAGE(.BOTH.,#112);
#114=PRESENTATION_STYLE_ASSIGNMENT((#113));
#115=STYLED_ITEM('',(#114),#107);
#116=ADVANCED_FACE('',(#466),#468,.F.);
#117=COLOUR_RGB('',0.564705882352941,0.564705882352941,0.564705882352941);
#118=FILL_AREA_STYLE_COLOUR('',#117);
#119=FILL_AREA_STYLE($,(#118));
#120=SURFACE_STYLE_FILL_AREA(#119);
#121=SURFACE_SIDE_STYLE('',(#120));
#122=SURFACE_STYLE_USAGE(.BOTH.,#121);
#123=PRESENTATION_STYLE_ASSIGNMENT((#122));
#124=STYLED_ITEM('',(#123),#116);
#125=ADVANCED_FACE('',(#473),#475,.F.);
#126=COLOUR_RGB('',0.564705882352941,0.564705882352941,0.564705882352941);
#127=FILL_AREA_STYLE_COLOUR('',#126);
#128=FILL_AREA_STYLE($,(#127));
#129=SURFACE_STYLE_FILL_AREA(#128);
#130=SURFACE_SIDE_STYLE('',(#129));
#131=SURFACE_STYLE_USAGE(.BOTH.,#130);
#132=PRESENTATION_STYLE_ASSIGNMENT((#131));
#133=STYLED_ITEM('',(#132),#125);
#134=ADVANCED_FACE('',(#480),#482,.F.);
#135=COLOUR_RGB('',0.564705882352941,0.564705882352941,0.564705882352941);
#136=FILL_AREA_STYLE_COLOUR('',#135);
#137=FILL_AREA_STYLE($,(#136));
#138=SURFACE_STYLE_FILL_AREA(#137);
#139=SURFACE_SIDE_STYLE('',(#138));
#140=SURFACE_STYLE_USAGE(.BOTH.,#139);
#141=PRESENTATION_STYLE_ASSIGNMENT((#140));
#142=STYLED_ITEM('',(#141),#134);
#143=ADVANCED_FACE('',(#487),#489,.F.);
#144=COLOUR_RGB('',0.564705882352941,0.564705882352941,0.564705882352941);
#145=FILL_AREA_STYLE_COLOUR('',#144);
#146=FILL_AREA_STYLE($,(#145));
#147=SURFACE_STYLE_FILL_AREA(#146);
#148=SURFACE_SIDE_STYLE('',(#147));
#149=SURFACE_STYLE_USAGE(.BOTH.,#148);
#150=PRESENTATION_STYLE_ASSIGNMENT((#149));
#151=STYLED_ITEM('',(#150),#143);
#152=ADVANCED_FACE('',(#494),#496,.F.);
#153=COLOUR_RGB('',0.564705882352941,0.564705882352941,0.564705882352941);
#154=FILL_AREA_STYLE_COLOUR('',#153);
#155=FILL_AREA_STYLE($,(#154));
#156=SURFACE_STYLE_FILL_AREA(#155);
#157=SURFACE_SIDE_STYLE('',(#156));
#158=SURFACE_STYLE_USAGE(.BOTH.,#157);
#159=PRESENTATION_STYLE_ASSIGNMENT((#158));
#160=STYLED_ITEM('',(#159),#152);
#161=ADVANCED_FACE('',(#501),#503,.F.);
#162=COLOUR_RGB('',0.564705882352941,0.564705882352941,0.564705882352941);
#163=FILL_AREA_STYLE_COLOUR('',#162);
#164=FILL_AREA_STYLE($,(#163));
#165=SURFACE_STYLE_FILL_AREA(#164);
#166=SURFACE_SIDE_STYLE('',(#165));
#167=SURFACE_STYLE_USAGE(.BOTH.,#166);
#168=PRESENTATION_STYLE_ASSIGNMENT((#167));
#169=STYLED_ITEM('',(#168),#161);
#170=ADVANCED_FACE('',(#508),#510,.F.);
#171=COLOUR_RGB('',0.564705882352941,0.564705882352941,0.564705882352941);
#172=FILL_AREA_STYLE_COLOUR('',#171);
#173=FILL_AREA_STYLE($,(#172));
#174=SURFACE_STYLE_FILL_AREA(#173);
#175=SURFACE_SIDE_STYLE('',(#174));
#176=SURFACE_STYLE_USAGE(.BOTH.,#175);
#177=PRESENTATION_STYLE_ASSIGNMENT((#176));
#178=STYLED_ITEM('',(#177),#170);
#179=ADVANCED_FACE('',(#515),#517,.T.);
#180=COLOUR_RGB('',0.564705882352941,0.564705882352941,0.564705882352941);
#181=FILL_AREA_STYLE_COLOUR('',#180);
#182=FILL_AREA_STYLE($,(#181));
#183=SURFACE_STYLE_FILL_AREA(#182);
#184=SURFACE_SIDE_STYLE('',(#183));
#185=SURFACE_STYLE_USAGE(.BOTH.,#184);
#186=PRESENTATION_STYLE_ASSIGNMENT((#185));
#187=STYLED_ITEM('',(#186),#179);
#188=ADVANCED_FACE('',(#522),#524,.T.);
#189=COLOUR_RGB('',0.564705882352941,0.564705882352941,0.564705882352941);
#190=FILL_AREA_STYLE_COLOUR('',#189);
#191=FILL_AREA_STYLE($,(#190));
#192=SURFACE_STYLE_FILL_AREA(#191);
#193=SURFACE_SIDE_STYLE('',(#192));
#194=SURFACE_STYLE_USAGE(.BOTH.,#193);
#195=PRESENTATION_STYLE_ASSIGNMENT((#194));
#196=STYLED_ITEM('',(#195),#188);
#197=ADVANCED_FACE('',(#529),#531,.T.);
#198=COLOUR_RGB('',0.564705882352941,0.564705882352941,0.564705882352941);
#199=FILL_AREA_STYLE_COLOUR('',#198);
#200=FILL_AREA_STYLE($,(#199));
#201=SURFACE_STYLE_FILL_AREA(#200);
#202=SURFACE_SIDE_STYLE('',(#201));
#203=SURFACE_STYLE_USAGE(.BOTH.,#202);
#204=PRESENTATION_STYLE_ASSIGNMENT((#203));
#205=STYLED_ITEM('',(#204),#197);
#206=ADVANCED_FACE('',(#536),#538,.T.);
#207=COLOUR_RGB('',0.564705882352941,0.564705882352941,0.564705882352941);
#208=FILL_AREA_STYLE_COLOUR('',#207);
#209=FILL_AREA_STYLE($,(#208));
#210=SURFACE_STYLE_FILL_AREA(#209);
#211=SURFACE_SIDE_STYLE('',(#210));
#212=SURFACE_STYLE_USAGE(.BOTH.,#211);
#213=PRESENTATION_STYLE_ASSIGNMENT((#212));
#214=STYLED_ITEM('',(#213),#206);
#215=ADVANCED_FACE('',(#543),#545,.T.);
#216=COLOUR_RGB('',0.564705882352941,0.564705882352941,0.564705882352941);
#217=FILL_AREA_STYLE_COLOUR('',#216);
#218=FILL_AREA_STYLE($,(#217));
#219=SURFACE_STYLE_FILL_AREA(#218);
#220=SURFACE_SIDE_STYLE('',(#219));
#221=SURFACE_STYLE_USAGE(.BOTH.,#220);
#222=PRESENTATION_STYLE_ASSIGNMENT((#221));
#223=STYLED_ITEM('',(#222),#215);
#224=ADVANCED_FACE('',(#550),#552,.T.);
#225=COLOUR_RGB('',0.564705882352941,0.564705882352941,0.564705882352941);
#226=FILL_AREA_STYLE_COLOUR('',#225);
#227=FILL_AREA_STYLE($,(#226));
#228=SURFACE_STYLE_FILL_AREA(#227);
#229=SURFACE_SIDE_STYLE('',(#228));
#230=SURFACE_STYLE_USAGE(.BOTH.,#229);
#231=PRESENTATION_STYLE_ASSIGNMENT((#230));
#232=STYLED_ITEM('',(#231),#224);
#233=ADVANCED_FACE('',(#557),#559,.T.);
#234=COLOUR_RGB('',0.564705882352941,0.564705882352941,0.564705882352941);
#235=FILL_AREA_STYLE_COLOUR('',#234);
#236=FILL_AREA_STYLE($,(#235));
#237=SURFACE_STYLE_FILL_AREA(#236);
#238=SURFACE_SIDE_STYLE('',(#237));
#239=SURFACE_STYLE_USAGE(.BOTH.,#238);
#240=PRESENTATION_STYLE_ASSIGNMENT((#239));
#241=STYLED_ITEM('',(#240),#233);
#242=ADVANCED_FACE('',(#564),#566,.T.);
#243=COLOUR_RGB('',0.564705882352941,0.564705882352941,0.564705882352941);
#244=FILL_AREA_STYLE_COLOUR('',#243);
#245=FILL_AREA_STYLE($,(#244));
#246=SURFACE_STYLE_FILL_AREA(#245);
#247=SURFACE_SIDE_STYLE('',(#246));
#248=SURFACE_STYLE_USAGE(.BOTH.,#247);
#249=PRESENTATION_STYLE_ASSIGNMENT((#248));
#250=STYLED_ITEM('',(#249),#242);
#251=ADVANCED_FACE('',(#571),#573,.T.);
#252=COLOUR_RGB('',0.564705882352941,0.564705882352941,0.564705882352941);
#253=FILL_AREA_STYLE_COLOUR('',#252);
#254=FILL_AREA_STYLE($,(#253));
#255=SURFACE_STYLE_FILL_AREA(#254);
#256=SURFACE_SIDE_STYLE('',(#255));
#257=SURFACE_STYLE_USAGE(.BOTH.,#256);
#258=PRESENTATION_STYLE_ASSIGNMENT((#257));
#259=STYLED_ITEM('',(#258),#251);
#260=ADVANCED_FACE('',(#578),#580,.T.);
#261=COLOUR_RGB('',0.564705882352941,0.564705882352941,0.564705882352941);
#262=FILL_AREA_STYLE_COLOUR('',#261);
#263=FILL_AREA_STYLE($,(#262));
#264=SURFACE_STYLE_FILL_AREA(#263);
#265=SURFACE_SIDE_STYLE('',(#264));
#266=SURFACE_STYLE_USAGE(.BOTH.,#265);
#267=PRESENTATION_STYLE_ASSIGNMENT((#266));
#268=STYLED_ITEM('',(#267),#260);
#269=ADVANCED_FACE('',(#585),#587,.T.);
#270=COLOUR_RGB('',0.564705882352941,0.564705882352941,0.564705882352941);
#271=FILL_AREA_STYLE_COLOUR('',#270);
#272=FILL_AREA_STYLE($,(#271));
#273=SURFACE_STYLE_FILL_AREA(#272);
#274=SURFACE_SIDE_STYLE('',(#273));
#275=SURFACE_STYLE_USAGE(.BOTH.,#274);
#276=PRESENTATION_STYLE_ASSIGNMENT((#275));
#277=STYLED_ITEM('',(#276),#269);
#278=ADVANCED_FACE('',(#592),#594,.T.);
#279=COLOUR_RGB('',0.564705882352941,0.564705882352941,0.564705882352941);
#280=FILL_AREA_STYLE_COLOUR('',#279);
#281=FILL_AREA_STYLE($,(#280));
#282=SURFACE_STYLE_FILL_AREA(#281);
#283=SURFACE_SIDE_STYLE('',(#282));
#284=SURFACE_STYLE_USAGE(.BOTH.,#283);
#285=PRESENTATION_STYLE_ASSIGNMENT((#284));
#286=STYLED_ITEM('',(#285),#278);
#287=ADVANCED_FACE('',(#599),#601,.T.);
#288=COLOUR_RGB('',0.564705882352941,0.564705882352941,0.564705882352941);
#289=FILL_AREA_STYLE_COLOUR('',#288);
#290=FILL_AREA_STYLE($,(#289));
#291=SURFACE_STYLE_FILL_AREA(#290);
#292=SURFACE_SIDE_STYLE('',(#291));
#293=SURFACE_STYLE_USAGE(.BOTH.,#292);
#294=PRESENTATION_STYLE_ASSIGNMENT((#293));
#295=STYLED_ITEM('',(#294),#287);
#296=ADVANCED_FACE('',(#606),#608,.T.);
#297=COLOUR_RGB('',0.564705882352941,0.564705882352941,0.564705882352941);
#298=FILL_AREA_STYLE_COLOUR('',#297);
#299=FILL_AREA_STYLE($,(#298));
#300=SURFACE_STYLE_FILL_AREA(#299);
#301=SURFACE_SIDE_STYLE('',(#300));
#302=SURFACE_STYLE_USAGE(.BOTH.,#301);
#303=PRESENTATION_STYLE_ASSIGNMENT((#302));
#304=STYLED_ITEM('',(#303),#296);
#305=ADVANCED_FACE('',(#613),#615,.T.);
#306=COLOUR_RGB('',0.564705882352941,0.564705882352941,0.564705882352941);
#307=FILL_AREA_STYLE_COLOUR('',#306);
#308=FILL_AREA_STYLE($,(#307));
#309=SURFACE_STYLE_FILL_AREA(#308);
#310=SURFACE_SIDE_STYLE('',(#309));
#311=SURFACE_STYLE_USAGE(.BOTH.,#310);
#312=PRESENTATION_STYLE_ASSIGNMENT((#311));
#313=STYLED_ITEM('',(#312),#305);
#314=ADVANCED_FACE('',(#620),#622,.T.);
#315=COLOUR_RGB('',0.564705882352941,0.564705882352941,0.564705882352941);
#316=FILL_AREA_STYLE_COLOUR('',#315);
#317=FILL_AREA_STYLE($,(#316));
#318=SURFACE_STYLE_FILL_AREA(#317);
#319=SURFACE_SIDE_STYLE('',(#318));
#320=SURFACE_STYLE_USAGE(.BOTH.,#319);
#321=PRESENTATION_STYLE_ASSIGNMENT((#320));
#322=STYLED_ITEM('',(#321),#314);
#323=ADVANCED_FACE('',(#627,#629),#631,.F.);
#324=COLOUR_RGB('',0.564705882352941,0.564705882352941,0.564705882352941);
#325=FILL_AREA_STYLE_COLOUR('',#324);
#326=FILL_AREA_STYLE($,(#325));
#327=SURFACE_STYLE_FILL_AREA(#326);
#328=SURFACE_SIDE_STYLE('',(#327));
#329=SURFACE_STYLE_USAGE(.BOTH.,#328);
#330=PRESENTATION_STYLE_ASSIGNMENT((#329));
#331=STYLED_ITEM('',(#330),#323);
#332=ADVANCED_FACE('',(#636,#638),#640,.F.);
#333=COLOUR_RGB('',0.564705882352941,0.564705882352941,0.564705882352941);
#334=FILL_AREA_STYLE_COLOUR('',#333);
#335=FILL_AREA_STYLE($,(#334));
#336=SURFACE_STYLE_FILL_AREA(#335);
#337=SURFACE_SIDE_STYLE('',(#336));
#338=SURFACE_STYLE_USAGE(.BOTH.,#337);
#339=PRESENTATION_STYLE_ASSIGNMENT((#338));
#340=STYLED_ITEM('',(#339),#332);
#341=ADVANCED_FACE('',(#645),#647,.T.);
#342=COLOUR_RGB('',0.564705882352941,0.564705882352941,0.564705882352941);
#343=FILL_AREA_STYLE_COLOUR('',#342);
#344=FILL_AREA_STYLE($,(#343));
#345=SURFACE_STYLE_FILL_AREA(#344);
#346=SURFACE_SIDE_STYLE('',(#345));
#347=SURFACE_STYLE_USAGE(.BOTH.,#346);
#348=PRESENTATION_STYLE_ASSIGNMENT((#347));
#349=STYLED_ITEM('',(#348),#341);
#350=ADVANCED_FACE('',(#652),#654,.T.);
#351=COLOUR_RGB('',0.564705882352941,0.564705882352941,0.564705882352941);
#352=FILL_AREA_STYLE_COLOUR('',#351);
#353=FILL_AREA_STYLE($,(#352));
#354=SURFACE_STYLE_FILL_AREA(#353);
#355=SURFACE_SIDE_STYLE('',(#354));
#356=SURFACE_STYLE_USAGE(.BOTH.,#355);
#357=PRESENTATION_STYLE_ASSIGNMENT((#356));
#358=STYLED_ITEM('',(#357),#350);
#359=ADVANCED_FACE('',(#659),#661,.T.);
#360=COLOUR_RGB('',0.564705882352941,0.564705882352941,0.564705882352941);
#361=FILL_AREA_STYLE_COLOUR('',#360);
#362=FILL_AREA_STYLE($,(#361));
#363=SURFACE_STYLE_FILL_AREA(#362);
#364=SURFACE_SIDE_STYLE('',(#363));
#365=SURFACE_STYLE_USAGE(.BOTH.,#364);
#366=PRESENTATION_STYLE_ASSIGNMENT((#365));
#367=STYLED_ITEM('',(#366),#359);
#368=ADVANCED_FACE('',(#666),#668,.T.);
#369=COLOUR_RGB('',0.564705882352941,0.564705882352941,0.564705882352941);
#370=FILL_AREA_STYLE_COLOUR('',#369);
#371=FILL_AREA_STYLE($,(#370));
#372=SURFACE_STYLE_FILL_AREA(#371);
#373=SURFACE_SIDE_STYLE('',(#372));
#374=SURFACE_STYLE_USAGE(.BOTH.,#373);
#375=PRESENTATION_STYLE_ASSIGNMENT((#374));
#376=STYLED_ITEM('',(#375),#368);
#377=ADVANCED_FACE('',(#673),#675,.T.);
#378=COLOUR_RGB('',0.564705882352941,0.564705882352941,0.564705882352941);
#379=FILL_AREA_STYLE_COLOUR('',#378);
#380=FILL_AREA_STYLE($,(#379));
#381=SURFACE_STYLE_FILL_AREA(#380);
#382=SURFACE_SIDE_STYLE('',(#381));
#383=SURFACE_STYLE_USAGE(.BOTH.,#382);
#384=PRESENTATION_STYLE_ASSIGNMENT((#383));
#385=STYLED_ITEM('',(#384),#377);
#386=ADVANCED_FACE('',(#680),#682,.T.);
#387=COLOUR_RGB('',0.564705882352941,0.564705882352941,0.564705882352941);
#388=FILL_AREA_STYLE_COLOUR('',#387);
#389=FILL_AREA_STYLE($,(#388));
#390=SURFACE_STYLE_FILL_AREA(#389);
#391=SURFACE_SIDE_STYLE('',(#390));
#392=SURFACE_STYLE_USAGE(.BOTH.,#391);
#393=PRESENTATION_STYLE_ASSIGNMENT((#392));
#394=STYLED_ITEM('',(#393),#386);
#395=ADVANCED_FACE('',(#687),#689,.T.);
#396=COLOUR_RGB('',0.564705882352941,0.564705882352941,0.564705882352941);
#397=FILL_AREA_STYLE_COLOUR('',#396);
#398=FILL_AREA_STYLE($,(#397));
#399=SURFACE_STYLE_FILL_AREA(#398);
#400=SURFACE_SIDE_STYLE('',(#399));
#401=SURFACE_STYLE_USAGE(.BOTH.,#400);
#402=PRESENTATION_STYLE_ASSIGNMENT((#401));
#403=STYLED_ITEM('',(#402),#395);
#404=ADVANCED_FACE('',(#694),#696,.T.);
#405=COLOUR_RGB('',0.564705882352941,0.564705882352941,0.564705882352941);
#406=FILL_AREA_STYLE_COLOUR('',#405);
#407=FILL_AREA_STYLE($,(#406));
#408=SURFACE_STYLE_FILL_AREA(#407);
#409=SURFACE_SIDE_STYLE('',(#408));
#410=SURFACE_STYLE_USAGE(.BOTH.,#409);
#411=PRESENTATION_STYLE_ASSIGNMENT((#410));
#412=STYLED_ITEM('',(#411),#404);
#413=FACE_BOUND('',#414,.T.);
#414=EDGE_LOOP('',(#701,#702,#703,#704,#705,#706,#707,#708));
#415=FACE_BOUND('',#416,.T.);
#416=EDGE_LOOP('',(#709,#710,#711,#712,#713,#714,#715,#716,#717,#718,#719,#720));
#417=PLANE('',#418);
#418=AXIS2_PLACEMENT_3D('',#419,#420,#421);
#419=CARTESIAN_POINT('',(0.,0.,4.2));
#420=DIRECTION('',(0.,0.,1.));
#421=DIRECTION('',(-1.,1.22464679914735E-16,0.));
#422=FACE_BOUND('',#423,.T.);
#423=EDGE_LOOP('',(#721,#722,#723,#724,#725,#726,#727,#728));
#424=FACE_BOUND('',#425,.T.);
#425=EDGE_LOOP('',(#729,#730,#731,#732,#733,#734,#735,#736,#737,#738,#739,#740));
#426=PLANE('',#427);
#427=AXIS2_PLACEMENT_3D('',#428,#429,#430);
#428=CARTESIAN_POINT('',(0.,0.,-1.));
#429=DIRECTION('',(0.,0.,-1.));
#430=DIRECTION('',(-1.,0.,0.));
#431=FACE_BOUND('',#432,.T.);
#432=EDGE_LOOP('',(#741,#742,#743,#744));
#433=PLANE('',#434);
#434=AXIS2_PLACEMENT_3D('',#435,#436,#437);
#435=CARTESIAN_POINT('',(-6.5,-0.499999999999998,4.2));
#436=DIRECTION('',(1.,0.,0.));
#437=DIRECTION('',(0.,-1.,0.));
#438=FACE_BOUND('',#439,.T.);
#439=EDGE_LOOP('',(#745,#746,#747,#748));
#440=PLANE('',#441);
#441=AXIS2_PLACEMENT_3D('',#442,#443,#444);
#442=CARTESIAN_POINT('',(-8.5,-0.499999999999998,4.2));
#443=DIRECTION('',(-5.55111512312578E-17,1.,0.));
#444=DIRECTION('',(1.,5.55111512312578E-17,0.));
#445=FACE_BOUND('',#446,.T.);
#446=EDGE_LOOP('',(#749,#750,#751,#752));
#447=PLANE('',#448);
#448=AXIS2_PLACEMENT_3D('',#449,#450,#451);
#449=CARTESIAN_POINT('',(-8.5,-4.,4.2));
#450=DIRECTION('',(-1.,0.,0.));
#451=DIRECTION('',(0.,1.,0.));
#452=FACE_BOUND('',#453,.T.);
#453=EDGE_LOOP('',(#753,#754,#755,#756));
#454=PLANE('',#455);
#455=AXIS2_PLACEMENT_3D('',#456,#457,#458);
#456=CARTESIAN_POINT('',(-14.,-4.,4.2));
#457=DIRECTION('',(-8.07434927000113E-17,1.,0.));
#458=DIRECTION('',(1.,8.07434927000113E-17,0.));
#459=FACE_BOUND('',#460,.T.);
#460=EDGE_LOOP('',(#757,#758,#759,#760));
#461=PLANE('',#462);
#462=AXIS2_PLACEMENT_3D('',#463,#464,#465);
#463=CARTESIAN_POINT('',(-14.,-6.,4.2));
#464=DIRECTION('',(-1.,0.,0.));
#465=DIRECTION('',(0.,1.,0.));
#466=FACE_BOUND('',#467,.T.);
#467=EDGE_LOOP('',(#761,#762,#763,#764));
#468=PLANE('',#469);
#469=AXIS2_PLACEMENT_3D('',#470,#471,#472);
#470=CARTESIAN_POINT('',(-8.5,-6.,4.2));
#471=DIRECTION('',(0.,-1.,0.));
#472=DIRECTION('',(-1.,0.,0.));
#473=FACE_BOUND('',#474,.T.);
#474=EDGE_LOOP('',(#765,#766,#767,#768));
#475=PLANE('',#476);
#476=AXIS2_PLACEMENT_3D('',#477,#478,#479);
#477=CARTESIAN_POINT('',(-8.5,-9.5,4.2));
#478=DIRECTION('',(-1.,0.,0.));
#479=DIRECTION('',(0.,1.,0.));
#480=FACE_BOUND('',#481,.T.);
#481=EDGE_LOOP('',(#769,#770,#771,#772));
#482=PLANE('',#483);
#483=AXIS2_PLACEMENT_3D('',#484,#485,#486);
#484=CARTESIAN_POINT('',(-6.5,-9.5,4.2));
#485=DIRECTION('',(-8.88178419700125E-16,-1.,0.));
#486=DIRECTION('',(-1.,8.88178419700125E-16,0.));
#487=FACE_BOUND('',#488,.T.);
#488=EDGE_LOOP('',(#773,#774,#775,#776));
#489=PLANE('',#490);
#490=AXIS2_PLACEMENT_3D('',#491,#492,#493);
#491=CARTESIAN_POINT('',(-6.5,-6.,4.2));
#492=DIRECTION('',(1.,2.53765262771464E-16,0.));
#493=DIRECTION('',(2.53765262771464E-16,-1.,0.));
#494=FACE_BOUND('',#495,.T.);
#495=EDGE_LOOP('',(#777,#778,#779,#780));
#496=PLANE('',#497);
#497=AXIS2_PLACEMENT_3D('',#498,#499,#500);
#498=CARTESIAN_POINT('',(-1.,-6.,4.2));
#499=DIRECTION('',(0.,-1.,0.));
#500=DIRECTION('',(-1.,0.,0.));
#501=FACE_BOUND('',#502,.T.);
#502=EDGE_LOOP('',(#781,#782,#783,#784));
#503=PLANE('',#504);
#504=AXIS2_PLACEMENT_3D('',#505,#506,#507);
#505=CARTESIAN_POINT('',(-1.,-4.,4.2));
#506=DIRECTION('',(1.,1.11022302462516E-16,0.));
#507=DIRECTION('',(1.11022302462516E-16,-1.,0.));
#508=FACE_BOUND('',#509,.T.);
#509=EDGE_LOOP('',(#785,#786,#787,#788));
#510=PLANE('',#511);
#511=AXIS2_PLACEMENT_3D('',#512,#513,#514);
#512=CARTESIAN_POINT('',(-6.5,-4.,4.2));
#513=DIRECTION('',(-8.07434927000114E-17,1.,0.));
#514=DIRECTION('',(1.,8.07434927000114E-17,0.));
#515=FACE_BOUND('',#516,.T.);
#516=EDGE_LOOP('',(#789,#790,#791,#792));
#517=CYLINDRICAL_SURFACE('',#518,4.);
#518=AXIS2_PLACEMENT_3D('',#519,#520,#521);
#519=CARTESIAN_POINT('',(-13.,-7.99999999999999,-3.8));
#520=DIRECTION('',(0.,0.,-1.));
#521=DIRECTION('',(0.,-1.,0.));
#522=FACE_BOUND('',#523,.T.);
#523=EDGE_LOOP('',(#793,#794,#795,#796));
#524=PLANE('',#525);
#525=AXIS2_PLACEMENT_3D('',#526,#527,#528);
#526=CARTESIAN_POINT('',(-17.,-12.,3.2));
#527=DIRECTION('',(-1.86984930463184E-16,-1.,0.));
#528=DIRECTION('',(1.,-1.86984930463184E-16,0.));
#529=FACE_BOUND('',#530,.T.);
#530=EDGE_LOOP('',(#797,#798,#799,#800));
#531=CYLINDRICAL_SURFACE('',#532,4.);
#532=AXIS2_PLACEMENT_3D('',#533,#534,#535);
#533=CARTESIAN_POINT('',(-2.,-8.,-3.8));
#534=DIRECTION('',(0.,0.,-1.));
#535=DIRECTION('',(1.,0.,0.));
#536=FACE_BOUND('',#537,.T.);
#537=EDGE_LOOP('',(#801,#802,#803,#804));
#538=PLANE('',#539);
#539=AXIS2_PLACEMENT_3D('',#540,#541,#542);
#540=CARTESIAN_POINT('',(2.00000000000001,-12.,3.2));
#541=DIRECTION('',(1.,-1.26882631385732E-16,0.));
#542=DIRECTION('',(1.26882631385732E-16,1.,0.));
#543=FACE_BOUND('',#544,.T.);
#544=EDGE_LOOP('',(#805,#806,#807,#808));
#545=CYLINDRICAL_SURFACE('',#546,4.);
#546=AXIS2_PLACEMENT_3D('',#547,#548,#549);
#547=CARTESIAN_POINT('',(-1.99999999999999,-2.,-3.8));
#548=DIRECTION('',(0.,0.,-1.));
#549=DIRECTION('',(1.66533453693773E-16,1.,0.));
#550=FACE_BOUND('',#551,.T.);
#551=EDGE_LOOP('',(#809,#810,#811,#812));
#552=PLANE('',#553);
#553=AXIS2_PLACEMENT_3D('',#554,#555,#556);
#554=CARTESIAN_POINT('',(2.00000000000001,2.,3.2));
#555=DIRECTION('',(1.40238697847388E-16,1.,0.));
#556=DIRECTION('',(-1.,1.40238697847388E-16,0.));
#557=FACE_BOUND('',#558,.T.);
#558=EDGE_LOOP('',(#813,#814,#815,#816));
#559=CYLINDRICAL_SURFACE('',#560,4.);
#560=AXIS2_PLACEMENT_3D('',#561,#562,#563);
#561=CARTESIAN_POINT('',(-13.,-1.99999999999999,-3.8));
#562=DIRECTION('',(0.,0.,-1.));
#563=DIRECTION('',(-1.,5.55111512312579E-17,0.));
#564=FACE_BOUND('',#565,.T.);
#565=EDGE_LOOP('',(#817,#818,#819,#820));
#566=PLANE('',#567);
#567=AXIS2_PLACEMENT_3D('',#568,#569,#570);
#568=CARTESIAN_POINT('',(-17.,2.00000000000001,3.2));
#569=DIRECTION('',(-1.,0.,0.));
#570=DIRECTION('',(0.,-1.,0.));
#571=FACE_BOUND('',#572,.T.);
#572=EDGE_LOOP('',(#821,#822,#823,#824));
#573=CYLINDRICAL_SURFACE('',#574,4.);
#574=AXIS2_PLACEMENT_3D('',#575,#576,#577);
#575=CARTESIAN_POINT('',(-13.,-2.,7.));
#576=DIRECTION('',(0.,0.,1.));
#577=DIRECTION('',(0.,1.,0.));
#578=FACE_BOUND('',#579,.T.);
#579=EDGE_LOOP('',(#825,#826,#827,#828));
#580=PLANE('',#581);
#581=AXIS2_PLACEMENT_3D('',#582,#583,#584);
#582=CARTESIAN_POINT('',(-17.,2.,0.));
#583=DIRECTION('',(0.,1.,0.));
#584=DIRECTION('',(1.,0.,0.));
#585=FACE_BOUND('',#586,.T.);
#586=EDGE_LOOP('',(#829,#830,#831,#832));
#587=CYLINDRICAL_SURFACE('',#588,4.);
#588=AXIS2_PLACEMENT_3D('',#589,#590,#591);
#589=CARTESIAN_POINT('',(-2.,-2.,7.));
#590=DIRECTION('',(0.,0.,1.));
#591=DIRECTION('',(1.,0.,0.));
#592=FACE_BOUND('',#593,.T.);
#593=EDGE_LOOP('',(#833,#834,#835,#836));
#594=PLANE('',#595);
#595=AXIS2_PLACEMENT_3D('',#596,#597,#598);
#596=CARTESIAN_POINT('',(2.,2.,0.));
#597=DIRECTION('',(1.,4.75809867696496E-17,0.));
#598=DIRECTION('',(4.75809867696496E-17,-1.,0.));
#599=FACE_BOUND('',#600,.T.);
#600=EDGE_LOOP('',(#837,#838,#839,#840));
#601=CYLINDRICAL_SURFACE('',#602,4.);
#602=AXIS2_PLACEMENT_3D('',#603,#604,#605);
#603=CARTESIAN_POINT('',(-2.,-8.,7.));
#604=DIRECTION('',(0.,0.,1.));
#605=DIRECTION('',(0.,-1.,0.));
#606=FACE_BOUND('',#607,.T.);
#607=EDGE_LOOP('',(#841,#842,#843,#844));
#608=PLANE('',#609);
#609=AXIS2_PLACEMENT_3D('',#610,#611,#612);
#610=CARTESIAN_POINT('',(2.,-12.,0.));
#611=DIRECTION('',(0.,-1.,0.));
#612=DIRECTION('',(-1.,0.,0.));
#613=FACE_BOUND('',#614,.T.);
#614=EDGE_LOOP('',(#845,#846,#847,#848));
#615=CYLINDRICAL_SURFACE('',#616,4.);
#616=AXIS2_PLACEMENT_3D('',#617,#618,#619);
#617=CARTESIAN_POINT('',(-13.,-8.,7.));
#618=DIRECTION('',(0.,0.,1.));
#619=DIRECTION('',(-1.,0.,0.));
#620=FACE_BOUND('',#621,.T.);
#621=EDGE_LOOP('',(#849,#850,#851,#852));
#622=PLANE('',#623);
#623=AXIS2_PLACEMENT_3D('',#624,#625,#626);
#624=CARTESIAN_POINT('',(-17.,-12.,0.));
#625=DIRECTION('',(-1.,0.,0.));
#626=DIRECTION('',(0.,1.,0.));
#627=FACE_BOUND('',#628,.T.);
#628=EDGE_LOOP('',(#853,#854,#855,#856,#857,#858,#859,#860));
#629=FACE_BOUND('',#630,.T.);
#630=EDGE_LOOP('',(#861,#862,#863,#864,#865,#866,#867,#868));
#631=PLANE('',#632);
#632=AXIS2_PLACEMENT_3D('',#633,#634,#635);
#633=CARTESIAN_POINT('',(0.,0.,3.2));
#634=DIRECTION('',(0.,0.,1.));
#635=DIRECTION('',(-1.,1.22464679914735E-16,0.));
#636=FACE_BOUND('',#637,.T.);
#637=EDGE_LOOP('',(#869,#870,#871,#872,#873,#874,#875,#876));
#638=FACE_BOUND('',#639,.T.);
#639=EDGE_LOOP('',(#877,#878,#879,#880,#881,#882,#883,#884));
#640=PLANE('',#641);
#641=AXIS2_PLACEMENT_3D('',#642,#643,#644);
#642=CARTESIAN_POINT('',(0.,0.,0.));
#643=DIRECTION('',(0.,0.,-1.));
#644=DIRECTION('',(-1.,0.,0.));
#645=FACE_BOUND('',#646,.T.);
#646=EDGE_LOOP('',(#885,#886,#887,#888));
#647=CYLINDRICAL_SURFACE('',#648,4.);
#648=AXIS2_PLACEMENT_3D('',#649,#650,#651);
#649=CARTESIAN_POINT('',(-4.,-4.,-16.));
#650=DIRECTION('',(0.,0.,-1.));
#651=DIRECTION('',(2.22044604925031E-16,1.,0.));
#652=FACE_BOUND('',#653,.T.);
#653=EDGE_LOOP('',(#889,#890,#891,#892));
#654=PLANE('',#655);
#655=AXIS2_PLACEMENT_3D('',#656,#657,#658);
#656=CARTESIAN_POINT('',(0.,0.,0.));
#657=DIRECTION('',(1.22464679914735E-16,1.,0.));
#658=DIRECTION('',(-1.,1.22464679914735E-16,0.));
#659=FACE_BOUND('',#660,.T.);
#660=EDGE_LOOP('',(#893,#894,#895,#896));
#661=CYLINDRICAL_SURFACE('',#662,4.);
#662=AXIS2_PLACEMENT_3D('',#663,#664,#665);
#663=CARTESIAN_POINT('',(-11.,-4.,-16.));
#664=DIRECTION('',(0.,0.,-1.));
#665=DIRECTION('',(-1.,2.22044604925031E-16,0.));
#666=FACE_BOUND('',#667,.T.);
#667=EDGE_LOOP('',(#897,#898,#899,#900));
#668=PLANE('',#669);
#669=AXIS2_PLACEMENT_3D('',#670,#671,#672);
#670=CARTESIAN_POINT('',(-15.,1.83697019872103E-15,0.));
#671=DIRECTION('',(-1.,1.77635683940025E-16,0.));
#672=DIRECTION('',(-1.77635683940025E-16,-1.,0.));
#673=FACE_BOUND('',#674,.T.);
#674=EDGE_LOOP('',(#901,#902,#903,#904));
#675=CYLINDRICAL_SURFACE('',#676,4.);
#676=AXIS2_PLACEMENT_3D('',#677,#678,#679);
#677=CARTESIAN_POINT('',(-11.,-6.,-16.));
#678=DIRECTION('',(0.,0.,-1.));
#679=DIRECTION('',(0.,-1.,0.));
#680=FACE_BOUND('',#681,.T.);
#681=EDGE_LOOP('',(#905,#906,#907,#908));
#682=PLANE('',#683);
#683=AXIS2_PLACEMENT_3D('',#684,#685,#686);
#684=CARTESIAN_POINT('',(-15.,-10.,0.));
#685=DIRECTION('',(-2.368475785867E-16,-1.,0.));
#686=DIRECTION('',(1.,-2.368475785867E-16,0.));
#687=FACE_BOUND('',#688,.T.);
#688=EDGE_LOOP('',(#909,#910,#911,#912));
#689=CYLINDRICAL_SURFACE('',#690,4.);
#690=AXIS2_PLACEMENT_3D('',#691,#692,#693);
#691=CARTESIAN_POINT('',(-4.,-6.,-16.));
#692=DIRECTION('',(0.,0.,-1.));
#693=DIRECTION('',(1.,0.,0.));
#694=FACE_BOUND('',#695,.T.);
#695=EDGE_LOOP('',(#913,#914,#915,#916));
#696=PLANE('',#697);
#697=AXIS2_PLACEMENT_3D('',#698,#699,#700);
#698=CARTESIAN_POINT('',(-1.22464679914735E-15,-10.,0.));
#699=DIRECTION('',(1.,-1.22464679914735E-16,0.));
#700=DIRECTION('',(1.22464679914735E-16,1.,0.));
#701=ORIENTED_EDGE('',*,*,#917,.F.);
#702=ORIENTED_EDGE('',*,*,#918,.T.);
#703=ORIENTED_EDGE('',*,*,#919,.F.);
#704=ORIENTED_EDGE('',*,*,#920,.T.);
#705=ORIENTED_EDGE('',*,*,#921,.F.);
#706=ORIENTED_EDGE('',*,*,#922,.T.);
#707=ORIENTED_EDGE('',*,*,#923,.F.);
#708=ORIENTED_EDGE('',*,*,#924,.T.);
#709=ORIENTED_EDGE('',*,*,#925,.T.);
#710=ORIENTED_EDGE('',*,*,#926,.T.);
#711=ORIENTED_EDGE('',*,*,#927,.T.);
#712=ORIENTED_EDGE('',*,*,#928,.T.);
#713=ORIENTED_EDGE('',*,*,#929,.T.);
#714=ORIENTED_EDGE('',*,*,#930,.T.);
#715=ORIENTED_EDGE('',*,*,#931,.T.);
#716=ORIENTED_EDGE('',*,*,#932,.T.);
#717=ORIENTED_EDGE('',*,*,#933,.T.);
#718=ORIENTED_EDGE('',*,*,#934,.T.);
#719=ORIENTED_EDGE('',*,*,#935,.T.);
#720=ORIENTED_EDGE('',*,*,#936,.T.);
#721=ORIENTED_EDGE('',*,*,#937,.F.);
#722=ORIENTED_EDGE('',*,*,#938,.T.);
#723=ORIENTED_EDGE('',*,*,#939,.F.);
#724=ORIENTED_EDGE('',*,*,#940,.T.);
#725=ORIENTED_EDGE('',*,*,#941,.F.);
#726=ORIENTED_EDGE('',*,*,#942,.T.);
#727=ORIENTED_EDGE('',*,*,#943,.F.);
#728=ORIENTED_EDGE('',*,*,#944,.T.);
#729=ORIENTED_EDGE('',*,*,#945,.T.);
#730=ORIENTED_EDGE('',*,*,#946,.T.);
#731=ORIENTED_EDGE('',*,*,#947,.T.);
#732=ORIENTED_EDGE('',*,*,#948,.T.);
#733=ORIENTED_EDGE('',*,*,#949,.T.);
#734=ORIENTED_EDGE('',*,*,#950,.T.);
#735=ORIENTED_EDGE('',*,*,#951,.T.);
#736=ORIENTED_EDGE('',*,*,#952,.T.);
#737=ORIENTED_EDGE('',*,*,#953,.T.);
#738=ORIENTED_EDGE('',*,*,#954,.T.);
#739=ORIENTED_EDGE('',*,*,#955,.T.);
#740=ORIENTED_EDGE('',*,*,#956,.T.);
#741=ORIENTED_EDGE('',*,*,#946,.F.);
#742=ORIENTED_EDGE('',*,*,#957,.F.);
#743=ORIENTED_EDGE('',*,*,#936,.F.);
#744=ORIENTED_EDGE('',*,*,#958,.T.);
#745=ORIENTED_EDGE('',*,*,#947,.F.);
#746=ORIENTED_EDGE('',*,*,#958,.F.);
#747=ORIENTED_EDGE('',*,*,#935,.F.);
#748=ORIENTED_EDGE('',*,*,#959,.T.);
#749=ORIENTED_EDGE('',*,*,#948,.F.);
#750=ORIENTED_EDGE('',*,*,#959,.F.);
#751=ORIENTED_EDGE('',*,*,#934,.F.);
#752=ORIENTED_EDGE('',*,*,#960,.T.);
#753=ORIENTED_EDGE('',*,*,#949,.F.);
#754=ORIENTED_EDGE('',*,*,#960,.F.);
#755=ORIENTED_EDGE('',*,*,#933,.F.);
#756=ORIENTED_EDGE('',*,*,#961,.T.);
#757=ORIENTED_EDGE('',*,*,#950,.F.);
#758=ORIENTED_EDGE('',*,*,#961,.F.);
#759=ORIENTED_EDGE('',*,*,#932,.F.);
#760=ORIENTED_EDGE('',*,*,#962,.T.);
#761=ORIENTED_EDGE('',*,*,#951,.F.);
#762=ORIENTED_EDGE('',*,*,#962,.F.);
#763=ORIENTED_EDGE('',*,*,#931,.F.);
#764=ORIENTED_EDGE('',*,*,#963,.T.);
#765=ORIENTED_EDGE('',*,*,#952,.F.);
#766=ORIENTED_EDGE('',*,*,#963,.F.);
#767=ORIENTED_EDGE('',*,*,#930,.F.);
#768=ORIENTED_EDGE('',*,*,#964,.T.);
#769=ORIENTED_EDGE('',*,*,#953,.F.);
#770=ORIENTED_EDGE('',*,*,#964,.F.);
#771=ORIENTED_EDGE('',*,*,#929,.F.);
#772=ORIENTED_EDGE('',*,*,#965,.T.);
#773=ORIENTED_EDGE('',*,*,#954,.F.);
#774=ORIENTED_EDGE('',*,*,#965,.F.);
#775=ORIENTED_EDGE('',*,*,#928,.F.);
#776=ORIENTED_EDGE('',*,*,#966,.T.);
#777=ORIENTED_EDGE('',*,*,#955,.F.);
#778=ORIENTED_EDGE('',*,*,#966,.F.);
#779=ORIENTED_EDGE('',*,*,#927,.F.);
#780=ORIENTED_EDGE('',*,*,#967,.T.);
#781=ORIENTED_EDGE('',*,*,#956,.F.);
#782=ORIENTED_EDGE('',*,*,#967,.F.);
#783=ORIENTED_EDGE('',*,*,#926,.F.);
#784=ORIENTED_EDGE('',*,*,#968,.T.);
#785=ORIENTED_EDGE('',*,*,#945,.F.);
#786=ORIENTED_EDGE('',*,*,#968,.F.);
#787=ORIENTED_EDGE('',*,*,#925,.F.);
#788=ORIENTED_EDGE('',*,*,#957,.T.);
#789=ORIENTED_EDGE('',*,*,#969,.F.);
#790=ORIENTED_EDGE('',*,*,#970,.T.);
#791=ORIENTED_EDGE('',*,*,#971,.T.);
#792=ORIENTED_EDGE('',*,*,#917,.T.);
#793=ORIENTED_EDGE('',*,*,#971,.F.);
#794=ORIENTED_EDGE('',*,*,#972,.T.);
#795=ORIENTED_EDGE('',*,*,#973,.T.);
#796=ORIENTED_EDGE('',*,*,#918,.F.);
#797=ORIENTED_EDGE('',*,*,#973,.F.);
#798=ORIENTED_EDGE('',*,*,#974,.T.);
#799=ORIENTED_EDGE('',*,*,#975,.T.);
#800=ORIENTED_EDGE('',*,*,#919,.T.);
#801=ORIENTED_EDGE('',*,*,#975,.F.);
#802=ORIENTED_EDGE('',*,*,#976,.T.);
#803=ORIENTED_EDGE('',*,*,#977,.T.);
#804=ORIENTED_EDGE('',*,*,#920,.F.);
#805=ORIENTED_EDGE('',*,*,#977,.F.);
#806=ORIENTED_EDGE('',*,*,#978,.T.);
#807=ORIENTED_EDGE('',*,*,#979,.T.);
#808=ORIENTED_EDGE('',*,*,#921,.T.);
#809=ORIENTED_EDGE('',*,*,#979,.F.);
#810=ORIENTED_EDGE('',*,*,#980,.T.);
#811=ORIENTED_EDGE('',*,*,#981,.T.);
#812=ORIENTED_EDGE('',*,*,#922,.F.);
#813=ORIENTED_EDGE('',*,*,#981,.F.);
#814=ORIENTED_EDGE('',*,*,#982,.T.);
#815=ORIENTED_EDGE('',*,*,#983,.T.);
#816=ORIENTED_EDGE('',*,*,#923,.T.);
#817=ORIENTED_EDGE('',*,*,#969,.T.);
#818=ORIENTED_EDGE('',*,*,#924,.F.);
#819=ORIENTED_EDGE('',*,*,#983,.F.);
#820=ORIENTED_EDGE('',*,*,#984,.T.);
#821=ORIENTED_EDGE('',*,*,#985,.F.);
#822=ORIENTED_EDGE('',*,*,#986,.T.);
#823=ORIENTED_EDGE('',*,*,#987,.T.);
#824=ORIENTED_EDGE('',*,*,#937,.T.);
#825=ORIENTED_EDGE('',*,*,#987,.F.);
#826=ORIENTED_EDGE('',*,*,#988,.T.);
#827=ORIENTED_EDGE('',*,*,#989,.T.);
#828=ORIENTED_EDGE('',*,*,#938,.F.);
#829=ORIENTED_EDGE('',*,*,#989,.F.);
#830=ORIENTED_EDGE('',*,*,#990,.T.);
#831=ORIENTED_EDGE('',*,*,#991,.T.);
#832=ORIENTED_EDGE('',*,*,#939,.T.);
#833=ORIENTED_EDGE('',*,*,#991,.F.);
#834=ORIENTED_EDGE('',*,*,#992,.T.);
#835=ORIENTED_EDGE('',*,*,#993,.T.);
#836=ORIENTED_EDGE('',*,*,#940,.F.);
#837=ORIENTED_EDGE('',*,*,#993,.F.);
#838=ORIENTED_EDGE('',*,*,#994,.T.);
#839=ORIENTED_EDGE('',*,*,#995,.T.);
#840=ORIENTED_EDGE('',*,*,#941,.T.);
#841=ORIENTED_EDGE('',*,*,#995,.F.);
#842=ORIENTED_EDGE('',*,*,#996,.T.);
#843=ORIENTED_EDGE('',*,*,#997,.T.);
#844=ORIENTED_EDGE('',*,*,#942,.F.);
#845=ORIENTED_EDGE('',*,*,#997,.F.);
#846=ORIENTED_EDGE('',*,*,#998,.T.);
#847=ORIENTED_EDGE('',*,*,#999,.T.);
#848=ORIENTED_EDGE('',*,*,#943,.T.);
#849=ORIENTED_EDGE('',*,*,#985,.T.);
#850=ORIENTED_EDGE('',*,*,#944,.F.);
#851=ORIENTED_EDGE('',*,*,#999,.F.);
#852=ORIENTED_EDGE('',*,*,#1000,.T.);
#853=ORIENTED_EDGE('',*,*,#970,.F.);
#854=ORIENTED_EDGE('',*,*,#984,.F.);
#855=ORIENTED_EDGE('',*,*,#982,.F.);
#856=ORIENTED_EDGE('',*,*,#980,.F.);
#857=ORIENTED_EDGE('',*,*,#978,.F.);
#858=ORIENTED_EDGE('',*,*,#976,.F.);
#859=ORIENTED_EDGE('',*,*,#974,.F.);
#860=ORIENTED_EDGE('',*,*,#972,.F.);
#861=ORIENTED_EDGE('',*,*,#1001,.F.);
#862=ORIENTED_EDGE('',*,*,#1002,.T.);
#863=ORIENTED_EDGE('',*,*,#1003,.F.);
#864=ORIENTED_EDGE('',*,*,#1004,.T.);
#865=ORIENTED_EDGE('',*,*,#1005,.F.);
#866=ORIENTED_EDGE('',*,*,#1006,.T.);
#867=ORIENTED_EDGE('',*,*,#1007,.F.);
#868=ORIENTED_EDGE('',*,*,#1008,.T.);
#869=ORIENTED_EDGE('',*,*,#986,.F.);
#870=ORIENTED_EDGE('',*,*,#1000,.F.);
#871=ORIENTED_EDGE('',*,*,#998,.F.);
#872=ORIENTED_EDGE('',*,*,#996,.F.);
#873=ORIENTED_EDGE('',*,*,#994,.F.);
#874=ORIENTED_EDGE('',*,*,#992,.F.);
#875=ORIENTED_EDGE('',*,*,#990,.F.);
#876=ORIENTED_EDGE('',*,*,#988,.F.);
#877=ORIENTED_EDGE('',*,*,#1009,.F.);
#878=ORIENTED_EDGE('',*,*,#1010,.T.);
#879=ORIENTED_EDGE('',*,*,#1011,.F.);
#880=ORIENTED_EDGE('',*,*,#1012,.T.);
#881=ORIENTED_EDGE('',*,*,#1013,.F.);
#882=ORIENTED_EDGE('',*,*,#1014,.T.);
#883=ORIENTED_EDGE('',*,*,#1015,.F.);
#884=ORIENTED_EDGE('',*,*,#1016,.T.);
#885=ORIENTED_EDGE('',*,*,#1017,.F.);
#886=ORIENTED_EDGE('',*,*,#1009,.T.);
#887=ORIENTED_EDGE('',*,*,#1018,.T.);
#888=ORIENTED_EDGE('',*,*,#1001,.T.);
#889=ORIENTED_EDGE('',*,*,#1018,.F.);
#890=ORIENTED_EDGE('',*,*,#1016,.F.);
#891=ORIENTED_EDGE('',*,*,#1019,.T.);
#892=ORIENTED_EDGE('',*,*,#1002,.F.);
#893=ORIENTED_EDGE('',*,*,#1019,.F.);
#894=ORIENTED_EDGE('',*,*,#1015,.T.);
#895=ORIENTED_EDGE('',*,*,#1020,.T.);
#896=ORIENTED_EDGE('',*,*,#1003,.T.);
#897=ORIENTED_EDGE('',*,*,#1020,.F.);
#898=ORIENTED_EDGE('',*,*,#1014,.F.);
#899=ORIENTED_EDGE('',*,*,#1021,.T.);
#900=ORIENTED_EDGE('',*,*,#1004,.F.);
#901=ORIENTED_EDGE('',*,*,#1021,.F.);
#902=ORIENTED_EDGE('',*,*,#1013,.T.);
#903=ORIENTED_EDGE('',*,*,#1022,.T.);
#904=ORIENTED_EDGE('',*,*,#1005,.T.);
#905=ORIENTED_EDGE('',*,*,#1023,.T.);
#906=ORIENTED_EDGE('',*,*,#1006,.F.);
#907=ORIENTED_EDGE('',*,*,#1022,.F.);
#908=ORIENTED_EDGE('',*,*,#1012,.F.);
#909=ORIENTED_EDGE('',*,*,#1023,.F.);
#910=ORIENTED_EDGE('',*,*,#1011,.T.);
#911=ORIENTED_EDGE('',*,*,#1024,.T.);
#912=ORIENTED_EDGE('',*,*,#1007,.T.);
#913=ORIENTED_EDGE('',*,*,#1017,.T.);
#914=ORIENTED_EDGE('',*,*,#1008,.F.);
#915=ORIENTED_EDGE('',*,*,#1024,.F.);
#916=ORIENTED_EDGE('',*,*,#1010,.F.);
#917=EDGE_CURVE('',#1025,#1026,#1027,.F.);
#918=EDGE_CURVE('',#1025,#1028,#1029,.T.);
#919=EDGE_CURVE('',#1030,#1028,#1031,.F.);
#920=EDGE_CURVE('',#1030,#1032,#1033,.T.);
#921=EDGE_CURVE('',#1034,#1032,#1035,.F.);
#922=EDGE_CURVE('',#1034,#1036,#1037,.T.);
#923=EDGE_CURVE('',#1038,#1036,#1039,.F.);
#924=EDGE_CURVE('',#1038,#1026,#1040,.T.);
#925=EDGE_CURVE('',#1041,#1042,#1043,.F.);
#926=EDGE_CURVE('',#1042,#1044,#1045,.F.);
#927=EDGE_CURVE('',#1044,#1046,#1047,.F.);
#928=EDGE_CURVE('',#1046,#1048,#1049,.F.);
#929=EDGE_CURVE('',#1048,#1050,#1051,.F.);
#930=EDGE_CURVE('',#1050,#1052,#1053,.F.);
#931=EDGE_CURVE('',#1052,#1054,#1055,.F.);
#932=EDGE_CURVE('',#1054,#1056,#1057,.F.);
#933=EDGE_CURVE('',#1056,#1058,#1059,.F.);
#934=EDGE_CURVE('',#1058,#1060,#1061,.F.);
#935=EDGE_CURVE('',#1060,#1062,#1063,.F.);
#936=EDGE_CURVE('',#1062,#1041,#1064,.F.);
#937=EDGE_CURVE('',#1065,#1066,#1067,.F.);
#938=EDGE_CURVE('',#1065,#1068,#1069,.T.);
#939=EDGE_CURVE('',#1070,#1068,#1071,.F.);
#940=EDGE_CURVE('',#1070,#1072,#1073,.T.);
#941=EDGE_CURVE('',#1074,#1072,#1075,.F.);
#942=EDGE_CURVE('',#1074,#1076,#1077,.T.);
#943=EDGE_CURVE('',#1078,#1076,#1079,.F.);
#944=EDGE_CURVE('',#1078,#1066,#1080,.T.);
#945=EDGE_CURVE('',#1081,#1082,#1083,.F.);
#946=EDGE_CURVE('',#1082,#1084,#1085,.F.);
#947=EDGE_CURVE('',#1084,#1086,#1087,.F.);
#948=EDGE_CURVE('',#1086,#1088,#1089,.F.);
#949=EDGE_CURVE('',#1088,#1090,#1091,.F.);
#950=EDGE_CURVE('',#1090,#1092,#1093,.F.);
#951=EDGE_CURVE('',#1092,#1094,#1095,.F.);
#952=EDGE_CURVE('',#1094,#1096,#1097,.F.);
#953=EDGE_CURVE('',#1096,#1098,#1099,.F.);
#954=EDGE_CURVE('',#1098,#1100,#1101,.F.);
#955=EDGE_CURVE('',#1100,#1102,#1103,.F.);
#956=EDGE_CURVE('',#1102,#1081,#1104,.F.);
#957=EDGE_CURVE('',#1041,#1082,#1105,.T.);
#958=EDGE_CURVE('',#1062,#1084,#1106,.T.);
#959=EDGE_CURVE('',#1060,#1086,#1107,.T.);
#960=EDGE_CURVE('',#1058,#1088,#1108,.T.);
#961=EDGE_CURVE('',#1056,#1090,#1109,.T.);
#962=EDGE_CURVE('',#1054,#1092,#1110,.T.);
#963=EDGE_CURVE('',#1052,#1094,#1111,.T.);
#964=EDGE_CURVE('',#1050,#1096,#1112,.T.);
#965=EDGE_CURVE('',#1048,#1098,#1113,.T.);
#966=EDGE_CURVE('',#1046,#1100,#1114,.T.);
#967=EDGE_CURVE('',#1044,#1102,#1115,.T.);
#968=EDGE_CURVE('',#1042,#1081,#1116,.T.);
#969=EDGE_CURVE('',#1117,#1026,#1118,.T.);
#970=EDGE_CURVE('',#1117,#1119,#1120,.F.);
#971=EDGE_CURVE('',#1119,#1025,#1121,.T.);
#972=EDGE_CURVE('',#1119,#1122,#1123,.T.);
#973=EDGE_CURVE('',#1122,#1028,#1124,.T.);
#974=EDGE_CURVE('',#1122,#1125,#1126,.F.);
#975=EDGE_CURVE('',#1125,#1030,#1127,.T.);
#976=EDGE_CURVE('',#1125,#1128,#1129,.T.);
#977=EDGE_CURVE('',#1128,#1032,#1130,.T.);
#978=EDGE_CURVE('',#1128,#1131,#1132,.F.);
#979=EDGE_CURVE('',#1131,#1034,#1133,.T.);
#980=EDGE_CURVE('',#1131,#1134,#1135,.T.);
#981=EDGE_CURVE('',#1134,#1036,#1136,.T.);
#982=EDGE_CURVE('',#1134,#1137,#1138,.F.);
#983=EDGE_CURVE('',#1137,#1038,#1139,.T.);
#984=EDGE_CURVE('',#1137,#1117,#1140,.T.);
#985=EDGE_CURVE('',#1141,#1066,#1142,.T.);
#986=EDGE_CURVE('',#1141,#1143,#1144,.F.);
#987=EDGE_CURVE('',#1143,#1065,#1145,.T.);
#988=EDGE_CURVE('',#1143,#1146,#1147,.T.);
#989=EDGE_CURVE('',#1146,#1068,#1148,.T.);
#990=EDGE_CURVE('',#1146,#1149,#1150,.F.);
#991=EDGE_CURVE('',#1149,#1070,#1151,.T.);
#992=EDGE_CURVE('',#1149,#1152,#1153,.T.);
#993=EDGE_CURVE('',#1152,#1072,#1154,.T.);
#994=EDGE_CURVE('',#1152,#1155,#1156,.F.);
#995=EDGE_CURVE('',#1155,#1074,#1157,.T.);
#996=EDGE_CURVE('',#1155,#1158,#1159,.T.);
#997=EDGE_CURVE('',#1158,#1076,#1160,.T.);
#998=EDGE_CURVE('',#1158,#1161,#1162,.F.);
#999=EDGE_CURVE('',#1161,#1078,#1163,.T.);
#1000=EDGE_CURVE('',#1161,#1141,#1164,.T.);
#1001=EDGE_CURVE('',#1165,#1166,#1167,.F.);
#1002=EDGE_CURVE('',#1165,#1168,#1169,.F.);
#1003=EDGE_CURVE('',#1170,#1168,#1171,.F.);
#1004=EDGE_CURVE('',#1170,#1172,#1173,.F.);
#1005=EDGE_CURVE('',#1174,#1172,#1175,.F.);
#1006=EDGE_CURVE('',#1174,#1176,#1177,.F.);
#1007=EDGE_CURVE('',#1178,#1176,#1179,.F.);
#1008=EDGE_CURVE('',#1178,#1166,#1180,.F.);
#1009=EDGE_CURVE('',#1181,#1182,#1183,.F.);
#1010=EDGE_CURVE('',#1181,#1184,#1185,.F.);
#1011=EDGE_CURVE('',#1186,#1184,#1187,.F.);
#1012=EDGE_CURVE('',#1186,#1188,#1189,.F.);
#1013=EDGE_CURVE('',#1190,#1188,#1191,.F.);
#1014=EDGE_CURVE('',#1190,#1192,#1193,.F.);
#1015=EDGE_CURVE('',#1194,#1192,#1195,.F.);
#1016=EDGE_CURVE('',#1194,#1182,#1196,.F.);
#1017=EDGE_CURVE('',#1181,#1166,#1197,.T.);
#1018=EDGE_CURVE('',#1182,#1165,#1198,.T.);
#1019=EDGE_CURVE('',#1194,#1168,#1199,.T.);
#1020=EDGE_CURVE('',#1192,#1170,#1200,.T.);
#1021=EDGE_CURVE('',#1190,#1172,#1201,.T.);
#1022=EDGE_CURVE('',#1188,#1174,#1202,.T.);
#1023=EDGE_CURVE('',#1186,#1176,#1203,.T.);
#1024=EDGE_CURVE('',#1184,#1178,#1204,.T.);
#1025=VERTEX_POINT('',#1205);
#1026=VERTEX_POINT('',#1206);
#1027=CIRCLE('',#1207,4.);
#1028=VERTEX_POINT('',#1211);
#1029=LINE('',#1212,#1213);
#1030=VERTEX_POINT('',#1215);
#1031=CIRCLE('',#1216,4.);
#1032=VERTEX_POINT('',#1220);
#1033=LINE('',#1221,#1222);
#1034=VERTEX_POINT('',#1224);
#1035=CIRCLE('',#1225,4.);
#1036=VERTEX_POINT('',#1229);
#1037=LINE('',#1230,#1231);
#1038=VERTEX_POINT('',#1233);
#1039=CIRCLE('',#1234,4.);
#1040=LINE('',#1238,#1239);
#1041=VERTEX_POINT('',#1241);
#1042=VERTEX_POINT('',#1242);
#1043=LINE('',#1243,#1244);
#1044=VERTEX_POINT('',#1246);
#1045=LINE('',#1247,#1248);
#1046=VERTEX_POINT('',#1250);
#1047=LINE('',#1251,#1252);
#1048=VERTEX_POINT('',#1254);
#1049=LINE('',#1255,#1256);
#1050=VERTEX_POINT('',#1258);
#1051=LINE('',#1259,#1260);
#1052=VERTEX_POINT('',#1262);
#1053=LINE('',#1263,#1264);
#1054=VERTEX_POINT('',#1266);
#1055=LINE('',#1267,#1268);
#1056=VERTEX_POINT('',#1270);
#1057=LINE('',#1271,#1272);
#1058=VERTEX_POINT('',#1274);
#1059=LINE('',#1275,#1276);
#1060=VERTEX_POINT('',#1278);
#1061=LINE('',#1279,#1280);
#1062=VERTEX_POINT('',#1282);
#1063=LINE('',#1283,#1284);
#1064=LINE('',#1286,#1287);
#1065=VERTEX_POINT('',#1289);
#1066=VERTEX_POINT('',#1290);
#1067=CIRCLE('',#1291,4.);
#1068=VERTEX_POINT('',#1295);
#1069=LINE('',#1296,#1297);
#1070=VERTEX_POINT('',#1299);
#1071=CIRCLE('',#1300,4.);
#1072=VERTEX_POINT('',#1304);
#1073=LINE('',#1305,#1306);
#1074=VERTEX_POINT('',#1308);
#1075=CIRCLE('',#1309,4.);
#1076=VERTEX_POINT('',#1313);
#1077=LINE('',#1314,#1315);
#1078=VERTEX_POINT('',#1317);
#1079=CIRCLE('',#1318,4.);
#1080=LINE('',#1322,#1323);
#1081=VERTEX_POINT('',#1325);
#1082=VERTEX_POINT('',#1326);
#1083=LINE('',#1327,#1328);
#1084=VERTEX_POINT('',#1330);
#1085=LINE('',#1331,#1332);
#1086=VERTEX_POINT('',#1334);
#1087=LINE('',#1335,#1336);
#1088=VERTEX_POINT('',#1338);
#1089=LINE('',#1339,#1340);
#1090=VERTEX_POINT('',#1342);
#1091=LINE('',#1343,#1344);
#1092=VERTEX_POINT('',#1346);
#1093=LINE('',#1347,#1348);
#1094=VERTEX_POINT('',#1350);
#1095=LINE('',#1351,#1352);
#1096=VERTEX_POINT('',#1354);
#1097=LINE('',#1355,#1356);
#1098=VERTEX_POINT('',#1358);
#1099=LINE('',#1359,#1360);
#1100=VERTEX_POINT('',#1362);
#1101=LINE('',#1363,#1364);
#1102=VERTEX_POINT('',#1366);
#1103=LINE('',#1367,#1368);
#1104=LINE('',#1370,#1371);
#1105=LINE('',#1373,#1374);
#1106=LINE('',#1376,#1377);
#1107=LINE('',#1379,#1380);
#1108=LINE('',#1382,#1383);
#1109=LINE('',#1385,#1386);
#1110=LINE('',#1388,#1389);
#1111=LINE('',#1391,#1392);
#1112=LINE('',#1394,#1395);
#1113=LINE('',#1397,#1398);
#1114=LINE('',#1400,#1401);
#1115=LINE('',#1403,#1404);
#1116=LINE('',#1406,#1407);
#1117=VERTEX_POINT('',#1409);
#1118=LINE('',#1410,#1411);
#1119=VERTEX_POINT('',#1413);
#1120=CIRCLE('',#1414,4.);
#1121=LINE('',#1418,#1419);
#1122=VERTEX_POINT('',#1421);
#1123=LINE('',#1422,#1423);
#1124=LINE('',#1425,#1426);
#1125=VERTEX_POINT('',#1428);
#1126=CIRCLE('',#1429,4.);
#1127=LINE('',#1433,#1434);
#1128=VERTEX_POINT('',#1436);
#1129=LINE('',#1437,#1438);
#1130=LINE('',#1440,#1441);
#1131=VERTEX_POINT('',#1443);
#1132=CIRCLE('',#1444,4.);
#1133=LINE('',#1448,#1449);
#1134=VERTEX_POINT('',#1451);
#1135=LINE('',#1452,#1453);
#1136=LINE('',#1455,#1456);
#1137=VERTEX_POINT('',#1458);
#1138=CIRCLE('',#1459,4.);
#1139=LINE('',#1463,#1464);
#1140=LINE('',#1466,#1467);
#1141=VERTEX_POINT('',#1469);
#1142=LINE('',#1470,#1471);
#1143=VERTEX_POINT('',#1473);
#1144=CIRCLE('',#1474,4.);
#1145=LINE('',#1478,#1479);
#1146=VERTEX_POINT('',#1481);
#1147=LINE('',#1482,#1483);
#1148=LINE('',#1485,#1486);
#1149=VERTEX_POINT('',#1488);
#1150=CIRCLE('',#1489,4.);
#1151=LINE('',#1493,#1494);
#1152=VERTEX_POINT('',#1496);
#1153=LINE('',#1497,#1498);
#1154=LINE('',#1500,#1501);
#1155=VERTEX_POINT('',#1503);
#1156=CIRCLE('',#1504,4.);
#1157=LINE('',#1508,#1509);
#1158=VERTEX_POINT('',#1511);
#1159=LINE('',#1512,#1513);
#1160=LINE('',#1515,#1516);
#1161=VERTEX_POINT('',#1518);
#1162=CIRCLE('',#1519,4.);
#1163=LINE('',#1523,#1524);
#1164=LINE('',#1526,#1527);
#1165=VERTEX_POINT('',#1529);
#1166=VERTEX_POINT('',#1530);
#1167=CIRCLE('',#1531,4.);
#1168=VERTEX_POINT('',#1535);
#1169=LINE('',#1536,#1537);
#1170=VERTEX_POINT('',#1539);
#1171=CIRCLE('',#1540,4.);
#1172=VERTEX_POINT('',#1544);
#1173=LINE('',#1545,#1546);
#1174=VERTEX_POINT('',#1548);
#1175=CIRCLE('',#1549,4.);
#1176=VERTEX_POINT('',#1553);
#1177=LINE('',#1554,#1555);
#1178=VERTEX_POINT('',#1557);
#1179=CIRCLE('',#1558,4.);
#1180=LINE('',#1562,#1563);
#1181=VERTEX_POINT('',#1565);
#1182=VERTEX_POINT('',#1566);
#1183=CIRCLE('',#1567,4.);
#1184=VERTEX_POINT('',#1571);
#1185=LINE('',#1572,#1573);
#1186=VERTEX_POINT('',#1575);
#1187=CIRCLE('',#1576,4.);
#1188=VERTEX_POINT('',#1580);
#1189=LINE('',#1581,#1582);
#1190=VERTEX_POINT('',#1584);
#1191=CIRCLE('',#1585,4.);
#1192=VERTEX_POINT('',#1589);
#1193=LINE('',#1590,#1591);
#1194=VERTEX_POINT('',#1593);
#1195=CIRCLE('',#1594,4.);
#1196=LINE('',#1598,#1599);
#1197=LINE('',#1601,#1602);
#1198=LINE('',#1604,#1605);
#1199=LINE('',#1607,#1608);
#1200=LINE('',#1610,#1611);
#1201=LINE('',#1613,#1614);
#1202=LINE('',#1616,#1617);
#1203=LINE('',#1619,#1620);
#1204=LINE('',#1622,#1623);
#1205=CARTESIAN_POINT('',(-13.,-12.,4.2));
#1206=CARTESIAN_POINT('',(-17.,-7.99999999999999,4.2));
#1207=AXIS2_PLACEMENT_3D('',#1208,#1209,#1210);
#1208=CARTESIAN_POINT('',(-13.,-7.99999999999999,4.2));
#1209=DIRECTION('',(0.,0.,1.));
#1210=DIRECTION('',(-1.,2.22044604925031E-16,0.));
#1211=CARTESIAN_POINT('',(-2.,-12.,4.2));
#1212=CARTESIAN_POINT('',(-13.,-12.,4.2));
#1213=VECTOR('',#1214,1.);
#1214=DIRECTION('',(1.,-3.22973970800046E-16,0.));
#1215=CARTESIAN_POINT('',(2.00000000000001,-8.,4.2));
#1216=AXIS2_PLACEMENT_3D('',#1217,#1218,#1219);
#1217=CARTESIAN_POINT('',(-2.,-8.,4.2));
#1218=DIRECTION('',(0.,0.,1.));
#1219=DIRECTION('',(-1.0547118733939E-15,-1.,0.));
#1220=CARTESIAN_POINT('',(2.00000000000001,-2.,4.2));
#1221=CARTESIAN_POINT('',(2.00000000000001,-8.,4.2));
#1222=VECTOR('',#1223,1.);
#1223=DIRECTION('',(1.48029736616688E-16,1.,0.));
#1224=CARTESIAN_POINT('',(-1.99999999999999,2.,4.2));
#1225=AXIS2_PLACEMENT_3D('',#1226,#1227,#1228);
#1226=CARTESIAN_POINT('',(-1.99999999999999,-2.,4.2));
#1227=DIRECTION('',(0.,0.,1.));
#1228=DIRECTION('',(1.,-2.22044604925031E-16,0.));
#1229=CARTESIAN_POINT('',(-13.,2.00000000000001,4.2));
#1230=CARTESIAN_POINT('',(-1.99999999999999,2.00000000000001,4.2));
#1231=VECTOR('',#1232,1.);
#1232=DIRECTION('',(-1.,1.61486985400023E-16,0.));
#1233=CARTESIAN_POINT('',(-17.,-1.99999999999999,4.2));
#1234=AXIS2_PLACEMENT_3D('',#1235,#1236,#1237);
#1235=CARTESIAN_POINT('',(-13.,-1.99999999999999,4.2));
#1236=DIRECTION('',(0.,0.,1.));
#1237=DIRECTION('',(0.,1.,0.));
#1238=CARTESIAN_POINT('',(-17.,-1.99999999999999,4.2));
#1239=VECTOR('',#1240,1.);
#1240=DIRECTION('',(0.,-1.,0.));
#1241=CARTESIAN_POINT('',(-6.5,-4.,4.2));
#1242=CARTESIAN_POINT('',(-1.,-4.,4.2));
#1243=CARTESIAN_POINT('',(-1.,-4.,4.2));
#1244=VECTOR('',#1245,1.);
#1245=DIRECTION('',(-1.,0.,0.));
#1246=CARTESIAN_POINT('',(-1.,-6.,4.2));
#1247=CARTESIAN_POINT('',(-1.,-6.,4.2));
#1248=VECTOR('',#1249,1.);
#1249=DIRECTION('',(-1.11022302462516E-16,1.,0.));
#1250=CARTESIAN_POINT('',(-6.5,-6.,4.2));
#1251=CARTESIAN_POINT('',(-6.5,-6.,4.2));
#1252=VECTOR('',#1253,1.);
#1253=DIRECTION('',(1.,0.,0.));
#1254=CARTESIAN_POINT('',(-6.5,-9.5,4.2));
#1255=CARTESIAN_POINT('',(-6.5,-9.5,4.2));
#1256=VECTOR('',#1257,1.);
#1257=DIRECTION('',(-2.53765262771464E-16,1.,0.));
#1258=CARTESIAN_POINT('',(-8.5,-9.5,4.2));
#1259=CARTESIAN_POINT('',(-8.5,-9.5,4.2));
#1260=VECTOR('',#1261,1.);
#1261=DIRECTION('',(1.,-8.88178419700125E-16,0.));
#1262=CARTESIAN_POINT('',(-8.5,-6.,4.2));
#1263=CARTESIAN_POINT('',(-8.5,-6.,4.2));
#1264=VECTOR('',#1265,1.);
#1265=DIRECTION('',(0.,-1.,0.));
#1266=CARTESIAN_POINT('',(-14.,-6.,4.2));
#1267=CARTESIAN_POINT('',(-14.,-6.,4.2));
#1268=VECTOR('',#1269,1.);
#1269=DIRECTION('',(1.,0.,0.));
#1270=CARTESIAN_POINT('',(-14.,-4.,4.2));
#1271=CARTESIAN_POINT('',(-14.,-4.,4.2));
#1272=VECTOR('',#1273,1.);
#1273=DIRECTION('',(0.,-1.,0.));
#1274=CARTESIAN_POINT('',(-8.5,-4.,4.2));
#1275=CARTESIAN_POINT('',(-8.5,-4.,4.2));
#1276=VECTOR('',#1277,1.);
#1277=DIRECTION('',(-1.,-8.07434927000113E-17,0.));
#1278=CARTESIAN_POINT('',(-8.5,-0.499999999999998,4.2));
#1279=CARTESIAN_POINT('',(-8.5,-0.499999999999998,4.2));
#1280=VECTOR('',#1281,1.);
#1281=DIRECTION('',(0.,-1.,0.));
#1282=CARTESIAN_POINT('',(-6.5,-0.499999999999998,4.2));
#1283=CARTESIAN_POINT('',(-6.5,-0.499999999999998,4.2));
#1284=VECTOR('',#1285,1.);
#1285=DIRECTION('',(-1.,-5.55111512312578E-17,0.));
#1286=CARTESIAN_POINT('',(-6.5,-4.,4.2));
#1287=VECTOR('',#1288,1.);
#1288=DIRECTION('',(0.,1.,0.));
#1289=CARTESIAN_POINT('',(-13.,2.,-1.));
#1290=CARTESIAN_POINT('',(-17.,-2.,-1.));
#1291=AXIS2_PLACEMENT_3D('',#1292,#1293,#1294);
#1292=CARTESIAN_POINT('',(-13.,-2.,-1.));
#1293=DIRECTION('',(0.,0.,-1.));
#1294=DIRECTION('',(-1.,0.,0.));
#1295=CARTESIAN_POINT('',(-2.,2.,-1.));
#1296=CARTESIAN_POINT('',(-13.,2.,-1.));
#1297=VECTOR('',#1298,1.);
#1298=DIRECTION('',(1.,0.,0.));
#1299=CARTESIAN_POINT('',(2.,-2.,-1.));
#1300=AXIS2_PLACEMENT_3D('',#1301,#1302,#1303);
#1301=CARTESIAN_POINT('',(-2.,-2.,-1.));
#1302=DIRECTION('',(0.,0.,-1.));
#1303=DIRECTION('',(-1.11022302462516E-16,1.,0.));
#1304=CARTESIAN_POINT('',(2.,-8.,-1.));
#1305=CARTESIAN_POINT('',(2.,-2.,-1.));
#1306=VECTOR('',#1307,1.);
#1307=DIRECTION('',(3.70074341541719E-17,-1.,0.));
#1308=CARTESIAN_POINT('',(-2.,-12.,-1.));
#1309=AXIS2_PLACEMENT_3D('',#1310,#1311,#1312);
#1310=CARTESIAN_POINT('',(-2.,-8.,-1.));
#1311=DIRECTION('',(0.,0.,-1.));
#1312=DIRECTION('',(1.,2.22044604925031E-16,0.));
#1313=CARTESIAN_POINT('',(-13.,-12.,-1.));
#1314=CARTESIAN_POINT('',(-2.,-12.,-1.));
#1315=VECTOR('',#1316,1.);
#1316=DIRECTION('',(-1.,0.,0.));
#1317=CARTESIAN_POINT('',(-17.,-8.,-1.));
#1318=AXIS2_PLACEMENT_3D('',#1319,#1320,#1321);
#1319=CARTESIAN_POINT('',(-13.,-8.,-1.));
#1320=DIRECTION('',(0.,0.,-1.));
#1321=DIRECTION('',(0.,-1.,0.));
#1322=CARTESIAN_POINT('',(-17.,-8.,-1.));
#1323=VECTOR('',#1324,1.);
#1324=DIRECTION('',(0.,1.,0.));
#1325=CARTESIAN_POINT('',(-1.,-4.,-1.));
#1326=CARTESIAN_POINT('',(-6.5,-4.,-1.));
#1327=CARTESIAN_POINT('',(-6.5,-4.,-1.));
#1328=VECTOR('',#1329,1.);
#1329=DIRECTION('',(1.,8.07434927000114E-17,0.));
#1330=CARTESIAN_POINT('',(-6.5,-0.499999999999998,-1.));
#1331=CARTESIAN_POINT('',(-6.5,-0.499999999999998,-1.));
#1332=VECTOR('',#1333,1.);
#1333=DIRECTION('',(0.,-1.,0.));
#1334=CARTESIAN_POINT('',(-8.5,-0.499999999999998,-1.));
#1335=CARTESIAN_POINT('',(-8.5,-0.499999999999998,-1.));
#1336=VECTOR('',#1337,1.);
#1337=DIRECTION('',(1.,5.55111512312578E-17,0.));
#1338=CARTESIAN_POINT('',(-8.5,-4.,-1.));
#1339=CARTESIAN_POINT('',(-8.5,-4.,-1.));
#1340=VECTOR('',#1341,1.);
#1341=DIRECTION('',(0.,1.,0.));
#1342=CARTESIAN_POINT('',(-14.,-4.,-1.));
#1343=CARTESIAN_POINT('',(-14.,-4.,-1.));
#1344=VECTOR('',#1345,1.);
#1345=DIRECTION('',(1.,1.61486985400023E-16,0.));
#1346=CARTESIAN_POINT('',(-14.,-6.,-1.));
#1347=CARTESIAN_POINT('',(-14.,-6.,-1.));
#1348=VECTOR('',#1349,1.);
#1349=DIRECTION('',(0.,1.,0.));
#1350=CARTESIAN_POINT('',(-8.5,-6.,-1.));
#1351=CARTESIAN_POINT('',(-8.5,-6.,-1.));
#1352=VECTOR('',#1353,1.);
#1353=DIRECTION('',(-1.,0.,0.));
#1354=CARTESIAN_POINT('',(-8.5,-9.5,-1.));
#1355=CARTESIAN_POINT('',(-8.5,-9.5,-1.));
#1356=VECTOR('',#1357,1.);
#1357=DIRECTION('',(0.,1.,0.));
#1358=CARTESIAN_POINT('',(-6.5,-9.5,-1.));
#1359=CARTESIAN_POINT('',(-6.5,-9.5,-1.));
#1360=VECTOR('',#1361,1.);
#1361=DIRECTION('',(-1.,0.,0.));
#1362=CARTESIAN_POINT('',(-6.5,-6.,-1.));
#1363=CARTESIAN_POINT('',(-6.5,-6.,-1.));
#1364=VECTOR('',#1365,1.);
#1365=DIRECTION('',(2.53765262771464E-16,-1.,0.));
#1366=CARTESIAN_POINT('',(-1.,-6.,-1.));
#1367=CARTESIAN_POINT('',(-1.,-6.,-1.));
#1368=VECTOR('',#1369,1.);
#1369=DIRECTION('',(-1.,0.,0.));
#1370=CARTESIAN_POINT('',(-1.,-4.,-1.));
#1371=VECTOR('',#1372,1.);
#1372=DIRECTION('',(1.11022302462516E-16,-1.,0.));
#1373=CARTESIAN_POINT('',(-6.5,-4.,4.2));
#1374=VECTOR('',#1375,1.);
#1375=DIRECTION('',(0.,0.,-1.));
#1376=CARTESIAN_POINT('',(-6.5,-0.499999999999998,4.2));
#1377=VECTOR('',#1378,1.);
#1378=DIRECTION('',(0.,0.,-1.));
#1379=CARTESIAN_POINT('',(-8.5,-0.499999999999998,4.2));
#1380=VECTOR('',#1381,1.);
#1381=DIRECTION('',(0.,0.,-1.));
#1382=CARTESIAN_POINT('',(-8.5,-4.,4.2));
#1383=VECTOR('',#1384,1.);
#1384=DIRECTION('',(0.,0.,-1.));
#1385=CARTESIAN_POINT('',(-14.,-4.,4.2));
#1386=VECTOR('',#1387,1.);
#1387=DIRECTION('',(0.,0.,-1.));
#1388=CARTESIAN_POINT('',(-14.,-6.,4.2));
#1389=VECTOR('',#1390,1.);
#1390=DIRECTION('',(0.,0.,-1.));
#1391=CARTESIAN_POINT('',(-8.5,-6.,4.2));
#1392=VECTOR('',#1393,1.);
#1393=DIRECTION('',(0.,0.,-1.));
#1394=CARTESIAN_POINT('',(-8.5,-9.5,4.2));
#1395=VECTOR('',#1396,1.);
#1396=DIRECTION('',(0.,0.,-1.));
#1397=CARTESIAN_POINT('',(-6.5,-9.5,4.2));
#1398=VECTOR('',#1399,1.);
#1399=DIRECTION('',(0.,0.,-1.));
#1400=CARTESIAN_POINT('',(-6.5,-6.,4.2));
#1401=VECTOR('',#1402,1.);
#1402=DIRECTION('',(0.,0.,-1.));
#1403=CARTESIAN_POINT('',(-1.,-6.,4.2));
#1404=VECTOR('',#1405,1.);
#1405=DIRECTION('',(0.,0.,-1.));
#1406=CARTESIAN_POINT('',(-1.,-4.,4.2));
#1407=VECTOR('',#1408,1.);
#1408=DIRECTION('',(0.,0.,-1.));
#1409=CARTESIAN_POINT('',(-17.,-7.99999999999999,3.2));
#1410=CARTESIAN_POINT('',(-17.,-7.99999999999999,3.2));
#1411=VECTOR('',#1412,1.);
#1412=DIRECTION('',(0.,0.,1.));
#1413=CARTESIAN_POINT('',(-13.,-12.,3.2));
#1414=AXIS2_PLACEMENT_3D('',#1415,#1416,#1417);
#1415=CARTESIAN_POINT('',(-13.,-7.99999999999999,3.2));
#1416=DIRECTION('',(0.,0.,-1.));
#1417=DIRECTION('',(-8.88178419700125E-16,-1.,0.));
#1418=CARTESIAN_POINT('',(-13.,-12.,3.2));
#1419=VECTOR('',#1420,1.);
#1420=DIRECTION('',(0.,0.,1.));
#1421=CARTESIAN_POINT('',(-2.,-12.,3.2));
#1422=CARTESIAN_POINT('',(-13.,-12.,3.2));
#1423=VECTOR('',#1424,1.);
#1424=DIRECTION('',(1.,-3.22973970800046E-16,0.));
#1425=CARTESIAN_POINT('',(-2.,-12.,3.2));
#1426=VECTOR('',#1427,1.);
#1427=DIRECTION('',(0.,0.,1.));
#1428=CARTESIAN_POINT('',(2.00000000000001,-8.,3.2));
#1429=AXIS2_PLACEMENT_3D('',#1430,#1431,#1432);
#1430=CARTESIAN_POINT('',(-2.,-8.,3.2));
#1431=DIRECTION('',(0.,0.,-1.));
#1432=DIRECTION('',(1.,-4.44089209850062E-16,0.));
#1433=CARTESIAN_POINT('',(2.00000000000001,-8.,3.2));
#1434=VECTOR('',#1435,1.);
#1435=DIRECTION('',(0.,0.,1.));
#1436=CARTESIAN_POINT('',(2.00000000000001,-2.,3.2));
#1437=CARTESIAN_POINT('',(2.00000000000001,-8.,3.2));
#1438=VECTOR('',#1439,1.);
#1439=DIRECTION('',(1.48029736616688E-16,1.,0.));
#1440=CARTESIAN_POINT('',(2.00000000000001,-2.,3.2));
#1441=VECTOR('',#1442,1.);
#1442=DIRECTION('',(0.,0.,1.));
#1443=CARTESIAN_POINT('',(-1.99999999999999,2.,3.2));
#1444=AXIS2_PLACEMENT_3D('',#1445,#1446,#1447);
#1445=CARTESIAN_POINT('',(-1.99999999999999,-2.,3.2));
#1446=DIRECTION('',(0.,0.,-1.));
#1447=DIRECTION('',(3.33066907387547E-16,1.,0.));
#1448=CARTESIAN_POINT('',(-1.99999999999999,2.,3.2));
#1449=VECTOR('',#1450,1.);
#1450=DIRECTION('',(0.,0.,1.));
#1451=CARTESIAN_POINT('',(-13.,2.00000000000001,3.2));
#1452=CARTESIAN_POINT('',(-1.99999999999999,2.00000000000001,3.2));
#1453=VECTOR('',#1454,1.);
#1454=DIRECTION('',(-1.,1.61486985400023E-16,0.));
#1455=CARTESIAN_POINT('',(-13.,2.00000000000001,3.2));
#1456=VECTOR('',#1457,1.);
#1457=DIRECTION('',(0.,0.,1.));
#1458=CARTESIAN_POINT('',(-17.,-1.99999999999999,3.2));
#1459=AXIS2_PLACEMENT_3D('',#1460,#1461,#1462);
#1460=CARTESIAN_POINT('',(-13.,-1.99999999999999,3.2));
#1461=DIRECTION('',(0.,0.,-1.));
#1462=DIRECTION('',(-1.,1.11022302462516E-16,0.));
#1463=CARTESIAN_POINT('',(-17.,-1.99999999999999,3.2));
#1464=VECTOR('',#1465,1.);
#1465=DIRECTION('',(0.,0.,1.));
#1466=CARTESIAN_POINT('',(-17.,-1.99999999999999,3.2));
#1467=VECTOR('',#1468,1.);
#1468=DIRECTION('',(0.,-1.,0.));
#1469=CARTESIAN_POINT('',(-17.,-2.,0.));
#1470=CARTESIAN_POINT('',(-17.,-2.,0.));
#1471=VECTOR('',#1472,1.);
#1472=DIRECTION('',(0.,0.,-1.));
#1473=CARTESIAN_POINT('',(-13.,2.,0.));
#1474=AXIS2_PLACEMENT_3D('',#1475,#1476,#1477);
#1475=CARTESIAN_POINT('',(-13.,-2.,0.));
#1476=DIRECTION('',(0.,0.,1.));
#1477=DIRECTION('',(-4.44089209850063E-16,1.,0.));
#1478=CARTESIAN_POINT('',(-13.,2.,0.));
#1479=VECTOR('',#1480,1.);
#1480=DIRECTION('',(0.,0.,-1.));
#1481=CARTESIAN_POINT('',(-2.,2.,0.));
#1482=CARTESIAN_POINT('',(-13.,2.,0.));
#1483=VECTOR('',#1484,1.);
#1484=DIRECTION('',(1.,0.,0.));
#1485=CARTESIAN_POINT('',(-2.,2.,0.));
#1486=VECTOR('',#1487,1.);
#1487=DIRECTION('',(0.,0.,-1.));
#1488=CARTESIAN_POINT('',(2.,-2.,0.));
#1489=AXIS2_PLACEMENT_3D('',#1490,#1491,#1492);
#1490=CARTESIAN_POINT('',(-2.,-2.,0.));
#1491=DIRECTION('',(0.,0.,1.));
#1492=DIRECTION('',(1.,1.11022302462516E-16,0.));
#1493=CARTESIAN_POINT('',(2.,-2.,0.));
#1494=VECTOR('',#1495,1.);
#1495=DIRECTION('',(0.,0.,-1.));
#1496=CARTESIAN_POINT('',(2.,-8.,0.));
#1497=CARTESIAN_POINT('',(2.,-2.,0.));
#1498=VECTOR('',#1499,1.);
#1499=DIRECTION('',(3.70074341541719E-17,-1.,0.));
#1500=CARTESIAN_POINT('',(2.,-8.,0.));
#1501=VECTOR('',#1502,1.);
#1502=DIRECTION('',(0.,0.,-1.));
#1503=CARTESIAN_POINT('',(-2.,-12.,0.));
#1504=AXIS2_PLACEMENT_3D('',#1505,#1506,#1507);
#1505=CARTESIAN_POINT('',(-2.,-8.,0.));
#1506=DIRECTION('',(0.,0.,1.));
#1507=DIRECTION('',(2.22044604925031E-16,-1.,0.));
#1508=CARTESIAN_POINT('',(-2.,-12.,0.));
#1509=VECTOR('',#1510,1.);
#1510=DIRECTION('',(0.,0.,-1.));
#1511=CARTESIAN_POINT('',(-13.,-12.,0.));
#1512=CARTESIAN_POINT('',(-2.,-12.,0.));
#1513=VECTOR('',#1514,1.);
#1514=DIRECTION('',(-1.,0.,0.));
#1515=CARTESIAN_POINT('',(-13.,-12.,0.));
#1516=VECTOR('',#1517,1.);
#1517=DIRECTION('',(0.,0.,-1.));
#1518=CARTESIAN_POINT('',(-17.,-8.,0.));
#1519=AXIS2_PLACEMENT_3D('',#1520,#1521,#1522);
#1520=CARTESIAN_POINT('',(-13.,-8.,0.));
#1521=DIRECTION('',(0.,0.,1.));
#1522=DIRECTION('',(-1.,0.,0.));
#1523=CARTESIAN_POINT('',(-17.,-8.,0.));
#1524=VECTOR('',#1525,1.);
#1525=DIRECTION('',(0.,0.,-1.));
#1526=CARTESIAN_POINT('',(-17.,-8.,0.));
#1527=VECTOR('',#1528,1.);
#1528=DIRECTION('',(0.,1.,0.));
#1529=CARTESIAN_POINT('',(-4.,4.74602216389315E-16,3.2));
#1530=CARTESIAN_POINT('',(-6.22631953006003E-16,-4.,3.2));
#1531=AXIS2_PLACEMENT_3D('',#1532,#1533,#1534);
#1532=CARTESIAN_POINT('',(-4.,-4.,3.2));
#1533=DIRECTION('',(0.,0.,1.));
#1534=DIRECTION('',(1.,-3.33066907387547E-16,0.));
#1535=CARTESIAN_POINT('',(-11.,1.1941337926081E-15,3.2));
#1536=CARTESIAN_POINT('',(-11.,1.34711147906209E-15,3.2));
#1537=VECTOR('',#1538,1.);
#1538=DIRECTION('',(1.,-1.22464679914735E-16,0.));
#1539=CARTESIAN_POINT('',(-15.,-4.,3.2));
#1540=AXIS2_PLACEMENT_3D('',#1541,#1542,#1543);
#1541=CARTESIAN_POINT('',(-11.,-4.,3.2));
#1542=DIRECTION('',(0.,0.,1.));
#1543=DIRECTION('',(0.,1.,0.));
#1544=CARTESIAN_POINT('',(-15.,-5.99999999999999,3.2));
#1545=CARTESIAN_POINT('',(-15.,-5.99999999999999,3.2));
#1546=VECTOR('',#1547,1.);
#1547=DIRECTION('',(0.,1.,0.));
#1548=CARTESIAN_POINT('',(-11.,-10.,3.2));
#1549=AXIS2_PLACEMENT_3D('',#1550,#1551,#1552);
#1550=CARTESIAN_POINT('',(-11.,-6.,3.2));
#1551=DIRECTION('',(0.,0.,1.));
#1552=DIRECTION('',(-1.,2.22044604925031E-16,0.));
#1553=CARTESIAN_POINT('',(-4.,-10.,3.2));
#1554=CARTESIAN_POINT('',(-4.,-10.,3.2));
#1555=VECTOR('',#1556,1.);
#1556=DIRECTION('',(-1.,2.53765262771464E-16,0.));
#1557=CARTESIAN_POINT('',(-3.41828983042253E-16,-6.,3.2));
#1558=AXIS2_PLACEMENT_3D('',#1559,#1560,#1561);
#1559=CARTESIAN_POINT('',(-4.,-6.,3.2));
#1560=DIRECTION('',(0.,0.,1.));
#1561=DIRECTION('',(-4.44089209850062E-16,-1.,0.));
#1562=CARTESIAN_POINT('',(-4.89858719658941E-16,-4.,3.2));
#1563=VECTOR('',#1564,1.);
#1564=DIRECTION('',(-1.22464679914735E-16,-1.,0.));
#1565=CARTESIAN_POINT('',(-6.89018569679533E-16,-4.,2.96059473233375E-16));
#1566=CARTESIAN_POINT('',(-4.,4.66973964754502E-16,2.96059473233375E-16));
#1567=AXIS2_PLACEMENT_3D('',#1568,#1569,#1570);
#1568=CARTESIAN_POINT('',(-4.,-4.,0.));
#1569=DIRECTION('',(0.,0.,-1.));
#1570=DIRECTION('',(0.,1.,0.));
#1571=CARTESIAN_POINT('',(-8.11483249594268E-16,-6.,2.96059473233375E-16));
#1572=CARTESIAN_POINT('',(-7.34788079488412E-16,-6.,0.));
#1573=VECTOR('',#1574,1.);
#1574=DIRECTION('',(1.22464679914735E-16,1.,0.));
#1575=CARTESIAN_POINT('',(-4.,-10.,2.96059473233375E-16));
#1576=AXIS2_PLACEMENT_3D('',#1577,#1578,#1579);
#1577=CARTESIAN_POINT('',(-4.,-6.,0.));
#1578=DIRECTION('',(0.,0.,-1.));
#1579=DIRECTION('',(1.,2.22044604925031E-16,0.));
#1580=CARTESIAN_POINT('',(-11.,-10.,2.96059473233375E-16));
#1581=CARTESIAN_POINT('',(-11.,-10.,0.));
#1582=VECTOR('',#1583,1.);
#1583=DIRECTION('',(1.,-2.53765262771464E-16,0.));
#1584=CARTESIAN_POINT('',(-15.,-5.99999999999999,2.96059473233375E-16));
#1585=AXIS2_PLACEMENT_3D('',#1586,#1587,#1588);
#1586=CARTESIAN_POINT('',(-11.,-6.,0.));
#1587=DIRECTION('',(0.,0.,-1.));
#1588=DIRECTION('',(0.,-1.,0.));
#1589=CARTESIAN_POINT('',(-15.,-4.,2.96059473233375E-16));
#1590=CARTESIAN_POINT('',(-15.,-4.,0.));
#1591=VECTOR('',#1592,1.);
#1592=DIRECTION('',(-8.88178419700127E-16,-1.,0.));
#1593=CARTESIAN_POINT('',(-11.,1.11764494938111E-15,2.96059473233375E-16));
#1594=AXIS2_PLACEMENT_3D('',#1595,#1596,#1597);
#1595=CARTESIAN_POINT('',(-11.,-4.,0.));
#1596=DIRECTION('',(0.,0.,-1.));
#1597=DIRECTION('',(-1.,0.,0.));
#1598=CARTESIAN_POINT('',(-4.,4.89858719658941E-16,0.));
#1599=VECTOR('',#1600,1.);
#1600=DIRECTION('',(-1.,1.22464679914735E-16,0.));
#1601=CARTESIAN_POINT('',(-6.89018569679533E-16,-4.,8.88178419700125E-16));
#1602=VECTOR('',#1603,1.);
#1603=DIRECTION('',(0.,0.,1.));
#1604=CARTESIAN_POINT('',(-4.,4.66973964754502E-16,8.88178419700125E-16));
#1605=VECTOR('',#1606,1.);
#1606=DIRECTION('',(0.,0.,1.));
#1607=CARTESIAN_POINT('',(-11.,1.11764494938111E-15,8.88178419700125E-16));
#1608=VECTOR('',#1609,1.);
#1609=DIRECTION('',(0.,0.,1.));
#1610=CARTESIAN_POINT('',(-15.,-4.,8.88178419700125E-16));
#1611=VECTOR('',#1612,1.);
#1612=DIRECTION('',(0.,0.,1.));
#1613=CARTESIAN_POINT('',(-15.,-6.,8.88178419700125E-16));
#1614=VECTOR('',#1615,1.);
#1615=DIRECTION('',(0.,0.,1.));
#1616=CARTESIAN_POINT('',(-11.,-10.,8.88178419700125E-16));
#1617=VECTOR('',#1618,1.);
#1618=DIRECTION('',(0.,0.,1.));
#1619=CARTESIAN_POINT('',(-4.,-10.,8.88178419700125E-16));
#1620=VECTOR('',#1621,1.);
#1621=DIRECTION('',(0.,0.,1.));
#1622=CARTESIAN_POINT('',(-8.11483249594268E-16,-6.,8.88178419700125E-16));
#1623=VECTOR('',#1624,1.);
#1624=DIRECTION('',(0.,0.,1.));
ENDSEC;
END-ISO-10303-21;
