ISO-10303-21;
HEADER;
FILE_DESCRIPTION(('STEP AP242'),
    '1');
FILE_NAME('Прижим для UART',
    '',
    ('UNSPECIFIED'),
    ('UNSPECIFIED'),
    'C3D Converter',
    'C3D Toolkit',
    '');
FILE_SCHEMA(('AP242_MANAGED_MODEL_BASED_3D_ENGINEERING_MIM_LF { 1 0 10303 442 1 1 4 }'));
ENDSEC;

DATA;
#1=PRODUCT_DEFINITION('','UNSPECIFIED',#28,#31);
#2=SHAPE_DEFINITION_REPRESENTATION(#26,#3);
#3=SHAPE_REPRESENTATION('NONE',(#4),#8);
#4=AXIS2_PLACEMENT_3D('',#5,#6,#7);
#5=CARTESIAN_POINT('',(0.,0.,0.));
#6=DIRECTION('',(0.,0.,1.));
#7=DIRECTION('',(1.,0.,0.));
#8=(GEOMETRIC_REPRESENTATION_CONTEXT(3)GLOBAL_UNCERTAINTY_ASSIGNED_CONTEXT((#10))
GLOBAL_UNIT_ASSIGNED_CONTEXT((#9,#11,#12))REPRESENTATION_CONTEXT('NONE','NONE'));
#9=(LENGTH_UNIT()NAMED_UNIT(*)SI_UNIT(.MILLI.,.METRE.));
#10=UNCERTAINTY_MEASURE_WITH_UNIT(LENGTH_MEASURE(1.E-5),#9,'NONE','NONE');
#11=(NAMED_UNIT(*)PLANE_ANGLE_UNIT()SI_UNIT($,.RADIAN.));
#12=(NAMED_UNIT(*)SI_UNIT($,.STERADIAN.)SOLID_ANGLE_UNIT());
#13=MANIFOLD_SOLID_BREP('',#14);
#14=CLOSED_SHELL('',(#53,#62,#71,#80,#89,#98,#107,#116,#125,#134,#143,#152,#161,
#170,#179,#188,#197,#206,#215,#224,#233,#242,#251,#260,#269,#278,#287,#296,#305,
#314,#323,#332));
#15=COLOUR_RGB('',0.564705882352941,0.564705882352941,0.564705882352941);
#16=FILL_AREA_STYLE_COLOUR('',#15);
#17=FILL_AREA_STYLE($,(#16));
#18=SURFACE_STYLE_FILL_AREA(#17);
#19=SURFACE_SIDE_STYLE('',(#18));
#20=SURFACE_STYLE_USAGE(.BOTH.,#19);
#21=PRESENTATION_STYLE_ASSIGNMENT((#20));
#22=MECHANICAL_DESIGN_GEOMETRIC_PRESENTATION_REPRESENTATION('NONE',(#23,#61,#70,
#79,#88,#97,#106,#115,#124,#133,#142,#151,#160,#169,#178,#187,#196,#205,#214,#223,
#232,#241,#250,#259,#268,#277,#286,#295,#304,#313,#322,#331,#340),#8);
#23=STYLED_ITEM('',(#21),#13);
#24=ADVANCED_BREP_SHAPE_REPRESENTATION('NONE',(#13),#8);
#25=SHAPE_REPRESENTATION_RELATIONSHIP('','',#3,#24);
#26=PRODUCT_DEFINITION_SHAPE('NONE','NONE',#1);
#27=MECHANICAL_CONTEXT('NONE',#32,'mechanical');
#28=PRODUCT_DEFINITION_FORMATION_WITH_SPECIFIED_SOURCE('ANY','UNSPECIFIED',#29,.NOT_KNOWN.);
#29=PRODUCT('','\X2\0414043504420430043B044C\X0\','NONE',(#27));
#30=PRODUCT_RELATED_PRODUCT_CATEGORY('detail','',(#29));
#31=DESIGN_CONTEXT('detailed design',#32,'design');
#32=APPLICATION_CONTEXT('configuration controlled 3d designs of mechanical parts and assemblies');
#33=APPLICATION_PROTOCOL_DEFINITION('international standard','config_control_design',
1994,#32);
#34=CC_DESIGN_DATE_AND_TIME_ASSIGNMENT(#35,#39,(#1));
#35=DATE_AND_TIME(#36,#37);
#36=CALENDAR_DATE(0,1,1);
#37=LOCAL_TIME(0,0,0.,#38);
#38=COORDINATED_UNIVERSAL_TIME_OFFSET(0,0,.AHEAD.);
#39=DATE_TIME_ROLE('creation_date');
#40=CC_DESIGN_APPROVAL(#41,(#1));
#41=APPROVAL(#42,'UNSPECIFIED');
#42=APPROVAL_STATUS('not_yet_approved');
#43=APPROVAL_DATE_TIME(#44,#41);
#44=DATE_AND_TIME(#45,#46);
#45=CALENDAR_DATE(0,1,1);
#46=LOCAL_TIME(0,0,0.,#47);
#47=COORDINATED_UNIVERSAL_TIME_OFFSET(0,0,.AHEAD.);
#48=PERSON('UNSPECIFIED','Cybermeatball','UNSPECIFIED',('UNSPECIFIED'),('UNSPECIFIED'),
('UNSPECIFIED'));
#49=ORGANIZATION('UNSPECIFIED','UNSPECIFIED','UNSPECIFIED');
#50=PERSON_AND_ORGANIZATION(#48,#49);
#51=PERSON_AND_ORGANIZATION_ROLE('creator');
#52=CC_DESIGN_PERSON_AND_ORGANIZATION_ASSIGNMENT(#50,#51,(#28,#1));
#53=ADVANCED_FACE('',(#341,#343,#345),#347,.F.);
#54=COLOUR_RGB('',0.564705882352941,0.564705882352941,0.564705882352941);
#55=FILL_AREA_STYLE_COLOUR('',#54);
#56=FILL_AREA_STYLE($,(#55));
#57=SURFACE_STYLE_FILL_AREA(#56);
#58=SURFACE_SIDE_STYLE('',(#57));
#59=SURFACE_STYLE_USAGE(.BOTH.,#58);
#60=PRESENTATION_STYLE_ASSIGNMENT((#59));
#61=STYLED_ITEM('',(#60),#53);
#62=ADVANCED_FACE('',(#352),#354,.T.);
#63=COLOUR_RGB('',0.564705882352941,0.564705882352941,0.564705882352941);
#64=FILL_AREA_STYLE_COLOUR('',#63);
#65=FILL_AREA_STYLE($,(#64));
#66=SURFACE_STYLE_FILL_AREA(#65);
#67=SURFACE_SIDE_STYLE('',(#66));
#68=SURFACE_STYLE_USAGE(.BOTH.,#67);
#69=PRESENTATION_STYLE_ASSIGNMENT((#68));
#70=STYLED_ITEM('',(#69),#62);
#71=ADVANCED_FACE('',(#359,#361),#363,.F.);
#72=COLOUR_RGB('',0.564705882352941,0.564705882352941,0.564705882352941);
#73=FILL_AREA_STYLE_COLOUR('',#72);
#74=FILL_AREA_STYLE($,(#73));
#75=SURFACE_STYLE_FILL_AREA(#74);
#76=SURFACE_SIDE_STYLE('',(#75));
#77=SURFACE_STYLE_USAGE(.BOTH.,#76);
#78=PRESENTATION_STYLE_ASSIGNMENT((#77));
#79=STYLED_ITEM('',(#78),#71);
#80=ADVANCED_FACE('',(#368,#370),#372,.F.);
#81=COLOUR_RGB('',0.564705882352941,0.564705882352941,0.564705882352941);
#82=FILL_AREA_STYLE_COLOUR('',#81);
#83=FILL_AREA_STYLE($,(#82));
#84=SURFACE_STYLE_FILL_AREA(#83);
#85=SURFACE_SIDE_STYLE('',(#84));
#86=SURFACE_STYLE_USAGE(.BOTH.,#85);
#87=PRESENTATION_STYLE_ASSIGNMENT((#86));
#88=STYLED_ITEM('',(#87),#80);
#89=ADVANCED_FACE('',(#377),#379,.T.);
#90=COLOUR_RGB('',0.564705882352941,0.564705882352941,0.564705882352941);
#91=FILL_AREA_STYLE_COLOUR('',#90);
#92=FILL_AREA_STYLE($,(#91));
#93=SURFACE_STYLE_FILL_AREA(#92);
#94=SURFACE_SIDE_STYLE('',(#93));
#95=SURFACE_STYLE_USAGE(.BOTH.,#94);
#96=PRESENTATION_STYLE_ASSIGNMENT((#95));
#97=STYLED_ITEM('',(#96),#89);
#98=ADVANCED_FACE('',(#384),#386,.T.);
#99=COLOUR_RGB('',0.564705882352941,0.564705882352941,0.564705882352941);
#100=FILL_AREA_STYLE_COLOUR('',#99);
#101=FILL_AREA_STYLE($,(#100));
#102=SURFACE_STYLE_FILL_AREA(#101);
#103=SURFACE_SIDE_STYLE('',(#102));
#104=SURFACE_STYLE_USAGE(.BOTH.,#103);
#105=PRESENTATION_STYLE_ASSIGNMENT((#104));
#106=STYLED_ITEM('',(#105),#98);
#107=ADVANCED_FACE('',(#391),#393,.T.);
#108=COLOUR_RGB('',0.564705882352941,0.564705882352941,0.564705882352941);
#109=FILL_AREA_STYLE_COLOUR('',#108);
#110=FILL_AREA_STYLE($,(#109));
#111=SURFACE_STYLE_FILL_AREA(#110);
#112=SURFACE_SIDE_STYLE('',(#111));
#113=SURFACE_STYLE_USAGE(.BOTH.,#112);
#114=PRESENTATION_STYLE_ASSIGNMENT((#113));
#115=STYLED_ITEM('',(#114),#107);
#116=ADVANCED_FACE('',(#398),#400,.T.);
#117=COLOUR_RGB('',0.564705882352941,0.564705882352941,0.564705882352941);
#118=FILL_AREA_STYLE_COLOUR('',#117);
#119=FILL_AREA_STYLE($,(#118));
#120=SURFACE_STYLE_FILL_AREA(#119);
#121=SURFACE_SIDE_STYLE('',(#120));
#122=SURFACE_STYLE_USAGE(.BOTH.,#121);
#123=PRESENTATION_STYLE_ASSIGNMENT((#122));
#124=STYLED_ITEM('',(#123),#116);
#125=ADVANCED_FACE('',(#405),#407,.T.);
#126=COLOUR_RGB('',0.564705882352941,0.564705882352941,0.564705882352941);
#127=FILL_AREA_STYLE_COLOUR('',#126);
#128=FILL_AREA_STYLE($,(#127));
#129=SURFACE_STYLE_FILL_AREA(#128);
#130=SURFACE_SIDE_STYLE('',(#129));
#131=SURFACE_STYLE_USAGE(.BOTH.,#130);
#132=PRESENTATION_STYLE_ASSIGNMENT((#131));
#133=STYLED_ITEM('',(#132),#125);
#134=ADVANCED_FACE('',(#412),#414,.T.);
#135=COLOUR_RGB('',0.564705882352941,0.564705882352941,0.564705882352941);
#136=FILL_AREA_STYLE_COLOUR('',#135);
#137=FILL_AREA_STYLE($,(#136));
#138=SURFACE_STYLE_FILL_AREA(#137);
#139=SURFACE_SIDE_STYLE('',(#138));
#140=SURFACE_STYLE_USAGE(.BOTH.,#139);
#141=PRESENTATION_STYLE_ASSIGNMENT((#140));
#142=STYLED_ITEM('',(#141),#134);
#143=ADVANCED_FACE('',(#419),#421,.T.);
#144=COLOUR_RGB('',0.564705882352941,0.564705882352941,0.564705882352941);
#145=FILL_AREA_STYLE_COLOUR('',#144);
#146=FILL_AREA_STYLE($,(#145));
#147=SURFACE_STYLE_FILL_AREA(#146);
#148=SURFACE_SIDE_STYLE('',(#147));
#149=SURFACE_STYLE_USAGE(.BOTH.,#148);
#150=PRESENTATION_STYLE_ASSIGNMENT((#149));
#151=STYLED_ITEM('',(#150),#143);
#152=ADVANCED_FACE('',(#426),#428,.T.);
#153=COLOUR_RGB('',0.564705882352941,0.564705882352941,0.564705882352941);
#154=FILL_AREA_STYLE_COLOUR('',#153);
#155=FILL_AREA_STYLE($,(#154));
#156=SURFACE_STYLE_FILL_AREA(#155);
#157=SURFACE_SIDE_STYLE('',(#156));
#158=SURFACE_STYLE_USAGE(.BOTH.,#157);
#159=PRESENTATION_STYLE_ASSIGNMENT((#158));
#160=STYLED_ITEM('',(#159),#152);
#161=ADVANCED_FACE('',(#433),#435,.T.);
#162=COLOUR_RGB('',0.564705882352941,0.564705882352941,0.564705882352941);
#163=FILL_AREA_STYLE_COLOUR('',#162);
#164=FILL_AREA_STYLE($,(#163));
#165=SURFACE_STYLE_FILL_AREA(#164);
#166=SURFACE_SIDE_STYLE('',(#165));
#167=SURFACE_STYLE_USAGE(.BOTH.,#166);
#168=PRESENTATION_STYLE_ASSIGNMENT((#167));
#169=STYLED_ITEM('',(#168),#161);
#170=ADVANCED_FACE('',(#440),#442,.T.);
#171=COLOUR_RGB('',0.564705882352941,0.564705882352941,0.564705882352941);
#172=FILL_AREA_STYLE_COLOUR('',#171);
#173=FILL_AREA_STYLE($,(#172));
#174=SURFACE_STYLE_FILL_AREA(#173);
#175=SURFACE_SIDE_STYLE('',(#174));
#176=SURFACE_STYLE_USAGE(.BOTH.,#175);
#177=PRESENTATION_STYLE_ASSIGNMENT((#176));
#178=STYLED_ITEM('',(#177),#170);
#179=ADVANCED_FACE('',(#447),#449,.T.);
#180=COLOUR_RGB('',0.564705882352941,0.564705882352941,0.564705882352941);
#181=FILL_AREA_STYLE_COLOUR('',#180);
#182=FILL_AREA_STYLE($,(#181));
#183=SURFACE_STYLE_FILL_AREA(#182);
#184=SURFACE_SIDE_STYLE('',(#183));
#185=SURFACE_STYLE_USAGE(.BOTH.,#184);
#186=PRESENTATION_STYLE_ASSIGNMENT((#185));
#187=STYLED_ITEM('',(#186),#179);
#188=ADVANCED_FACE('',(#454),#456,.T.);
#189=COLOUR_RGB('',0.564705882352941,0.564705882352941,0.564705882352941);
#190=FILL_AREA_STYLE_COLOUR('',#189);
#191=FILL_AREA_STYLE($,(#190));
#192=SURFACE_STYLE_FILL_AREA(#191);
#193=SURFACE_SIDE_STYLE('',(#192));
#194=SURFACE_STYLE_USAGE(.BOTH.,#193);
#195=PRESENTATION_STYLE_ASSIGNMENT((#194));
#196=STYLED_ITEM('',(#195),#188);
#197=ADVANCED_FACE('',(#461),#463,.T.);
#198=COLOUR_RGB('',0.564705882352941,0.564705882352941,0.564705882352941);
#199=FILL_AREA_STYLE_COLOUR('',#198);
#200=FILL_AREA_STYLE($,(#199));
#201=SURFACE_STYLE_FILL_AREA(#200);
#202=SURFACE_SIDE_STYLE('',(#201));
#203=SURFACE_STYLE_USAGE(.BOTH.,#202);
#204=PRESENTATION_STYLE_ASSIGNMENT((#203));
#205=STYLED_ITEM('',(#204),#197);
#206=ADVANCED_FACE('',(#468),#470,.T.);
#207=COLOUR_RGB('',0.564705882352941,0.564705882352941,0.564705882352941);
#208=FILL_AREA_STYLE_COLOUR('',#207);
#209=FILL_AREA_STYLE($,(#208));
#210=SURFACE_STYLE_FILL_AREA(#209);
#211=SURFACE_SIDE_STYLE('',(#210));
#212=SURFACE_STYLE_USAGE(.BOTH.,#211);
#213=PRESENTATION_STYLE_ASSIGNMENT((#212));
#214=STYLED_ITEM('',(#213),#206);
#215=ADVANCED_FACE('',(#475),#477,.T.);
#216=COLOUR_RGB('',0.564705882352941,0.564705882352941,0.564705882352941);
#217=FILL_AREA_STYLE_COLOUR('',#216);
#218=FILL_AREA_STYLE($,(#217));
#219=SURFACE_STYLE_FILL_AREA(#218);
#220=SURFACE_SIDE_STYLE('',(#219));
#221=SURFACE_STYLE_USAGE(.BOTH.,#220);
#222=PRESENTATION_STYLE_ASSIGNMENT((#221));
#223=STYLED_ITEM('',(#222),#215);
#224=ADVANCED_FACE('',(#482),#484,.T.);
#225=COLOUR_RGB('',0.564705882352941,0.564705882352941,0.564705882352941);
#226=FILL_AREA_STYLE_COLOUR('',#225);
#227=FILL_AREA_STYLE($,(#226));
#228=SURFACE_STYLE_FILL_AREA(#227);
#229=SURFACE_SIDE_STYLE('',(#228));
#230=SURFACE_STYLE_USAGE(.BOTH.,#229);
#231=PRESENTATION_STYLE_ASSIGNMENT((#230));
#232=STYLED_ITEM('',(#231),#224);
#233=ADVANCED_FACE('',(#489),#491,.T.);
#234=COLOUR_RGB('',0.564705882352941,0.564705882352941,0.564705882352941);
#235=FILL_AREA_STYLE_COLOUR('',#234);
#236=FILL_AREA_STYLE($,(#235));
#237=SURFACE_STYLE_FILL_AREA(#236);
#238=SURFACE_SIDE_STYLE('',(#237));
#239=SURFACE_STYLE_USAGE(.BOTH.,#238);
#240=PRESENTATION_STYLE_ASSIGNMENT((#239));
#241=STYLED_ITEM('',(#240),#233);
#242=ADVANCED_FACE('',(#496),#498,.T.);
#243=COLOUR_RGB('',0.564705882352941,0.564705882352941,0.564705882352941);
#244=FILL_AREA_STYLE_COLOUR('',#243);
#245=FILL_AREA_STYLE($,(#244));
#246=SURFACE_STYLE_FILL_AREA(#245);
#247=SURFACE_SIDE_STYLE('',(#246));
#248=SURFACE_STYLE_USAGE(.BOTH.,#247);
#249=PRESENTATION_STYLE_ASSIGNMENT((#248));
#250=STYLED_ITEM('',(#249),#242);
#251=ADVANCED_FACE('',(#503),#505,.T.);
#252=COLOUR_RGB('',0.564705882352941,0.564705882352941,0.564705882352941);
#253=FILL_AREA_STYLE_COLOUR('',#252);
#254=FILL_AREA_STYLE($,(#253));
#255=SURFACE_STYLE_FILL_AREA(#254);
#256=SURFACE_SIDE_STYLE('',(#255));
#257=SURFACE_STYLE_USAGE(.BOTH.,#256);
#258=PRESENTATION_STYLE_ASSIGNMENT((#257));
#259=STYLED_ITEM('',(#258),#251);
#260=ADVANCED_FACE('',(#510),#512,.T.);
#261=COLOUR_RGB('',0.564705882352941,0.564705882352941,0.564705882352941);
#262=FILL_AREA_STYLE_COLOUR('',#261);
#263=FILL_AREA_STYLE($,(#262));
#264=SURFACE_STYLE_FILL_AREA(#263);
#265=SURFACE_SIDE_STYLE('',(#264));
#266=SURFACE_STYLE_USAGE(.BOTH.,#265);
#267=PRESENTATION_STYLE_ASSIGNMENT((#266));
#268=STYLED_ITEM('',(#267),#260);
#269=ADVANCED_FACE('',(#517),#519,.T.);
#270=COLOUR_RGB('',0.564705882352941,0.564705882352941,0.564705882352941);
#271=FILL_AREA_STYLE_COLOUR('',#270);
#272=FILL_AREA_STYLE($,(#271));
#273=SURFACE_STYLE_FILL_AREA(#272);
#274=SURFACE_SIDE_STYLE('',(#273));
#275=SURFACE_STYLE_USAGE(.BOTH.,#274);
#276=PRESENTATION_STYLE_ASSIGNMENT((#275));
#277=STYLED_ITEM('',(#276),#269);
#278=ADVANCED_FACE('',(#524),#526,.T.);
#279=COLOUR_RGB('',0.564705882352941,0.564705882352941,0.564705882352941);
#280=FILL_AREA_STYLE_COLOUR('',#279);
#281=FILL_AREA_STYLE($,(#280));
#282=SURFACE_STYLE_FILL_AREA(#281);
#283=SURFACE_SIDE_STYLE('',(#282));
#284=SURFACE_STYLE_USAGE(.BOTH.,#283);
#285=PRESENTATION_STYLE_ASSIGNMENT((#284));
#286=STYLED_ITEM('',(#285),#278);
#287=ADVANCED_FACE('',(#531),#533,.T.);
#288=COLOUR_RGB('',0.564705882352941,0.564705882352941,0.564705882352941);
#289=FILL_AREA_STYLE_COLOUR('',#288);
#290=FILL_AREA_STYLE($,(#289));
#291=SURFACE_STYLE_FILL_AREA(#290);
#292=SURFACE_SIDE_STYLE('',(#291));
#293=SURFACE_STYLE_USAGE(.BOTH.,#292);
#294=PRESENTATION_STYLE_ASSIGNMENT((#293));
#295=STYLED_ITEM('',(#294),#287);
#296=ADVANCED_FACE('',(#538),#540,.T.);
#297=COLOUR_RGB('',0.564705882352941,0.564705882352941,0.564705882352941);
#298=FILL_AREA_STYLE_COLOUR('',#297);
#299=FILL_AREA_STYLE($,(#298));
#300=SURFACE_STYLE_FILL_AREA(#299);
#301=SURFACE_SIDE_STYLE('',(#300));
#302=SURFACE_STYLE_USAGE(.BOTH.,#301);
#303=PRESENTATION_STYLE_ASSIGNMENT((#302));
#304=STYLED_ITEM('',(#303),#296);
#305=ADVANCED_FACE('',(#545),#547,.T.);
#306=COLOUR_RGB('',0.564705882352941,0.564705882352941,0.564705882352941);
#307=FILL_AREA_STYLE_COLOUR('',#306);
#308=FILL_AREA_STYLE($,(#307));
#309=SURFACE_STYLE_FILL_AREA(#308);
#310=SURFACE_SIDE_STYLE('',(#309));
#311=SURFACE_STYLE_USAGE(.BOTH.,#310);
#312=PRESENTATION_STYLE_ASSIGNMENT((#311));
#313=STYLED_ITEM('',(#312),#305);
#314=ADVANCED_FACE('',(#552),#554,.T.);
#315=COLOUR_RGB('',0.564705882352941,0.564705882352941,0.564705882352941);
#316=FILL_AREA_STYLE_COLOUR('',#315);
#317=FILL_AREA_STYLE($,(#316));
#318=SURFACE_STYLE_FILL_AREA(#317);
#319=SURFACE_SIDE_STYLE('',(#318));
#320=SURFACE_STYLE_USAGE(.BOTH.,#319);
#321=PRESENTATION_STYLE_ASSIGNMENT((#320));
#322=STYLED_ITEM('',(#321),#314);
#323=ADVANCED_FACE('',(#627),#629,.T.);
#324=COLOUR_RGB('',0.564705882352941,0.564705882352941,0.564705882352941);
#325=FILL_AREA_STYLE_COLOUR('',#324);
#326=FILL_AREA_STYLE($,(#325));
#327=SURFACE_STYLE_FILL_AREA(#326);
#328=SURFACE_SIDE_STYLE('',(#327));
#329=SURFACE_STYLE_USAGE(.BOTH.,#328);
#330=PRESENTATION_STYLE_ASSIGNMENT((#329));
#331=STYLED_ITEM('',(#330),#323);
#332=ADVANCED_FACE('',(#634),#636,.T.);
#333=COLOUR_RGB('',0.564705882352941,0.564705882352941,0.564705882352941);
#334=FILL_AREA_STYLE_COLOUR('',#333);
#335=FILL_AREA_STYLE($,(#334));
#336=SURFACE_STYLE_FILL_AREA(#335);
#337=SURFACE_SIDE_STYLE('',(#336));
#338=SURFACE_STYLE_USAGE(.BOTH.,#337);
#339=PRESENTATION_STYLE_ASSIGNMENT((#338));
#340=STYLED_ITEM('',(#339),#332);
#341=FACE_BOUND('',#342,.T.);
#342=EDGE_LOOP('',(#709,#710,#711,#712,#713,#714,#715,#716,#717,#718,#719,#720));
#343=FACE_BOUND('',#344,.T.);
#344=EDGE_LOOP('',(#721));
#345=FACE_BOUND('',#346,.T.);
#346=EDGE_LOOP('',(#722));
#347=PLANE('',#348);
#348=AXIS2_PLACEMENT_3D('',#349,#350,#351);
#349=CARTESIAN_POINT('',(0.,0.,0.));
#350=DIRECTION('',(0.,0.,1.));
#351=DIRECTION('',(-1.,1.22464679914735E-16,0.));
#352=FACE_BOUND('',#353,.T.);
#353=EDGE_LOOP('',(#723,#724,#725,#726,#727,#728,#729,#730,#731,#732,#733,#734,#735,
#736,#737,#738));
#354=PLANE('',#355);
#355=AXIS2_PLACEMENT_3D('',#356,#357,#358);
#356=CARTESIAN_POINT('',(0.,0.,2.));
#357=DIRECTION('',(0.,0.,1.));
#358=DIRECTION('',(-1.,1.22464679914735E-16,0.));
#359=FACE_BOUND('',#360,.T.);
#360=EDGE_LOOP('',(#739,#740,#741));
#361=FACE_OUTER_BOUND('',#362,.T.);
#362=EDGE_LOOP('',(#742));
#363=CYLINDRICAL_SURFACE('',#364,1.25);
#364=AXIS2_PLACEMENT_3D('',#365,#366,#367);
#365=CARTESIAN_POINT('',(-23.5,-2.,0.));
#366=DIRECTION('',(0.,0.,1.));
#367=DIRECTION('',(-1.,1.22464679914735E-16,0.));
#368=FACE_BOUND('',#369,.T.);
#369=EDGE_LOOP('',(#743,#744,#745));
#370=FACE_OUTER_BOUND('',#371,.T.);
#371=EDGE_LOOP('',(#746));
#372=CYLINDRICAL_SURFACE('',#373,1.25);
#373=AXIS2_PLACEMENT_3D('',#374,#375,#376);
#374=CARTESIAN_POINT('',(-23.5,-10.,0.));
#375=DIRECTION('',(0.,0.,1.));
#376=DIRECTION('',(-1.,1.22464679914735E-16,0.));
#377=FACE_BOUND('',#378,.T.);
#378=EDGE_LOOP('',(#747,#748,#749,#750));
#379=PLANE('',#380);
#380=AXIS2_PLACEMENT_3D('',#381,#382,#383);
#381=CARTESIAN_POINT('',(0.,0.,0.));
#382=DIRECTION('',(1.22464679914735E-16,1.,0.));
#383=DIRECTION('',(-1.,1.22464679914735E-16,0.));
#384=FACE_BOUND('',#385,.T.);
#385=EDGE_LOOP('',(#751,#752,#753,#754));
#386=PLANE('',#387);
#387=AXIS2_PLACEMENT_3D('',#388,#389,#390);
#388=CARTESIAN_POINT('',(-1.22464679914735E-16,-1.,0.));
#389=DIRECTION('',(1.,-1.22464679914735E-16,0.));
#390=DIRECTION('',(1.22464679914735E-16,1.,0.));
#391=FACE_BOUND('',#392,.T.);
#392=EDGE_LOOP('',(#755,#756,#757,#758));
#393=PLANE('',#394);
#394=AXIS2_PLACEMENT_3D('',#395,#396,#397);
#395=CARTESIAN_POINT('',(2.,-1.,0.));
#396=DIRECTION('',(1.11022302462516E-16,1.,0.));
#397=DIRECTION('',(-1.,1.11022302462516E-16,0.));
#398=FACE_BOUND('',#399,.T.);
#399=EDGE_LOOP('',(#759,#760,#761,#762));
#400=PLANE('',#401);
#401=AXIS2_PLACEMENT_3D('',#402,#403,#404);
#402=CARTESIAN_POINT('',(2.,-3.,0.));
#403=DIRECTION('',(1.,-1.11022302462516E-16,0.));
#404=DIRECTION('',(1.11022302462516E-16,1.,0.));
#405=FACE_BOUND('',#406,.T.);
#406=EDGE_LOOP('',(#763,#764,#765,#766));
#407=PLANE('',#408);
#408=AXIS2_PLACEMENT_3D('',#409,#410,#411);
#409=CARTESIAN_POINT('',(-3.67394039744206E-16,-3.,0.));
#410=DIRECTION('',(-2.22044604925031E-16,-1.,0.));
#411=DIRECTION('',(1.,-2.22044604925031E-16,0.));
#412=FACE_BOUND('',#413,.T.);
#413=EDGE_LOOP('',(#767,#768,#769,#770));
#414=PLANE('',#415);
#415=AXIS2_PLACEMENT_3D('',#416,#417,#418);
#416=CARTESIAN_POINT('',(-1.10218211923262E-15,-9.,0.));
#417=DIRECTION('',(1.,-1.22464679914735E-16,0.));
#418=DIRECTION('',(1.22464679914735E-16,1.,0.));
#419=FACE_BOUND('',#420,.T.);
#420=EDGE_LOOP('',(#771,#772,#773,#774));
#421=PLANE('',#422);
#422=AXIS2_PLACEMENT_3D('',#423,#424,#425);
#423=CARTESIAN_POINT('',(2.,-9.,0.));
#424=DIRECTION('',(0.,1.,0.));
#425=DIRECTION('',(-1.,0.,0.));
#426=FACE_BOUND('',#427,.T.);
#427=EDGE_LOOP('',(#775,#776,#777,#778));
#428=PLANE('',#429);
#429=AXIS2_PLACEMENT_3D('',#430,#431,#432);
#430=CARTESIAN_POINT('',(2.,-11.,0.));
#431=DIRECTION('',(1.,-1.11022302462516E-16,0.));
#432=DIRECTION('',(1.11022302462516E-16,1.,0.));
#433=FACE_BOUND('',#434,.T.);
#434=EDGE_LOOP('',(#779,#780,#781,#782));
#435=PLANE('',#436);
#436=AXIS2_PLACEMENT_3D('',#437,#438,#439);
#437=CARTESIAN_POINT('',(-1.34711147906209E-15,-11.,0.));
#438=DIRECTION('',(0.,-1.,0.));
#439=DIRECTION('',(1.,0.,0.));
#440=FACE_BOUND('',#441,.T.);
#441=EDGE_LOOP('',(#783,#784,#785,#786));
#442=PLANE('',#443);
#443=AXIS2_PLACEMENT_3D('',#444,#445,#446);
#444=CARTESIAN_POINT('',(-1.46957615897682E-15,-12.,0.));
#445=DIRECTION('',(1.,-1.22464679914735E-16,0.));
#446=DIRECTION('',(1.22464679914735E-16,1.,0.));
#447=FACE_BOUND('',#448,.T.);
#448=EDGE_LOOP('',(#787,#788,#789,#790));
#449=PLANE('',#450);
#450=AXIS2_PLACEMENT_3D('',#451,#452,#453);
#451=CARTESIAN_POINT('',(-26.,-12.,0.));
#452=DIRECTION('',(-1.36642833800019E-16,-1.,0.));
#453=DIRECTION('',(1.,-1.36642833800019E-16,0.));
#454=FACE_BOUND('',#455,.T.);
#455=EDGE_LOOP('',(#791,#792,#793,#794));
#456=PLANE('',#457);
#457=AXIS2_PLACEMENT_3D('',#458,#459,#460);
#458=CARTESIAN_POINT('',(-26.,3.18408167778312E-15,0.));
#459=DIRECTION('',(-1.,0.,0.));
#460=DIRECTION('',(0.,-1.,0.));
#461=FACE_BOUND('',#462,.T.);
#462=EDGE_LOOP('',(#795,#796,#797,#798,#799,#800));
#463=CYLINDRICAL_SURFACE('',#464,0.5);
#464=AXIS2_PLACEMENT_3D('',#465,#466,#467);
#465=CARTESIAN_POINT('',(2.,-0.5,1.5));
#466=DIRECTION('',(-1.,1.22124532708767E-16,0.));
#467=DIRECTION('',(0.,0.,1.));
#468=FACE_BOUND('',#469,.T.);
#469=EDGE_LOOP('',(#801,#802,#803,#804));
#470=CYLINDRICAL_SURFACE('',#471,0.5);
#471=AXIS2_PLACEMENT_3D('',#472,#473,#474);
#472=CARTESIAN_POINT('',(-25.5,2.,1.5));
#473=DIRECTION('',(0.,-1.,0.));
#474=DIRECTION('',(-7.105427357601E-15,0.,1.));
#475=FACE_BOUND('',#476,.T.);
#476=EDGE_LOOP('',(#805,#806,#807,#808,#809,#810));
#477=CYLINDRICAL_SURFACE('',#478,0.5);
#478=AXIS2_PLACEMENT_3D('',#479,#480,#481);
#479=CARTESIAN_POINT('',(-28.,-11.5,1.5));
#480=DIRECTION('',(1.,-1.1842378929335E-16,0.));
#481=DIRECTION('',(4.20725816117873E-31,3.5527136788005E-15,1.));
#482=FACE_BOUND('',#483,.T.);
#483=EDGE_LOOP('',(#811,#812,#813,#814));
#484=CYLINDRICAL_SURFACE('',#485,0.5);
#485=AXIS2_PLACEMENT_3D('',#486,#487,#488);
#486=CARTESIAN_POINT('',(-0.500000000000002,-14.,1.5));
#487=DIRECTION('',(1.11022302462516E-16,1.,0.));
#488=DIRECTION('',(3.94430452610506E-31,0.,1.));
#489=FACE_BOUND('',#490,.T.);
#490=EDGE_LOOP('',(#815,#816,#817,#818));
#491=CYLINDRICAL_SURFACE('',#492,0.5);
#492=AXIS2_PLACEMENT_3D('',#493,#494,#495);
#493=CARTESIAN_POINT('',(-2.,-10.5,1.5));
#494=DIRECTION('',(1.,0.,0.));
#495=DIRECTION('',(0.,0.,1.));
#496=FACE_BOUND('',#497,.T.);
#497=EDGE_LOOP('',(#819,#820,#821,#822));
#498=CYLINDRICAL_SURFACE('',#499,0.5);
#499=AXIS2_PLACEMENT_3D('',#500,#501,#502);
#500=CARTESIAN_POINT('',(1.5,-13.,1.5));
#501=DIRECTION('',(1.48029736616688E-16,1.,0.));
#502=DIRECTION('',(0.,0.,1.));
#503=FACE_BOUND('',#504,.T.);
#504=EDGE_LOOP('',(#823,#824,#825,#826));
#505=CYLINDRICAL_SURFACE('',#506,0.5);
#506=AXIS2_PLACEMENT_3D('',#507,#508,#509);
#507=CARTESIAN_POINT('',(4.,-9.5,1.5));
#508=DIRECTION('',(-1.,0.,0.));
#509=DIRECTION('',(0.,0.,1.));
#510=FACE_BOUND('',#511,.T.);
#511=EDGE_LOOP('',(#827,#828,#829,#830));
#512=CYLINDRICAL_SURFACE('',#513,0.5);
#513=AXIS2_PLACEMENT_3D('',#514,#515,#516);
#514=CARTESIAN_POINT('',(-0.500000000000001,-11.,1.5));
#515=DIRECTION('',(1.33226762955019E-16,1.,0.));
#516=DIRECTION('',(0.,0.,1.));
#517=FACE_BOUND('',#518,.T.);
#518=EDGE_LOOP('',(#831,#832,#833,#834));
#519=CYLINDRICAL_SURFACE('',#520,0.5);
#520=AXIS2_PLACEMENT_3D('',#521,#522,#523);
#521=CARTESIAN_POINT('',(-2.,-2.5,1.5));
#522=DIRECTION('',(1.,-2.22044604925031E-16,0.));
#523=DIRECTION('',(0.,0.,1.));
#524=FACE_BOUND('',#525,.T.);
#525=EDGE_LOOP('',(#835,#836,#837,#838));
#526=CYLINDRICAL_SURFACE('',#527,0.5);
#527=AXIS2_PLACEMENT_3D('',#528,#529,#530);
#528=CARTESIAN_POINT('',(1.5,-5.,1.5));
#529=DIRECTION('',(1.48029736616688E-16,1.,0.));
#530=DIRECTION('',(2.62953635073671E-31,0.,1.));
#531=FACE_BOUND('',#532,.T.);
#532=EDGE_LOOP('',(#839,#840,#841,#842));
#533=CYLINDRICAL_SURFACE('',#534,0.5);
#534=AXIS2_PLACEMENT_3D('',#535,#536,#537);
#535=CARTESIAN_POINT('',(4.,-1.5,1.5));
#536=DIRECTION('',(-1.,9.25185853854297E-17,0.));
#537=DIRECTION('',(0.,0.,1.));
#538=FACE_BOUND('',#539,.T.);
#539=EDGE_LOOP('',(#843,#844,#845,#846));
#540=CYLINDRICAL_SURFACE('',#541,0.5);
#541=AXIS2_PLACEMENT_3D('',#542,#543,#544);
#542=CARTESIAN_POINT('',(-0.5,-3.,1.5));
#543=DIRECTION('',(1.11022302462516E-16,1.,0.));
#544=DIRECTION('',(9.86076131526264E-32,0.,1.));
#545=FACE_BOUND('',#546,.T.);
#546=EDGE_LOOP('',(#847,#848,#849,#850,#851));
#547=TOROIDAL_SURFACE('',#548,1.75,0.5);
#548=AXIS2_PLACEMENT_3D('',#549,#550,#551);
#549=CARTESIAN_POINT('',(-23.5,-10.,1.5));
#550=DIRECTION('',(0.,0.,1.));
#551=DIRECTION('',(-1.,0.,0.));
#552=FACE_BOUND('',#553,.T.);
#553=EDGE_LOOP('',(#852,#853,#854,#855));
#554=B_SPLINE_SURFACE_WITH_KNOTS('',3,3,(
(#555,#556,#557,#558,#559,#560,#561,#562,#563,#564,#565,#566),
(#567,#568,#569,#570,#571,#572,#573,#574,#575,#576,#577,#578),
(#579,#580,#581,#582,#583,#584,#585,#586,#587,#588,#589,#590),
(#591,#592,#593,#594,#595,#596,#597,#598,#599,#600,#601,#602),
(#603,#604,#605,#606,#607,#608,#609,#610,#611,#612,#613,#614),
(#615,#616,#617,#618,#619,#620,#621,#622,#623,#624,#625,#626)),
.UNSPECIFIED.,.F.,.F.,.F.,
(4,1,1,4),
(4,1,1,1,1,1,1,1,1,4),
(-7.58111887616483E-6,0.342340887502437,0.684157326621409,1.00000758363392),
(0.,0.0891420694315407,0.207998162006928,0.326854254582316,0.445710347157703,0.564566439733091,
0.683422532308478,0.802278624883866,0.921134717459253,1.),
.UNSPECIFIED.);
#555=CARTESIAN_POINT('',(-24.4014014859224,-11.5,2.));
#556=CARTESIAN_POINT('',(-24.3905782703555,-11.4819893537736,1.99999828114554));
#557=CARTESIAN_POINT('',(-24.3646630760648,-11.438864516837,1.9969103319563));
#558=CARTESIAN_POINT('',(-24.3225550919453,-11.3687936529976,1.97904719878665));
#559=CARTESIAN_POINT('',(-24.2772557193515,-11.2934120723036,1.94165127207839));
#560=CARTESIAN_POINT('',(-24.2353579915492,-11.2236910794212,1.88646007861861));
#561=CARTESIAN_POINT('',(-24.1995422534134,-11.1640909708717,1.81572421381749));
#562=CARTESIAN_POINT('',(-24.1718761194089,-11.1180524141864,1.73359742576947));
#563=CARTESIAN_POINT('',(-24.1534239578998,-11.0873466001284,1.64533897343108));
#564=CARTESIAN_POINT('',(-24.1451931379526,-11.073649871407,1.56627074519687));
#565=CARTESIAN_POINT('',(-24.1438565493928,-11.0714256727742,1.51859039522866));
#566=CARTESIAN_POINT('',(-24.1438556806906,-11.071424221512,1.49999988056869));
#567=CARTESIAN_POINT('',(-24.1956756596407,-11.5,2.));
#568=CARTESIAN_POINT('',(-24.1879811384636,-11.4826959561855,1.99537519920346));
#569=CARTESIAN_POINT('',(-24.1700415252563,-11.4421567753648,1.98192718330278));
#570=CARTESIAN_POINT('',(-24.1425866808281,-11.3794305765268,1.95062594648604));
#571=CARTESIAN_POINT('',(-24.1147361302825,-11.3150895881213,1.90394157953294));
#572=CARTESIAN_POINT('',(-24.0900971767394,-11.2576711804944,1.84582510674695));
#573=CARTESIAN_POINT('',(-24.0695889306962,-11.2096227392612,1.77827149002869));
#574=CARTESIAN_POINT('',(-24.0538600266887,-11.1727178974509,1.70396301495133));
#575=CARTESIAN_POINT('',(-24.0432443918534,-11.1478697112241,1.62595896093013));
#576=CARTESIAN_POINT('',(-24.0383670424194,-11.1365202227723,1.55617418623428));
#577=CARTESIAN_POINT('',(-24.0375457489597,-11.1346224250355,1.51360746753482));
#578=CARTESIAN_POINT('',(-24.037545455091,-11.134621481455,1.49690284368574));
#579=CARTESIAN_POINT('',(-23.7845437170188,-11.5,1.99999999999999));
#580=CARTESIAN_POINT('',(-23.7827614294788,-11.487603535281,1.99227888615551));
#581=CARTESIAN_POINT('',(-23.778748016385,-11.459151731705,1.97283977451059));
#582=CARTESIAN_POINT('',(-23.7730029768375,-11.4169219349726,1.93717098282474));
#583=CARTESIAN_POINT('',(-23.7674803866345,-11.3751676203682,1.89231666510688));
#584=CARTESIAN_POINT('',(-23.7627564249356,-11.3388535064531,1.84226130521989));
#585=CARTESIAN_POINT('',(-23.7588941417651,-11.3089148510022,1.78801582530688));
#586=CARTESIAN_POINT('',(-23.7559479669724,-11.2860171530019,1.73080046385605));
#587=CARTESIAN_POINT('',(-23.7539458178525,-11.2705028145732,1.67195058251969));
#588=CARTESIAN_POINT('',(-23.7530040209428,-11.2632902439547,1.61944601681865));
#589=CARTESIAN_POINT('',(-23.7528391305287,-11.2620539121869,1.58710121665194));
#590=CARTESIAN_POINT('',(-23.7528390664755,-11.262053580073,1.57432478534519));
#591=CARTESIAN_POINT('',(-23.1836093915593,-11.5,2.));
#592=CARTESIAN_POINT('',(-23.1856862859495,-11.4871644352593,1.99233209098734));
#593=CARTESIAN_POINT('',(-23.1903748493801,-11.4576781390486,1.97293123150059));
#594=CARTESIAN_POINT('',(-23.1971157018843,-11.4138440330598,1.93701493836723));
#595=CARTESIAN_POINT('',(-23.2036137562984,-11.3704541411612,1.89154316144411));
#596=CARTESIAN_POINT('',(-23.2091785468431,-11.3326923970865,1.84057678588584));
#597=CARTESIAN_POINT('',(-23.213729845042,-11.3015495567557,1.78519053144981));
#598=CARTESIAN_POINT('',(-23.217202109504,-11.2777283390648,1.72667371003503));
#599=CARTESIAN_POINT('',(-23.2195617094684,-11.2615902800773,1.66643308007616));
#600=CARTESIAN_POINT('',(-23.2206706976544,-11.2540911813179,1.61267841893377));
#601=CARTESIAN_POINT('',(-23.2208643879773,-11.2528067875635,1.57957719971434));
#602=CARTESIAN_POINT('',(-23.220864439753,-11.2528064270475,1.5665060880289));
#603=CARTESIAN_POINT('',(-22.7884008923813,-11.5,2.));
#604=CARTESIAN_POINT('',(-22.7964026792848,-11.4826403040782,1.99574696371987));
#605=CARTESIAN_POINT('',(-22.8151030144379,-11.4418943819311,1.98312250991393));
#606=CARTESIAN_POINT('',(-22.8438723284805,-11.3785866864367,1.95286063435569));
#607=CARTESIAN_POINT('',(-22.8732054437717,-11.3133899880256,1.90687386030708));
#608=CARTESIAN_POINT('',(-22.8992565259484,-11.2550348533174,1.84896937445493));
#609=CARTESIAN_POINT('',(-22.9209909370704,-11.2061160032992,1.78117865006039));
#610=CARTESIAN_POINT('',(-22.9376710797548,-11.1685244131964,1.70629703735988));
#611=CARTESIAN_POINT('',(-22.9489172106286,-11.143233584018,1.62754136019155));
#612=CARTESIAN_POINT('',(-22.9540707599829,-11.1317051406594,1.55707334481986));
#613=CARTESIAN_POINT('',(-22.9549357999689,-11.1297823890342,1.51412998013692));
#614=CARTESIAN_POINT('',(-22.954936195823,-11.1297814262862,1.49728677788414));
#615=CARTESIAN_POINT('',(-22.5985985095435,-11.5,2.));
#616=CARTESIAN_POINT('',(-22.6094217246166,-11.4819893546381,1.99999828139437));
#617=CARTESIAN_POINT('',(-22.6353369181031,-11.4388645194358,1.99691033299244));
#618=CARTESIAN_POINT('',(-22.6774449023504,-11.3687936572485,1.97904720166387));
#619=CARTESIAN_POINT('',(-22.7227442767662,-11.2934120772576,1.94165127748042));
#620=CARTESIAN_POINT('',(-22.764642007747,-11.2236910844998,1.88646008698517));
#621=CARTESIAN_POINT('',(-22.8004577499038,-11.1640909761271,1.81572422577466));
#622=CARTESIAN_POINT('',(-22.8281238882312,-11.1180524201673,1.73359744234495));
#623=CARTESIAN_POINT('',(-22.8465760539559,-11.0873466075601,1.64533899607968));
#624=CARTESIAN_POINT('',(-22.8548068773692,-11.0736498806228,1.56627077473602));
#625=CARTESIAN_POINT('',(-22.8561434679374,-11.0714256831873,1.51859042981326));
#626=CARTESIAN_POINT('',(-22.8561443374196,-11.071424232395,1.49999991726608));
#627=FACE_BOUND('',#628,.T.);
#628=EDGE_LOOP('',(#856,#857,#858,#859,#860));
#629=TOROIDAL_SURFACE('',#630,1.75,0.5);
#630=AXIS2_PLACEMENT_3D('',#631,#632,#633);
#631=CARTESIAN_POINT('',(-23.5,-2.,1.5));
#632=DIRECTION('',(0.,0.,1.));
#633=DIRECTION('',(-1.,1.77635683940025E-16,0.));
#634=FACE_BOUND('',#635,.T.);
#635=EDGE_LOOP('',(#861,#862,#863,#864));
#636=B_SPLINE_SURFACE_WITH_KNOTS('',3,3,(
(#637,#638,#639,#640,#641,#642,#643,#644,#645,#646,#647,#648),
(#649,#650,#651,#652,#653,#654,#655,#656,#657,#658,#659,#660),
(#661,#662,#663,#664,#665,#666,#667,#668,#669,#670,#671,#672),
(#673,#674,#675,#676,#677,#678,#679,#680,#681,#682,#683,#684),
(#685,#686,#687,#688,#689,#690,#691,#692,#693,#694,#695,#696),
(#697,#698,#699,#700,#701,#702,#703,#704,#705,#706,#707,#708)),
.UNSPECIFIED.,.F.,.F.,.F.,
(4,1,1,4),
(4,1,1,1,1,1,1,1,1,4),
(-7.58111887616391E-6,0.342340887502506,0.684157326621481,1.00000758363392),
(0.,0.0891420694315387,0.207998162006924,0.326854254582309,0.445710347157694,0.564566439733079,
0.683422532308463,0.802278624883848,0.921134717459233,1.),
.UNSPECIFIED.);
#637=CARTESIAN_POINT('',(-22.5985985140776,-0.499999999999997,2.));
#638=CARTESIAN_POINT('',(-22.6094217296445,-0.518010646226438,1.99999828114554));
#639=CARTESIAN_POINT('',(-22.6353369239352,-0.56113548316298,1.9969103319563));
#640=CARTESIAN_POINT('',(-22.6774449080546,-0.631206347002378,1.97904719878665));
#641=CARTESIAN_POINT('',(-22.7227442806485,-0.706587927696412,1.94165127207841));
#642=CARTESIAN_POINT('',(-22.7646420084508,-0.776308920578816,1.88646007861861));
#643=CARTESIAN_POINT('',(-22.8004577465866,-0.835909029128299,1.8157242138175));
#644=CARTESIAN_POINT('',(-22.8281238805911,-0.881947585813603,1.73359742576948));
#645=CARTESIAN_POINT('',(-22.8465760421001,-0.912653399871604,1.6453389734311));
#646=CARTESIAN_POINT('',(-22.8548068620474,-0.926350128592993,1.56627074519688));
#647=CARTESIAN_POINT('',(-22.8561434506072,-0.928574327225804,1.51859039522866));
#648=CARTESIAN_POINT('',(-22.8561443193094,-0.928575778488042,1.49999988056869));
#649=CARTESIAN_POINT('',(-22.8043243403594,-0.499999999999998,2.));
#650=CARTESIAN_POINT('',(-22.8120188615366,-0.517304043814522,1.99537519920346));
#651=CARTESIAN_POINT('',(-22.8299584747437,-0.557843224635172,1.98192718330278));
#652=CARTESIAN_POINT('',(-22.857413319172,-0.620569423473209,1.95062594648603));
#653=CARTESIAN_POINT('',(-22.8852638697176,-0.684910411878615,1.90394157953294));
#654=CARTESIAN_POINT('',(-22.9099028232606,-0.742328819505682,1.84582510674694));
#655=CARTESIAN_POINT('',(-22.9304110693038,-0.79037726073876,1.77827149002869));
#656=CARTESIAN_POINT('',(-22.9461399733114,-0.827282102549188,1.70396301495133));
#657=CARTESIAN_POINT('',(-22.9567556081466,-0.852130288775827,1.62595896093014));
#658=CARTESIAN_POINT('',(-22.9616329575807,-0.863479777227798,1.55617418623428));
#659=CARTESIAN_POINT('',(-22.9624542510403,-0.865377574964494,1.51360746753482));
#660=CARTESIAN_POINT('',(-22.9624545449091,-0.865378518545012,1.49690284368573));
#661=CARTESIAN_POINT('',(-23.2154562829812,-0.499999999999996,2.));
#662=CARTESIAN_POINT('',(-23.2172385705212,-0.512396464718947,1.99227888615553));
#663=CARTESIAN_POINT('',(-23.2212519836151,-0.540848268295075,1.97283977451058));
#664=CARTESIAN_POINT('',(-23.2269970231625,-0.583078065027322,1.93717098282476));
#665=CARTESIAN_POINT('',(-23.2325196133655,-0.624832379631817,1.89231666510688));
#666=CARTESIAN_POINT('',(-23.2372435750645,-0.661146493546841,1.8422613052199));
#667=CARTESIAN_POINT('',(-23.241105858235,-0.691085148997758,1.78801582530689));
#668=CARTESIAN_POINT('',(-23.2440520330277,-0.71398284699804,1.73080046385608));
#669=CARTESIAN_POINT('',(-23.2460541821477,-0.72949718542673,1.67195058251972));
#670=CARTESIAN_POINT('',(-23.2469959790571,-0.73670975604527,1.61944601681868));
#671=CARTESIAN_POINT('',(-23.2471608694714,-0.737946087813115,1.58710121665196));
#672=CARTESIAN_POINT('',(-23.2471609335245,-0.737946419926944,1.57432478534522));
#673=CARTESIAN_POINT('',(-23.8163906084409,-0.499999999999998,2.));
#674=CARTESIAN_POINT('',(-23.8143137140508,-0.512835564740712,1.99233209098733));
#675=CARTESIAN_POINT('',(-23.8096251506199,-0.54232186095138,1.9729312315006));
#676=CARTESIAN_POINT('',(-23.8028842981159,-0.586155966940215,1.93701493836721));
#677=CARTESIAN_POINT('',(-23.7963862437017,-0.629545858838822,1.89154316144412));
#678=CARTESIAN_POINT('',(-23.790821453157,-0.667307602913558,1.84057678588583));
#679=CARTESIAN_POINT('',(-23.7862701549581,-0.698450443244296,1.78519053144981));
#680=CARTESIAN_POINT('',(-23.7827978904961,-0.722271660935294,1.72667371003502));
#681=CARTESIAN_POINT('',(-23.7804382905316,-0.738409719922707,1.66643308007616));
#682=CARTESIAN_POINT('',(-23.7793293023458,-0.745908818682179,1.61267841893376));
#683=CARTESIAN_POINT('',(-23.7791356120227,-0.747193212436531,1.57957719971432));
#684=CARTESIAN_POINT('',(-23.7791355602471,-0.747193572952516,1.56650608802887));
#685=CARTESIAN_POINT('',(-24.2115991076187,-0.499999999999997,2.));
#686=CARTESIAN_POINT('',(-24.2035973207152,-0.517359695921778,1.99574696371987));
#687=CARTESIAN_POINT('',(-24.1848969855622,-0.558105618068915,1.98312250991394));
#688=CARTESIAN_POINT('',(-24.1561276715196,-0.621413313563218,1.95286063435571));
#689=CARTESIAN_POINT('',(-24.1267945562283,-0.686610011974398,1.90687386030709));
#690=CARTESIAN_POINT('',(-24.1007434740517,-0.744965146682603,1.84896937445495));
#691=CARTESIAN_POINT('',(-24.0790090629296,-0.793883996700809,1.7811786500604));
#692=CARTESIAN_POINT('',(-24.0623289202453,-0.831475586803576,1.70629703735989));
#693=CARTESIAN_POINT('',(-24.0510827893715,-0.856766415981974,1.62754136019156));
#694=CARTESIAN_POINT('',(-24.0459292400172,-0.868294859340572,1.55707334481987));
#695=CARTESIAN_POINT('',(-24.0450642000311,-0.870217610965783,1.51412998013692));
#696=CARTESIAN_POINT('',(-24.045063804177,-0.870218573713783,1.49728677788414));
#697=CARTESIAN_POINT('',(-24.4014014904565,-0.499999999999997,2.));
#698=CARTESIAN_POINT('',(-24.3905782753834,-0.518010645361908,1.99999828139437));
#699=CARTESIAN_POINT('',(-24.3646630818969,-0.561135480564138,1.99691033299243));
#700=CARTESIAN_POINT('',(-24.3225550976497,-0.631206342751505,1.97904720166388));
#701=CARTESIAN_POINT('',(-24.2772557232338,-0.706587922742375,1.94165127748043));
#702=CARTESIAN_POINT('',(-24.2353579922531,-0.776308915500236,1.88646008698518));
#703=CARTESIAN_POINT('',(-24.1995422500962,-0.835909023872907,1.81572422577467));
#704=CARTESIAN_POINT('',(-24.1718761117688,-0.881947579832653,1.73359744234497));
#705=CARTESIAN_POINT('',(-24.1534239460441,-0.912653392439859,1.6453389960797));
#706=CARTESIAN_POINT('',(-24.1451931226308,-0.926350119377235,1.56627077473603));
#707=CARTESIAN_POINT('',(-24.1438565320626,-0.928574316812718,1.51859042981326));
#708=CARTESIAN_POINT('',(-24.1438556625804,-0.928575767605,1.49999991726608));
#709=ORIENTED_EDGE('',*,*,#865,.F.);
#710=ORIENTED_EDGE('',*,*,#866,.F.);
#711=ORIENTED_EDGE('',*,*,#867,.F.);
#712=ORIENTED_EDGE('',*,*,#868,.F.);
#713=ORIENTED_EDGE('',*,*,#869,.F.);
#714=ORIENTED_EDGE('',*,*,#870,.F.);
#715=ORIENTED_EDGE('',*,*,#871,.F.);
#716=ORIENTED_EDGE('',*,*,#872,.F.);
#717=ORIENTED_EDGE('',*,*,#873,.F.);
#718=ORIENTED_EDGE('',*,*,#874,.F.);
#719=ORIENTED_EDGE('',*,*,#875,.F.);
#720=ORIENTED_EDGE('',*,*,#876,.F.);
#721=ORIENTED_EDGE('',*,*,#877,.T.);
#722=ORIENTED_EDGE('',*,*,#878,.T.);
#723=ORIENTED_EDGE('',*,*,#879,.T.);
#724=ORIENTED_EDGE('',*,*,#880,.T.);
#725=ORIENTED_EDGE('',*,*,#881,.T.);
#726=ORIENTED_EDGE('',*,*,#882,.T.);
#727=ORIENTED_EDGE('',*,*,#883,.T.);
#728=ORIENTED_EDGE('',*,*,#884,.T.);
#729=ORIENTED_EDGE('',*,*,#885,.T.);
#730=ORIENTED_EDGE('',*,*,#886,.T.);
#731=ORIENTED_EDGE('',*,*,#887,.T.);
#732=ORIENTED_EDGE('',*,*,#888,.T.);
#733=ORIENTED_EDGE('',*,*,#889,.T.);
#734=ORIENTED_EDGE('',*,*,#890,.T.);
#735=ORIENTED_EDGE('',*,*,#891,.T.);
#736=ORIENTED_EDGE('',*,*,#892,.T.);
#737=ORIENTED_EDGE('',*,*,#893,.T.);
#738=ORIENTED_EDGE('',*,*,#894,.T.);
#739=ORIENTED_EDGE('',*,*,#895,.F.);
#740=ORIENTED_EDGE('',*,*,#896,.F.);
#741=ORIENTED_EDGE('',*,*,#897,.F.);
#742=ORIENTED_EDGE('',*,*,#878,.F.);
#743=ORIENTED_EDGE('',*,*,#898,.F.);
#744=ORIENTED_EDGE('',*,*,#899,.F.);
#745=ORIENTED_EDGE('',*,*,#900,.F.);
#746=ORIENTED_EDGE('',*,*,#877,.F.);
#747=ORIENTED_EDGE('',*,*,#901,.F.);
#748=ORIENTED_EDGE('',*,*,#902,.F.);
#749=ORIENTED_EDGE('',*,*,#865,.T.);
#750=ORIENTED_EDGE('',*,*,#903,.T.);
#751=ORIENTED_EDGE('',*,*,#904,.F.);
#752=ORIENTED_EDGE('',*,*,#905,.F.);
#753=ORIENTED_EDGE('',*,*,#866,.T.);
#754=ORIENTED_EDGE('',*,*,#902,.T.);
#755=ORIENTED_EDGE('',*,*,#906,.F.);
#756=ORIENTED_EDGE('',*,*,#907,.F.);
#757=ORIENTED_EDGE('',*,*,#867,.T.);
#758=ORIENTED_EDGE('',*,*,#905,.T.);
#759=ORIENTED_EDGE('',*,*,#908,.F.);
#760=ORIENTED_EDGE('',*,*,#909,.F.);
#761=ORIENTED_EDGE('',*,*,#868,.T.);
#762=ORIENTED_EDGE('',*,*,#907,.T.);
#763=ORIENTED_EDGE('',*,*,#910,.F.);
#764=ORIENTED_EDGE('',*,*,#911,.F.);
#765=ORIENTED_EDGE('',*,*,#869,.T.);
#766=ORIENTED_EDGE('',*,*,#909,.T.);
#767=ORIENTED_EDGE('',*,*,#912,.F.);
#768=ORIENTED_EDGE('',*,*,#913,.F.);
#769=ORIENTED_EDGE('',*,*,#870,.T.);
#770=ORIENTED_EDGE('',*,*,#911,.T.);
#771=ORIENTED_EDGE('',*,*,#914,.F.);
#772=ORIENTED_EDGE('',*,*,#915,.F.);
#773=ORIENTED_EDGE('',*,*,#871,.T.);
#774=ORIENTED_EDGE('',*,*,#913,.T.);
#775=ORIENTED_EDGE('',*,*,#916,.F.);
#776=ORIENTED_EDGE('',*,*,#917,.F.);
#777=ORIENTED_EDGE('',*,*,#872,.T.);
#778=ORIENTED_EDGE('',*,*,#915,.T.);
#779=ORIENTED_EDGE('',*,*,#918,.F.);
#780=ORIENTED_EDGE('',*,*,#919,.F.);
#781=ORIENTED_EDGE('',*,*,#873,.T.);
#782=ORIENTED_EDGE('',*,*,#917,.T.);
#783=ORIENTED_EDGE('',*,*,#920,.F.);
#784=ORIENTED_EDGE('',*,*,#921,.F.);
#785=ORIENTED_EDGE('',*,*,#874,.T.);
#786=ORIENTED_EDGE('',*,*,#919,.T.);
#787=ORIENTED_EDGE('',*,*,#922,.F.);
#788=ORIENTED_EDGE('',*,*,#923,.F.);
#789=ORIENTED_EDGE('',*,*,#875,.T.);
#790=ORIENTED_EDGE('',*,*,#921,.T.);
#791=ORIENTED_EDGE('',*,*,#924,.F.);
#792=ORIENTED_EDGE('',*,*,#903,.F.);
#793=ORIENTED_EDGE('',*,*,#876,.T.);
#794=ORIENTED_EDGE('',*,*,#923,.T.);
#795=ORIENTED_EDGE('',*,*,#925,.T.);
#796=ORIENTED_EDGE('',*,*,#893,.F.);
#797=ORIENTED_EDGE('',*,*,#926,.F.);
#798=ORIENTED_EDGE('',*,*,#901,.T.);
#799=ORIENTED_EDGE('',*,*,#927,.T.);
#800=ORIENTED_EDGE('',*,*,#879,.F.);
#801=ORIENTED_EDGE('',*,*,#924,.T.);
#802=ORIENTED_EDGE('',*,*,#928,.T.);
#803=ORIENTED_EDGE('',*,*,#880,.F.);
#804=ORIENTED_EDGE('',*,*,#927,.F.);
#805=ORIENTED_EDGE('',*,*,#929,.T.);
#806=ORIENTED_EDGE('',*,*,#881,.F.);
#807=ORIENTED_EDGE('',*,*,#928,.F.);
#808=ORIENTED_EDGE('',*,*,#922,.T.);
#809=ORIENTED_EDGE('',*,*,#930,.T.);
#810=ORIENTED_EDGE('',*,*,#883,.F.);
#811=ORIENTED_EDGE('',*,*,#920,.T.);
#812=ORIENTED_EDGE('',*,*,#931,.T.);
#813=ORIENTED_EDGE('',*,*,#884,.F.);
#814=ORIENTED_EDGE('',*,*,#930,.F.);
#815=ORIENTED_EDGE('',*,*,#918,.T.);
#816=ORIENTED_EDGE('',*,*,#932,.T.);
#817=ORIENTED_EDGE('',*,*,#885,.F.);
#818=ORIENTED_EDGE('',*,*,#931,.F.);
#819=ORIENTED_EDGE('',*,*,#916,.T.);
#820=ORIENTED_EDGE('',*,*,#933,.T.);
#821=ORIENTED_EDGE('',*,*,#886,.F.);
#822=ORIENTED_EDGE('',*,*,#932,.F.);
#823=ORIENTED_EDGE('',*,*,#914,.T.);
#824=ORIENTED_EDGE('',*,*,#934,.T.);
#825=ORIENTED_EDGE('',*,*,#887,.F.);
#826=ORIENTED_EDGE('',*,*,#933,.F.);
#827=ORIENTED_EDGE('',*,*,#912,.T.);
#828=ORIENTED_EDGE('',*,*,#935,.T.);
#829=ORIENTED_EDGE('',*,*,#888,.F.);
#830=ORIENTED_EDGE('',*,*,#934,.F.);
#831=ORIENTED_EDGE('',*,*,#910,.T.);
#832=ORIENTED_EDGE('',*,*,#936,.T.);
#833=ORIENTED_EDGE('',*,*,#889,.F.);
#834=ORIENTED_EDGE('',*,*,#935,.F.);
#835=ORIENTED_EDGE('',*,*,#908,.T.);
#836=ORIENTED_EDGE('',*,*,#937,.T.);
#837=ORIENTED_EDGE('',*,*,#890,.F.);
#838=ORIENTED_EDGE('',*,*,#936,.F.);
#839=ORIENTED_EDGE('',*,*,#906,.T.);
#840=ORIENTED_EDGE('',*,*,#938,.T.);
#841=ORIENTED_EDGE('',*,*,#891,.F.);
#842=ORIENTED_EDGE('',*,*,#937,.F.);
#843=ORIENTED_EDGE('',*,*,#904,.T.);
#844=ORIENTED_EDGE('',*,*,#926,.T.);
#845=ORIENTED_EDGE('',*,*,#892,.F.);
#846=ORIENTED_EDGE('',*,*,#938,.F.);
#847=ORIENTED_EDGE('',*,*,#882,.F.);
#848=ORIENTED_EDGE('',*,*,#939,.F.);
#849=ORIENTED_EDGE('',*,*,#899,.T.);
#850=ORIENTED_EDGE('',*,*,#898,.T.);
#851=ORIENTED_EDGE('',*,*,#940,.T.);
#852=ORIENTED_EDGE('',*,*,#929,.F.);
#853=ORIENTED_EDGE('',*,*,#940,.F.);
#854=ORIENTED_EDGE('',*,*,#900,.T.);
#855=ORIENTED_EDGE('',*,*,#939,.T.);
#856=ORIENTED_EDGE('',*,*,#894,.F.);
#857=ORIENTED_EDGE('',*,*,#941,.F.);
#858=ORIENTED_EDGE('',*,*,#897,.T.);
#859=ORIENTED_EDGE('',*,*,#896,.T.);
#860=ORIENTED_EDGE('',*,*,#942,.T.);
#861=ORIENTED_EDGE('',*,*,#925,.F.);
#862=ORIENTED_EDGE('',*,*,#942,.F.);
#863=ORIENTED_EDGE('',*,*,#895,.T.);
#864=ORIENTED_EDGE('',*,*,#941,.T.);
#865=EDGE_CURVE('',#943,#944,#945,.T.);
#866=EDGE_CURVE('',#946,#943,#947,.T.);
#867=EDGE_CURVE('',#948,#946,#949,.T.);
#868=EDGE_CURVE('',#950,#948,#951,.T.);
#869=EDGE_CURVE('',#952,#950,#953,.T.);
#870=EDGE_CURVE('',#954,#952,#955,.T.);
#871=EDGE_CURVE('',#956,#954,#957,.T.);
#872=EDGE_CURVE('',#958,#956,#959,.T.);
#873=EDGE_CURVE('',#960,#958,#961,.T.);
#874=EDGE_CURVE('',#962,#960,#963,.T.);
#875=EDGE_CURVE('',#964,#962,#965,.T.);
#876=EDGE_CURVE('',#944,#964,#966,.T.);
#877=EDGE_CURVE('',#967,#967,#968,.T.);
#878=EDGE_CURVE('',#969,#969,#970,.T.);
#879=EDGE_CURVE('',#971,#972,#973,.T.);
#880=EDGE_CURVE('',#972,#974,#975,.T.);
#881=EDGE_CURVE('',#974,#976,#977,.T.);
#882=EDGE_CURVE('',#976,#978,#979,.F.);
#883=EDGE_CURVE('',#978,#980,#981,.T.);
#884=EDGE_CURVE('',#980,#982,#983,.T.);
#885=EDGE_CURVE('',#982,#984,#985,.T.);
#886=EDGE_CURVE('',#984,#986,#987,.T.);
#887=EDGE_CURVE('',#986,#988,#989,.T.);
#888=EDGE_CURVE('',#988,#990,#991,.T.);
#889=EDGE_CURVE('',#990,#992,#993,.T.);
#890=EDGE_CURVE('',#992,#994,#995,.T.);
#891=EDGE_CURVE('',#994,#996,#997,.T.);
#892=EDGE_CURVE('',#996,#998,#999,.T.);
#893=EDGE_CURVE('',#998,#1000,#1001,.T.);
#894=EDGE_CURVE('',#1000,#971,#1002,.F.);
#895=EDGE_CURVE('',#1003,#1004,#1005,.F.);
#896=EDGE_CURVE('',#1006,#1003,#1007,.F.);
#897=EDGE_CURVE('',#1004,#1006,#1008,.F.);
#898=EDGE_CURVE('',#1009,#1010,#1011,.F.);
#899=EDGE_CURVE('',#1012,#1009,#1013,.F.);
#900=EDGE_CURVE('',#1010,#1012,#1014,.F.);
#901=EDGE_CURVE('',#1015,#1016,#1017,.T.);
#902=EDGE_CURVE('',#943,#1015,#1018,.T.);
#903=EDGE_CURVE('',#944,#1016,#1019,.T.);
#904=EDGE_CURVE('',#1020,#1015,#1021,.T.);
#905=EDGE_CURVE('',#946,#1020,#1022,.T.);
#906=EDGE_CURVE('',#1023,#1020,#1024,.T.);
#907=EDGE_CURVE('',#948,#1023,#1025,.T.);
#908=EDGE_CURVE('',#1026,#1023,#1027,.T.);
#909=EDGE_CURVE('',#950,#1026,#1028,.T.);
#910=EDGE_CURVE('',#1029,#1026,#1030,.T.);
#911=EDGE_CURVE('',#952,#1029,#1031,.T.);
#912=EDGE_CURVE('',#1032,#1029,#1033,.T.);
#913=EDGE_CURVE('',#954,#1032,#1034,.T.);
#914=EDGE_CURVE('',#1035,#1032,#1036,.T.);
#915=EDGE_CURVE('',#956,#1035,#1037,.T.);
#916=EDGE_CURVE('',#1038,#1035,#1039,.T.);
#917=EDGE_CURVE('',#958,#1038,#1040,.T.);
#918=EDGE_CURVE('',#1041,#1038,#1042,.T.);
#919=EDGE_CURVE('',#960,#1041,#1043,.T.);
#920=EDGE_CURVE('',#1044,#1041,#1045,.T.);
#921=EDGE_CURVE('',#962,#1044,#1046,.T.);
#922=EDGE_CURVE('',#1047,#1044,#1048,.T.);
#923=EDGE_CURVE('',#964,#1047,#1049,.T.);
#924=EDGE_CURVE('',#1016,#1047,#1050,.T.);
#925=EDGE_CURVE('',#971,#1000,#1051,.F.);
#926=EDGE_CURVE('',#1015,#998,#1052,.T.);
#927=EDGE_CURVE('',#1016,#972,#1053,.T.);
#928=EDGE_CURVE('',#1047,#974,#1054,.T.);
#929=EDGE_CURVE('',#978,#976,#1055,.F.);
#930=EDGE_CURVE('',#1044,#980,#1056,.T.);
#931=EDGE_CURVE('',#1041,#982,#1057,.T.);
#932=EDGE_CURVE('',#1038,#984,#1058,.T.);
#933=EDGE_CURVE('',#1035,#986,#1059,.T.);
#934=EDGE_CURVE('',#1032,#988,#1060,.T.);
#935=EDGE_CURVE('',#1029,#990,#1061,.T.);
#936=EDGE_CURVE('',#1026,#992,#1062,.T.);
#937=EDGE_CURVE('',#1023,#994,#1063,.T.);
#938=EDGE_CURVE('',#1020,#996,#1064,.T.);
#939=EDGE_CURVE('',#1012,#976,#1065,.F.);
#940=EDGE_CURVE('',#1010,#978,#1066,.F.);
#941=EDGE_CURVE('',#1004,#1000,#1067,.F.);
#942=EDGE_CURVE('',#1003,#971,#1068,.F.);
#943=VERTEX_POINT('',#1069);
#944=VERTEX_POINT('',#1070);
#945=LINE('',#1071,#1072);
#946=VERTEX_POINT('',#1074);
#947=LINE('',#1075,#1076);
#948=VERTEX_POINT('',#1078);
#949=LINE('',#1079,#1080);
#950=VERTEX_POINT('',#1082);
#951=LINE('',#1083,#1084);
#952=VERTEX_POINT('',#1086);
#953=LINE('',#1087,#1088);
#954=VERTEX_POINT('',#1090);
#955=LINE('',#1091,#1092);
#956=VERTEX_POINT('',#1094);
#957=LINE('',#1095,#1096);
#958=VERTEX_POINT('',#1098);
#959=LINE('',#1099,#1100);
#960=VERTEX_POINT('',#1102);
#961=LINE('',#1103,#1104);
#962=VERTEX_POINT('',#1106);
#963=LINE('',#1107,#1108);
#964=VERTEX_POINT('',#1110);
#965=LINE('',#1111,#1112);
#966=LINE('',#1114,#1115);
#967=VERTEX_POINT('',#1117);
#968=CIRCLE('',#1118,1.25);
#969=VERTEX_POINT('',#1122);
#970=CIRCLE('',#1123,1.25);
#971=VERTEX_POINT('',#1127);
#972=VERTEX_POINT('',#1128);
#973=LINE('',#1129,#1130);
#974=VERTEX_POINT('',#1132);
#975=LINE('',#1133,#1134);
#976=VERTEX_POINT('',#1136);
#977=LINE('',#1137,#1138);
#978=VERTEX_POINT('',#1140);
#979=CIRCLE('',#1141,1.75);
#980=VERTEX_POINT('',#1145);
#981=LINE('',#1146,#1147);
#982=VERTEX_POINT('',#1149);
#983=LINE('',#1150,#1151);
#984=VERTEX_POINT('',#1153);
#985=LINE('',#1154,#1155);
#986=VERTEX_POINT('',#1157);
#987=LINE('',#1158,#1159);
#988=VERTEX_POINT('',#1161);
#989=LINE('',#1162,#1163);
#990=VERTEX_POINT('',#1165);
#991=LINE('',#1166,#1167);
#992=VERTEX_POINT('',#1169);
#993=LINE('',#1170,#1171);
#994=VERTEX_POINT('',#1173);
#995=LINE('',#1174,#1175);
#996=VERTEX_POINT('',#1177);
#997=LINE('',#1178,#1179);
#998=VERTEX_POINT('',#1181);
#999=LINE('',#1182,#1183);
#1000=VERTEX_POINT('',#1185);
#1001=LINE('',#1186,#1187);
#1002=CIRCLE('',#1189,1.75);
#1003=VERTEX_POINT('',#1193);
#1004=VERTEX_POINT('',#1194);
#1005=B_SPLINE_CURVE_WITH_KNOTS('',3,
(#1195,#1196,#1197,#1198,#1199,#1200,#1201,#1202,#1203,#1204,#1205,#1206,#1207,#1208,
#1209,#1210,#1211),
.UNSPECIFIED.,.F.,.F.,
(4,1,1,1,1,1,1,1,1,1,1,1,1,1,4),
(0.,0.0988502042568923,0.186520984255113,0.260433526450694,0.331740782420643,0.398500324217259,
0.46246080392562,0.525366675484917,0.588151751520095,0.653619488238798,0.724023237131258,
0.799318835419631,0.87687450283005,0.944064774305874,1.),
.UNSPECIFIED.);
#1006=VERTEX_POINT('',#1212);
#1007=CIRCLE('',#1213,1.25);
#1008=CIRCLE('',#1217,1.25);
#1009=VERTEX_POINT('',#1221);
#1010=VERTEX_POINT('',#1222);
#1011=CIRCLE('',#1223,1.25);
#1012=VERTEX_POINT('',#1227);
#1013=CIRCLE('',#1228,1.25);
#1014=B_SPLINE_CURVE_WITH_KNOTS('',3,
(#1232,#1233,#1234,#1235,#1236,#1237,#1238,#1239,#1240,#1241,#1242,#1243,#1244,#1245,
#1246,#1247,#1248),
.UNSPECIFIED.,.F.,.F.,
(4,1,1,1,1,1,1,1,1,1,1,1,1,1,4),
(0.,0.0988502042545906,0.186520984252094,0.260433526447952,0.331740782418351,0.39850032421521,
0.462460803924163,0.525366675483555,0.588151751518637,0.653619488237157,0.724023237128698,
0.799318835416715,0.876874502826172,0.944064774303501,1.),
.UNSPECIFIED.);
#1015=VERTEX_POINT('',#1249);
#1016=VERTEX_POINT('',#1250);
#1017=LINE('',#1251,#1252);
#1018=LINE('',#1254,#1255);
#1019=LINE('',#1257,#1258);
#1020=VERTEX_POINT('',#1260);
#1021=LINE('',#1261,#1262);
#1022=LINE('',#1264,#1265);
#1023=VERTEX_POINT('',#1267);
#1024=LINE('',#1268,#1269);
#1025=LINE('',#1271,#1272);
#1026=VERTEX_POINT('',#1274);
#1027=LINE('',#1275,#1276);
#1028=LINE('',#1278,#1279);
#1029=VERTEX_POINT('',#1281);
#1030=LINE('',#1282,#1283);
#1031=LINE('',#1285,#1286);
#1032=VERTEX_POINT('',#1288);
#1033=LINE('',#1289,#1290);
#1034=LINE('',#1292,#1293);
#1035=VERTEX_POINT('',#1295);
#1036=LINE('',#1296,#1297);
#1037=LINE('',#1299,#1300);
#1038=VERTEX_POINT('',#1302);
#1039=LINE('',#1303,#1304);
#1040=LINE('',#1306,#1307);
#1041=VERTEX_POINT('',#1309);
#1042=LINE('',#1310,#1311);
#1043=LINE('',#1313,#1314);
#1044=VERTEX_POINT('',#1316);
#1045=LINE('',#1317,#1318);
#1046=LINE('',#1320,#1321);
#1047=VERTEX_POINT('',#1323);
#1048=LINE('',#1324,#1325);
#1049=LINE('',#1327,#1328);
#1050=LINE('',#1330,#1331);
#1051=LINE('',#1333,#1334);
#1052=(BOUNDED_CURVE()B_SPLINE_CURVE(3,
(#1336,#1337,#1338,#1339),
.UNSPECIFIED.,.F.,.F.)B_SPLINE_CURVE_WITH_KNOTS((4,4),
(0.,1.),
.UNSPECIFIED.)CURVE()GEOMETRIC_REPRESENTATION_ITEM()RATIONAL_B_SPLINE_CURVE((1.,
0.804737854124365,0.804737854124365,1.))REPRESENTATION_ITEM(''));
#1053=(BOUNDED_CURVE()B_SPLINE_CURVE(3,
(#1340,#1341,#1342,#1343),
.UNSPECIFIED.,.F.,.F.)B_SPLINE_CURVE_WITH_KNOTS((4,4),
(0.,1.),
.UNSPECIFIED.)CURVE()GEOMETRIC_REPRESENTATION_ITEM()RATIONAL_B_SPLINE_CURVE((1.,
0.804737854124365,0.804737854124365,1.))REPRESENTATION_ITEM(''));
#1054=(BOUNDED_CURVE()B_SPLINE_CURVE(3,
(#1344,#1345,#1346,#1347),
.UNSPECIFIED.,.F.,.F.)B_SPLINE_CURVE_WITH_KNOTS((4,4),
(0.,1.),
.UNSPECIFIED.)CURVE()GEOMETRIC_REPRESENTATION_ITEM()RATIONAL_B_SPLINE_CURVE((1.,
0.804737854124365,0.804737854124365,1.))REPRESENTATION_ITEM(''));
#1055=LINE('',#1348,#1349);
#1056=(BOUNDED_CURVE()B_SPLINE_CURVE(3,
(#1351,#1352,#1353,#1354),
.UNSPECIFIED.,.F.,.F.)B_SPLINE_CURVE_WITH_KNOTS((4,4),
(0.,1.),
.UNSPECIFIED.)CURVE()GEOMETRIC_REPRESENTATION_ITEM()RATIONAL_B_SPLINE_CURVE((1.,
0.804737854124365,0.804737854124365,1.))REPRESENTATION_ITEM(''));
#1057=(BOUNDED_CURVE()B_SPLINE_CURVE(3,
(#1355,#1356,#1357,#1358),
.UNSPECIFIED.,.F.,.F.)B_SPLINE_CURVE_WITH_KNOTS((4,4),
(0.,1.),
.UNSPECIFIED.)CURVE()GEOMETRIC_REPRESENTATION_ITEM()RATIONAL_B_SPLINE_CURVE((1.,
0.804737854124365,0.804737854124365,1.))REPRESENTATION_ITEM(''));
#1058=(BOUNDED_CURVE()B_SPLINE_CURVE(3,
(#1359,#1360,#1361,#1362),
.UNSPECIFIED.,.F.,.F.)B_SPLINE_CURVE_WITH_KNOTS((4,4),
(0.,1.),
.UNSPECIFIED.)CURVE()GEOMETRIC_REPRESENTATION_ITEM()RATIONAL_B_SPLINE_CURVE((1.,
0.804737854124365,0.804737854124365,1.))REPRESENTATION_ITEM(''));
#1059=(BOUNDED_CURVE()B_SPLINE_CURVE(3,
(#1363,#1364,#1365,#1366),
.UNSPECIFIED.,.F.,.F.)B_SPLINE_CURVE_WITH_KNOTS((4,4),
(0.,1.),
.UNSPECIFIED.)CURVE()GEOMETRIC_REPRESENTATION_ITEM()RATIONAL_B_SPLINE_CURVE((1.,
0.804737854124365,0.804737854124365,1.))REPRESENTATION_ITEM(''));
#1060=(BOUNDED_CURVE()B_SPLINE_CURVE(3,
(#1367,#1368,#1369,#1370),
.UNSPECIFIED.,.F.,.F.)B_SPLINE_CURVE_WITH_KNOTS((4,4),
(0.,1.),
.UNSPECIFIED.)CURVE()GEOMETRIC_REPRESENTATION_ITEM()RATIONAL_B_SPLINE_CURVE((1.,
0.804737854124365,0.804737854124365,1.))REPRESENTATION_ITEM(''));
#1061=(BOUNDED_CURVE()B_SPLINE_CURVE(3,
(#1371,#1372,#1373,#1374),
.UNSPECIFIED.,.F.,.F.)B_SPLINE_CURVE_WITH_KNOTS((4,4),
(0.,1.),
.UNSPECIFIED.)CURVE()GEOMETRIC_REPRESENTATION_ITEM()RATIONAL_B_SPLINE_CURVE((1.,
0.804737854124365,0.804737854124365,1.))REPRESENTATION_ITEM(''));
#1062=(BOUNDED_CURVE()B_SPLINE_CURVE(3,
(#1375,#1376,#1377,#1378),
.UNSPECIFIED.,.F.,.F.)B_SPLINE_CURVE_WITH_KNOTS((4,4),
(0.,1.),
.UNSPECIFIED.)CURVE()GEOMETRIC_REPRESENTATION_ITEM()RATIONAL_B_SPLINE_CURVE((1.,
0.804737854124365,0.804737854124365,1.))REPRESENTATION_ITEM(''));
#1063=(BOUNDED_CURVE()B_SPLINE_CURVE(3,
(#1379,#1380,#1381,#1382),
.UNSPECIFIED.,.F.,.F.)B_SPLINE_CURVE_WITH_KNOTS((4,4),
(0.,1.),
.UNSPECIFIED.)CURVE()GEOMETRIC_REPRESENTATION_ITEM()RATIONAL_B_SPLINE_CURVE((1.,
0.804737854124365,0.804737854124365,1.))REPRESENTATION_ITEM(''));
#1064=(BOUNDED_CURVE()B_SPLINE_CURVE(3,
(#1383,#1384,#1385,#1386),
.UNSPECIFIED.,.F.,.F.)B_SPLINE_CURVE_WITH_KNOTS((4,4),
(0.,1.),
.UNSPECIFIED.)CURVE()GEOMETRIC_REPRESENTATION_ITEM()RATIONAL_B_SPLINE_CURVE((1.,
0.804737854124365,0.804737854124365,1.))REPRESENTATION_ITEM(''));
#1065=CIRCLE('',#1387,0.5);
#1066=CIRCLE('',#1391,0.5);
#1067=CIRCLE('',#1395,0.5);
#1068=CIRCLE('',#1399,0.5);
#1069=CARTESIAN_POINT('',(0.,0.,0.));
#1070=CARTESIAN_POINT('',(-26.,3.18408167778312E-15,0.));
#1071=CARTESIAN_POINT('',(0.,0.,0.));
#1072=VECTOR('',#1073,1.);
#1073=DIRECTION('',(-1.,1.22464679914735E-16,0.));
#1074=CARTESIAN_POINT('',(-1.22464679914735E-16,-1.,0.));
#1075=CARTESIAN_POINT('',(-1.22464679914735E-16,-1.,0.));
#1076=VECTOR('',#1077,1.);
#1077=DIRECTION('',(1.22464679914735E-16,1.,0.));
#1078=CARTESIAN_POINT('',(2.,-1.,0.));
#1079=CARTESIAN_POINT('',(2.,-1.,0.));
#1080=VECTOR('',#1081,1.);
#1081=DIRECTION('',(-1.,1.11022302462516E-16,0.));
#1082=CARTESIAN_POINT('',(2.,-3.,0.));
#1083=CARTESIAN_POINT('',(2.,-3.,0.));
#1084=VECTOR('',#1085,1.);
#1085=DIRECTION('',(1.11022302462516E-16,1.,0.));
#1086=CARTESIAN_POINT('',(-3.67394039744206E-16,-3.,0.));
#1087=CARTESIAN_POINT('',(-3.67394039744206E-16,-3.,0.));
#1088=VECTOR('',#1089,1.);
#1089=DIRECTION('',(1.,-2.22044604925031E-16,0.));
#1090=CARTESIAN_POINT('',(-1.10218211923262E-15,-9.,0.));
#1091=CARTESIAN_POINT('',(-1.10218211923262E-15,-9.,0.));
#1092=VECTOR('',#1093,1.);
#1093=DIRECTION('',(1.22464679914735E-16,1.,0.));
#1094=CARTESIAN_POINT('',(2.,-9.,0.));
#1095=CARTESIAN_POINT('',(2.,-9.,0.));
#1096=VECTOR('',#1097,1.);
#1097=DIRECTION('',(-1.,0.,0.));
#1098=CARTESIAN_POINT('',(2.,-11.,0.));
#1099=CARTESIAN_POINT('',(2.,-11.,0.));
#1100=VECTOR('',#1101,1.);
#1101=DIRECTION('',(1.11022302462516E-16,1.,0.));
#1102=CARTESIAN_POINT('',(-1.34711147906209E-15,-11.,0.));
#1103=CARTESIAN_POINT('',(-1.34711147906209E-15,-11.,0.));
#1104=VECTOR('',#1105,1.);
#1105=DIRECTION('',(1.,0.,0.));
#1106=CARTESIAN_POINT('',(-1.46957615897682E-15,-12.,0.));
#1107=CARTESIAN_POINT('',(-1.46957615897682E-15,-12.,0.));
#1108=VECTOR('',#1109,1.);
#1109=DIRECTION('',(1.22464679914735E-16,1.,0.));
#1110=CARTESIAN_POINT('',(-26.,-12.,0.));
#1111=CARTESIAN_POINT('',(-26.,-12.,0.));
#1112=VECTOR('',#1113,1.);
#1113=DIRECTION('',(1.,-1.36642833800019E-16,0.));
#1114=CARTESIAN_POINT('',(-26.,3.18408167778312E-15,0.));
#1115=VECTOR('',#1116,1.);
#1116=DIRECTION('',(0.,-1.,0.));
#1117=CARTESIAN_POINT('',(-24.75,-10.,0.));
#1118=AXIS2_PLACEMENT_3D('',#1119,#1120,#1121);
#1119=CARTESIAN_POINT('',(-23.5,-10.,0.));
#1120=DIRECTION('',(0.,0.,1.));
#1121=DIRECTION('',(-1.,1.22464679914735E-16,0.));
#1122=CARTESIAN_POINT('',(-24.75,-2.,0.));
#1123=AXIS2_PLACEMENT_3D('',#1124,#1125,#1126);
#1124=CARTESIAN_POINT('',(-23.5,-2.,0.));
#1125=DIRECTION('',(0.,0.,1.));
#1126=DIRECTION('',(-1.,1.22464679914735E-16,0.));
#1127=CARTESIAN_POINT('',(-24.401387818866,-0.499999999999997,2.));
#1128=CARTESIAN_POINT('',(-25.5,-0.499999999999996,2.));
#1129=CARTESIAN_POINT('',(-24.401387818866,-0.499999999999997,2.));
#1130=VECTOR('',#1131,1.);
#1131=DIRECTION('',(-1.,1.01056864623438E-16,0.));
#1132=CARTESIAN_POINT('',(-25.5,-11.5,2.));
#1133=CARTESIAN_POINT('',(-25.5,-0.499999999999997,2.));
#1134=VECTOR('',#1135,1.);
#1135=DIRECTION('',(3.22973970800046E-16,-1.,0.));
#1136=CARTESIAN_POINT('',(-24.401387818866,-11.5,2.));
#1137=CARTESIAN_POINT('',(-25.5,-11.5,2.));
#1138=VECTOR('',#1139,1.);
#1139=DIRECTION('',(1.,0.,0.));
#1140=CARTESIAN_POINT('',(-22.598612181134,-11.5,2.));
#1141=AXIS2_PLACEMENT_3D('',#1142,#1143,#1144);
#1142=CARTESIAN_POINT('',(-23.5,-10.,2.));
#1143=DIRECTION('',(0.,0.,1.));
#1144=DIRECTION('',(0.515078753637711,-0.857142857142858,0.));
#1145=CARTESIAN_POINT('',(-0.500000000000002,-11.5,2.));
#1146=CARTESIAN_POINT('',(-22.598612181134,-11.5,2.));
#1147=VECTOR('',#1148,1.);
#1148=DIRECTION('',(1.,-1.6076637074221E-16,0.));
#1149=CARTESIAN_POINT('',(-0.500000000000001,-10.5,2.));
#1150=CARTESIAN_POINT('',(-0.500000000000001,-11.5,2.));
#1151=VECTOR('',#1152,1.);
#1152=DIRECTION('',(0.,1.,0.));
#1153=CARTESIAN_POINT('',(1.5,-10.5,2.));
#1154=CARTESIAN_POINT('',(-0.500000000000001,-10.5,2.));
#1155=VECTOR('',#1156,1.);
#1156=DIRECTION('',(1.,0.,0.));
#1157=CARTESIAN_POINT('',(1.5,-9.5,2.));
#1158=CARTESIAN_POINT('',(1.5,-10.5,2.));
#1159=VECTOR('',#1160,1.);
#1160=DIRECTION('',(2.22044604925031E-16,1.,0.));
#1161=CARTESIAN_POINT('',(-0.500000000000001,-9.5,2.));
#1162=CARTESIAN_POINT('',(1.5,-9.5,2.));
#1163=VECTOR('',#1164,1.);
#1164=DIRECTION('',(-1.,0.,0.));
#1165=CARTESIAN_POINT('',(-0.5,-2.5,2.));
#1166=CARTESIAN_POINT('',(-0.500000000000001,-9.5,2.));
#1167=VECTOR('',#1168,1.);
#1168=DIRECTION('',(1.26882631385732E-16,1.,0.));
#1169=CARTESIAN_POINT('',(1.5,-2.5,2.));
#1170=CARTESIAN_POINT('',(-0.5,-2.5,2.));
#1171=VECTOR('',#1172,1.);
#1172=DIRECTION('',(1.,0.,0.));
#1173=CARTESIAN_POINT('',(1.5,-1.5,2.));
#1174=CARTESIAN_POINT('',(1.5,-2.5,2.));
#1175=VECTOR('',#1176,1.);
#1176=DIRECTION('',(0.,1.,0.));
#1177=CARTESIAN_POINT('',(-0.5,-1.5,2.));
#1178=CARTESIAN_POINT('',(1.5,-1.5,2.));
#1179=VECTOR('',#1180,1.);
#1180=DIRECTION('',(-1.,1.11022302462516E-16,0.));
#1181=CARTESIAN_POINT('',(-0.5,-0.5,2.));
#1182=CARTESIAN_POINT('',(-0.5,-1.5,2.));
#1183=VECTOR('',#1184,1.);
#1184=DIRECTION('',(2.22044604925031E-16,1.,0.));
#1185=CARTESIAN_POINT('',(-22.598612181134,-0.499999999999997,2.));
#1186=CARTESIAN_POINT('',(-0.5,-0.5,2.));
#1187=VECTOR('',#1188,1.);
#1188=DIRECTION('',(-1.,1.20574778056657E-16,0.));
#1189=AXIS2_PLACEMENT_3D('',#1190,#1191,#1192);
#1190=CARTESIAN_POINT('',(-23.5,-2.,2.));
#1191=DIRECTION('',(0.,0.,1.));
#1192=DIRECTION('',(-0.515078753637712,0.857142857142858,0.));
#1193=CARTESIAN_POINT('',(-24.1438484420471,-0.928571428571425,1.5));
#1194=CARTESIAN_POINT('',(-22.8561515579529,-0.928571428571425,1.5));
#1195=CARTESIAN_POINT('',(-22.8561515579529,-0.928571428571425,1.5));
#1196=CARTESIAN_POINT('',(-22.887229056609,-0.909896176085119,1.50051275059072));
#1197=CARTESIAN_POINT('',(-22.9508409200063,-0.875158021779538,1.50507973311857));
#1198=CARTESIAN_POINT('',(-23.0520483453168,-0.831395847008489,1.52084902388023));
#1199=CARTESIAN_POINT('',(-23.1518602973518,-0.798043924439241,1.53707678347749));
#1200=CARTESIAN_POINT('',(-23.2493009046543,-0.774040209685433,1.55107953025379));
#1201=CARTESIAN_POINT('',(-23.346810089244,-0.758158941702161,1.56137026210701));
#1202=CARTESIAN_POINT('',(-23.4429676992069,-0.750089360007031,1.5669170753976));
#1203=CARTESIAN_POINT('',(-23.538137022872,-0.749389878431617,1.5674125097759));
#1204=CARTESIAN_POINT('',(-23.6334043480666,-0.755916425115975,1.56289190335253));
#1205=CARTESIAN_POINT('',(-23.7300129831921,-0.770016391815887,1.55360477410781));
#1206=CARTESIAN_POINT('',(-23.8282773596091,-0.792430257160036,1.54017745145761));
#1207=CARTESIAN_POINT('',(-23.9254767745457,-0.823170291383942,1.5244892356863));
#1208=CARTESIAN_POINT('',(-24.0131659800312,-0.859003475011798,1.51064890085079));
#1209=CARTESIAN_POINT('',(-24.0856410502808,-0.894897388763851,1.50186810256873));
#1210=CARTESIAN_POINT('',(-24.1262243287257,-0.917980654527239,1.500201939254));
#1211=CARTESIAN_POINT('',(-24.1438484420471,-0.928571428571425,1.5));
#1212=CARTESIAN_POINT('',(-24.75,-2.,1.5));
#1213=AXIS2_PLACEMENT_3D('',#1214,#1215,#1216);
#1214=CARTESIAN_POINT('',(-23.5,-2.,1.5));
#1215=DIRECTION('',(0.,0.,1.));
#1216=DIRECTION('',(-0.515078753637712,0.857142857142857,0.));
#1217=AXIS2_PLACEMENT_3D('',#1218,#1219,#1220);
#1218=CARTESIAN_POINT('',(-23.5,-2.,1.5));
#1219=DIRECTION('',(0.,0.,1.));
#1220=DIRECTION('',(-1.,1.77635683940025E-16,0.));
#1221=CARTESIAN_POINT('',(-24.75,-10.,1.5));
#1222=CARTESIAN_POINT('',(-22.8561515579529,-11.0714285714286,1.5));
#1223=AXIS2_PLACEMENT_3D('',#1224,#1225,#1226);
#1224=CARTESIAN_POINT('',(-23.5,-10.,1.5));
#1225=DIRECTION('',(0.,0.,1.));
#1226=DIRECTION('',(0.51507875363771,-0.857142857142859,0.));
#1227=CARTESIAN_POINT('',(-24.1438484420471,-11.0714285714286,1.5));
#1228=AXIS2_PLACEMENT_3D('',#1229,#1230,#1231);
#1229=CARTESIAN_POINT('',(-23.5,-10.,1.5));
#1230=DIRECTION('',(0.,0.,1.));
#1231=DIRECTION('',(-1.,0.,0.));
#1232=CARTESIAN_POINT('',(-24.1438484420471,-11.0714285714286,1.5));
#1233=CARTESIAN_POINT('',(-24.1127709433917,-11.0901038239145,1.50051275059071));
#1234=CARTESIAN_POINT('',(-24.0491590799956,-11.1248419782195,1.50507973311837));
#1235=CARTESIAN_POINT('',(-23.9479516546864,-11.1686041529902,1.52084902387969));
#1236=CARTESIAN_POINT('',(-23.8481397026518,-11.2019560755597,1.53707678347693));
#1237=CARTESIAN_POINT('',(-23.750699095349,-11.2259597903139,1.55107953025337));
#1238=CARTESIAN_POINT('',(-23.6531899107588,-11.2418410582975,1.56137026210678));
#1239=CARTESIAN_POINT('',(-23.5570323007955,-11.2499106399929,1.56691707539753));
#1240=CARTESIAN_POINT('',(-23.4618629771301,-11.2506101215684,1.56741250977594));
#1241=CARTESIAN_POINT('',(-23.3665956519356,-11.2440835748843,1.56289190335269));
#1242=CARTESIAN_POINT('',(-23.2699870168106,-11.2299836081846,1.55360477410813));
#1243=CARTESIAN_POINT('',(-23.1717226403941,-11.2075697428408,1.5401774514581));
#1244=CARTESIAN_POINT('',(-23.0745232254582,-11.1768297086175,1.52448923568695));
#1245=CARTESIAN_POINT('',(-22.9868340199723,-11.1409965249898,1.5106489008513));
#1246=CARTESIAN_POINT('',(-22.9143589497213,-11.1051026112373,1.50186810256887));
#1247=CARTESIAN_POINT('',(-22.8737756712751,-11.0820193454732,1.50020193925401));
#1248=CARTESIAN_POINT('',(-22.8561515579529,-11.0714285714286,1.5));
#1249=CARTESIAN_POINT('',(6.16297582203915E-33,1.11022302462516E-16,1.5));
#1250=CARTESIAN_POINT('',(-26.,3.17410864898241E-15,1.5));
#1251=CARTESIAN_POINT('',(0.,0.,1.5));
#1252=VECTOR('',#1253,1.);
#1253=DIRECTION('',(-1.,1.23148624023001E-16,0.));
#1254=CARTESIAN_POINT('',(0.,0.,0.));
#1255=VECTOR('',#1256,1.);
#1256=DIRECTION('',(0.,0.,1.));
#1257=CARTESIAN_POINT('',(-26.,3.18408167778312E-15,0.));
#1258=VECTOR('',#1259,1.);
#1259=DIRECTION('',(0.,0.,1.));
#1260=CARTESIAN_POINT('',(-1.13882896825571E-16,-1.,1.5));
#1261=CARTESIAN_POINT('',(-1.16743491188626E-16,-1.,1.5));
#1262=VECTOR('',#1263,1.);
#1263=DIRECTION('',(1.16743491188625E-16,1.,0.));
#1264=CARTESIAN_POINT('',(-1.72254642419883E-16,-1.,0.));
#1265=VECTOR('',#1266,1.);
#1266=DIRECTION('',(0.,0.,1.));
#1267=CARTESIAN_POINT('',(2.,-1.,1.5));
#1268=CARTESIAN_POINT('',(2.,-1.,1.5));
#1269=VECTOR('',#1270,1.);
#1270=DIRECTION('',(-1.,1.11022302462516E-16,0.));
#1271=CARTESIAN_POINT('',(2.,-1.,0.));
#1272=VECTOR('',#1273,1.);
#1273=DIRECTION('',(0.,0.,1.));
#1274=CARTESIAN_POINT('',(2.,-3.,1.5));
#1275=CARTESIAN_POINT('',(2.,-3.,1.5));
#1276=VECTOR('',#1277,1.);
#1277=DIRECTION('',(2.22044604925031E-16,1.,0.));
#1278=CARTESIAN_POINT('',(2.,-3.,0.));
#1279=VECTOR('',#1280,1.);
#1280=DIRECTION('',(0.,0.,1.));
#1281=CARTESIAN_POINT('',(-3.77986049181505E-16,-3.,1.5));
#1282=CARTESIAN_POINT('',(-5.1676392725965E-16,-3.,1.5));
#1283=VECTOR('',#1284,1.);
#1284=DIRECTION('',(1.,-2.22044604925031E-16,0.));
#1285=CARTESIAN_POINT('',(-3.67394039744206E-16,-3.,0.));
#1286=VECTOR('',#1287,1.);
#1287=DIRECTION('',(0.,0.,1.));
#1288=CARTESIAN_POINT('',(-1.02494607143014E-15,-9.,1.5));
#1289=CARTESIAN_POINT('',(-1.10620257192889E-15,-9.,1.5));
#1290=VECTOR('',#1291,1.);
#1291=DIRECTION('',(1.35247208265711E-16,1.,0.));
#1292=CARTESIAN_POINT('',(-1.10620257192889E-15,-9.,0.));
#1293=VECTOR('',#1294,1.);
#1294=DIRECTION('',(0.,0.,1.));
#1295=CARTESIAN_POINT('',(2.,-9.,1.5));
#1296=CARTESIAN_POINT('',(2.,-9.,1.5));
#1297=VECTOR('',#1298,1.);
#1298=DIRECTION('',(-1.,0.,0.));
#1299=CARTESIAN_POINT('',(2.,-9.,0.));
#1300=VECTOR('',#1301,1.);
#1301=DIRECTION('',(0.,0.,1.));
#1302=CARTESIAN_POINT('',(2.,-11.,1.5));
#1303=CARTESIAN_POINT('',(2.,-11.,1.5));
#1304=VECTOR('',#1305,1.);
#1305=DIRECTION('',(2.22044604925031E-16,1.,0.));
#1306=CARTESIAN_POINT('',(2.,-11.,0.));
#1307=VECTOR('',#1308,1.);
#1308=DIRECTION('',(0.,0.,1.));
#1309=CARTESIAN_POINT('',(-1.36744512992177E-15,-11.,1.5));
#1310=CARTESIAN_POINT('',(-1.45071185676865E-15,-11.,1.5));
#1311=VECTOR('',#1312,1.);
#1312=DIRECTION('',(1.,0.,0.));
#1313=CARTESIAN_POINT('',(-1.34711147906209E-15,-11.,0.));
#1314=VECTOR('',#1315,1.);
#1315=DIRECTION('',(0.,0.,1.));
#1316=CARTESIAN_POINT('',(-7.28216522747382E-16,-12.,1.5));
#1317=CARTESIAN_POINT('',(-1.45643304549476E-15,-12.,1.5));
#1318=VECTOR('',#1319,1.);
#1319=DIRECTION('',(1.16743491188625E-16,1.,0.));
#1320=CARTESIAN_POINT('',(-7.34788079488412E-16,-12.,0.));
#1321=VECTOR('',#1322,1.);
#1322=DIRECTION('',(0.,0.,1.));
#1323=CARTESIAN_POINT('',(-26.,-12.,1.5));
#1324=CARTESIAN_POINT('',(-26.,-12.,1.5));
#1325=VECTOR('',#1326,1.);
#1326=DIRECTION('',(1.,-1.36642833800019E-16,0.));
#1327=CARTESIAN_POINT('',(-26.,-12.,0.));
#1328=VECTOR('',#1329,1.);
#1329=DIRECTION('',(0.,0.,1.));
#1330=CARTESIAN_POINT('',(-26.,3.14635307336678E-15,1.5));
#1331=VECTOR('',#1332,1.);
#1332=DIRECTION('',(0.,-1.,0.));
#1333=CARTESIAN_POINT('',(-22.598612181134,-0.499999999999997,2.));
#1334=VECTOR('',#1335,1.);
#1335=DIRECTION('',(-1.,1.23168185922664E-16,0.));
#1336=CARTESIAN_POINT('',(0.,0.,1.5));
#1337=CARTESIAN_POINT('',(1.11022302462516E-16,1.11022302462516E-16,1.79289321881345));
#1338=CARTESIAN_POINT('',(-0.207106781186547,-0.207106781186547,2.));
#1339=CARTESIAN_POINT('',(-0.5,-0.5,2.));
#1340=CARTESIAN_POINT('',(-26.,3.1641356201817E-15,1.5));
#1341=CARTESIAN_POINT('',(-26.,3.27515792264421E-15,1.79289321881345));
#1342=CARTESIAN_POINT('',(-25.7928932188135,-0.207106781186544,2.));
#1343=CARTESIAN_POINT('',(-25.5,-0.499999999999997,2.));
#1344=CARTESIAN_POINT('',(-26.,-12.,1.5));
#1345=CARTESIAN_POINT('',(-26.,-12.,1.79289321881345));
#1346=CARTESIAN_POINT('',(-25.7928932188135,-11.7928932188135,2.));
#1347=CARTESIAN_POINT('',(-25.5,-11.5,2.));
#1348=CARTESIAN_POINT('',(-24.401387818866,-11.5,2.));
#1349=VECTOR('',#1350,1.);
#1350=DIRECTION('',(1.,0.,0.));
#1351=CARTESIAN_POINT('',(3.5527136788005E-15,-12.,1.5));
#1352=CARTESIAN_POINT('',(2.66453525910038E-15,-12.,1.79289321881345));
#1353=CARTESIAN_POINT('',(-0.207106781186547,-11.7928932188135,2.));
#1354=CARTESIAN_POINT('',(-0.500000000000002,-11.5,2.));
#1355=CARTESIAN_POINT('',(-1.33226762955019E-15,-11.,1.5));
#1356=CARTESIAN_POINT('',(-1.27675647831893E-15,-11.,1.79289321881345));
#1357=CARTESIAN_POINT('',(-0.207106781186549,-10.7928932188135,2.));
#1358=CARTESIAN_POINT('',(-0.500000000000001,-10.5,2.));
#1359=CARTESIAN_POINT('',(2.,-11.,1.5));
#1360=CARTESIAN_POINT('',(2.,-11.,1.79289321881345));
#1361=CARTESIAN_POINT('',(1.79289321881345,-10.7928932188135,2.));
#1362=CARTESIAN_POINT('',(1.5,-10.5,2.));
#1363=CARTESIAN_POINT('',(2.,-9.,1.5));
#1364=CARTESIAN_POINT('',(2.,-9.,1.79289321881345));
#1365=CARTESIAN_POINT('',(1.79289321881345,-9.20710678118655,2.));
#1366=CARTESIAN_POINT('',(1.5,-9.5,2.));
#1367=CARTESIAN_POINT('',(-8.88178419700125E-16,-9.,1.5));
#1368=CARTESIAN_POINT('',(-8.88178419700125E-16,-9.,1.79289321881345));
#1369=CARTESIAN_POINT('',(-0.207106781186548,-9.20710678118655,2.));
#1370=CARTESIAN_POINT('',(-0.500000000000001,-9.5,2.));
#1371=CARTESIAN_POINT('',(-2.22044604925031E-16,-3.,1.5));
#1372=CARTESIAN_POINT('',(-2.22044604925031E-16,-3.,1.79289321881345));
#1373=CARTESIAN_POINT('',(-0.207106781186548,-2.79289321881345,2.));
#1374=CARTESIAN_POINT('',(-0.5,-2.5,2.));
#1375=CARTESIAN_POINT('',(2.,-3.,1.5));
#1376=CARTESIAN_POINT('',(2.,-3.,1.79289321881345));
#1377=CARTESIAN_POINT('',(1.79289321881345,-2.79289321881345,2.));
#1378=CARTESIAN_POINT('',(1.5,-2.5,2.));
#1379=CARTESIAN_POINT('',(2.,-1.,1.5));
#1380=CARTESIAN_POINT('',(2.,-1.,1.79289321881345));
#1381=CARTESIAN_POINT('',(1.79289321881345,-1.20710678118655,2.));
#1382=CARTESIAN_POINT('',(1.5,-1.5,2.));
#1383=CARTESIAN_POINT('',(0.,-1.,1.5));
#1384=CARTESIAN_POINT('',(0.,-1.,1.79289321881345));
#1385=CARTESIAN_POINT('',(-0.207106781186547,-1.20710678118655,2.));
#1386=CARTESIAN_POINT('',(-0.5,-1.5,2.));
#1387=AXIS2_PLACEMENT_3D('',#1388,#1389,#1390);
#1388=CARTESIAN_POINT('',(-24.401387818866,-11.5,1.5));
#1389=DIRECTION('',(-0.857142857142858,0.515078753637711,0.));
#1390=DIRECTION('',(0.,0.,1.));
#1391=AXIS2_PLACEMENT_3D('',#1392,#1393,#1394);
#1392=CARTESIAN_POINT('',(-22.598612181134,-11.5,1.5));
#1393=DIRECTION('',(-0.857142857142858,-0.515078753637711,0.));
#1394=DIRECTION('',(0.,0.,1.));
#1395=AXIS2_PLACEMENT_3D('',#1396,#1397,#1398);
#1396=CARTESIAN_POINT('',(-22.598612181134,-0.499999999999997,1.5));
#1397=DIRECTION('',(0.857142857142857,-0.515078753637713,0.));
#1398=DIRECTION('',(0.,0.,1.));
#1399=AXIS2_PLACEMENT_3D('',#1400,#1401,#1402);
#1400=CARTESIAN_POINT('',(-24.401387818866,-0.499999999999996,1.5));
#1401=DIRECTION('',(0.857142857142857,0.515078753637712,0.));
#1402=DIRECTION('',(0.,0.,1.));
ENDSEC;
END-ISO-10303-21;
