M48
; DRILL file KiCad 10.0.3 date 2026-06-17T15:55:12
; FORMAT={-:-/ absolute / metric / decimal}
; #@! TF.CreationDate,2026-06-17T15:55:12+03:00
; #@! TF.GenerationSoftware,Kicad,Pcbnew,10.0.3
; #@! TF.FileFunction,MixedPlating,1,2
FMAT,2
METRIC
; #@! TA.AperFunction,Plated,PTH,ViaDrill
T1C0.800
; #@! TA.AperFunction,Plated,PTH,ComponentDrill
T2C0.950
; #@! TA.AperFunction,Plated,PTH,ComponentDrill
T3C1.000
; #@! TA.AperFunction,Plated,PTH,ComponentDrill
T4C1.300
; #@! TA.AperFunction,Plated,PTH,ViaDrill
T5C2.000
%
G90
G05
T1
X53.95Y-77.431
X60.0Y-85.241
X61.0Y-101.0
X61.76Y-94.5
X63.77Y-72.5
X66.537Y-53.537
X66.865Y-64.0
X68.0Y-99.0
X68.586Y-77.5
X70.0Y-95.0
X71.0Y-85.0
X72.0Y-62.0
X73.0Y-97.0
X74.0Y-104.0
X75.0Y-77.0
X76.0Y-60.0
X77.06Y-106.94
X88.0Y-59.0
X95.0Y-54.0
X98.0Y-111.0
T2
X70.5Y-116.0
X73.0Y-116.0
X75.5Y-116.0
X78.0Y-116.0
T3
X72.0Y-53.0
X72.0Y-55.54
X79.76Y-58.68
X79.76Y-61.22
X79.76Y-63.76
X79.76Y-66.3
X79.76Y-68.84
X79.76Y-71.38
X79.76Y-73.92
X79.76Y-76.46
X79.76Y-79.0
X79.76Y-81.54
X79.76Y-84.08
X79.76Y-86.62
X79.76Y-89.16
X79.76Y-91.7
X79.76Y-94.24
X79.76Y-96.78
X79.76Y-99.32
X79.76Y-101.86
X79.76Y-104.4
X79.76Y-106.94
X87.5Y-115.0
X90.0Y-115.0
X95.0Y-58.68
X95.0Y-61.22
X95.0Y-63.76
X95.0Y-66.3
X95.0Y-68.84
X95.0Y-71.38
X95.0Y-73.92
X95.0Y-76.46
X95.0Y-79.0
X95.0Y-81.54
X95.0Y-84.08
X95.0Y-86.62
X95.0Y-89.16
X95.0Y-91.7
X95.0Y-94.24
X95.0Y-96.78
X95.0Y-99.32
X95.0Y-101.86
X95.0Y-104.4
X95.0Y-106.94
T4
X56.92Y-115.0
X62.0Y-115.0
T5
X52.5Y-52.5
X52.5Y-117.5
X97.5Y-52.5
X97.5Y-117.5
M30
