M48
; DRILL file KiCad 10.0.3 date 2026-08-16T21:57:21
; FORMAT={-:-/ absolute / metric / decimal}
; #@! TF.CreationDate,2026-08-16T21:57:21+03:00
; #@! TF.GenerationSoftware,Kicad,Pcbnew,10.0.3
; #@! TF.FileFunction,MixedPlating,1,2
FMAT,2
METRIC
; #@! TA.AperFunction,Plated,PTH,ViaDrill
T1C0.800
; #@! TA.AperFunction,Plated,PTH,ComponentDrill
T2C0.950
; #@! TA.AperFunction,Plated,PTH,ComponentDrill
T3C1.100
%
G90
G05
T1
X85.3Y-71.1
X85.3Y-77.1
X85.3Y-83.1
X85.3Y-89.1
X85.3Y-95.1
X85.3Y-101.1
X85.3Y-107.1
X85.3Y-113.1
X85.3Y-119.1
X85.3Y-125.1
X85.3Y-131.1
X85.3Y-137.1
X85.3Y-143.1
X99.0Y-72.7
X99.0Y-78.7
X99.0Y-84.7
X99.0Y-90.7
X99.0Y-96.7
X99.0Y-102.7
X99.0Y-108.7
X99.0Y-114.7
X99.0Y-120.7
X99.0Y-126.7
X99.0Y-132.7
X99.0Y-138.7
X99.0Y-144.7
T2
X90.0Y-72.5
X90.0Y-78.5
X90.0Y-84.5
X90.0Y-90.5
X90.0Y-96.5
X90.0Y-102.5
X90.0Y-108.5
X90.0Y-114.5
X90.0Y-120.5
X90.0Y-126.5
X90.0Y-132.5
X90.0Y-138.5
X90.0Y-144.5
X92.5Y-72.5
X92.5Y-78.5
X92.5Y-84.5
X92.5Y-90.5
X92.5Y-96.5
X92.5Y-102.5
X92.5Y-108.5
X92.5Y-114.5
X92.5Y-120.5
X92.5Y-126.5
X92.5Y-132.5
X92.5Y-138.5
X92.5Y-144.5
X95.0Y-72.5
X95.0Y-78.5
X95.0Y-84.5
X95.0Y-90.5
X95.0Y-96.5
X95.0Y-102.5
X95.0Y-108.5
X95.0Y-114.5
X95.0Y-120.5
X95.0Y-126.5
X95.0Y-132.5
X95.0Y-138.5
X95.0Y-144.5
T3
X71.84Y-72.0
X71.84Y-78.0
X71.84Y-84.0
X71.84Y-90.0
X71.84Y-96.0
X71.84Y-102.0
X71.84Y-108.0
X71.84Y-114.0
X71.84Y-120.0
X71.84Y-126.0
X71.84Y-132.0
X71.84Y-138.0
X71.84Y-144.0
X76.92Y-72.0
X76.92Y-78.0
X76.92Y-84.0
X76.92Y-90.0
X76.92Y-96.0
X76.92Y-102.0
X76.92Y-108.0
X76.92Y-114.0
X76.92Y-120.0
X76.92Y-126.0
X76.92Y-132.0
X76.92Y-138.0
X76.92Y-144.0
X82.0Y-72.0
X82.0Y-78.0
X82.0Y-84.0
X82.0Y-90.0
X82.0Y-96.0
X82.0Y-102.0
X82.0Y-108.0
X82.0Y-114.0
X82.0Y-120.0
X82.0Y-126.0
X82.0Y-132.0
X82.0Y-138.0
X82.0Y-144.0
X103.0Y-72.0
X103.0Y-78.0
X103.0Y-84.0
X103.0Y-90.0
X103.0Y-96.0
X103.0Y-102.0
X103.0Y-108.0
X103.0Y-114.0
X103.0Y-120.0
X103.0Y-126.0
X103.0Y-132.0
X103.0Y-138.0
X103.0Y-144.0
X108.08Y-72.0
X108.08Y-78.0
X108.08Y-84.0
X108.08Y-90.0
X108.08Y-96.0
X108.08Y-102.0
X108.08Y-108.0
X108.08Y-114.0
X108.08Y-120.0
X108.08Y-126.0
X108.08Y-132.0
X108.08Y-138.0
X108.08Y-144.0
X113.16Y-72.0
X113.16Y-78.0
X113.16Y-84.0
X113.16Y-90.0
X113.16Y-96.0
X113.16Y-102.0
X113.16Y-108.0
X113.16Y-114.0
X113.16Y-120.0
X113.16Y-126.0
X113.16Y-132.0
X113.16Y-138.0
X113.16Y-144.0
M30
