%TF.GenerationSoftware,KiCad,Pcbnew,10.0.3*%
%TF.CreationDate,2026-08-16T21:57:17+03:00*%
%TF.ProjectId,Switch,53776974-6368-42e6-9b69-6361645f7063,rev?*%
%TF.SameCoordinates,Original*%
%TF.FileFunction,Profile,NP*%
%FSLAX46Y46*%
G04 Gerber Fmt 4.6, Leading zero omitted, Abs format (unit mm)*
G04 Created by KiCad (PCBNEW 10.0.3) date 2026-08-16 21:57:17*
%MOMM*%
%LPD*%
G01*
G04 APERTURE LIST*
%TA.AperFunction,Profile*%
%ADD10C,0.050000*%
%TD*%
G04 APERTURE END LIST*
D10*
X69000000Y-141564967D02*
X116000000Y-141564967D01*
X116000000Y-146000000D01*
X69000000Y-146000000D01*
X69000000Y-141564967D01*
X69000000Y-135564967D02*
X116000000Y-135564967D01*
X116000000Y-140000000D01*
X69000000Y-140000000D01*
X69000000Y-135564967D01*
X69000000Y-129564967D02*
X116000000Y-129564967D01*
X116000000Y-134000000D01*
X69000000Y-134000000D01*
X69000000Y-129564967D01*
X69000000Y-123564967D02*
X116000000Y-123564967D01*
X116000000Y-128000000D01*
X69000000Y-128000000D01*
X69000000Y-123564967D01*
X69000000Y-117564967D02*
X116000000Y-117564967D01*
X116000000Y-122000000D01*
X69000000Y-122000000D01*
X69000000Y-117564967D01*
X69000000Y-111564967D02*
X116000000Y-111564967D01*
X116000000Y-116000000D01*
X69000000Y-116000000D01*
X69000000Y-111564967D01*
X69000000Y-105564967D02*
X116000000Y-105564967D01*
X116000000Y-110000000D01*
X69000000Y-110000000D01*
X69000000Y-105564967D01*
X69000000Y-99564967D02*
X116000000Y-99564967D01*
X116000000Y-104000000D01*
X69000000Y-104000000D01*
X69000000Y-99564967D01*
X69000000Y-93564967D02*
X116000000Y-93564967D01*
X116000000Y-98000000D01*
X69000000Y-98000000D01*
X69000000Y-93564967D01*
X69000000Y-87564967D02*
X116000000Y-87564967D01*
X116000000Y-92000000D01*
X69000000Y-92000000D01*
X69000000Y-87564967D01*
X69000000Y-81564967D02*
X116000000Y-81564967D01*
X116000000Y-86000000D01*
X69000000Y-86000000D01*
X69000000Y-81564967D01*
X69000000Y-75564967D02*
X116000000Y-75564967D01*
X116000000Y-80000000D01*
X69000000Y-80000000D01*
X69000000Y-75564967D01*
X69000000Y-69564967D02*
X116000000Y-69564967D01*
X116000000Y-74000000D01*
X69000000Y-74000000D01*
X69000000Y-69564967D01*
M02*
