ISO-10303-21;
HEADER;
FILE_DESCRIPTION(('STEP AP242'),
    '1');
FILE_NAME('CableChannelHolder',
    '',
    ('UNSPECIFIED'),
    ('UNSPECIFIED'),
    'C3D Converter',
    'C3D Toolkit',
    '');
FILE_SCHEMA(('AP242_MANAGED_MODEL_BASED_3D_ENGINEERING_MIM_LF { 1 0 10303 442 1 1 4 }'));
ENDSEC;

DATA;
#1=PRODUCT_DEFINITION('','UNSPECIFIED',#28,#31);
#2=SHAPE_DEFINITION_REPRESENTATION(#26,#3);
#3=SHAPE_REPRESENTATION('NONE',(#4),#8);
#4=AXIS2_PLACEMENT_3D('',#5,#6,#7);
#5=CARTESIAN_POINT('',(0.,0.,0.));
#6=DIRECTION('',(0.,0.,1.));
#7=DIRECTION('',(1.,0.,0.));
#8=(GEOMETRIC_REPRESENTATION_CONTEXT(3)GLOBAL_UNCERTAINTY_ASSIGNED_CONTEXT((#10))
GLOBAL_UNIT_ASSIGNED_CONTEXT((#9,#11,#12))REPRESENTATION_CONTEXT('NONE','NONE'));
#9=(LENGTH_UNIT()NAMED_UNIT(*)SI_UNIT(.MILLI.,.METRE.));
#10=UNCERTAINTY_MEASURE_WITH_UNIT(LENGTH_MEASURE(1.E-5),#9,'NONE','NONE');
#11=(NAMED_UNIT(*)PLANE_ANGLE_UNIT()SI_UNIT($,.RADIAN.));
#12=(NAMED_UNIT(*)SI_UNIT($,.STERADIAN.)SOLID_ANGLE_UNIT());
#13=MANIFOLD_SOLID_BREP('',#14);
#14=CLOSED_SHELL('',(#53,#54,#55,#56,#57,#58,#59,#60,#61,#62,#63,#64,#65,#66,#67,
#68,#69,#70,#71,#72));
#15=COLOUR_RGB('',0.564705882352941,0.564705882352941,0.564705882352941);
#16=FILL_AREA_STYLE_COLOUR('',#15);
#17=FILL_AREA_STYLE($,(#16));
#18=SURFACE_STYLE_FILL_AREA(#17);
#19=SURFACE_SIDE_STYLE('',(#18));
#20=SURFACE_STYLE_USAGE(.BOTH.,#19);
#21=PRESENTATION_STYLE_ASSIGNMENT((#20));
#22=MECHANICAL_DESIGN_GEOMETRIC_PRESENTATION_REPRESENTATION('NONE',(#23),#8);
#23=STYLED_ITEM('',(#21),#13);
#24=ADVANCED_BREP_SHAPE_REPRESENTATION('NONE',(#13),#8);
#25=SHAPE_REPRESENTATION_RELATIONSHIP('','',#3,#24);
#26=PRODUCT_DEFINITION_SHAPE('NONE','NONE',#1);
#27=MECHANICAL_CONTEXT('NONE',#32,'mechanical');
#28=PRODUCT_DEFINITION_FORMATION_WITH_SPECIFIED_SOURCE('ANY','UNSPECIFIED',#29,.NOT_KNOWN.);
#29=PRODUCT('','\X2\0414043504420430043B044C\X0\','NONE',(#27));
#30=PRODUCT_RELATED_PRODUCT_CATEGORY('detail','',(#29));
#31=DESIGN_CONTEXT('detailed design',#32,'design');
#32=APPLICATION_CONTEXT('configuration controlled 3d designs of mechanical parts and assemblies');
#33=APPLICATION_PROTOCOL_DEFINITION('international standard','config_control_design',
1994,#32);
#34=CC_DESIGN_DATE_AND_TIME_ASSIGNMENT(#35,#39,(#1));
#35=DATE_AND_TIME(#36,#37);
#36=CALENDAR_DATE(0,1,1);
#37=LOCAL_TIME(0,0,0.,#38);
#38=COORDINATED_UNIVERSAL_TIME_OFFSET(0,0,.AHEAD.);
#39=DATE_TIME_ROLE('creation_date');
#40=CC_DESIGN_APPROVAL(#41,(#1));
#41=APPROVAL(#42,'UNSPECIFIED');
#42=APPROVAL_STATUS('not_yet_approved');
#43=APPROVAL_DATE_TIME(#44,#41);
#44=DATE_AND_TIME(#45,#46);
#45=CALENDAR_DATE(0,1,1);
#46=LOCAL_TIME(0,0,0.,#47);
#47=COORDINATED_UNIVERSAL_TIME_OFFSET(0,0,.AHEAD.);
#48=PERSON('UNSPECIFIED','Cybermeatball','UNSPECIFIED',('UNSPECIFIED'),('UNSPECIFIED'),
('UNSPECIFIED'));
#49=ORGANIZATION('UNSPECIFIED','UNSPECIFIED','UNSPECIFIED');
#50=PERSON_AND_ORGANIZATION(#48,#49);
#51=PERSON_AND_ORGANIZATION_ROLE('creator');
#52=CC_DESIGN_PERSON_AND_ORGANIZATION_ASSIGNMENT(#50,#51,(#28,#1));
#53=ADVANCED_FACE('',(#73,#75,#77),#79,.T.);
#54=ADVANCED_FACE('',(#84,#86,#88),#90,.T.);
#55=ADVANCED_FACE('',(#95,#97),#99,.F.);
#56=ADVANCED_FACE('',(#104,#106),#108,.F.);
#57=ADVANCED_FACE('',(#113),#115,.T.);
#58=ADVANCED_FACE('',(#120),#122,.F.);
#59=ADVANCED_FACE('',(#127),#129,.T.);
#60=ADVANCED_FACE('',(#134),#136,.T.);
#61=ADVANCED_FACE('',(#141,#143),#145,.F.);
#62=ADVANCED_FACE('',(#150),#152,.T.);
#63=ADVANCED_FACE('',(#157),#159,.T.);
#64=ADVANCED_FACE('',(#164,#166),#168,.F.);
#65=ADVANCED_FACE('',(#173),#175,.T.);
#66=ADVANCED_FACE('',(#180,#182,#184),#186,.T.);
#67=ADVANCED_FACE('',(#191),#193,.T.);
#68=ADVANCED_FACE('',(#198),#200,.F.);
#69=ADVANCED_FACE('',(#205),#207,.T.);
#70=ADVANCED_FACE('',(#212),#214,.F.);
#71=ADVANCED_FACE('',(#219,#221),#223,.F.);
#72=ADVANCED_FACE('',(#228,#230),#232,.F.);
#73=FACE_BOUND('',#74,.T.);
#74=EDGE_LOOP('',(#237,#238,#239,#240));
#75=FACE_BOUND('',#76,.T.);
#76=EDGE_LOOP('',(#241));
#77=FACE_BOUND('',#78,.T.);
#78=EDGE_LOOP('',(#242));
#79=PLANE('',#80);
#80=AXIS2_PLACEMENT_3D('',#81,#82,#83);
#81=CARTESIAN_POINT('',(3.,8.00000000000012,0.));
#82=DIRECTION('',(1.,-2.2204460492503E-16,0.));
#83=DIRECTION('',(-2.2204460492503E-16,-1.,0.));
#84=FACE_BOUND('',#85,.T.);
#85=EDGE_LOOP('',(#243,#244,#245,#246,#247,#248,#249,#250));
#86=FACE_BOUND('',#87,.T.);
#87=EDGE_LOOP('',(#251));
#88=FACE_BOUND('',#89,.T.);
#89=EDGE_LOOP('',(#252));
#90=PLANE('',#91);
#91=AXIS2_PLACEMENT_3D('',#92,#93,#94);
#92=CARTESIAN_POINT('',(1.44580705878124E-15,13.,0.));
#93=DIRECTION('',(-1.,0.,0.));
#94=DIRECTION('',(0.,-1.,0.));
#95=FACE_OUTER_BOUND('',#96,.T.);
#96=EDGE_LOOP('',(#253));
#97=FACE_OUTER_BOUND('',#98,.T.);
#98=EDGE_LOOP('',(#254));
#99=CYLINDRICAL_SURFACE('',#100,1.4);
#100=AXIS2_PLACEMENT_3D('',#101,#102,#103);
#101=CARTESIAN_POINT('',(4.,3.00520382004283,-3.99479617995717));
#102=DIRECTION('',(-1.,0.,0.));
#103=DIRECTION('',(0.,1.,-6.12323399573677E-17));
#104=FACE_OUTER_BOUND('',#105,.T.);
#105=EDGE_LOOP('',(#255));
#106=FACE_OUTER_BOUND('',#107,.T.);
#107=EDGE_LOOP('',(#256));
#108=CYLINDRICAL_SURFACE('',#109,1.4);
#109=AXIS2_PLACEMENT_3D('',#110,#111,#112);
#110=CARTESIAN_POINT('',(4.,-3.00520382004283,-10.0052038200428));
#111=DIRECTION('',(-1.,0.,0.));
#112=DIRECTION('',(0.,1.,-6.12323399573677E-17));
#113=FACE_BOUND('',#114,.T.);
#114=EDGE_LOOP('',(#257,#258,#259));
#115=PLANE('',#116);
#116=AXIS2_PLACEMENT_3D('',#117,#118,#119);
#117=CARTESIAN_POINT('',(3.,6.50000000000012,-1.58151397143962E-15));
#118=DIRECTION('',(-1.48029736616687E-16,-1.,6.34413156928661E-17));
#119=DIRECTION('',(0.,-6.34413156928661E-17,-1.));
#120=FACE_BOUND('',#121,.T.);
#121=EDGE_LOOP('',(#260,#261,#262,#263));
#122=PLANE('',#123);
#123=AXIS2_PLACEMENT_3D('',#124,#125,#126);
#124=CARTESIAN_POINT('',(0.,0.,0.));
#125=DIRECTION('',(0.,0.,1.));
#126=DIRECTION('',(1.,0.,0.));
#127=FACE_BOUND('',#128,.T.);
#128=EDGE_LOOP('',(#264,#265,#266));
#129=PLANE('',#130);
#130=AXIS2_PLACEMENT_3D('',#131,#132,#133);
#131=CARTESIAN_POINT('',(3.,-6.49999999999999,-14.));
#132=DIRECTION('',(1.48029736616687E-16,1.,-6.34413156928661E-17));
#133=DIRECTION('',(0.,6.34413156928661E-17,1.));
#134=FACE_BOUND('',#135,.T.);
#135=EDGE_LOOP('',(#267,#268,#269,#270,#271,#272));
#136=PLANE('',#137);
#137=AXIS2_PLACEMENT_3D('',#138,#139,#140);
#138=CARTESIAN_POINT('',(0.,0.,-14.));
#139=DIRECTION('',(0.,0.,-1.));
#140=DIRECTION('',(-1.,0.,0.));
#141=FACE_BOUND('',#142,.T.);
#142=EDGE_LOOP('',(#273,#274,#275,#276));
#143=FACE_BOUND('',#144,.T.);
#144=EDGE_LOOP('',(#277));
#145=PLANE('',#146);
#146=AXIS2_PLACEMENT_3D('',#147,#148,#149);
#147=CARTESIAN_POINT('',(0.,0.,0.));
#148=DIRECTION('',(0.,0.,1.));
#149=DIRECTION('',(1.,0.,0.));
#150=FACE_BOUND('',#151,.T.);
#151=EDGE_LOOP('',(#278,#279,#280,#281));
#152=PLANE('',#153);
#153=AXIS2_PLACEMENT_3D('',#154,#155,#156);
#154=CARTESIAN_POINT('',(0.,7.99999999999986,0.));
#155=DIRECTION('',(-8.43769498715119E-14,1.,0.));
#156=DIRECTION('',(1.,8.43769498715119E-14,0.));
#157=FACE_BOUND('',#158,.T.);
#158=EDGE_LOOP('',(#282,#283,#284,#285));
#159=PLANE('',#160);
#160=AXIS2_PLACEMENT_3D('',#161,#162,#163);
#161=CARTESIAN_POINT('',(3.,-7.99999999999999,0.));
#162=DIRECTION('',(7.69754630406776E-15,-1.,0.));
#163=DIRECTION('',(-1.,-7.69754630406776E-15,0.));
#164=FACE_BOUND('',#165,.T.);
#165=EDGE_LOOP('',(#286,#287,#288,#289));
#166=FACE_BOUND('',#167,.T.);
#167=EDGE_LOOP('',(#290));
#168=PLANE('',#169);
#169=AXIS2_PLACEMENT_3D('',#170,#171,#172);
#170=CARTESIAN_POINT('',(0.,0.,0.));
#171=DIRECTION('',(0.,0.,1.));
#172=DIRECTION('',(1.,0.,0.));
#173=FACE_BOUND('',#174,.T.);
#174=EDGE_LOOP('',(#291,#292,#293,#294));
#175=PLANE('',#176);
#176=AXIS2_PLACEMENT_3D('',#177,#178,#179);
#177=CARTESIAN_POINT('',(1.44580705878124E-15,-13.,0.));
#178=DIRECTION('',(0.,-1.,0.));
#179=DIRECTION('',(1.,0.,0.));
#180=FACE_BOUND('',#181,.T.);
#181=EDGE_LOOP('',(#295,#296,#297,#298));
#182=FACE_BOUND('',#183,.T.);
#183=EDGE_LOOP('',(#299));
#184=FACE_BOUND('',#185,.T.);
#185=EDGE_LOOP('',(#300));
#186=PLANE('',#187);
#187=AXIS2_PLACEMENT_3D('',#188,#189,#190);
#188=CARTESIAN_POINT('',(0.,0.,2.));
#189=DIRECTION('',(0.,0.,1.));
#190=DIRECTION('',(1.,0.,0.));
#191=FACE_BOUND('',#192,.T.);
#192=EDGE_LOOP('',(#301,#302,#303,#304));
#193=PLANE('',#194);
#194=AXIS2_PLACEMENT_3D('',#195,#196,#197);
#195=CARTESIAN_POINT('',(8.,13.,0.));
#196=DIRECTION('',(0.,1.,0.));
#197=DIRECTION('',(-1.,0.,0.));
#198=FACE_BOUND('',#199,.T.);
#199=EDGE_LOOP('',(#305,#306,#307,#308));
#200=PLANE('',#201);
#201=AXIS2_PLACEMENT_3D('',#202,#203,#204);
#202=CARTESIAN_POINT('',(7.99999999999987,9.00000000000077,1.63286239886314E-16));
#203=DIRECTION('',(-0.941741911594838,-7.28190333736677E-15,0.336336396998156));
#204=DIRECTION('',(-0.336336396998156,-2.62879522024642E-15,-0.941741911594838));
#205=FACE_BOUND('',#206,.T.);
#206=EDGE_LOOP('',(#309,#310,#311,#312,#313,#314,#315,#316));
#207=PLANE('',#208);
#208=AXIS2_PLACEMENT_3D('',#209,#210,#211);
#209=CARTESIAN_POINT('',(8.,-13.,0.));
#210=DIRECTION('',(1.,0.,0.));
#211=DIRECTION('',(0.,1.,0.));
#212=FACE_BOUND('',#213,.T.);
#213=EDGE_LOOP('',(#317,#318,#319,#320));
#214=PLANE('',#215);
#215=AXIS2_PLACEMENT_3D('',#216,#217,#218);
#216=CARTESIAN_POINT('',(7.99999999999987,9.00000000000077,1.63286239886314E-16));
#217=DIRECTION('',(-0.941741911594838,-7.28190333736677E-15,0.336336396998156));
#218=DIRECTION('',(-0.336336396998156,-2.62879522024642E-15,-0.941741911594838));
#219=FACE_OUTER_BOUND('',#220,.T.);
#220=EDGE_LOOP('',(#321));
#221=FACE_OUTER_BOUND('',#222,.T.);
#222=EDGE_LOOP('',(#322));
#223=CYLINDRICAL_SURFACE('',#224,1.6);
#224=AXIS2_PLACEMENT_3D('',#225,#226,#227);
#225=CARTESIAN_POINT('',(4.,10.5,2.));
#226=DIRECTION('',(0.,0.,-1.));
#227=DIRECTION('',(-6.12323399573677E-17,-1.,0.));
#228=FACE_OUTER_BOUND('',#229,.T.);
#229=EDGE_LOOP('',(#323));
#230=FACE_OUTER_BOUND('',#231,.T.);
#231=EDGE_LOOP('',(#324));
#232=CYLINDRICAL_SURFACE('',#233,1.6);
#233=AXIS2_PLACEMENT_3D('',#234,#235,#236);
#234=CARTESIAN_POINT('',(4.,-10.5,2.));
#235=DIRECTION('',(0.,0.,-1.));
#236=DIRECTION('',(-6.12323399573677E-17,-1.,0.));
#237=ORIENTED_EDGE('',*,*,#325,.F.);
#238=ORIENTED_EDGE('',*,*,#326,.T.);
#239=ORIENTED_EDGE('',*,*,#327,.F.);
#240=ORIENTED_EDGE('',*,*,#328,.F.);
#241=ORIENTED_EDGE('',*,*,#329,.T.);
#242=ORIENTED_EDGE('',*,*,#330,.T.);
#243=ORIENTED_EDGE('',*,*,#331,.T.);
#244=ORIENTED_EDGE('',*,*,#332,.T.);
#245=ORIENTED_EDGE('',*,*,#333,.F.);
#246=ORIENTED_EDGE('',*,*,#334,.F.);
#247=ORIENTED_EDGE('',*,*,#335,.T.);
#248=ORIENTED_EDGE('',*,*,#336,.T.);
#249=ORIENTED_EDGE('',*,*,#337,.F.);
#250=ORIENTED_EDGE('',*,*,#338,.F.);
#251=ORIENTED_EDGE('',*,*,#339,.T.);
#252=ORIENTED_EDGE('',*,*,#340,.T.);
#253=ORIENTED_EDGE('',*,*,#330,.F.);
#254=ORIENTED_EDGE('',*,*,#340,.F.);
#255=ORIENTED_EDGE('',*,*,#329,.F.);
#256=ORIENTED_EDGE('',*,*,#339,.F.);
#257=ORIENTED_EDGE('',*,*,#341,.T.);
#258=ORIENTED_EDGE('',*,*,#342,.T.);
#259=ORIENTED_EDGE('',*,*,#325,.T.);
#260=ORIENTED_EDGE('',*,*,#342,.F.);
#261=ORIENTED_EDGE('',*,*,#343,.F.);
#262=ORIENTED_EDGE('',*,*,#344,.F.);
#263=ORIENTED_EDGE('',*,*,#326,.F.);
#264=ORIENTED_EDGE('',*,*,#345,.T.);
#265=ORIENTED_EDGE('',*,*,#327,.T.);
#266=ORIENTED_EDGE('',*,*,#344,.T.);
#267=ORIENTED_EDGE('',*,*,#346,.T.);
#268=ORIENTED_EDGE('',*,*,#347,.F.);
#269=ORIENTED_EDGE('',*,*,#333,.T.);
#270=ORIENTED_EDGE('',*,*,#348,.T.);
#271=ORIENTED_EDGE('',*,*,#349,.T.);
#272=ORIENTED_EDGE('',*,*,#328,.T.);
#273=ORIENTED_EDGE('',*,*,#350,.F.);
#274=ORIENTED_EDGE('',*,*,#331,.F.);
#275=ORIENTED_EDGE('',*,*,#351,.F.);
#276=ORIENTED_EDGE('',*,*,#352,.F.);
#277=ORIENTED_EDGE('',*,*,#353,.T.);
#278=ORIENTED_EDGE('',*,*,#354,.T.);
#279=ORIENTED_EDGE('',*,*,#348,.F.);
#280=ORIENTED_EDGE('',*,*,#332,.F.);
#281=ORIENTED_EDGE('',*,*,#350,.T.);
#282=ORIENTED_EDGE('',*,*,#355,.T.);
#283=ORIENTED_EDGE('',*,*,#356,.T.);
#284=ORIENTED_EDGE('',*,*,#334,.T.);
#285=ORIENTED_EDGE('',*,*,#347,.T.);
#286=ORIENTED_EDGE('',*,*,#356,.F.);
#287=ORIENTED_EDGE('',*,*,#357,.F.);
#288=ORIENTED_EDGE('',*,*,#358,.F.);
#289=ORIENTED_EDGE('',*,*,#335,.F.);
#290=ORIENTED_EDGE('',*,*,#359,.T.);
#291=ORIENTED_EDGE('',*,*,#358,.T.);
#292=ORIENTED_EDGE('',*,*,#360,.T.);
#293=ORIENTED_EDGE('',*,*,#361,.F.);
#294=ORIENTED_EDGE('',*,*,#336,.F.);
#295=ORIENTED_EDGE('',*,*,#362,.T.);
#296=ORIENTED_EDGE('',*,*,#337,.T.);
#297=ORIENTED_EDGE('',*,*,#361,.T.);
#298=ORIENTED_EDGE('',*,*,#363,.T.);
#299=ORIENTED_EDGE('',*,*,#364,.T.);
#300=ORIENTED_EDGE('',*,*,#365,.T.);
#301=ORIENTED_EDGE('',*,*,#351,.T.);
#302=ORIENTED_EDGE('',*,*,#338,.T.);
#303=ORIENTED_EDGE('',*,*,#362,.F.);
#304=ORIENTED_EDGE('',*,*,#366,.F.);
#305=ORIENTED_EDGE('',*,*,#354,.F.);
#306=ORIENTED_EDGE('',*,*,#367,.F.);
#307=ORIENTED_EDGE('',*,*,#341,.F.);
#308=ORIENTED_EDGE('',*,*,#349,.F.);
#309=ORIENTED_EDGE('',*,*,#367,.T.);
#310=ORIENTED_EDGE('',*,*,#352,.T.);
#311=ORIENTED_EDGE('',*,*,#366,.T.);
#312=ORIENTED_EDGE('',*,*,#363,.F.);
#313=ORIENTED_EDGE('',*,*,#360,.F.);
#314=ORIENTED_EDGE('',*,*,#357,.T.);
#315=ORIENTED_EDGE('',*,*,#368,.T.);
#316=ORIENTED_EDGE('',*,*,#343,.T.);
#317=ORIENTED_EDGE('',*,*,#355,.F.);
#318=ORIENTED_EDGE('',*,*,#346,.F.);
#319=ORIENTED_EDGE('',*,*,#345,.F.);
#320=ORIENTED_EDGE('',*,*,#368,.F.);
#321=ORIENTED_EDGE('',*,*,#364,.F.);
#322=ORIENTED_EDGE('',*,*,#353,.F.);
#323=ORIENTED_EDGE('',*,*,#365,.F.);
#324=ORIENTED_EDGE('',*,*,#359,.F.);
#325=EDGE_CURVE('',#369,#370,#371,.T.);
#326=EDGE_CURVE('',#369,#372,#373,.F.);
#327=EDGE_CURVE('',#374,#372,#375,.T.);
#328=EDGE_CURVE('',#370,#374,#376,.T.);
#329=EDGE_CURVE('',#377,#377,#378,.T.);
#330=EDGE_CURVE('',#379,#379,#380,.T.);
#331=EDGE_CURVE('',#381,#382,#383,.T.);
#332=EDGE_CURVE('',#382,#384,#385,.T.);
#333=EDGE_CURVE('',#386,#384,#387,.T.);
#334=EDGE_CURVE('',#388,#386,#389,.T.);
#335=EDGE_CURVE('',#388,#390,#391,.T.);
#336=EDGE_CURVE('',#390,#392,#393,.T.);
#337=EDGE_CURVE('',#394,#392,#395,.T.);
#338=EDGE_CURVE('',#381,#394,#396,.T.);
#339=EDGE_CURVE('',#397,#397,#398,.F.);
#340=EDGE_CURVE('',#399,#399,#400,.F.);
#341=EDGE_CURVE('',#370,#401,#402,.F.);
#342=EDGE_CURVE('',#401,#369,#403,.F.);
#343=EDGE_CURVE('',#404,#401,#405,.T.);
#344=EDGE_CURVE('',#372,#404,#406,.F.);
#345=EDGE_CURVE('',#404,#374,#407,.F.);
#346=EDGE_CURVE('',#374,#408,#409,.F.);
#347=EDGE_CURVE('',#386,#408,#410,.T.);
#348=EDGE_CURVE('',#384,#411,#412,.T.);
#349=EDGE_CURVE('',#411,#370,#413,.F.);
#350=EDGE_CURVE('',#382,#414,#415,.F.);
#351=EDGE_CURVE('',#416,#381,#417,.T.);
#352=EDGE_CURVE('',#414,#416,#418,.T.);
#353=EDGE_CURVE('',#419,#419,#420,.F.);
#354=EDGE_CURVE('',#414,#411,#421,.F.);
#355=EDGE_CURVE('',#408,#422,#423,.F.);
#356=EDGE_CURVE('',#422,#388,#424,.F.);
#357=EDGE_CURVE('',#425,#422,#426,.T.);
#358=EDGE_CURVE('',#390,#425,#427,.T.);
#359=EDGE_CURVE('',#428,#428,#429,.F.);
#360=EDGE_CURVE('',#425,#430,#431,.T.);
#361=EDGE_CURVE('',#392,#430,#432,.T.);
#362=EDGE_CURVE('',#433,#394,#434,.T.);
#363=EDGE_CURVE('',#430,#433,#435,.T.);
#364=EDGE_CURVE('',#436,#436,#437,.T.);
#365=EDGE_CURVE('',#438,#438,#439,.T.);
#366=EDGE_CURVE('',#416,#433,#440,.T.);
#367=EDGE_CURVE('',#401,#414,#441,.F.);
#368=EDGE_CURVE('',#422,#404,#442,.F.);
#369=VERTEX_POINT('',#443);
#370=VERTEX_POINT('',#444);
#371=LINE('',#445,#446);
#372=VERTEX_POINT('',#448);
#373=LINE('',#449,#450);
#374=VERTEX_POINT('',#452);
#375=LINE('',#453,#454);
#376=LINE('',#456,#457);
#377=VERTEX_POINT('',#459);
#378=CIRCLE('',#460,1.4);
#379=VERTEX_POINT('',#464);
#380=CIRCLE('',#465,1.4);
#381=VERTEX_POINT('',#469);
#382=VERTEX_POINT('',#470);
#383=LINE('',#471,#472);
#384=VERTEX_POINT('',#474);
#385=LINE('',#475,#476);
#386=VERTEX_POINT('',#478);
#387=LINE('',#479,#480);
#388=VERTEX_POINT('',#482);
#389=LINE('',#483,#484);
#390=VERTEX_POINT('',#486);
#391=LINE('',#487,#488);
#392=VERTEX_POINT('',#490);
#393=LINE('',#491,#492);
#394=VERTEX_POINT('',#494);
#395=LINE('',#495,#496);
#396=LINE('',#498,#499);
#397=VERTEX_POINT('',#501);
#398=CIRCLE('',#502,1.4);
#399=VERTEX_POINT('',#506);
#400=CIRCLE('',#507,1.4);
#401=VERTEX_POINT('',#511);
#402=LINE('',#512,#513);
#403=LINE('',#515,#516);
#404=VERTEX_POINT('',#518);
#405=LINE('',#519,#520);
#406=LINE('',#522,#523);
#407=LINE('',#525,#526);
#408=VERTEX_POINT('',#528);
#409=LINE('',#529,#530);
#410=LINE('',#532,#533);
#411=VERTEX_POINT('',#535);
#412=LINE('',#536,#537);
#413=LINE('',#539,#540);
#414=VERTEX_POINT('',#542);
#415=LINE('',#543,#544);
#416=VERTEX_POINT('',#546);
#417=LINE('',#547,#548);
#418=LINE('',#550,#551);
#419=VERTEX_POINT('',#553);
#420=CIRCLE('',#554,1.6);
#421=LINE('',#558,#559);
#422=VERTEX_POINT('',#561);
#423=LINE('',#562,#563);
#424=LINE('',#565,#566);
#425=VERTEX_POINT('',#568);
#426=LINE('',#569,#570);
#427=LINE('',#572,#573);
#428=VERTEX_POINT('',#575);
#429=CIRCLE('',#576,1.6);
#430=VERTEX_POINT('',#580);
#431=LINE('',#581,#582);
#432=LINE('',#584,#585);
#433=VERTEX_POINT('',#587);
#434=LINE('',#588,#589);
#435=LINE('',#591,#592);
#436=VERTEX_POINT('',#594);
#437=CIRCLE('',#595,1.6);
#438=VERTEX_POINT('',#599);
#439=CIRCLE('',#600,1.6);
#440=LINE('',#604,#605);
#441=LINE('',#607,#608);
#442=LINE('',#610,#611);
#443=CARTESIAN_POINT('',(3.,6.50000000000012,0.));
#444=CARTESIAN_POINT('',(3.,6.50000000000011,-14.));
#445=CARTESIAN_POINT('',(3.,6.50000000000012,-1.58151397143962E-15));
#446=VECTOR('',#447,1.);
#447=DIRECTION('',(0.,-6.34413156928661E-17,-1.));
#448=CARTESIAN_POINT('',(3.,-6.49999999999999,0.));
#449=CARTESIAN_POINT('',(3.,-6.49999999999999,0.));
#450=VECTOR('',#451,1.);
#451=DIRECTION('',(2.04964250700027E-16,1.,0.));
#452=CARTESIAN_POINT('',(3.,-6.49999999999999,-14.));
#453=CARTESIAN_POINT('',(3.,-6.49999999999999,-14.));
#454=VECTOR('',#455,1.);
#455=DIRECTION('',(0.,0.,1.));
#456=CARTESIAN_POINT('',(3.,6.50000000000012,-14.));
#457=VECTOR('',#458,1.);
#458=DIRECTION('',(-2.04964250700027E-16,-1.,0.));
#459=CARTESIAN_POINT('',(3.,-1.60520382004283,-10.0052038200428));
#460=AXIS2_PLACEMENT_3D('',#461,#462,#463);
#461=CARTESIAN_POINT('',(3.,-3.00520382004283,-10.0052038200428));
#462=DIRECTION('',(-1.,2.2204460492503E-16,0.));
#463=DIRECTION('',(2.2204460492503E-16,1.,-6.12323399573677E-17));
#464=CARTESIAN_POINT('',(3.,4.40520382004283,-3.99479617995717));
#465=AXIS2_PLACEMENT_3D('',#466,#467,#468);
#466=CARTESIAN_POINT('',(3.,3.00520382004283,-3.99479617995717));
#467=DIRECTION('',(-1.,2.2204460492503E-16,0.));
#468=DIRECTION('',(2.2204460492503E-16,1.,-6.12323399573677E-17));
#469=CARTESIAN_POINT('',(1.44580705878124E-15,13.,0.));
#470=CARTESIAN_POINT('',(7.22903529390622E-16,7.99999999999994,0.));
#471=CARTESIAN_POINT('',(1.44580705878124E-15,13.,0.));
#472=VECTOR('',#473,1.);
#473=DIRECTION('',(0.,-1.,0.));
#474=CARTESIAN_POINT('',(0.,7.99999999999986,-14.));
#475=CARTESIAN_POINT('',(7.22903529390622E-16,7.99999999999986,0.));
#476=VECTOR('',#477,1.);
#477=DIRECTION('',(0.,0.,-1.));
#478=CARTESIAN_POINT('',(0.,-8.00000000000001,-14.));
#479=CARTESIAN_POINT('',(7.22903529390622E-16,-8.00000000000001,-14.));
#480=VECTOR('',#481,1.);
#481=DIRECTION('',(0.,1.,0.));
#482=CARTESIAN_POINT('',(1.018963002624E-15,-8.00000000000001,0.));
#483=CARTESIAN_POINT('',(1.16699273924068E-15,-8.00000000000001,0.));
#484=VECTOR('',#485,1.);
#485=DIRECTION('',(0.,0.,-1.));
#486=CARTESIAN_POINT('',(1.44580705878124E-15,-13.,0.));
#487=CARTESIAN_POINT('',(1.44580705878124E-15,-8.00000000000001,0.));
#488=VECTOR('',#489,1.);
#489=DIRECTION('',(0.,-1.,0.));
#490=CARTESIAN_POINT('',(1.44580705878124E-15,-13.,2.));
#491=CARTESIAN_POINT('',(1.44580705878124E-15,-13.,0.));
#492=VECTOR('',#493,1.);
#493=DIRECTION('',(0.,0.,1.));
#494=CARTESIAN_POINT('',(1.44580705878124E-15,13.,2.));
#495=CARTESIAN_POINT('',(1.44580705878124E-15,13.,2.));
#496=VECTOR('',#497,1.);
#497=DIRECTION('',(0.,-1.,0.));
#498=CARTESIAN_POINT('',(1.61108194909075E-15,13.,0.));
#499=VECTOR('',#500,1.);
#500=DIRECTION('',(0.,0.,1.));
#501=CARTESIAN_POINT('',(1.44580705878124E-15,-1.60520382004283,-10.0052038200428));
#502=AXIS2_PLACEMENT_3D('',#503,#504,#505);
#503=CARTESIAN_POINT('',(1.44580705878124E-15,-3.00520382004283,-10.0052038200428));
#504=DIRECTION('',(-1.,0.,0.));
#505=DIRECTION('',(0.,1.,-6.12323399573677E-17));
#506=CARTESIAN_POINT('',(1.44580705878124E-15,4.40520382004283,-3.99479617995717));
#507=AXIS2_PLACEMENT_3D('',#508,#509,#510);
#508=CARTESIAN_POINT('',(1.44580705878124E-15,3.00520382004283,-3.99479617995717));
#509=DIRECTION('',(-1.,0.,0.));
#510=DIRECTION('',(0.,1.,-6.12323399573677E-17));
#511=CARTESIAN_POINT('',(8.,6.50000000000011,-5.27171323813207E-16));
#512=CARTESIAN_POINT('',(7.99999999999989,6.50000000000011,2.03712895035205E-17));
#513=VECTOR('',#514,1.);
#514=DIRECTION('',(-0.336336396998156,0.,-0.941741911594838));
#515=CARTESIAN_POINT('',(3.,6.50000000000012,6.97405442631775E-80));
#516=VECTOR('',#517,1.);
#517=DIRECTION('',(1.,-1.77635683940025E-16,4.69560062631554E-33));
#518=CARTESIAN_POINT('',(8.,-6.49999999999999,5.9211894646675E-16));
#519=CARTESIAN_POINT('',(8.,-6.49999999999999,0.));
#520=VECTOR('',#521,1.);
#521=DIRECTION('',(0.,1.,0.));
#522=CARTESIAN_POINT('',(8.,-6.49999999999999,2.34780031315777E-32));
#523=VECTOR('',#524,1.);
#524=DIRECTION('',(-1.,1.77635683940025E-16,-4.69560062631554E-33));
#525=CARTESIAN_POINT('',(3.,-6.49999999999999,-14.));
#526=VECTOR('',#527,1.);
#527=DIRECTION('',(0.336336396998156,0.,0.941741911594838));
#528=CARTESIAN_POINT('',(3.,-8.,-14.));
#529=CARTESIAN_POINT('',(3.,-7.99999999999999,-14.));
#530=VECTOR('',#531,1.);
#531=DIRECTION('',(-7.69754630406776E-15,1.,0.));
#532=CARTESIAN_POINT('',(4.44089209850063E-16,-8.00000000000001,-14.));
#533=VECTOR('',#534,1.);
#534=DIRECTION('',(1.,5.03301104496738E-15,0.));
#535=CARTESIAN_POINT('',(2.99999999999988,8.00000000000004,-14.));
#536=CARTESIAN_POINT('',(0.,7.99999999999986,-14.));
#537=VECTOR('',#538,1.);
#538=DIRECTION('',(1.,5.77315972805105E-14,0.));
#539=CARTESIAN_POINT('',(2.99999999999989,6.50000000000011,-14.));
#540=VECTOR('',#541,1.);
#541=DIRECTION('',(-7.99360577730112E-15,1.,0.));
#542=CARTESIAN_POINT('',(8.,8.00000000000026,0.));
#543=CARTESIAN_POINT('',(8.,8.00000000000033,0.));
#544=VECTOR('',#545,1.);
#545=DIRECTION('',(-1.,-5.80646641878957E-14,0.));
#546=CARTESIAN_POINT('',(8.,13.,0.));
#547=CARTESIAN_POINT('',(8.,13.,0.));
#548=VECTOR('',#549,1.);
#549=DIRECTION('',(-1.,0.,0.));
#550=CARTESIAN_POINT('',(8.,8.00000000000012,0.));
#551=VECTOR('',#552,1.);
#552=DIRECTION('',(0.,1.,0.));
#553=CARTESIAN_POINT('',(4.,8.9,0.));
#554=AXIS2_PLACEMENT_3D('',#555,#556,#557);
#555=CARTESIAN_POINT('',(4.,10.5,0.));
#556=DIRECTION('',(0.,0.,-1.));
#557=DIRECTION('',(-6.12323399573677E-17,-1.,0.));
#558=CARTESIAN_POINT('',(2.99999999999988,8.00000000000012,-14.));
#559=VECTOR('',#560,1.);
#560=DIRECTION('',(0.336336396998156,2.83192939635637E-14,0.941741911594838));
#561=CARTESIAN_POINT('',(8.,-7.99999999999998,1.63286239886314E-16));
#562=CARTESIAN_POINT('',(8.,-7.99999999999995,2.99740744000745E-16));
#563=VECTOR('',#564,1.);
#564=DIRECTION('',(-0.336336396998156,-2.62879522024642E-15,-0.941741911594838));
#565=CARTESIAN_POINT('',(4.44089209850063E-16,-8.00000000000001,0.));
#566=VECTOR('',#567,1.);
#567=DIRECTION('',(1.,5.32907051820075E-15,-6.16297582203915E-33));
#568=CARTESIAN_POINT('',(8.,-13.,0.));
#569=CARTESIAN_POINT('',(8.,-13.,0.));
#570=VECTOR('',#571,1.);
#571=DIRECTION('',(0.,1.,0.));
#572=CARTESIAN_POINT('',(1.44580705878124E-15,-13.,0.));
#573=VECTOR('',#574,1.);
#574=DIRECTION('',(1.,0.,0.));
#575=CARTESIAN_POINT('',(4.,-12.1,0.));
#576=AXIS2_PLACEMENT_3D('',#577,#578,#579);
#577=CARTESIAN_POINT('',(4.,-10.5,0.));
#578=DIRECTION('',(0.,0.,-1.));
#579=DIRECTION('',(-6.12323399573677E-17,-1.,0.));
#580=CARTESIAN_POINT('',(8.,-13.,2.));
#581=CARTESIAN_POINT('',(8.,-13.,0.));
#582=VECTOR('',#583,1.);
#583=DIRECTION('',(0.,0.,1.));
#584=CARTESIAN_POINT('',(1.44580705878124E-15,-13.,2.));
#585=VECTOR('',#586,1.);
#586=DIRECTION('',(1.,0.,0.));
#587=CARTESIAN_POINT('',(8.,13.,2.));
#588=CARTESIAN_POINT('',(8.,13.,2.));
#589=VECTOR('',#590,1.);
#590=DIRECTION('',(-1.,0.,0.));
#591=CARTESIAN_POINT('',(8.,-13.,2.));
#592=VECTOR('',#593,1.);
#593=DIRECTION('',(0.,1.,0.));
#594=CARTESIAN_POINT('',(4.,8.9,2.));
#595=AXIS2_PLACEMENT_3D('',#596,#597,#598);
#596=CARTESIAN_POINT('',(4.,10.5,2.));
#597=DIRECTION('',(0.,0.,-1.));
#598=DIRECTION('',(-6.12323399573677E-17,-1.,0.));
#599=CARTESIAN_POINT('',(4.,-12.1,2.));
#600=AXIS2_PLACEMENT_3D('',#601,#602,#603);
#601=CARTESIAN_POINT('',(4.,-10.5,2.));
#602=DIRECTION('',(0.,0.,-1.));
#603=DIRECTION('',(-6.12323399573677E-17,-1.,0.));
#604=CARTESIAN_POINT('',(8.,13.,0.));
#605=VECTOR('',#606,1.);
#606=DIRECTION('',(0.,0.,1.));
#607=CARTESIAN_POINT('',(8.,8.00000000000054,3.5154756738901E-13));
#608=VECTOR('',#609,1.);
#609=DIRECTION('',(0.,-1.,-2.16506551249245E-14));
#610=CARTESIAN_POINT('',(8.,-6.49999999999998,3.7613068077593E-14));
#611=VECTOR('',#612,1.);
#612=DIRECTION('',(0.,-1.,-2.16506551249245E-14));
ENDSEC;
END-ISO-10303-21;
