ISO-10303-21;
HEADER;
FILE_DESCRIPTION(('STEP AP242'),
    '1');
FILE_NAME('ElectricBox',
    '',
    ('UNSPECIFIED'),
    ('UNSPECIFIED'),
    'C3D Converter',
    'C3D Toolkit',
    '');
FILE_SCHEMA(('AP242_MANAGED_MODEL_BASED_3D_ENGINEERING_MIM_LF { 1 0 10303 442 1 1 4 }'));
ENDSEC;

DATA;
#1=PRODUCT_DEFINITION('','UNSPECIFIED',#28,#31);
#2=SHAPE_DEFINITION_REPRESENTATION(#26,#3);
#3=SHAPE_REPRESENTATION('NONE',(#4),#8);
#4=AXIS2_PLACEMENT_3D('',#5,#6,#7);
#5=CARTESIAN_POINT('',(0.,0.,0.));
#6=DIRECTION('',(0.,0.,1.));
#7=DIRECTION('',(1.,0.,0.));
#8=(GEOMETRIC_REPRESENTATION_CONTEXT(3)GLOBAL_UNCERTAINTY_ASSIGNED_CONTEXT((#10))
GLOBAL_UNIT_ASSIGNED_CONTEXT((#9,#11,#12))REPRESENTATION_CONTEXT('NONE','NONE'));
#9=(LENGTH_UNIT()NAMED_UNIT(*)SI_UNIT(.MILLI.,.METRE.));
#10=UNCERTAINTY_MEASURE_WITH_UNIT(LENGTH_MEASURE(1.E-5),#9,'NONE','NONE');
#11=(NAMED_UNIT(*)PLANE_ANGLE_UNIT()SI_UNIT($,.RADIAN.));
#12=(NAMED_UNIT(*)SI_UNIT($,.STERADIAN.)SOLID_ANGLE_UNIT());
#13=MANIFOLD_SOLID_BREP('',#14);
#14=CLOSED_SHELL('',(#53,#54,#55,#56,#57,#58,#59,#60,#61,#62,#63,#64,#65,#66,#67,
#68,#69,#70,#71,#72,#73,#74,#75,#76,#77,#78,#79,#80,#81,#82,#83,#84,#85,#86,#87,
#88,#89,#90,#91,#92,#93,#94,#95,#96,#97,#98,#99,#100,#101,#102,#103,#104,#105,#106,
#107,#108,#109,#110,#111,#112,#113,#114,#115,#116,#117,#118));
#15=COLOUR_RGB('',0.564705882352941,0.564705882352941,0.564705882352941);
#16=FILL_AREA_STYLE_COLOUR('',#15);
#17=FILL_AREA_STYLE($,(#16));
#18=SURFACE_STYLE_FILL_AREA(#17);
#19=SURFACE_SIDE_STYLE('',(#18));
#20=SURFACE_STYLE_USAGE(.BOTH.,#19);
#21=PRESENTATION_STYLE_ASSIGNMENT((#20));
#22=MECHANICAL_DESIGN_GEOMETRIC_PRESENTATION_REPRESENTATION('NONE',(#23),#8);
#23=STYLED_ITEM('',(#21),#13);
#24=ADVANCED_BREP_SHAPE_REPRESENTATION('NONE',(#13),#8);
#25=SHAPE_REPRESENTATION_RELATIONSHIP('','',#3,#24);
#26=PRODUCT_DEFINITION_SHAPE('NONE','NONE',#1);
#27=MECHANICAL_CONTEXT('NONE',#32,'mechanical');
#28=PRODUCT_DEFINITION_FORMATION_WITH_SPECIFIED_SOURCE('ANY','UNSPECIFIED',#29,.NOT_KNOWN.);
#29=PRODUCT('','\X2\0414043504420430043B044C\X0\','NONE',(#27));
#30=PRODUCT_RELATED_PRODUCT_CATEGORY('detail','',(#29));
#31=DESIGN_CONTEXT('detailed design',#32,'design');
#32=APPLICATION_CONTEXT('configuration controlled 3d designs of mechanical parts and assemblies');
#33=APPLICATION_PROTOCOL_DEFINITION('international standard','config_control_design',
1994,#32);
#34=CC_DESIGN_DATE_AND_TIME_ASSIGNMENT(#35,#39,(#1));
#35=DATE_AND_TIME(#36,#37);
#36=CALENDAR_DATE(0,1,1);
#37=LOCAL_TIME(0,0,0.,#38);
#38=COORDINATED_UNIVERSAL_TIME_OFFSET(0,0,.AHEAD.);
#39=DATE_TIME_ROLE('creation_date');
#40=CC_DESIGN_APPROVAL(#41,(#1));
#41=APPROVAL(#42,'UNSPECIFIED');
#42=APPROVAL_STATUS('not_yet_approved');
#43=APPROVAL_DATE_TIME(#44,#41);
#44=DATE_AND_TIME(#45,#46);
#45=CALENDAR_DATE(0,1,1);
#46=LOCAL_TIME(0,0,0.,#47);
#47=COORDINATED_UNIVERSAL_TIME_OFFSET(0,0,.AHEAD.);
#48=PERSON('UNSPECIFIED','Cybermeatball','UNSPECIFIED',('UNSPECIFIED'),('UNSPECIFIED'),
('UNSPECIFIED'));
#49=ORGANIZATION('UNSPECIFIED','UNSPECIFIED','UNSPECIFIED');
#50=PERSON_AND_ORGANIZATION(#48,#49);
#51=PERSON_AND_ORGANIZATION_ROLE('creator');
#52=CC_DESIGN_PERSON_AND_ORGANIZATION_ASSIGNMENT(#50,#51,(#28,#1));
#53=ADVANCED_FACE('',(#119,#121),#123,.F.);
#54=ADVANCED_FACE('',(#128,#130),#132,.F.);
#55=ADVANCED_FACE('',(#137,#139,#141),#143,.F.);
#56=ADVANCED_FACE('',(#148,#150),#152,.F.);
#57=ADVANCED_FACE('',(#157,#159),#161,.T.);
#58=ADVANCED_FACE('',(#166,#168),#170,.F.);
#59=ADVANCED_FACE('',(#175,#177),#179,.T.);
#60=ADVANCED_FACE('',(#184,#186,#188),#190,.T.);
#61=ADVANCED_FACE('',(#195),#197,.T.);
#62=ADVANCED_FACE('',(#202),#204,.T.);
#63=ADVANCED_FACE('',(#209),#211,.T.);
#64=ADVANCED_FACE('',(#216),#218,.T.);
#65=ADVANCED_FACE('',(#223,#225,#227,#229,#231,#233),#235,.T.);
#66=ADVANCED_FACE('',(#240,#242,#244,#246,#248,#250),#252,.T.);
#67=ADVANCED_FACE('',(#257,#259,#261,#263,#265),#267,.F.);
#68=ADVANCED_FACE('',(#272),#274,.T.);
#69=ADVANCED_FACE('',(#279,#281),#283,.F.);
#70=ADVANCED_FACE('',(#288,#290),#292,.F.);
#71=ADVANCED_FACE('',(#297,#299),#301,.F.);
#72=ADVANCED_FACE('',(#306,#308),#310,.F.);
#73=ADVANCED_FACE('',(#315),#317,.F.);
#74=ADVANCED_FACE('',(#322),#324,.F.);
#75=ADVANCED_FACE('',(#329),#331,.F.);
#76=ADVANCED_FACE('',(#336),#338,.F.);
#77=ADVANCED_FACE('',(#343),#345,.T.);
#78=ADVANCED_FACE('',(#350),#352,.F.);
#79=ADVANCED_FACE('',(#357),#359,.F.);
#80=ADVANCED_FACE('',(#364),#366,.T.);
#81=ADVANCED_FACE('',(#371),#373,.F.);
#82=ADVANCED_FACE('',(#378),#380,.T.);
#83=ADVANCED_FACE('',(#385,#387),#389,.T.);
#84=ADVANCED_FACE('',(#394),#396,.T.);
#85=ADVANCED_FACE('',(#401,#403),#405,.T.);
#86=ADVANCED_FACE('',(#410,#412),#414,.T.);
#87=ADVANCED_FACE('',(#419,#421),#423,.T.);
#88=ADVANCED_FACE('',(#428,#430),#432,.T.);
#89=ADVANCED_FACE('',(#437,#439),#441,.T.);
#90=ADVANCED_FACE('',(#446),#448,.F.);
#91=ADVANCED_FACE('',(#453,#455),#457,.T.);
#92=ADVANCED_FACE('',(#462),#464,.T.);
#93=ADVANCED_FACE('',(#469),#471,.T.);
#94=ADVANCED_FACE('',(#476,#478),#480,.T.);
#95=ADVANCED_FACE('',(#485),#487,.F.);
#96=ADVANCED_FACE('',(#492),#494,.T.);
#97=ADVANCED_FACE('',(#499),#501,.T.);
#98=ADVANCED_FACE('',(#506),#508,.T.);
#99=ADVANCED_FACE('',(#513,#515),#517,.F.);
#100=ADVANCED_FACE('',(#522,#524),#526,.F.);
#101=ADVANCED_FACE('',(#531,#533),#535,.T.);
#102=ADVANCED_FACE('',(#540,#542),#544,.T.);
#103=ADVANCED_FACE('',(#549,#551),#553,.T.);
#104=ADVANCED_FACE('',(#558,#560),#562,.T.);
#105=ADVANCED_FACE('',(#567,#569),#571,.F.);
#106=ADVANCED_FACE('',(#576,#578),#580,.F.);
#107=ADVANCED_FACE('',(#585),#587,.T.);
#108=ADVANCED_FACE('',(#592),#594,.T.);
#109=ADVANCED_FACE('',(#599,#601),#603,.F.);
#110=ADVANCED_FACE('',(#608,#610),#612,.F.);
#111=ADVANCED_FACE('',(#617,#619),#621,.F.);
#112=ADVANCED_FACE('',(#626,#628),#630,.F.);
#113=ADVANCED_FACE('',(#635),#637,.T.);
#114=ADVANCED_FACE('',(#642),#644,.T.);
#115=ADVANCED_FACE('',(#649),#651,.T.);
#116=ADVANCED_FACE('',(#656),#658,.T.);
#117=ADVANCED_FACE('',(#663),#665,.T.);
#118=ADVANCED_FACE('',(#670),#672,.T.);
#119=FACE_OUTER_BOUND('',#120,.T.);
#120=EDGE_LOOP('',(#677));
#121=FACE_OUTER_BOUND('',#122,.T.);
#122=EDGE_LOOP('',(#678));
#123=CYLINDRICAL_SURFACE('',#124,1.6);
#124=AXIS2_PLACEMENT_3D('',#125,#126,#127);
#125=CARTESIAN_POINT('',(6.,10.,-1.));
#126=DIRECTION('',(0.,0.,1.));
#127=DIRECTION('',(6.12323399573677E-17,-1.,0.));
#128=FACE_OUTER_BOUND('',#129,.T.);
#129=EDGE_LOOP('',(#679));
#130=FACE_OUTER_BOUND('',#131,.T.);
#131=EDGE_LOOP('',(#680));
#132=CYLINDRICAL_SURFACE('',#133,1.6);
#133=AXIS2_PLACEMENT_3D('',#134,#135,#136);
#134=CARTESIAN_POINT('',(6.,50.,-1.));
#135=DIRECTION('',(0.,0.,1.));
#136=DIRECTION('',(6.12323399573677E-17,-1.,0.));
#137=FACE_BOUND('',#138,.T.);
#138=EDGE_LOOP('',(#681,#682,#683,#684));
#139=FACE_BOUND('',#140,.T.);
#140=EDGE_LOOP('',(#685));
#141=FACE_BOUND('',#142,.T.);
#142=EDGE_LOOP('',(#686));
#143=PLANE('',#144);
#144=AXIS2_PLACEMENT_3D('',#145,#146,#147);
#145=CARTESIAN_POINT('',(0.,0.,0.));
#146=DIRECTION('',(0.,0.,1.));
#147=DIRECTION('',(1.,0.,0.));
#148=FACE_OUTER_BOUND('',#149,.T.);
#149=EDGE_LOOP('',(#687));
#150=FACE_OUTER_BOUND('',#151,.T.);
#151=EDGE_LOOP('',(#688));
#152=CYLINDRICAL_SURFACE('',#153,2.5);
#153=AXIS2_PLACEMENT_3D('',#154,#155,#156);
#154=CARTESIAN_POINT('',(6.,10.,1.5));
#155=DIRECTION('',(0.,0.,-1.));
#156=DIRECTION('',(-6.12323399573677E-17,-1.,0.));
#157=FACE_BOUND('',#158,.T.);
#158=EDGE_LOOP('',(#689));
#159=FACE_BOUND('',#160,.T.);
#160=EDGE_LOOP('',(#690));
#161=PLANE('',#162);
#162=AXIS2_PLACEMENT_3D('',#163,#164,#165);
#163=CARTESIAN_POINT('',(0.,0.,1.5));
#164=DIRECTION('',(0.,0.,-1.));
#165=DIRECTION('',(-6.12323399573677E-17,-1.,0.));
#166=FACE_OUTER_BOUND('',#167,.T.);
#167=EDGE_LOOP('',(#691));
#168=FACE_OUTER_BOUND('',#169,.T.);
#169=EDGE_LOOP('',(#692));
#170=CYLINDRICAL_SURFACE('',#171,2.5);
#171=AXIS2_PLACEMENT_3D('',#172,#173,#174);
#172=CARTESIAN_POINT('',(6.,50.,1.5));
#173=DIRECTION('',(0.,0.,-1.));
#174=DIRECTION('',(-6.12323399573677E-17,-1.,0.));
#175=FACE_BOUND('',#176,.T.);
#176=EDGE_LOOP('',(#693));
#177=FACE_BOUND('',#178,.T.);
#178=EDGE_LOOP('',(#694));
#179=PLANE('',#180);
#180=AXIS2_PLACEMENT_3D('',#181,#182,#183);
#181=CARTESIAN_POINT('',(0.,0.,1.5));
#182=DIRECTION('',(0.,0.,-1.));
#183=DIRECTION('',(-6.12323399573677E-17,-1.,0.));
#184=FACE_BOUND('',#185,.T.);
#185=EDGE_LOOP('',(#695,#696,#697,#698));
#186=FACE_BOUND('',#187,.T.);
#187=EDGE_LOOP('',(#699));
#188=FACE_BOUND('',#189,.T.);
#189=EDGE_LOOP('',(#700));
#190=PLANE('',#191);
#191=AXIS2_PLACEMENT_3D('',#192,#193,#194);
#192=CARTESIAN_POINT('',(0.,0.,3.));
#193=DIRECTION('',(0.,0.,1.));
#194=DIRECTION('',(1.,0.,0.));
#195=FACE_BOUND('',#196,.T.);
#196=EDGE_LOOP('',(#701,#702,#703,#704,#705,#706,#707,#708));
#197=PLANE('',#198);
#198=AXIS2_PLACEMENT_3D('',#199,#200,#201);
#199=CARTESIAN_POINT('',(0.,0.,0.));
#200=DIRECTION('',(0.,-1.,0.));
#201=DIRECTION('',(1.,0.,0.));
#202=FACE_BOUND('',#203,.T.);
#203=EDGE_LOOP('',(#709,#710,#711,#712));
#204=PLANE('',#205);
#205=AXIS2_PLACEMENT_3D('',#206,#207,#208);
#206=CARTESIAN_POINT('',(0.,60.,0.));
#207=DIRECTION('',(-1.,0.,0.));
#208=DIRECTION('',(0.,-1.,0.));
#209=FACE_BOUND('',#210,.T.);
#210=EDGE_LOOP('',(#713,#714,#715,#716,#717,#718,#719,#720));
#211=PLANE('',#212);
#212=AXIS2_PLACEMENT_3D('',#213,#214,#215);
#213=CARTESIAN_POINT('',(180.,60.,0.));
#214=DIRECTION('',(0.,1.,0.));
#215=DIRECTION('',(-1.,0.,0.));
#216=FACE_BOUND('',#217,.T.);
#217=EDGE_LOOP('',(#721,#722,#723,#724));
#218=PLANE('',#219);
#219=AXIS2_PLACEMENT_3D('',#220,#221,#222);
#220=CARTESIAN_POINT('',(180.,0.,0.));
#221=DIRECTION('',(1.,0.,0.));
#222=DIRECTION('',(0.,1.,0.));
#223=FACE_BOUND('',#224,.T.);
#224=EDGE_LOOP('',(#725,#726,#727,#728));
#225=FACE_BOUND('',#226,.T.);
#226=EDGE_LOOP('',(#729));
#227=FACE_BOUND('',#228,.T.);
#228=EDGE_LOOP('',(#730));
#229=FACE_BOUND('',#230,.T.);
#230=EDGE_LOOP('',(#731));
#231=FACE_BOUND('',#232,.T.);
#232=EDGE_LOOP('',(#732));
#233=FACE_BOUND('',#234,.T.);
#234=EDGE_LOOP('',(#733,#734,#735,#736));
#235=PLANE('',#236);
#236=AXIS2_PLACEMENT_3D('',#237,#238,#239);
#237=CARTESIAN_POINT('',(12.,0.,0.));
#238=DIRECTION('',(-1.,0.,0.));
#239=DIRECTION('',(0.,-1.,-6.12323399573677E-17));
#240=FACE_BOUND('',#241,.T.);
#241=EDGE_LOOP('',(#737,#738,#739,#740,#741,#742,#743,#744,#745,#746,#747,#748));
#242=FACE_BOUND('',#243,.T.);
#243=EDGE_LOOP('',(#749,#750,#751,#752));
#244=FACE_BOUND('',#245,.T.);
#245=EDGE_LOOP('',(#753));
#246=FACE_BOUND('',#247,.T.);
#247=EDGE_LOOP('',(#754));
#248=FACE_BOUND('',#249,.T.);
#249=EDGE_LOOP('',(#755));
#250=FACE_BOUND('',#251,.T.);
#251=EDGE_LOOP('',(#756));
#252=PLANE('',#253);
#253=AXIS2_PLACEMENT_3D('',#254,#255,#256);
#254=CARTESIAN_POINT('',(0.,0.,3.));
#255=DIRECTION('',(0.,0.,1.));
#256=DIRECTION('',(1.,0.,0.));
#257=FACE_BOUND('',#258,.T.);
#258=EDGE_LOOP('',(#757,#758,#759,#760,#761,#762,#763,#764,#765,#766,#767,#768,#769,
#770,#771,#772,#773,#774,#775,#776));
#259=FACE_BOUND('',#260,.T.);
#260=EDGE_LOOP('',(#777));
#261=FACE_BOUND('',#262,.T.);
#262=EDGE_LOOP('',(#778));
#263=FACE_BOUND('',#264,.T.);
#264=EDGE_LOOP('',(#779));
#265=FACE_BOUND('',#266,.T.);
#266=EDGE_LOOP('',(#780));
#267=PLANE('',#268);
#268=AXIS2_PLACEMENT_3D('',#269,#270,#271);
#269=CARTESIAN_POINT('',(15.,0.,0.));
#270=DIRECTION('',(-1.,0.,0.));
#271=DIRECTION('',(0.,-1.,-6.12323399573677E-17));
#272=FACE_BOUND('',#273,.T.);
#273=EDGE_LOOP('',(#781,#782,#783,#784));
#274=PLANE('',#275);
#275=AXIS2_PLACEMENT_3D('',#276,#277,#278);
#276=CARTESIAN_POINT('',(15.,-3.24531401774049E-15,53.));
#277=DIRECTION('',(0.,0.,1.));
#278=DIRECTION('',(0.,1.,0.));
#279=FACE_OUTER_BOUND('',#280,.T.);
#280=EDGE_LOOP('',(#785));
#281=FACE_OUTER_BOUND('',#282,.T.);
#282=EDGE_LOOP('',(#786));
#283=CYLINDRICAL_SURFACE('',#284,1.6);
#284=AXIS2_PLACEMENT_3D('',#285,#286,#287);
#285=CARTESIAN_POINT('',(180.,56.,7.));
#286=DIRECTION('',(-1.,0.,0.));
#287=DIRECTION('',(0.,-1.,-6.12323399573677E-17));
#288=FACE_OUTER_BOUND('',#289,.T.);
#289=EDGE_LOOP('',(#787));
#290=FACE_OUTER_BOUND('',#291,.T.);
#291=EDGE_LOOP('',(#788));
#292=CYLINDRICAL_SURFACE('',#293,1.6);
#293=AXIS2_PLACEMENT_3D('',#294,#295,#296);
#294=CARTESIAN_POINT('',(180.,56.,49.));
#295=DIRECTION('',(-1.,0.,0.));
#296=DIRECTION('',(0.,-1.,-6.12323399573677E-17));
#297=FACE_OUTER_BOUND('',#298,.T.);
#298=EDGE_LOOP('',(#789));
#299=FACE_OUTER_BOUND('',#300,.T.);
#300=EDGE_LOOP('',(#790));
#301=CYLINDRICAL_SURFACE('',#302,1.6);
#302=AXIS2_PLACEMENT_3D('',#303,#304,#305);
#303=CARTESIAN_POINT('',(180.,4.,49.));
#304=DIRECTION('',(-1.,0.,0.));
#305=DIRECTION('',(0.,-1.,-6.12323399573677E-17));
#306=FACE_OUTER_BOUND('',#307,.T.);
#307=EDGE_LOOP('',(#791));
#308=FACE_OUTER_BOUND('',#309,.T.);
#309=EDGE_LOOP('',(#792));
#310=CYLINDRICAL_SURFACE('',#311,1.6);
#311=AXIS2_PLACEMENT_3D('',#312,#313,#314);
#312=CARTESIAN_POINT('',(180.,4.,7.));
#313=DIRECTION('',(-1.,0.,0.));
#314=DIRECTION('',(0.,-1.,-6.12323399573677E-17));
#315=FACE_BOUND('',#316,.T.);
#316=EDGE_LOOP('',(#793,#794,#795,#796));
#317=PLANE('',#318);
#318=AXIS2_PLACEMENT_3D('',#319,#320,#321);
#319=CARTESIAN_POINT('',(15.,51.5,6.5));
#320=DIRECTION('',(0.,6.19659362581483E-17,-1.));
#321=DIRECTION('',(0.,-1.,-6.19659362581483E-17));
#322=FACE_BOUND('',#323,.T.);
#323=EDGE_LOOP('',(#797,#798,#799,#800,#801,#802,#803));
#324=PLANE('',#325);
#325=AXIS2_PLACEMENT_3D('',#326,#327,#328);
#326=CARTESIAN_POINT('',(15.,51.5,49.5));
#327=DIRECTION('',(0.,1.,0.));
#328=DIRECTION('',(0.,0.,-1.));
#329=FACE_BOUND('',#330,.T.);
#330=EDGE_LOOP('',(#804,#805,#806,#807));
#331=PLANE('',#332);
#332=AXIS2_PLACEMENT_3D('',#333,#334,#335);
#333=CARTESIAN_POINT('',(15.,8.5,49.5));
#334=DIRECTION('',(0.,1.65242496688395E-16,1.));
#335=DIRECTION('',(0.,1.,-1.65242496688395E-16));
#336=FACE_BOUND('',#337,.T.);
#337=EDGE_LOOP('',(#808,#809,#810,#811,#812,#813,#814));
#338=PLANE('',#339);
#339=AXIS2_PLACEMENT_3D('',#340,#341,#342);
#340=CARTESIAN_POINT('',(15.,8.5,6.5));
#341=DIRECTION('',(0.,-1.,-8.26212483441977E-17));
#342=DIRECTION('',(0.,-8.26212483441977E-17,1.));
#343=FACE_BOUND('',#344,.T.);
#344=EDGE_LOOP('',(#815,#816,#817,#818));
#345=PLANE('',#346);
#346=AXIS2_PLACEMENT_3D('',#347,#348,#349);
#347=CARTESIAN_POINT('',(12.,6.5,53.));
#348=DIRECTION('',(0.707106781186548,0.,0.707106781186548));
#349=DIRECTION('',(0.707106781186548,6.2803698347351E-17,-0.707106781186548));
#350=FACE_BOUND('',#351,.T.);
#351=EDGE_LOOP('',(#819,#820,#821,#822,#823,#824,#825));
#352=PLANE('',#353);
#353=AXIS2_PLACEMENT_3D('',#354,#355,#356);
#354=CARTESIAN_POINT('',(0.,6.5,7.2293592301173E-16));
#355=DIRECTION('',(0.,1.,8.26212483441977E-17));
#356=DIRECTION('',(-1.,1.0118184732628E-32,-1.22464679914735E-16));
#357=FACE_BOUND('',#358,.T.);
#358=EDGE_LOOP('',(#826,#827,#828,#829,#830,#831,#832));
#359=PLANE('',#360);
#360=AXIS2_PLACEMENT_3D('',#361,#362,#363);
#361=CARTESIAN_POINT('',(0.,53.5,0.));
#362=DIRECTION('',(0.,-1.,0.));
#363=DIRECTION('',(1.,0.,0.));
#364=FACE_BOUND('',#365,.T.);
#365=EDGE_LOOP('',(#833,#834,#835,#836));
#366=PLANE('',#367);
#367=AXIS2_PLACEMENT_3D('',#368,#369,#370);
#368=CARTESIAN_POINT('',(62.,53.5,3.));
#369=DIRECTION('',(0.707106781186548,0.,0.707106781186548));
#370=DIRECTION('',(-0.707106781186548,0.,0.707106781186548));
#371=FACE_BOUND('',#372,.T.);
#372=EDGE_LOOP('',(#837,#838,#839,#840));
#373=PLANE('',#374);
#374=AXIS2_PLACEMENT_3D('',#375,#376,#377);
#375=CARTESIAN_POINT('',(15.,0.,0.));
#376=DIRECTION('',(-1.,0.,0.));
#377=DIRECTION('',(0.,-1.,-6.12323399573677E-17));
#378=FACE_BOUND('',#379,.T.);
#379=EDGE_LOOP('',(#841,#842,#843,#844));
#380=PLANE('',#381);
#381=AXIS2_PLACEMENT_3D('',#382,#383,#384);
#382=CARTESIAN_POINT('',(168.535898384862,76.9282032302755,3.));
#383=DIRECTION('',(-0.866025403784436,-2.62250850143672E-16,0.500000000000004));
#384=DIRECTION('',(3.02821197851316E-16,-1.,1.68099533099552E-32));
#385=FACE_BOUND('',#386,.T.);
#386=EDGE_LOOP('',(#845,#846,#847,#848));
#387=FACE_BOUND('',#388,.T.);
#388=EDGE_LOOP('',(#849));
#389=PLANE('',#390);
#390=AXIS2_PLACEMENT_3D('',#391,#392,#393);
#391=CARTESIAN_POINT('',(178.,58.,3.));
#392=DIRECTION('',(1.1842378929335E-15,1.,0.));
#393=DIRECTION('',(-1.,1.1842378929335E-15,0.));
#394=FACE_BOUND('',#395,.T.);
#395=EDGE_LOOP('',(#850,#851,#852,#853));
#396=PLANE('',#397);
#397=AXIS2_PLACEMENT_3D('',#398,#399,#400);
#398=CARTESIAN_POINT('',(178.,2.,3.));
#399=DIRECTION('',(1.,0.,0.));
#400=DIRECTION('',(0.,1.,0.));
#401=FACE_BOUND('',#402,.T.);
#402=EDGE_LOOP('',(#854,#855,#856,#857));
#403=FACE_BOUND('',#404,.T.);
#404=EDGE_LOOP('',(#858));
#405=PLANE('',#406);
#406=AXIS2_PLACEMENT_3D('',#407,#408,#409);
#407=CARTESIAN_POINT('',(172.,2.,3.));
#408=DIRECTION('',(-7.40148683083438E-17,-1.,0.));
#409=DIRECTION('',(1.,-7.40148683083438E-17,0.));
#410=FACE_OUTER_BOUND('',#411,.T.);
#411=EDGE_LOOP('',(#859));
#412=FACE_OUTER_BOUND('',#413,.T.);
#413=EDGE_LOOP('',(#860));
#414=CYLINDRICAL_SURFACE('',#415,2.5);
#415=AXIS2_PLACEMENT_3D('',#416,#417,#418);
#416=CARTESIAN_POINT('',(65.5,55.,3.));
#417=DIRECTION('',(0.,0.,1.));
#418=DIRECTION('',(6.12323399573677E-17,1.,0.));
#419=FACE_OUTER_BOUND('',#420,.T.);
#420=EDGE_LOOP('',(#861));
#421=FACE_OUTER_BOUND('',#422,.T.);
#422=EDGE_LOOP('',(#862));
#423=CYLINDRICAL_SURFACE('',#424,2.5);
#424=AXIS2_PLACEMENT_3D('',#425,#426,#427);
#425=CARTESIAN_POINT('',(165.5,55.,3.));
#426=DIRECTION('',(0.,0.,1.));
#427=DIRECTION('',(6.12323399573677E-17,1.,0.));
#428=FACE_OUTER_BOUND('',#429,.T.);
#429=EDGE_LOOP('',(#863));
#430=FACE_OUTER_BOUND('',#431,.T.);
#431=EDGE_LOOP('',(#864));
#432=CYLINDRICAL_SURFACE('',#433,2.5);
#433=AXIS2_PLACEMENT_3D('',#434,#435,#436);
#434=CARTESIAN_POINT('',(65.5,5.00000000000001,3.));
#435=DIRECTION('',(0.,0.,1.));
#436=DIRECTION('',(6.12323399573677E-17,1.,0.));
#437=FACE_OUTER_BOUND('',#438,.T.);
#438=EDGE_LOOP('',(#865));
#439=FACE_OUTER_BOUND('',#440,.T.);
#440=EDGE_LOOP('',(#866));
#441=CYLINDRICAL_SURFACE('',#442,2.5);
#442=AXIS2_PLACEMENT_3D('',#443,#444,#445);
#443=CARTESIAN_POINT('',(165.5,5.,3.));
#444=DIRECTION('',(0.,0.,1.));
#445=DIRECTION('',(6.12323399573677E-17,1.,0.));
#446=FACE_BOUND('',#447,.T.);
#447=EDGE_LOOP('',(#867,#868,#869,#870));
#448=PLANE('',#449);
#449=AXIS2_PLACEMENT_3D('',#450,#451,#452);
#450=CARTESIAN_POINT('',(15.,38.,18.));
#451=DIRECTION('',(-0.707106781186547,-7.44340128561198E-17,0.707106781186548));
#452=DIRECTION('',(-8.2638354888109E-33,-1.,-1.05265590482978E-16));
#453=FACE_BOUND('',#454,.T.);
#454=EDGE_LOOP('',(#871,#872,#873,#874));
#455=FACE_BOUND('',#456,.T.);
#456=EDGE_LOOP('',(#875));
#457=PLANE('',#458);
#458=AXIS2_PLACEMENT_3D('',#459,#460,#461);
#459=CARTESIAN_POINT('',(15.,2.,38.));
#460=DIRECTION('',(0.,-1.,0.));
#461=DIRECTION('',(0.,0.,-1.));
#462=FACE_BOUND('',#463,.T.);
#463=EDGE_LOOP('',(#876,#877,#878,#879));
#464=PLANE('',#465);
#465=AXIS2_PLACEMENT_3D('',#466,#467,#468);
#466=CARTESIAN_POINT('',(15.,6.5,38.));
#467=DIRECTION('',(0.,0.,1.));
#468=DIRECTION('',(0.,-1.,0.));
#469=FACE_BOUND('',#470,.T.);
#470=EDGE_LOOP('',(#880,#881,#882,#883));
#471=PLANE('',#472);
#472=AXIS2_PLACEMENT_3D('',#473,#474,#475);
#473=CARTESIAN_POINT('',(15.,58.,38.));
#474=DIRECTION('',(0.,0.,1.));
#475=DIRECTION('',(0.,-1.,0.));
#476=FACE_BOUND('',#477,.T.);
#477=EDGE_LOOP('',(#884,#885,#886,#887));
#478=FACE_BOUND('',#479,.T.);
#479=EDGE_LOOP('',(#888));
#480=PLANE('',#481);
#481=AXIS2_PLACEMENT_3D('',#482,#483,#484);
#482=CARTESIAN_POINT('',(15.,58.,28.));
#483=DIRECTION('',(0.,1.,0.));
#484=DIRECTION('',(0.,0.,1.));
#485=FACE_BOUND('',#486,.T.);
#486=EDGE_LOOP('',(#889,#890,#891,#892));
#487=PLANE('',#488);
#488=AXIS2_PLACEMENT_3D('',#489,#490,#491);
#489=CARTESIAN_POINT('',(15.,89.5,18.));
#490=DIRECTION('',(-0.707106781186547,-7.44340128561197E-17,0.707106781186548));
#491=DIRECTION('',(8.2638354888109E-33,-1.,-1.05265590482978E-16));
#492=FACE_BOUND('',#493,.T.);
#493=EDGE_LOOP('',(#893,#894,#895,#896));
#494=PLANE('',#495);
#495=AXIS2_PLACEMENT_3D('',#496,#497,#498);
#496=CARTESIAN_POINT('',(25.,0.,0.));
#497=DIRECTION('',(1.,0.,0.));
#498=DIRECTION('',(0.,1.,6.12323399573677E-17));
#499=FACE_BOUND('',#500,.T.);
#500=EDGE_LOOP('',(#897,#898,#899,#900));
#501=PLANE('',#502);
#502=AXIS2_PLACEMENT_3D('',#503,#504,#505);
#503=CARTESIAN_POINT('',(25.,0.,0.));
#504=DIRECTION('',(1.,0.,0.));
#505=DIRECTION('',(0.,1.,6.12323399573677E-17));
#506=FACE_BOUND('',#507,.T.);
#507=EDGE_LOOP('',(#901,#902,#903,#904));
#508=PLANE('',#509);
#509=AXIS2_PLACEMENT_3D('',#510,#511,#512);
#510=CARTESIAN_POINT('',(0.,0.,9.));
#511=DIRECTION('',(0.,0.,1.));
#512=DIRECTION('',(6.12323399573677E-17,1.,0.));
#513=FACE_OUTER_BOUND('',#514,.T.);
#514=EDGE_LOOP('',(#905));
#515=FACE_OUTER_BOUND('',#516,.T.);
#516=EDGE_LOOP('',(#906));
#517=CYLINDRICAL_SURFACE('',#518,2.2);
#518=AXIS2_PLACEMENT_3D('',#519,#520,#521);
#519=CARTESIAN_POINT('',(175.,48.,6.));
#520=DIRECTION('',(1.1842378929335E-15,1.,0.));
#521=DIRECTION('',(-1.,1.1842378929335E-15,-1.22464679914735E-16));
#522=FACE_OUTER_BOUND('',#523,.T.);
#523=EDGE_LOOP('',(#907));
#524=FACE_OUTER_BOUND('',#525,.T.);
#525=EDGE_LOOP('',(#908));
#526=CYLINDRICAL_SURFACE('',#527,2.2);
#527=AXIS2_PLACEMENT_3D('',#528,#529,#530);
#528=CARTESIAN_POINT('',(175.,12.,6.));
#529=DIRECTION('',(-7.40148683083438E-17,-1.,0.));
#530=DIRECTION('',(1.,-7.40148683083438E-17,0.));
#531=FACE_BOUND('',#532,.T.);
#532=EDGE_LOOP('',(#909));
#533=FACE_BOUND('',#534,.T.);
#534=EDGE_LOOP('',(#910));
#535=PLANE('',#536);
#536=AXIS2_PLACEMENT_3D('',#537,#538,#539);
#537=CARTESIAN_POINT('',(0.,0.,6.));
#538=DIRECTION('',(0.,0.,1.));
#539=DIRECTION('',(6.12323399573677E-17,1.,0.));
#540=FACE_BOUND('',#541,.T.);
#541=EDGE_LOOP('',(#911));
#542=FACE_BOUND('',#543,.T.);
#543=EDGE_LOOP('',(#912));
#544=PLANE('',#545);
#545=AXIS2_PLACEMENT_3D('',#546,#547,#548);
#546=CARTESIAN_POINT('',(0.,0.,6.));
#547=DIRECTION('',(0.,0.,1.));
#548=DIRECTION('',(6.12323399573677E-17,1.,0.));
#549=FACE_BOUND('',#550,.T.);
#550=EDGE_LOOP('',(#913));
#551=FACE_BOUND('',#552,.T.);
#552=EDGE_LOOP('',(#914));
#553=PLANE('',#554);
#554=AXIS2_PLACEMENT_3D('',#555,#556,#557);
#555=CARTESIAN_POINT('',(0.,0.,6.));
#556=DIRECTION('',(0.,0.,1.));
#557=DIRECTION('',(6.12323399573677E-17,1.,0.));
#558=FACE_BOUND('',#559,.T.);
#559=EDGE_LOOP('',(#915));
#560=FACE_BOUND('',#561,.T.);
#561=EDGE_LOOP('',(#916));
#562=PLANE('',#563);
#563=AXIS2_PLACEMENT_3D('',#564,#565,#566);
#564=CARTESIAN_POINT('',(0.,0.,6.));
#565=DIRECTION('',(0.,0.,1.));
#566=DIRECTION('',(6.12323399573677E-17,1.,0.));
#567=FACE_OUTER_BOUND('',#568,.T.);
#568=EDGE_LOOP('',(#917));
#569=FACE_OUTER_BOUND('',#570,.T.);
#570=EDGE_LOOP('',(#918));
#571=CYLINDRICAL_SURFACE('',#572,2.2);
#572=AXIS2_PLACEMENT_3D('',#573,#574,#575);
#573=CARTESIAN_POINT('',(20.,7.,33.));
#574=DIRECTION('',(0.,-1.,0.));
#575=DIRECTION('',(1.,0.,0.));
#576=FACE_OUTER_BOUND('',#577,.T.);
#577=EDGE_LOOP('',(#919));
#578=FACE_OUTER_BOUND('',#579,.T.);
#579=EDGE_LOOP('',(#920));
#580=CYLINDRICAL_SURFACE('',#581,2.2);
#581=AXIS2_PLACEMENT_3D('',#582,#583,#584);
#582=CARTESIAN_POINT('',(20.,53.,33.));
#583=DIRECTION('',(0.,1.,0.));
#584=DIRECTION('',(-1.,0.,-1.22464679914735E-16));
#585=FACE_BOUND('',#586,.T.);
#586=EDGE_LOOP('',(#921));
#587=PLANE('',#588);
#588=AXIS2_PLACEMENT_3D('',#589,#590,#591);
#589=CARTESIAN_POINT('',(4.5001039931473E-14,48.0000000000002,0.));
#590=DIRECTION('',(1.1842378929335E-15,1.,0.));
#591=DIRECTION('',(-1.,1.1842378929335E-15,-1.22464679914735E-16));
#592=FACE_BOUND('',#593,.T.);
#593=EDGE_LOOP('',(#922));
#594=PLANE('',#595);
#595=AXIS2_PLACEMENT_3D('',#596,#597,#598);
#596=CARTESIAN_POINT('',(7.40148683083438E-16,12.,0.));
#597=DIRECTION('',(-7.40148683083438E-17,-1.,0.));
#598=DIRECTION('',(1.,-7.40148683083438E-17,0.));
#599=FACE_OUTER_BOUND('',#600,.T.);
#600=EDGE_LOOP('',(#923));
#601=FACE_OUTER_BOUND('',#602,.T.);
#602=EDGE_LOOP('',(#924));
#603=CYLINDRICAL_SURFACE('',#604,1.1);
#604=AXIS2_PLACEMENT_3D('',#605,#606,#607);
#605=CARTESIAN_POINT('',(65.5,55.,1.));
#606=DIRECTION('',(0.,0.,1.));
#607=DIRECTION('',(6.12323399573677E-17,1.,0.));
#608=FACE_OUTER_BOUND('',#609,.T.);
#609=EDGE_LOOP('',(#925));
#610=FACE_OUTER_BOUND('',#611,.T.);
#611=EDGE_LOOP('',(#926));
#612=CYLINDRICAL_SURFACE('',#613,1.1);
#613=AXIS2_PLACEMENT_3D('',#614,#615,#616);
#614=CARTESIAN_POINT('',(165.5,55.,1.));
#615=DIRECTION('',(0.,0.,1.));
#616=DIRECTION('',(6.12323399573677E-17,1.,0.));
#617=FACE_OUTER_BOUND('',#618,.T.);
#618=EDGE_LOOP('',(#927));
#619=FACE_OUTER_BOUND('',#620,.T.);
#620=EDGE_LOOP('',(#928));
#621=CYLINDRICAL_SURFACE('',#622,1.1);
#622=AXIS2_PLACEMENT_3D('',#623,#624,#625);
#623=CARTESIAN_POINT('',(65.5,5.00000000000001,1.));
#624=DIRECTION('',(0.,0.,1.));
#625=DIRECTION('',(6.12323399573677E-17,1.,0.));
#626=FACE_OUTER_BOUND('',#627,.T.);
#627=EDGE_LOOP('',(#929));
#628=FACE_OUTER_BOUND('',#629,.T.);
#629=EDGE_LOOP('',(#930));
#630=CYLINDRICAL_SURFACE('',#631,1.1);
#631=AXIS2_PLACEMENT_3D('',#632,#633,#634);
#632=CARTESIAN_POINT('',(165.5,5.,1.));
#633=DIRECTION('',(0.,0.,1.));
#634=DIRECTION('',(6.12323399573677E-17,1.,0.));
#635=FACE_BOUND('',#636,.T.);
#636=EDGE_LOOP('',(#931));
#637=PLANE('',#638);
#638=AXIS2_PLACEMENT_3D('',#639,#640,#641);
#639=CARTESIAN_POINT('',(0.,7.,0.));
#640=DIRECTION('',(0.,-1.,0.));
#641=DIRECTION('',(1.,0.,0.));
#642=FACE_BOUND('',#643,.T.);
#643=EDGE_LOOP('',(#932));
#644=PLANE('',#645);
#645=AXIS2_PLACEMENT_3D('',#646,#647,#648);
#646=CARTESIAN_POINT('',(0.,53.,0.));
#647=DIRECTION('',(0.,1.,0.));
#648=DIRECTION('',(-1.,0.,-1.22464679914735E-16));
#649=FACE_BOUND('',#650,.T.);
#650=EDGE_LOOP('',(#933));
#651=PLANE('',#652);
#652=AXIS2_PLACEMENT_3D('',#653,#654,#655);
#653=CARTESIAN_POINT('',(0.,0.,1.));
#654=DIRECTION('',(0.,0.,1.));
#655=DIRECTION('',(6.12323399573677E-17,1.,0.));
#656=FACE_BOUND('',#657,.T.);
#657=EDGE_LOOP('',(#934));
#658=PLANE('',#659);
#659=AXIS2_PLACEMENT_3D('',#660,#661,#662);
#660=CARTESIAN_POINT('',(0.,0.,1.));
#661=DIRECTION('',(0.,0.,1.));
#662=DIRECTION('',(6.12323399573677E-17,1.,0.));
#663=FACE_BOUND('',#664,.T.);
#664=EDGE_LOOP('',(#935));
#665=PLANE('',#666);
#666=AXIS2_PLACEMENT_3D('',#667,#668,#669);
#667=CARTESIAN_POINT('',(0.,0.,1.));
#668=DIRECTION('',(0.,0.,1.));
#669=DIRECTION('',(6.12323399573677E-17,1.,0.));
#670=FACE_BOUND('',#671,.T.);
#671=EDGE_LOOP('',(#936));
#672=PLANE('',#673);
#673=AXIS2_PLACEMENT_3D('',#674,#675,#676);
#674=CARTESIAN_POINT('',(0.,0.,1.));
#675=DIRECTION('',(0.,0.,1.));
#676=DIRECTION('',(6.12323399573677E-17,1.,0.));
#677=ORIENTED_EDGE('',*,*,#937,.F.);
#678=ORIENTED_EDGE('',*,*,#938,.T.);
#679=ORIENTED_EDGE('',*,*,#939,.F.);
#680=ORIENTED_EDGE('',*,*,#940,.T.);
#681=ORIENTED_EDGE('',*,*,#941,.F.);
#682=ORIENTED_EDGE('',*,*,#942,.F.);
#683=ORIENTED_EDGE('',*,*,#943,.F.);
#684=ORIENTED_EDGE('',*,*,#944,.F.);
#685=ORIENTED_EDGE('',*,*,#945,.T.);
#686=ORIENTED_EDGE('',*,*,#946,.T.);
#687=ORIENTED_EDGE('',*,*,#947,.F.);
#688=ORIENTED_EDGE('',*,*,#946,.F.);
#689=ORIENTED_EDGE('',*,*,#947,.T.);
#690=ORIENTED_EDGE('',*,*,#938,.F.);
#691=ORIENTED_EDGE('',*,*,#948,.F.);
#692=ORIENTED_EDGE('',*,*,#945,.F.);
#693=ORIENTED_EDGE('',*,*,#948,.T.);
#694=ORIENTED_EDGE('',*,*,#940,.F.);
#695=ORIENTED_EDGE('',*,*,#949,.F.);
#696=ORIENTED_EDGE('',*,*,#950,.T.);
#697=ORIENTED_EDGE('',*,*,#951,.T.);
#698=ORIENTED_EDGE('',*,*,#952,.T.);
#699=ORIENTED_EDGE('',*,*,#939,.T.);
#700=ORIENTED_EDGE('',*,*,#937,.T.);
#701=ORIENTED_EDGE('',*,*,#941,.T.);
#702=ORIENTED_EDGE('',*,*,#953,.T.);
#703=ORIENTED_EDGE('',*,*,#954,.F.);
#704=ORIENTED_EDGE('',*,*,#955,.T.);
#705=ORIENTED_EDGE('',*,*,#956,.T.);
#706=ORIENTED_EDGE('',*,*,#957,.F.);
#707=ORIENTED_EDGE('',*,*,#952,.F.);
#708=ORIENTED_EDGE('',*,*,#958,.F.);
#709=ORIENTED_EDGE('',*,*,#942,.T.);
#710=ORIENTED_EDGE('',*,*,#958,.T.);
#711=ORIENTED_EDGE('',*,*,#951,.F.);
#712=ORIENTED_EDGE('',*,*,#959,.F.);
#713=ORIENTED_EDGE('',*,*,#943,.T.);
#714=ORIENTED_EDGE('',*,*,#959,.T.);
#715=ORIENTED_EDGE('',*,*,#950,.F.);
#716=ORIENTED_EDGE('',*,*,#960,.F.);
#717=ORIENTED_EDGE('',*,*,#961,.F.);
#718=ORIENTED_EDGE('',*,*,#962,.T.);
#719=ORIENTED_EDGE('',*,*,#963,.F.);
#720=ORIENTED_EDGE('',*,*,#964,.F.);
#721=ORIENTED_EDGE('',*,*,#944,.T.);
#722=ORIENTED_EDGE('',*,*,#964,.T.);
#723=ORIENTED_EDGE('',*,*,#965,.F.);
#724=ORIENTED_EDGE('',*,*,#953,.F.);
#725=ORIENTED_EDGE('',*,*,#949,.T.);
#726=ORIENTED_EDGE('',*,*,#957,.T.);
#727=ORIENTED_EDGE('',*,*,#966,.T.);
#728=ORIENTED_EDGE('',*,*,#960,.T.);
#729=ORIENTED_EDGE('',*,*,#967,.T.);
#730=ORIENTED_EDGE('',*,*,#968,.T.);
#731=ORIENTED_EDGE('',*,*,#969,.T.);
#732=ORIENTED_EDGE('',*,*,#970,.T.);
#733=ORIENTED_EDGE('',*,*,#971,.T.);
#734=ORIENTED_EDGE('',*,*,#972,.T.);
#735=ORIENTED_EDGE('',*,*,#973,.T.);
#736=ORIENTED_EDGE('',*,*,#974,.T.);
#737=ORIENTED_EDGE('',*,*,#975,.F.);
#738=ORIENTED_EDGE('',*,*,#976,.F.);
#739=ORIENTED_EDGE('',*,*,#977,.F.);
#740=ORIENTED_EDGE('',*,*,#954,.T.);
#741=ORIENTED_EDGE('',*,*,#965,.T.);
#742=ORIENTED_EDGE('',*,*,#963,.T.);
#743=ORIENTED_EDGE('',*,*,#978,.F.);
#744=ORIENTED_EDGE('',*,*,#979,.F.);
#745=ORIENTED_EDGE('',*,*,#980,.F.);
#746=ORIENTED_EDGE('',*,*,#981,.F.);
#747=ORIENTED_EDGE('',*,*,#982,.F.);
#748=ORIENTED_EDGE('',*,*,#983,.F.);
#749=ORIENTED_EDGE('',*,*,#984,.F.);
#750=ORIENTED_EDGE('',*,*,#985,.F.);
#751=ORIENTED_EDGE('',*,*,#986,.F.);
#752=ORIENTED_EDGE('',*,*,#987,.F.);
#753=ORIENTED_EDGE('',*,*,#988,.F.);
#754=ORIENTED_EDGE('',*,*,#989,.F.);
#755=ORIENTED_EDGE('',*,*,#990,.F.);
#756=ORIENTED_EDGE('',*,*,#991,.F.);
#757=ORIENTED_EDGE('',*,*,#992,.F.);
#758=ORIENTED_EDGE('',*,*,#993,.F.);
#759=ORIENTED_EDGE('',*,*,#994,.F.);
#760=ORIENTED_EDGE('',*,*,#995,.F.);
#761=ORIENTED_EDGE('',*,*,#996,.F.);
#762=ORIENTED_EDGE('',*,*,#997,.F.);
#763=ORIENTED_EDGE('',*,*,#998,.T.);
#764=ORIENTED_EDGE('',*,*,#999,.F.);
#765=ORIENTED_EDGE('',*,*,#1000,.F.);
#766=ORIENTED_EDGE('',*,*,#1001,.F.);
#767=ORIENTED_EDGE('',*,*,#1002,.F.);
#768=ORIENTED_EDGE('',*,*,#1003,.F.);
#769=ORIENTED_EDGE('',*,*,#1004,.F.);
#770=ORIENTED_EDGE('',*,*,#1005,.F.);
#771=ORIENTED_EDGE('',*,*,#978,.T.);
#772=ORIENTED_EDGE('',*,*,#962,.F.);
#773=ORIENTED_EDGE('',*,*,#1006,.F.);
#774=ORIENTED_EDGE('',*,*,#955,.F.);
#775=ORIENTED_EDGE('',*,*,#977,.T.);
#776=ORIENTED_EDGE('',*,*,#1007,.F.);
#777=ORIENTED_EDGE('',*,*,#1008,.T.);
#778=ORIENTED_EDGE('',*,*,#1009,.T.);
#779=ORIENTED_EDGE('',*,*,#1010,.T.);
#780=ORIENTED_EDGE('',*,*,#1011,.T.);
#781=ORIENTED_EDGE('',*,*,#1006,.T.);
#782=ORIENTED_EDGE('',*,*,#961,.T.);
#783=ORIENTED_EDGE('',*,*,#966,.F.);
#784=ORIENTED_EDGE('',*,*,#956,.F.);
#785=ORIENTED_EDGE('',*,*,#1011,.F.);
#786=ORIENTED_EDGE('',*,*,#967,.F.);
#787=ORIENTED_EDGE('',*,*,#1010,.F.);
#788=ORIENTED_EDGE('',*,*,#968,.F.);
#789=ORIENTED_EDGE('',*,*,#1009,.F.);
#790=ORIENTED_EDGE('',*,*,#969,.F.);
#791=ORIENTED_EDGE('',*,*,#1008,.F.);
#792=ORIENTED_EDGE('',*,*,#970,.F.);
#793=ORIENTED_EDGE('',*,*,#971,.F.);
#794=ORIENTED_EDGE('',*,*,#1012,.F.);
#795=ORIENTED_EDGE('',*,*,#1013,.F.);
#796=ORIENTED_EDGE('',*,*,#1014,.T.);
#797=ORIENTED_EDGE('',*,*,#1014,.F.);
#798=ORIENTED_EDGE('',*,*,#1015,.T.);
#799=ORIENTED_EDGE('',*,*,#981,.T.);
#800=ORIENTED_EDGE('',*,*,#1016,.T.);
#801=ORIENTED_EDGE('',*,*,#999,.T.);
#802=ORIENTED_EDGE('',*,*,#1017,.T.);
#803=ORIENTED_EDGE('',*,*,#972,.F.);
#804=ORIENTED_EDGE('',*,*,#973,.F.);
#805=ORIENTED_EDGE('',*,*,#1017,.F.);
#806=ORIENTED_EDGE('',*,*,#998,.F.);
#807=ORIENTED_EDGE('',*,*,#1018,.T.);
#808=ORIENTED_EDGE('',*,*,#1018,.F.);
#809=ORIENTED_EDGE('',*,*,#997,.T.);
#810=ORIENTED_EDGE('',*,*,#1019,.T.);
#811=ORIENTED_EDGE('',*,*,#983,.T.);
#812=ORIENTED_EDGE('',*,*,#1020,.T.);
#813=ORIENTED_EDGE('',*,*,#1012,.T.);
#814=ORIENTED_EDGE('',*,*,#974,.F.);
#815=ORIENTED_EDGE('',*,*,#996,.T.);
#816=ORIENTED_EDGE('',*,*,#1021,.T.);
#817=ORIENTED_EDGE('',*,*,#975,.T.);
#818=ORIENTED_EDGE('',*,*,#1019,.F.);
#819=ORIENTED_EDGE('',*,*,#1022,.F.);
#820=ORIENTED_EDGE('',*,*,#1007,.T.);
#821=ORIENTED_EDGE('',*,*,#976,.T.);
#822=ORIENTED_EDGE('',*,*,#1021,.F.);
#823=ORIENTED_EDGE('',*,*,#995,.T.);
#824=ORIENTED_EDGE('',*,*,#1023,.F.);
#825=ORIENTED_EDGE('',*,*,#1024,.F.);
#826=ORIENTED_EDGE('',*,*,#1025,.F.);
#827=ORIENTED_EDGE('',*,*,#1026,.F.);
#828=ORIENTED_EDGE('',*,*,#1027,.F.);
#829=ORIENTED_EDGE('',*,*,#1001,.T.);
#830=ORIENTED_EDGE('',*,*,#1028,.F.);
#831=ORIENTED_EDGE('',*,*,#979,.T.);
#832=ORIENTED_EDGE('',*,*,#1005,.T.);
#833=ORIENTED_EDGE('',*,*,#980,.T.);
#834=ORIENTED_EDGE('',*,*,#1028,.T.);
#835=ORIENTED_EDGE('',*,*,#1000,.T.);
#836=ORIENTED_EDGE('',*,*,#1016,.F.);
#837=ORIENTED_EDGE('',*,*,#1020,.F.);
#838=ORIENTED_EDGE('',*,*,#982,.T.);
#839=ORIENTED_EDGE('',*,*,#1015,.F.);
#840=ORIENTED_EDGE('',*,*,#1013,.T.);
#841=ORIENTED_EDGE('',*,*,#984,.T.);
#842=ORIENTED_EDGE('',*,*,#1029,.T.);
#843=ORIENTED_EDGE('',*,*,#1030,.F.);
#844=ORIENTED_EDGE('',*,*,#1031,.T.);
#845=ORIENTED_EDGE('',*,*,#1031,.F.);
#846=ORIENTED_EDGE('',*,*,#1032,.F.);
#847=ORIENTED_EDGE('',*,*,#1033,.F.);
#848=ORIENTED_EDGE('',*,*,#985,.T.);
#849=ORIENTED_EDGE('',*,*,#1034,.T.);
#850=ORIENTED_EDGE('',*,*,#986,.T.);
#851=ORIENTED_EDGE('',*,*,#1033,.T.);
#852=ORIENTED_EDGE('',*,*,#1035,.F.);
#853=ORIENTED_EDGE('',*,*,#1036,.F.);
#854=ORIENTED_EDGE('',*,*,#1029,.F.);
#855=ORIENTED_EDGE('',*,*,#987,.T.);
#856=ORIENTED_EDGE('',*,*,#1036,.T.);
#857=ORIENTED_EDGE('',*,*,#1037,.F.);
#858=ORIENTED_EDGE('',*,*,#1038,.T.);
#859=ORIENTED_EDGE('',*,*,#1039,.F.);
#860=ORIENTED_EDGE('',*,*,#988,.T.);
#861=ORIENTED_EDGE('',*,*,#1040,.F.);
#862=ORIENTED_EDGE('',*,*,#989,.T.);
#863=ORIENTED_EDGE('',*,*,#1041,.F.);
#864=ORIENTED_EDGE('',*,*,#990,.T.);
#865=ORIENTED_EDGE('',*,*,#1042,.F.);
#866=ORIENTED_EDGE('',*,*,#991,.T.);
#867=ORIENTED_EDGE('',*,*,#992,.T.);
#868=ORIENTED_EDGE('',*,*,#1022,.T.);
#869=ORIENTED_EDGE('',*,*,#1043,.F.);
#870=ORIENTED_EDGE('',*,*,#1044,.T.);
#871=ORIENTED_EDGE('',*,*,#1044,.F.);
#872=ORIENTED_EDGE('',*,*,#1045,.F.);
#873=ORIENTED_EDGE('',*,*,#1046,.F.);
#874=ORIENTED_EDGE('',*,*,#993,.T.);
#875=ORIENTED_EDGE('',*,*,#1047,.T.);
#876=ORIENTED_EDGE('',*,*,#994,.T.);
#877=ORIENTED_EDGE('',*,*,#1046,.T.);
#878=ORIENTED_EDGE('',*,*,#1048,.F.);
#879=ORIENTED_EDGE('',*,*,#1023,.T.);
#880=ORIENTED_EDGE('',*,*,#1002,.T.);
#881=ORIENTED_EDGE('',*,*,#1027,.T.);
#882=ORIENTED_EDGE('',*,*,#1049,.F.);
#883=ORIENTED_EDGE('',*,*,#1050,.F.);
#884=ORIENTED_EDGE('',*,*,#1051,.F.);
#885=ORIENTED_EDGE('',*,*,#1003,.T.);
#886=ORIENTED_EDGE('',*,*,#1050,.T.);
#887=ORIENTED_EDGE('',*,*,#1052,.F.);
#888=ORIENTED_EDGE('',*,*,#1053,.T.);
#889=ORIENTED_EDGE('',*,*,#1004,.T.);
#890=ORIENTED_EDGE('',*,*,#1051,.T.);
#891=ORIENTED_EDGE('',*,*,#1054,.F.);
#892=ORIENTED_EDGE('',*,*,#1025,.T.);
#893=ORIENTED_EDGE('',*,*,#1024,.T.);
#894=ORIENTED_EDGE('',*,*,#1048,.T.);
#895=ORIENTED_EDGE('',*,*,#1045,.T.);
#896=ORIENTED_EDGE('',*,*,#1043,.T.);
#897=ORIENTED_EDGE('',*,*,#1026,.T.);
#898=ORIENTED_EDGE('',*,*,#1054,.T.);
#899=ORIENTED_EDGE('',*,*,#1052,.T.);
#900=ORIENTED_EDGE('',*,*,#1049,.T.);
#901=ORIENTED_EDGE('',*,*,#1032,.T.);
#902=ORIENTED_EDGE('',*,*,#1030,.T.);
#903=ORIENTED_EDGE('',*,*,#1037,.T.);
#904=ORIENTED_EDGE('',*,*,#1035,.T.);
#905=ORIENTED_EDGE('',*,*,#1034,.F.);
#906=ORIENTED_EDGE('',*,*,#1055,.F.);
#907=ORIENTED_EDGE('',*,*,#1056,.F.);
#908=ORIENTED_EDGE('',*,*,#1038,.F.);
#909=ORIENTED_EDGE('',*,*,#1039,.T.);
#910=ORIENTED_EDGE('',*,*,#1057,.T.);
#911=ORIENTED_EDGE('',*,*,#1040,.T.);
#912=ORIENTED_EDGE('',*,*,#1058,.T.);
#913=ORIENTED_EDGE('',*,*,#1041,.T.);
#914=ORIENTED_EDGE('',*,*,#1059,.T.);
#915=ORIENTED_EDGE('',*,*,#1042,.T.);
#916=ORIENTED_EDGE('',*,*,#1060,.T.);
#917=ORIENTED_EDGE('',*,*,#1061,.F.);
#918=ORIENTED_EDGE('',*,*,#1047,.F.);
#919=ORIENTED_EDGE('',*,*,#1053,.F.);
#920=ORIENTED_EDGE('',*,*,#1062,.F.);
#921=ORIENTED_EDGE('',*,*,#1055,.T.);
#922=ORIENTED_EDGE('',*,*,#1056,.T.);
#923=ORIENTED_EDGE('',*,*,#1057,.F.);
#924=ORIENTED_EDGE('',*,*,#1063,.F.);
#925=ORIENTED_EDGE('',*,*,#1058,.F.);
#926=ORIENTED_EDGE('',*,*,#1064,.F.);
#927=ORIENTED_EDGE('',*,*,#1059,.F.);
#928=ORIENTED_EDGE('',*,*,#1065,.F.);
#929=ORIENTED_EDGE('',*,*,#1060,.F.);
#930=ORIENTED_EDGE('',*,*,#1066,.F.);
#931=ORIENTED_EDGE('',*,*,#1061,.T.);
#932=ORIENTED_EDGE('',*,*,#1062,.T.);
#933=ORIENTED_EDGE('',*,*,#1063,.T.);
#934=ORIENTED_EDGE('',*,*,#1064,.T.);
#935=ORIENTED_EDGE('',*,*,#1065,.T.);
#936=ORIENTED_EDGE('',*,*,#1066,.T.);
#937=EDGE_CURVE('',#1067,#1067,#1068,.F.);
#938=EDGE_CURVE('',#1069,#1069,#1070,.F.);
#939=EDGE_CURVE('',#1071,#1071,#1072,.F.);
#940=EDGE_CURVE('',#1073,#1073,#1074,.F.);
#941=EDGE_CURVE('',#1075,#1076,#1077,.T.);
#942=EDGE_CURVE('',#1078,#1075,#1079,.T.);
#943=EDGE_CURVE('',#1080,#1078,#1081,.T.);
#944=EDGE_CURVE('',#1076,#1080,#1082,.T.);
#945=EDGE_CURVE('',#1083,#1083,#1084,.F.);
#946=EDGE_CURVE('',#1085,#1085,#1086,.F.);
#947=EDGE_CURVE('',#1087,#1087,#1088,.T.);
#948=EDGE_CURVE('',#1089,#1089,#1090,.T.);
#949=EDGE_CURVE('',#1091,#1092,#1093,.T.);
#950=EDGE_CURVE('',#1091,#1094,#1095,.T.);
#951=EDGE_CURVE('',#1094,#1096,#1097,.T.);
#952=EDGE_CURVE('',#1096,#1092,#1098,.T.);
#953=EDGE_CURVE('',#1076,#1099,#1100,.T.);
#954=EDGE_CURVE('',#1101,#1099,#1102,.T.);
#955=EDGE_CURVE('',#1101,#1103,#1104,.T.);
#956=EDGE_CURVE('',#1103,#1105,#1106,.T.);
#957=EDGE_CURVE('',#1092,#1105,#1107,.T.);
#958=EDGE_CURVE('',#1075,#1096,#1108,.T.);
#959=EDGE_CURVE('',#1078,#1094,#1109,.T.);
#960=EDGE_CURVE('',#1110,#1091,#1111,.T.);
#961=EDGE_CURVE('',#1112,#1110,#1113,.T.);
#962=EDGE_CURVE('',#1112,#1114,#1115,.T.);
#963=EDGE_CURVE('',#1116,#1114,#1117,.T.);
#964=EDGE_CURVE('',#1080,#1116,#1118,.T.);
#965=EDGE_CURVE('',#1099,#1116,#1119,.T.);
#966=EDGE_CURVE('',#1105,#1110,#1120,.T.);
#967=EDGE_CURVE('',#1121,#1121,#1122,.F.);
#968=EDGE_CURVE('',#1123,#1123,#1124,.F.);
#969=EDGE_CURVE('',#1125,#1125,#1126,.F.);
#970=EDGE_CURVE('',#1127,#1127,#1128,.F.);
#971=EDGE_CURVE('',#1129,#1130,#1131,.F.);
#972=EDGE_CURVE('',#1130,#1132,#1133,.F.);
#973=EDGE_CURVE('',#1132,#1134,#1135,.F.);
#974=EDGE_CURVE('',#1134,#1129,#1136,.F.);
#975=EDGE_CURVE('',#1137,#1138,#1139,.T.);
#976=EDGE_CURVE('',#1140,#1137,#1141,.F.);
#977=EDGE_CURVE('',#1101,#1140,#1142,.F.);
#978=EDGE_CURVE('',#1143,#1114,#1144,.F.);
#979=EDGE_CURVE('',#1145,#1143,#1146,.F.);
#980=EDGE_CURVE('',#1147,#1145,#1148,.T.);
#981=EDGE_CURVE('',#1149,#1147,#1150,.T.);
#982=EDGE_CURVE('',#1151,#1149,#1152,.F.);
#983=EDGE_CURVE('',#1138,#1151,#1153,.T.);
#984=EDGE_CURVE('',#1154,#1155,#1156,.T.);
#985=EDGE_CURVE('',#1157,#1154,#1158,.T.);
#986=EDGE_CURVE('',#1159,#1157,#1160,.T.);
#987=EDGE_CURVE('',#1155,#1159,#1161,.T.);
#988=EDGE_CURVE('',#1162,#1162,#1163,.T.);
#989=EDGE_CURVE('',#1164,#1164,#1165,.T.);
#990=EDGE_CURVE('',#1166,#1166,#1167,.T.);
#991=EDGE_CURVE('',#1168,#1168,#1169,.T.);
#992=EDGE_CURVE('',#1170,#1171,#1172,.F.);
#993=EDGE_CURVE('',#1173,#1170,#1174,.F.);
#994=EDGE_CURVE('',#1175,#1173,#1176,.F.);
#995=EDGE_CURVE('',#1177,#1175,#1178,.T.);
#996=EDGE_CURVE('',#1179,#1177,#1180,.F.);
#997=EDGE_CURVE('',#1181,#1179,#1182,.F.);
#998=EDGE_CURVE('',#1181,#1183,#1184,.T.);
#999=EDGE_CURVE('',#1185,#1183,#1186,.F.);
#1000=EDGE_CURVE('',#1187,#1185,#1188,.F.);
#1001=EDGE_CURVE('',#1189,#1187,#1190,.T.);
#1002=EDGE_CURVE('',#1191,#1189,#1192,.F.);
#1003=EDGE_CURVE('',#1193,#1191,#1194,.F.);
#1004=EDGE_CURVE('',#1195,#1193,#1196,.F.);
#1005=EDGE_CURVE('',#1143,#1195,#1197,.T.);
#1006=EDGE_CURVE('',#1103,#1112,#1198,.T.);
#1007=EDGE_CURVE('',#1171,#1140,#1199,.T.);
#1008=EDGE_CURVE('',#1200,#1200,#1201,.T.);
#1009=EDGE_CURVE('',#1202,#1202,#1203,.T.);
#1010=EDGE_CURVE('',#1204,#1204,#1205,.T.);
#1011=EDGE_CURVE('',#1206,#1206,#1207,.T.);
#1012=EDGE_CURVE('',#1208,#1129,#1209,.T.);
#1013=EDGE_CURVE('',#1210,#1208,#1211,.T.);
#1014=EDGE_CURVE('',#1210,#1130,#1212,.T.);
#1015=EDGE_CURVE('',#1210,#1149,#1213,.F.);
#1016=EDGE_CURVE('',#1147,#1185,#1214,.T.);
#1017=EDGE_CURVE('',#1183,#1132,#1215,.T.);
#1018=EDGE_CURVE('',#1181,#1134,#1216,.T.);
#1019=EDGE_CURVE('',#1179,#1138,#1217,.T.);
#1020=EDGE_CURVE('',#1151,#1208,#1218,.F.);
#1021=EDGE_CURVE('',#1177,#1137,#1219,.T.);
#1022=EDGE_CURVE('',#1171,#1220,#1221,.F.);
#1023=EDGE_CURVE('',#1222,#1175,#1223,.F.);
#1024=EDGE_CURVE('',#1220,#1222,#1224,.F.);
#1025=EDGE_CURVE('',#1225,#1195,#1226,.F.);
#1026=EDGE_CURVE('',#1227,#1225,#1228,.F.);
#1027=EDGE_CURVE('',#1189,#1227,#1229,.F.);
#1028=EDGE_CURVE('',#1145,#1187,#1230,.T.);
#1029=EDGE_CURVE('',#1155,#1231,#1232,.F.);
#1030=EDGE_CURVE('',#1233,#1231,#1234,.T.);
#1031=EDGE_CURVE('',#1233,#1154,#1235,.F.);
#1032=EDGE_CURVE('',#1236,#1233,#1237,.T.);
#1033=EDGE_CURVE('',#1157,#1236,#1238,.T.);
#1034=EDGE_CURVE('',#1239,#1239,#1240,.F.);
#1035=EDGE_CURVE('',#1241,#1236,#1242,.T.);
#1036=EDGE_CURVE('',#1159,#1241,#1243,.T.);
#1037=EDGE_CURVE('',#1231,#1241,#1244,.T.);
#1038=EDGE_CURVE('',#1245,#1245,#1246,.F.);
#1039=EDGE_CURVE('',#1247,#1247,#1248,.T.);
#1040=EDGE_CURVE('',#1249,#1249,#1250,.T.);
#1041=EDGE_CURVE('',#1251,#1251,#1252,.T.);
#1042=EDGE_CURVE('',#1253,#1253,#1254,.T.);
#1043=EDGE_CURVE('',#1255,#1220,#1256,.T.);
#1044=EDGE_CURVE('',#1255,#1170,#1257,.F.);
#1045=EDGE_CURVE('',#1258,#1255,#1259,.T.);
#1046=EDGE_CURVE('',#1173,#1258,#1260,.T.);
#1047=EDGE_CURVE('',#1261,#1261,#1262,.F.);
#1048=EDGE_CURVE('',#1222,#1258,#1263,.T.);
#1049=EDGE_CURVE('',#1264,#1227,#1265,.T.);
#1050=EDGE_CURVE('',#1191,#1264,#1266,.T.);
#1051=EDGE_CURVE('',#1193,#1267,#1268,.F.);
#1052=EDGE_CURVE('',#1267,#1264,#1269,.T.);
#1053=EDGE_CURVE('',#1270,#1270,#1271,.F.);
#1054=EDGE_CURVE('',#1225,#1267,#1272,.T.);
#1055=EDGE_CURVE('',#1273,#1273,#1274,.T.);
#1056=EDGE_CURVE('',#1275,#1275,#1276,.T.);
#1057=EDGE_CURVE('',#1277,#1277,#1278,.F.);
#1058=EDGE_CURVE('',#1279,#1279,#1280,.F.);
#1059=EDGE_CURVE('',#1281,#1281,#1282,.F.);
#1060=EDGE_CURVE('',#1283,#1283,#1284,.F.);
#1061=EDGE_CURVE('',#1285,#1285,#1286,.T.);
#1062=EDGE_CURVE('',#1287,#1287,#1288,.T.);
#1063=EDGE_CURVE('',#1289,#1289,#1290,.T.);
#1064=EDGE_CURVE('',#1291,#1291,#1292,.T.);
#1065=EDGE_CURVE('',#1293,#1293,#1294,.T.);
#1066=EDGE_CURVE('',#1295,#1295,#1296,.T.);
#1067=VERTEX_POINT('',#1297);
#1068=CIRCLE('',#1298,1.6);
#1069=VERTEX_POINT('',#1302);
#1070=CIRCLE('',#1303,1.6);
#1071=VERTEX_POINT('',#1307);
#1072=CIRCLE('',#1308,1.6);
#1073=VERTEX_POINT('',#1312);
#1074=CIRCLE('',#1313,1.6);
#1075=VERTEX_POINT('',#1317);
#1076=VERTEX_POINT('',#1318);
#1077=LINE('',#1319,#1320);
#1078=VERTEX_POINT('',#1322);
#1079=LINE('',#1323,#1324);
#1080=VERTEX_POINT('',#1326);
#1081=LINE('',#1327,#1328);
#1082=LINE('',#1330,#1331);
#1083=VERTEX_POINT('',#1333);
#1084=CIRCLE('',#1334,2.5);
#1085=VERTEX_POINT('',#1338);
#1086=CIRCLE('',#1339,2.5);
#1087=VERTEX_POINT('',#1343);
#1088=CIRCLE('',#1344,2.5);
#1089=VERTEX_POINT('',#1348);
#1090=CIRCLE('',#1349,2.5);
#1091=VERTEX_POINT('',#1353);
#1092=VERTEX_POINT('',#1354);
#1093=LINE('',#1355,#1356);
#1094=VERTEX_POINT('',#1358);
#1095=LINE('',#1359,#1360);
#1096=VERTEX_POINT('',#1362);
#1097=LINE('',#1363,#1364);
#1098=LINE('',#1366,#1367);
#1099=VERTEX_POINT('',#1369);
#1100=LINE('',#1370,#1371);
#1101=VERTEX_POINT('',#1373);
#1102=LINE('',#1374,#1375);
#1103=VERTEX_POINT('',#1377);
#1104=LINE('',#1378,#1379);
#1105=VERTEX_POINT('',#1381);
#1106=LINE('',#1382,#1383);
#1107=LINE('',#1385,#1386);
#1108=LINE('',#1388,#1389);
#1109=LINE('',#1391,#1392);
#1110=VERTEX_POINT('',#1394);
#1111=LINE('',#1395,#1396);
#1112=VERTEX_POINT('',#1398);
#1113=LINE('',#1399,#1400);
#1114=VERTEX_POINT('',#1402);
#1115=LINE('',#1403,#1404);
#1116=VERTEX_POINT('',#1406);
#1117=LINE('',#1407,#1408);
#1118=LINE('',#1410,#1411);
#1119=LINE('',#1413,#1414);
#1120=LINE('',#1416,#1417);
#1121=VERTEX_POINT('',#1419);
#1122=CIRCLE('',#1420,1.6);
#1123=VERTEX_POINT('',#1424);
#1124=CIRCLE('',#1425,1.6);
#1125=VERTEX_POINT('',#1429);
#1126=CIRCLE('',#1430,1.6);
#1127=VERTEX_POINT('',#1434);
#1128=CIRCLE('',#1435,1.6);
#1129=VERTEX_POINT('',#1439);
#1130=VERTEX_POINT('',#1440);
#1131=LINE('',#1441,#1442);
#1132=VERTEX_POINT('',#1444);
#1133=LINE('',#1445,#1446);
#1134=VERTEX_POINT('',#1448);
#1135=LINE('',#1449,#1450);
#1136=LINE('',#1452,#1453);
#1137=VERTEX_POINT('',#1455);
#1138=VERTEX_POINT('',#1456);
#1139=LINE('',#1457,#1458);
#1140=VERTEX_POINT('',#1460);
#1141=LINE('',#1461,#1462);
#1142=LINE('',#1464,#1465);
#1143=VERTEX_POINT('',#1467);
#1144=LINE('',#1468,#1469);
#1145=VERTEX_POINT('',#1471);
#1146=LINE('',#1472,#1473);
#1147=VERTEX_POINT('',#1475);
#1148=LINE('',#1476,#1477);
#1149=VERTEX_POINT('',#1479);
#1150=LINE('',#1480,#1481);
#1151=VERTEX_POINT('',#1483);
#1152=LINE('',#1484,#1485);
#1153=LINE('',#1487,#1488);
#1154=VERTEX_POINT('',#1490);
#1155=VERTEX_POINT('',#1491);
#1156=LINE('',#1492,#1493);
#1157=VERTEX_POINT('',#1495);
#1158=LINE('',#1496,#1497);
#1159=VERTEX_POINT('',#1499);
#1160=LINE('',#1500,#1501);
#1161=LINE('',#1503,#1504);
#1162=VERTEX_POINT('',#1506);
#1163=CIRCLE('',#1507,2.5);
#1164=VERTEX_POINT('',#1511);
#1165=CIRCLE('',#1512,2.5);
#1166=VERTEX_POINT('',#1516);
#1167=CIRCLE('',#1517,2.5);
#1168=VERTEX_POINT('',#1521);
#1169=CIRCLE('',#1522,2.5);
#1170=VERTEX_POINT('',#1526);
#1171=VERTEX_POINT('',#1527);
#1172=LINE('',#1528,#1529);
#1173=VERTEX_POINT('',#1531);
#1174=LINE('',#1532,#1533);
#1175=VERTEX_POINT('',#1535);
#1176=LINE('',#1536,#1537);
#1177=VERTEX_POINT('',#1539);
#1178=LINE('',#1540,#1541);
#1179=VERTEX_POINT('',#1543);
#1180=LINE('',#1544,#1545);
#1181=VERTEX_POINT('',#1547);
#1182=LINE('',#1548,#1549);
#1183=VERTEX_POINT('',#1551);
#1184=LINE('',#1552,#1553);
#1185=VERTEX_POINT('',#1555);
#1186=LINE('',#1556,#1557);
#1187=VERTEX_POINT('',#1559);
#1188=LINE('',#1560,#1561);
#1189=VERTEX_POINT('',#1563);
#1190=LINE('',#1564,#1565);
#1191=VERTEX_POINT('',#1567);
#1192=LINE('',#1568,#1569);
#1193=VERTEX_POINT('',#1571);
#1194=LINE('',#1572,#1573);
#1195=VERTEX_POINT('',#1575);
#1196=LINE('',#1576,#1577);
#1197=LINE('',#1579,#1580);
#1198=LINE('',#1582,#1583);
#1199=LINE('',#1585,#1586);
#1200=VERTEX_POINT('',#1588);
#1201=CIRCLE('',#1589,1.6);
#1202=VERTEX_POINT('',#1593);
#1203=CIRCLE('',#1594,1.6);
#1204=VERTEX_POINT('',#1598);
#1205=CIRCLE('',#1599,1.6);
#1206=VERTEX_POINT('',#1603);
#1207=CIRCLE('',#1604,1.6);
#1208=VERTEX_POINT('',#1608);
#1209=LINE('',#1609,#1610);
#1210=VERTEX_POINT('',#1612);
#1211=LINE('',#1613,#1614);
#1212=LINE('',#1616,#1617);
#1213=LINE('',#1619,#1620);
#1214=LINE('',#1622,#1623);
#1215=LINE('',#1625,#1626);
#1216=LINE('',#1628,#1629);
#1217=LINE('',#1631,#1632);
#1218=LINE('',#1634,#1635);
#1219=LINE('',#1637,#1638);
#1220=VERTEX_POINT('',#1640);
#1221=LINE('',#1641,#1642);
#1222=VERTEX_POINT('',#1644);
#1223=LINE('',#1645,#1646);
#1224=LINE('',#1648,#1649);
#1225=VERTEX_POINT('',#1651);
#1226=LINE('',#1652,#1653);
#1227=VERTEX_POINT('',#1655);
#1228=LINE('',#1656,#1657);
#1229=LINE('',#1659,#1660);
#1230=LINE('',#1662,#1663);
#1231=VERTEX_POINT('',#1665);
#1232=LINE('',#1666,#1667);
#1233=VERTEX_POINT('',#1669);
#1234=LINE('',#1670,#1671);
#1235=LINE('',#1673,#1674);
#1236=VERTEX_POINT('',#1676);
#1237=LINE('',#1677,#1678);
#1238=LINE('',#1680,#1681);
#1239=VERTEX_POINT('',#1683);
#1240=CIRCLE('',#1684,2.2);
#1241=VERTEX_POINT('',#1688);
#1242=LINE('',#1689,#1690);
#1243=LINE('',#1692,#1693);
#1244=LINE('',#1695,#1696);
#1245=VERTEX_POINT('',#1698);
#1246=CIRCLE('',#1699,2.2);
#1247=VERTEX_POINT('',#1703);
#1248=CIRCLE('',#1704,2.5);
#1249=VERTEX_POINT('',#1708);
#1250=CIRCLE('',#1709,2.5);
#1251=VERTEX_POINT('',#1713);
#1252=CIRCLE('',#1714,2.5);
#1253=VERTEX_POINT('',#1718);
#1254=CIRCLE('',#1719,2.5);
#1255=VERTEX_POINT('',#1723);
#1256=LINE('',#1724,#1725);
#1257=LINE('',#1727,#1728);
#1258=VERTEX_POINT('',#1730);
#1259=LINE('',#1731,#1732);
#1260=LINE('',#1734,#1735);
#1261=VERTEX_POINT('',#1737);
#1262=CIRCLE('',#1738,2.2);
#1263=LINE('',#1742,#1743);
#1264=VERTEX_POINT('',#1745);
#1265=LINE('',#1746,#1747);
#1266=LINE('',#1749,#1750);
#1267=VERTEX_POINT('',#1752);
#1268=LINE('',#1753,#1754);
#1269=LINE('',#1756,#1757);
#1270=VERTEX_POINT('',#1759);
#1271=CIRCLE('',#1760,2.2);
#1272=LINE('',#1764,#1765);
#1273=VERTEX_POINT('',#1767);
#1274=CIRCLE('',#1768,2.2);
#1275=VERTEX_POINT('',#1772);
#1276=CIRCLE('',#1773,2.2);
#1277=VERTEX_POINT('',#1777);
#1278=CIRCLE('',#1778,1.1);
#1279=VERTEX_POINT('',#1782);
#1280=CIRCLE('',#1783,1.1);
#1281=VERTEX_POINT('',#1787);
#1282=CIRCLE('',#1788,1.1);
#1283=VERTEX_POINT('',#1792);
#1284=CIRCLE('',#1793,1.1);
#1285=VERTEX_POINT('',#1797);
#1286=CIRCLE('',#1798,2.2);
#1287=VERTEX_POINT('',#1802);
#1288=CIRCLE('',#1803,2.2);
#1289=VERTEX_POINT('',#1807);
#1290=CIRCLE('',#1808,1.1);
#1291=VERTEX_POINT('',#1812);
#1292=CIRCLE('',#1813,1.1);
#1293=VERTEX_POINT('',#1817);
#1294=CIRCLE('',#1818,1.1);
#1295=VERTEX_POINT('',#1822);
#1296=CIRCLE('',#1823,1.1);
#1297=CARTESIAN_POINT('',(6.,8.40000000000001,3.));
#1298=AXIS2_PLACEMENT_3D('',#1299,#1300,#1301);
#1299=CARTESIAN_POINT('',(6.,10.,3.));
#1300=DIRECTION('',(0.,0.,1.));
#1301=DIRECTION('',(6.12323399573677E-17,-1.,0.));
#1302=CARTESIAN_POINT('',(6.,8.40000000000001,1.5));
#1303=AXIS2_PLACEMENT_3D('',#1304,#1305,#1306);
#1304=CARTESIAN_POINT('',(6.,10.,1.5));
#1305=DIRECTION('',(0.,0.,1.));
#1306=DIRECTION('',(6.12323399573677E-17,-1.,0.));
#1307=CARTESIAN_POINT('',(6.,48.4,3.));
#1308=AXIS2_PLACEMENT_3D('',#1309,#1310,#1311);
#1309=CARTESIAN_POINT('',(6.,50.,3.));
#1310=DIRECTION('',(0.,0.,1.));
#1311=DIRECTION('',(6.12323399573677E-17,-1.,0.));
#1312=CARTESIAN_POINT('',(6.,48.4,1.5));
#1313=AXIS2_PLACEMENT_3D('',#1314,#1315,#1316);
#1314=CARTESIAN_POINT('',(6.,50.,1.5));
#1315=DIRECTION('',(0.,0.,1.));
#1316=DIRECTION('',(6.12323399573677E-17,-1.,0.));
#1317=CARTESIAN_POINT('',(0.,0.,0.));
#1318=CARTESIAN_POINT('',(180.,0.,0.));
#1319=CARTESIAN_POINT('',(0.,0.,0.));
#1320=VECTOR('',#1321,1.);
#1321=DIRECTION('',(1.,0.,0.));
#1322=CARTESIAN_POINT('',(0.,60.,0.));
#1323=CARTESIAN_POINT('',(0.,60.,0.));
#1324=VECTOR('',#1325,1.);
#1325=DIRECTION('',(0.,-1.,0.));
#1326=CARTESIAN_POINT('',(180.,60.,0.));
#1327=CARTESIAN_POINT('',(180.,60.,0.));
#1328=VECTOR('',#1329,1.);
#1329=DIRECTION('',(-1.,0.,0.));
#1330=CARTESIAN_POINT('',(180.,0.,0.));
#1331=VECTOR('',#1332,1.);
#1332=DIRECTION('',(0.,1.,0.));
#1333=CARTESIAN_POINT('',(6.,47.5,0.));
#1334=AXIS2_PLACEMENT_3D('',#1335,#1336,#1337);
#1335=CARTESIAN_POINT('',(6.,50.,0.));
#1336=DIRECTION('',(0.,0.,-1.));
#1337=DIRECTION('',(-6.12323399573677E-17,-1.,0.));
#1338=CARTESIAN_POINT('',(6.,7.5,0.));
#1339=AXIS2_PLACEMENT_3D('',#1340,#1341,#1342);
#1340=CARTESIAN_POINT('',(6.,10.,0.));
#1341=DIRECTION('',(0.,0.,-1.));
#1342=DIRECTION('',(-6.12323399573677E-17,-1.,0.));
#1343=CARTESIAN_POINT('',(6.,7.5,1.5));
#1344=AXIS2_PLACEMENT_3D('',#1345,#1346,#1347);
#1345=CARTESIAN_POINT('',(6.,10.,1.5));
#1346=DIRECTION('',(0.,0.,-1.));
#1347=DIRECTION('',(-6.12323399573677E-17,-1.,0.));
#1348=CARTESIAN_POINT('',(6.,47.5,1.5));
#1349=AXIS2_PLACEMENT_3D('',#1350,#1351,#1352);
#1350=CARTESIAN_POINT('',(6.,50.,1.5));
#1351=DIRECTION('',(0.,0.,-1.));
#1352=DIRECTION('',(-6.12323399573677E-17,-1.,0.));
#1353=CARTESIAN_POINT('',(12.,60.,3.));
#1354=CARTESIAN_POINT('',(12.,-3.06161699786839E-17,3.));
#1355=CARTESIAN_POINT('',(12.,60.,3.));
#1356=VECTOR('',#1357,1.);
#1357=DIRECTION('',(0.,-1.,0.));
#1358=CARTESIAN_POINT('',(0.,60.,3.));
#1359=CARTESIAN_POINT('',(12.,60.,3.));
#1360=VECTOR('',#1361,1.);
#1361=DIRECTION('',(-1.,0.,0.));
#1362=CARTESIAN_POINT('',(0.,0.,3.));
#1363=CARTESIAN_POINT('',(0.,60.,3.));
#1364=VECTOR('',#1365,1.);
#1365=DIRECTION('',(0.,-1.,0.));
#1366=CARTESIAN_POINT('',(0.,0.,3.));
#1367=VECTOR('',#1368,1.);
#1368=DIRECTION('',(1.,0.,0.));
#1369=CARTESIAN_POINT('',(180.,0.,3.));
#1370=CARTESIAN_POINT('',(180.,0.,0.));
#1371=VECTOR('',#1372,1.);
#1372=DIRECTION('',(0.,0.,1.));
#1373=CARTESIAN_POINT('',(15.,-3.06161699786839E-17,3.));
#1374=CARTESIAN_POINT('',(15.,0.,3.));
#1375=VECTOR('',#1376,1.);
#1376=DIRECTION('',(1.,0.,0.));
#1377=CARTESIAN_POINT('',(15.,-3.24531401774049E-15,53.));
#1378=CARTESIAN_POINT('',(15.,-9.18485099360517E-17,3.00000000000001));
#1379=VECTOR('',#1380,1.);
#1380=DIRECTION('',(0.,-3.06161699786838E-17,1.));
#1381=CARTESIAN_POINT('',(12.,-3.24531401774049E-15,53.));
#1382=CARTESIAN_POINT('',(15.,-1.62265700887024E-15,53.));
#1383=VECTOR('',#1384,1.);
#1384=DIRECTION('',(-1.,0.,0.));
#1385=CARTESIAN_POINT('',(12.,-9.18485099360517E-17,3.00000000000001));
#1386=VECTOR('',#1387,1.);
#1387=DIRECTION('',(0.,-3.06161699786838E-17,1.));
#1388=CARTESIAN_POINT('',(0.,0.,0.));
#1389=VECTOR('',#1390,1.);
#1390=DIRECTION('',(0.,0.,1.));
#1391=CARTESIAN_POINT('',(0.,60.,0.));
#1392=VECTOR('',#1393,1.);
#1393=DIRECTION('',(0.,0.,1.));
#1394=CARTESIAN_POINT('',(12.,60.,53.));
#1395=CARTESIAN_POINT('',(12.,60.,53.));
#1396=VECTOR('',#1397,1.);
#1397=DIRECTION('',(0.,0.,-1.));
#1398=CARTESIAN_POINT('',(15.,60.,53.));
#1399=CARTESIAN_POINT('',(15.,60.,53.));
#1400=VECTOR('',#1401,1.);
#1401=DIRECTION('',(-1.,0.,0.));
#1402=CARTESIAN_POINT('',(15.,60.,3.));
#1403=CARTESIAN_POINT('',(15.,60.,53.));
#1404=VECTOR('',#1405,1.);
#1405=DIRECTION('',(0.,0.,-1.));
#1406=CARTESIAN_POINT('',(180.,60.,3.));
#1407=CARTESIAN_POINT('',(180.,60.,3.));
#1408=VECTOR('',#1409,1.);
#1409=DIRECTION('',(-1.,0.,0.));
#1410=CARTESIAN_POINT('',(180.,60.,0.));
#1411=VECTOR('',#1412,1.);
#1412=DIRECTION('',(0.,0.,1.));
#1413=CARTESIAN_POINT('',(180.,0.,3.));
#1414=VECTOR('',#1415,1.);
#1415=DIRECTION('',(0.,1.,0.));
#1416=CARTESIAN_POINT('',(12.,-3.24531401774049E-15,53.));
#1417=VECTOR('',#1418,1.);
#1418=DIRECTION('',(0.,1.,0.));
#1419=CARTESIAN_POINT('',(12.,54.4,7.));
#1420=AXIS2_PLACEMENT_3D('',#1421,#1422,#1423);
#1421=CARTESIAN_POINT('',(12.,56.,7.));
#1422=DIRECTION('',(-1.,0.,0.));
#1423=DIRECTION('',(0.,-1.,-6.12323399573677E-17));
#1424=CARTESIAN_POINT('',(12.,54.4,49.));
#1425=AXIS2_PLACEMENT_3D('',#1426,#1427,#1428);
#1426=CARTESIAN_POINT('',(12.,56.,49.));
#1427=DIRECTION('',(-1.,0.,0.));
#1428=DIRECTION('',(0.,-1.,-6.12323399573677E-17));
#1429=CARTESIAN_POINT('',(12.,2.4,49.));
#1430=AXIS2_PLACEMENT_3D('',#1431,#1432,#1433);
#1431=CARTESIAN_POINT('',(12.,4.,49.));
#1432=DIRECTION('',(-1.,0.,0.));
#1433=DIRECTION('',(0.,-1.,-6.12323399573677E-17));
#1434=CARTESIAN_POINT('',(12.,2.4,7.));
#1435=AXIS2_PLACEMENT_3D('',#1436,#1437,#1438);
#1436=CARTESIAN_POINT('',(12.,4.,7.));
#1437=DIRECTION('',(-1.,0.,0.));
#1438=DIRECTION('',(0.,-1.,-6.12323399573677E-17));
#1439=CARTESIAN_POINT('',(12.,8.5,6.5));
#1440=CARTESIAN_POINT('',(12.,51.5,6.5));
#1441=CARTESIAN_POINT('',(12.,51.5,6.5));
#1442=VECTOR('',#1443,1.);
#1443=DIRECTION('',(0.,-1.,-6.19659362581483E-17));
#1444=CARTESIAN_POINT('',(12.,51.5,49.5));
#1445=CARTESIAN_POINT('',(12.,51.5,49.5));
#1446=VECTOR('',#1447,1.);
#1447=DIRECTION('',(0.,0.,-1.));
#1448=CARTESIAN_POINT('',(12.,8.5,49.5));
#1449=CARTESIAN_POINT('',(12.,8.5,49.5));
#1450=VECTOR('',#1451,1.);
#1451=DIRECTION('',(0.,1.,-3.30484993376791E-16));
#1452=CARTESIAN_POINT('',(12.,8.5,6.5));
#1453=VECTOR('',#1454,1.);
#1454=DIRECTION('',(0.,-8.26212483441977E-17,1.));
#1455=CARTESIAN_POINT('',(62.,6.5,3.));
#1456=CARTESIAN_POINT('',(62.,8.5,3.));
#1457=CARTESIAN_POINT('',(62.,6.5,3.));
#1458=VECTOR('',#1459,1.);
#1459=DIRECTION('',(0.,1.,0.));
#1460=CARTESIAN_POINT('',(15.,6.50000000000001,3.));
#1461=CARTESIAN_POINT('',(62.,6.5,3.));
#1462=VECTOR('',#1463,1.);
#1463=DIRECTION('',(-1.,0.,0.));
#1464=CARTESIAN_POINT('',(15.,6.50000000000001,3.));
#1465=VECTOR('',#1466,1.);
#1466=DIRECTION('',(0.,-1.,0.));
#1467=CARTESIAN_POINT('',(15.,53.5,3.));
#1468=CARTESIAN_POINT('',(15.,60.,3.));
#1469=VECTOR('',#1470,1.);
#1470=DIRECTION('',(0.,-1.,0.));
#1471=CARTESIAN_POINT('',(62.,53.5,3.));
#1472=CARTESIAN_POINT('',(15.,53.5,3.));
#1473=VECTOR('',#1474,1.);
#1474=DIRECTION('',(1.,0.,0.));
#1475=CARTESIAN_POINT('',(62.,51.5,3.));
#1476=CARTESIAN_POINT('',(62.,51.5,3.));
#1477=VECTOR('',#1478,1.);
#1478=DIRECTION('',(0.,1.,0.));
#1479=CARTESIAN_POINT('',(15.,51.5,3.));
#1480=CARTESIAN_POINT('',(15.,51.5,3.));
#1481=VECTOR('',#1482,1.);
#1482=DIRECTION('',(1.,0.,0.));
#1483=CARTESIAN_POINT('',(15.,8.50000000000002,3.));
#1484=CARTESIAN_POINT('',(15.,51.5,3.));
#1485=VECTOR('',#1486,1.);
#1486=DIRECTION('',(0.,-1.,0.));
#1487=CARTESIAN_POINT('',(62.,8.5,3.));
#1488=VECTOR('',#1489,1.);
#1489=DIRECTION('',(-1.,0.,0.));
#1490=CARTESIAN_POINT('',(168.535898384862,58.,3.));
#1491=CARTESIAN_POINT('',(168.535898384862,2.,3.));
#1492=CARTESIAN_POINT('',(168.535898384862,58.,3.));
#1493=VECTOR('',#1494,1.);
#1494=DIRECTION('',(5.07530525542929E-16,-1.,0.));
#1495=CARTESIAN_POINT('',(178.,58.,3.));
#1496=CARTESIAN_POINT('',(178.,58.,3.));
#1497=VECTOR('',#1498,1.);
#1498=DIRECTION('',(-1.,1.50155347999136E-15,0.));
#1499=CARTESIAN_POINT('',(178.,2.,3.));
#1500=CARTESIAN_POINT('',(178.,2.,3.));
#1501=VECTOR('',#1502,1.);
#1502=DIRECTION('',(0.,1.,0.));
#1503=CARTESIAN_POINT('',(168.535898384862,2.,3.));
#1504=VECTOR('',#1505,1.);
#1505=DIRECTION('',(1.,-9.38470924994603E-17,0.));
#1506=CARTESIAN_POINT('',(65.5,57.5,3.));
#1507=AXIS2_PLACEMENT_3D('',#1508,#1509,#1510);
#1508=CARTESIAN_POINT('',(65.5,55.,3.));
#1509=DIRECTION('',(0.,0.,1.));
#1510=DIRECTION('',(6.12323399573677E-17,1.,0.));
#1511=CARTESIAN_POINT('',(165.5,57.5,3.));
#1512=AXIS2_PLACEMENT_3D('',#1513,#1514,#1515);
#1513=CARTESIAN_POINT('',(165.5,55.,3.));
#1514=DIRECTION('',(0.,0.,1.));
#1515=DIRECTION('',(6.12323399573677E-17,1.,0.));
#1516=CARTESIAN_POINT('',(65.5,7.50000000000001,3.));
#1517=AXIS2_PLACEMENT_3D('',#1518,#1519,#1520);
#1518=CARTESIAN_POINT('',(65.5,5.00000000000001,3.));
#1519=DIRECTION('',(0.,0.,1.));
#1520=DIRECTION('',(6.12323399573677E-17,1.,0.));
#1521=CARTESIAN_POINT('',(165.5,7.5,3.));
#1522=AXIS2_PLACEMENT_3D('',#1523,#1524,#1525);
#1523=CARTESIAN_POINT('',(165.5,5.,3.));
#1524=DIRECTION('',(0.,0.,1.));
#1525=DIRECTION('',(6.12323399573677E-17,1.,0.));
#1526=CARTESIAN_POINT('',(15.,2.,18.));
#1527=CARTESIAN_POINT('',(15.,6.5,18.));
#1528=CARTESIAN_POINT('',(15.,6.5,18.));
#1529=VECTOR('',#1530,1.);
#1530=DIRECTION('',(0.,-1.,0.));
#1531=CARTESIAN_POINT('',(15.,2.,38.));
#1532=CARTESIAN_POINT('',(15.,2.,18.));
#1533=VECTOR('',#1534,1.);
#1534=DIRECTION('',(0.,0.,1.));
#1535=CARTESIAN_POINT('',(15.,6.5,38.));
#1536=CARTESIAN_POINT('',(15.,2.,38.));
#1537=VECTOR('',#1538,1.);
#1538=DIRECTION('',(0.,1.,0.));
#1539=CARTESIAN_POINT('',(15.,6.5,50.));
#1540=CARTESIAN_POINT('',(15.,6.5,50.));
#1541=VECTOR('',#1542,1.);
#1542=DIRECTION('',(0.,7.40148683083438E-17,-1.));
#1543=CARTESIAN_POINT('',(15.,8.5,50.));
#1544=CARTESIAN_POINT('',(15.,6.5,50.));
#1545=VECTOR('',#1546,1.);
#1546=DIRECTION('',(0.,1.,0.));
#1547=CARTESIAN_POINT('',(15.,8.5,49.5));
#1548=CARTESIAN_POINT('',(15.,8.5,50.));
#1549=VECTOR('',#1550,1.);
#1550=DIRECTION('',(0.,0.,-1.));
#1551=CARTESIAN_POINT('',(15.,51.5,49.5));
#1552=CARTESIAN_POINT('',(15.,8.5,49.5));
#1553=VECTOR('',#1554,1.);
#1554=DIRECTION('',(0.,1.,-3.30484993376791E-16));
#1555=CARTESIAN_POINT('',(15.,51.5,50.));
#1556=CARTESIAN_POINT('',(15.,51.5,49.5));
#1557=VECTOR('',#1558,1.);
#1558=DIRECTION('',(0.,0.,1.));
#1559=CARTESIAN_POINT('',(15.,53.5,50.));
#1560=CARTESIAN_POINT('',(15.,51.5,50.));
#1561=VECTOR('',#1562,1.);
#1562=DIRECTION('',(0.,1.,0.));
#1563=CARTESIAN_POINT('',(15.,53.5,38.));
#1564=CARTESIAN_POINT('',(15.,53.5,38.));
#1565=VECTOR('',#1566,1.);
#1566=DIRECTION('',(0.,0.,1.));
#1567=CARTESIAN_POINT('',(15.,58.,38.));
#1568=CARTESIAN_POINT('',(15.,53.5,38.));
#1569=VECTOR('',#1570,1.);
#1570=DIRECTION('',(0.,1.,0.));
#1571=CARTESIAN_POINT('',(15.,58.,18.));
#1572=CARTESIAN_POINT('',(15.,58.,38.));
#1573=VECTOR('',#1574,1.);
#1574=DIRECTION('',(0.,0.,-1.));
#1575=CARTESIAN_POINT('',(15.,53.5,18.));
#1576=CARTESIAN_POINT('',(15.,58.,18.));
#1577=VECTOR('',#1578,1.);
#1578=DIRECTION('',(0.,-1.,0.));
#1579=CARTESIAN_POINT('',(15.,53.5,3.));
#1580=VECTOR('',#1581,1.);
#1581=DIRECTION('',(0.,0.,1.));
#1582=CARTESIAN_POINT('',(15.,-3.24531401774049E-15,53.));
#1583=VECTOR('',#1584,1.);
#1584=DIRECTION('',(0.,1.,0.));
#1585=CARTESIAN_POINT('',(15.,6.5,18.));
#1586=VECTOR('',#1587,1.);
#1587=DIRECTION('',(0.,1.1842378929335E-16,-1.));
#1588=CARTESIAN_POINT('',(15.,2.4,7.));
#1589=AXIS2_PLACEMENT_3D('',#1590,#1591,#1592);
#1590=CARTESIAN_POINT('',(15.,4.,7.));
#1591=DIRECTION('',(-1.,0.,0.));
#1592=DIRECTION('',(0.,-1.,-6.12323399573677E-17));
#1593=CARTESIAN_POINT('',(15.,2.4,49.));
#1594=AXIS2_PLACEMENT_3D('',#1595,#1596,#1597);
#1595=CARTESIAN_POINT('',(15.,4.,49.));
#1596=DIRECTION('',(-1.,0.,0.));
#1597=DIRECTION('',(0.,-1.,-6.12323399573677E-17));
#1598=CARTESIAN_POINT('',(15.,54.4,49.));
#1599=AXIS2_PLACEMENT_3D('',#1600,#1601,#1602);
#1600=CARTESIAN_POINT('',(15.,56.,49.));
#1601=DIRECTION('',(-1.,0.,0.));
#1602=DIRECTION('',(0.,-1.,-6.12323399573677E-17));
#1603=CARTESIAN_POINT('',(15.,54.4,7.));
#1604=AXIS2_PLACEMENT_3D('',#1605,#1606,#1607);
#1605=CARTESIAN_POINT('',(15.,56.,7.));
#1606=DIRECTION('',(-1.,0.,0.));
#1607=DIRECTION('',(0.,-1.,-6.12323399573677E-17));
#1608=CARTESIAN_POINT('',(15.,8.5,6.5));
#1609=CARTESIAN_POINT('',(15.,8.5,6.5));
#1610=VECTOR('',#1611,1.);
#1611=DIRECTION('',(-1.,0.,0.));
#1612=CARTESIAN_POINT('',(15.,51.5,6.5));
#1613=CARTESIAN_POINT('',(15.,51.5,6.5));
#1614=VECTOR('',#1615,1.);
#1615=DIRECTION('',(0.,-1.,-6.19659362581483E-17));
#1616=CARTESIAN_POINT('',(15.,51.5,6.5));
#1617=VECTOR('',#1618,1.);
#1618=DIRECTION('',(-1.,0.,0.));
#1619=CARTESIAN_POINT('',(15.,51.5,3.));
#1620=VECTOR('',#1621,1.);
#1621=DIRECTION('',(0.,0.,1.));
#1622=CARTESIAN_POINT('',(62.,51.5,3.));
#1623=VECTOR('',#1624,1.);
#1624=DIRECTION('',(-0.707106781186548,0.,0.707106781186548));
#1625=CARTESIAN_POINT('',(15.,51.5,49.5));
#1626=VECTOR('',#1627,1.);
#1627=DIRECTION('',(-1.,0.,0.));
#1628=CARTESIAN_POINT('',(15.,8.5,49.5));
#1629=VECTOR('',#1630,1.);
#1630=DIRECTION('',(-1.,0.,0.));
#1631=CARTESIAN_POINT('',(15.,8.5,50.));
#1632=VECTOR('',#1633,1.);
#1633=DIRECTION('',(0.707106781186547,5.34499560402987E-17,-0.707106781186548));
#1634=CARTESIAN_POINT('',(15.,8.5,6.49999999999999));
#1635=VECTOR('',#1636,1.);
#1636=DIRECTION('',(0.,0.,-1.));
#1637=CARTESIAN_POINT('',(15.,6.5,50.));
#1638=VECTOR('',#1639,1.);
#1639=DIRECTION('',(0.707106781186547,6.68124450503734E-17,-0.707106781186548));
#1640=CARTESIAN_POINT('',(25.,6.5,28.));
#1641=CARTESIAN_POINT('',(25.,6.5,28.));
#1642=VECTOR('',#1643,1.);
#1643=DIRECTION('',(-0.707106781186548,6.2803698347351E-17,-0.707106781186547));
#1644=CARTESIAN_POINT('',(25.,6.5,38.));
#1645=CARTESIAN_POINT('',(15.,6.5,38.));
#1646=VECTOR('',#1647,1.);
#1647=DIRECTION('',(1.,0.,7.105427357601E-16));
#1648=CARTESIAN_POINT('',(25.,6.5,38.));
#1649=VECTOR('',#1650,1.);
#1650=DIRECTION('',(0.,8.88178419700125E-17,-1.));
#1651=CARTESIAN_POINT('',(25.,53.5,28.));
#1652=CARTESIAN_POINT('',(15.,53.5,18.));
#1653=VECTOR('',#1654,1.);
#1654=DIRECTION('',(0.707106781186547,0.,0.707106781186547));
#1655=CARTESIAN_POINT('',(25.,53.5,38.));
#1656=CARTESIAN_POINT('',(25.,53.5,28.));
#1657=VECTOR('',#1658,1.);
#1658=DIRECTION('',(0.,0.,1.));
#1659=CARTESIAN_POINT('',(25.,53.5,38.));
#1660=VECTOR('',#1661,1.);
#1661=DIRECTION('',(-1.,0.,0.));
#1662=CARTESIAN_POINT('',(62.,53.5,3.));
#1663=VECTOR('',#1664,1.);
#1664=DIRECTION('',(-0.707106781186548,0.,0.707106781186548));
#1665=CARTESIAN_POINT('',(172.,2.,8.99999999999999));
#1666=CARTESIAN_POINT('',(172.,2.,8.99999999999999));
#1667=VECTOR('',#1668,1.);
#1668=DIRECTION('',(-0.500000000000005,-6.40987562127853E-17,-0.866025403784436));
#1669=CARTESIAN_POINT('',(172.,58.,8.99999999999999));
#1670=CARTESIAN_POINT('',(172.,58.,8.99999999999999));
#1671=VECTOR('',#1672,1.);
#1672=DIRECTION('',(0.,-1.,-3.1720657846433E-17));
#1673=CARTESIAN_POINT('',(168.535898384862,58.,3.));
#1674=VECTOR('',#1675,1.);
#1675=DIRECTION('',(0.500000000000005,-1.02558009940457E-15,0.866025403784436));
#1676=CARTESIAN_POINT('',(178.,58.,9.));
#1677=CARTESIAN_POINT('',(178.,58.,9.));
#1678=VECTOR('',#1679,1.);
#1679=DIRECTION('',(-1.,1.1842378929335E-15,0.));
#1680=CARTESIAN_POINT('',(178.,58.,3.));
#1681=VECTOR('',#1682,1.);
#1682=DIRECTION('',(0.,0.,1.));
#1683=CARTESIAN_POINT('',(172.8,58.,6.));
#1684=AXIS2_PLACEMENT_3D('',#1685,#1686,#1687);
#1685=CARTESIAN_POINT('',(175.,58.,6.));
#1686=DIRECTION('',(1.1842378929335E-15,1.,0.));
#1687=DIRECTION('',(-1.,1.1842378929335E-15,-1.22464679914735E-16));
#1688=CARTESIAN_POINT('',(178.,2.,9.));
#1689=CARTESIAN_POINT('',(178.,2.,9.));
#1690=VECTOR('',#1691,1.);
#1691=DIRECTION('',(0.,1.,0.));
#1692=CARTESIAN_POINT('',(178.,2.,3.));
#1693=VECTOR('',#1694,1.);
#1694=DIRECTION('',(0.,0.,1.));
#1695=CARTESIAN_POINT('',(172.,2.,9.));
#1696=VECTOR('',#1697,1.);
#1697=DIRECTION('',(1.,-7.40148683083438E-17,0.));
#1698=CARTESIAN_POINT('',(177.2,2.,6.));
#1699=AXIS2_PLACEMENT_3D('',#1700,#1701,#1702);
#1700=CARTESIAN_POINT('',(175.,2.,6.));
#1701=DIRECTION('',(-7.40148683083438E-17,-1.,0.));
#1702=DIRECTION('',(1.,-7.40148683083438E-17,0.));
#1703=CARTESIAN_POINT('',(65.5,57.5,6.));
#1704=AXIS2_PLACEMENT_3D('',#1705,#1706,#1707);
#1705=CARTESIAN_POINT('',(65.5,55.,6.));
#1706=DIRECTION('',(0.,0.,1.));
#1707=DIRECTION('',(6.12323399573677E-17,1.,0.));
#1708=CARTESIAN_POINT('',(165.5,57.5,6.));
#1709=AXIS2_PLACEMENT_3D('',#1710,#1711,#1712);
#1710=CARTESIAN_POINT('',(165.5,55.,6.));
#1711=DIRECTION('',(0.,0.,1.));
#1712=DIRECTION('',(6.12323399573677E-17,1.,0.));
#1713=CARTESIAN_POINT('',(65.5,7.50000000000001,6.));
#1714=AXIS2_PLACEMENT_3D('',#1715,#1716,#1717);
#1715=CARTESIAN_POINT('',(65.5,5.00000000000001,6.));
#1716=DIRECTION('',(0.,0.,1.));
#1717=DIRECTION('',(6.12323399573677E-17,1.,0.));
#1718=CARTESIAN_POINT('',(165.5,7.5,6.));
#1719=AXIS2_PLACEMENT_3D('',#1720,#1721,#1722);
#1720=CARTESIAN_POINT('',(165.5,5.,6.));
#1721=DIRECTION('',(0.,0.,1.));
#1722=DIRECTION('',(6.12323399573677E-17,1.,0.));
#1723=CARTESIAN_POINT('',(25.,2.,28.));
#1724=CARTESIAN_POINT('',(25.,2.,28.));
#1725=VECTOR('',#1726,1.);
#1726=DIRECTION('',(0.,1.,0.));
#1727=CARTESIAN_POINT('',(15.,2.,18.));
#1728=VECTOR('',#1729,1.);
#1729=DIRECTION('',(0.707106781186548,-4.71027737605133E-17,0.707106781186547));
#1730=CARTESIAN_POINT('',(25.,2.,38.));
#1731=CARTESIAN_POINT('',(25.,2.,38.));
#1732=VECTOR('',#1733,1.);
#1733=DIRECTION('',(0.,0.,-1.));
#1734=CARTESIAN_POINT('',(15.,2.,38.));
#1735=VECTOR('',#1736,1.);
#1736=DIRECTION('',(1.,0.,0.));
#1737=CARTESIAN_POINT('',(22.2,2.,33.));
#1738=AXIS2_PLACEMENT_3D('',#1739,#1740,#1741);
#1739=CARTESIAN_POINT('',(20.,2.,33.));
#1740=DIRECTION('',(0.,-1.,0.));
#1741=DIRECTION('',(1.,0.,0.));
#1742=CARTESIAN_POINT('',(25.,6.5,38.));
#1743=VECTOR('',#1744,1.);
#1744=DIRECTION('',(0.,-1.,0.));
#1745=CARTESIAN_POINT('',(25.,58.,38.));
#1746=CARTESIAN_POINT('',(25.,58.,38.));
#1747=VECTOR('',#1748,1.);
#1748=DIRECTION('',(0.,-1.,0.));
#1749=CARTESIAN_POINT('',(15.,58.,38.));
#1750=VECTOR('',#1751,1.);
#1751=DIRECTION('',(1.,0.,0.));
#1752=CARTESIAN_POINT('',(25.,58.,28.));
#1753=CARTESIAN_POINT('',(25.,58.,28.));
#1754=VECTOR('',#1755,1.);
#1755=DIRECTION('',(-0.707106781186548,0.,-0.707106781186547));
#1756=CARTESIAN_POINT('',(25.,58.,28.));
#1757=VECTOR('',#1758,1.);
#1758=DIRECTION('',(0.,0.,1.));
#1759=CARTESIAN_POINT('',(17.8,58.,33.));
#1760=AXIS2_PLACEMENT_3D('',#1761,#1762,#1763);
#1761=CARTESIAN_POINT('',(20.,58.,33.));
#1762=DIRECTION('',(0.,1.,0.));
#1763=DIRECTION('',(-1.,0.,-1.22464679914735E-16));
#1764=CARTESIAN_POINT('',(25.,53.5,28.));
#1765=VECTOR('',#1766,1.);
#1766=DIRECTION('',(0.,1.,0.));
#1767=CARTESIAN_POINT('',(172.8,48.,6.));
#1768=AXIS2_PLACEMENT_3D('',#1769,#1770,#1771);
#1769=CARTESIAN_POINT('',(175.,48.,6.));
#1770=DIRECTION('',(1.1842378929335E-15,1.,0.));
#1771=DIRECTION('',(-1.,1.1842378929335E-15,-1.22464679914735E-16));
#1772=CARTESIAN_POINT('',(177.2,12.,6.));
#1773=AXIS2_PLACEMENT_3D('',#1774,#1775,#1776);
#1774=CARTESIAN_POINT('',(175.,12.,6.));
#1775=DIRECTION('',(-7.40148683083438E-17,-1.,0.));
#1776=DIRECTION('',(1.,-7.40148683083438E-17,0.));
#1777=CARTESIAN_POINT('',(65.5,56.1,6.));
#1778=AXIS2_PLACEMENT_3D('',#1779,#1780,#1781);
#1779=CARTESIAN_POINT('',(65.5,55.,6.));
#1780=DIRECTION('',(0.,0.,1.));
#1781=DIRECTION('',(6.12323399573677E-17,1.,0.));
#1782=CARTESIAN_POINT('',(165.5,56.1,6.));
#1783=AXIS2_PLACEMENT_3D('',#1784,#1785,#1786);
#1784=CARTESIAN_POINT('',(165.5,55.,6.));
#1785=DIRECTION('',(0.,0.,1.));
#1786=DIRECTION('',(6.12323399573677E-17,1.,0.));
#1787=CARTESIAN_POINT('',(65.5,6.10000000000001,6.));
#1788=AXIS2_PLACEMENT_3D('',#1789,#1790,#1791);
#1789=CARTESIAN_POINT('',(65.5,5.00000000000001,6.));
#1790=DIRECTION('',(0.,0.,1.));
#1791=DIRECTION('',(6.12323399573677E-17,1.,0.));
#1792=CARTESIAN_POINT('',(165.5,6.1,6.));
#1793=AXIS2_PLACEMENT_3D('',#1794,#1795,#1796);
#1794=CARTESIAN_POINT('',(165.5,5.,6.));
#1795=DIRECTION('',(0.,0.,1.));
#1796=DIRECTION('',(6.12323399573677E-17,1.,0.));
#1797=CARTESIAN_POINT('',(22.2,7.,33.));
#1798=AXIS2_PLACEMENT_3D('',#1799,#1800,#1801);
#1799=CARTESIAN_POINT('',(20.,7.,33.));
#1800=DIRECTION('',(0.,-1.,0.));
#1801=DIRECTION('',(1.,0.,0.));
#1802=CARTESIAN_POINT('',(17.8,53.,33.));
#1803=AXIS2_PLACEMENT_3D('',#1804,#1805,#1806);
#1804=CARTESIAN_POINT('',(20.,53.,33.));
#1805=DIRECTION('',(0.,1.,0.));
#1806=DIRECTION('',(-1.,0.,-1.22464679914735E-16));
#1807=CARTESIAN_POINT('',(65.5,56.1,1.));
#1808=AXIS2_PLACEMENT_3D('',#1809,#1810,#1811);
#1809=CARTESIAN_POINT('',(65.5,55.,1.));
#1810=DIRECTION('',(0.,0.,1.));
#1811=DIRECTION('',(6.12323399573677E-17,1.,0.));
#1812=CARTESIAN_POINT('',(165.5,56.1,1.));
#1813=AXIS2_PLACEMENT_3D('',#1814,#1815,#1816);
#1814=CARTESIAN_POINT('',(165.5,55.,1.));
#1815=DIRECTION('',(0.,0.,1.));
#1816=DIRECTION('',(6.12323399573677E-17,1.,0.));
#1817=CARTESIAN_POINT('',(65.5,6.10000000000001,1.));
#1818=AXIS2_PLACEMENT_3D('',#1819,#1820,#1821);
#1819=CARTESIAN_POINT('',(65.5,5.00000000000001,1.));
#1820=DIRECTION('',(0.,0.,1.));
#1821=DIRECTION('',(6.12323399573677E-17,1.,0.));
#1822=CARTESIAN_POINT('',(165.5,6.1,1.));
#1823=AXIS2_PLACEMENT_3D('',#1824,#1825,#1826);
#1824=CARTESIAN_POINT('',(165.5,5.,1.));
#1825=DIRECTION('',(0.,0.,1.));
#1826=DIRECTION('',(6.12323399573677E-17,1.,0.));
ENDSEC;
END-ISO-10303-21;
