ISO-10303-21;
HEADER;
FILE_DESCRIPTION(('STEP AP242'),
    '1');
FILE_NAME('EngineMount',
    '',
    ('UNSPECIFIED'),
    ('UNSPECIFIED'),
    'C3D Converter',
    'C3D Toolkit',
    '');
FILE_SCHEMA(('AP242_MANAGED_MODEL_BASED_3D_ENGINEERING_MIM_LF { 1 0 10303 442 1 1 4 }'));
ENDSEC;

DATA;
#1=PRODUCT_DEFINITION('','UNSPECIFIED',#28,#31);
#2=SHAPE_DEFINITION_REPRESENTATION(#26,#3);
#3=SHAPE_REPRESENTATION('NONE',(#4),#8);
#4=AXIS2_PLACEMENT_3D('',#5,#6,#7);
#5=CARTESIAN_POINT('',(0.,0.,0.));
#6=DIRECTION('',(0.,0.,1.));
#7=DIRECTION('',(1.,0.,0.));
#8=(GEOMETRIC_REPRESENTATION_CONTEXT(3)GLOBAL_UNCERTAINTY_ASSIGNED_CONTEXT((#10))
GLOBAL_UNIT_ASSIGNED_CONTEXT((#9,#11,#12))REPRESENTATION_CONTEXT('NONE','NONE'));
#9=(LENGTH_UNIT()NAMED_UNIT(*)SI_UNIT(.MILLI.,.METRE.));
#10=UNCERTAINTY_MEASURE_WITH_UNIT(LENGTH_MEASURE(1.E-5),#9,'NONE','NONE');
#11=(NAMED_UNIT(*)PLANE_ANGLE_UNIT()SI_UNIT($,.RADIAN.));
#12=(NAMED_UNIT(*)SI_UNIT($,.STERADIAN.)SOLID_ANGLE_UNIT());
#13=MANIFOLD_SOLID_BREP('',#14);
#14=CLOSED_SHELL('',(#53,#54,#55,#56,#57,#58,#59,#60,#61,#62,#63,#64,#65,#66,#67,
#68,#69,#70,#71,#72,#73,#74,#75,#76,#77,#78,#79,#80,#81,#82,#83,#84,#85,#86,#87,
#88,#89,#90,#91,#92,#93,#94,#95,#96,#97,#98,#99,#100,#101,#102,#103,#104,#105,#106,
#107,#108,#109,#110,#111,#112,#113,#114,#115,#116,#117,#118,#119));
#15=COLOUR_RGB('',0.564705882352941,0.564705882352941,0.564705882352941);
#16=FILL_AREA_STYLE_COLOUR('',#15);
#17=FILL_AREA_STYLE($,(#16));
#18=SURFACE_STYLE_FILL_AREA(#17);
#19=SURFACE_SIDE_STYLE('',(#18));
#20=SURFACE_STYLE_USAGE(.BOTH.,#19);
#21=PRESENTATION_STYLE_ASSIGNMENT((#20));
#22=MECHANICAL_DESIGN_GEOMETRIC_PRESENTATION_REPRESENTATION('NONE',(#23),#8);
#23=STYLED_ITEM('',(#21),#13);
#24=ADVANCED_BREP_SHAPE_REPRESENTATION('NONE',(#13),#8);
#25=SHAPE_REPRESENTATION_RELATIONSHIP('','',#3,#24);
#26=PRODUCT_DEFINITION_SHAPE('NONE','NONE',#1);
#27=MECHANICAL_CONTEXT('NONE',#32,'mechanical');
#28=PRODUCT_DEFINITION_FORMATION_WITH_SPECIFIED_SOURCE('ANY','UNSPECIFIED',#29,.NOT_KNOWN.);
#29=PRODUCT('','\X2\0414043504420430043B044C\X0\','NONE',(#27));
#30=PRODUCT_RELATED_PRODUCT_CATEGORY('detail','',(#29));
#31=DESIGN_CONTEXT('detailed design',#32,'design');
#32=APPLICATION_CONTEXT('configuration controlled 3d designs of mechanical parts and assemblies');
#33=APPLICATION_PROTOCOL_DEFINITION('international standard','config_control_design',
1994,#32);
#34=CC_DESIGN_DATE_AND_TIME_ASSIGNMENT(#35,#39,(#1));
#35=DATE_AND_TIME(#36,#37);
#36=CALENDAR_DATE(0,1,1);
#37=LOCAL_TIME(0,0,0.,#38);
#38=COORDINATED_UNIVERSAL_TIME_OFFSET(0,0,.AHEAD.);
#39=DATE_TIME_ROLE('creation_date');
#40=CC_DESIGN_APPROVAL(#41,(#1));
#41=APPROVAL(#42,'UNSPECIFIED');
#42=APPROVAL_STATUS('not_yet_approved');
#43=APPROVAL_DATE_TIME(#44,#41);
#44=DATE_AND_TIME(#45,#46);
#45=CALENDAR_DATE(0,1,1);
#46=LOCAL_TIME(0,0,0.,#47);
#47=COORDINATED_UNIVERSAL_TIME_OFFSET(0,0,.AHEAD.);
#48=PERSON('UNSPECIFIED','Cybermeatball','UNSPECIFIED',('UNSPECIFIED'),('UNSPECIFIED'),
('UNSPECIFIED'));
#49=ORGANIZATION('UNSPECIFIED','UNSPECIFIED','UNSPECIFIED');
#50=PERSON_AND_ORGANIZATION(#48,#49);
#51=PERSON_AND_ORGANIZATION_ROLE('creator');
#52=CC_DESIGN_PERSON_AND_ORGANIZATION_ASSIGNMENT(#50,#51,(#28,#1));
#53=ADVANCED_FACE('',(#120,#122,#124),#126,.T.);
#54=ADVANCED_FACE('',(#131,#133),#135,.F.);
#55=ADVANCED_FACE('',(#140,#142),#144,.F.);
#56=ADVANCED_FACE('',(#149),#151,.T.);
#57=ADVANCED_FACE('',(#156,#158),#160,.T.);
#58=ADVANCED_FACE('',(#165,#167,#169,#171,#173,#175,#177,#179,#181,#183,#185,#187),
#189,.F.);
#59=ADVANCED_FACE('',(#194,#196),#198,.T.);
#60=ADVANCED_FACE('',(#203),#205,.T.);
#61=ADVANCED_FACE('',(#210),#212,.T.);
#62=ADVANCED_FACE('',(#217),#219,.T.);
#63=ADVANCED_FACE('',(#224,#226,#228,#230,#232,#234,#236,#238,#240,#242),#244,.T.);
#64=ADVANCED_FACE('',(#249),#251,.T.);
#65=ADVANCED_FACE('',(#256),#258,.T.);
#66=ADVANCED_FACE('',(#263,#265),#267,.F.);
#67=ADVANCED_FACE('',(#272,#274),#276,.T.);
#68=ADVANCED_FACE('',(#281),#283,.F.);
#69=ADVANCED_FACE('',(#288,#290),#292,.F.);
#70=ADVANCED_FACE('',(#297),#299,.F.);
#71=ADVANCED_FACE('',(#304,#306),#308,.F.);
#72=ADVANCED_FACE('',(#313),#315,.F.);
#73=ADVANCED_FACE('',(#320,#322),#324,.F.);
#74=ADVANCED_FACE('',(#329),#331,.F.);
#75=ADVANCED_FACE('',(#336,#338),#340,.F.);
#76=ADVANCED_FACE('',(#345,#347),#349,.F.);
#77=ADVANCED_FACE('',(#354,#356),#358,.F.);
#78=ADVANCED_FACE('',(#363,#365),#367,.F.);
#79=ADVANCED_FACE('',(#372,#374),#376,.F.);
#80=ADVANCED_FACE('',(#381,#383),#385,.F.);
#81=ADVANCED_FACE('',(#390,#392),#394,.F.);
#82=ADVANCED_FACE('',(#399,#401),#403,.F.);
#83=ADVANCED_FACE('',(#408,#410),#412,.F.);
#84=ADVANCED_FACE('',(#417,#419),#421,.F.);
#85=ADVANCED_FACE('',(#426),#428,.T.);
#86=ADVANCED_FACE('',(#433),#435,.T.);
#87=ADVANCED_FACE('',(#440),#442,.T.);
#88=ADVANCED_FACE('',(#447),#449,.T.);
#89=ADVANCED_FACE('',(#454),#456,.T.);
#90=ADVANCED_FACE('',(#461,#463),#465,.F.);
#91=ADVANCED_FACE('',(#470,#472),#474,.F.);
#92=ADVANCED_FACE('',(#479),#481,.F.);
#93=ADVANCED_FACE('',(#486,#488),#490,.F.);
#94=ADVANCED_FACE('',(#495),#497,.F.);
#95=ADVANCED_FACE('',(#502,#504),#506,.F.);
#96=ADVANCED_FACE('',(#511),#513,.F.);
#97=ADVANCED_FACE('',(#518,#520),#522,.F.);
#98=ADVANCED_FACE('',(#527),#529,.F.);
#99=ADVANCED_FACE('',(#534,#536),#538,.F.);
#100=ADVANCED_FACE('',(#543,#545),#547,.F.);
#101=ADVANCED_FACE('',(#552,#554),#556,.F.);
#102=ADVANCED_FACE('',(#561,#563),#565,.T.);
#103=ADVANCED_FACE('',(#570),#572,.T.);
#104=ADVANCED_FACE('',(#577),#579,.T.);
#105=ADVANCED_FACE('',(#584),#586,.T.);
#106=ADVANCED_FACE('',(#591),#593,.T.);
#107=ADVANCED_FACE('',(#598,#600),#602,.F.);
#108=ADVANCED_FACE('',(#607,#609,#611,#613),#615,.F.);
#109=ADVANCED_FACE('',(#620,#622),#624,.F.);
#110=ADVANCED_FACE('',(#629,#631),#633,.F.);
#111=ADVANCED_FACE('',(#638,#640),#642,.F.);
#112=ADVANCED_FACE('',(#647),#649,.T.);
#113=ADVANCED_FACE('',(#654),#656,.T.);
#114=ADVANCED_FACE('',(#661),#663,.T.);
#115=ADVANCED_FACE('',(#668),#670,.T.);
#116=ADVANCED_FACE('',(#675),#677,.T.);
#117=ADVANCED_FACE('',(#682,#684),#686,.F.);
#118=ADVANCED_FACE('',(#691),#693,.T.);
#119=ADVANCED_FACE('',(#698,#700),#702,.F.);
#120=FACE_BOUND('',#121,.T.);
#121=EDGE_LOOP('',(#707,#708,#709,#710));
#122=FACE_BOUND('',#123,.T.);
#123=EDGE_LOOP('',(#711));
#124=FACE_BOUND('',#125,.T.);
#125=EDGE_LOOP('',(#712));
#126=PLANE('',#127);
#127=AXIS2_PLACEMENT_3D('',#128,#129,#130);
#128=CARTESIAN_POINT('',(0.,0.,0.));
#129=DIRECTION('',(1.22464679914735E-16,1.,0.));
#130=DIRECTION('',(-1.,1.22464679914735E-16,0.));
#131=FACE_OUTER_BOUND('',#132,.T.);
#132=EDGE_LOOP('',(#713));
#133=FACE_OUTER_BOUND('',#134,.T.);
#134=EDGE_LOOP('',(#714));
#135=CYLINDRICAL_SURFACE('',#136,2.2);
#136=AXIS2_PLACEMENT_3D('',#137,#138,#139);
#137=CARTESIAN_POINT('',(-10.,-6.,6.));
#138=DIRECTION('',(1.22464679914735E-16,1.,0.));
#139=DIRECTION('',(-1.,1.22464679914735E-16,-1.22464679914735E-16));
#140=FACE_OUTER_BOUND('',#141,.T.);
#141=EDGE_LOOP('',(#715));
#142=FACE_OUTER_BOUND('',#143,.T.);
#143=EDGE_LOOP('',(#716));
#144=CYLINDRICAL_SURFACE('',#145,2.2);
#145=AXIS2_PLACEMENT_3D('',#146,#147,#148);
#146=CARTESIAN_POINT('',(-50.,-5.99999999999999,6.));
#147=DIRECTION('',(1.22464679914735E-16,1.,0.));
#148=DIRECTION('',(-1.,1.22464679914735E-16,-1.22464679914735E-16));
#149=FACE_BOUND('',#150,.T.);
#150=EDGE_LOOP('',(#717,#718,#719,#720));
#151=CYLINDRICAL_SURFACE('',#152,1.5);
#152=AXIS2_PLACEMENT_3D('',#153,#154,#155);
#153=CARTESIAN_POINT('',(6.,-1.5,10.5));
#154=DIRECTION('',(-1.,1.2335811384724E-16,0.));
#155=DIRECTION('',(0.,1.46085352818706E-31,1.));
#156=FACE_BOUND('',#157,.T.);
#157=EDGE_LOOP('',(#721,#722,#723,#724));
#158=FACE_BOUND('',#159,.T.);
#159=EDGE_LOOP('',(#725));
#160=PLANE('',#161);
#161=AXIS2_PLACEMENT_3D('',#162,#163,#164);
#162=CARTESIAN_POINT('',(-6.12323399573677E-15,-50.,0.));
#163=DIRECTION('',(1.,-1.22464679914735E-16,0.));
#164=DIRECTION('',(1.22464679914735E-16,1.,0.));
#165=FACE_BOUND('',#166,.T.);
#166=EDGE_LOOP('',(#726,#727,#728,#729));
#167=FACE_BOUND('',#168,.T.);
#168=EDGE_LOOP('',(#730));
#169=FACE_BOUND('',#170,.T.);
#170=EDGE_LOOP('',(#731,#732,#733,#734));
#171=FACE_BOUND('',#172,.T.);
#172=EDGE_LOOP('',(#735,#736,#737,#738));
#173=FACE_BOUND('',#174,.T.);
#174=EDGE_LOOP('',(#739));
#175=FACE_BOUND('',#176,.T.);
#176=EDGE_LOOP('',(#740));
#177=FACE_BOUND('',#178,.T.);
#178=EDGE_LOOP('',(#741));
#179=FACE_BOUND('',#180,.T.);
#180=EDGE_LOOP('',(#742));
#181=FACE_BOUND('',#182,.T.);
#182=EDGE_LOOP('',(#743));
#183=FACE_BOUND('',#184,.T.);
#184=EDGE_LOOP('',(#744));
#185=FACE_BOUND('',#186,.T.);
#186=EDGE_LOOP('',(#745));
#187=FACE_BOUND('',#188,.T.);
#188=EDGE_LOOP('',(#746));
#189=PLANE('',#190);
#190=AXIS2_PLACEMENT_3D('',#191,#192,#193);
#191=CARTESIAN_POINT('',(0.,0.,0.));
#192=DIRECTION('',(0.,0.,1.));
#193=DIRECTION('',(-1.,1.22464679914735E-16,0.));
#194=FACE_BOUND('',#195,.T.);
#195=EDGE_LOOP('',(#747,#748,#749,#750));
#196=FACE_BOUND('',#197,.T.);
#197=EDGE_LOOP('',(#751));
#198=PLANE('',#199);
#199=AXIS2_PLACEMENT_3D('',#200,#201,#202);
#200=CARTESIAN_POINT('',(-60.,7.34788079488412E-15,0.));
#201=DIRECTION('',(-1.,1.4210854715202E-16,0.));
#202=DIRECTION('',(-1.4210854715202E-16,-1.,0.));
#203=FACE_BOUND('',#204,.T.);
#204=EDGE_LOOP('',(#752));
#205=PLANE('',#206);
#206=AXIS2_PLACEMENT_3D('',#207,#208,#209);
#207=CARTESIAN_POINT('',(-7.34788079488412E-16,-6.,0.));
#208=DIRECTION('',(1.22464679914735E-16,1.,0.));
#209=DIRECTION('',(-1.,1.22464679914735E-16,-1.22464679914735E-16));
#210=FACE_BOUND('',#211,.T.);
#211=EDGE_LOOP('',(#753));
#212=PLANE('',#213);
#213=AXIS2_PLACEMENT_3D('',#214,#215,#216);
#214=CARTESIAN_POINT('',(-7.34788079488412E-16,-6.,0.));
#215=DIRECTION('',(1.22464679914735E-16,1.,0.));
#216=DIRECTION('',(-1.,1.22464679914735E-16,-1.22464679914735E-16));
#217=FACE_BOUND('',#218,.T.);
#218=EDGE_LOOP('',(#754,#755,#756,#757));
#219=CYLINDRICAL_SURFACE('',#220,1.5);
#220=AXIS2_PLACEMENT_3D('',#221,#222,#223);
#221=CARTESIAN_POINT('',(-58.5,6.00000000000001,10.5));
#222=DIRECTION('',(-2.29207334116161E-16,-1.,0.));
#223=DIRECTION('',(1.35718005199314E-31,0.,1.));
#224=FACE_BOUND('',#225,.T.);
#225=EDGE_LOOP('',(#758,#759,#760,#761));
#226=FACE_BOUND('',#227,.T.);
#227=EDGE_LOOP('',(#762,#763,#764,#765));
#228=FACE_BOUND('',#229,.T.);
#229=EDGE_LOOP('',(#766));
#230=FACE_BOUND('',#231,.T.);
#231=EDGE_LOOP('',(#767));
#232=FACE_BOUND('',#233,.T.);
#233=EDGE_LOOP('',(#768,#769,#770,#771));
#234=FACE_BOUND('',#235,.T.);
#235=EDGE_LOOP('',(#772,#773,#774,#775));
#236=FACE_BOUND('',#237,.T.);
#237=EDGE_LOOP('',(#776));
#238=FACE_BOUND('',#239,.T.);
#239=EDGE_LOOP('',(#777));
#240=FACE_BOUND('',#241,.T.);
#241=EDGE_LOOP('',(#778));
#242=FACE_BOUND('',#243,.T.);
#243=EDGE_LOOP('',(#779,#780,#781,#782));
#244=PLANE('',#245);
#245=AXIS2_PLACEMENT_3D('',#246,#247,#248);
#246=CARTESIAN_POINT('',(0.,0.,12.));
#247=DIRECTION('',(0.,0.,1.));
#248=DIRECTION('',(-1.,1.22464679914735E-16,0.));
#249=FACE_BOUND('',#250,.T.);
#250=EDGE_LOOP('',(#783,#784,#785,#786));
#251=CYLINDRICAL_SURFACE('',#252,1.5);
#252=AXIS2_PLACEMENT_3D('',#253,#254,#255);
#253=CARTESIAN_POINT('',(-1.50000000000001,-56.,10.5));
#254=DIRECTION('',(1.18185031653646E-16,1.,0.));
#255=DIRECTION('',(-5.5983677144717E-31,0.,1.));
#256=FACE_BOUND('',#257,.T.);
#257=EDGE_LOOP('',(#787,#788,#789,#790));
#258=PLANE('',#259);
#259=AXIS2_PLACEMENT_3D('',#260,#261,#262);
#260=CARTESIAN_POINT('',(-60.,-50.,0.));
#261=DIRECTION('',(-1.1842378929335E-16,-1.,0.));
#262=DIRECTION('',(1.,-1.1842378929335E-16,0.));
#263=FACE_OUTER_BOUND('',#264,.T.);
#264=EDGE_LOOP('',(#791));
#265=FACE_OUTER_BOUND('',#266,.T.);
#266=EDGE_LOOP('',(#792));
#267=CONICAL_SURFACE('',#268,2.5,0.785398163397448);
#268=AXIS2_PLACEMENT_3D('',#269,#270,#271);
#269=CARTESIAN_POINT('',(-0.750000000000002,-17.1185940931552,6.));
#270=DIRECTION('',(1.,-1.22464679914735E-16,0.));
#271=DIRECTION('',(0.,0.,1.));
#272=FACE_OUTER_BOUND('',#273,.T.);
#273=EDGE_LOOP('',(#793));
#274=FACE_OUTER_BOUND('',#275,.T.);
#275=EDGE_LOOP('',(#794));
#276=TOROIDAL_SURFACE('',#277,14.,1.5);
#277=AXIS2_PLACEMENT_3D('',#278,#279,#280);
#278=CARTESIAN_POINT('',(-30.,-25.,1.5));
#279=DIRECTION('',(0.,0.,1.));
#280=DIRECTION('',(-1.,0.,0.));
#281=FACE_BOUND('',#282,.T.);
#282=EDGE_LOOP('',(#795,#796,#797,#798));
#283=CYLINDRICAL_SURFACE('',#284,3.05);
#284=AXIS2_PLACEMENT_3D('',#285,#286,#287);
#285=CARTESIAN_POINT('',(-10.,-25.,0.));
#286=DIRECTION('',(0.,0.,1.));
#287=DIRECTION('',(-0.327868852459013,0.944723248145831,0.));
#288=FACE_BOUND('',#289,.T.);
#289=EDGE_LOOP('',(#799,#800,#801,#802));
#290=FACE_BOUND('',#291,.T.);
#291=EDGE_LOOP('',(#803));
#292=PLANE('',#293);
#293=AXIS2_PLACEMENT_3D('',#294,#295,#296);
#294=CARTESIAN_POINT('',(-9.00000000000002,-22.1185940931552,0.));
#295=DIRECTION('',(1.,-1.48029736616688E-16,0.));
#296=DIRECTION('',(1.48029736616688E-16,1.,0.));
#297=FACE_BOUND('',#298,.T.);
#298=EDGE_LOOP('',(#804,#805,#806,#807));
#299=PLANE('',#300);
#300=AXIS2_PLACEMENT_3D('',#301,#302,#303);
#301=CARTESIAN_POINT('',(-9.00000000000002,-10.1185940931552,0.));
#302=DIRECTION('',(-8.88178419700128E-16,1.,0.));
#303=DIRECTION('',(-1.,-8.88178419700128E-16,0.));
#304=FACE_BOUND('',#305,.T.);
#305=EDGE_LOOP('',(#808,#809,#810,#811));
#306=FACE_BOUND('',#307,.T.);
#307=EDGE_LOOP('',(#812));
#308=PLANE('',#309);
#309=AXIS2_PLACEMENT_3D('',#310,#311,#312);
#310=CARTESIAN_POINT('',(-11.,-10.1185940931552,0.));
#311=DIRECTION('',(-1.,1.48029736616688E-16,0.));
#312=DIRECTION('',(-1.48029736616688E-16,-1.,0.));
#313=FACE_BOUND('',#314,.T.);
#314=EDGE_LOOP('',(#813,#814,#815,#816));
#315=CYLINDRICAL_SURFACE('',#316,3.05);
#316=AXIS2_PLACEMENT_3D('',#317,#318,#319);
#317=CARTESIAN_POINT('',(-50.,-25.,0.));
#318=DIRECTION('',(0.,0.,1.));
#319=DIRECTION('',(-0.327868852459021,0.944723248145829,0.));
#320=FACE_BOUND('',#321,.T.);
#321=EDGE_LOOP('',(#817,#818,#819,#820));
#322=FACE_BOUND('',#323,.T.);
#323=EDGE_LOOP('',(#821));
#324=PLANE('',#325);
#325=AXIS2_PLACEMENT_3D('',#326,#327,#328);
#326=CARTESIAN_POINT('',(-49.,-22.1185940931552,0.));
#327=DIRECTION('',(1.,0.,0.));
#328=DIRECTION('',(0.,1.,0.));
#329=FACE_BOUND('',#330,.T.);
#330=EDGE_LOOP('',(#822,#823,#824,#825));
#331=PLANE('',#332);
#332=AXIS2_PLACEMENT_3D('',#333,#334,#335);
#333=CARTESIAN_POINT('',(-49.,-10.1185940931552,0.));
#334=DIRECTION('',(8.88178419700125E-16,1.,0.));
#335=DIRECTION('',(-1.,8.88178419700125E-16,0.));
#336=FACE_BOUND('',#337,.T.);
#337=EDGE_LOOP('',(#826,#827,#828,#829));
#338=FACE_BOUND('',#339,.T.);
#339=EDGE_LOOP('',(#830));
#340=PLANE('',#341);
#341=AXIS2_PLACEMENT_3D('',#342,#343,#344);
#342=CARTESIAN_POINT('',(-51.,-10.1185940931552,0.));
#343=DIRECTION('',(-1.,0.,0.));
#344=DIRECTION('',(0.,-1.,0.));
#345=FACE_OUTER_BOUND('',#346,.T.);
#346=EDGE_LOOP('',(#831));
#347=FACE_OUTER_BOUND('',#348,.T.);
#348=EDGE_LOOP('',(#832));
#349=CYLINDRICAL_SURFACE('',#350,1.6);
#350=AXIS2_PLACEMENT_3D('',#351,#352,#353);
#351=CARTESIAN_POINT('',(-14.5,-9.5,0.));
#352=DIRECTION('',(0.,0.,1.));
#353=DIRECTION('',(-1.,1.22464679914735E-16,0.));
#354=FACE_OUTER_BOUND('',#355,.T.);
#355=EDGE_LOOP('',(#833));
#356=FACE_OUTER_BOUND('',#357,.T.);
#357=EDGE_LOOP('',(#834));
#358=CYLINDRICAL_SURFACE('',#359,1.6);
#359=AXIS2_PLACEMENT_3D('',#360,#361,#362);
#360=CARTESIAN_POINT('',(-45.5,-9.49999999999998,0.));
#361=DIRECTION('',(0.,0.,1.));
#362=DIRECTION('',(-1.,1.22464679914735E-16,0.));
#363=FACE_OUTER_BOUND('',#364,.T.);
#364=EDGE_LOOP('',(#835));
#365=FACE_OUTER_BOUND('',#366,.T.);
#366=EDGE_LOOP('',(#836));
#367=CYLINDRICAL_SURFACE('',#368,1.6);
#368=AXIS2_PLACEMENT_3D('',#369,#370,#371);
#369=CARTESIAN_POINT('',(-14.5,-40.5,0.));
#370=DIRECTION('',(0.,0.,1.));
#371=DIRECTION('',(-1.,1.22464679914735E-16,0.));
#372=FACE_OUTER_BOUND('',#373,.T.);
#373=EDGE_LOOP('',(#837));
#374=FACE_OUTER_BOUND('',#375,.T.);
#375=EDGE_LOOP('',(#838));
#376=CYLINDRICAL_SURFACE('',#377,1.6);
#377=AXIS2_PLACEMENT_3D('',#378,#379,#380);
#378=CARTESIAN_POINT('',(-45.5,-40.5,0.));
#379=DIRECTION('',(0.,0.,1.));
#380=DIRECTION('',(-1.,1.22464679914735E-16,0.));
#381=FACE_OUTER_BOUND('',#382,.T.);
#382=EDGE_LOOP('',(#839));
#383=FACE_OUTER_BOUND('',#384,.T.);
#384=EDGE_LOOP('',(#840));
#385=CYLINDRICAL_SURFACE('',#386,2.2);
#386=AXIS2_PLACEMENT_3D('',#387,#388,#389);
#387=CARTESIAN_POINT('',(-4.,-3.99999999999999,7.));
#388=DIRECTION('',(0.,0.,-1.));
#389=DIRECTION('',(1.,1.22464679914735E-16,0.));
#390=FACE_OUTER_BOUND('',#391,.T.);
#391=EDGE_LOOP('',(#841));
#392=FACE_OUTER_BOUND('',#393,.T.);
#393=EDGE_LOOP('',(#842));
#394=CYLINDRICAL_SURFACE('',#395,2.2);
#395=AXIS2_PLACEMENT_3D('',#396,#397,#398);
#396=CARTESIAN_POINT('',(-3.99999999999999,-46.,7.));
#397=DIRECTION('',(0.,0.,-1.));
#398=DIRECTION('',(1.,1.22464679914735E-16,0.));
#399=FACE_OUTER_BOUND('',#400,.T.);
#400=EDGE_LOOP('',(#843));
#401=FACE_OUTER_BOUND('',#402,.T.);
#402=EDGE_LOOP('',(#844));
#403=CYLINDRICAL_SURFACE('',#404,2.2);
#404=AXIS2_PLACEMENT_3D('',#405,#406,#407);
#405=CARTESIAN_POINT('',(-56.,-3.99999999999999,7.));
#406=DIRECTION('',(0.,0.,-1.));
#407=DIRECTION('',(1.,1.22464679914735E-16,0.));
#408=FACE_OUTER_BOUND('',#409,.T.);
#409=EDGE_LOOP('',(#845));
#410=FACE_OUTER_BOUND('',#411,.T.);
#411=EDGE_LOOP('',(#846));
#412=CYLINDRICAL_SURFACE('',#413,2.2);
#413=AXIS2_PLACEMENT_3D('',#414,#415,#416);
#414=CARTESIAN_POINT('',(-56.,-46.,7.));
#415=DIRECTION('',(0.,0.,-1.));
#416=DIRECTION('',(1.,1.22464679914735E-16,0.));
#417=FACE_OUTER_BOUND('',#418,.T.);
#418=EDGE_LOOP('',(#847));
#419=FACE_OUTER_BOUND('',#420,.T.);
#420=EDGE_LOOP('',(#848));
#421=CONICAL_SURFACE('',#422,2.5,0.785398163397448);
#422=AXIS2_PLACEMENT_3D('',#423,#424,#425);
#423=CARTESIAN_POINT('',(-59.25,-17.1185940931552,6.));
#424=DIRECTION('',(-1.,1.4210854715202E-16,-1.40129846432482E-45));
#425=DIRECTION('',(-1.19149551124582E-29,-8.38440428196918E-14,-1.));
#426=FACE_BOUND('',#427,.T.);
#427=EDGE_LOOP('',(#849,#850,#851,#852));
#428=CYLINDRICAL_SURFACE('',#429,1.5);
#429=AXIS2_PLACEMENT_3D('',#430,#431,#432);
#430=CARTESIAN_POINT('',(-66.,-48.5,10.5));
#431=DIRECTION('',(1.,-9.86864910777917E-17,0.));
#432=DIRECTION('',(0.,0.,1.));
#433=FACE_BOUND('',#434,.T.);
#434=EDGE_LOOP('',(#853,#854,#855,#856));
#435=CYLINDRICAL_SURFACE('',#436,0.4);
#436=AXIS2_PLACEMENT_3D('',#437,#438,#439);
#437=CARTESIAN_POINT('',(-8.60000000000002,-23.7185940931552,11.6));
#438=DIRECTION('',(2.3373116307898E-16,1.,0.));
#439=DIRECTION('',(-1.,2.3373116307898E-16,-4.44089209850064E-15));
#440=FACE_BOUND('',#441,.T.);
#441=EDGE_LOOP('',(#857,#858,#859,#860));
#442=TOROIDAL_SURFACE('',#443,3.45,0.4);
#443=AXIS2_PLACEMENT_3D('',#444,#445,#446);
#444=CARTESIAN_POINT('',(-10.,-25.,11.6));
#445=DIRECTION('',(0.,0.,1.));
#446=DIRECTION('',(-0.101985164844166,0.994785919759477,0.));
#447=FACE_BOUND('',#448,.T.);
#448=EDGE_LOOP('',(#861,#862,#863,#864));
#449=CYLINDRICAL_SURFACE('',#450,0.4);
#450=AXIS2_PLACEMENT_3D('',#451,#452,#453);
#451=CARTESIAN_POINT('',(-11.4,-8.51859409315523,11.6));
#452=DIRECTION('',(0.,-1.,0.));
#453=DIRECTION('',(1.,0.,-4.44089209850062E-15));
#454=FACE_BOUND('',#455,.T.);
#455=EDGE_LOOP('',(#865,#866,#867,#868));
#456=CYLINDRICAL_SURFACE('',#457,0.4);
#457=AXIS2_PLACEMENT_3D('',#458,#459,#460);
#458=CARTESIAN_POINT('',(-7.40000000000002,-9.71859409315522,11.6));
#459=DIRECTION('',(-1.,-1.02482125350015E-15,0.));
#460=DIRECTION('',(1.02482125350015E-15,-1.,0.));
#461=FACE_OUTER_BOUND('',#462,.T.);
#462=EDGE_LOOP('',(#869));
#463=FACE_OUTER_BOUND('',#464,.T.);
#464=EDGE_LOOP('',(#870));
#465=CONICAL_SURFACE('',#466,2.35,0.785398163397448);
#466=AXIS2_PLACEMENT_3D('',#467,#468,#469);
#467=CARTESIAN_POINT('',(-14.5,-9.5,11.25));
#468=DIRECTION('',(0.,0.,1.));
#469=DIRECTION('',(-1.,0.,0.));
#470=FACE_OUTER_BOUND('',#471,.T.);
#471=EDGE_LOOP('',(#871));
#472=FACE_OUTER_BOUND('',#473,.T.);
#473=EDGE_LOOP('',(#872));
#474=CONICAL_SURFACE('',#475,2.35,0.785398163397448);
#475=AXIS2_PLACEMENT_3D('',#476,#477,#478);
#476=CARTESIAN_POINT('',(-14.5,-40.5,11.25));
#477=DIRECTION('',(0.,0.,1.));
#478=DIRECTION('',(-1.,0.,0.));
#479=FACE_BOUND('',#480,.T.);
#480=EDGE_LOOP('',(#873,#874,#875,#876));
#481=PLANE('',#482);
#482=AXIS2_PLACEMENT_3D('',#483,#484,#485);
#483=CARTESIAN_POINT('',(-15.,-20.1185940931552,2.2));
#484=DIRECTION('',(0.,-1.,0.));
#485=DIRECTION('',(1.,0.,0.));
#486=FACE_BOUND('',#487,.T.);
#487=EDGE_LOOP('',(#877,#878,#879,#880));
#488=FACE_BOUND('',#489,.T.);
#489=EDGE_LOOP('',(#881));
#490=PLANE('',#491);
#491=AXIS2_PLACEMENT_3D('',#492,#493,#494);
#492=CARTESIAN_POINT('',(-15.,-14.1185940931552,2.2));
#493=DIRECTION('',(-1.,-5.92118946466751E-15,0.));
#494=DIRECTION('',(5.92118946466751E-15,-1.,0.));
#495=FACE_BOUND('',#496,.T.);
#496=EDGE_LOOP('',(#882,#883,#884,#885));
#497=PLANE('',#498);
#498=AXIS2_PLACEMENT_3D('',#499,#500,#501);
#499=CARTESIAN_POINT('',(-13.,-14.1185940931552,2.2));
#500=DIRECTION('',(-1.77635683940023E-15,1.,0.));
#501=DIRECTION('',(-1.,-1.77635683940023E-15,0.));
#502=FACE_BOUND('',#503,.T.);
#503=EDGE_LOOP('',(#886,#887,#888,#889));
#504=FACE_BOUND('',#505,.T.);
#505=EDGE_LOOP('',(#890));
#506=PLANE('',#507);
#507=AXIS2_PLACEMENT_3D('',#508,#509,#510);
#508=CARTESIAN_POINT('',(-13.,-20.1185940931552,2.2));
#509=DIRECTION('',(1.,2.368475785867E-15,0.));
#510=DIRECTION('',(-2.368475785867E-15,1.,0.));
#511=FACE_BOUND('',#512,.T.);
#512=EDGE_LOOP('',(#891,#892,#893,#894));
#513=PLANE('',#514);
#514=AXIS2_PLACEMENT_3D('',#515,#516,#517);
#515=CARTESIAN_POINT('',(-47.,-20.1185940931552,2.2));
#516=DIRECTION('',(0.,-1.,0.));
#517=DIRECTION('',(1.,0.,0.));
#518=FACE_BOUND('',#519,.T.);
#519=EDGE_LOOP('',(#895,#896,#897,#898));
#520=FACE_BOUND('',#521,.T.);
#521=EDGE_LOOP('',(#899));
#522=PLANE('',#523);
#523=AXIS2_PLACEMENT_3D('',#524,#525,#526);
#524=CARTESIAN_POINT('',(-47.,-14.1185940931552,2.2));
#525=DIRECTION('',(-1.,0.,0.));
#526=DIRECTION('',(0.,-1.,0.));
#527=FACE_BOUND('',#528,.T.);
#528=EDGE_LOOP('',(#900,#901,#902,#903));
#529=PLANE('',#530);
#530=AXIS2_PLACEMENT_3D('',#531,#532,#533);
#531=CARTESIAN_POINT('',(-45.,-14.1185940931552,2.2));
#532=DIRECTION('',(0.,1.,0.));
#533=DIRECTION('',(-1.,0.,0.));
#534=FACE_BOUND('',#535,.T.);
#535=EDGE_LOOP('',(#904,#905,#906,#907));
#536=FACE_BOUND('',#537,.T.);
#537=EDGE_LOOP('',(#908));
#538=PLANE('',#539);
#539=AXIS2_PLACEMENT_3D('',#540,#541,#542);
#540=CARTESIAN_POINT('',(-45.,-20.1185940931552,2.2));
#541=DIRECTION('',(1.,0.,0.));
#542=DIRECTION('',(0.,1.,0.));
#543=FACE_OUTER_BOUND('',#544,.T.);
#544=EDGE_LOOP('',(#909));
#545=FACE_OUTER_BOUND('',#546,.T.);
#546=EDGE_LOOP('',(#910));
#547=CONICAL_SURFACE('',#548,2.35,0.785398163397448);
#548=AXIS2_PLACEMENT_3D('',#549,#550,#551);
#549=CARTESIAN_POINT('',(-45.5,-40.5,11.25));
#550=DIRECTION('',(0.,0.,1.));
#551=DIRECTION('',(-1.,0.,0.));
#552=FACE_OUTER_BOUND('',#553,.T.);
#553=EDGE_LOOP('',(#911));
#554=FACE_OUTER_BOUND('',#555,.T.);
#555=EDGE_LOOP('',(#912));
#556=CONICAL_SURFACE('',#557,2.35,0.785398163397448);
#557=AXIS2_PLACEMENT_3D('',#558,#559,#560);
#558=CARTESIAN_POINT('',(-45.5,-9.49999999999998,11.25));
#559=DIRECTION('',(0.,0.,1.));
#560=DIRECTION('',(-1.,0.,0.));
#561=FACE_OUTER_BOUND('',#562,.T.);
#562=EDGE_LOOP('',(#913));
#563=FACE_OUTER_BOUND('',#564,.T.);
#564=EDGE_LOOP('',(#914));
#565=TOROIDAL_SURFACE('',#566,14.,1.5);
#566=AXIS2_PLACEMENT_3D('',#567,#568,#569);
#567=CARTESIAN_POINT('',(-30.,-25.,10.5));
#568=DIRECTION('',(0.,0.,1.));
#569=DIRECTION('',(-1.,0.,0.));
#570=FACE_BOUND('',#571,.T.);
#571=EDGE_LOOP('',(#915,#916,#917,#918));
#572=CYLINDRICAL_SURFACE('',#573,0.4);
#573=AXIS2_PLACEMENT_3D('',#574,#575,#576);
#574=CARTESIAN_POINT('',(-48.6,-23.7185940931552,11.6));
#575=DIRECTION('',(0.,1.,0.));
#576=DIRECTION('',(-1.,0.,-4.44089209850056E-15));
#577=FACE_BOUND('',#578,.T.);
#578=EDGE_LOOP('',(#919,#920,#921,#922));
#579=TOROIDAL_SURFACE('',#580,3.45,0.4);
#580=AXIS2_PLACEMENT_3D('',#581,#582,#583);
#581=CARTESIAN_POINT('',(-50.,-25.,11.6));
#582=DIRECTION('',(0.,0.,1.));
#583=DIRECTION('',(-0.101985164844176,0.994785919759476,0.));
#584=FACE_BOUND('',#585,.T.);
#585=EDGE_LOOP('',(#923,#924,#925,#926));
#586=CYLINDRICAL_SURFACE('',#587,0.4);
#587=AXIS2_PLACEMENT_3D('',#588,#589,#590);
#588=CARTESIAN_POINT('',(-51.4,-8.51859409315521,11.6));
#589=DIRECTION('',(-4.67462326157961E-16,-1.,0.));
#590=DIRECTION('',(1.,-4.67462326157961E-16,-4.44089209850064E-15));
#591=FACE_BOUND('',#592,.T.);
#592=EDGE_LOOP('',(#927,#928,#929,#930));
#593=CYLINDRICAL_SURFACE('',#594,0.4);
#594=AXIS2_PLACEMENT_3D('',#595,#596,#597);
#595=CARTESIAN_POINT('',(-47.4,-9.71859409315521,11.6));
#596=DIRECTION('',(-1.,6.83214169000097E-16,0.));
#597=DIRECTION('',(-6.83214169000097E-16,-1.,-4.4408920985006E-15));
#598=FACE_OUTER_BOUND('',#599,.T.);
#599=EDGE_LOOP('',(#931));
#600=FACE_OUTER_BOUND('',#601,.T.);
#601=EDGE_LOOP('',(#932));
#602=CYLINDRICAL_SURFACE('',#603,1.75);
#603=AXIS2_PLACEMENT_3D('',#604,#605,#606);
#604=CARTESIAN_POINT('',(4.0544975597724E-14,-17.1185940931552,6.));
#605=DIRECTION('',(-1.,-2.368475785867E-15,0.));
#606=DIRECTION('',(0.,0.,-1.));
#607=FACE_OUTER_BOUND('',#608,.T.);
#608=EDGE_LOOP('',(#933));
#609=FACE_OUTER_BOUND('',#610,.T.);
#610=EDGE_LOOP('',(#934));
#611=FACE_BOUND('',#612,.T.);
#612=EDGE_LOOP('',(#935));
#613=FACE_BOUND('',#614,.T.);
#614=EDGE_LOOP('',(#936));
#615=CYLINDRICAL_SURFACE('',#616,12.5);
#616=AXIS2_PLACEMENT_3D('',#617,#618,#619);
#617=CARTESIAN_POINT('',(-30.,-25.,0.));
#618=DIRECTION('',(0.,0.,1.));
#619=DIRECTION('',(-1.,1.22464679914735E-16,0.));
#620=FACE_OUTER_BOUND('',#621,.T.);
#621=EDGE_LOOP('',(#937));
#622=FACE_OUTER_BOUND('',#623,.T.);
#623=EDGE_LOOP('',(#938));
#624=CYLINDRICAL_SURFACE('',#625,1.75);
#625=AXIS2_PLACEMENT_3D('',#626,#627,#628);
#626=CARTESIAN_POINT('',(4.0544975597724E-14,-17.1185940931552,6.));
#627=DIRECTION('',(-1.,-2.368475785867E-15,0.));
#628=DIRECTION('',(0.,0.,-1.));
#629=FACE_OUTER_BOUND('',#630,.T.);
#630=EDGE_LOOP('',(#939));
#631=FACE_OUTER_BOUND('',#632,.T.);
#632=EDGE_LOOP('',(#940));
#633=CYLINDRICAL_SURFACE('',#634,1.75);
#634=AXIS2_PLACEMENT_3D('',#635,#636,#637);
#635=CARTESIAN_POINT('',(4.0544975597724E-14,-17.1185940931552,6.));
#636=DIRECTION('',(-1.,-2.368475785867E-15,0.));
#637=DIRECTION('',(0.,0.,-1.));
#638=FACE_OUTER_BOUND('',#639,.T.);
#639=EDGE_LOOP('',(#941));
#640=FACE_OUTER_BOUND('',#641,.T.);
#641=EDGE_LOOP('',(#942));
#642=CYLINDRICAL_SURFACE('',#643,1.75);
#643=AXIS2_PLACEMENT_3D('',#644,#645,#646);
#644=CARTESIAN_POINT('',(4.0544975597724E-14,-17.1185940931552,6.));
#645=DIRECTION('',(-1.,-2.368475785867E-15,0.));
#646=DIRECTION('',(0.,0.,-1.));
#647=FACE_BOUND('',#648,.T.);
#648=EDGE_LOOP('',(#943));
#649=PLANE('',#650);
#650=AXIS2_PLACEMENT_3D('',#651,#652,#653);
#651=CARTESIAN_POINT('',(0.,0.,7.));
#652=DIRECTION('',(0.,0.,-1.));
#653=DIRECTION('',(1.,1.22464679914735E-16,0.));
#654=FACE_BOUND('',#655,.T.);
#655=EDGE_LOOP('',(#944));
#656=PLANE('',#657);
#657=AXIS2_PLACEMENT_3D('',#658,#659,#660);
#658=CARTESIAN_POINT('',(0.,0.,7.));
#659=DIRECTION('',(0.,0.,-1.));
#660=DIRECTION('',(1.,1.22464679914735E-16,0.));
#661=FACE_BOUND('',#662,.T.);
#662=EDGE_LOOP('',(#945));
#663=PLANE('',#664);
#664=AXIS2_PLACEMENT_3D('',#665,#666,#667);
#665=CARTESIAN_POINT('',(0.,0.,7.));
#666=DIRECTION('',(0.,0.,-1.));
#667=DIRECTION('',(1.,1.22464679914735E-16,0.));
#668=FACE_BOUND('',#669,.T.);
#669=EDGE_LOOP('',(#946));
#670=PLANE('',#671);
#671=AXIS2_PLACEMENT_3D('',#672,#673,#674);
#672=CARTESIAN_POINT('',(0.,0.,7.));
#673=DIRECTION('',(0.,0.,-1.));
#674=DIRECTION('',(1.,1.22464679914735E-16,0.));
#675=FACE_BOUND('',#676,.T.);
#676=EDGE_LOOP('',(#947,#948,#949,#950));
#677=PLANE('',#678);
#678=AXIS2_PLACEMENT_3D('',#679,#680,#681);
#679=CARTESIAN_POINT('',(0.,0.,3.2));
#680=DIRECTION('',(0.,0.,1.));
#681=DIRECTION('',(1.,0.,0.));
#682=FACE_OUTER_BOUND('',#683,.T.);
#683=EDGE_LOOP('',(#951));
#684=FACE_OUTER_BOUND('',#685,.T.);
#685=EDGE_LOOP('',(#952));
#686=CYLINDRICAL_SURFACE('',#687,1.75);
#687=AXIS2_PLACEMENT_3D('',#688,#689,#690);
#688=CARTESIAN_POINT('',(4.0544975597724E-14,-17.1185940931552,6.));
#689=DIRECTION('',(-1.,-2.368475785867E-15,0.));
#690=DIRECTION('',(0.,0.,-1.));
#691=FACE_BOUND('',#692,.T.);
#692=EDGE_LOOP('',(#953,#954,#955,#956));
#693=PLANE('',#694);
#694=AXIS2_PLACEMENT_3D('',#695,#696,#697);
#695=CARTESIAN_POINT('',(0.,0.,3.2));
#696=DIRECTION('',(0.,0.,1.));
#697=DIRECTION('',(1.,0.,0.));
#698=FACE_OUTER_BOUND('',#699,.T.);
#699=EDGE_LOOP('',(#957));
#700=FACE_OUTER_BOUND('',#701,.T.);
#701=EDGE_LOOP('',(#958));
#702=CYLINDRICAL_SURFACE('',#703,1.75);
#703=AXIS2_PLACEMENT_3D('',#704,#705,#706);
#704=CARTESIAN_POINT('',(4.0544975597724E-14,-17.1185940931552,6.));
#705=DIRECTION('',(-1.,-2.368475785867E-15,0.));
#706=DIRECTION('',(0.,0.,-1.));
#707=ORIENTED_EDGE('',*,*,#959,.F.);
#708=ORIENTED_EDGE('',*,*,#960,.F.);
#709=ORIENTED_EDGE('',*,*,#961,.T.);
#710=ORIENTED_EDGE('',*,*,#962,.T.);
#711=ORIENTED_EDGE('',*,*,#963,.T.);
#712=ORIENTED_EDGE('',*,*,#964,.T.);
#713=ORIENTED_EDGE('',*,*,#964,.F.);
#714=ORIENTED_EDGE('',*,*,#965,.F.);
#715=ORIENTED_EDGE('',*,*,#963,.F.);
#716=ORIENTED_EDGE('',*,*,#966,.F.);
#717=ORIENTED_EDGE('',*,*,#959,.T.);
#718=ORIENTED_EDGE('',*,*,#967,.T.);
#719=ORIENTED_EDGE('',*,*,#968,.F.);
#720=ORIENTED_EDGE('',*,*,#969,.F.);
#721=ORIENTED_EDGE('',*,*,#970,.F.);
#722=ORIENTED_EDGE('',*,*,#971,.F.);
#723=ORIENTED_EDGE('',*,*,#972,.T.);
#724=ORIENTED_EDGE('',*,*,#960,.T.);
#725=ORIENTED_EDGE('',*,*,#973,.T.);
#726=ORIENTED_EDGE('',*,*,#961,.F.);
#727=ORIENTED_EDGE('',*,*,#972,.F.);
#728=ORIENTED_EDGE('',*,*,#974,.F.);
#729=ORIENTED_EDGE('',*,*,#975,.F.);
#730=ORIENTED_EDGE('',*,*,#976,.T.);
#731=ORIENTED_EDGE('',*,*,#977,.T.);
#732=ORIENTED_EDGE('',*,*,#978,.T.);
#733=ORIENTED_EDGE('',*,*,#979,.T.);
#734=ORIENTED_EDGE('',*,*,#980,.T.);
#735=ORIENTED_EDGE('',*,*,#981,.T.);
#736=ORIENTED_EDGE('',*,*,#982,.T.);
#737=ORIENTED_EDGE('',*,*,#983,.T.);
#738=ORIENTED_EDGE('',*,*,#984,.T.);
#739=ORIENTED_EDGE('',*,*,#985,.T.);
#740=ORIENTED_EDGE('',*,*,#986,.T.);
#741=ORIENTED_EDGE('',*,*,#987,.T.);
#742=ORIENTED_EDGE('',*,*,#988,.T.);
#743=ORIENTED_EDGE('',*,*,#989,.T.);
#744=ORIENTED_EDGE('',*,*,#990,.T.);
#745=ORIENTED_EDGE('',*,*,#991,.T.);
#746=ORIENTED_EDGE('',*,*,#992,.T.);
#747=ORIENTED_EDGE('',*,*,#993,.F.);
#748=ORIENTED_EDGE('',*,*,#962,.F.);
#749=ORIENTED_EDGE('',*,*,#975,.T.);
#750=ORIENTED_EDGE('',*,*,#994,.T.);
#751=ORIENTED_EDGE('',*,*,#995,.T.);
#752=ORIENTED_EDGE('',*,*,#965,.T.);
#753=ORIENTED_EDGE('',*,*,#966,.T.);
#754=ORIENTED_EDGE('',*,*,#993,.T.);
#755=ORIENTED_EDGE('',*,*,#996,.T.);
#756=ORIENTED_EDGE('',*,*,#997,.F.);
#757=ORIENTED_EDGE('',*,*,#967,.F.);
#758=ORIENTED_EDGE('',*,*,#998,.T.);
#759=ORIENTED_EDGE('',*,*,#999,.T.);
#760=ORIENTED_EDGE('',*,*,#968,.T.);
#761=ORIENTED_EDGE('',*,*,#997,.T.);
#762=ORIENTED_EDGE('',*,*,#1000,.T.);
#763=ORIENTED_EDGE('',*,*,#1001,.T.);
#764=ORIENTED_EDGE('',*,*,#1002,.T.);
#765=ORIENTED_EDGE('',*,*,#1003,.T.);
#766=ORIENTED_EDGE('',*,*,#1004,.T.);
#767=ORIENTED_EDGE('',*,*,#1005,.T.);
#768=ORIENTED_EDGE('',*,*,#1006,.T.);
#769=ORIENTED_EDGE('',*,*,#1007,.T.);
#770=ORIENTED_EDGE('',*,*,#1008,.T.);
#771=ORIENTED_EDGE('',*,*,#1009,.T.);
#772=ORIENTED_EDGE('',*,*,#1010,.T.);
#773=ORIENTED_EDGE('',*,*,#1011,.T.);
#774=ORIENTED_EDGE('',*,*,#1012,.T.);
#775=ORIENTED_EDGE('',*,*,#1013,.T.);
#776=ORIENTED_EDGE('',*,*,#1014,.T.);
#777=ORIENTED_EDGE('',*,*,#1015,.T.);
#778=ORIENTED_EDGE('',*,*,#1016,.T.);
#779=ORIENTED_EDGE('',*,*,#1017,.T.);
#780=ORIENTED_EDGE('',*,*,#1018,.T.);
#781=ORIENTED_EDGE('',*,*,#1019,.T.);
#782=ORIENTED_EDGE('',*,*,#1020,.T.);
#783=ORIENTED_EDGE('',*,*,#970,.T.);
#784=ORIENTED_EDGE('',*,*,#969,.T.);
#785=ORIENTED_EDGE('',*,*,#999,.F.);
#786=ORIENTED_EDGE('',*,*,#1021,.F.);
#787=ORIENTED_EDGE('',*,*,#1022,.F.);
#788=ORIENTED_EDGE('',*,*,#994,.F.);
#789=ORIENTED_EDGE('',*,*,#974,.T.);
#790=ORIENTED_EDGE('',*,*,#971,.T.);
#791=ORIENTED_EDGE('',*,*,#973,.F.);
#792=ORIENTED_EDGE('',*,*,#1023,.T.);
#793=ORIENTED_EDGE('',*,*,#1024,.T.);
#794=ORIENTED_EDGE('',*,*,#976,.F.);
#795=ORIENTED_EDGE('',*,*,#1025,.F.);
#796=ORIENTED_EDGE('',*,*,#1026,.F.);
#797=ORIENTED_EDGE('',*,*,#977,.F.);
#798=ORIENTED_EDGE('',*,*,#1027,.T.);
#799=ORIENTED_EDGE('',*,*,#1028,.F.);
#800=ORIENTED_EDGE('',*,*,#1029,.F.);
#801=ORIENTED_EDGE('',*,*,#978,.F.);
#802=ORIENTED_EDGE('',*,*,#1026,.T.);
#803=ORIENTED_EDGE('',*,*,#1030,.T.);
#804=ORIENTED_EDGE('',*,*,#1031,.F.);
#805=ORIENTED_EDGE('',*,*,#1032,.F.);
#806=ORIENTED_EDGE('',*,*,#979,.F.);
#807=ORIENTED_EDGE('',*,*,#1029,.T.);
#808=ORIENTED_EDGE('',*,*,#1033,.F.);
#809=ORIENTED_EDGE('',*,*,#1027,.F.);
#810=ORIENTED_EDGE('',*,*,#980,.F.);
#811=ORIENTED_EDGE('',*,*,#1032,.T.);
#812=ORIENTED_EDGE('',*,*,#1034,.T.);
#813=ORIENTED_EDGE('',*,*,#1035,.F.);
#814=ORIENTED_EDGE('',*,*,#1036,.F.);
#815=ORIENTED_EDGE('',*,*,#981,.F.);
#816=ORIENTED_EDGE('',*,*,#1037,.T.);
#817=ORIENTED_EDGE('',*,*,#1038,.F.);
#818=ORIENTED_EDGE('',*,*,#1039,.F.);
#819=ORIENTED_EDGE('',*,*,#982,.F.);
#820=ORIENTED_EDGE('',*,*,#1036,.T.);
#821=ORIENTED_EDGE('',*,*,#1040,.T.);
#822=ORIENTED_EDGE('',*,*,#1041,.F.);
#823=ORIENTED_EDGE('',*,*,#1042,.F.);
#824=ORIENTED_EDGE('',*,*,#983,.F.);
#825=ORIENTED_EDGE('',*,*,#1039,.T.);
#826=ORIENTED_EDGE('',*,*,#1043,.F.);
#827=ORIENTED_EDGE('',*,*,#1037,.F.);
#828=ORIENTED_EDGE('',*,*,#984,.F.);
#829=ORIENTED_EDGE('',*,*,#1042,.T.);
#830=ORIENTED_EDGE('',*,*,#1044,.T.);
#831=ORIENTED_EDGE('',*,*,#1045,.F.);
#832=ORIENTED_EDGE('',*,*,#985,.F.);
#833=ORIENTED_EDGE('',*,*,#1046,.F.);
#834=ORIENTED_EDGE('',*,*,#986,.F.);
#835=ORIENTED_EDGE('',*,*,#1047,.F.);
#836=ORIENTED_EDGE('',*,*,#987,.F.);
#837=ORIENTED_EDGE('',*,*,#1048,.F.);
#838=ORIENTED_EDGE('',*,*,#988,.F.);
#839=ORIENTED_EDGE('',*,*,#1049,.F.);
#840=ORIENTED_EDGE('',*,*,#989,.F.);
#841=ORIENTED_EDGE('',*,*,#1050,.F.);
#842=ORIENTED_EDGE('',*,*,#990,.F.);
#843=ORIENTED_EDGE('',*,*,#1051,.F.);
#844=ORIENTED_EDGE('',*,*,#991,.F.);
#845=ORIENTED_EDGE('',*,*,#1052,.F.);
#846=ORIENTED_EDGE('',*,*,#992,.F.);
#847=ORIENTED_EDGE('',*,*,#1053,.T.);
#848=ORIENTED_EDGE('',*,*,#995,.F.);
#849=ORIENTED_EDGE('',*,*,#1022,.T.);
#850=ORIENTED_EDGE('',*,*,#1021,.T.);
#851=ORIENTED_EDGE('',*,*,#998,.F.);
#852=ORIENTED_EDGE('',*,*,#996,.F.);
#853=ORIENTED_EDGE('',*,*,#1000,.F.);
#854=ORIENTED_EDGE('',*,*,#1054,.F.);
#855=ORIENTED_EDGE('',*,*,#1028,.T.);
#856=ORIENTED_EDGE('',*,*,#1055,.T.);
#857=ORIENTED_EDGE('',*,*,#1001,.F.);
#858=ORIENTED_EDGE('',*,*,#1055,.F.);
#859=ORIENTED_EDGE('',*,*,#1025,.T.);
#860=ORIENTED_EDGE('',*,*,#1056,.T.);
#861=ORIENTED_EDGE('',*,*,#1002,.F.);
#862=ORIENTED_EDGE('',*,*,#1056,.F.);
#863=ORIENTED_EDGE('',*,*,#1033,.T.);
#864=ORIENTED_EDGE('',*,*,#1057,.T.);
#865=ORIENTED_EDGE('',*,*,#1003,.F.);
#866=ORIENTED_EDGE('',*,*,#1057,.F.);
#867=ORIENTED_EDGE('',*,*,#1031,.T.);
#868=ORIENTED_EDGE('',*,*,#1054,.T.);
#869=ORIENTED_EDGE('',*,*,#1045,.T.);
#870=ORIENTED_EDGE('',*,*,#1004,.F.);
#871=ORIENTED_EDGE('',*,*,#1047,.T.);
#872=ORIENTED_EDGE('',*,*,#1005,.F.);
#873=ORIENTED_EDGE('',*,*,#1006,.F.);
#874=ORIENTED_EDGE('',*,*,#1058,.F.);
#875=ORIENTED_EDGE('',*,*,#1059,.T.);
#876=ORIENTED_EDGE('',*,*,#1060,.T.);
#877=ORIENTED_EDGE('',*,*,#1007,.F.);
#878=ORIENTED_EDGE('',*,*,#1060,.F.);
#879=ORIENTED_EDGE('',*,*,#1061,.T.);
#880=ORIENTED_EDGE('',*,*,#1062,.T.);
#881=ORIENTED_EDGE('',*,*,#1063,.T.);
#882=ORIENTED_EDGE('',*,*,#1008,.F.);
#883=ORIENTED_EDGE('',*,*,#1062,.F.);
#884=ORIENTED_EDGE('',*,*,#1064,.T.);
#885=ORIENTED_EDGE('',*,*,#1065,.T.);
#886=ORIENTED_EDGE('',*,*,#1009,.F.);
#887=ORIENTED_EDGE('',*,*,#1065,.F.);
#888=ORIENTED_EDGE('',*,*,#1066,.T.);
#889=ORIENTED_EDGE('',*,*,#1058,.T.);
#890=ORIENTED_EDGE('',*,*,#1067,.T.);
#891=ORIENTED_EDGE('',*,*,#1010,.F.);
#892=ORIENTED_EDGE('',*,*,#1068,.F.);
#893=ORIENTED_EDGE('',*,*,#1069,.T.);
#894=ORIENTED_EDGE('',*,*,#1070,.T.);
#895=ORIENTED_EDGE('',*,*,#1011,.F.);
#896=ORIENTED_EDGE('',*,*,#1070,.F.);
#897=ORIENTED_EDGE('',*,*,#1071,.T.);
#898=ORIENTED_EDGE('',*,*,#1072,.T.);
#899=ORIENTED_EDGE('',*,*,#1073,.T.);
#900=ORIENTED_EDGE('',*,*,#1012,.F.);
#901=ORIENTED_EDGE('',*,*,#1072,.F.);
#902=ORIENTED_EDGE('',*,*,#1074,.T.);
#903=ORIENTED_EDGE('',*,*,#1075,.T.);
#904=ORIENTED_EDGE('',*,*,#1013,.F.);
#905=ORIENTED_EDGE('',*,*,#1075,.F.);
#906=ORIENTED_EDGE('',*,*,#1076,.T.);
#907=ORIENTED_EDGE('',*,*,#1068,.T.);
#908=ORIENTED_EDGE('',*,*,#1077,.T.);
#909=ORIENTED_EDGE('',*,*,#1048,.T.);
#910=ORIENTED_EDGE('',*,*,#1014,.F.);
#911=ORIENTED_EDGE('',*,*,#1046,.T.);
#912=ORIENTED_EDGE('',*,*,#1015,.F.);
#913=ORIENTED_EDGE('',*,*,#1078,.T.);
#914=ORIENTED_EDGE('',*,*,#1016,.F.);
#915=ORIENTED_EDGE('',*,*,#1017,.F.);
#916=ORIENTED_EDGE('',*,*,#1079,.F.);
#917=ORIENTED_EDGE('',*,*,#1038,.T.);
#918=ORIENTED_EDGE('',*,*,#1080,.T.);
#919=ORIENTED_EDGE('',*,*,#1018,.F.);
#920=ORIENTED_EDGE('',*,*,#1080,.F.);
#921=ORIENTED_EDGE('',*,*,#1035,.T.);
#922=ORIENTED_EDGE('',*,*,#1081,.T.);
#923=ORIENTED_EDGE('',*,*,#1019,.F.);
#924=ORIENTED_EDGE('',*,*,#1081,.F.);
#925=ORIENTED_EDGE('',*,*,#1043,.T.);
#926=ORIENTED_EDGE('',*,*,#1082,.T.);
#927=ORIENTED_EDGE('',*,*,#1020,.F.);
#928=ORIENTED_EDGE('',*,*,#1082,.F.);
#929=ORIENTED_EDGE('',*,*,#1041,.T.);
#930=ORIENTED_EDGE('',*,*,#1079,.T.);
#931=ORIENTED_EDGE('',*,*,#1023,.F.);
#932=ORIENTED_EDGE('',*,*,#1030,.F.);
#933=ORIENTED_EDGE('',*,*,#1078,.F.);
#934=ORIENTED_EDGE('',*,*,#1024,.F.);
#935=ORIENTED_EDGE('',*,*,#1083,.T.);
#936=ORIENTED_EDGE('',*,*,#1084,.T.);
#937=ORIENTED_EDGE('',*,*,#1034,.F.);
#938=ORIENTED_EDGE('',*,*,#1067,.F.);
#939=ORIENTED_EDGE('',*,*,#1073,.F.);
#940=ORIENTED_EDGE('',*,*,#1040,.F.);
#941=ORIENTED_EDGE('',*,*,#1044,.F.);
#942=ORIENTED_EDGE('',*,*,#1053,.F.);
#943=ORIENTED_EDGE('',*,*,#1049,.T.);
#944=ORIENTED_EDGE('',*,*,#1050,.T.);
#945=ORIENTED_EDGE('',*,*,#1051,.T.);
#946=ORIENTED_EDGE('',*,*,#1052,.T.);
#947=ORIENTED_EDGE('',*,*,#1064,.F.);
#948=ORIENTED_EDGE('',*,*,#1061,.F.);
#949=ORIENTED_EDGE('',*,*,#1059,.F.);
#950=ORIENTED_EDGE('',*,*,#1066,.F.);
#951=ORIENTED_EDGE('',*,*,#1063,.F.);
#952=ORIENTED_EDGE('',*,*,#1083,.F.);
#953=ORIENTED_EDGE('',*,*,#1076,.F.);
#954=ORIENTED_EDGE('',*,*,#1074,.F.);
#955=ORIENTED_EDGE('',*,*,#1071,.F.);
#956=ORIENTED_EDGE('',*,*,#1069,.F.);
#957=ORIENTED_EDGE('',*,*,#1084,.F.);
#958=ORIENTED_EDGE('',*,*,#1077,.F.);
#959=EDGE_CURVE('',#1085,#1086,#1087,.T.);
#960=EDGE_CURVE('',#1088,#1085,#1089,.T.);
#961=EDGE_CURVE('',#1088,#1090,#1091,.T.);
#962=EDGE_CURVE('',#1090,#1086,#1092,.T.);
#963=EDGE_CURVE('',#1093,#1093,#1094,.F.);
#964=EDGE_CURVE('',#1095,#1095,#1096,.F.);
#965=EDGE_CURVE('',#1097,#1097,#1098,.T.);
#966=EDGE_CURVE('',#1099,#1099,#1100,.T.);
#967=EDGE_CURVE('',#1086,#1101,#1102,.T.);
#968=EDGE_CURVE('',#1103,#1101,#1104,.T.);
#969=EDGE_CURVE('',#1085,#1103,#1105,.T.);
#970=EDGE_CURVE('',#1106,#1085,#1107,.T.);
#971=EDGE_CURVE('',#1108,#1106,#1109,.T.);
#972=EDGE_CURVE('',#1108,#1088,#1110,.T.);
#973=EDGE_CURVE('',#1111,#1111,#1112,.T.);
#974=EDGE_CURVE('',#1113,#1108,#1114,.T.);
#975=EDGE_CURVE('',#1090,#1113,#1115,.T.);
#976=EDGE_CURVE('',#1116,#1116,#1117,.T.);
#977=EDGE_CURVE('',#1118,#1119,#1120,.T.);
#978=EDGE_CURVE('',#1119,#1121,#1122,.T.);
#979=EDGE_CURVE('',#1121,#1123,#1124,.T.);
#980=EDGE_CURVE('',#1123,#1118,#1125,.T.);
#981=EDGE_CURVE('',#1126,#1127,#1128,.T.);
#982=EDGE_CURVE('',#1127,#1129,#1130,.T.);
#983=EDGE_CURVE('',#1129,#1131,#1132,.T.);
#984=EDGE_CURVE('',#1131,#1126,#1133,.T.);
#985=EDGE_CURVE('',#1134,#1134,#1135,.T.);
#986=EDGE_CURVE('',#1136,#1136,#1137,.T.);
#987=EDGE_CURVE('',#1138,#1138,#1139,.T.);
#988=EDGE_CURVE('',#1140,#1140,#1141,.T.);
#989=EDGE_CURVE('',#1142,#1142,#1143,.F.);
#990=EDGE_CURVE('',#1144,#1144,#1145,.F.);
#991=EDGE_CURVE('',#1146,#1146,#1147,.F.);
#992=EDGE_CURVE('',#1148,#1148,#1149,.F.);
#993=EDGE_CURVE('',#1086,#1150,#1151,.T.);
#994=EDGE_CURVE('',#1113,#1150,#1152,.T.);
#995=EDGE_CURVE('',#1153,#1153,#1154,.F.);
#996=EDGE_CURVE('',#1150,#1155,#1156,.T.);
#997=EDGE_CURVE('',#1101,#1155,#1157,.T.);
#998=EDGE_CURVE('',#1155,#1158,#1159,.T.);
#999=EDGE_CURVE('',#1158,#1103,#1160,.T.);
#1000=EDGE_CURVE('',#1161,#1162,#1163,.F.);
#1001=EDGE_CURVE('',#1162,#1164,#1165,.F.);
#1002=EDGE_CURVE('',#1164,#1166,#1167,.F.);
#1003=EDGE_CURVE('',#1166,#1161,#1168,.F.);
#1004=EDGE_CURVE('',#1169,#1169,#1170,.F.);
#1005=EDGE_CURVE('',#1171,#1171,#1172,.F.);
#1006=EDGE_CURVE('',#1173,#1174,#1175,.F.);
#1007=EDGE_CURVE('',#1174,#1176,#1177,.F.);
#1008=EDGE_CURVE('',#1176,#1178,#1179,.F.);
#1009=EDGE_CURVE('',#1178,#1173,#1180,.F.);
#1010=EDGE_CURVE('',#1181,#1182,#1183,.F.);
#1011=EDGE_CURVE('',#1182,#1184,#1185,.F.);
#1012=EDGE_CURVE('',#1184,#1186,#1187,.F.);
#1013=EDGE_CURVE('',#1186,#1181,#1188,.F.);
#1014=EDGE_CURVE('',#1189,#1189,#1190,.F.);
#1015=EDGE_CURVE('',#1191,#1191,#1192,.F.);
#1016=EDGE_CURVE('',#1193,#1193,#1194,.F.);
#1017=EDGE_CURVE('',#1195,#1196,#1197,.F.);
#1018=EDGE_CURVE('',#1196,#1198,#1199,.F.);
#1019=EDGE_CURVE('',#1198,#1200,#1201,.F.);
#1020=EDGE_CURVE('',#1200,#1195,#1202,.F.);
#1021=EDGE_CURVE('',#1106,#1158,#1203,.T.);
#1022=EDGE_CURVE('',#1150,#1106,#1204,.T.);
#1023=EDGE_CURVE('',#1205,#1205,#1206,.T.);
#1024=EDGE_CURVE('',#1207,#1207,#1208,.T.);
#1025=EDGE_CURVE('',#1209,#1210,#1211,.F.);
#1026=EDGE_CURVE('',#1119,#1209,#1212,.T.);
#1027=EDGE_CURVE('',#1118,#1210,#1213,.T.);
#1028=EDGE_CURVE('',#1214,#1209,#1215,.F.);
#1029=EDGE_CURVE('',#1121,#1214,#1216,.T.);
#1030=EDGE_CURVE('',#1217,#1217,#1218,.F.);
#1031=EDGE_CURVE('',#1219,#1214,#1220,.F.);
#1032=EDGE_CURVE('',#1123,#1219,#1221,.T.);
#1033=EDGE_CURVE('',#1210,#1219,#1222,.F.);
#1034=EDGE_CURVE('',#1223,#1223,#1224,.T.);
#1035=EDGE_CURVE('',#1225,#1226,#1227,.F.);
#1036=EDGE_CURVE('',#1127,#1225,#1228,.T.);
#1037=EDGE_CURVE('',#1126,#1226,#1229,.T.);
#1038=EDGE_CURVE('',#1230,#1225,#1231,.F.);
#1039=EDGE_CURVE('',#1129,#1230,#1232,.T.);
#1040=EDGE_CURVE('',#1233,#1233,#1234,.F.);
#1041=EDGE_CURVE('',#1235,#1230,#1236,.F.);
#1042=EDGE_CURVE('',#1131,#1235,#1237,.T.);
#1043=EDGE_CURVE('',#1226,#1235,#1238,.F.);
#1044=EDGE_CURVE('',#1239,#1239,#1240,.T.);
#1045=EDGE_CURVE('',#1241,#1241,#1242,.F.);
#1046=EDGE_CURVE('',#1243,#1243,#1244,.F.);
#1047=EDGE_CURVE('',#1245,#1245,#1246,.F.);
#1048=EDGE_CURVE('',#1247,#1247,#1248,.F.);
#1049=EDGE_CURVE('',#1249,#1249,#1250,.T.);
#1050=EDGE_CURVE('',#1251,#1251,#1252,.T.);
#1051=EDGE_CURVE('',#1253,#1253,#1254,.T.);
#1052=EDGE_CURVE('',#1255,#1255,#1256,.T.);
#1053=EDGE_CURVE('',#1257,#1257,#1258,.F.);
#1054=EDGE_CURVE('',#1214,#1161,#1259,.F.);
#1055=EDGE_CURVE('',#1209,#1162,#1260,.F.);
#1056=EDGE_CURVE('',#1210,#1164,#1261,.F.);
#1057=EDGE_CURVE('',#1219,#1166,#1262,.F.);
#1058=EDGE_CURVE('',#1263,#1173,#1264,.T.);
#1059=EDGE_CURVE('',#1263,#1265,#1266,.F.);
#1060=EDGE_CURVE('',#1265,#1174,#1267,.T.);
#1061=EDGE_CURVE('',#1265,#1268,#1269,.F.);
#1062=EDGE_CURVE('',#1268,#1176,#1270,.T.);
#1063=EDGE_CURVE('',#1271,#1271,#1272,.T.);
#1064=EDGE_CURVE('',#1268,#1273,#1274,.F.);
#1065=EDGE_CURVE('',#1273,#1178,#1275,.T.);
#1066=EDGE_CURVE('',#1273,#1263,#1276,.F.);
#1067=EDGE_CURVE('',#1277,#1277,#1278,.F.);
#1068=EDGE_CURVE('',#1279,#1181,#1280,.T.);
#1069=EDGE_CURVE('',#1279,#1281,#1282,.F.);
#1070=EDGE_CURVE('',#1281,#1182,#1283,.T.);
#1071=EDGE_CURVE('',#1281,#1284,#1285,.F.);
#1072=EDGE_CURVE('',#1284,#1184,#1286,.T.);
#1073=EDGE_CURVE('',#1287,#1287,#1288,.T.);
#1074=EDGE_CURVE('',#1284,#1289,#1290,.F.);
#1075=EDGE_CURVE('',#1289,#1186,#1291,.T.);
#1076=EDGE_CURVE('',#1289,#1279,#1292,.F.);
#1077=EDGE_CURVE('',#1293,#1293,#1294,.F.);
#1078=EDGE_CURVE('',#1295,#1295,#1296,.F.);
#1079=EDGE_CURVE('',#1230,#1195,#1297,.F.);
#1080=EDGE_CURVE('',#1225,#1196,#1298,.F.);
#1081=EDGE_CURVE('',#1226,#1198,#1299,.F.);
#1082=EDGE_CURVE('',#1235,#1200,#1300,.F.);
#1083=EDGE_CURVE('',#1301,#1301,#1302,.T.);
#1084=EDGE_CURVE('',#1303,#1303,#1304,.T.);
#1085=VERTEX_POINT('',#1305);
#1086=VERTEX_POINT('',#1306);
#1087=LINE('',#1307,#1308);
#1088=VERTEX_POINT('',#1310);
#1089=LINE('',#1311,#1312);
#1090=VERTEX_POINT('',#1314);
#1091=LINE('',#1315,#1316);
#1092=LINE('',#1318,#1319);
#1093=VERTEX_POINT('',#1321);
#1094=CIRCLE('',#1322,2.2);
#1095=VERTEX_POINT('',#1326);
#1096=CIRCLE('',#1327,2.2);
#1097=VERTEX_POINT('',#1331);
#1098=CIRCLE('',#1332,2.2);
#1099=VERTEX_POINT('',#1336);
#1100=CIRCLE('',#1337,2.2);
#1101=VERTEX_POINT('',#1341);
#1102=(BOUNDED_CURVE()B_SPLINE_CURVE(3,
(#1342,#1343,#1344,#1345),
.UNSPECIFIED.,.F.,.F.)B_SPLINE_CURVE_WITH_KNOTS((4,4),
(0.,1.),
.UNSPECIFIED.)CURVE()GEOMETRIC_REPRESENTATION_ITEM()RATIONAL_B_SPLINE_CURVE((1.,
0.804737854124365,0.804737854124365,1.))REPRESENTATION_ITEM(''));
#1103=VERTEX_POINT('',#1346);
#1104=LINE('',#1347,#1348);
#1105=(BOUNDED_CURVE()B_SPLINE_CURVE(3,
(#1350,#1351,#1352,#1353),
.UNSPECIFIED.,.F.,.F.)B_SPLINE_CURVE_WITH_KNOTS((4,4),
(0.,1.),
.UNSPECIFIED.)CURVE()GEOMETRIC_REPRESENTATION_ITEM()RATIONAL_B_SPLINE_CURVE((1.,
0.804737854124365,0.804737854124365,1.))REPRESENTATION_ITEM(''));
#1106=VERTEX_POINT('',#1354);
#1107=LINE('',#1355,#1356);
#1108=VERTEX_POINT('',#1358);
#1109=LINE('',#1359,#1360);
#1110=LINE('',#1362,#1363);
#1111=VERTEX_POINT('',#1365);
#1112=CIRCLE('',#1366,3.25);
#1113=VERTEX_POINT('',#1370);
#1114=LINE('',#1371,#1372);
#1115=LINE('',#1374,#1375);
#1116=VERTEX_POINT('',#1377);
#1117=CIRCLE('',#1378,14.);
#1118=VERTEX_POINT('',#1382);
#1119=VERTEX_POINT('',#1383);
#1120=CIRCLE('',#1384,3.05);
#1121=VERTEX_POINT('',#1388);
#1122=LINE('',#1389,#1390);
#1123=VERTEX_POINT('',#1392);
#1124=LINE('',#1393,#1394);
#1125=LINE('',#1396,#1397);
#1126=VERTEX_POINT('',#1399);
#1127=VERTEX_POINT('',#1400);
#1128=CIRCLE('',#1401,3.05);
#1129=VERTEX_POINT('',#1405);
#1130=LINE('',#1406,#1407);
#1131=VERTEX_POINT('',#1409);
#1132=LINE('',#1410,#1411);
#1133=LINE('',#1413,#1414);
#1134=VERTEX_POINT('',#1416);
#1135=CIRCLE('',#1417,1.6);
#1136=VERTEX_POINT('',#1421);
#1137=CIRCLE('',#1422,1.6);
#1138=VERTEX_POINT('',#1426);
#1139=CIRCLE('',#1427,1.6);
#1140=VERTEX_POINT('',#1431);
#1141=CIRCLE('',#1432,1.6);
#1142=VERTEX_POINT('',#1436);
#1143=CIRCLE('',#1437,2.2);
#1144=VERTEX_POINT('',#1441);
#1145=CIRCLE('',#1442,2.2);
#1146=VERTEX_POINT('',#1446);
#1147=CIRCLE('',#1447,2.2);
#1148=VERTEX_POINT('',#1451);
#1149=CIRCLE('',#1452,2.2);
#1150=VERTEX_POINT('',#1456);
#1151=LINE('',#1457,#1458);
#1152=LINE('',#1460,#1461);
#1153=VERTEX_POINT('',#1463);
#1154=CIRCLE('',#1464,3.25);
#1155=VERTEX_POINT('',#1468);
#1156=(BOUNDED_CURVE()B_SPLINE_CURVE(3,
(#1469,#1470,#1471,#1472),
.UNSPECIFIED.,.F.,.F.)B_SPLINE_CURVE_WITH_KNOTS((4,4),
(0.,1.),
.UNSPECIFIED.)CURVE()GEOMETRIC_REPRESENTATION_ITEM()RATIONAL_B_SPLINE_CURVE((1.,
0.804737854124365,0.804737854124365,1.))REPRESENTATION_ITEM(''));
#1157=LINE('',#1473,#1474);
#1158=VERTEX_POINT('',#1476);
#1159=LINE('',#1477,#1478);
#1160=LINE('',#1480,#1481);
#1161=VERTEX_POINT('',#1483);
#1162=VERTEX_POINT('',#1484);
#1163=LINE('',#1485,#1486);
#1164=VERTEX_POINT('',#1488);
#1165=CIRCLE('',#1489,3.45);
#1166=VERTEX_POINT('',#1493);
#1167=LINE('',#1494,#1495);
#1168=LINE('',#1497,#1498);
#1169=VERTEX_POINT('',#1500);
#1170=CIRCLE('',#1501,3.1);
#1171=VERTEX_POINT('',#1505);
#1172=CIRCLE('',#1506,3.1);
#1173=VERTEX_POINT('',#1510);
#1174=VERTEX_POINT('',#1511);
#1175=LINE('',#1512,#1513);
#1176=VERTEX_POINT('',#1515);
#1177=LINE('',#1516,#1517);
#1178=VERTEX_POINT('',#1519);
#1179=LINE('',#1520,#1521);
#1180=LINE('',#1523,#1524);
#1181=VERTEX_POINT('',#1526);
#1182=VERTEX_POINT('',#1527);
#1183=LINE('',#1528,#1529);
#1184=VERTEX_POINT('',#1531);
#1185=LINE('',#1532,#1533);
#1186=VERTEX_POINT('',#1535);
#1187=LINE('',#1536,#1537);
#1188=LINE('',#1539,#1540);
#1189=VERTEX_POINT('',#1542);
#1190=CIRCLE('',#1543,3.1);
#1191=VERTEX_POINT('',#1547);
#1192=CIRCLE('',#1548,3.1);
#1193=VERTEX_POINT('',#1552);
#1194=CIRCLE('',#1553,14.);
#1195=VERTEX_POINT('',#1557);
#1196=VERTEX_POINT('',#1558);
#1197=LINE('',#1559,#1560);
#1198=VERTEX_POINT('',#1562);
#1199=CIRCLE('',#1563,3.45);
#1200=VERTEX_POINT('',#1567);
#1201=LINE('',#1568,#1569);
#1202=LINE('',#1571,#1572);
#1203=(BOUNDED_CURVE()B_SPLINE_CURVE(3,
(#1574,#1575,#1576,#1577),
.UNSPECIFIED.,.F.,.F.)B_SPLINE_CURVE_WITH_KNOTS((4,4),
(0.,1.),
.UNSPECIFIED.)CURVE()GEOMETRIC_REPRESENTATION_ITEM()RATIONAL_B_SPLINE_CURVE((1.,
0.804737854124365,0.804737854124365,1.))REPRESENTATION_ITEM(''));
#1204=LINE('',#1578,#1579);
#1205=VERTEX_POINT('',#1581);
#1206=CIRCLE('',#1582,1.75);
#1207=VERTEX_POINT('',#1586);
#1208=CIRCLE('',#1587,12.5);
#1209=VERTEX_POINT('',#1591);
#1210=VERTEX_POINT('',#1592);
#1211=CIRCLE('',#1593,3.05);
#1212=LINE('',#1597,#1598);
#1213=LINE('',#1600,#1601);
#1214=VERTEX_POINT('',#1603);
#1215=LINE('',#1604,#1605);
#1216=LINE('',#1607,#1608);
#1217=VERTEX_POINT('',#1610);
#1218=CIRCLE('',#1611,1.75);
#1219=VERTEX_POINT('',#1615);
#1220=LINE('',#1616,#1617);
#1221=LINE('',#1619,#1620);
#1222=LINE('',#1622,#1623);
#1223=VERTEX_POINT('',#1625);
#1224=CIRCLE('',#1626,1.75);
#1225=VERTEX_POINT('',#1630);
#1226=VERTEX_POINT('',#1631);
#1227=CIRCLE('',#1632,3.05);
#1228=LINE('',#1636,#1637);
#1229=LINE('',#1639,#1640);
#1230=VERTEX_POINT('',#1642);
#1231=LINE('',#1643,#1644);
#1232=LINE('',#1646,#1647);
#1233=VERTEX_POINT('',#1649);
#1234=CIRCLE('',#1650,1.75);
#1235=VERTEX_POINT('',#1654);
#1236=LINE('',#1655,#1656);
#1237=LINE('',#1658,#1659);
#1238=LINE('',#1661,#1662);
#1239=VERTEX_POINT('',#1664);
#1240=CIRCLE('',#1665,1.75);
#1241=VERTEX_POINT('',#1669);
#1242=CIRCLE('',#1670,1.6);
#1243=VERTEX_POINT('',#1674);
#1244=CIRCLE('',#1675,1.6);
#1245=VERTEX_POINT('',#1679);
#1246=CIRCLE('',#1680,1.6);
#1247=VERTEX_POINT('',#1684);
#1248=CIRCLE('',#1685,1.6);
#1249=VERTEX_POINT('',#1689);
#1250=CIRCLE('',#1690,2.2);
#1251=VERTEX_POINT('',#1694);
#1252=CIRCLE('',#1695,2.2);
#1253=VERTEX_POINT('',#1699);
#1254=CIRCLE('',#1700,2.2);
#1255=VERTEX_POINT('',#1704);
#1256=CIRCLE('',#1705,2.2);
#1257=VERTEX_POINT('',#1709);
#1258=CIRCLE('',#1710,1.75);
#1259=(BOUNDED_CURVE()B_SPLINE_CURVE(3,
(#1714,#1715,#1716,#1717),
.UNSPECIFIED.,.F.,.F.)B_SPLINE_CURVE_WITH_KNOTS((4,4),
(0.,1.),
.UNSPECIFIED.)CURVE()GEOMETRIC_REPRESENTATION_ITEM()RATIONAL_B_SPLINE_CURVE((1.,
0.804737854124365,0.804737854124365,1.))REPRESENTATION_ITEM(''));
#1260=B_SPLINE_CURVE_WITH_KNOTS('',3,
(#1718,#1719,#1720,#1721,#1722,#1723,#1724,#1725,#1726,#1727,#1728,#1729,#1730),
.UNSPECIFIED.,.F.,.F.,
(4,1,1,1,1,1,1,1,1,1,4),
(0.,0.0843707074670254,0.168957521287667,0.253874627310326,0.363808903658611,0.490039335524679,
0.628021858162135,0.748277054355769,0.851172072822922,0.933478619806043,1.),
.UNSPECIFIED.);
#1261=B_SPLINE_CURVE_WITH_KNOTS('',3,
(#1731,#1732,#1733,#1734,#1735,#1736,#1737,#1738,#1739,#1740,#1741,#1742,#1743),
.UNSPECIFIED.,.F.,.F.,
(4,1,1,1,1,1,1,1,1,1,4),
(0.,0.084370707467021,0.168957521287663,0.253874627310317,0.363808903658609,0.490039335524689,
0.628021858162131,0.748277054355774,0.851172072822918,0.933478619806044,1.),
.UNSPECIFIED.);
#1262=(BOUNDED_CURVE()B_SPLINE_CURVE(3,
(#1744,#1745,#1746,#1747),
.UNSPECIFIED.,.F.,.F.)B_SPLINE_CURVE_WITH_KNOTS((4,4),
(0.,1.),
.UNSPECIFIED.)CURVE()GEOMETRIC_REPRESENTATION_ITEM()RATIONAL_B_SPLINE_CURVE((1.,
0.804737854124365,0.804737854124365,1.))REPRESENTATION_ITEM(''));
#1263=VERTEX_POINT('',#1748);
#1264=LINE('',#1749,#1750);
#1265=VERTEX_POINT('',#1752);
#1266=LINE('',#1753,#1754);
#1267=LINE('',#1756,#1757);
#1268=VERTEX_POINT('',#1759);
#1269=LINE('',#1760,#1761);
#1270=LINE('',#1763,#1764);
#1271=VERTEX_POINT('',#1766);
#1272=CIRCLE('',#1767,1.75);
#1273=VERTEX_POINT('',#1771);
#1274=LINE('',#1772,#1773);
#1275=LINE('',#1775,#1776);
#1276=LINE('',#1778,#1779);
#1277=VERTEX_POINT('',#1781);
#1278=CIRCLE('',#1782,1.75);
#1279=VERTEX_POINT('',#1786);
#1280=LINE('',#1787,#1788);
#1281=VERTEX_POINT('',#1790);
#1282=LINE('',#1791,#1792);
#1283=LINE('',#1794,#1795);
#1284=VERTEX_POINT('',#1797);
#1285=LINE('',#1798,#1799);
#1286=LINE('',#1801,#1802);
#1287=VERTEX_POINT('',#1804);
#1288=CIRCLE('',#1805,1.75);
#1289=VERTEX_POINT('',#1809);
#1290=LINE('',#1810,#1811);
#1291=LINE('',#1813,#1814);
#1292=LINE('',#1816,#1817);
#1293=VERTEX_POINT('',#1819);
#1294=CIRCLE('',#1820,1.75);
#1295=VERTEX_POINT('',#1824);
#1296=CIRCLE('',#1825,12.5);
#1297=(BOUNDED_CURVE()B_SPLINE_CURVE(3,
(#1829,#1830,#1831,#1832),
.UNSPECIFIED.,.F.,.F.)B_SPLINE_CURVE_WITH_KNOTS((4,4),
(0.,1.),
.UNSPECIFIED.)CURVE()GEOMETRIC_REPRESENTATION_ITEM()RATIONAL_B_SPLINE_CURVE((1.,
0.804737854124365,0.804737854124365,1.))REPRESENTATION_ITEM(''));
#1298=B_SPLINE_CURVE_WITH_KNOTS('',3,
(#1833,#1834,#1835,#1836,#1837,#1838,#1839,#1840,#1841,#1842,#1843,#1844,#1845),
.UNSPECIFIED.,.F.,.F.,
(4,1,1,1,1,1,1,1,1,1,4),
(0.,0.0843707074670174,0.168957521287683,0.253874627310351,0.363808903658616,0.490039335524686,
0.628021858162122,0.748277054355766,0.851172072822919,0.933478619806042,1.),
.UNSPECIFIED.);
#1299=B_SPLINE_CURVE_WITH_KNOTS('',3,
(#1846,#1847,#1848,#1849,#1850,#1851,#1852,#1853,#1854,#1855,#1856,#1857,#1858),
.UNSPECIFIED.,.F.,.F.,
(4,1,1,1,1,1,1,1,1,1,4),
(0.,0.0843707074670265,0.16895752128767,0.25387462731033,0.363808903658607,0.490039335524679,
0.628021858162115,0.748277054355752,0.851172072822918,0.933478619806044,1.),
.UNSPECIFIED.);
#1300=(BOUNDED_CURVE()B_SPLINE_CURVE(3,
(#1859,#1860,#1861,#1862),
.UNSPECIFIED.,.F.,.F.)B_SPLINE_CURVE_WITH_KNOTS((4,4),
(0.,1.),
.UNSPECIFIED.)CURVE()GEOMETRIC_REPRESENTATION_ITEM()RATIONAL_B_SPLINE_CURVE((1.,
0.804737854124365,0.804737854124365,1.))REPRESENTATION_ITEM(''));
#1301=VERTEX_POINT('',#1863);
#1302=B_SPLINE_CURVE_WITH_KNOTS('',3,
(#1864,#1865,#1866,#1867,#1868,#1869,#1870,#1871,#1872,#1873,#1874,#1875,#1876,#1877,
#1878,#1879,#1880,#1881,#1882,#1883,#1884,#1885,#1886,#1887,#1888,#1889,#1890,#1891,
#1892,#1893,#1894,#1895,#1896,#1897,#1898,#1899,#1900,#1901,#1902,#1903,#1904,#1905,
#1906,#1907,#1908,#1909,#1910,#1911,#1912,#1913,#1914,#1915,#1916,#1917,#1918,#1919,
#1920,#1921,#1922,#1923,#1924,#1925,#1926,#1927,#1928,#1929,#1930),
.UNSPECIFIED.,.T.,.F.,
(4,1,1,1,1,1,1,1,1,1,1,1,1,1,1,1,1,1,1,1,1,1,1,1,1,1,1,1,1,1,1,1,1,1,1,1,1,1,1,1,
1,1,1,1,1,1,1,1,1,1,1,1,1,1,1,1,1,1,1,1,1,1,1,1,4),
(0.,0.018330209908775,0.0369108549193234,0.0557455494884128,0.0743310402595104,0.0924145552813125,
0.110123629970397,0.127959493654998,0.145391345172085,0.162285465390401,0.178405779878036,
0.194277343876074,0.208834307986196,0.222301583402079,0.234162163476152,0.245490404922759,
0.255783477603318,0.260015205033365,0.265566670373551,0.277718566029392,0.292881309848164,
0.308841704394724,0.322722873890991,0.335474725572131,0.349314518395221,0.364639477504388,
0.380372267063975,0.396857719964521,0.413694603391245,0.431891404391202,0.451101847838571,
0.471544995123391,0.492207252815712,0.513511132353193,0.520029261138652,0.535232525322535,
0.556391391434662,0.576558434105919,0.595807709038836,0.615120818107535,0.63383338746065,
0.651866517427574,0.668620033574884,0.684762880808215,0.699580223983912,0.713676793988997,
0.726998026383519,0.740261019173314,0.753046796920145,0.760016920022239,0.765405829089092,
0.776922458281017,0.788025122290836,0.80151744399971,0.819148743868701,0.837932034011874,
0.855056059580118,0.869798552945813,0.885146410937303,0.901590471153653,0.918533997133544,
0.93571273826724,0.952635071909268,0.973976944712469,1.),
.UNSPECIFIED.);
#1303=VERTEX_POINT('',#1931);
#1304=B_SPLINE_CURVE_WITH_KNOTS('',3,
(#1932,#1933,#1934,#1935,#1936,#1937,#1938,#1939,#1940,#1941,#1942,#1943,#1944,#1945,
#1946,#1947,#1948,#1949,#1950,#1951,#1952,#1953,#1954,#1955,#1956,#1957,#1958,#1959,
#1960,#1961,#1962,#1963,#1964,#1965,#1966,#1967,#1968,#1969,#1970,#1971,#1972,#1973,
#1974,#1975,#1976,#1977,#1978,#1979,#1980,#1981,#1982,#1983,#1984,#1985,#1986,#1987,
#1988,#1989,#1990,#1991,#1992,#1993,#1994,#1995,#1996,#1997),
.UNSPECIFIED.,.T.,.F.,
(4,1,1,1,1,1,1,1,1,1,1,1,1,1,1,1,1,1,1,1,1,1,1,1,1,1,1,1,1,1,1,1,1,1,1,1,1,1,1,1,
1,1,1,1,1,1,1,1,1,1,1,1,1,1,1,1,1,1,1,1,1,1,1,4),
(0.,0.0218594914743612,0.0433284214834541,0.0643981828259624,0.0843799395015278,
0.103659637374094,0.121572425783249,0.138806636057203,0.154996580738642,0.170811791031211,
0.185757401578865,0.200202320162469,0.214107419792265,0.227969894189737,0.239987163358799,
0.240958081345516,0.253110578095254,0.26423117604148,0.275164541151516,0.28911378745019,
0.30373391655432,0.319023980531553,0.332600363497551,0.347004291639894,0.362755877700807,
0.379033427439146,0.396558553696766,0.414815001385646,0.434468373069912,0.454799230408529,
0.476077203417062,0.479967920307273,0.497635341197427,0.519050722573067,0.540050894225042,
0.559806590708282,0.578733655810547,0.596652196307582,0.614387053141427,0.631487822840054,
0.648130403684148,0.663869035771942,0.679147973234909,0.693109635507691,0.706190683106474,
0.718076335685645,0.729632019979481,0.7399833620218,0.740378368748648,0.750634684341237,
0.763394882676397,0.779542016823944,0.796665118949564,0.811766261888829,0.825542412440626,
0.840408925489277,0.856407055486075,0.872458082084986,0.889394396177241,0.9071675165413,
0.931477755082379,0.956004146038387,0.980744602934592,1.),
.UNSPECIFIED.);
#1305=CARTESIAN_POINT('',(4.44089209850063E-16,1.72084568816899E-15,10.5));
#1306=CARTESIAN_POINT('',(-60.,7.1711429250113E-15,10.5));
#1307=CARTESIAN_POINT('',(1.77635683940025E-15,-1.11022302462516E-16,10.5));
#1308=VECTOR('',#1309,1.);
#1309=DIRECTION('',(-1.,1.2414497801946E-16,0.));
#1310=CARTESIAN_POINT('',(0.,0.,0.));
#1311=CARTESIAN_POINT('',(0.,0.,0.));
#1312=VECTOR('',#1313,1.);
#1313=DIRECTION('',(0.,0.,1.));
#1314=CARTESIAN_POINT('',(-60.,7.34788079488412E-15,0.));
#1315=CARTESIAN_POINT('',(0.,0.,0.));
#1316=VECTOR('',#1317,1.);
#1317=DIRECTION('',(-1.,1.22464679914735E-16,0.));
#1318=CARTESIAN_POINT('',(-60.,7.34788079488412E-15,0.));
#1319=VECTOR('',#1320,1.);
#1320=DIRECTION('',(0.,0.,1.));
#1321=CARTESIAN_POINT('',(-52.2,6.39265629154918E-15,6.));
#1322=AXIS2_PLACEMENT_3D('',#1323,#1324,#1325);
#1323=CARTESIAN_POINT('',(-50.,6.12323399573676E-15,6.));
#1324=DIRECTION('',(1.22464679914735E-16,1.,0.));
#1325=DIRECTION('',(-1.,1.22464679914735E-16,-1.22464679914735E-16));
#1326=CARTESIAN_POINT('',(-12.2,1.49406909495977E-15,6.));
#1327=AXIS2_PLACEMENT_3D('',#1328,#1329,#1330);
#1328=CARTESIAN_POINT('',(-10.,1.22464679914735E-15,6.));
#1329=DIRECTION('',(1.22464679914735E-16,1.,0.));
#1330=DIRECTION('',(-1.,1.22464679914735E-16,-1.22464679914735E-16));
#1331=CARTESIAN_POINT('',(-12.2,-6.,6.));
#1332=AXIS2_PLACEMENT_3D('',#1333,#1334,#1335);
#1333=CARTESIAN_POINT('',(-10.,-6.,6.));
#1334=DIRECTION('',(1.22464679914735E-16,1.,0.));
#1335=DIRECTION('',(-1.,1.22464679914735E-16,-1.22464679914735E-16));
#1336=CARTESIAN_POINT('',(-52.2,-5.99999999999999,6.));
#1337=AXIS2_PLACEMENT_3D('',#1338,#1339,#1340);
#1338=CARTESIAN_POINT('',(-50.,-5.99999999999999,6.));
#1339=DIRECTION('',(1.22464679914735E-16,1.,0.));
#1340=DIRECTION('',(-1.,1.22464679914735E-16,-1.22464679914735E-16));
#1341=CARTESIAN_POINT('',(-58.5,-1.49999999999999,12.));
#1342=CARTESIAN_POINT('',(-60.,7.32747196252603E-15,10.5));
#1343=CARTESIAN_POINT('',(-60.,7.77156117237609E-15,11.3786796564404));
#1344=CARTESIAN_POINT('',(-59.3786796564404,-0.621320343559635,12.));
#1345=CARTESIAN_POINT('',(-58.5,-1.49999999999999,12.));
#1346=CARTESIAN_POINT('',(-1.5,-1.5,12.));
#1347=CARTESIAN_POINT('',(-1.5,-1.5,12.));
#1348=VECTOR('',#1349,1.);
#1349=DIRECTION('',(-1.,1.2465662030879E-16,0.));
#1350=CARTESIAN_POINT('',(0.,0.,10.5));
#1351=CARTESIAN_POINT('',(4.44089209850063E-16,4.44089209850063E-16,11.3786796564404));
#1352=CARTESIAN_POINT('',(-0.621320343559642,-0.621320343559642,12.));
#1353=CARTESIAN_POINT('',(-1.5,-1.5,12.));
#1354=CARTESIAN_POINT('',(-2.14143116247803E-15,-50.,10.5));
#1355=CARTESIAN_POINT('',(-6.05921916435631E-15,-50.,10.5));
#1356=VECTOR('',#1357,1.);
#1357=DIRECTION('',(1.21184383287126E-16,1.,0.));
#1358=CARTESIAN_POINT('',(-4.34687715633652E-15,-50.,0.));
#1359=CARTESIAN_POINT('',(-3.06161699786838E-15,-50.,0.));
#1360=VECTOR('',#1361,1.);
#1361=DIRECTION('',(0.,0.,1.));
#1362=CARTESIAN_POINT('',(-6.12323399573677E-15,-50.,0.));
#1363=VECTOR('',#1364,1.);
#1364=DIRECTION('',(1.22464679914735E-16,1.,0.));
#1365=CARTESIAN_POINT('',(-2.09642314620853E-15,-17.1185940931552,2.75));
#1366=AXIS2_PLACEMENT_3D('',#1367,#1368,#1369);
#1367=CARTESIAN_POINT('',(-2.09642314620853E-15,-17.1185940931552,6.));
#1368=DIRECTION('',(-1.,1.22464679914735E-16,0.));
#1369=DIRECTION('',(-2.24963967399279E-32,-1.83697019872103E-16,-1.));
#1370=CARTESIAN_POINT('',(-60.,-50.,0.));
#1371=CARTESIAN_POINT('',(-60.,-50.,0.));
#1372=VECTOR('',#1373,1.);
#1373=DIRECTION('',(1.,-1.1842378929335E-16,0.));
#1374=CARTESIAN_POINT('',(-60.,7.34788079488412E-15,0.));
#1375=VECTOR('',#1376,1.);
#1376=DIRECTION('',(-1.4210854715202E-16,-1.,0.));
#1377=CARTESIAN_POINT('',(-44.,-25.,0.));
#1378=AXIS2_PLACEMENT_3D('',#1379,#1380,#1381);
#1379=CARTESIAN_POINT('',(-30.,-25.,0.));
#1380=DIRECTION('',(0.,0.,1.));
#1381=DIRECTION('',(-1.,1.22464679914735E-16,0.));
#1382=CARTESIAN_POINT('',(-11.,-22.1185940931552,0.));
#1383=CARTESIAN_POINT('',(-9.00000000000002,-22.1185940931552,0.));
#1384=AXIS2_PLACEMENT_3D('',#1385,#1386,#1387);
#1385=CARTESIAN_POINT('',(-10.,-25.,0.));
#1386=DIRECTION('',(0.,0.,1.));
#1387=DIRECTION('',(-0.327868852459013,0.944723248145831,0.));
#1388=CARTESIAN_POINT('',(-9.00000000000002,-10.1185940931552,0.));
#1389=CARTESIAN_POINT('',(-9.00000000000002,-22.1185940931552,0.));
#1390=VECTOR('',#1391,1.);
#1391=DIRECTION('',(1.48029736616688E-16,1.,0.));
#1392=CARTESIAN_POINT('',(-11.,-10.1185940931552,0.));
#1393=CARTESIAN_POINT('',(-9.00000000000002,-10.1185940931552,0.));
#1394=VECTOR('',#1395,1.);
#1395=DIRECTION('',(-1.,-8.88178419700128E-16,0.));
#1396=CARTESIAN_POINT('',(-11.,-10.1185940931552,0.));
#1397=VECTOR('',#1398,1.);
#1398=DIRECTION('',(-1.48029736616688E-16,-1.,0.));
#1399=CARTESIAN_POINT('',(-51.,-22.1185940931552,0.));
#1400=CARTESIAN_POINT('',(-49.,-22.1185940931552,0.));
#1401=AXIS2_PLACEMENT_3D('',#1402,#1403,#1404);
#1402=CARTESIAN_POINT('',(-50.,-25.,0.));
#1403=DIRECTION('',(0.,0.,1.));
#1404=DIRECTION('',(-0.327868852459021,0.944723248145829,0.));
#1405=CARTESIAN_POINT('',(-49.,-10.1185940931552,0.));
#1406=CARTESIAN_POINT('',(-49.,-22.1185940931552,0.));
#1407=VECTOR('',#1408,1.);
#1408=DIRECTION('',(0.,1.,0.));
#1409=CARTESIAN_POINT('',(-51.,-10.1185940931552,0.));
#1410=CARTESIAN_POINT('',(-49.,-10.1185940931552,0.));
#1411=VECTOR('',#1412,1.);
#1412=DIRECTION('',(-1.,1.77635683940025E-15,0.));
#1413=CARTESIAN_POINT('',(-51.,-10.1185940931552,0.));
#1414=VECTOR('',#1415,1.);
#1415=DIRECTION('',(0.,-1.,0.));
#1416=CARTESIAN_POINT('',(-16.1,-9.5,0.));
#1417=AXIS2_PLACEMENT_3D('',#1418,#1419,#1420);
#1418=CARTESIAN_POINT('',(-14.5,-9.5,0.));
#1419=DIRECTION('',(0.,0.,1.));
#1420=DIRECTION('',(-1.,1.22464679914735E-16,0.));
#1421=CARTESIAN_POINT('',(-47.1,-9.49999999999998,0.));
#1422=AXIS2_PLACEMENT_3D('',#1423,#1424,#1425);
#1423=CARTESIAN_POINT('',(-45.5,-9.49999999999998,0.));
#1424=DIRECTION('',(0.,0.,1.));
#1425=DIRECTION('',(-1.,1.22464679914735E-16,0.));
#1426=CARTESIAN_POINT('',(-16.1,-40.5,0.));
#1427=AXIS2_PLACEMENT_3D('',#1428,#1429,#1430);
#1428=CARTESIAN_POINT('',(-14.5,-40.5,0.));
#1429=DIRECTION('',(0.,0.,1.));
#1430=DIRECTION('',(-1.,1.22464679914735E-16,0.));
#1431=CARTESIAN_POINT('',(-47.1,-40.5,0.));
#1432=AXIS2_PLACEMENT_3D('',#1433,#1434,#1435);
#1433=CARTESIAN_POINT('',(-45.5,-40.5,0.));
#1434=DIRECTION('',(0.,0.,1.));
#1435=DIRECTION('',(-1.,1.22464679914735E-16,0.));
#1436=CARTESIAN_POINT('',(-1.8,-3.99999999999999,0.));
#1437=AXIS2_PLACEMENT_3D('',#1438,#1439,#1440);
#1438=CARTESIAN_POINT('',(-4.,-3.99999999999999,0.));
#1439=DIRECTION('',(0.,0.,-1.));
#1440=DIRECTION('',(1.,1.22464679914735E-16,0.));
#1441=CARTESIAN_POINT('',(-1.79999999999999,-46.,0.));
#1442=AXIS2_PLACEMENT_3D('',#1443,#1444,#1445);
#1443=CARTESIAN_POINT('',(-3.99999999999999,-46.,0.));
#1444=DIRECTION('',(0.,0.,-1.));
#1445=DIRECTION('',(1.,1.22464679914735E-16,0.));
#1446=CARTESIAN_POINT('',(-53.8,-3.99999999999999,0.));
#1447=AXIS2_PLACEMENT_3D('',#1448,#1449,#1450);
#1448=CARTESIAN_POINT('',(-56.,-3.99999999999999,0.));
#1449=DIRECTION('',(0.,0.,-1.));
#1450=DIRECTION('',(1.,1.22464679914735E-16,0.));
#1451=CARTESIAN_POINT('',(-53.8,-46.,0.));
#1452=AXIS2_PLACEMENT_3D('',#1453,#1454,#1455);
#1453=CARTESIAN_POINT('',(-56.,-46.,0.));
#1454=DIRECTION('',(0.,0.,-1.));
#1455=DIRECTION('',(1.,1.22464679914735E-16,0.));
#1456=CARTESIAN_POINT('',(-60.,-50.,10.5));
#1457=CARTESIAN_POINT('',(-60.,6.7825648663925E-15,10.5));
#1458=VECTOR('',#1459,1.);
#1459=DIRECTION('',(-2.8421709430404E-16,-1.,0.));
#1460=CARTESIAN_POINT('',(-60.,-50.,0.));
#1461=VECTOR('',#1462,1.);
#1462=DIRECTION('',(0.,0.,1.));
#1463=CARTESIAN_POINT('',(-60.,-17.1185940931555,2.75));
#1464=AXIS2_PLACEMENT_3D('',#1465,#1466,#1467);
#1465=CARTESIAN_POINT('',(-60.,-17.1185940931552,6.));
#1466=DIRECTION('',(-1.,1.4210854715202E-16,0.));
#1467=DIRECTION('',(-1.20907985875846E-29,-8.50814312713399E-14,-1.));
#1468=CARTESIAN_POINT('',(-58.5,-48.5,12.));
#1469=CARTESIAN_POINT('',(-60.,-50.,10.5));
#1470=CARTESIAN_POINT('',(-60.,-50.,11.3786796564404));
#1471=CARTESIAN_POINT('',(-59.3786796564404,-49.3786796564404,12.));
#1472=CARTESIAN_POINT('',(-58.5,-48.5,12.));
#1473=CARTESIAN_POINT('',(-58.5,-1.49999999999999,12.));
#1474=VECTOR('',#1475,1.);
#1475=DIRECTION('',(-3.02358610961745E-16,-1.,0.));
#1476=CARTESIAN_POINT('',(-1.5,-48.5,12.));
#1477=CARTESIAN_POINT('',(-58.5,-48.5,12.));
#1478=VECTOR('',#1479,1.);
#1479=DIRECTION('',(1.,-1.2465662030879E-16,0.));
#1480=CARTESIAN_POINT('',(-1.50000000000001,-48.5,12.));
#1481=VECTOR('',#1482,1.);
#1482=DIRECTION('',(1.18108832406932E-16,1.,0.));
#1483=CARTESIAN_POINT('',(-8.60000000000002,-9.71859409315523,12.));
#1484=CARTESIAN_POINT('',(-8.60000000000007,-21.8468269949143,12.));
#1485=CARTESIAN_POINT('',(-8.60000000000002,-21.8468269949142,12.));
#1486=VECTOR('',#1487,1.);
#1487=DIRECTION('',(2.92929209686041E-16,1.,0.));
#1488=CARTESIAN_POINT('',(-11.4,-21.8468269949143,12.));
#1489=AXIS2_PLACEMENT_3D('',#1490,#1491,#1492);
#1490=CARTESIAN_POINT('',(-10.,-25.,12.));
#1491=DIRECTION('',(0.,0.,1.));
#1492=DIRECTION('',(-0.405797101449243,0.913963189879873,0.));
#1493=CARTESIAN_POINT('',(-11.4,-9.71859409315523,12.));
#1494=CARTESIAN_POINT('',(-11.4,-9.71859409315523,12.));
#1495=VECTOR('',#1496,1.);
#1496=DIRECTION('',(0.,-1.,0.));
#1497=CARTESIAN_POINT('',(-8.60000000000002,-9.71859409315523,12.));
#1498=VECTOR('',#1499,1.);
#1499=DIRECTION('',(-1.,-6.34413156928662E-16,0.));
#1500=CARTESIAN_POINT('',(-17.6,-9.5,12.));
#1501=AXIS2_PLACEMENT_3D('',#1502,#1503,#1504);
#1502=CARTESIAN_POINT('',(-14.5,-9.5,12.));
#1503=DIRECTION('',(0.,0.,1.));
#1504=DIRECTION('',(-1.,1.22464679914735E-16,0.));
#1505=CARTESIAN_POINT('',(-17.6,-40.5,12.));
#1506=AXIS2_PLACEMENT_3D('',#1507,#1508,#1509);
#1507=CARTESIAN_POINT('',(-14.5,-40.5,12.));
#1508=DIRECTION('',(0.,0.,1.));
#1509=DIRECTION('',(-1.,1.22464679914735E-16,0.));
#1510=CARTESIAN_POINT('',(-13.,-20.1185940931552,12.));
#1511=CARTESIAN_POINT('',(-15.,-20.1185940931552,12.));
#1512=CARTESIAN_POINT('',(-15.,-20.1185940931552,12.));
#1513=VECTOR('',#1514,1.);
#1514=DIRECTION('',(1.,0.,0.));
#1515=CARTESIAN_POINT('',(-15.,-14.1185940931552,12.));
#1516=CARTESIAN_POINT('',(-15.,-14.1185940931552,12.));
#1517=VECTOR('',#1518,1.);
#1518=DIRECTION('',(5.92118946466751E-15,-1.,0.));
#1519=CARTESIAN_POINT('',(-13.,-14.1185940931552,12.));
#1520=CARTESIAN_POINT('',(-13.,-14.1185940931552,12.));
#1521=VECTOR('',#1522,1.);
#1522=DIRECTION('',(-1.,-1.77635683940023E-15,0.));
#1523=CARTESIAN_POINT('',(-13.,-20.1185940931552,12.));
#1524=VECTOR('',#1525,1.);
#1525=DIRECTION('',(-2.368475785867E-15,1.,0.));
#1526=CARTESIAN_POINT('',(-45.,-20.1185940931552,12.));
#1527=CARTESIAN_POINT('',(-47.,-20.1185940931552,12.));
#1528=CARTESIAN_POINT('',(-47.,-20.1185940931552,12.));
#1529=VECTOR('',#1530,1.);
#1530=DIRECTION('',(1.,0.,0.));
#1531=CARTESIAN_POINT('',(-47.,-14.1185940931552,12.));
#1532=CARTESIAN_POINT('',(-47.,-14.1185940931552,12.));
#1533=VECTOR('',#1534,1.);
#1534=DIRECTION('',(0.,-1.,0.));
#1535=CARTESIAN_POINT('',(-45.,-14.1185940931552,12.));
#1536=CARTESIAN_POINT('',(-45.,-14.1185940931552,12.));
#1537=VECTOR('',#1538,1.);
#1538=DIRECTION('',(-1.,0.,0.));
#1539=CARTESIAN_POINT('',(-45.,-20.1185940931552,12.));
#1540=VECTOR('',#1541,1.);
#1541=DIRECTION('',(0.,1.,0.));
#1542=CARTESIAN_POINT('',(-48.6,-40.5,12.));
#1543=AXIS2_PLACEMENT_3D('',#1544,#1545,#1546);
#1544=CARTESIAN_POINT('',(-45.5,-40.5,12.));
#1545=DIRECTION('',(0.,0.,1.));
#1546=DIRECTION('',(-1.,1.22464679914735E-16,0.));
#1547=CARTESIAN_POINT('',(-48.6,-9.49999999999998,12.));
#1548=AXIS2_PLACEMENT_3D('',#1549,#1550,#1551);
#1549=CARTESIAN_POINT('',(-45.5,-9.49999999999998,12.));
#1550=DIRECTION('',(0.,0.,1.));
#1551=DIRECTION('',(-1.,1.22464679914735E-16,0.));
#1552=CARTESIAN_POINT('',(-44.,-25.,12.));
#1553=AXIS2_PLACEMENT_3D('',#1554,#1555,#1556);
#1554=CARTESIAN_POINT('',(-30.,-25.,12.));
#1555=DIRECTION('',(0.,0.,1.));
#1556=DIRECTION('',(-1.,1.22464679914735E-16,0.));
#1557=CARTESIAN_POINT('',(-48.6,-9.71859409315521,12.));
#1558=CARTESIAN_POINT('',(-48.6,-21.8468269949143,12.));
#1559=CARTESIAN_POINT('',(-48.6,-21.8468269949142,12.));
#1560=VECTOR('',#1561,1.);
#1561=DIRECTION('',(0.,1.,0.));
#1562=CARTESIAN_POINT('',(-51.3999999999999,-21.8468269949143,12.));
#1563=AXIS2_PLACEMENT_3D('',#1564,#1565,#1566);
#1564=CARTESIAN_POINT('',(-50.,-25.,12.));
#1565=DIRECTION('',(0.,0.,1.));
#1566=DIRECTION('',(-0.405797101449244,0.913963189879872,0.));
#1567=CARTESIAN_POINT('',(-51.4,-9.71859409315521,12.));
#1568=CARTESIAN_POINT('',(-51.4,-9.71859409315521,12.));
#1569=VECTOR('',#1570,1.);
#1570=DIRECTION('',(-1.17171683874416E-15,-1.,0.));
#1571=CARTESIAN_POINT('',(-48.6,-9.71859409315521,12.));
#1572=VECTOR('',#1573,1.);
#1573=DIRECTION('',(-1.,1.26882631385733E-15,0.));
#1574=CARTESIAN_POINT('',(7.32747196252603E-15,-50.,10.5));
#1575=CARTESIAN_POINT('',(7.77156117237609E-15,-50.,11.3786796564404));
#1576=CARTESIAN_POINT('',(-0.621320343559638,-49.3786796564404,12.));
#1577=CARTESIAN_POINT('',(-1.5,-48.5,12.));
#1578=CARTESIAN_POINT('',(-60.,-50.,10.5));
#1579=VECTOR('',#1580,1.);
#1580=DIRECTION('',(1.,-1.1842378929335E-16,0.));
#1581=CARTESIAN_POINT('',(-1.5,-17.1185940931552,4.25));
#1582=AXIS2_PLACEMENT_3D('',#1583,#1584,#1585);
#1583=CARTESIAN_POINT('',(-1.5,-17.1185940931552,6.));
#1584=DIRECTION('',(-1.,-2.368475785867E-15,0.));
#1585=DIRECTION('',(0.,0.,-1.));
#1586=CARTESIAN_POINT('',(-42.5,-25.,1.5));
#1587=AXIS2_PLACEMENT_3D('',#1588,#1589,#1590);
#1588=CARTESIAN_POINT('',(-30.,-25.,1.5));
#1589=DIRECTION('',(0.,0.,1.));
#1590=DIRECTION('',(-1.,0.,0.));
#1591=CARTESIAN_POINT('',(-9.00000000000002,-22.1185940931552,11.6));
#1592=CARTESIAN_POINT('',(-11.,-22.1185940931552,11.6));
#1593=AXIS2_PLACEMENT_3D('',#1594,#1595,#1596);
#1594=CARTESIAN_POINT('',(-10.,-25.,11.6));
#1595=DIRECTION('',(0.,0.,1.));
#1596=DIRECTION('',(-0.327868852459013,0.944723248145831,0.));
#1597=CARTESIAN_POINT('',(-9.00000000000002,-22.1185940931552,0.));
#1598=VECTOR('',#1599,1.);
#1599=DIRECTION('',(0.,0.,1.));
#1600=CARTESIAN_POINT('',(-11.,-22.1185940931552,0.));
#1601=VECTOR('',#1602,1.);
#1602=DIRECTION('',(0.,0.,1.));
#1603=CARTESIAN_POINT('',(-9.00000000000002,-10.1185940931552,11.6));
#1604=CARTESIAN_POINT('',(-9.00000000000002,-22.1185940931552,11.6));
#1605=VECTOR('',#1606,1.);
#1606=DIRECTION('',(1.48029736616688E-16,1.,-1.48029736616688E-16));
#1607=CARTESIAN_POINT('',(-9.00000000000002,-10.1185940931552,0.));
#1608=VECTOR('',#1609,1.);
#1609=DIRECTION('',(0.,0.,1.));
#1610=CARTESIAN_POINT('',(-9.00000000000003,-17.1185940931552,4.25));
#1611=AXIS2_PLACEMENT_3D('',#1612,#1613,#1614);
#1612=CARTESIAN_POINT('',(-9.00000000000002,-17.1185940931552,6.));
#1613=DIRECTION('',(-1.,1.48029736616688E-16,0.));
#1614=DIRECTION('',(0.,0.,-1.));
#1615=CARTESIAN_POINT('',(-11.,-10.1185940931552,11.6));
#1616=CARTESIAN_POINT('',(-9.00000000000001,-10.1185940931552,11.6));
#1617=VECTOR('',#1618,1.);
#1618=DIRECTION('',(-1.,-1.77635683940026E-15,0.));
#1619=CARTESIAN_POINT('',(-11.,-10.1185940931552,0.));
#1620=VECTOR('',#1621,1.);
#1621=DIRECTION('',(0.,0.,1.));
#1622=CARTESIAN_POINT('',(-11.,-10.1185940931552,11.6));
#1623=VECTOR('',#1624,1.);
#1624=DIRECTION('',(-1.48029736616688E-16,-1.,0.));
#1625=CARTESIAN_POINT('',(-11.,-17.1185940931552,4.25));
#1626=AXIS2_PLACEMENT_3D('',#1627,#1628,#1629);
#1627=CARTESIAN_POINT('',(-11.,-17.1185940931552,6.));
#1628=DIRECTION('',(-1.,1.48029736616688E-16,0.));
#1629=DIRECTION('',(0.,0.,-1.));
#1630=CARTESIAN_POINT('',(-49.,-22.1185940931552,11.6));
#1631=CARTESIAN_POINT('',(-51.,-22.1185940931552,11.6));
#1632=AXIS2_PLACEMENT_3D('',#1633,#1634,#1635);
#1633=CARTESIAN_POINT('',(-50.,-25.,11.6));
#1634=DIRECTION('',(0.,0.,1.));
#1635=DIRECTION('',(-0.327868852459021,0.944723248145829,0.));
#1636=CARTESIAN_POINT('',(-49.,-22.1185940931552,0.));
#1637=VECTOR('',#1638,1.);
#1638=DIRECTION('',(0.,0.,1.));
#1639=CARTESIAN_POINT('',(-51.,-22.1185940931552,0.));
#1640=VECTOR('',#1641,1.);
#1641=DIRECTION('',(0.,0.,1.));
#1642=CARTESIAN_POINT('',(-49.,-10.1185940931552,11.6));
#1643=CARTESIAN_POINT('',(-49.,-22.1185940931552,11.6));
#1644=VECTOR('',#1645,1.);
#1645=DIRECTION('',(0.,1.,-2.96059473233375E-16));
#1646=CARTESIAN_POINT('',(-49.,-10.1185940931552,0.));
#1647=VECTOR('',#1648,1.);
#1648=DIRECTION('',(0.,0.,1.));
#1649=CARTESIAN_POINT('',(-49.,-17.1185940931553,4.25));
#1650=AXIS2_PLACEMENT_3D('',#1651,#1652,#1653);
#1651=CARTESIAN_POINT('',(-49.,-17.1185940931553,6.));
#1652=DIRECTION('',(-1.,0.,0.));
#1653=DIRECTION('',(0.,0.,-1.));
#1654=CARTESIAN_POINT('',(-51.,-10.1185940931552,11.6));
#1655=CARTESIAN_POINT('',(-49.,-10.1185940931552,11.6));
#1656=VECTOR('',#1657,1.);
#1657=DIRECTION('',(-1.,0.,-8.88178419700125E-16));
#1658=CARTESIAN_POINT('',(-51.,-10.1185940931552,0.));
#1659=VECTOR('',#1660,1.);
#1660=DIRECTION('',(0.,0.,1.));
#1661=CARTESIAN_POINT('',(-51.,-10.1185940931552,11.6));
#1662=VECTOR('',#1663,1.);
#1663=DIRECTION('',(0.,-1.,-1.48029736616688E-16));
#1664=CARTESIAN_POINT('',(-51.,-17.1185940931553,4.25));
#1665=AXIS2_PLACEMENT_3D('',#1666,#1667,#1668);
#1666=CARTESIAN_POINT('',(-51.,-17.1185940931553,6.));
#1667=DIRECTION('',(-1.,0.,0.));
#1668=DIRECTION('',(0.,0.,-1.));
#1669=CARTESIAN_POINT('',(-16.1,-9.5,10.5));
#1670=AXIS2_PLACEMENT_3D('',#1671,#1672,#1673);
#1671=CARTESIAN_POINT('',(-14.5,-9.5,10.5));
#1672=DIRECTION('',(0.,0.,1.));
#1673=DIRECTION('',(-1.,0.,0.));
#1674=CARTESIAN_POINT('',(-47.1,-9.49999999999998,10.5));
#1675=AXIS2_PLACEMENT_3D('',#1676,#1677,#1678);
#1676=CARTESIAN_POINT('',(-45.5,-9.49999999999998,10.5));
#1677=DIRECTION('',(0.,0.,1.));
#1678=DIRECTION('',(-1.,0.,0.));
#1679=CARTESIAN_POINT('',(-16.1,-40.5,10.5));
#1680=AXIS2_PLACEMENT_3D('',#1681,#1682,#1683);
#1681=CARTESIAN_POINT('',(-14.5,-40.5,10.5));
#1682=DIRECTION('',(0.,0.,1.));
#1683=DIRECTION('',(-1.,0.,0.));
#1684=CARTESIAN_POINT('',(-47.1,-40.5,10.5));
#1685=AXIS2_PLACEMENT_3D('',#1686,#1687,#1688);
#1686=CARTESIAN_POINT('',(-45.5,-40.5,10.5));
#1687=DIRECTION('',(0.,0.,1.));
#1688=DIRECTION('',(-1.,0.,0.));
#1689=CARTESIAN_POINT('',(-1.8,-3.99999999999999,7.));
#1690=AXIS2_PLACEMENT_3D('',#1691,#1692,#1693);
#1691=CARTESIAN_POINT('',(-4.,-3.99999999999999,7.));
#1692=DIRECTION('',(0.,0.,-1.));
#1693=DIRECTION('',(1.,1.22464679914735E-16,0.));
#1694=CARTESIAN_POINT('',(-1.79999999999999,-46.,7.));
#1695=AXIS2_PLACEMENT_3D('',#1696,#1697,#1698);
#1696=CARTESIAN_POINT('',(-3.99999999999999,-46.,7.));
#1697=DIRECTION('',(0.,0.,-1.));
#1698=DIRECTION('',(1.,1.22464679914735E-16,0.));
#1699=CARTESIAN_POINT('',(-53.8,-3.99999999999999,7.));
#1700=AXIS2_PLACEMENT_3D('',#1701,#1702,#1703);
#1701=CARTESIAN_POINT('',(-56.,-3.99999999999999,7.));
#1702=DIRECTION('',(0.,0.,-1.));
#1703=DIRECTION('',(1.,1.22464679914735E-16,0.));
#1704=CARTESIAN_POINT('',(-53.8,-46.,7.));
#1705=AXIS2_PLACEMENT_3D('',#1706,#1707,#1708);
#1706=CARTESIAN_POINT('',(-56.,-46.,7.));
#1707=DIRECTION('',(0.,0.,-1.));
#1708=DIRECTION('',(1.,1.22464679914735E-16,0.));
#1709=CARTESIAN_POINT('',(-58.5,-17.1185940931553,4.25));
#1710=AXIS2_PLACEMENT_3D('',#1711,#1712,#1713);
#1711=CARTESIAN_POINT('',(-58.5,-17.1185940931553,6.));
#1712=DIRECTION('',(-1.,-2.368475785867E-15,0.));
#1713=DIRECTION('',(0.,0.,-1.));
#1714=CARTESIAN_POINT('',(-8.60000000000002,-9.71859409315523,12.));
#1715=CARTESIAN_POINT('',(-8.83431457505078,-9.95290866820599,12.));
#1716=CARTESIAN_POINT('',(-9.00000000000001,-10.1185940931552,11.8343145750508));
#1717=CARTESIAN_POINT('',(-9.00000000000001,-10.1185940931552,11.6));
#1718=CARTESIAN_POINT('',(-8.60000000000007,-21.8468269949143,12.));
#1719=CARTESIAN_POINT('',(-8.61635297709265,-21.8574573997589,12.0000013073575));
#1720=CARTESIAN_POINT('',(-8.64909236998882,-21.8788525397403,11.9979908920561));
#1721=CARTESIAN_POINT('',(-8.69767203223993,-21.910924787948,11.9889460206136));
#1722=CARTESIAN_POINT('',(-8.7497881201158,-21.9456911009502,11.9723805386405));
#1723=CARTESIAN_POINT('',(-8.80711425849684,-21.984388698249,11.9446432855053));
#1724=CARTESIAN_POINT('',(-8.8687223035232,-22.026560825002,11.9000235652772));
#1725=CARTESIAN_POINT('',(-8.92345556891332,-22.0645745608263,11.8401987189376));
#1726=CARTESIAN_POINT('',(-8.96372557745097,-22.0928735785572,11.7719504746605));
#1727=CARTESIAN_POINT('',(-8.98720710705174,-22.1095001011785,11.706907844634));
#1728=CARTESIAN_POINT('',(-8.99799304110175,-22.1171650435281,11.6498587235779));
#1729=CARTESIAN_POINT('',(-9.00002038299655,-22.1186099116316,11.6154103915009));
#1730=CARTESIAN_POINT('',(-9.00000000000002,-22.1185940931552,11.6));
#1731=CARTESIAN_POINT('',(-11.4,-21.8468269949143,12.));
#1732=CARTESIAN_POINT('',(-11.3836470229074,-21.8574573997589,12.0000013073575));
#1733=CARTESIAN_POINT('',(-11.3509076300112,-21.8788525397403,11.9979908920561));
#1734=CARTESIAN_POINT('',(-11.3023279677601,-21.910924787948,11.9889460206136));
#1735=CARTESIAN_POINT('',(-11.2502118798842,-21.9456911009502,11.9723805386405));
#1736=CARTESIAN_POINT('',(-11.1928857415032,-21.984388698249,11.9446432855053));
#1737=CARTESIAN_POINT('',(-11.1312776964768,-22.026560825002,11.9000235652772));
#1738=CARTESIAN_POINT('',(-11.0765444310867,-22.0645745608263,11.8401987189376));
#1739=CARTESIAN_POINT('',(-11.0362744225491,-22.0928735785572,11.7719504746605));
#1740=CARTESIAN_POINT('',(-11.0127928929483,-22.1095001011785,11.706907844634));
#1741=CARTESIAN_POINT('',(-11.0020069588983,-22.1171650435281,11.6498587235779));
#1742=CARTESIAN_POINT('',(-10.9999796170035,-22.1186099116316,11.6154103915009));
#1743=CARTESIAN_POINT('',(-11.,-22.1185940931552,11.6));
#1744=CARTESIAN_POINT('',(-11.4,-9.71859409315523,12.));
#1745=CARTESIAN_POINT('',(-11.1656854249492,-9.95290866820599,12.));
#1746=CARTESIAN_POINT('',(-11.,-10.1185940931552,11.8343145750508));
#1747=CARTESIAN_POINT('',(-11.,-10.1185940931552,11.6));
#1748=CARTESIAN_POINT('',(-13.,-20.1185940931552,3.2));
#1749=CARTESIAN_POINT('',(-13.,-20.1185940931552,3.2));
#1750=VECTOR('',#1751,1.);
#1751=DIRECTION('',(0.,0.,1.));
#1752=CARTESIAN_POINT('',(-15.,-20.1185940931552,3.2));
#1753=CARTESIAN_POINT('',(-15.,-20.1185940931552,3.2));
#1754=VECTOR('',#1755,1.);
#1755=DIRECTION('',(1.,0.,0.));
#1756=CARTESIAN_POINT('',(-15.,-20.1185940931552,3.2));
#1757=VECTOR('',#1758,1.);
#1758=DIRECTION('',(0.,0.,1.));
#1759=CARTESIAN_POINT('',(-15.,-14.1185940931552,3.2));
#1760=CARTESIAN_POINT('',(-15.,-14.1185940931552,3.2));
#1761=VECTOR('',#1762,1.);
#1762=DIRECTION('',(5.92118946466751E-15,-1.,0.));
#1763=CARTESIAN_POINT('',(-15.,-14.1185940931552,3.2));
#1764=VECTOR('',#1765,1.);
#1765=DIRECTION('',(0.,0.,1.));
#1766=CARTESIAN_POINT('',(-15.,-17.1185940931552,4.25));
#1767=AXIS2_PLACEMENT_3D('',#1768,#1769,#1770);
#1768=CARTESIAN_POINT('',(-15.,-17.1185940931552,6.));
#1769=DIRECTION('',(-1.,-5.92118946466751E-15,0.));
#1770=DIRECTION('',(0.,0.,-1.));
#1771=CARTESIAN_POINT('',(-13.,-14.1185940931552,3.2));
#1772=CARTESIAN_POINT('',(-13.,-14.1185940931552,3.2));
#1773=VECTOR('',#1774,1.);
#1774=DIRECTION('',(-1.,-1.77635683940023E-15,0.));
#1775=CARTESIAN_POINT('',(-13.,-14.1185940931552,3.2));
#1776=VECTOR('',#1777,1.);
#1777=DIRECTION('',(0.,0.,1.));
#1778=CARTESIAN_POINT('',(-13.,-20.1185940931552,3.2));
#1779=VECTOR('',#1780,1.);
#1780=DIRECTION('',(-2.368475785867E-15,1.,0.));
#1781=CARTESIAN_POINT('',(-13.,-17.1185940931552,4.25));
#1782=AXIS2_PLACEMENT_3D('',#1783,#1784,#1785);
#1783=CARTESIAN_POINT('',(-13.,-17.1185940931552,6.));
#1784=DIRECTION('',(-1.,-2.368475785867E-15,0.));
#1785=DIRECTION('',(0.,0.,-1.));
#1786=CARTESIAN_POINT('',(-45.,-20.1185940931552,3.2));
#1787=CARTESIAN_POINT('',(-45.,-20.1185940931552,3.2));
#1788=VECTOR('',#1789,1.);
#1789=DIRECTION('',(0.,0.,1.));
#1790=CARTESIAN_POINT('',(-47.,-20.1185940931552,3.2));
#1791=CARTESIAN_POINT('',(-47.,-20.1185940931552,3.2));
#1792=VECTOR('',#1793,1.);
#1793=DIRECTION('',(1.,0.,0.));
#1794=CARTESIAN_POINT('',(-47.,-20.1185940931552,3.2));
#1795=VECTOR('',#1796,1.);
#1796=DIRECTION('',(0.,0.,1.));
#1797=CARTESIAN_POINT('',(-47.,-14.1185940931552,3.2));
#1798=CARTESIAN_POINT('',(-47.,-14.1185940931552,3.2));
#1799=VECTOR('',#1800,1.);
#1800=DIRECTION('',(0.,-1.,0.));
#1801=CARTESIAN_POINT('',(-47.,-14.1185940931552,3.2));
#1802=VECTOR('',#1803,1.);
#1803=DIRECTION('',(0.,0.,1.));
#1804=CARTESIAN_POINT('',(-47.,-17.1185940931553,4.25));
#1805=AXIS2_PLACEMENT_3D('',#1806,#1807,#1808);
#1806=CARTESIAN_POINT('',(-47.,-17.1185940931553,6.));
#1807=DIRECTION('',(-1.,0.,0.));
#1808=DIRECTION('',(0.,0.,-1.));
#1809=CARTESIAN_POINT('',(-45.,-14.1185940931552,3.2));
#1810=CARTESIAN_POINT('',(-45.,-14.1185940931552,3.2));
#1811=VECTOR('',#1812,1.);
#1812=DIRECTION('',(-1.,0.,0.));
#1813=CARTESIAN_POINT('',(-45.,-14.1185940931552,3.2));
#1814=VECTOR('',#1815,1.);
#1815=DIRECTION('',(0.,0.,1.));
#1816=CARTESIAN_POINT('',(-45.,-20.1185940931552,3.2));
#1817=VECTOR('',#1818,1.);
#1818=DIRECTION('',(0.,1.,0.));
#1819=CARTESIAN_POINT('',(-45.,-17.1185940931553,4.25));
#1820=AXIS2_PLACEMENT_3D('',#1821,#1822,#1823);
#1821=CARTESIAN_POINT('',(-45.,-17.1185940931553,6.));
#1822=DIRECTION('',(-1.,0.,0.));
#1823=DIRECTION('',(0.,0.,-1.));
#1824=CARTESIAN_POINT('',(-42.5,-25.,10.5));
#1825=AXIS2_PLACEMENT_3D('',#1826,#1827,#1828);
#1826=CARTESIAN_POINT('',(-30.,-25.,10.5));
#1827=DIRECTION('',(0.,0.,1.));
#1828=DIRECTION('',(-1.,0.,0.));
#1829=CARTESIAN_POINT('',(-48.6,-9.71859409315521,12.));
#1830=CARTESIAN_POINT('',(-48.8343145750508,-9.95290866820598,12.));
#1831=CARTESIAN_POINT('',(-49.,-10.1185940931552,11.8343145750508));
#1832=CARTESIAN_POINT('',(-49.,-10.1185940931552,11.6));
#1833=CARTESIAN_POINT('',(-48.6,-21.8468269949143,12.));
#1834=CARTESIAN_POINT('',(-48.6163529770926,-21.8574573997589,12.0000013073575));
#1835=CARTESIAN_POINT('',(-48.6490923699888,-21.8788525397402,11.9979908920561));
#1836=CARTESIAN_POINT('',(-48.6976720322399,-21.910924787948,11.9889460206136));
#1837=CARTESIAN_POINT('',(-48.7497881201158,-21.9456911009502,11.9723805386405));
#1838=CARTESIAN_POINT('',(-48.8071142584968,-21.984388698249,11.9446432855053));
#1839=CARTESIAN_POINT('',(-48.8687223035232,-22.026560825002,11.9000235652772));
#1840=CARTESIAN_POINT('',(-48.9234555689133,-22.0645745608263,11.8401987189376));
#1841=CARTESIAN_POINT('',(-48.9637255774509,-22.0928735785572,11.7719504746605));
#1842=CARTESIAN_POINT('',(-48.9872071070517,-22.1095001011785,11.706907844634));
#1843=CARTESIAN_POINT('',(-48.9979930411017,-22.1171650435281,11.6498587235779));
#1844=CARTESIAN_POINT('',(-49.0000203829965,-22.1186099116316,11.6154103915009));
#1845=CARTESIAN_POINT('',(-49.,-22.1185940931552,11.6));
#1846=CARTESIAN_POINT('',(-51.3999999999999,-21.8468269949143,12.));
#1847=CARTESIAN_POINT('',(-51.3836470229074,-21.8574573997589,12.0000013073575));
#1848=CARTESIAN_POINT('',(-51.3509076300112,-21.8788525397402,11.9979908920561));
#1849=CARTESIAN_POINT('',(-51.3023279677601,-21.910924787948,11.9889460206136));
#1850=CARTESIAN_POINT('',(-51.2502118798842,-21.9456911009502,11.9723805386405));
#1851=CARTESIAN_POINT('',(-51.1928857415032,-21.984388698249,11.9446432855053));
#1852=CARTESIAN_POINT('',(-51.1312776964768,-22.026560825002,11.9000235652772));
#1853=CARTESIAN_POINT('',(-51.0765444310867,-22.0645745608263,11.8401987189376));
#1854=CARTESIAN_POINT('',(-51.0362744225491,-22.0928735785572,11.7719504746605));
#1855=CARTESIAN_POINT('',(-51.0127928929483,-22.1095001011785,11.706907844634));
#1856=CARTESIAN_POINT('',(-51.0020069588983,-22.1171650435281,11.6498587235779));
#1857=CARTESIAN_POINT('',(-50.9999796170035,-22.1186099116316,11.6154103915009));
#1858=CARTESIAN_POINT('',(-51.,-22.1185940931552,11.6));
#1859=CARTESIAN_POINT('',(-51.4,-9.71859409315521,12.));
#1860=CARTESIAN_POINT('',(-51.1656854249492,-9.95290866820597,12.));
#1861=CARTESIAN_POINT('',(-51.,-10.1185940931552,11.8343145750508));
#1862=CARTESIAN_POINT('',(-51.,-10.1185940931552,11.6));
#1863=CARTESIAN_POINT('',(-20.2977610311059,-17.1185940931552,4.25));
#1864=CARTESIAN_POINT('',(-20.2977610315155,-17.1185940951247,4.25));
#1865=CARTESIAN_POINT('',(-20.3468496890509,-17.058163347852,4.25000022425615));
#1866=CARTESIAN_POINT('',(-20.4468270580612,-16.9374175191124,4.25629848934506));
#1867=CARTESIAN_POINT('',(-20.6003025995219,-16.758991558362,4.28416126713393));
#1868=CARTESIAN_POINT('',(-20.7559563659014,-16.5847971817066,4.33015536029003));
#1869=CARTESIAN_POINT('',(-20.9106231308051,-16.4180544611592,4.39309249518573));
#1870=CARTESIAN_POINT('',(-21.0614195169542,-16.2611939238754,4.47114364045444));
#1871=CARTESIAN_POINT('',(-21.2082605773636,-16.1135429612359,4.56385481379857));
#1872=CARTESIAN_POINT('',(-21.3502084113869,-15.975391843182,4.67111252034198));
#1873=CARTESIAN_POINT('',(-21.4852207206307,-15.8480010341617,4.79235725865929));
#1874=CARTESIAN_POINT('',(-21.6095215987784,-15.7340238294717,4.92501769862121));
#1875=CARTESIAN_POINT('',(-21.7217084125615,-15.6337593903856,5.06835917096319));
#1876=CARTESIAN_POINT('',(-21.818460703904,-15.5492343749023,5.21925651935725));
#1877=CARTESIAN_POINT('',(-21.8974273288195,-15.4815430413954,5.37418376542813));
#1878=CARTESIAN_POINT('',(-21.9563233426573,-15.4317916553046,5.5255255503837));
#1879=CARTESIAN_POINT('',(-21.9972460240525,-15.3975784588787,5.67203531019029));
#1880=CARTESIAN_POINT('',(-22.021978193694,-15.3770420012306,5.81090512040724));
#1881=CARTESIAN_POINT('',(-22.0310385250214,-15.3695454930056,5.9202908423985));
#1882=CARTESIAN_POINT('',(-22.032628014184,-15.3682304690346,6.00560748324889));
#1883=CARTESIAN_POINT('',(-22.0303497454392,-15.3701152761986,6.09883434210656));
#1884=CARTESIAN_POINT('',(-22.01607750732,-15.3819269455062,6.23761197102019));
#1885=CARTESIAN_POINT('',(-21.9765139034275,-15.4148412813433,6.41466965996645));
#1886=CARTESIAN_POINT('',(-21.9142100118158,-15.4672716180678,6.58825404157121));
#1887=CARTESIAN_POINT('',(-21.8399816169424,-15.5307127652328,6.74085031239059));
#1888=CARTESIAN_POINT('',(-21.7590826984908,-15.6009888100786,6.87556887363475));
#1889=CARTESIAN_POINT('',(-21.6668230556313,-15.6825879252435,7.00427945745416));
#1890=CARTESIAN_POINT('',(-21.5601326916373,-15.7790125576236,7.12993516939395));
#1891=CARTESIAN_POINT('',(-21.4406483542787,-15.8897219703136,7.24951728449274));
#1892=CARTESIAN_POINT('',(-21.3121546241687,-16.0120780302109,7.35914172559012));
#1893=CARTESIAN_POINT('',(-21.1733092569905,-16.1482693442731,7.45971393567296));
#1894=CARTESIAN_POINT('',(-21.0242179647229,-16.2993158735131,7.54990622984984));
#1895=CARTESIAN_POINT('',(-20.8634508006849,-16.4681127082321,7.62835098454156));
#1896=CARTESIAN_POINT('',(-20.695356987298,-16.6516104285881,7.69041804379073));
#1897=CARTESIAN_POINT('',(-20.5224393466172,-16.8483496879293,7.73300464014853));
#1898=CARTESIAN_POINT('',(-20.3900477374541,-17.0056092453886,7.74830932902396));
#1899=CARTESIAN_POINT('',(-20.2743310014224,-17.1470966594887,7.75092379008867));
#1900=CARTESIAN_POINT('',(-20.1605675717584,-17.2893844390521,7.74484725195981));
#1901=CARTESIAN_POINT('',(-20.014971223405,-17.4785804083533,7.71695035455971));
#1902=CARTESIAN_POINT('',(-19.8656809520304,-17.6811763521228,7.66143287989216));
#1903=CARTESIAN_POINT('',(-19.7287930527356,-17.8747053012512,7.58280710804116));
#1904=CARTESIAN_POINT('',(-19.6041109694254,-18.0580373488752,7.48149642911712));
#1905=CARTESIAN_POINT('',(-19.4922643761433,-18.2287427496143,7.35821496444439));
#1906=CARTESIAN_POINT('',(-19.3961687607107,-18.380484945044,7.21818828060447));
#1907=CARTESIAN_POINT('',(-19.3156464806509,-18.5114646885917,7.06552617986394));
#1908=CARTESIAN_POINT('',(-19.2508245297229,-18.6196035067687,6.90630277283681));
#1909=CARTESIAN_POINT('',(-19.199888328968,-18.7063426285223,6.74313677394302));
#1910=CARTESIAN_POINT('',(-19.1616613856865,-18.7724951013369,6.58048439776075));
#1911=CARTESIAN_POINT('',(-19.1339525570019,-18.8210275194431,6.41669890810724));
#1912=CARTESIAN_POINT('',(-19.1159550683128,-18.8528222983373,6.2531922109833));
#1913=CARTESIAN_POINT('',(-19.1082725312171,-18.8664626849693,6.11356531079564));
#1914=CARTESIAN_POINT('',(-19.1067456434319,-18.8691754280573,6.0067193038642));
#1915=CARTESIAN_POINT('',(-19.1078664720042,-18.8671842299139,5.9052639750297));
#1916=CARTESIAN_POINT('',(-19.1133051498053,-18.8575246585509,5.78662225614477));
#1917=CARTESIAN_POINT('',(-19.1273770162451,-18.8326272351461,5.63569151538759));
#1918=CARTESIAN_POINT('',(-19.1526722350011,-18.7881637349171,5.46342755054833));
#1919=CARTESIAN_POINT('',(-19.1954084784859,-18.7139313204957,5.26894372192556));
#1920=CARTESIAN_POINT('',(-19.2565587717461,-18.6098072810249,5.07549544046236));
#1921=CARTESIAN_POINT('',(-19.3276051674593,-18.4918118708653,4.90967742710053));
#1922=CARTESIAN_POINT('',(-19.4038605132774,-18.3683444981612,4.77080309735149));
#1923=CARTESIAN_POINT('',(-19.4875142725856,-18.2363582206591,4.64939878133223));
#1924=CARTESIAN_POINT('',(-19.5836817004788,-18.089002908026,4.53972965183287));
#1925=CARTESIAN_POINT('',(-19.6916217642258,-17.9288842682142,4.44518555657273));
#1926=CARTESIAN_POINT('',(-19.8080115228741,-17.7620664219994,4.36923061228416));
#1927=CARTESIAN_POINT('',(-19.9412330160097,-17.5777252363351,4.30737310880801));
#1928=CARTESIAN_POINT('',(-20.1032840671709,-17.3622532683269,4.26147227193777));
#1929=CARTESIAN_POINT('',(-20.2280707849012,-17.2043864938573,4.24999968162774));
#1930=CARTESIAN_POINT('',(-20.2977610315155,-17.1185940951247,4.25));
#1931=CARTESIAN_POINT('',(-39.7022389648758,-17.1185940931553,4.25));
#1932=CARTESIAN_POINT('',(-39.7022389648679,-17.1185940931504,4.25));
#1933=CARTESIAN_POINT('',(-39.7607848454935,-17.1906667596027,4.25000088124013));
#1934=CARTESIAN_POINT('',(-39.8752655771103,-17.3348595670829,4.25882503764884));
#1935=CARTESIAN_POINT('',(-40.0389413470038,-17.5506204815759,4.29940510550235));
#1936=CARTESIAN_POINT('',(-40.1901361088137,-17.7590141667841,4.36651530772607));
#1937=CARTESIAN_POINT('',(-40.3269479939529,-17.9557427268053,4.45822443566725));
#1938=CARTESIAN_POINT('',(-40.4469578357665,-18.1352415490084,4.57047555951504));
#1939=CARTESIAN_POINT('',(-40.5508763073065,-18.2963021514456,4.70029525318403));
#1940=CARTESIAN_POINT('',(-40.6385653140689,-18.4365633867862,4.84307215787983));
#1941=CARTESIAN_POINT('',(-40.7120611766307,-18.5573875207674,4.99759853687117));
#1942=CARTESIAN_POINT('',(-40.7716287929414,-18.6576309443093,5.15989582047142));
#1943=CARTESIAN_POINT('',(-40.8184691784998,-18.7379810715732,5.32823973940757));
#1944=CARTESIAN_POINT('',(-40.853194743475,-18.7984450155888,5.49877254491734));
#1945=CARTESIAN_POINT('',(-40.8771075264561,-18.8405366059138,5.67172687032747));
#1946=CARTESIAN_POINT('',(-40.8902153238149,-18.8637732263433,5.83894645545925));
#1947=CARTESIAN_POINT('',(-40.8930288124263,-18.868774731983,5.95305390570854));
#1948=CARTESIAN_POINT('',(-40.8928161122125,-18.8683968635692,6.05989973497722));
#1949=CARTESIAN_POINT('',(-40.8898365723823,-18.8631003141949,6.16289405364275));
#1950=CARTESIAN_POINT('',(-40.8787251860508,-18.8434102172599,6.3066632133153));
#1951=CARTESIAN_POINT('',(-40.8602359929188,-18.8108204432134,6.45512903765117));
#1952=CARTESIAN_POINT('',(-40.8317015137263,-18.760934445535,6.61308334540887));
#1953=CARTESIAN_POINT('',(-40.7898685448854,-18.6887624130903,6.78003159966744));
#1954=CARTESIAN_POINT('',(-40.7383701476303,-18.6014506096,6.93482392586888));
#1955=CARTESIAN_POINT('',(-40.6780958689072,-18.5013033138347,7.07700427627847));
#1956=CARTESIAN_POINT('',(-40.6089505974596,-18.3888738517799,7.20802588537922));
#1957=CARTESIAN_POINT('',(-40.5268235120571,-18.2586995378317,7.33188371707623));
#1958=CARTESIAN_POINT('',(-40.4303546963271,-18.1101996663546,7.44609365452925));
#1959=CARTESIAN_POINT('',(-40.3202318743705,-17.946111806996,7.54611046457028));
#1960=CARTESIAN_POINT('',(-40.1944927605366,-17.7653641099695,7.63027254584609));
#1961=CARTESIAN_POINT('',(-40.0542423540707,-17.5714769830084,7.69462694511565));
#1962=CARTESIAN_POINT('',(-39.8994411468476,-17.3662415857607,7.73666301266922));
#1963=CARTESIAN_POINT('',(-39.7798977318827,-17.2145302008451,7.74908795748323));
#1964=CARTESIAN_POINT('',(-39.6654589731802,-17.0730809222044,7.75064015009915));
#1965=CARTESIAN_POINT('',(-39.5491140414223,-16.9324668951282,7.74357159166507));
#1966=CARTESIAN_POINT('',(-39.3835611028643,-16.7403063784517,7.71271901029394));
#1967=CARTESIAN_POINT('',(-39.2105533889078,-16.5479671869799,7.65822662839505));
#1968=CARTESIAN_POINT('',(-39.0443134478771,-16.3704834421934,7.58569982549759));
#1969=CARTESIAN_POINT('',(-38.8878394148048,-16.2095616097639,7.49895811369792));
#1970=CARTESIAN_POINT('',(-38.7394022335806,-16.0620847761712,7.39879024513269));
#1971=CARTESIAN_POINT('',(-38.5995908887025,-15.9275841747589,7.28618328585465));
#1972=CARTESIAN_POINT('',(-38.4684736657091,-15.805181966111,7.16086821343294));
#1973=CARTESIAN_POINT('',(-38.3492604939323,-15.6969100833593,7.02532354729175));
#1974=CARTESIAN_POINT('',(-38.2432709513343,-15.6029695343914,6.8804594599869));
#1975=CARTESIAN_POINT('',(-38.1536722521995,-15.5252219997256,6.73012682900098));
#1976=CARTESIAN_POINT('',(-38.0817208797891,-15.4638588231031,6.57705143643348));
#1977=CARTESIAN_POINT('',(-38.0285101325436,-15.4190759366453,6.42657708787343));
#1978=CARTESIAN_POINT('',(-37.992228895027,-15.3888241856187,6.27856746995468));
#1979=CARTESIAN_POINT('',(-37.9720673324252,-15.3721126997229,6.13706015464901));
#1980=CARTESIAN_POINT('',(-37.9677350194099,-15.3685308168541,6.04230277421838));
#1981=CARTESIAN_POINT('',(-37.9678901983676,-15.368659190426,5.95306602812367));
#1982=CARTESIAN_POINT('',(-37.9727418006925,-15.372670763301,5.85362091708707));
#1983=CARTESIAN_POINT('',(-37.9973885597145,-15.3931026708833,5.68988251392285));
#1984=CARTESIAN_POINT('',(-38.0486348494173,-15.4359002215302,5.50542182870746));
#1985=CARTESIAN_POINT('',(-38.1247311421672,-15.5003697635388,5.32508435770731));
#1986=CARTESIAN_POINT('',(-38.2127575088445,-15.5763469835847,5.1677391311886));
#1987=CARTESIAN_POINT('',(-38.30684002444,-15.6591252215498,5.03021825724409));
#1988=CARTESIAN_POINT('',(-38.4109338872043,-15.7526349696912,4.90208455129492));
#1989=CARTESIAN_POINT('',(-38.5274025423521,-15.8598290413947,4.780596827302));
#1990=CARTESIAN_POINT('',(-38.6544968402335,-15.9799893712897,4.667659174205));
#1991=CARTESIAN_POINT('',(-38.7904658687311,-16.1123215480374,4.56487048993785));
#1992=CARTESIAN_POINT('',(-38.9519974375733,-16.274606190502,4.46240782511649));
#1993=CARTESIAN_POINT('',(-39.1370909330563,-16.4680941030825,4.36973180668596));
#1994=CARTESIAN_POINT('',(-39.3421781061138,-16.693041467333,4.29698944288243));
#1995=CARTESIAN_POINT('',(-39.5314344880536,-16.9112434017483,4.25788856794369));
#1996=CARTESIAN_POINT('',(-39.6506675831954,-17.0551073550564,4.24999922374092));
#1997=CARTESIAN_POINT('',(-39.7022389648679,-17.1185940931504,4.25));
ENDSEC;
END-ISO-10303-21;
