ISO-10303-21;
HEADER;
FILE_DESCRIPTION(('STEP AP242'),
    '1');
FILE_NAME('MagneticSyringeHolder',
    '',
    ('UNSPECIFIED'),
    ('UNSPECIFIED'),
    'C3D Converter',
    'C3D Toolkit',
    '');
FILE_SCHEMA(('AP242_MANAGED_MODEL_BASED_3D_ENGINEERING_MIM_LF { 1 0 10303 442 1 1 4 }'));
ENDSEC;

DATA;
#1=PRODUCT_DEFINITION('','UNSPECIFIED',#28,#31);
#2=SHAPE_DEFINITION_REPRESENTATION(#26,#3);
#3=SHAPE_REPRESENTATION('NONE',(#4),#8);
#4=AXIS2_PLACEMENT_3D('',#5,#6,#7);
#5=CARTESIAN_POINT('',(0.,0.,0.));
#6=DIRECTION('',(0.,0.,1.));
#7=DIRECTION('',(1.,0.,0.));
#8=(GEOMETRIC_REPRESENTATION_CONTEXT(3)GLOBAL_UNCERTAINTY_ASSIGNED_CONTEXT((#10))
GLOBAL_UNIT_ASSIGNED_CONTEXT((#9,#11,#12))REPRESENTATION_CONTEXT('NONE','NONE'));
#9=(LENGTH_UNIT()NAMED_UNIT(*)SI_UNIT(.MILLI.,.METRE.));
#10=UNCERTAINTY_MEASURE_WITH_UNIT(LENGTH_MEASURE(1.E-5),#9,'NONE','NONE');
#11=(NAMED_UNIT(*)PLANE_ANGLE_UNIT()SI_UNIT($,.RADIAN.));
#12=(NAMED_UNIT(*)SI_UNIT($,.STERADIAN.)SOLID_ANGLE_UNIT());
#13=MANIFOLD_SOLID_BREP('',#14);
#14=CLOSED_SHELL('',(#53,#54,#55,#56,#57,#58,#59,#60,#61,#62,#63,#64,#65,#66,#67,
#68,#69,#70,#71,#72,#73,#74,#75,#76,#77,#78,#79,#80,#81,#82,#83,#84,#85,#86,#87,
#88,#89,#90,#91,#92,#93,#94,#95,#96,#97,#98,#99,#100,#101,#102));
#15=COLOUR_RGB('',0.564705882352941,0.564705882352941,0.564705882352941);
#16=FILL_AREA_STYLE_COLOUR('',#15);
#17=FILL_AREA_STYLE($,(#16));
#18=SURFACE_STYLE_FILL_AREA(#17);
#19=SURFACE_SIDE_STYLE('',(#18));
#20=SURFACE_STYLE_USAGE(.BOTH.,#19);
#21=PRESENTATION_STYLE_ASSIGNMENT((#20));
#22=MECHANICAL_DESIGN_GEOMETRIC_PRESENTATION_REPRESENTATION('NONE',(#23),#8);
#23=STYLED_ITEM('',(#21),#13);
#24=ADVANCED_BREP_SHAPE_REPRESENTATION('NONE',(#13),#8);
#25=SHAPE_REPRESENTATION_RELATIONSHIP('','',#3,#24);
#26=PRODUCT_DEFINITION_SHAPE('NONE','NONE',#1);
#27=MECHANICAL_CONTEXT('NONE',#32,'mechanical');
#28=PRODUCT_DEFINITION_FORMATION_WITH_SPECIFIED_SOURCE('ANY','UNSPECIFIED',#29,.NOT_KNOWN.);
#29=PRODUCT('','\X2\0414043504420430043B044C\X0\','NONE',(#27));
#30=PRODUCT_RELATED_PRODUCT_CATEGORY('detail','',(#29));
#31=DESIGN_CONTEXT('detailed design',#32,'design');
#32=APPLICATION_CONTEXT('configuration controlled 3d designs of mechanical parts and assemblies');
#33=APPLICATION_PROTOCOL_DEFINITION('international standard','config_control_design',
1994,#32);
#34=CC_DESIGN_DATE_AND_TIME_ASSIGNMENT(#35,#39,(#1));
#35=DATE_AND_TIME(#36,#37);
#36=CALENDAR_DATE(0,1,1);
#37=LOCAL_TIME(0,0,0.,#38);
#38=COORDINATED_UNIVERSAL_TIME_OFFSET(0,0,.AHEAD.);
#39=DATE_TIME_ROLE('creation_date');
#40=CC_DESIGN_APPROVAL(#41,(#1));
#41=APPROVAL(#42,'UNSPECIFIED');
#42=APPROVAL_STATUS('not_yet_approved');
#43=APPROVAL_DATE_TIME(#44,#41);
#44=DATE_AND_TIME(#45,#46);
#45=CALENDAR_DATE(0,1,1);
#46=LOCAL_TIME(0,0,0.,#47);
#47=COORDINATED_UNIVERSAL_TIME_OFFSET(0,0,.AHEAD.);
#48=PERSON('UNSPECIFIED','Cybermeatball','UNSPECIFIED',('UNSPECIFIED'),('UNSPECIFIED'),
('UNSPECIFIED'));
#49=ORGANIZATION('UNSPECIFIED','UNSPECIFIED','UNSPECIFIED');
#50=PERSON_AND_ORGANIZATION(#48,#49);
#51=PERSON_AND_ORGANIZATION_ROLE('creator');
#52=CC_DESIGN_PERSON_AND_ORGANIZATION_ASSIGNMENT(#50,#51,(#28,#1));
#53=ADVANCED_FACE('',(#103,#105),#107,.F.);
#54=ADVANCED_FACE('',(#112,#114),#116,.F.);
#55=ADVANCED_FACE('',(#121,#123),#125,.T.);
#56=ADVANCED_FACE('',(#130,#132),#134,.T.);
#57=ADVANCED_FACE('',(#139,#141),#143,.F.);
#58=ADVANCED_FACE('',(#148,#150),#152,.T.);
#59=ADVANCED_FACE('',(#157,#159),#161,.F.);
#60=ADVANCED_FACE('',(#166,#168),#170,.T.);
#61=ADVANCED_FACE('',(#175,#177,#179,#181,#183),#185,.T.);
#62=ADVANCED_FACE('',(#190),#192,.F.);
#63=ADVANCED_FACE('',(#197,#199,#201),#203,.T.);
#64=ADVANCED_FACE('',(#208),#210,.T.);
#65=ADVANCED_FACE('',(#215,#217,#219),#221,.T.);
#66=ADVANCED_FACE('',(#226),#228,.F.);
#67=ADVANCED_FACE('',(#233),#235,.F.);
#68=ADVANCED_FACE('',(#240),#242,.T.);
#69=ADVANCED_FACE('',(#247),#249,.T.);
#70=ADVANCED_FACE('',(#254),#256,.T.);
#71=ADVANCED_FACE('',(#261),#263,.T.);
#72=ADVANCED_FACE('',(#268),#270,.T.);
#73=ADVANCED_FACE('',(#275,#277),#279,.F.);
#74=ADVANCED_FACE('',(#284,#286),#288,.F.);
#75=ADVANCED_FACE('',(#293),#295,.T.);
#76=ADVANCED_FACE('',(#300),#302,.T.);
#77=ADVANCED_FACE('',(#307),#309,.T.);
#78=ADVANCED_FACE('',(#314),#316,.T.);
#79=ADVANCED_FACE('',(#321),#323,.T.);
#80=ADVANCED_FACE('',(#328),#330,.T.);
#81=ADVANCED_FACE('',(#335,#337),#339,.F.);
#82=ADVANCED_FACE('',(#344,#346),#348,.F.);
#83=ADVANCED_FACE('',(#353),#355,.T.);
#84=ADVANCED_FACE('',(#360),#362,.T.);
#85=ADVANCED_FACE('',(#367),#369,.T.);
#86=ADVANCED_FACE('',(#374),#376,.T.);
#87=ADVANCED_FACE('',(#381),#383,.T.);
#88=ADVANCED_FACE('',(#388),#390,.T.);
#89=ADVANCED_FACE('',(#395),#397,.T.);
#90=ADVANCED_FACE('',(#402),#404,.T.);
#91=ADVANCED_FACE('',(#409),#411,.T.);
#92=ADVANCED_FACE('',(#416),#418,.T.);
#93=ADVANCED_FACE('',(#423),#425,.T.);
#94=ADVANCED_FACE('',(#430),#432,.T.);
#95=ADVANCED_FACE('',(#437),#439,.T.);
#96=ADVANCED_FACE('',(#444),#446,.T.);
#97=ADVANCED_FACE('',(#451),#453,.T.);
#98=ADVANCED_FACE('',(#458),#460,.T.);
#99=ADVANCED_FACE('',(#465),#467,.T.);
#100=ADVANCED_FACE('',(#472),#474,.T.);
#101=ADVANCED_FACE('',(#479,#481),#483,.F.);
#102=ADVANCED_FACE('',(#488,#490),#492,.F.);
#103=FACE_OUTER_BOUND('',#104,.T.);
#104=EDGE_LOOP('',(#497));
#105=FACE_OUTER_BOUND('',#106,.T.);
#106=EDGE_LOOP('',(#498));
#107=CYLINDRICAL_SURFACE('',#108,1.75);
#108=AXIS2_PLACEMENT_3D('',#109,#110,#111);
#109=CARTESIAN_POINT('',(10.,-3.,50.));
#110=DIRECTION('',(0.,1.,0.));
#111=DIRECTION('',(6.12323399573677E-17,0.,-1.));
#112=FACE_OUTER_BOUND('',#113,.T.);
#113=EDGE_LOOP('',(#499));
#114=FACE_OUTER_BOUND('',#115,.T.);
#115=EDGE_LOOP('',(#500));
#116=CYLINDRICAL_SURFACE('',#117,1.75);
#117=AXIS2_PLACEMENT_3D('',#118,#119,#120);
#118=CARTESIAN_POINT('',(10.,-3.,10.));
#119=DIRECTION('',(0.,1.,0.));
#120=DIRECTION('',(6.12323399573677E-17,0.,-1.));
#121=FACE_BOUND('',#122,.T.);
#122=EDGE_LOOP('',(#501,#502,#503,#504));
#123=FACE_BOUND('',#124,.T.);
#124=EDGE_LOOP('',(#505));
#125=PLANE('',#126);
#126=AXIS2_PLACEMENT_3D('',#127,#128,#129);
#127=CARTESIAN_POINT('',(20.,20.,0.));
#128=DIRECTION('',(0.,1.,0.));
#129=DIRECTION('',(-1.,0.,0.));
#130=FACE_BOUND('',#131,.T.);
#131=EDGE_LOOP('',(#506,#507,#508,#509));
#132=FACE_BOUND('',#133,.T.);
#133=EDGE_LOOP('',(#510));
#134=PLANE('',#135);
#135=AXIS2_PLACEMENT_3D('',#136,#137,#138);
#136=CARTESIAN_POINT('',(20.,20.,0.));
#137=DIRECTION('',(0.,1.,0.));
#138=DIRECTION('',(-1.,0.,0.));
#139=FACE_OUTER_BOUND('',#140,.T.);
#140=EDGE_LOOP('',(#511));
#141=FACE_OUTER_BOUND('',#142,.T.);
#142=EDGE_LOOP('',(#512));
#143=CYLINDRICAL_SURFACE('',#144,2.2);
#144=AXIS2_PLACEMENT_3D('',#145,#146,#147);
#145=CARTESIAN_POINT('',(10.,12.,10.));
#146=DIRECTION('',(0.,1.,0.));
#147=DIRECTION('',(6.12323399573677E-17,0.,-1.));
#148=FACE_BOUND('',#149,.T.);
#149=EDGE_LOOP('',(#513));
#150=FACE_BOUND('',#151,.T.);
#151=EDGE_LOOP('',(#514));
#152=PLANE('',#153);
#153=AXIS2_PLACEMENT_3D('',#154,#155,#156);
#154=CARTESIAN_POINT('',(0.,12.,0.));
#155=DIRECTION('',(0.,1.,0.));
#156=DIRECTION('',(6.12323399573677E-17,0.,-1.));
#157=FACE_OUTER_BOUND('',#158,.T.);
#158=EDGE_LOOP('',(#515));
#159=FACE_OUTER_BOUND('',#160,.T.);
#160=EDGE_LOOP('',(#516));
#161=CYLINDRICAL_SURFACE('',#162,2.2);
#162=AXIS2_PLACEMENT_3D('',#163,#164,#165);
#163=CARTESIAN_POINT('',(10.,12.,50.));
#164=DIRECTION('',(0.,1.,0.));
#165=DIRECTION('',(6.12323399573677E-17,0.,-1.));
#166=FACE_BOUND('',#167,.T.);
#167=EDGE_LOOP('',(#517));
#168=FACE_BOUND('',#169,.T.);
#169=EDGE_LOOP('',(#518));
#170=PLANE('',#171);
#171=AXIS2_PLACEMENT_3D('',#172,#173,#174);
#172=CARTESIAN_POINT('',(0.,12.,0.));
#173=DIRECTION('',(0.,1.,0.));
#174=DIRECTION('',(6.12323399573677E-17,0.,-1.));
#175=FACE_BOUND('',#176,.T.);
#176=EDGE_LOOP('',(#519,#520,#521,#522,#523,#524,#525,#526));
#177=FACE_BOUND('',#178,.T.);
#178=EDGE_LOOP('',(#527));
#179=FACE_BOUND('',#180,.T.);
#180=EDGE_LOOP('',(#528));
#181=FACE_BOUND('',#182,.T.);
#182=EDGE_LOOP('',(#529));
#183=FACE_BOUND('',#184,.T.);
#184=EDGE_LOOP('',(#530));
#185=PLANE('',#186);
#186=AXIS2_PLACEMENT_3D('',#187,#188,#189);
#187=CARTESIAN_POINT('',(0.,0.,0.));
#188=DIRECTION('',(0.,-1.,0.));
#189=DIRECTION('',(1.,0.,0.));
#190=FACE_BOUND('',#191,.T.);
#191=EDGE_LOOP('',(#531,#532,#533,#534));
#192=PLANE('',#193);
#193=AXIS2_PLACEMENT_3D('',#194,#195,#196);
#194=CARTESIAN_POINT('',(0.,20.,44.9999999960795));
#195=DIRECTION('',(0.,-0.70710678109414,0.707106781278955));
#196=DIRECTION('',(0.,-0.707106781278955,-0.70710678109414));
#197=FACE_BOUND('',#198,.T.);
#198=EDGE_LOOP('',(#535,#536,#537,#538,#539,#540,#541,#542,#543,#544,#545,#546,#547,
#548,#549));
#199=FACE_BOUND('',#200,.T.);
#200=EDGE_LOOP('',(#550));
#201=FACE_BOUND('',#202,.T.);
#202=EDGE_LOOP('',(#551));
#203=PLANE('',#204);
#204=AXIS2_PLACEMENT_3D('',#205,#206,#207);
#205=CARTESIAN_POINT('',(1.19661945471848E-34,20.,0.));
#206=DIRECTION('',(-1.,5.9830972735924E-36,0.));
#207=DIRECTION('',(-5.9830972735924E-36,-1.,0.));
#208=FACE_BOUND('',#209,.T.);
#209=EDGE_LOOP('',(#552,#553,#554,#555));
#210=PLANE('',#211);
#211=AXIS2_PLACEMENT_3D('',#212,#213,#214);
#212=CARTESIAN_POINT('',(0.,0.,60.));
#213=DIRECTION('',(0.,0.,1.));
#214=DIRECTION('',(1.,0.,0.));
#215=FACE_BOUND('',#216,.T.);
#216=EDGE_LOOP('',(#556,#557,#558,#559,#560,#561,#562,#563,#564,#565,#566,#567,#568,
#569,#570,#571,#572,#573,#574));
#217=FACE_BOUND('',#218,.T.);
#218=EDGE_LOOP('',(#575));
#219=FACE_BOUND('',#220,.T.);
#220=EDGE_LOOP('',(#576));
#221=PLANE('',#222);
#222=AXIS2_PLACEMENT_3D('',#223,#224,#225);
#223=CARTESIAN_POINT('',(20.,-8.88178419700125E-16,0.));
#224=DIRECTION('',(1.,0.,0.));
#225=DIRECTION('',(0.,1.,0.));
#226=FACE_BOUND('',#227,.T.);
#227=EDGE_LOOP('',(#577,#578,#579,#580));
#228=PLANE('',#229);
#229=AXIS2_PLACEMENT_3D('',#230,#231,#232);
#230=CARTESIAN_POINT('',(0.,5.,30.));
#231=DIRECTION('',(0.,-0.70710678109414,-0.707106781278955));
#232=DIRECTION('',(0.,0.707106781278955,-0.70710678109414));
#233=FACE_BOUND('',#234,.T.);
#234=EDGE_LOOP('',(#581,#582,#583,#584));
#235=PLANE('',#236);
#236=AXIS2_PLACEMENT_3D('',#237,#238,#239);
#237=CARTESIAN_POINT('',(0.,0.,0.));
#238=DIRECTION('',(0.,0.,1.));
#239=DIRECTION('',(1.,0.,0.));
#240=FACE_BOUND('',#241,.T.);
#241=EDGE_LOOP('',(#585,#586,#587,#588));
#242=PLANE('',#243);
#243=AXIS2_PLACEMENT_3D('',#244,#245,#246);
#244=CARTESIAN_POINT('',(10.,0.,0.));
#245=DIRECTION('',(-1.,5.9830972735924E-36,0.));
#246=DIRECTION('',(0.,0.,-1.));
#247=FACE_BOUND('',#248,.T.);
#248=EDGE_LOOP('',(#589,#590,#591,#592));
#249=PLANE('',#250);
#250=AXIS2_PLACEMENT_3D('',#251,#252,#253);
#251=CARTESIAN_POINT('',(9.,-8.75931951708652E-16,34.85));
#252=DIRECTION('',(0.,0.447213595499958,0.894427190999916));
#253=DIRECTION('',(0.,-0.894427190999916,0.447213595499958));
#254=FACE_BOUND('',#255,.T.);
#255=EDGE_LOOP('',(#593,#594,#595,#596));
#256=PLANE('',#257);
#257=AXIS2_PLACEMENT_3D('',#258,#259,#260);
#258=CARTESIAN_POINT('',(-1.,-2.8,52.1));
#259=DIRECTION('',(0.,0.,-1.));
#260=DIRECTION('',(0.,1.,0.));
#261=FACE_BOUND('',#262,.T.);
#262=EDGE_LOOP('',(#597,#598,#599,#600));
#263=PLANE('',#264);
#264=AXIS2_PLACEMENT_3D('',#265,#266,#267);
#265=CARTESIAN_POINT('',(-1.,-5.5752378393034E-16,7.9));
#266=DIRECTION('',(0.,0.,1.));
#267=DIRECTION('',(0.,-1.,0.));
#268=FACE_BOUND('',#269,.T.);
#269=EDGE_LOOP('',(#601,#602,#603,#604));
#270=PLANE('',#271);
#271=AXIS2_PLACEMENT_3D('',#272,#273,#274);
#272=CARTESIAN_POINT('',(9.,-3.,23.65));
#273=DIRECTION('',(0.,0.447213595499958,-0.894427190999916));
#274=DIRECTION('',(0.,0.894427190999916,0.447213595499958));
#275=FACE_OUTER_BOUND('',#276,.T.);
#276=EDGE_LOOP('',(#605));
#277=FACE_OUTER_BOUND('',#278,.T.);
#278=EDGE_LOOP('',(#606));
#279=CYLINDRICAL_SURFACE('',#280,4.15);
#280=AXIS2_PLACEMENT_3D('',#281,#282,#283);
#281=CARTESIAN_POINT('',(10.,8.5,18.));
#282=DIRECTION('',(0.,-1.,0.));
#283=DIRECTION('',(6.12323399573677E-17,0.,-1.));
#284=FACE_OUTER_BOUND('',#285,.T.);
#285=EDGE_LOOP('',(#607));
#286=FACE_OUTER_BOUND('',#287,.T.);
#287=EDGE_LOOP('',(#608));
#288=CYLINDRICAL_SURFACE('',#289,4.15);
#289=AXIS2_PLACEMENT_3D('',#290,#291,#292);
#290=CARTESIAN_POINT('',(10.,8.5,42.));
#291=DIRECTION('',(0.,-1.,0.));
#292=DIRECTION('',(6.12323399573677E-17,0.,-1.));
#293=FACE_BOUND('',#294,.T.);
#294=EDGE_LOOP('',(#609,#610,#611,#612,#613,#614));
#295=PLANE('',#296);
#296=AXIS2_PLACEMENT_3D('',#297,#298,#299);
#297=CARTESIAN_POINT('',(0.,0.,0.));
#298=DIRECTION('',(0.,-1.,0.));
#299=DIRECTION('',(1.,0.,0.));
#300=FACE_BOUND('',#301,.T.);
#301=EDGE_LOOP('',(#615,#616,#617,#618));
#302=PLANE('',#303);
#303=AXIS2_PLACEMENT_3D('',#304,#305,#306);
#304=CARTESIAN_POINT('',(-1.,-2.8,5.1));
#305=DIRECTION('',(0.,0.,-1.));
#306=DIRECTION('',(0.,1.,0.));
#307=FACE_BOUND('',#308,.T.);
#308=EDGE_LOOP('',(#619,#620,#621,#622));
#309=PLANE('',#310);
#310=AXIS2_PLACEMENT_3D('',#311,#312,#313);
#311=CARTESIAN_POINT('',(-1.,-2.8,7.9));
#312=DIRECTION('',(0.,-1.,1.58603289232165E-16));
#313=DIRECTION('',(0.,-1.58603289232165E-16,-1.));
#314=FACE_BOUND('',#315,.T.);
#315=EDGE_LOOP('',(#623,#624,#625,#626));
#316=PLANE('',#317);
#317=AXIS2_PLACEMENT_3D('',#318,#319,#320);
#318=CARTESIAN_POINT('',(-1.,-2.8,54.9));
#319=DIRECTION('',(0.,-1.,1.58603289232165E-16));
#320=DIRECTION('',(0.,-1.58603289232165E-16,-1.));
#321=FACE_BOUND('',#322,.T.);
#322=EDGE_LOOP('',(#627,#628,#629,#630));
#323=PLANE('',#324);
#324=AXIS2_PLACEMENT_3D('',#325,#326,#327);
#325=CARTESIAN_POINT('',(-1.,-8.7593195170865E-16,54.9));
#326=DIRECTION('',(0.,0.,1.));
#327=DIRECTION('',(0.,-1.,0.));
#328=FACE_BOUND('',#329,.T.);
#329=EDGE_LOOP('',(#631,#632,#633,#634,#635,#636));
#330=PLANE('',#331);
#331=AXIS2_PLACEMENT_3D('',#332,#333,#334);
#332=CARTESIAN_POINT('',(0.,0.,0.));
#333=DIRECTION('',(0.,-1.,0.));
#334=DIRECTION('',(1.,0.,0.));
#335=FACE_OUTER_BOUND('',#336,.T.);
#336=EDGE_LOOP('',(#637));
#337=FACE_OUTER_BOUND('',#338,.T.);
#338=EDGE_LOOP('',(#638));
#339=CYLINDRICAL_SURFACE('',#340,1.75);
#340=AXIS2_PLACEMENT_3D('',#341,#342,#343);
#341=CARTESIAN_POINT('',(0.,15.,55.));
#342=DIRECTION('',(1.,0.,0.));
#343=DIRECTION('',(0.,-1.22464679914735E-16,-1.));
#344=FACE_OUTER_BOUND('',#345,.T.);
#345=EDGE_LOOP('',(#639));
#346=FACE_OUTER_BOUND('',#347,.T.);
#347=EDGE_LOOP('',(#640));
#348=CYLINDRICAL_SURFACE('',#349,1.75);
#349=AXIS2_PLACEMENT_3D('',#350,#351,#352);
#350=CARTESIAN_POINT('',(0.,15.,4.99999999999999));
#351=DIRECTION('',(1.,0.,0.));
#352=DIRECTION('',(0.,-1.22464679914735E-16,-1.));
#353=FACE_BOUND('',#354,.T.);
#354=EDGE_LOOP('',(#641,#642,#643,#644));
#355=PLANE('',#356);
#356=AXIS2_PLACEMENT_3D('',#357,#358,#359);
#357=CARTESIAN_POINT('',(9.,-3.,36.35));
#358=DIRECTION('',(0.,-1.,1.04902962956708E-16));
#359=DIRECTION('',(0.,-1.04902962956708E-16,-1.));
#360=FACE_BOUND('',#361,.T.);
#361=EDGE_LOOP('',(#645));
#362=PLANE('',#363);
#363=AXIS2_PLACEMENT_3D('',#364,#365,#366);
#364=CARTESIAN_POINT('',(0.,8.5,0.));
#365=DIRECTION('',(0.,-1.,0.));
#366=DIRECTION('',(6.12323399573677E-17,0.,-1.));
#367=FACE_BOUND('',#368,.T.);
#368=EDGE_LOOP('',(#646));
#369=PLANE('',#370);
#370=AXIS2_PLACEMENT_3D('',#371,#372,#373);
#371=CARTESIAN_POINT('',(0.,8.5,0.));
#372=DIRECTION('',(0.,-1.,0.));
#373=DIRECTION('',(6.12323399573677E-17,0.,-1.));
#374=FACE_BOUND('',#375,.T.);
#375=EDGE_LOOP('',(#647,#648,#649,#650));
#376=CYLINDRICAL_SURFACE('',#377,1.5);
#377=AXIS2_PLACEMENT_3D('',#378,#379,#380);
#378=CARTESIAN_POINT('',(1.5,18.5,38.9999999960795));
#379=DIRECTION('',(0.,0.,-1.));
#380=DIRECTION('',(-1.,0.,0.));
#381=FACE_BOUND('',#382,.T.);
#382=EDGE_LOOP('',(#651,#652,#653,#654));
#383=CYLINDRICAL_SURFACE('',#384,1.5);
#384=AXIS2_PLACEMENT_3D('',#385,#386,#387);
#385=CARTESIAN_POINT('',(1.5,-0.303300859314936,26.8180194853536));
#386=DIRECTION('',(0.,0.707106781278955,0.70710678109414));
#387=DIRECTION('',(0.,0.70710678109414,-0.707106781278955));
#388=FACE_BOUND('',#389,.T.);
#389=EDGE_LOOP('',(#655,#656,#657,#658));
#390=CYLINDRICAL_SURFACE('',#391,1.5);
#391=AXIS2_PLACEMENT_3D('',#392,#393,#394);
#392=CARTESIAN_POINT('',(1.5,23.1819805160325,9.69669914543725));
#393=DIRECTION('',(0.,-0.707106781278955,0.70710678109414));
#394=DIRECTION('',(0.,0.70710678109414,0.707106781278955));
#395=FACE_BOUND('',#396,.T.);
#396=EDGE_LOOP('',(#659,#660,#661,#662));
#397=CYLINDRICAL_SURFACE('',#398,1.5);
#398=AXIS2_PLACEMENT_3D('',#399,#400,#401);
#399=CARTESIAN_POINT('',(1.5,18.5,-6.));
#400=DIRECTION('',(-6.5790994042308E-17,0.,-1.));
#401=DIRECTION('',(-1.,0.,6.5790994042308E-17));
#402=FACE_BOUND('',#403,.T.);
#403=EDGE_LOOP('',(#663,#664,#665,#666));
#404=CYLINDRICAL_SURFACE('',#405,1.5);
#405=AXIS2_PLACEMENT_3D('',#406,#407,#408);
#406=CARTESIAN_POINT('',(1.5,26.,1.5));
#407=DIRECTION('',(0.,1.,0.));
#408=DIRECTION('',(1.48029736616688E-16,0.,-1.));
#409=FACE_BOUND('',#410,.T.);
#410=EDGE_LOOP('',(#667,#668,#669,#670));
#411=CYLINDRICAL_SURFACE('',#412,1.5);
#412=AXIS2_PLACEMENT_3D('',#413,#414,#415);
#413=CARTESIAN_POINT('',(18.5,-6.,58.5));
#414=DIRECTION('',(0.,1.,0.));
#415=DIRECTION('',(0.,0.,1.));
#416=FACE_BOUND('',#417,.T.);
#417=EDGE_LOOP('',(#671,#672,#673,#674));
#418=CYLINDRICAL_SURFACE('',#419,1.5);
#419=AXIS2_PLACEMENT_3D('',#420,#421,#422);
#420=CARTESIAN_POINT('',(18.5,-6.,1.5));
#421=DIRECTION('',(0.,-1.,0.));
#422=DIRECTION('',(0.,0.,-1.));
#423=FACE_BOUND('',#424,.T.);
#424=EDGE_LOOP('',(#675,#676,#677,#678));
#425=CYLINDRICAL_SURFACE('',#426,1.5);
#426=AXIS2_PLACEMENT_3D('',#427,#428,#429);
#427=CARTESIAN_POINT('',(18.5,18.5,-6.));
#428=DIRECTION('',(0.,0.,-1.));
#429=DIRECTION('',(0.,1.,0.));
#430=FACE_BOUND('',#431,.T.);
#431=EDGE_LOOP('',(#679,#680,#681,#682));
#432=CYLINDRICAL_SURFACE('',#433,1.5);
#433=AXIS2_PLACEMENT_3D('',#434,#435,#436);
#434=CARTESIAN_POINT('',(18.5,-0.303300859314941,33.1819805146464));
#435=DIRECTION('',(0.,0.707106781278955,-0.70710678109414));
#436=DIRECTION('',(0.,0.70710678109414,0.707106781278955));
#437=FACE_BOUND('',#438,.T.);
#438=EDGE_LOOP('',(#683,#684,#685,#686));
#439=CYLINDRICAL_SURFACE('',#440,1.5);
#440=AXIS2_PLACEMENT_3D('',#441,#442,#443);
#441=CARTESIAN_POINT('',(18.5,23.1819805160325,50.3033008545628));
#442=DIRECTION('',(0.,-0.707106781278955,-0.70710678109414));
#443=DIRECTION('',(2.368475785867E-15,0.70710678109414,-0.707106781278955));
#444=FACE_BOUND('',#445,.T.);
#445=EDGE_LOOP('',(#687,#688,#689,#690));
#446=CYLINDRICAL_SURFACE('',#447,1.5);
#447=AXIS2_PLACEMENT_3D('',#448,#449,#450);
#448=CARTESIAN_POINT('',(18.5,18.5,38.9999999960795));
#449=DIRECTION('',(0.,0.,-1.));
#450=DIRECTION('',(0.,1.,0.));
#451=FACE_BOUND('',#452,.T.);
#452=EDGE_LOOP('',(#691,#692,#693));
#453=SPHERICAL_SURFACE('',#454,1.5);
#454=AXIS2_PLACEMENT_3D('',#455,#456,#457);
#455=CARTESIAN_POINT('',(18.5,18.5,58.5));
#456=DIRECTION('',(0.,1.,0.));
#457=DIRECTION('',(0.,0.,1.));
#458=FACE_BOUND('',#459,.T.);
#459=EDGE_LOOP('',(#694,#695,#696,#697));
#460=CYLINDRICAL_SURFACE('',#461,1.5);
#461=AXIS2_PLACEMENT_3D('',#462,#463,#464);
#462=CARTESIAN_POINT('',(24.5,18.5,58.5));
#463=DIRECTION('',(-1.,0.,0.));
#464=DIRECTION('',(0.,0.,1.));
#465=FACE_BOUND('',#466,.T.);
#466=EDGE_LOOP('',(#698,#699,#700));
#467=SPHERICAL_SURFACE('',#468,1.5);
#468=AXIS2_PLACEMENT_3D('',#469,#470,#471);
#469=CARTESIAN_POINT('',(1.5,18.5,58.5));
#470=DIRECTION('',(0.,0.,1.));
#471=DIRECTION('',(0.,1.,0.));
#472=FACE_BOUND('',#473,.T.);
#473=EDGE_LOOP('',(#701,#702,#703,#704));
#474=CYLINDRICAL_SURFACE('',#475,1.5);
#475=AXIS2_PLACEMENT_3D('',#476,#477,#478);
#476=CARTESIAN_POINT('',(1.5,24.5,58.5));
#477=DIRECTION('',(0.,-1.,0.));
#478=DIRECTION('',(0.,0.,1.));
#479=FACE_OUTER_BOUND('',#480,.T.);
#480=EDGE_LOOP('',(#705));
#481=FACE_OUTER_BOUND('',#482,.T.);
#482=EDGE_LOOP('',(#706));
#483=CONICAL_SURFACE('',#484,2.45,0.785398163397448);
#484=AXIS2_PLACEMENT_3D('',#485,#486,#487);
#485=CARTESIAN_POINT('',(10.,19.75,50.));
#486=DIRECTION('',(0.,1.,0.));
#487=DIRECTION('',(0.,0.,-1.));
#488=FACE_OUTER_BOUND('',#489,.T.);
#489=EDGE_LOOP('',(#707));
#490=FACE_OUTER_BOUND('',#491,.T.);
#491=EDGE_LOOP('',(#708));
#492=CONICAL_SURFACE('',#493,2.45,0.785398163397448);
#493=AXIS2_PLACEMENT_3D('',#494,#495,#496);
#494=CARTESIAN_POINT('',(10.,19.75,10.));
#495=DIRECTION('',(0.,1.,0.));
#496=DIRECTION('',(0.,0.,-1.));
#497=ORIENTED_EDGE('',*,*,#709,.T.);
#498=ORIENTED_EDGE('',*,*,#710,.F.);
#499=ORIENTED_EDGE('',*,*,#711,.T.);
#500=ORIENTED_EDGE('',*,*,#712,.F.);
#501=ORIENTED_EDGE('',*,*,#713,.F.);
#502=ORIENTED_EDGE('',*,*,#714,.T.);
#503=ORIENTED_EDGE('',*,*,#715,.T.);
#504=ORIENTED_EDGE('',*,*,#716,.F.);
#505=ORIENTED_EDGE('',*,*,#717,.T.);
#506=ORIENTED_EDGE('',*,*,#718,.F.);
#507=ORIENTED_EDGE('',*,*,#719,.T.);
#508=ORIENTED_EDGE('',*,*,#720,.T.);
#509=ORIENTED_EDGE('',*,*,#721,.T.);
#510=ORIENTED_EDGE('',*,*,#722,.T.);
#511=ORIENTED_EDGE('',*,*,#723,.F.);
#512=ORIENTED_EDGE('',*,*,#724,.F.);
#513=ORIENTED_EDGE('',*,*,#724,.T.);
#514=ORIENTED_EDGE('',*,*,#711,.F.);
#515=ORIENTED_EDGE('',*,*,#725,.F.);
#516=ORIENTED_EDGE('',*,*,#726,.F.);
#517=ORIENTED_EDGE('',*,*,#726,.T.);
#518=ORIENTED_EDGE('',*,*,#709,.F.);
#519=ORIENTED_EDGE('',*,*,#727,.F.);
#520=ORIENTED_EDGE('',*,*,#728,.F.);
#521=ORIENTED_EDGE('',*,*,#729,.T.);
#522=ORIENTED_EDGE('',*,*,#730,.F.);
#523=ORIENTED_EDGE('',*,*,#731,.F.);
#524=ORIENTED_EDGE('',*,*,#732,.F.);
#525=ORIENTED_EDGE('',*,*,#733,.T.);
#526=ORIENTED_EDGE('',*,*,#734,.F.);
#527=ORIENTED_EDGE('',*,*,#710,.T.);
#528=ORIENTED_EDGE('',*,*,#712,.T.);
#529=ORIENTED_EDGE('',*,*,#735,.T.);
#530=ORIENTED_EDGE('',*,*,#736,.T.);
#531=ORIENTED_EDGE('',*,*,#737,.F.);
#532=ORIENTED_EDGE('',*,*,#738,.F.);
#533=ORIENTED_EDGE('',*,*,#739,.F.);
#534=ORIENTED_EDGE('',*,*,#714,.F.);
#535=ORIENTED_EDGE('',*,*,#740,.F.);
#536=ORIENTED_EDGE('',*,*,#741,.F.);
#537=ORIENTED_EDGE('',*,*,#742,.T.);
#538=ORIENTED_EDGE('',*,*,#743,.T.);
#539=ORIENTED_EDGE('',*,*,#744,.F.);
#540=ORIENTED_EDGE('',*,*,#745,.T.);
#541=ORIENTED_EDGE('',*,*,#746,.T.);
#542=ORIENTED_EDGE('',*,*,#747,.T.);
#543=ORIENTED_EDGE('',*,*,#748,.T.);
#544=ORIENTED_EDGE('',*,*,#749,.T.);
#545=ORIENTED_EDGE('',*,*,#731,.T.);
#546=ORIENTED_EDGE('',*,*,#750,.T.);
#547=ORIENTED_EDGE('',*,*,#751,.T.);
#548=ORIENTED_EDGE('',*,*,#752,.T.);
#549=ORIENTED_EDGE('',*,*,#753,.T.);
#550=ORIENTED_EDGE('',*,*,#754,.T.);
#551=ORIENTED_EDGE('',*,*,#755,.T.);
#552=ORIENTED_EDGE('',*,*,#756,.T.);
#553=ORIENTED_EDGE('',*,*,#757,.T.);
#554=ORIENTED_EDGE('',*,*,#758,.T.);
#555=ORIENTED_EDGE('',*,*,#759,.T.);
#556=ORIENTED_EDGE('',*,*,#760,.T.);
#557=ORIENTED_EDGE('',*,*,#761,.T.);
#558=ORIENTED_EDGE('',*,*,#762,.T.);
#559=ORIENTED_EDGE('',*,*,#763,.T.);
#560=ORIENTED_EDGE('',*,*,#764,.T.);
#561=ORIENTED_EDGE('',*,*,#765,.F.);
#562=ORIENTED_EDGE('',*,*,#766,.F.);
#563=ORIENTED_EDGE('',*,*,#767,.T.);
#564=ORIENTED_EDGE('',*,*,#768,.T.);
#565=ORIENTED_EDGE('',*,*,#769,.T.);
#566=ORIENTED_EDGE('',*,*,#729,.F.);
#567=ORIENTED_EDGE('',*,*,#770,.T.);
#568=ORIENTED_EDGE('',*,*,#771,.T.);
#569=ORIENTED_EDGE('',*,*,#772,.T.);
#570=ORIENTED_EDGE('',*,*,#733,.F.);
#571=ORIENTED_EDGE('',*,*,#773,.T.);
#572=ORIENTED_EDGE('',*,*,#774,.T.);
#573=ORIENTED_EDGE('',*,*,#775,.T.);
#574=ORIENTED_EDGE('',*,*,#776,.F.);
#575=ORIENTED_EDGE('',*,*,#777,.T.);
#576=ORIENTED_EDGE('',*,*,#778,.T.);
#577=ORIENTED_EDGE('',*,*,#779,.F.);
#578=ORIENTED_EDGE('',*,*,#721,.F.);
#579=ORIENTED_EDGE('',*,*,#780,.F.);
#580=ORIENTED_EDGE('',*,*,#738,.T.);
#581=ORIENTED_EDGE('',*,*,#781,.F.);
#582=ORIENTED_EDGE('',*,*,#782,.F.);
#583=ORIENTED_EDGE('',*,*,#783,.F.);
#584=ORIENTED_EDGE('',*,*,#719,.F.);
#585=ORIENTED_EDGE('',*,*,#727,.T.);
#586=ORIENTED_EDGE('',*,*,#784,.T.);
#587=ORIENTED_EDGE('',*,*,#785,.T.);
#588=ORIENTED_EDGE('',*,*,#786,.T.);
#589=ORIENTED_EDGE('',*,*,#728,.T.);
#590=ORIENTED_EDGE('',*,*,#786,.F.);
#591=ORIENTED_EDGE('',*,*,#787,.T.);
#592=ORIENTED_EDGE('',*,*,#770,.F.);
#593=ORIENTED_EDGE('',*,*,#730,.T.);
#594=ORIENTED_EDGE('',*,*,#769,.F.);
#595=ORIENTED_EDGE('',*,*,#788,.F.);
#596=ORIENTED_EDGE('',*,*,#750,.F.);
#597=ORIENTED_EDGE('',*,*,#732,.T.);
#598=ORIENTED_EDGE('',*,*,#749,.F.);
#599=ORIENTED_EDGE('',*,*,#789,.T.);
#600=ORIENTED_EDGE('',*,*,#773,.F.);
#601=ORIENTED_EDGE('',*,*,#734,.T.);
#602=ORIENTED_EDGE('',*,*,#772,.F.);
#603=ORIENTED_EDGE('',*,*,#790,.F.);
#604=ORIENTED_EDGE('',*,*,#784,.F.);
#605=ORIENTED_EDGE('',*,*,#791,.F.);
#606=ORIENTED_EDGE('',*,*,#735,.F.);
#607=ORIENTED_EDGE('',*,*,#792,.F.);
#608=ORIENTED_EDGE('',*,*,#736,.F.);
#609=ORIENTED_EDGE('',*,*,#793,.F.);
#610=ORIENTED_EDGE('',*,*,#776,.T.);
#611=ORIENTED_EDGE('',*,*,#794,.F.);
#612=ORIENTED_EDGE('',*,*,#746,.F.);
#613=ORIENTED_EDGE('',*,*,#795,.F.);
#614=ORIENTED_EDGE('',*,*,#782,.T.);
#615=ORIENTED_EDGE('',*,*,#794,.T.);
#616=ORIENTED_EDGE('',*,*,#775,.F.);
#617=ORIENTED_EDGE('',*,*,#796,.F.);
#618=ORIENTED_EDGE('',*,*,#747,.F.);
#619=ORIENTED_EDGE('',*,*,#748,.F.);
#620=ORIENTED_EDGE('',*,*,#796,.T.);
#621=ORIENTED_EDGE('',*,*,#774,.F.);
#622=ORIENTED_EDGE('',*,*,#789,.F.);
#623=ORIENTED_EDGE('',*,*,#751,.F.);
#624=ORIENTED_EDGE('',*,*,#788,.T.);
#625=ORIENTED_EDGE('',*,*,#768,.F.);
#626=ORIENTED_EDGE('',*,*,#797,.F.);
#627=ORIENTED_EDGE('',*,*,#798,.T.);
#628=ORIENTED_EDGE('',*,*,#752,.F.);
#629=ORIENTED_EDGE('',*,*,#797,.T.);
#630=ORIENTED_EDGE('',*,*,#767,.F.);
#631=ORIENTED_EDGE('',*,*,#799,.F.);
#632=ORIENTED_EDGE('',*,*,#753,.F.);
#633=ORIENTED_EDGE('',*,*,#798,.F.);
#634=ORIENTED_EDGE('',*,*,#766,.T.);
#635=ORIENTED_EDGE('',*,*,#800,.F.);
#636=ORIENTED_EDGE('',*,*,#758,.F.);
#637=ORIENTED_EDGE('',*,*,#777,.F.);
#638=ORIENTED_EDGE('',*,*,#754,.F.);
#639=ORIENTED_EDGE('',*,*,#778,.F.);
#640=ORIENTED_EDGE('',*,*,#755,.F.);
#641=ORIENTED_EDGE('',*,*,#785,.F.);
#642=ORIENTED_EDGE('',*,*,#790,.T.);
#643=ORIENTED_EDGE('',*,*,#771,.F.);
#644=ORIENTED_EDGE('',*,*,#787,.F.);
#645=ORIENTED_EDGE('',*,*,#791,.T.);
#646=ORIENTED_EDGE('',*,*,#792,.T.);
#647=ORIENTED_EDGE('',*,*,#801,.T.);
#648=ORIENTED_EDGE('',*,*,#715,.F.);
#649=ORIENTED_EDGE('',*,*,#802,.T.);
#650=ORIENTED_EDGE('',*,*,#741,.T.);
#651=ORIENTED_EDGE('',*,*,#742,.F.);
#652=ORIENTED_EDGE('',*,*,#802,.F.);
#653=ORIENTED_EDGE('',*,*,#739,.T.);
#654=ORIENTED_EDGE('',*,*,#803,.T.);
#655=ORIENTED_EDGE('',*,*,#743,.F.);
#656=ORIENTED_EDGE('',*,*,#803,.F.);
#657=ORIENTED_EDGE('',*,*,#780,.T.);
#658=ORIENTED_EDGE('',*,*,#804,.T.);
#659=ORIENTED_EDGE('',*,*,#720,.F.);
#660=ORIENTED_EDGE('',*,*,#805,.T.);
#661=ORIENTED_EDGE('',*,*,#744,.T.);
#662=ORIENTED_EDGE('',*,*,#804,.F.);
#663=ORIENTED_EDGE('',*,*,#745,.F.);
#664=ORIENTED_EDGE('',*,*,#805,.F.);
#665=ORIENTED_EDGE('',*,*,#783,.T.);
#666=ORIENTED_EDGE('',*,*,#795,.T.);
#667=ORIENTED_EDGE('',*,*,#806,.T.);
#668=ORIENTED_EDGE('',*,*,#759,.F.);
#669=ORIENTED_EDGE('',*,*,#800,.T.);
#670=ORIENTED_EDGE('',*,*,#765,.T.);
#671=ORIENTED_EDGE('',*,*,#760,.F.);
#672=ORIENTED_EDGE('',*,*,#793,.T.);
#673=ORIENTED_EDGE('',*,*,#781,.T.);
#674=ORIENTED_EDGE('',*,*,#807,.T.);
#675=ORIENTED_EDGE('',*,*,#761,.F.);
#676=ORIENTED_EDGE('',*,*,#807,.F.);
#677=ORIENTED_EDGE('',*,*,#718,.T.);
#678=ORIENTED_EDGE('',*,*,#808,.T.);
#679=ORIENTED_EDGE('',*,*,#762,.F.);
#680=ORIENTED_EDGE('',*,*,#808,.F.);
#681=ORIENTED_EDGE('',*,*,#779,.T.);
#682=ORIENTED_EDGE('',*,*,#809,.T.);
#683=ORIENTED_EDGE('',*,*,#763,.F.);
#684=ORIENTED_EDGE('',*,*,#809,.F.);
#685=ORIENTED_EDGE('',*,*,#737,.T.);
#686=ORIENTED_EDGE('',*,*,#810,.T.);
#687=ORIENTED_EDGE('',*,*,#764,.F.);
#688=ORIENTED_EDGE('',*,*,#810,.F.);
#689=ORIENTED_EDGE('',*,*,#713,.T.);
#690=ORIENTED_EDGE('',*,*,#811,.T.);
#691=ORIENTED_EDGE('',*,*,#811,.F.);
#692=ORIENTED_EDGE('',*,*,#812,.T.);
#693=ORIENTED_EDGE('',*,*,#806,.F.);
#694=ORIENTED_EDGE('',*,*,#716,.T.);
#695=ORIENTED_EDGE('',*,*,#813,.T.);
#696=ORIENTED_EDGE('',*,*,#756,.F.);
#697=ORIENTED_EDGE('',*,*,#812,.F.);
#698=ORIENTED_EDGE('',*,*,#801,.F.);
#699=ORIENTED_EDGE('',*,*,#814,.T.);
#700=ORIENTED_EDGE('',*,*,#813,.F.);
#701=ORIENTED_EDGE('',*,*,#740,.T.);
#702=ORIENTED_EDGE('',*,*,#799,.T.);
#703=ORIENTED_EDGE('',*,*,#757,.F.);
#704=ORIENTED_EDGE('',*,*,#814,.F.);
#705=ORIENTED_EDGE('',*,*,#717,.F.);
#706=ORIENTED_EDGE('',*,*,#725,.T.);
#707=ORIENTED_EDGE('',*,*,#722,.F.);
#708=ORIENTED_EDGE('',*,*,#723,.T.);
#709=EDGE_CURVE('',#815,#815,#816,.T.);
#710=EDGE_CURVE('',#817,#817,#818,.T.);
#711=EDGE_CURVE('',#819,#819,#820,.T.);
#712=EDGE_CURVE('',#821,#821,#822,.T.);
#713=EDGE_CURVE('',#823,#824,#825,.T.);
#714=EDGE_CURVE('',#823,#826,#827,.F.);
#715=EDGE_CURVE('',#826,#828,#829,.T.);
#716=EDGE_CURVE('',#824,#828,#830,.T.);
#717=EDGE_CURVE('',#831,#831,#832,.F.);
#718=EDGE_CURVE('',#833,#834,#835,.T.);
#719=EDGE_CURVE('',#833,#836,#837,.T.);
#720=EDGE_CURVE('',#836,#838,#839,.T.);
#721=EDGE_CURVE('',#838,#834,#840,.F.);
#722=EDGE_CURVE('',#841,#841,#842,.F.);
#723=EDGE_CURVE('',#843,#843,#844,.F.);
#724=EDGE_CURVE('',#845,#845,#846,.T.);
#725=EDGE_CURVE('',#847,#847,#848,.F.);
#726=EDGE_CURVE('',#849,#849,#850,.T.);
#727=EDGE_CURVE('',#851,#852,#853,.T.);
#728=EDGE_CURVE('',#854,#851,#855,.T.);
#729=EDGE_CURVE('',#854,#856,#857,.T.);
#730=EDGE_CURVE('',#858,#856,#859,.T.);
#731=EDGE_CURVE('',#860,#858,#861,.T.);
#732=EDGE_CURVE('',#862,#860,#863,.T.);
#733=EDGE_CURVE('',#862,#864,#865,.T.);
#734=EDGE_CURVE('',#852,#864,#866,.T.);
#735=EDGE_CURVE('',#867,#867,#868,.F.);
#736=EDGE_CURVE('',#869,#869,#870,.F.);
#737=EDGE_CURVE('',#871,#823,#872,.F.);
#738=EDGE_CURVE('',#873,#871,#874,.T.);
#739=EDGE_CURVE('',#826,#873,#875,.F.);
#740=EDGE_CURVE('',#876,#877,#878,.T.);
#741=EDGE_CURVE('',#879,#876,#880,.T.);
#742=EDGE_CURVE('',#879,#881,#882,.F.);
#743=EDGE_CURVE('',#881,#883,#884,.F.);
#744=EDGE_CURVE('',#885,#883,#886,.T.);
#745=EDGE_CURVE('',#885,#887,#888,.T.);
#746=EDGE_CURVE('',#887,#889,#890,.T.);
#747=EDGE_CURVE('',#889,#891,#892,.T.);
#748=EDGE_CURVE('',#891,#893,#894,.T.);
#749=EDGE_CURVE('',#893,#860,#895,.T.);
#750=EDGE_CURVE('',#858,#896,#897,.T.);
#751=EDGE_CURVE('',#896,#898,#899,.T.);
#752=EDGE_CURVE('',#898,#900,#901,.T.);
#753=EDGE_CURVE('',#900,#877,#902,.T.);
#754=EDGE_CURVE('',#903,#903,#904,.T.);
#755=EDGE_CURVE('',#905,#905,#906,.T.);
#756=EDGE_CURVE('',#907,#908,#909,.T.);
#757=EDGE_CURVE('',#908,#910,#911,.T.);
#758=EDGE_CURVE('',#910,#912,#913,.T.);
#759=EDGE_CURVE('',#912,#907,#914,.T.);
#760=EDGE_CURVE('',#915,#916,#917,.T.);
#761=EDGE_CURVE('',#916,#918,#919,.T.);
#762=EDGE_CURVE('',#918,#920,#921,.F.);
#763=EDGE_CURVE('',#920,#922,#923,.F.);
#764=EDGE_CURVE('',#922,#924,#925,.T.);
#765=EDGE_CURVE('',#926,#924,#927,.T.);
#766=EDGE_CURVE('',#928,#926,#929,.T.);
#767=EDGE_CURVE('',#928,#930,#931,.T.);
#768=EDGE_CURVE('',#930,#932,#933,.T.);
#769=EDGE_CURVE('',#932,#856,#934,.T.);
#770=EDGE_CURVE('',#854,#935,#936,.T.);
#771=EDGE_CURVE('',#935,#937,#938,.T.);
#772=EDGE_CURVE('',#937,#864,#939,.T.);
#773=EDGE_CURVE('',#862,#940,#941,.T.);
#774=EDGE_CURVE('',#940,#942,#943,.T.);
#775=EDGE_CURVE('',#942,#944,#945,.T.);
#776=EDGE_CURVE('',#915,#944,#946,.T.);
#777=EDGE_CURVE('',#947,#947,#948,.F.);
#778=EDGE_CURVE('',#949,#949,#950,.F.);
#779=EDGE_CURVE('',#834,#871,#951,.F.);
#780=EDGE_CURVE('',#873,#838,#952,.F.);
#781=EDGE_CURVE('',#953,#833,#954,.T.);
#782=EDGE_CURVE('',#955,#953,#956,.T.);
#783=EDGE_CURVE('',#836,#955,#957,.T.);
#784=EDGE_CURVE('',#852,#958,#959,.T.);
#785=EDGE_CURVE('',#958,#960,#961,.T.);
#786=EDGE_CURVE('',#960,#851,#962,.T.);
#787=EDGE_CURVE('',#960,#935,#963,.T.);
#788=EDGE_CURVE('',#896,#932,#964,.T.);
#789=EDGE_CURVE('',#893,#940,#965,.T.);
#790=EDGE_CURVE('',#958,#937,#966,.T.);
#791=EDGE_CURVE('',#967,#967,#968,.T.);
#792=EDGE_CURVE('',#969,#969,#970,.T.);
#793=EDGE_CURVE('',#915,#953,#971,.F.);
#794=EDGE_CURVE('',#889,#944,#972,.T.);
#795=EDGE_CURVE('',#955,#887,#973,.F.);
#796=EDGE_CURVE('',#891,#942,#974,.T.);
#797=EDGE_CURVE('',#898,#930,#975,.T.);
#798=EDGE_CURVE('',#928,#900,#976,.T.);
#799=EDGE_CURVE('',#877,#910,#977,.F.);
#800=EDGE_CURVE('',#912,#926,#978,.F.);
#801=EDGE_CURVE('',#876,#828,#979,.F.);
#802=EDGE_CURVE('',#826,#879,#980,.T.);
#803=EDGE_CURVE('',#873,#881,#981,.F.);
#804=EDGE_CURVE('',#838,#883,#982,.F.);
#805=EDGE_CURVE('',#836,#885,#983,.T.);
#806=EDGE_CURVE('',#924,#907,#984,.F.);
#807=EDGE_CURVE('',#833,#916,#985,.F.);
#808=EDGE_CURVE('',#834,#918,#986,.F.);
#809=EDGE_CURVE('',#871,#920,#987,.F.);
#810=EDGE_CURVE('',#823,#922,#988,.F.);
#811=EDGE_CURVE('',#824,#924,#989,.F.);
#812=EDGE_CURVE('',#824,#907,#990,.T.);
#813=EDGE_CURVE('',#828,#908,#991,.T.);
#814=EDGE_CURVE('',#876,#908,#992,.F.);
#815=VERTEX_POINT('',#993);
#816=CIRCLE('',#994,1.75);
#817=VERTEX_POINT('',#998);
#818=CIRCLE('',#999,1.75);
#819=VERTEX_POINT('',#1003);
#820=CIRCLE('',#1004,1.75);
#821=VERTEX_POINT('',#1008);
#822=CIRCLE('',#1009,1.75);
#823=VERTEX_POINT('',#1013);
#824=VERTEX_POINT('',#1014);
#825=LINE('',#1015,#1016);
#826=VERTEX_POINT('',#1018);
#827=LINE('',#1019,#1020);
#828=VERTEX_POINT('',#1022);
#829=LINE('',#1023,#1024);
#830=LINE('',#1026,#1027);
#831=VERTEX_POINT('',#1029);
#832=CIRCLE('',#1030,2.7);
#833=VERTEX_POINT('',#1034);
#834=VERTEX_POINT('',#1035);
#835=LINE('',#1036,#1037);
#836=VERTEX_POINT('',#1039);
#837=LINE('',#1040,#1041);
#838=VERTEX_POINT('',#1043);
#839=LINE('',#1044,#1045);
#840=LINE('',#1047,#1048);
#841=VERTEX_POINT('',#1050);
#842=CIRCLE('',#1051,2.7);
#843=VERTEX_POINT('',#1055);
#844=CIRCLE('',#1056,2.2);
#845=VERTEX_POINT('',#1060);
#846=CIRCLE('',#1061,2.2);
#847=VERTEX_POINT('',#1065);
#848=CIRCLE('',#1066,2.2);
#849=VERTEX_POINT('',#1070);
#850=CIRCLE('',#1071,2.2);
#851=VERTEX_POINT('',#1075);
#852=VERTEX_POINT('',#1076);
#853=LINE('',#1077,#1078);
#854=VERTEX_POINT('',#1080);
#855=LINE('',#1081,#1082);
#856=VERTEX_POINT('',#1084);
#857=LINE('',#1085,#1086);
#858=VERTEX_POINT('',#1088);
#859=LINE('',#1089,#1090);
#860=VERTEX_POINT('',#1092);
#861=LINE('',#1093,#1094);
#862=VERTEX_POINT('',#1096);
#863=LINE('',#1097,#1098);
#864=VERTEX_POINT('',#1100);
#865=LINE('',#1101,#1102);
#866=LINE('',#1104,#1105);
#867=VERTEX_POINT('',#1107);
#868=CIRCLE('',#1108,4.15);
#869=VERTEX_POINT('',#1112);
#870=CIRCLE('',#1113,4.15);
#871=VERTEX_POINT('',#1117);
#872=LINE('',#1118,#1119);
#873=VERTEX_POINT('',#1121);
#874=LINE('',#1122,#1123);
#875=LINE('',#1125,#1126);
#876=VERTEX_POINT('',#1128);
#877=VERTEX_POINT('',#1129);
#878=LINE('',#1130,#1131);
#879=VERTEX_POINT('',#1133);
#880=LINE('',#1134,#1135);
#881=VERTEX_POINT('',#1137);
#882=LINE('',#1138,#1139);
#883=VERTEX_POINT('',#1141);
#884=LINE('',#1142,#1143);
#885=VERTEX_POINT('',#1145);
#886=LINE('',#1146,#1147);
#887=VERTEX_POINT('',#1149);
#888=LINE('',#1150,#1151);
#889=VERTEX_POINT('',#1153);
#890=LINE('',#1154,#1155);
#891=VERTEX_POINT('',#1157);
#892=LINE('',#1158,#1159);
#893=VERTEX_POINT('',#1161);
#894=LINE('',#1162,#1163);
#895=LINE('',#1165,#1166);
#896=VERTEX_POINT('',#1168);
#897=LINE('',#1169,#1170);
#898=VERTEX_POINT('',#1172);
#899=LINE('',#1173,#1174);
#900=VERTEX_POINT('',#1176);
#901=LINE('',#1177,#1178);
#902=LINE('',#1180,#1181);
#903=VERTEX_POINT('',#1183);
#904=CIRCLE('',#1184,1.75);
#905=VERTEX_POINT('',#1188);
#906=CIRCLE('',#1189,1.75);
#907=VERTEX_POINT('',#1193);
#908=VERTEX_POINT('',#1194);
#909=LINE('',#1195,#1196);
#910=VERTEX_POINT('',#1198);
#911=LINE('',#1199,#1200);
#912=VERTEX_POINT('',#1202);
#913=LINE('',#1203,#1204);
#914=LINE('',#1206,#1207);
#915=VERTEX_POINT('',#1209);
#916=VERTEX_POINT('',#1210);
#917=LINE('',#1211,#1212);
#918=VERTEX_POINT('',#1214);
#919=LINE('',#1215,#1216);
#920=VERTEX_POINT('',#1218);
#921=LINE('',#1219,#1220);
#922=VERTEX_POINT('',#1222);
#923=LINE('',#1223,#1224);
#924=VERTEX_POINT('',#1226);
#925=LINE('',#1227,#1228);
#926=VERTEX_POINT('',#1230);
#927=LINE('',#1231,#1232);
#928=VERTEX_POINT('',#1234);
#929=LINE('',#1235,#1236);
#930=VERTEX_POINT('',#1238);
#931=LINE('',#1239,#1240);
#932=VERTEX_POINT('',#1242);
#933=LINE('',#1243,#1244);
#934=LINE('',#1246,#1247);
#935=VERTEX_POINT('',#1249);
#936=LINE('',#1250,#1251);
#937=VERTEX_POINT('',#1253);
#938=LINE('',#1254,#1255);
#939=LINE('',#1257,#1258);
#940=VERTEX_POINT('',#1260);
#941=LINE('',#1261,#1262);
#942=VERTEX_POINT('',#1264);
#943=LINE('',#1265,#1266);
#944=VERTEX_POINT('',#1268);
#945=LINE('',#1269,#1270);
#946=LINE('',#1272,#1273);
#947=VERTEX_POINT('',#1275);
#948=CIRCLE('',#1276,1.75);
#949=VERTEX_POINT('',#1280);
#950=CIRCLE('',#1281,1.75);
#951=LINE('',#1285,#1286);
#952=LINE('',#1288,#1289);
#953=VERTEX_POINT('',#1291);
#954=LINE('',#1292,#1293);
#955=VERTEX_POINT('',#1295);
#956=LINE('',#1296,#1297);
#957=LINE('',#1299,#1300);
#958=VERTEX_POINT('',#1302);
#959=LINE('',#1303,#1304);
#960=VERTEX_POINT('',#1306);
#961=LINE('',#1307,#1308);
#962=LINE('',#1310,#1311);
#963=LINE('',#1313,#1314);
#964=LINE('',#1316,#1317);
#965=LINE('',#1319,#1320);
#966=LINE('',#1322,#1323);
#967=VERTEX_POINT('',#1325);
#968=CIRCLE('',#1326,4.15);
#969=VERTEX_POINT('',#1330);
#970=CIRCLE('',#1331,4.15);
#971=CIRCLE('',#1335,1.5);
#972=LINE('',#1339,#1340);
#973=CIRCLE('',#1342,1.5);
#974=LINE('',#1346,#1347);
#975=LINE('',#1349,#1350);
#976=LINE('',#1352,#1353);
#977=CIRCLE('',#1355,1.5);
#978=CIRCLE('',#1359,1.5);
#979=CIRCLE('',#1363,1.5);
#980=(BOUNDED_CURVE()B_SPLINE_CURVE(3,
(#1367,#1368,#1369,#1370),
.UNSPECIFIED.,.F.,.F.)B_SPLINE_CURVE_WITH_KNOTS((4,4),
(0.,1.),
.UNSPECIFIED.)CURVE()GEOMETRIC_REPRESENTATION_ITEM()RATIONAL_B_SPLINE_CURVE((1.,
0.804737854124365,0.804737854124365,1.))REPRESENTATION_ITEM(''));
#981=(BOUNDED_CURVE()B_SPLINE_CURVE(3,
(#1371,#1372,#1373,#1374),
.UNSPECIFIED.,.F.,.F.)B_SPLINE_CURVE_WITH_KNOTS((4,4),
(0.,1.),
.UNSPECIFIED.)CURVE()GEOMETRIC_REPRESENTATION_ITEM()RATIONAL_B_SPLINE_CURVE((1.,
0.804737854124365,0.804737854124365,1.))REPRESENTATION_ITEM(''));
#982=(BOUNDED_CURVE()B_SPLINE_CURVE(3,
(#1375,#1376,#1377,#1378),
.UNSPECIFIED.,.F.,.F.)B_SPLINE_CURVE_WITH_KNOTS((4,4),
(0.,1.),
.UNSPECIFIED.)CURVE()GEOMETRIC_REPRESENTATION_ITEM()RATIONAL_B_SPLINE_CURVE((1.,
0.804737854124365,0.804737854124365,1.))REPRESENTATION_ITEM(''));
#983=(BOUNDED_CURVE()B_SPLINE_CURVE(3,
(#1379,#1380,#1381,#1382),
.UNSPECIFIED.,.F.,.F.)B_SPLINE_CURVE_WITH_KNOTS((4,4),
(0.,1.),
.UNSPECIFIED.)CURVE()GEOMETRIC_REPRESENTATION_ITEM()RATIONAL_B_SPLINE_CURVE((1.,
0.804737854124365,0.804737854124365,1.))REPRESENTATION_ITEM(''));
#984=CIRCLE('',#1383,1.5);
#985=(BOUNDED_CURVE()B_SPLINE_CURVE(3,
(#1387,#1388,#1389,#1390),
.UNSPECIFIED.,.F.,.F.)B_SPLINE_CURVE_WITH_KNOTS((4,4),
(0.,1.),
.UNSPECIFIED.)CURVE()GEOMETRIC_REPRESENTATION_ITEM()RATIONAL_B_SPLINE_CURVE((1.,
0.804737854124365,0.804737854124365,1.))REPRESENTATION_ITEM(''));
#986=(BOUNDED_CURVE()B_SPLINE_CURVE(3,
(#1391,#1392,#1393,#1394),
.UNSPECIFIED.,.F.,.F.)B_SPLINE_CURVE_WITH_KNOTS((4,4),
(0.,1.),
.UNSPECIFIED.)CURVE()GEOMETRIC_REPRESENTATION_ITEM()RATIONAL_B_SPLINE_CURVE((1.,
0.804737854124365,0.804737854124365,1.))REPRESENTATION_ITEM(''));
#987=(BOUNDED_CURVE()B_SPLINE_CURVE(3,
(#1395,#1396,#1397,#1398),
.UNSPECIFIED.,.F.,.F.)B_SPLINE_CURVE_WITH_KNOTS((4,4),
(0.,1.),
.UNSPECIFIED.)CURVE()GEOMETRIC_REPRESENTATION_ITEM()RATIONAL_B_SPLINE_CURVE((1.,
0.804737854124365,0.804737854124365,1.))REPRESENTATION_ITEM(''));
#988=(BOUNDED_CURVE()B_SPLINE_CURVE(3,
(#1399,#1400,#1401,#1402),
.UNSPECIFIED.,.F.,.F.)B_SPLINE_CURVE_WITH_KNOTS((4,4),
(0.,1.),
.UNSPECIFIED.)CURVE()GEOMETRIC_REPRESENTATION_ITEM()RATIONAL_B_SPLINE_CURVE((1.,
0.804737854124365,0.804737854124365,1.))REPRESENTATION_ITEM(''));
#989=CIRCLE('',#1403,1.5);
#990=CIRCLE('',#1407,1.5);
#991=CIRCLE('',#1411,1.5);
#992=CIRCLE('',#1415,1.5);
#993=CARTESIAN_POINT('',(10.,12.,48.25));
#994=AXIS2_PLACEMENT_3D('',#995,#996,#997);
#995=CARTESIAN_POINT('',(10.,12.,50.));
#996=DIRECTION('',(0.,1.,0.));
#997=DIRECTION('',(6.12323399573677E-17,0.,-1.));
#998=CARTESIAN_POINT('',(10.,0.,48.25));
#999=AXIS2_PLACEMENT_3D('',#1000,#1001,#1002);
#1000=CARTESIAN_POINT('',(10.,0.,50.));
#1001=DIRECTION('',(0.,1.,0.));
#1002=DIRECTION('',(6.12323399573677E-17,0.,-1.));
#1003=CARTESIAN_POINT('',(10.,12.,8.25000000000001));
#1004=AXIS2_PLACEMENT_3D('',#1005,#1006,#1007);
#1005=CARTESIAN_POINT('',(10.,12.,10.));
#1006=DIRECTION('',(0.,1.,0.));
#1007=DIRECTION('',(6.12323399573677E-17,0.,-1.));
#1008=CARTESIAN_POINT('',(10.,0.,8.25000000000001));
#1009=AXIS2_PLACEMENT_3D('',#1010,#1011,#1012);
#1010=CARTESIAN_POINT('',(10.,0.,10.));
#1011=DIRECTION('',(0.,1.,0.));
#1012=DIRECTION('',(6.12323399573677E-17,0.,-1.));
#1013=CARTESIAN_POINT('',(18.5,20.,44.9999999960795));
#1014=CARTESIAN_POINT('',(18.5,20.,58.5));
#1015=CARTESIAN_POINT('',(18.5,20.,44.9999999960795));
#1016=VECTOR('',#1017,1.);
#1017=DIRECTION('',(0.,0.,1.));
#1018=CARTESIAN_POINT('',(1.5,20.,44.9999999960795));
#1019=CARTESIAN_POINT('',(1.5,20.,44.9999999960795));
#1020=VECTOR('',#1021,1.);
#1021=DIRECTION('',(1.,0.,0.));
#1022=CARTESIAN_POINT('',(1.5,20.,58.5));
#1023=CARTESIAN_POINT('',(1.5,20.,44.9999999960795));
#1024=VECTOR('',#1025,1.);
#1025=DIRECTION('',(0.,0.,1.));
#1026=CARTESIAN_POINT('',(18.5,20.,58.5));
#1027=VECTOR('',#1028,1.);
#1028=DIRECTION('',(-1.,0.,0.));
#1029=CARTESIAN_POINT('',(10.,20.,47.3));
#1030=AXIS2_PLACEMENT_3D('',#1031,#1032,#1033);
#1031=CARTESIAN_POINT('',(10.,20.,50.));
#1032=DIRECTION('',(0.,1.,0.));
#1033=DIRECTION('',(1.83697019872103E-16,0.,-1.));
#1034=CARTESIAN_POINT('',(18.5,20.,1.11022302462516E-16));
#1035=CARTESIAN_POINT('',(18.5,20.,15.0000000039205));
#1036=CARTESIAN_POINT('',(18.5,20.,-4.44089209850063E-16));
#1037=VECTOR('',#1038,1.);
#1038=DIRECTION('',(0.,0.,1.));
#1039=CARTESIAN_POINT('',(1.5,20.,1.11022302462516E-16));
#1040=CARTESIAN_POINT('',(18.5,20.,0.));
#1041=VECTOR('',#1042,1.);
#1042=DIRECTION('',(-1.,0.,0.));
#1043=CARTESIAN_POINT('',(1.5,20.,15.0000000039205));
#1044=CARTESIAN_POINT('',(1.5,20.,-4.44089209850063E-16));
#1045=VECTOR('',#1046,1.);
#1046=DIRECTION('',(1.62832710235797E-16,0.,1.));
#1047=CARTESIAN_POINT('',(18.5,20.,15.0000000039205));
#1048=VECTOR('',#1049,1.);
#1049=DIRECTION('',(-1.,0.,0.));
#1050=CARTESIAN_POINT('',(10.,20.,7.30000000000001));
#1051=AXIS2_PLACEMENT_3D('',#1052,#1053,#1054);
#1052=CARTESIAN_POINT('',(10.,20.,10.));
#1053=DIRECTION('',(0.,1.,0.));
#1054=DIRECTION('',(1.83697019872103E-16,0.,-1.));
#1055=CARTESIAN_POINT('',(10.,19.5,7.80000000000001));
#1056=AXIS2_PLACEMENT_3D('',#1057,#1058,#1059);
#1057=CARTESIAN_POINT('',(10.,19.5,10.));
#1058=DIRECTION('',(0.,1.,0.));
#1059=DIRECTION('',(0.,0.,-1.));
#1060=CARTESIAN_POINT('',(10.,12.,7.80000000000001));
#1061=AXIS2_PLACEMENT_3D('',#1062,#1063,#1064);
#1062=CARTESIAN_POINT('',(10.,12.,10.));
#1063=DIRECTION('',(0.,1.,0.));
#1064=DIRECTION('',(6.12323399573677E-17,0.,-1.));
#1065=CARTESIAN_POINT('',(10.,19.5,47.8));
#1066=AXIS2_PLACEMENT_3D('',#1067,#1068,#1069);
#1067=CARTESIAN_POINT('',(10.,19.5,50.));
#1068=DIRECTION('',(0.,1.,0.));
#1069=DIRECTION('',(0.,0.,-1.));
#1070=CARTESIAN_POINT('',(10.,12.,47.8));
#1071=AXIS2_PLACEMENT_3D('',#1072,#1073,#1074);
#1072=CARTESIAN_POINT('',(10.,12.,50.));
#1073=DIRECTION('',(0.,1.,0.));
#1074=DIRECTION('',(6.12323399573677E-17,0.,-1.));
#1075=CARTESIAN_POINT('',(10.,-8.75931951708652E-16,34.85));
#1076=CARTESIAN_POINT('',(10.,-3.28985725204241E-16,25.15));
#1077=CARTESIAN_POINT('',(10.,0.,34.85));
#1078=VECTOR('',#1079,1.);
#1079=DIRECTION('',(0.,0.,-1.));
#1080=CARTESIAN_POINT('',(20.,-4.69204785576527E-16,34.85));
#1081=CARTESIAN_POINT('',(20.,-8.75931951708653E-17,34.85));
#1082=VECTOR('',#1083,1.);
#1083=DIRECTION('',(-1.,0.,0.));
#1084=CARTESIAN_POINT('',(20.,-5.87090971927852E-16,52.1));
#1085=CARTESIAN_POINT('',(20.,-4.44089209850063E-16,34.85));
#1086=VECTOR('',#1087,1.);
#1087=DIRECTION('',(0.,0.,1.));
#1088=CARTESIAN_POINT('',(0.,0.,52.1));
#1089=CARTESIAN_POINT('',(0.,0.,52.1));
#1090=VECTOR('',#1091,1.);
#1091=DIRECTION('',(1.,0.,0.));
#1092=CARTESIAN_POINT('',(0.,0.,7.9));
#1093=CARTESIAN_POINT('',(0.,0.,7.9));
#1094=VECTOR('',#1095,1.);
#1095=DIRECTION('',(0.,0.,1.));
#1096=CARTESIAN_POINT('',(20.,-3.33870997926801E-16,7.9));
#1097=CARTESIAN_POINT('',(20.,0.,7.9));
#1098=VECTOR('',#1099,1.);
#1099=DIRECTION('',(-1.,0.,0.));
#1100=CARTESIAN_POINT('',(20.,-1.09661908401414E-16,25.15));
#1101=CARTESIAN_POINT('',(20.,-4.44089209850063E-16,7.9));
#1102=VECTOR('',#1103,1.);
#1103=DIRECTION('',(0.,0.,1.));
#1104=CARTESIAN_POINT('',(10.,2.22044604925031E-16,25.15));
#1105=VECTOR('',#1106,1.);
#1106=DIRECTION('',(1.,0.,0.));
#1107=CARTESIAN_POINT('',(10.,0.,13.85));
#1108=AXIS2_PLACEMENT_3D('',#1109,#1110,#1111);
#1109=CARTESIAN_POINT('',(10.,0.,18.));
#1110=DIRECTION('',(0.,-1.,0.));
#1111=DIRECTION('',(6.12323399573677E-17,0.,-1.));
#1112=CARTESIAN_POINT('',(10.,0.,37.85));
#1113=AXIS2_PLACEMENT_3D('',#1114,#1115,#1116);
#1114=CARTESIAN_POINT('',(10.,0.,42.));
#1115=DIRECTION('',(0.,-1.,0.));
#1116=DIRECTION('',(6.12323399573677E-17,0.,-1.));
#1117=CARTESIAN_POINT('',(18.5,5.,30.));
#1118=CARTESIAN_POINT('',(18.5,20.,44.9999999960795));
#1119=VECTOR('',#1120,1.);
#1120=DIRECTION('',(-1.67476528948156E-16,-0.707106781278955,-0.70710678109414));
#1121=CARTESIAN_POINT('',(1.5,5.,30.));
#1122=CARTESIAN_POINT('',(1.5,5.,30.));
#1123=VECTOR('',#1124,1.);
#1124=DIRECTION('',(1.,0.,0.));
#1125=CARTESIAN_POINT('',(1.5,5.,30.));
#1126=VECTOR('',#1127,1.);
#1127=DIRECTION('',(0.,0.707106781278955,0.70710678109414));
#1128=CARTESIAN_POINT('',(2.76718248903648E-35,18.5,58.5));
#1129=CARTESIAN_POINT('',(0.,0.,58.5));
#1130=CARTESIAN_POINT('',(5.53436497807297E-35,18.5,58.5));
#1131=VECTOR('',#1132,1.);
#1132=DIRECTION('',(-2.9915486367962E-36,-1.,0.));
#1133=CARTESIAN_POINT('',(3.68957665204865E-35,18.5,45.621320339754));
#1134=CARTESIAN_POINT('',(5.53436497807297E-35,18.5,45.621320339754));
#1135=VECTOR('',#1136,1.);
#1136=DIRECTION('',(0.,0.,1.));
#1137=CARTESIAN_POINT('',(5.74114013411184E-36,2.87867965616313,30.));
#1138=CARTESIAN_POINT('',(8.61171020116777E-36,2.87867965616314,30.));
#1139=VECTOR('',#1140,1.);
#1140=DIRECTION('',(2.1153443276044E-36,0.707106781278955,0.70710678109414));
#1141=CARTESIAN_POINT('',(-7.40148683083438E-17,18.5,14.378679660246));
#1142=CARTESIAN_POINT('',(5.53436497807297E-35,18.5,14.378679660246));
#1143=VECTOR('',#1144,1.);
#1144=DIRECTION('',(-2.11534432760441E-36,-0.707106781278955,0.70710678109414));
#1145=CARTESIAN_POINT('',(-3.70074341541719E-16,18.5,1.5));
#1146=CARTESIAN_POINT('',(-5.55111512312578E-16,18.5,1.5));
#1147=VECTOR('',#1148,1.);
#1148=DIRECTION('',(3.44825107515391E-17,0.,1.));
#1149=CARTESIAN_POINT('',(3.56368628012293E-51,5.9211894646675E-16,1.5));
#1150=CARTESIAN_POINT('',(5.53436497807297E-35,18.5,1.5));
#1151=VECTOR('',#1152,1.);
#1152=DIRECTION('',(-2.9915486367962E-36,-1.,0.));
#1153=CARTESIAN_POINT('',(0.,0.,5.1));
#1154=CARTESIAN_POINT('',(0.,0.,1.5));
#1155=VECTOR('',#1156,1.);
#1156=DIRECTION('',(0.,0.,1.));
#1157=CARTESIAN_POINT('',(0.,-2.8,5.1));
#1158=CARTESIAN_POINT('',(0.,0.,5.1));
#1159=VECTOR('',#1160,1.);
#1160=DIRECTION('',(-2.9915486367962E-36,-1.,0.));
#1161=CARTESIAN_POINT('',(0.,-2.8,7.9));
#1162=CARTESIAN_POINT('',(-8.37633618302936E-36,-2.8,5.1));
#1163=VECTOR('',#1164,1.);
#1164=DIRECTION('',(0.,0.,1.));
#1165=CARTESIAN_POINT('',(-8.37633618302936E-36,-2.8,7.9));
#1166=VECTOR('',#1167,1.);
#1167=DIRECTION('',(2.9915486367962E-36,1.,0.));
#1168=CARTESIAN_POINT('',(0.,-2.8,52.1));
#1169=CARTESIAN_POINT('',(0.,0.,52.1));
#1170=VECTOR('',#1171,1.);
#1171=DIRECTION('',(-2.9915486367962E-36,-1.,0.));
#1172=CARTESIAN_POINT('',(0.,-2.8,54.9));
#1173=CARTESIAN_POINT('',(-8.37633618302936E-36,-2.8,52.1));
#1174=VECTOR('',#1175,1.);
#1175=DIRECTION('',(0.,0.,1.));
#1176=CARTESIAN_POINT('',(0.,0.,54.9));
#1177=CARTESIAN_POINT('',(-8.37633618302936E-36,-2.8,54.9));
#1178=VECTOR('',#1179,1.);
#1179=DIRECTION('',(2.9915486367962E-36,1.,0.));
#1180=CARTESIAN_POINT('',(0.,0.,54.9));
#1181=VECTOR('',#1182,1.);
#1182=DIRECTION('',(0.,0.,1.));
#1183=CARTESIAN_POINT('',(0.,15.,53.25));
#1184=AXIS2_PLACEMENT_3D('',#1185,#1186,#1187);
#1185=CARTESIAN_POINT('',(8.9746459103886E-35,15.,55.));
#1186=DIRECTION('',(1.,-5.9830972735924E-36,0.));
#1187=DIRECTION('',(-7.32718092509219E-52,-1.22464679914735E-16,-1.));
#1188=CARTESIAN_POINT('',(0.,15.,3.24999999999999));
#1189=AXIS2_PLACEMENT_3D('',#1190,#1191,#1192);
#1190=CARTESIAN_POINT('',(8.97464591038858E-35,15.,4.99999999999999));
#1191=DIRECTION('',(1.,-5.9830972735924E-36,0.));
#1192=DIRECTION('',(-7.32718092509219E-52,-1.22464679914735E-16,-1.));
#1193=CARTESIAN_POINT('',(18.5,18.5,60.));
#1194=CARTESIAN_POINT('',(1.5,18.5,60.));
#1195=CARTESIAN_POINT('',(18.5,18.5,60.));
#1196=VECTOR('',#1197,1.);
#1197=DIRECTION('',(-1.,0.,0.));
#1198=CARTESIAN_POINT('',(1.5,-1.48029736616688E-16,60.));
#1199=CARTESIAN_POINT('',(1.5,18.5,60.));
#1200=VECTOR('',#1201,1.);
#1201=DIRECTION('',(0.,-1.,0.));
#1202=CARTESIAN_POINT('',(18.5,-4.44089209850063E-16,60.));
#1203=CARTESIAN_POINT('',(1.5,0.,60.));
#1204=VECTOR('',#1205,1.);
#1205=DIRECTION('',(1.,0.,0.));
#1206=CARTESIAN_POINT('',(18.5,-8.88178419700125E-16,60.));
#1207=VECTOR('',#1208,1.);
#1208=DIRECTION('',(0.,1.,0.));
#1209=CARTESIAN_POINT('',(20.,-1.03620815631681E-15,1.5));
#1210=CARTESIAN_POINT('',(20.,18.5,1.5));
#1211=CARTESIAN_POINT('',(20.,-1.77635683940025E-15,1.5));
#1212=VECTOR('',#1213,1.);
#1213=DIRECTION('',(0.,1.,0.));
#1214=CARTESIAN_POINT('',(20.,18.5,14.378679660246));
#1215=CARTESIAN_POINT('',(20.,18.5,1.5));
#1216=VECTOR('',#1217,1.);
#1217=DIRECTION('',(0.,0.,1.));
#1218=CARTESIAN_POINT('',(20.,2.87867965616313,30.));
#1219=CARTESIAN_POINT('',(20.,2.87867965616314,30.));
#1220=VECTOR('',#1221,1.);
#1221=DIRECTION('',(0.,0.707106781278955,-0.70710678109414));
#1222=CARTESIAN_POINT('',(20.,18.5,45.621320339754));
#1223=CARTESIAN_POINT('',(20.,18.5,45.621320339754));
#1224=VECTOR('',#1225,1.);
#1225=DIRECTION('',(0.,-0.707106781278955,-0.70710678109414));
#1226=CARTESIAN_POINT('',(20.,18.5,58.5));
#1227=CARTESIAN_POINT('',(20.,18.5,45.621320339754));
#1228=VECTOR('',#1229,1.);
#1229=DIRECTION('',(0.,0.,1.));
#1230=CARTESIAN_POINT('',(20.,-5.9211894646675E-16,58.5));
#1231=CARTESIAN_POINT('',(20.,-8.88178419700125E-16,58.5));
#1232=VECTOR('',#1233,1.);
#1233=DIRECTION('',(0.,1.,0.));
#1234=CARTESIAN_POINT('',(20.,-4.40007053852904E-16,54.9));
#1235=CARTESIAN_POINT('',(20.,-4.44089209850063E-16,54.9));
#1236=VECTOR('',#1237,1.);
#1237=DIRECTION('',(0.,0.,1.));
#1238=CARTESIAN_POINT('',(20.,-2.8,54.9));
#1239=CARTESIAN_POINT('',(20.,-8.7593195170865E-16,54.9));
#1240=VECTOR('',#1241,1.);
#1241=DIRECTION('',(0.,-1.,0.));
#1242=CARTESIAN_POINT('',(20.,-2.8,52.1));
#1243=CARTESIAN_POINT('',(20.,-2.8,54.9));
#1244=VECTOR('',#1245,1.);
#1245=DIRECTION('',(0.,-1.58603289232165E-16,-1.));
#1246=CARTESIAN_POINT('',(20.,-2.8,52.1));
#1247=VECTOR('',#1248,1.);
#1248=DIRECTION('',(0.,1.,0.));
#1249=CARTESIAN_POINT('',(20.,-3.,36.35));
#1250=CARTESIAN_POINT('',(20.,-8.75931951708652E-16,34.85));
#1251=VECTOR('',#1252,1.);
#1252=DIRECTION('',(0.,-0.894427190999916,0.447213595499958));
#1253=CARTESIAN_POINT('',(20.,-3.,23.65));
#1254=CARTESIAN_POINT('',(20.,-3.,36.35));
#1255=VECTOR('',#1256,1.);
#1256=DIRECTION('',(0.,-1.04902962956708E-16,-1.));
#1257=CARTESIAN_POINT('',(20.,-3.,23.65));
#1258=VECTOR('',#1259,1.);
#1259=DIRECTION('',(0.,0.894427190999916,0.447213595499958));
#1260=CARTESIAN_POINT('',(20.,-2.8,7.9));
#1261=CARTESIAN_POINT('',(20.,-5.5752378393034E-16,7.9));
#1262=VECTOR('',#1263,1.);
#1263=DIRECTION('',(0.,-1.,0.));
#1264=CARTESIAN_POINT('',(20.,-2.8,5.1));
#1265=CARTESIAN_POINT('',(20.,-2.8,7.9));
#1266=VECTOR('',#1267,1.);
#1267=DIRECTION('',(0.,-1.58603289232165E-16,-1.));
#1268=CARTESIAN_POINT('',(20.,-4.46130287848642E-16,5.1));
#1269=CARTESIAN_POINT('',(20.,-2.8,5.1));
#1270=VECTOR('',#1271,1.);
#1271=DIRECTION('',(0.,1.,0.));
#1272=CARTESIAN_POINT('',(20.,-4.44089209850063E-16,1.5));
#1273=VECTOR('',#1274,1.);
#1274=DIRECTION('',(0.,0.,1.));
#1275=CARTESIAN_POINT('',(20.,15.,53.25));
#1276=AXIS2_PLACEMENT_3D('',#1277,#1278,#1279);
#1277=CARTESIAN_POINT('',(20.,15.,55.));
#1278=DIRECTION('',(1.,0.,0.));
#1279=DIRECTION('',(0.,-1.22464679914735E-16,-1.));
#1280=CARTESIAN_POINT('',(20.,15.,3.24999999999999));
#1281=AXIS2_PLACEMENT_3D('',#1282,#1283,#1284);
#1282=CARTESIAN_POINT('',(20.,15.,4.99999999999999));
#1283=DIRECTION('',(1.,0.,0.));
#1284=DIRECTION('',(0.,-1.22464679914735E-16,-1.));
#1285=CARTESIAN_POINT('',(18.5,5.,30.));
#1286=VECTOR('',#1287,1.);
#1287=DIRECTION('',(0.,0.707106781278955,-0.70710678109414));
#1288=CARTESIAN_POINT('',(1.5,20.,15.0000000039205));
#1289=VECTOR('',#1290,1.);
#1290=DIRECTION('',(0.,-0.707106781278955,0.70710678109414));
#1291=CARTESIAN_POINT('',(18.5,-8.88178419700125E-16,0.));
#1292=CARTESIAN_POINT('',(18.5,-1.77635683940025E-15,0.));
#1293=VECTOR('',#1294,1.);
#1294=DIRECTION('',(0.,1.,0.));
#1295=CARTESIAN_POINT('',(1.5,2.96059473233375E-16,0.));
#1296=CARTESIAN_POINT('',(1.5,0.,0.));
#1297=VECTOR('',#1298,1.);
#1298=DIRECTION('',(1.,0.,0.));
#1299=CARTESIAN_POINT('',(1.5,20.,0.));
#1300=VECTOR('',#1301,1.);
#1301=DIRECTION('',(0.,-1.,0.));
#1302=CARTESIAN_POINT('',(10.,-3.,23.65));
#1303=CARTESIAN_POINT('',(10.,8.88178419700125E-16,25.15));
#1304=VECTOR('',#1305,1.);
#1305=DIRECTION('',(0.,-0.894427190999916,-0.447213595499958));
#1306=CARTESIAN_POINT('',(10.,-3.,36.35));
#1307=CARTESIAN_POINT('',(10.,-3.,23.65));
#1308=VECTOR('',#1309,1.);
#1309=DIRECTION('',(0.,1.04902962956708E-16,1.));
#1310=CARTESIAN_POINT('',(10.,-3.,36.35));
#1311=VECTOR('',#1312,1.);
#1312=DIRECTION('',(0.,0.894427190999916,-0.447213595499958));
#1313=CARTESIAN_POINT('',(10.,-3.,36.35));
#1314=VECTOR('',#1315,1.);
#1315=DIRECTION('',(1.,0.,0.));
#1316=CARTESIAN_POINT('',(0.,-2.8,52.1));
#1317=VECTOR('',#1318,1.);
#1318=DIRECTION('',(1.,0.,0.));
#1319=CARTESIAN_POINT('',(0.,-2.8,7.9));
#1320=VECTOR('',#1321,1.);
#1321=DIRECTION('',(1.,0.,0.));
#1322=CARTESIAN_POINT('',(10.,-3.,23.65));
#1323=VECTOR('',#1324,1.);
#1324=DIRECTION('',(1.,0.,0.));
#1325=CARTESIAN_POINT('',(10.,8.5,13.85));
#1326=AXIS2_PLACEMENT_3D('',#1327,#1328,#1329);
#1327=CARTESIAN_POINT('',(10.,8.5,18.));
#1328=DIRECTION('',(0.,-1.,0.));
#1329=DIRECTION('',(6.12323399573677E-17,0.,-1.));
#1330=CARTESIAN_POINT('',(10.,8.5,37.85));
#1331=AXIS2_PLACEMENT_3D('',#1332,#1333,#1334);
#1332=CARTESIAN_POINT('',(10.,8.5,42.));
#1333=DIRECTION('',(0.,-1.,0.));
#1334=DIRECTION('',(6.12323399573677E-17,0.,-1.));
#1335=AXIS2_PLACEMENT_3D('',#1336,#1337,#1338);
#1336=CARTESIAN_POINT('',(18.5,0.,1.5));
#1337=DIRECTION('',(0.,-1.,0.));
#1338=DIRECTION('',(2.368475785867E-15,0.,-1.));
#1339=CARTESIAN_POINT('',(0.,0.,5.1));
#1340=VECTOR('',#1341,1.);
#1341=DIRECTION('',(1.,0.,0.));
#1342=AXIS2_PLACEMENT_3D('',#1343,#1344,#1345);
#1343=CARTESIAN_POINT('',(1.5,0.,1.5));
#1344=DIRECTION('',(0.,-1.,0.));
#1345=DIRECTION('',(-1.,0.,1.48029736616688E-16));
#1346=CARTESIAN_POINT('',(0.,-2.8,5.1));
#1347=VECTOR('',#1348,1.);
#1348=DIRECTION('',(1.,0.,0.));
#1349=CARTESIAN_POINT('',(0.,-2.8,54.9));
#1350=VECTOR('',#1351,1.);
#1351=DIRECTION('',(1.,0.,0.));
#1352=CARTESIAN_POINT('',(20.,0.,54.9));
#1353=VECTOR('',#1354,1.);
#1354=DIRECTION('',(-1.,0.,0.));
#1355=AXIS2_PLACEMENT_3D('',#1356,#1357,#1358);
#1356=CARTESIAN_POINT('',(1.5,0.,58.5));
#1357=DIRECTION('',(0.,-1.,0.));
#1358=DIRECTION('',(-1.48029736616688E-16,0.,1.));
#1359=AXIS2_PLACEMENT_3D('',#1360,#1361,#1362);
#1360=CARTESIAN_POINT('',(18.5,0.,58.5));
#1361=DIRECTION('',(0.,-1.,0.));
#1362=DIRECTION('',(1.,0.,0.));
#1363=AXIS2_PLACEMENT_3D('',#1364,#1365,#1366);
#1364=CARTESIAN_POINT('',(1.5,18.5,58.5));
#1365=DIRECTION('',(0.,0.,1.));
#1366=DIRECTION('',(-6.12323399573677E-17,1.,0.));
#1367=CARTESIAN_POINT('',(1.5,20.,44.9999999960795));
#1368=CARTESIAN_POINT('',(0.621320343559643,20.,44.9999999960795));
#1369=CARTESIAN_POINT('',(2.22044604925031E-16,19.3786796564404,45.2573593090078));
#1370=CARTESIAN_POINT('',(0.,18.5,45.621320339754));
#1371=CARTESIAN_POINT('',(0.,2.87867965616314,30.));
#1372=CARTESIAN_POINT('',(-2.22044604925031E-16,4.12132034344482,30.));
#1373=CARTESIAN_POINT('',(0.621320343559642,5.00000000000001,30.));
#1374=CARTESIAN_POINT('',(1.5,5.00000000000001,30.));
#1375=CARTESIAN_POINT('',(0.,18.5,14.378679660246));
#1376=CARTESIAN_POINT('',(-2.22044604925031E-16,19.3786796564404,14.7426406909922));
#1377=CARTESIAN_POINT('',(0.621320343559642,20.,15.0000000039205));
#1378=CARTESIAN_POINT('',(1.5,20.,15.0000000039205));
#1379=CARTESIAN_POINT('',(1.5,20.,1.77635683940025E-15));
#1380=CARTESIAN_POINT('',(0.621320343559642,20.,1.55431223447522E-15));
#1381=CARTESIAN_POINT('',(-8.88178419700125E-16,19.3786796564404,0.621320343559644));
#1382=CARTESIAN_POINT('',(-8.88178419700125E-16,18.5,1.5));
#1383=AXIS2_PLACEMENT_3D('',#1384,#1385,#1386);
#1384=CARTESIAN_POINT('',(18.5,18.5,58.5));
#1385=DIRECTION('',(0.,1.,0.));
#1386=DIRECTION('',(0.,0.,1.));
#1387=CARTESIAN_POINT('',(20.,18.5,1.5));
#1388=CARTESIAN_POINT('',(20.,19.3786796564404,0.621320343559642));
#1389=CARTESIAN_POINT('',(19.3786796564404,20.,-2.22044604925031E-16));
#1390=CARTESIAN_POINT('',(18.5,20.,-2.22044604925031E-16));
#1391=CARTESIAN_POINT('',(20.,18.5,14.378679660246));
#1392=CARTESIAN_POINT('',(20.,19.3786796564404,14.7426406909922));
#1393=CARTESIAN_POINT('',(19.3786796564404,20.,15.0000000039205));
#1394=CARTESIAN_POINT('',(18.5,20.,15.0000000039205));
#1395=CARTESIAN_POINT('',(20.,2.87867965616314,30.));
#1396=CARTESIAN_POINT('',(20.,4.12132034344482,30.));
#1397=CARTESIAN_POINT('',(19.3786796564404,5.,30.));
#1398=CARTESIAN_POINT('',(18.5,5.,30.));
#1399=CARTESIAN_POINT('',(20.,18.5,45.621320339754));
#1400=CARTESIAN_POINT('',(20.,19.3786796564404,45.2573593090078));
#1401=CARTESIAN_POINT('',(19.3786796564404,20.,44.9999999960795));
#1402=CARTESIAN_POINT('',(18.5,20.,44.9999999960795));
#1403=AXIS2_PLACEMENT_3D('',#1404,#1405,#1406);
#1404=CARTESIAN_POINT('',(18.5,18.5,58.5));
#1405=DIRECTION('',(0.,0.,1.));
#1406=DIRECTION('',(1.,6.12323399573677E-17,0.));
#1407=AXIS2_PLACEMENT_3D('',#1408,#1409,#1410);
#1408=CARTESIAN_POINT('',(18.5,18.5,58.5));
#1409=DIRECTION('',(1.,0.,0.));
#1410=DIRECTION('',(0.,1.,0.));
#1411=AXIS2_PLACEMENT_3D('',#1412,#1413,#1414);
#1412=CARTESIAN_POINT('',(1.5,18.5,58.5));
#1413=DIRECTION('',(1.,0.,0.));
#1414=DIRECTION('',(0.,1.,6.12323399573677E-17));
#1415=AXIS2_PLACEMENT_3D('',#1416,#1417,#1418);
#1416=CARTESIAN_POINT('',(1.5,18.5,58.5));
#1417=DIRECTION('',(1.04899068466779E-15,-1.,0.));
#1418=DIRECTION('',(0.,0.,1.));
ENDSEC;
END-ISO-10303-21;
