ISO-10303-21;
HEADER;
FILE_DESCRIPTION(('STEP AP242'),
    '1');
FILE_NAME('SpringeBackHolder',
    '',
    ('UNSPECIFIED'),
    ('UNSPECIFIED'),
    'C3D Converter',
    'C3D Toolkit',
    '');
FILE_SCHEMA(('AP242_MANAGED_MODEL_BASED_3D_ENGINEERING_MIM_LF { 1 0 10303 442 1 1 4 }'));
ENDSEC;

DATA;
#1=PRODUCT_DEFINITION('','UNSPECIFIED',#28,#31);
#2=SHAPE_DEFINITION_REPRESENTATION(#26,#3);
#3=SHAPE_REPRESENTATION('NONE',(#4),#8);
#4=AXIS2_PLACEMENT_3D('',#5,#6,#7);
#5=CARTESIAN_POINT('',(0.,0.,0.));
#6=DIRECTION('',(0.,0.,1.));
#7=DIRECTION('',(1.,0.,0.));
#8=(GEOMETRIC_REPRESENTATION_CONTEXT(3)GLOBAL_UNCERTAINTY_ASSIGNED_CONTEXT((#10))
GLOBAL_UNIT_ASSIGNED_CONTEXT((#9,#11,#12))REPRESENTATION_CONTEXT('NONE','NONE'));
#9=(LENGTH_UNIT()NAMED_UNIT(*)SI_UNIT(.MILLI.,.METRE.));
#10=UNCERTAINTY_MEASURE_WITH_UNIT(LENGTH_MEASURE(1.E-5),#9,'NONE','NONE');
#11=(NAMED_UNIT(*)PLANE_ANGLE_UNIT()SI_UNIT($,.RADIAN.));
#12=(NAMED_UNIT(*)SI_UNIT($,.STERADIAN.)SOLID_ANGLE_UNIT());
#13=MANIFOLD_SOLID_BREP('',#14);
#14=CLOSED_SHELL('',(#53,#54,#55,#56,#57,#58,#59,#60,#61,#62,#63,#64,#65,#66,#67,
#68,#69,#70,#71,#72,#73,#74,#75,#76,#77,#78,#79,#80,#81,#82,#83,#84,#85,#86,#87,
#88,#89,#90,#91,#92,#93,#94,#95,#96,#97,#98,#99,#100,#101,#102,#103,#104,#105,#106));
#15=COLOUR_RGB('',0.564705882352941,0.564705882352941,0.564705882352941);
#16=FILL_AREA_STYLE_COLOUR('',#15);
#17=FILL_AREA_STYLE($,(#16));
#18=SURFACE_STYLE_FILL_AREA(#17);
#19=SURFACE_SIDE_STYLE('',(#18));
#20=SURFACE_STYLE_USAGE(.BOTH.,#19);
#21=PRESENTATION_STYLE_ASSIGNMENT((#20));
#22=MECHANICAL_DESIGN_GEOMETRIC_PRESENTATION_REPRESENTATION('NONE',(#23),#8);
#23=STYLED_ITEM('',(#21),#13);
#24=ADVANCED_BREP_SHAPE_REPRESENTATION('NONE',(#13),#8);
#25=SHAPE_REPRESENTATION_RELATIONSHIP('','',#3,#24);
#26=PRODUCT_DEFINITION_SHAPE('NONE','NONE',#1);
#27=MECHANICAL_CONTEXT('NONE',#32,'mechanical');
#28=PRODUCT_DEFINITION_FORMATION_WITH_SPECIFIED_SOURCE('ANY','UNSPECIFIED',#29,.NOT_KNOWN.);
#29=PRODUCT('','\X2\0414043504420430043B044C\X0\','NONE',(#27));
#30=PRODUCT_RELATED_PRODUCT_CATEGORY('detail','',(#29));
#31=DESIGN_CONTEXT('detailed design',#32,'design');
#32=APPLICATION_CONTEXT('configuration controlled 3d designs of mechanical parts and assemblies');
#33=APPLICATION_PROTOCOL_DEFINITION('international standard','config_control_design',
1994,#32);
#34=CC_DESIGN_DATE_AND_TIME_ASSIGNMENT(#35,#39,(#1));
#35=DATE_AND_TIME(#36,#37);
#36=CALENDAR_DATE(0,1,1);
#37=LOCAL_TIME(0,0,0.,#38);
#38=COORDINATED_UNIVERSAL_TIME_OFFSET(0,0,.AHEAD.);
#39=DATE_TIME_ROLE('creation_date');
#40=CC_DESIGN_APPROVAL(#41,(#1));
#41=APPROVAL(#42,'UNSPECIFIED');
#42=APPROVAL_STATUS('not_yet_approved');
#43=APPROVAL_DATE_TIME(#44,#41);
#44=DATE_AND_TIME(#45,#46);
#45=CALENDAR_DATE(0,1,1);
#46=LOCAL_TIME(0,0,0.,#47);
#47=COORDINATED_UNIVERSAL_TIME_OFFSET(0,0,.AHEAD.);
#48=PERSON('UNSPECIFIED','Cybermeatball','UNSPECIFIED',('UNSPECIFIED'),('UNSPECIFIED'),
('UNSPECIFIED'));
#49=ORGANIZATION('UNSPECIFIED','UNSPECIFIED','UNSPECIFIED');
#50=PERSON_AND_ORGANIZATION(#48,#49);
#51=PERSON_AND_ORGANIZATION_ROLE('creator');
#52=CC_DESIGN_PERSON_AND_ORGANIZATION_ASSIGNMENT(#50,#51,(#28,#1));
#53=ADVANCED_FACE('',(#107,#109),#111,.F.);
#54=ADVANCED_FACE('',(#116,#118),#120,.F.);
#55=ADVANCED_FACE('',(#125,#127),#129,.T.);
#56=ADVANCED_FACE('',(#134,#136),#138,.T.);
#57=ADVANCED_FACE('',(#143,#145),#147,.T.);
#58=ADVANCED_FACE('',(#152),#154,.F.);
#59=ADVANCED_FACE('',(#159),#161,.F.);
#60=ADVANCED_FACE('',(#166),#168,.F.);
#61=ADVANCED_FACE('',(#173),#175,.F.);
#62=ADVANCED_FACE('',(#180),#182,.F.);
#63=ADVANCED_FACE('',(#187),#189,.F.);
#64=ADVANCED_FACE('',(#194,#196),#198,.T.);
#65=ADVANCED_FACE('',(#203),#205,.F.);
#66=ADVANCED_FACE('',(#210),#212,.F.);
#67=ADVANCED_FACE('',(#217),#219,.F.);
#68=ADVANCED_FACE('',(#224),#226,.F.);
#69=ADVANCED_FACE('',(#231),#233,.F.);
#70=ADVANCED_FACE('',(#238),#240,.F.);
#71=ADVANCED_FACE('',(#245,#247,#249),#251,.F.);
#72=ADVANCED_FACE('',(#256),#258,.T.);
#73=ADVANCED_FACE('',(#263),#265,.T.);
#74=ADVANCED_FACE('',(#270),#272,.T.);
#75=ADVANCED_FACE('',(#277),#279,.T.);
#76=ADVANCED_FACE('',(#284),#286,.T.);
#77=ADVANCED_FACE('',(#291),#293,.T.);
#78=ADVANCED_FACE('',(#298),#300,.T.);
#79=ADVANCED_FACE('',(#305),#307,.T.);
#80=ADVANCED_FACE('',(#312),#314,.F.);
#81=ADVANCED_FACE('',(#319),#321,.T.);
#82=ADVANCED_FACE('',(#326),#328,.T.);
#83=ADVANCED_FACE('',(#333),#335,.T.);
#84=ADVANCED_FACE('',(#340),#342,.T.);
#85=ADVANCED_FACE('',(#347),#349,.T.);
#86=ADVANCED_FACE('',(#354),#356,.T.);
#87=ADVANCED_FACE('',(#361),#363,.T.);
#88=ADVANCED_FACE('',(#368),#370,.T.);
#89=ADVANCED_FACE('',(#375),#377,.T.);
#90=ADVANCED_FACE('',(#382),#384,.T.);
#91=ADVANCED_FACE('',(#389),#391,.T.);
#92=ADVANCED_FACE('',(#396),#398,.T.);
#93=ADVANCED_FACE('',(#403),#405,.T.);
#94=ADVANCED_FACE('',(#410),#412,.T.);
#95=ADVANCED_FACE('',(#417),#419,.T.);
#96=ADVANCED_FACE('',(#424),#426,.T.);
#97=ADVANCED_FACE('',(#431),#433,.T.);
#98=ADVANCED_FACE('',(#438),#440,.T.);
#99=ADVANCED_FACE('',(#445),#447,.T.);
#100=ADVANCED_FACE('',(#452),#454,.T.);
#101=ADVANCED_FACE('',(#459),#461,.T.);
#102=ADVANCED_FACE('',(#466),#468,.T.);
#103=ADVANCED_FACE('',(#473),#475,.T.);
#104=ADVANCED_FACE('',(#480),#482,.T.);
#105=ADVANCED_FACE('',(#487),#489,.T.);
#106=ADVANCED_FACE('',(#494),#496,.T.);
#107=FACE_OUTER_BOUND('',#108,.T.);
#108=EDGE_LOOP('',(#501));
#109=FACE_OUTER_BOUND('',#110,.T.);
#110=EDGE_LOOP('',(#502));
#111=CYLINDRICAL_SURFACE('',#112,1.75);
#112=AXIS2_PLACEMENT_3D('',#113,#114,#115);
#113=CARTESIAN_POINT('',(25.,4.99999999999999,-1.77635683940025E-15));
#114=DIRECTION('',(0.,0.,1.));
#115=DIRECTION('',(-1.,1.22464679914735E-16,0.));
#116=FACE_OUTER_BOUND('',#117,.T.);
#117=EDGE_LOOP('',(#503));
#118=FACE_OUTER_BOUND('',#119,.T.);
#119=EDGE_LOOP('',(#504));
#120=CYLINDRICAL_SURFACE('',#121,1.75);
#121=AXIS2_PLACEMENT_3D('',#122,#123,#124);
#122=CARTESIAN_POINT('',(-25.,5.00000000000001,-1.77635683940025E-15));
#123=DIRECTION('',(0.,0.,1.));
#124=DIRECTION('',(-1.,1.22464679914735E-16,0.));
#125=FACE_BOUND('',#126,.T.);
#126=EDGE_LOOP('',(#505,#506,#507,#508));
#127=FACE_BOUND('',#128,.T.);
#128=EDGE_LOOP('',(#509,#510,#511,#512,#513,#514));
#129=PLANE('',#130);
#130=AXIS2_PLACEMENT_3D('',#131,#132,#133);
#131=CARTESIAN_POINT('',(0.,0.,5.));
#132=DIRECTION('',(0.,0.,1.));
#133=DIRECTION('',(-1.,1.22464679914735E-16,0.));
#134=FACE_BOUND('',#135,.T.);
#135=EDGE_LOOP('',(#515,#516,#517,#518));
#136=FACE_BOUND('',#137,.T.);
#137=EDGE_LOOP('',(#519,#520,#521,#522,#523,#524));
#138=PLANE('',#139);
#139=AXIS2_PLACEMENT_3D('',#140,#141,#142);
#140=CARTESIAN_POINT('',(0.,0.,5.));
#141=DIRECTION('',(0.,0.,1.));
#142=DIRECTION('',(-1.,1.22464679914735E-16,0.));
#143=FACE_BOUND('',#144,.T.);
#144=EDGE_LOOP('',(#525,#526,#527,#528,#529,#530));
#145=FACE_BOUND('',#146,.T.);
#146=EDGE_LOOP('',(#531));
#147=PLANE('',#148);
#148=AXIS2_PLACEMENT_3D('',#149,#150,#151);
#149=CARTESIAN_POINT('',(0.,0.,2.5));
#150=DIRECTION('',(0.,0.,1.));
#151=DIRECTION('',(-1.,1.22464679914735E-16,0.));
#152=FACE_BOUND('',#153,.T.);
#153=EDGE_LOOP('',(#532,#533,#534,#535));
#154=PLANE('',#155);
#155=AXIS2_PLACEMENT_3D('',#156,#157,#158);
#156=CARTESIAN_POINT('',(-28.2331615074515,5.00000000000001,2.5));
#157=DIRECTION('',(-0.866025403784439,-0.5,0.));
#158=DIRECTION('',(0.5,-0.866025403784439,0.));
#159=FACE_BOUND('',#160,.T.);
#160=EDGE_LOOP('',(#536,#537,#538,#539));
#161=PLANE('',#162);
#162=AXIS2_PLACEMENT_3D('',#163,#164,#165);
#163=CARTESIAN_POINT('',(-26.6165807537258,7.79999999999101,2.5));
#164=DIRECTION('',(-0.866025403784439,0.5,0.));
#165=DIRECTION('',(-0.5,-0.866025403784439,0.));
#166=FACE_BOUND('',#167,.T.);
#167=EDGE_LOOP('',(#540,#541,#542,#543));
#168=PLANE('',#169);
#169=AXIS2_PLACEMENT_3D('',#170,#171,#172);
#170=CARTESIAN_POINT('',(-23.3834192462742,7.79999999999101,2.5));
#171=DIRECTION('',(-2.74708955198535E-16,1.,0.));
#172=DIRECTION('',(-1.,-2.74708955198535E-16,0.));
#173=FACE_BOUND('',#174,.T.);
#174=EDGE_LOOP('',(#544,#545,#546,#547));
#175=PLANE('',#176);
#176=AXIS2_PLACEMENT_3D('',#177,#178,#179);
#177=CARTESIAN_POINT('',(-21.7668384925485,5.00000000000001,2.5));
#178=DIRECTION('',(0.866025403784438,0.500000000000001,0.));
#179=DIRECTION('',(-0.500000000000001,0.866025403784438,0.));
#180=FACE_BOUND('',#181,.T.);
#181=EDGE_LOOP('',(#548,#549,#550,#551));
#182=PLANE('',#183);
#183=AXIS2_PLACEMENT_3D('',#184,#185,#186);
#184=CARTESIAN_POINT('',(-23.3834192462742,2.200000000009,2.5));
#185=DIRECTION('',(0.866025403784439,-0.5,0.));
#186=DIRECTION('',(0.5,0.866025403784439,0.));
#187=FACE_BOUND('',#188,.T.);
#188=EDGE_LOOP('',(#552,#553,#554,#555));
#189=PLANE('',#190);
#190=AXIS2_PLACEMENT_3D('',#191,#192,#193);
#191=CARTESIAN_POINT('',(-26.6165807537258,2.20000000000901,2.5));
#192=DIRECTION('',(-5.49417910397069E-16,-1.,0.));
#193=DIRECTION('',(1.,-5.49417910397069E-16,0.));
#194=FACE_BOUND('',#195,.T.);
#195=EDGE_LOOP('',(#556,#557,#558,#559,#560,#561));
#196=FACE_BOUND('',#197,.T.);
#197=EDGE_LOOP('',(#562));
#198=PLANE('',#199);
#199=AXIS2_PLACEMENT_3D('',#200,#201,#202);
#200=CARTESIAN_POINT('',(0.,0.,2.5));
#201=DIRECTION('',(0.,0.,1.));
#202=DIRECTION('',(-1.,1.22464679914735E-16,0.));
#203=FACE_BOUND('',#204,.T.);
#204=EDGE_LOOP('',(#563,#564,#565,#566));
#205=PLANE('',#206);
#206=AXIS2_PLACEMENT_3D('',#207,#208,#209);
#207=CARTESIAN_POINT('',(23.3834192462742,2.20000000000899,2.5));
#208=DIRECTION('',(-1.37354477599267E-16,-1.,0.));
#209=DIRECTION('',(1.,-1.37354477599267E-16,0.));
#210=FACE_BOUND('',#211,.T.);
#211=EDGE_LOOP('',(#567,#568,#569,#570));
#212=PLANE('',#213);
#213=AXIS2_PLACEMENT_3D('',#214,#215,#216);
#214=CARTESIAN_POINT('',(21.7668384925485,5.,2.5));
#215=DIRECTION('',(-0.866025403784439,-0.499999999999999,0.));
#216=DIRECTION('',(0.499999999999999,-0.866025403784439,0.));
#217=FACE_BOUND('',#218,.T.);
#218=EDGE_LOOP('',(#571,#572,#573,#574));
#219=PLANE('',#220);
#220=AXIS2_PLACEMENT_3D('',#221,#222,#223);
#221=CARTESIAN_POINT('',(23.3834192462742,7.799999999991,2.5));
#222=DIRECTION('',(-0.866025403784438,0.500000000000001,0.));
#223=DIRECTION('',(-0.500000000000001,-0.866025403784438,0.));
#224=FACE_BOUND('',#225,.T.);
#225=EDGE_LOOP('',(#575,#576,#577,#578));
#226=PLANE('',#227);
#227=AXIS2_PLACEMENT_3D('',#228,#229,#230);
#228=CARTESIAN_POINT('',(26.6165807537258,7.79999999999099,2.5));
#229=DIRECTION('',(1.09883582079414E-15,1.,0.));
#230=DIRECTION('',(-1.,1.09883582079414E-15,0.));
#231=FACE_BOUND('',#232,.T.);
#232=EDGE_LOOP('',(#579,#580,#581,#582));
#233=PLANE('',#234);
#234=AXIS2_PLACEMENT_3D('',#235,#236,#237);
#235=CARTESIAN_POINT('',(28.2331615074515,4.99999999999999,2.5));
#236=DIRECTION('',(0.866025403784439,0.5,0.));
#237=DIRECTION('',(-0.5,0.866025403784439,0.));
#238=FACE_BOUND('',#239,.T.);
#239=EDGE_LOOP('',(#583,#584,#585,#586));
#240=PLANE('',#241);
#241=AXIS2_PLACEMENT_3D('',#242,#243,#244);
#242=CARTESIAN_POINT('',(26.6165807537258,2.20000000000899,2.5));
#243=DIRECTION('',(0.866025403784438,-0.500000000000001,0.));
#244=DIRECTION('',(0.500000000000001,0.866025403784438,0.));
#245=FACE_BOUND('',#246,.T.);
#246=EDGE_LOOP('',(#587,#588,#589,#590,#591,#592,#593,#594,#595,#596,#597,#598,#599,
#600));
#247=FACE_BOUND('',#248,.T.);
#248=EDGE_LOOP('',(#601));
#249=FACE_BOUND('',#250,.T.);
#250=EDGE_LOOP('',(#602));
#251=PLANE('',#252);
#252=AXIS2_PLACEMENT_3D('',#253,#254,#255);
#253=CARTESIAN_POINT('',(0.,0.,0.));
#254=DIRECTION('',(0.,0.,1.));
#255=DIRECTION('',(-1.,1.22464679914735E-16,0.));
#256=FACE_BOUND('',#257,.T.);
#257=EDGE_LOOP('',(#603,#604,#605,#606,#607,#608));
#258=PLANE('',#259);
#259=AXIS2_PLACEMENT_3D('',#260,#261,#262);
#260=CARTESIAN_POINT('',(15.,-3.14999310229997E-15,0.));
#261=DIRECTION('',(-4.35231119278565E-16,-1.,0.));
#262=DIRECTION('',(1.,-4.35231119278565E-16,0.));
#263=FACE_BOUND('',#264,.T.);
#264=EDGE_LOOP('',(#609,#610,#611,#612,#613,#614,#615));
#265=PLANE('',#266);
#266=AXIS2_PLACEMENT_3D('',#267,#268,#269);
#267=CARTESIAN_POINT('',(30.,-9.12334837916587E-15,0.));
#268=DIRECTION('',(1.,-2.368475785867E-16,0.));
#269=DIRECTION('',(2.368475785867E-16,1.,0.));
#270=FACE_BOUND('',#271,.T.);
#271=EDGE_LOOP('',(#616,#617,#618,#619,#620));
#272=PLANE('',#273);
#273=AXIS2_PLACEMENT_3D('',#274,#275,#276);
#274=CARTESIAN_POINT('',(42.,13.,2.));
#275=DIRECTION('',(0.,0.707106781186547,0.707106781186548));
#276=DIRECTION('',(-1.,0.,0.));
#277=FACE_BOUND('',#278,.T.);
#278=EDGE_LOOP('',(#621,#622,#623,#624,#625,#626));
#279=PLANE('',#280);
#280=AXIS2_PLACEMENT_3D('',#281,#282,#283);
#281=CARTESIAN_POINT('',(17.,22.,2.));
#282=DIRECTION('',(-0.707106781186548,7.38867039380601E-17,0.707106781186547));
#283=DIRECTION('',(-1.0449157878825E-16,-1.,-8.20307199256963E-33));
#284=FACE_BOUND('',#285,.T.);
#285=EDGE_LOOP('',(#627,#628,#629,#630,#631,#632));
#286=PLANE('',#287);
#287=AXIS2_PLACEMENT_3D('',#288,#289,#290);
#288=CARTESIAN_POINT('',(-17.,-12.,2.));
#289=DIRECTION('',(0.707106781186548,-4.4332022362836E-16,0.707106781186547));
#290=DIRECTION('',(6.269494727295E-16,1.,-6.56245759405571E-32));
#291=FACE_BOUND('',#292,.T.);
#292=EDGE_LOOP('',(#633,#634,#635,#636,#637));
#293=PLANE('',#294);
#294=AXIS2_PLACEMENT_3D('',#295,#296,#297);
#295=CARTESIAN_POINT('',(-7.99999999999999,13.,2.));
#296=DIRECTION('',(3.694335196903E-16,0.707106781186547,0.707106781186548));
#297=DIRECTION('',(-1.,5.2245789394125E-16,3.28122879702786E-32));
#298=FACE_BOUND('',#299,.T.);
#299=EDGE_LOOP('',(#638,#639,#640,#641,#642,#643,#644));
#300=PLANE('',#301);
#301=AXIS2_PLACEMENT_3D('',#302,#303,#304);
#302=CARTESIAN_POINT('',(-30.,15.,0.));
#303=DIRECTION('',(-1.,7.105427357601E-16,0.));
#304=DIRECTION('',(-7.105427357601E-16,-1.,0.));
#305=FACE_BOUND('',#306,.T.);
#306=EDGE_LOOP('',(#645,#646,#647,#648,#649,#650));
#307=PLANE('',#308);
#308=AXIS2_PLACEMENT_3D('',#309,#310,#311);
#309=CARTESIAN_POINT('',(-30.,9.24635360804443E-15,0.));
#310=DIRECTION('',(-2.14099714449283E-16,-1.,0.));
#311=DIRECTION('',(1.,-2.14099714449283E-16,0.));
#312=FACE_BOUND('',#313,.T.);
#313=EDGE_LOOP('',(#651,#652,#653,#654));
#314=CYLINDRICAL_SURFACE('',#315,2.);
#315=AXIS2_PLACEMENT_3D('',#316,#317,#318);
#316=CARTESIAN_POINT('',(5.32907051820075E-15,12.1715728742596,-8.));
#317=DIRECTION('',(0.,0.,1.));
#318=DIRECTION('',(0.707106781160676,0.707106781212419,0.));
#319=FACE_BOUND('',#320,.T.);
#320=EDGE_LOOP('',(#655,#656,#657,#658));
#321=PLANE('',#322);
#322=AXIS2_PLACEMENT_3D('',#323,#324,#325);
#323=CARTESIAN_POINT('',(-15.,6.03485789130518E-15,0.));
#324=DIRECTION('',(0.707106781160675,-0.70710678121242,0.));
#325=DIRECTION('',(0.70710678121242,0.707106781160675,0.));
#326=FACE_BOUND('',#327,.T.);
#327=EDGE_LOOP('',(#659,#660,#661,#662));
#328=PLANE('',#329);
#329=AXIS2_PLACEMENT_3D('',#330,#331,#332);
#330=CARTESIAN_POINT('',(-15.,15.,0.));
#331=DIRECTION('',(4.736951571734E-16,1.,0.));
#332=DIRECTION('',(-1.,4.736951571734E-16,0.));
#333=FACE_BOUND('',#334,.T.);
#334=EDGE_LOOP('',(#663,#664,#665,#666));
#335=PLANE('',#336);
#336=AXIS2_PLACEMENT_3D('',#337,#338,#339);
#337=CARTESIAN_POINT('',(-15.,8.48528137392811,0.));
#338=DIRECTION('',(1.,-2.72668236551502E-16,0.));
#339=DIRECTION('',(2.72668236551502E-16,1.,0.));
#340=FACE_BOUND('',#341,.T.);
#341=EDGE_LOOP('',(#667,#668,#669,#670));
#342=PLANE('',#343);
#343=AXIS2_PLACEMENT_3D('',#344,#345,#346);
#344=CARTESIAN_POINT('',(1.3128171037639E-14,23.4852813728304,0.));
#345=DIRECTION('',(-0.707106781160675,0.70710678121242,0.));
#346=DIRECTION('',(-0.70710678121242,-0.707106781160675,0.));
#347=FACE_BOUND('',#348,.T.);
#348=EDGE_LOOP('',(#671,#672,#673,#674));
#349=CYLINDRICAL_SURFACE('',#350,12.);
#350=AXIS2_PLACEMENT_3D('',#351,#352,#353);
#351=CARTESIAN_POINT('',(3.5527136788005E-15,6.51471862497423,-14.));
#352=DIRECTION('',(0.,0.,-1.));
#353=DIRECTION('',(-0.707106781160675,0.70710678121242,0.));
#354=FACE_BOUND('',#355,.T.);
#355=EDGE_LOOP('',(#675,#676,#677,#678));
#356=PLANE('',#357);
#357=AXIS2_PLACEMENT_3D('',#358,#359,#360);
#358=CARTESIAN_POINT('',(15.,8.4852813739281,0.));
#359=DIRECTION('',(0.707106781160675,0.70710678121242,0.));
#360=DIRECTION('',(-0.70710678121242,0.707106781160675,0.));
#361=FACE_BOUND('',#362,.T.);
#362=EDGE_LOOP('',(#679,#680,#681,#682));
#363=PLANE('',#364);
#364=AXIS2_PLACEMENT_3D('',#365,#366,#367);
#365=CARTESIAN_POINT('',(15.,15.,0.));
#366=DIRECTION('',(-1.,0.,0.));
#367=DIRECTION('',(0.,-1.,0.));
#368=FACE_BOUND('',#369,.T.);
#369=EDGE_LOOP('',(#683,#684,#685,#686));
#370=PLANE('',#371);
#371=AXIS2_PLACEMENT_3D('',#372,#373,#374);
#372=CARTESIAN_POINT('',(30.,15.,0.));
#373=DIRECTION('',(1.1842378929335E-16,1.,0.));
#374=DIRECTION('',(-1.,1.1842378929335E-16,0.));
#375=FACE_BOUND('',#376,.T.);
#376=EDGE_LOOP('',(#687,#688,#689,#690));
#377=PLANE('',#378);
#378=AXIS2_PLACEMENT_3D('',#379,#380,#381);
#379=CARTESIAN_POINT('',(1.84980001602313E-15,14.9999999989023,0.));
#380=DIRECTION('',(-0.707106781160675,-0.70710678121242,0.));
#381=DIRECTION('',(0.70710678121242,-0.707106781160675,0.));
#382=FACE_BOUND('',#383,.T.);
#383=EDGE_LOOP('',(#691,#692,#693,#694,#695,#696,#697,#698,#699,#700,#701,#702,#703,
#704,#705,#706,#707,#708));
#384=PLANE('',#385);
#385=AXIS2_PLACEMENT_3D('',#386,#387,#388);
#386=CARTESIAN_POINT('',(0.,0.,2.));
#387=DIRECTION('',(0.,0.,1.));
#388=DIRECTION('',(-1.,1.22464679914735E-16,0.));
#389=FACE_BOUND('',#390,.T.);
#390=EDGE_LOOP('',(#709,#710,#711,#712));
#391=CYLINDRICAL_SURFACE('',#392,1.);
#392=AXIS2_PLACEMENT_3D('',#393,#394,#395);
#393=CARTESIAN_POINT('',(16.,0.999999999999996,4.));
#394=DIRECTION('',(1.,-4.37921304157701E-16,0.));
#395=DIRECTION('',(-4.86190314849755E-32,-1.11022302462516E-16,1.));
#396=FACE_BOUND('',#397,.T.);
#397=EDGE_LOOP('',(#713,#714,#715,#716));
#398=CYLINDRICAL_SURFACE('',#399,1.);
#399=AXIS2_PLACEMENT_3D('',#400,#401,#402);
#400=CARTESIAN_POINT('',(29.,-4.00000000000001,4.));
#401=DIRECTION('',(3.94745964311167E-16,1.,0.));
#402=DIRECTION('',(-3.5527136788005E-15,1.38050658413677E-30,1.));
#403=FACE_BOUND('',#404,.T.);
#404=EDGE_LOOP('',(#717,#718,#719,#720));
#405=CYLINDRICAL_SURFACE('',#406,1.);
#406=AXIS2_PLACEMENT_3D('',#407,#408,#409);
#407=CARTESIAN_POINT('',(-29.,14.,4.));
#408=DIRECTION('',(-7.89491928622333E-16,-1.,0.));
#409=DIRECTION('',(0.,0.,1.));
#410=FACE_BOUND('',#411,.T.);
#411=EDGE_LOOP('',(#721,#722,#723,#724));
#412=CYLINDRICAL_SURFACE('',#413,1.);
#413=AXIS2_PLACEMENT_3D('',#414,#415,#416);
#414=CARTESIAN_POINT('',(-34.,1.00000000000001,4.));
#415=DIRECTION('',(1.,-2.09708793540307E-16,0.));
#416=DIRECTION('',(0.,0.,1.));
#417=FACE_BOUND('',#418,.T.);
#418=EDGE_LOOP('',(#725,#726,#727,#728));
#419=CYLINDRICAL_SURFACE('',#420,1.);
#420=AXIS2_PLACEMENT_3D('',#421,#422,#423);
#421=CARTESIAN_POINT('',(-25.,1.00000000000001,1.));
#422=DIRECTION('',(1.,-2.22044604925031E-16,0.));
#423=DIRECTION('',(0.,0.,1.));
#424=FACE_BOUND('',#425,.T.);
#425=EDGE_LOOP('',(#729,#730,#731,#732));
#426=CYLINDRICAL_SURFACE('',#427,1.);
#427=AXIS2_PLACEMENT_3D('',#428,#429,#430);
#428=CARTESIAN_POINT('',(-18.5355339060104,-2.12132034343027,1.));
#429=DIRECTION('',(0.70710678121242,0.707106781160675,0.));
#430=DIRECTION('',(2.22044604925031E-16,-2.2204460494128E-16,1.));
#431=FACE_BOUND('',#432,.T.);
#432=EDGE_LOOP('',(#733,#734,#735,#736));
#433=TOROIDAL_SURFACE('',#434,3.,1.);
#434=AXIS2_PLACEMENT_3D('',#435,#436,#437);
#435=CARTESIAN_POINT('',(5.32907051820075E-15,12.1715728742596,1.));
#436=DIRECTION('',(0.,0.,-1.));
#437=DIRECTION('',(-0.707106781212421,-0.707106781160674,0.));
#438=FACE_BOUND('',#439,.T.);
#439=EDGE_LOOP('',(#737,#738,#739,#740));
#440=CYLINDRICAL_SURFACE('',#441,1.);
#441=AXIS2_PLACEMENT_3D('',#442,#443,#444);
#442=CARTESIAN_POINT('',(-0.707106781367648,17.1213203425396,1.));
#443=DIRECTION('',(0.70710678121242,-0.707106781160675,0.));
#444=DIRECTION('',(1.72084568817306E-15,1.72084568829898E-15,1.));
#445=FACE_BOUND('',#446,.T.);
#446=EDGE_LOOP('',(#741,#742,#743,#744));
#447=CYLINDRICAL_SURFACE('',#448,1.);
#448=AXIS2_PLACEMENT_3D('',#449,#450,#451);
#449=CARTESIAN_POINT('',(11.,0.999999999999999,1.));
#450=DIRECTION('',(1.,-4.59949538773279E-16,0.));
#451=DIRECTION('',(-7.88860905221012E-31,2.2204460492503E-16,1.));
#452=FACE_BOUND('',#453,.T.);
#453=EDGE_LOOP('',(#745,#746,#747,#748));
#454=CYLINDRICAL_SURFACE('',#455,1.);
#455=AXIS2_PLACEMENT_3D('',#456,#457,#458);
#456=CARTESIAN_POINT('',(-11.,14.,1.));
#457=DIRECTION('',(-1.,4.63397436365283E-16,0.));
#458=DIRECTION('',(0.,1.64631841089602E-30,1.));
#459=FACE_BOUND('',#460,.T.);
#460=EDGE_LOOP('',(#749,#750,#751,#752));
#461=CYLINDRICAL_SURFACE('',#462,1.);
#462=AXIS2_PLACEMENT_3D('',#463,#464,#465);
#463=CARTESIAN_POINT('',(34.,14.,1.));
#464=DIRECTION('',(-1.,0.,0.));
#465=DIRECTION('',(0.,0.,1.));
#466=FACE_BOUND('',#467,.T.);
#467=EDGE_LOOP('',(#753,#754,#755,#756));
#468=CYLINDRICAL_SURFACE('',#469,1.);
#469=AXIS2_PLACEMENT_3D('',#470,#471,#472);
#470=CARTESIAN_POINT('',(17.121320343689,4.94974746807298,1.));
#471=DIRECTION('',(-0.70710678121242,0.707106781160675,0.));
#472=DIRECTION('',(-1.77635683927026E-15,-1.77635683940025E-15,1.));
#473=FACE_BOUND('',#474,.T.);
#474=EDGE_LOOP('',(#757,#758,#759,#760));
#475=TOROIDAL_SURFACE('',#476,11.,1.);
#476=AXIS2_PLACEMENT_3D('',#477,#478,#479);
#477=CARTESIAN_POINT('',(3.5527136788005E-15,6.51471862497423,1.));
#478=DIRECTION('',(0.,0.,1.));
#479=DIRECTION('',(0.823308920697493,0.567593535111113,0.));
#480=FACE_BOUND('',#481,.T.);
#481=EDGE_LOOP('',(#761,#762,#763,#764));
#482=CYLINDRICAL_SURFACE('',#483,1.);
#483=AXIS2_PLACEMENT_3D('',#484,#485,#486);
#484=CARTESIAN_POINT('',(-4.94974746791774,17.1213203429535,1.));
#485=DIRECTION('',(-0.70710678121242,-0.707106781160675,0.));
#486=DIRECTION('',(1.33226762958269E-15,-1.33226762968018E-15,1.));
#487=FACE_BOUND('',#488,.T.);
#488=EDGE_LOOP('',(#765,#766,#767,#768));
#489=CYLINDRICAL_SURFACE('',#490,1.);
#490=AXIS2_PLACEMENT_3D('',#491,#492,#493);
#491=CARTESIAN_POINT('',(-16.,3.07106781160676,1.));
#492=DIRECTION('',(2.37975069748298E-16,1.,0.));
#493=DIRECTION('',(1.05682160688535E-31,0.,1.));
#494=FACE_BOUND('',#495,.T.);
#495=EDGE_LOOP('',(#769,#770,#771,#772));
#496=CYLINDRICAL_SURFACE('',#497,1.);
#497=AXIS2_PLACEMENT_3D('',#498,#499,#500);
#498=CARTESIAN_POINT('',(16.,18.,1.));
#499=DIRECTION('',(0.,-1.,0.));
#500=DIRECTION('',(-3.5527136788005E-15,0.,1.));
#501=ORIENTED_EDGE('',*,*,#773,.T.);
#502=ORIENTED_EDGE('',*,*,#774,.F.);
#503=ORIENTED_EDGE('',*,*,#775,.T.);
#504=ORIENTED_EDGE('',*,*,#776,.F.);
#505=ORIENTED_EDGE('',*,*,#777,.T.);
#506=ORIENTED_EDGE('',*,*,#778,.T.);
#507=ORIENTED_EDGE('',*,*,#779,.T.);
#508=ORIENTED_EDGE('',*,*,#780,.T.);
#509=ORIENTED_EDGE('',*,*,#781,.T.);
#510=ORIENTED_EDGE('',*,*,#782,.T.);
#511=ORIENTED_EDGE('',*,*,#783,.T.);
#512=ORIENTED_EDGE('',*,*,#784,.T.);
#513=ORIENTED_EDGE('',*,*,#785,.T.);
#514=ORIENTED_EDGE('',*,*,#786,.T.);
#515=ORIENTED_EDGE('',*,*,#787,.T.);
#516=ORIENTED_EDGE('',*,*,#788,.T.);
#517=ORIENTED_EDGE('',*,*,#789,.T.);
#518=ORIENTED_EDGE('',*,*,#790,.T.);
#519=ORIENTED_EDGE('',*,*,#791,.T.);
#520=ORIENTED_EDGE('',*,*,#792,.T.);
#521=ORIENTED_EDGE('',*,*,#793,.T.);
#522=ORIENTED_EDGE('',*,*,#794,.T.);
#523=ORIENTED_EDGE('',*,*,#795,.T.);
#524=ORIENTED_EDGE('',*,*,#796,.T.);
#525=ORIENTED_EDGE('',*,*,#797,.T.);
#526=ORIENTED_EDGE('',*,*,#798,.T.);
#527=ORIENTED_EDGE('',*,*,#799,.T.);
#528=ORIENTED_EDGE('',*,*,#800,.T.);
#529=ORIENTED_EDGE('',*,*,#801,.T.);
#530=ORIENTED_EDGE('',*,*,#802,.T.);
#531=ORIENTED_EDGE('',*,*,#775,.F.);
#532=ORIENTED_EDGE('',*,*,#792,.F.);
#533=ORIENTED_EDGE('',*,*,#803,.F.);
#534=ORIENTED_EDGE('',*,*,#802,.F.);
#535=ORIENTED_EDGE('',*,*,#804,.T.);
#536=ORIENTED_EDGE('',*,*,#793,.F.);
#537=ORIENTED_EDGE('',*,*,#804,.F.);
#538=ORIENTED_EDGE('',*,*,#801,.F.);
#539=ORIENTED_EDGE('',*,*,#805,.T.);
#540=ORIENTED_EDGE('',*,*,#794,.F.);
#541=ORIENTED_EDGE('',*,*,#805,.F.);
#542=ORIENTED_EDGE('',*,*,#800,.F.);
#543=ORIENTED_EDGE('',*,*,#806,.T.);
#544=ORIENTED_EDGE('',*,*,#795,.F.);
#545=ORIENTED_EDGE('',*,*,#806,.F.);
#546=ORIENTED_EDGE('',*,*,#799,.F.);
#547=ORIENTED_EDGE('',*,*,#807,.T.);
#548=ORIENTED_EDGE('',*,*,#796,.F.);
#549=ORIENTED_EDGE('',*,*,#807,.F.);
#550=ORIENTED_EDGE('',*,*,#798,.F.);
#551=ORIENTED_EDGE('',*,*,#808,.T.);
#552=ORIENTED_EDGE('',*,*,#791,.F.);
#553=ORIENTED_EDGE('',*,*,#808,.F.);
#554=ORIENTED_EDGE('',*,*,#797,.F.);
#555=ORIENTED_EDGE('',*,*,#803,.T.);
#556=ORIENTED_EDGE('',*,*,#809,.T.);
#557=ORIENTED_EDGE('',*,*,#810,.T.);
#558=ORIENTED_EDGE('',*,*,#811,.T.);
#559=ORIENTED_EDGE('',*,*,#812,.T.);
#560=ORIENTED_EDGE('',*,*,#813,.T.);
#561=ORIENTED_EDGE('',*,*,#814,.T.);
#562=ORIENTED_EDGE('',*,*,#773,.F.);
#563=ORIENTED_EDGE('',*,*,#782,.F.);
#564=ORIENTED_EDGE('',*,*,#815,.F.);
#565=ORIENTED_EDGE('',*,*,#814,.F.);
#566=ORIENTED_EDGE('',*,*,#816,.T.);
#567=ORIENTED_EDGE('',*,*,#783,.F.);
#568=ORIENTED_EDGE('',*,*,#816,.F.);
#569=ORIENTED_EDGE('',*,*,#813,.F.);
#570=ORIENTED_EDGE('',*,*,#817,.T.);
#571=ORIENTED_EDGE('',*,*,#784,.F.);
#572=ORIENTED_EDGE('',*,*,#817,.F.);
#573=ORIENTED_EDGE('',*,*,#812,.F.);
#574=ORIENTED_EDGE('',*,*,#818,.T.);
#575=ORIENTED_EDGE('',*,*,#785,.F.);
#576=ORIENTED_EDGE('',*,*,#818,.F.);
#577=ORIENTED_EDGE('',*,*,#811,.F.);
#578=ORIENTED_EDGE('',*,*,#819,.T.);
#579=ORIENTED_EDGE('',*,*,#786,.F.);
#580=ORIENTED_EDGE('',*,*,#819,.F.);
#581=ORIENTED_EDGE('',*,*,#810,.F.);
#582=ORIENTED_EDGE('',*,*,#820,.T.);
#583=ORIENTED_EDGE('',*,*,#781,.F.);
#584=ORIENTED_EDGE('',*,*,#820,.F.);
#585=ORIENTED_EDGE('',*,*,#809,.F.);
#586=ORIENTED_EDGE('',*,*,#815,.T.);
#587=ORIENTED_EDGE('',*,*,#821,.F.);
#588=ORIENTED_EDGE('',*,*,#822,.F.);
#589=ORIENTED_EDGE('',*,*,#823,.F.);
#590=ORIENTED_EDGE('',*,*,#824,.F.);
#591=ORIENTED_EDGE('',*,*,#825,.F.);
#592=ORIENTED_EDGE('',*,*,#826,.F.);
#593=ORIENTED_EDGE('',*,*,#827,.F.);
#594=ORIENTED_EDGE('',*,*,#828,.F.);
#595=ORIENTED_EDGE('',*,*,#829,.F.);
#596=ORIENTED_EDGE('',*,*,#830,.F.);
#597=ORIENTED_EDGE('',*,*,#831,.F.);
#598=ORIENTED_EDGE('',*,*,#832,.F.);
#599=ORIENTED_EDGE('',*,*,#833,.F.);
#600=ORIENTED_EDGE('',*,*,#834,.F.);
#601=ORIENTED_EDGE('',*,*,#774,.T.);
#602=ORIENTED_EDGE('',*,*,#776,.T.);
#603=ORIENTED_EDGE('',*,*,#835,.F.);
#604=ORIENTED_EDGE('',*,*,#836,.F.);
#605=ORIENTED_EDGE('',*,*,#833,.T.);
#606=ORIENTED_EDGE('',*,*,#837,.T.);
#607=ORIENTED_EDGE('',*,*,#838,.F.);
#608=ORIENTED_EDGE('',*,*,#839,.F.);
#609=ORIENTED_EDGE('',*,*,#840,.F.);
#610=ORIENTED_EDGE('',*,*,#841,.F.);
#611=ORIENTED_EDGE('',*,*,#842,.F.);
#612=ORIENTED_EDGE('',*,*,#843,.F.);
#613=ORIENTED_EDGE('',*,*,#837,.F.);
#614=ORIENTED_EDGE('',*,*,#832,.T.);
#615=ORIENTED_EDGE('',*,*,#844,.T.);
#616=ORIENTED_EDGE('',*,*,#845,.F.);
#617=ORIENTED_EDGE('',*,*,#842,.T.);
#618=ORIENTED_EDGE('',*,*,#846,.T.);
#619=ORIENTED_EDGE('',*,*,#847,.T.);
#620=ORIENTED_EDGE('',*,*,#779,.F.);
#621=ORIENTED_EDGE('',*,*,#848,.F.);
#622=ORIENTED_EDGE('',*,*,#839,.T.);
#623=ORIENTED_EDGE('',*,*,#849,.F.);
#624=ORIENTED_EDGE('',*,*,#780,.F.);
#625=ORIENTED_EDGE('',*,*,#847,.F.);
#626=ORIENTED_EDGE('',*,*,#850,.T.);
#627=ORIENTED_EDGE('',*,*,#851,.F.);
#628=ORIENTED_EDGE('',*,*,#852,.T.);
#629=ORIENTED_EDGE('',*,*,#853,.T.);
#630=ORIENTED_EDGE('',*,*,#789,.F.);
#631=ORIENTED_EDGE('',*,*,#854,.F.);
#632=ORIENTED_EDGE('',*,*,#855,.T.);
#633=ORIENTED_EDGE('',*,*,#856,.F.);
#634=ORIENTED_EDGE('',*,*,#790,.F.);
#635=ORIENTED_EDGE('',*,*,#853,.F.);
#636=ORIENTED_EDGE('',*,*,#857,.T.);
#637=ORIENTED_EDGE('',*,*,#858,.T.);
#638=ORIENTED_EDGE('',*,*,#859,.F.);
#639=ORIENTED_EDGE('',*,*,#860,.F.);
#640=ORIENTED_EDGE('',*,*,#824,.T.);
#641=ORIENTED_EDGE('',*,*,#861,.T.);
#642=ORIENTED_EDGE('',*,*,#862,.F.);
#643=ORIENTED_EDGE('',*,*,#858,.F.);
#644=ORIENTED_EDGE('',*,*,#863,.F.);
#645=ORIENTED_EDGE('',*,*,#864,.F.);
#646=ORIENTED_EDGE('',*,*,#855,.F.);
#647=ORIENTED_EDGE('',*,*,#865,.F.);
#648=ORIENTED_EDGE('',*,*,#861,.F.);
#649=ORIENTED_EDGE('',*,*,#823,.T.);
#650=ORIENTED_EDGE('',*,*,#866,.T.);
#651=ORIENTED_EDGE('',*,*,#867,.T.);
#652=ORIENTED_EDGE('',*,*,#868,.F.);
#653=ORIENTED_EDGE('',*,*,#821,.T.);
#654=ORIENTED_EDGE('',*,*,#869,.T.);
#655=ORIENTED_EDGE('',*,*,#870,.F.);
#656=ORIENTED_EDGE('',*,*,#866,.F.);
#657=ORIENTED_EDGE('',*,*,#822,.T.);
#658=ORIENTED_EDGE('',*,*,#868,.T.);
#659=ORIENTED_EDGE('',*,*,#871,.F.);
#660=ORIENTED_EDGE('',*,*,#872,.F.);
#661=ORIENTED_EDGE('',*,*,#825,.T.);
#662=ORIENTED_EDGE('',*,*,#860,.T.);
#663=ORIENTED_EDGE('',*,*,#873,.F.);
#664=ORIENTED_EDGE('',*,*,#874,.F.);
#665=ORIENTED_EDGE('',*,*,#826,.T.);
#666=ORIENTED_EDGE('',*,*,#872,.T.);
#667=ORIENTED_EDGE('',*,*,#875,.F.);
#668=ORIENTED_EDGE('',*,*,#876,.F.);
#669=ORIENTED_EDGE('',*,*,#827,.T.);
#670=ORIENTED_EDGE('',*,*,#874,.T.);
#671=ORIENTED_EDGE('',*,*,#877,.T.);
#672=ORIENTED_EDGE('',*,*,#878,.F.);
#673=ORIENTED_EDGE('',*,*,#828,.T.);
#674=ORIENTED_EDGE('',*,*,#876,.T.);
#675=ORIENTED_EDGE('',*,*,#879,.F.);
#676=ORIENTED_EDGE('',*,*,#880,.F.);
#677=ORIENTED_EDGE('',*,*,#829,.T.);
#678=ORIENTED_EDGE('',*,*,#878,.T.);
#679=ORIENTED_EDGE('',*,*,#881,.F.);
#680=ORIENTED_EDGE('',*,*,#882,.F.);
#681=ORIENTED_EDGE('',*,*,#830,.T.);
#682=ORIENTED_EDGE('',*,*,#880,.T.);
#683=ORIENTED_EDGE('',*,*,#883,.F.);
#684=ORIENTED_EDGE('',*,*,#844,.F.);
#685=ORIENTED_EDGE('',*,*,#831,.T.);
#686=ORIENTED_EDGE('',*,*,#882,.T.);
#687=ORIENTED_EDGE('',*,*,#884,.F.);
#688=ORIENTED_EDGE('',*,*,#869,.F.);
#689=ORIENTED_EDGE('',*,*,#834,.T.);
#690=ORIENTED_EDGE('',*,*,#836,.T.);
#691=ORIENTED_EDGE('',*,*,#885,.T.);
#692=ORIENTED_EDGE('',*,*,#886,.T.);
#693=ORIENTED_EDGE('',*,*,#887,.F.);
#694=ORIENTED_EDGE('',*,*,#888,.T.);
#695=ORIENTED_EDGE('',*,*,#889,.T.);
#696=ORIENTED_EDGE('',*,*,#890,.T.);
#697=ORIENTED_EDGE('',*,*,#863,.T.);
#698=ORIENTED_EDGE('',*,*,#857,.F.);
#699=ORIENTED_EDGE('',*,*,#852,.F.);
#700=ORIENTED_EDGE('',*,*,#891,.T.);
#701=ORIENTED_EDGE('',*,*,#892,.T.);
#702=ORIENTED_EDGE('',*,*,#893,.F.);
#703=ORIENTED_EDGE('',*,*,#894,.T.);
#704=ORIENTED_EDGE('',*,*,#895,.T.);
#705=ORIENTED_EDGE('',*,*,#850,.F.);
#706=ORIENTED_EDGE('',*,*,#846,.F.);
#707=ORIENTED_EDGE('',*,*,#841,.T.);
#708=ORIENTED_EDGE('',*,*,#896,.T.);
#709=ORIENTED_EDGE('',*,*,#838,.T.);
#710=ORIENTED_EDGE('',*,*,#897,.T.);
#711=ORIENTED_EDGE('',*,*,#777,.F.);
#712=ORIENTED_EDGE('',*,*,#849,.T.);
#713=ORIENTED_EDGE('',*,*,#843,.T.);
#714=ORIENTED_EDGE('',*,*,#845,.T.);
#715=ORIENTED_EDGE('',*,*,#778,.F.);
#716=ORIENTED_EDGE('',*,*,#897,.F.);
#717=ORIENTED_EDGE('',*,*,#862,.T.);
#718=ORIENTED_EDGE('',*,*,#898,.T.);
#719=ORIENTED_EDGE('',*,*,#787,.F.);
#720=ORIENTED_EDGE('',*,*,#856,.T.);
#721=ORIENTED_EDGE('',*,*,#865,.T.);
#722=ORIENTED_EDGE('',*,*,#854,.T.);
#723=ORIENTED_EDGE('',*,*,#788,.F.);
#724=ORIENTED_EDGE('',*,*,#898,.F.);
#725=ORIENTED_EDGE('',*,*,#864,.T.);
#726=ORIENTED_EDGE('',*,*,#899,.T.);
#727=ORIENTED_EDGE('',*,*,#891,.F.);
#728=ORIENTED_EDGE('',*,*,#851,.T.);
#729=ORIENTED_EDGE('',*,*,#870,.T.);
#730=ORIENTED_EDGE('',*,*,#900,.T.);
#731=ORIENTED_EDGE('',*,*,#892,.F.);
#732=ORIENTED_EDGE('',*,*,#899,.F.);
#733=ORIENTED_EDGE('',*,*,#893,.T.);
#734=ORIENTED_EDGE('',*,*,#900,.F.);
#735=ORIENTED_EDGE('',*,*,#867,.F.);
#736=ORIENTED_EDGE('',*,*,#901,.T.);
#737=ORIENTED_EDGE('',*,*,#884,.T.);
#738=ORIENTED_EDGE('',*,*,#902,.T.);
#739=ORIENTED_EDGE('',*,*,#894,.F.);
#740=ORIENTED_EDGE('',*,*,#901,.F.);
#741=ORIENTED_EDGE('',*,*,#835,.T.);
#742=ORIENTED_EDGE('',*,*,#848,.T.);
#743=ORIENTED_EDGE('',*,*,#895,.F.);
#744=ORIENTED_EDGE('',*,*,#902,.F.);
#745=ORIENTED_EDGE('',*,*,#903,.F.);
#746=ORIENTED_EDGE('',*,*,#871,.T.);
#747=ORIENTED_EDGE('',*,*,#859,.T.);
#748=ORIENTED_EDGE('',*,*,#890,.F.);
#749=ORIENTED_EDGE('',*,*,#904,.F.);
#750=ORIENTED_EDGE('',*,*,#896,.F.);
#751=ORIENTED_EDGE('',*,*,#840,.T.);
#752=ORIENTED_EDGE('',*,*,#883,.T.);
#753=ORIENTED_EDGE('',*,*,#905,.F.);
#754=ORIENTED_EDGE('',*,*,#879,.T.);
#755=ORIENTED_EDGE('',*,*,#906,.T.);
#756=ORIENTED_EDGE('',*,*,#886,.F.);
#757=ORIENTED_EDGE('',*,*,#887,.T.);
#758=ORIENTED_EDGE('',*,*,#906,.F.);
#759=ORIENTED_EDGE('',*,*,#877,.F.);
#760=ORIENTED_EDGE('',*,*,#907,.T.);
#761=ORIENTED_EDGE('',*,*,#908,.F.);
#762=ORIENTED_EDGE('',*,*,#888,.F.);
#763=ORIENTED_EDGE('',*,*,#907,.F.);
#764=ORIENTED_EDGE('',*,*,#875,.T.);
#765=ORIENTED_EDGE('',*,*,#873,.T.);
#766=ORIENTED_EDGE('',*,*,#903,.T.);
#767=ORIENTED_EDGE('',*,*,#889,.F.);
#768=ORIENTED_EDGE('',*,*,#908,.T.);
#769=ORIENTED_EDGE('',*,*,#881,.T.);
#770=ORIENTED_EDGE('',*,*,#905,.T.);
#771=ORIENTED_EDGE('',*,*,#885,.F.);
#772=ORIENTED_EDGE('',*,*,#904,.T.);
#773=EDGE_CURVE('',#909,#909,#910,.T.);
#774=EDGE_CURVE('',#911,#911,#912,.T.);
#775=EDGE_CURVE('',#913,#913,#914,.T.);
#776=EDGE_CURVE('',#915,#915,#916,.T.);
#777=EDGE_CURVE('',#917,#918,#919,.T.);
#778=EDGE_CURVE('',#918,#920,#921,.T.);
#779=EDGE_CURVE('',#920,#922,#923,.T.);
#780=EDGE_CURVE('',#922,#917,#924,.T.);
#781=EDGE_CURVE('',#925,#926,#927,.F.);
#782=EDGE_CURVE('',#926,#928,#929,.F.);
#783=EDGE_CURVE('',#928,#930,#931,.F.);
#784=EDGE_CURVE('',#930,#932,#933,.F.);
#785=EDGE_CURVE('',#932,#934,#935,.F.);
#786=EDGE_CURVE('',#934,#925,#936,.F.);
#787=EDGE_CURVE('',#937,#938,#939,.T.);
#788=EDGE_CURVE('',#938,#940,#941,.T.);
#789=EDGE_CURVE('',#940,#942,#943,.T.);
#790=EDGE_CURVE('',#942,#937,#944,.T.);
#791=EDGE_CURVE('',#945,#946,#947,.F.);
#792=EDGE_CURVE('',#946,#948,#949,.F.);
#793=EDGE_CURVE('',#948,#950,#951,.F.);
#794=EDGE_CURVE('',#950,#952,#953,.F.);
#795=EDGE_CURVE('',#952,#954,#955,.F.);
#796=EDGE_CURVE('',#954,#945,#956,.F.);
#797=EDGE_CURVE('',#957,#958,#959,.T.);
#798=EDGE_CURVE('',#958,#960,#961,.T.);
#799=EDGE_CURVE('',#960,#962,#963,.T.);
#800=EDGE_CURVE('',#962,#964,#965,.T.);
#801=EDGE_CURVE('',#964,#966,#967,.T.);
#802=EDGE_CURVE('',#966,#957,#968,.T.);
#803=EDGE_CURVE('',#957,#946,#969,.T.);
#804=EDGE_CURVE('',#966,#948,#970,.T.);
#805=EDGE_CURVE('',#964,#950,#971,.T.);
#806=EDGE_CURVE('',#962,#952,#972,.T.);
#807=EDGE_CURVE('',#960,#954,#973,.T.);
#808=EDGE_CURVE('',#958,#945,#974,.T.);
#809=EDGE_CURVE('',#975,#976,#977,.T.);
#810=EDGE_CURVE('',#976,#978,#979,.T.);
#811=EDGE_CURVE('',#978,#980,#981,.T.);
#812=EDGE_CURVE('',#980,#982,#983,.T.);
#813=EDGE_CURVE('',#982,#984,#985,.T.);
#814=EDGE_CURVE('',#984,#975,#986,.T.);
#815=EDGE_CURVE('',#975,#926,#987,.T.);
#816=EDGE_CURVE('',#984,#928,#988,.T.);
#817=EDGE_CURVE('',#982,#930,#989,.T.);
#818=EDGE_CURVE('',#980,#932,#990,.T.);
#819=EDGE_CURVE('',#978,#934,#991,.T.);
#820=EDGE_CURVE('',#976,#925,#992,.T.);
#821=EDGE_CURVE('',#993,#994,#995,.F.);
#822=EDGE_CURVE('',#996,#993,#997,.T.);
#823=EDGE_CURVE('',#998,#996,#999,.T.);
#824=EDGE_CURVE('',#1000,#998,#1001,.T.);
#825=EDGE_CURVE('',#1002,#1000,#1003,.T.);
#826=EDGE_CURVE('',#1004,#1002,#1005,.T.);
#827=EDGE_CURVE('',#1006,#1004,#1007,.T.);
#828=EDGE_CURVE('',#1008,#1006,#1009,.F.);
#829=EDGE_CURVE('',#1010,#1008,#1011,.T.);
#830=EDGE_CURVE('',#1012,#1010,#1013,.T.);
#831=EDGE_CURVE('',#1014,#1012,#1015,.T.);
#832=EDGE_CURVE('',#1016,#1014,#1017,.T.);
#833=EDGE_CURVE('',#1018,#1016,#1019,.T.);
#834=EDGE_CURVE('',#994,#1018,#1020,.T.);
#835=EDGE_CURVE('',#1021,#1022,#1023,.T.);
#836=EDGE_CURVE('',#1018,#1021,#1024,.T.);
#837=EDGE_CURVE('',#1016,#1025,#1026,.T.);
#838=EDGE_CURVE('',#1027,#1025,#1028,.T.);
#839=EDGE_CURVE('',#1022,#1027,#1029,.F.);
#840=EDGE_CURVE('',#1030,#1031,#1032,.F.);
#841=EDGE_CURVE('',#1033,#1030,#1034,.T.);
#842=EDGE_CURVE('',#1035,#1033,#1036,.F.);
#843=EDGE_CURVE('',#1025,#1035,#1037,.T.);
#844=EDGE_CURVE('',#1014,#1031,#1038,.T.);
#845=EDGE_CURVE('',#1035,#920,#1039,.T.);
#846=EDGE_CURVE('',#1033,#1040,#1041,.T.);
#847=EDGE_CURVE('',#1040,#922,#1042,.T.);
#848=EDGE_CURVE('',#1022,#1043,#1044,.T.);
#849=EDGE_CURVE('',#917,#1027,#1045,.F.);
#850=EDGE_CURVE('',#1040,#1043,#1046,.T.);
#851=EDGE_CURVE('',#1047,#1048,#1049,.F.);
#852=EDGE_CURVE('',#1047,#1050,#1051,.T.);
#853=EDGE_CURVE('',#1050,#942,#1052,.T.);
#854=EDGE_CURVE('',#1053,#940,#1054,.T.);
#855=EDGE_CURVE('',#1053,#1048,#1055,.F.);
#856=EDGE_CURVE('',#937,#1056,#1057,.F.);
#857=EDGE_CURVE('',#1050,#1058,#1059,.T.);
#858=EDGE_CURVE('',#1058,#1056,#1060,.F.);
#859=EDGE_CURVE('',#1061,#1062,#1063,.F.);
#860=EDGE_CURVE('',#1000,#1061,#1064,.T.);
#861=EDGE_CURVE('',#998,#1065,#1066,.T.);
#862=EDGE_CURVE('',#1056,#1065,#1067,.T.);
#863=EDGE_CURVE('',#1062,#1058,#1068,.T.);
#864=EDGE_CURVE('',#1048,#1069,#1070,.T.);
#865=EDGE_CURVE('',#1065,#1053,#1071,.T.);
#866=EDGE_CURVE('',#996,#1069,#1072,.T.);
#867=EDGE_CURVE('',#1073,#1074,#1075,.F.);
#868=EDGE_CURVE('',#993,#1074,#1076,.T.);
#869=EDGE_CURVE('',#994,#1073,#1077,.T.);
#870=EDGE_CURVE('',#1069,#1074,#1078,.T.);
#871=EDGE_CURVE('',#1079,#1061,#1080,.T.);
#872=EDGE_CURVE('',#1002,#1079,#1081,.T.);
#873=EDGE_CURVE('',#1082,#1079,#1083,.T.);
#874=EDGE_CURVE('',#1004,#1082,#1084,.T.);
#875=EDGE_CURVE('',#1085,#1082,#1086,.T.);
#876=EDGE_CURVE('',#1006,#1085,#1087,.T.);
#877=EDGE_CURVE('',#1085,#1088,#1089,.F.);
#878=EDGE_CURVE('',#1008,#1088,#1090,.T.);
#879=EDGE_CURVE('',#1091,#1088,#1092,.T.);
#880=EDGE_CURVE('',#1010,#1091,#1093,.T.);
#881=EDGE_CURVE('',#1094,#1091,#1095,.T.);
#882=EDGE_CURVE('',#1012,#1094,#1096,.T.);
#883=EDGE_CURVE('',#1031,#1094,#1097,.T.);
#884=EDGE_CURVE('',#1073,#1021,#1098,.T.);
#885=EDGE_CURVE('',#1099,#1100,#1101,.T.);
#886=EDGE_CURVE('',#1100,#1102,#1103,.T.);
#887=EDGE_CURVE('',#1104,#1102,#1105,.F.);
#888=EDGE_CURVE('',#1104,#1106,#1107,.T.);
#889=EDGE_CURVE('',#1106,#1108,#1109,.T.);
#890=EDGE_CURVE('',#1108,#1062,#1110,.T.);
#891=EDGE_CURVE('',#1047,#1111,#1112,.T.);
#892=EDGE_CURVE('',#1111,#1113,#1114,.T.);
#893=EDGE_CURVE('',#1115,#1113,#1116,.F.);
#894=EDGE_CURVE('',#1115,#1117,#1118,.T.);
#895=EDGE_CURVE('',#1117,#1043,#1119,.T.);
#896=EDGE_CURVE('',#1030,#1099,#1120,.T.);
#897=EDGE_CURVE('',#1025,#918,#1121,.T.);
#898=EDGE_CURVE('',#1065,#938,#1122,.T.);
#899=EDGE_CURVE('',#1069,#1111,#1123,.T.);
#900=EDGE_CURVE('',#1074,#1113,#1124,.T.);
#901=EDGE_CURVE('',#1073,#1115,#1125,.F.);
#902=EDGE_CURVE('',#1021,#1117,#1126,.T.);
#903=EDGE_CURVE('',#1079,#1108,#1127,.T.);
#904=EDGE_CURVE('',#1099,#1094,#1128,.F.);
#905=EDGE_CURVE('',#1091,#1100,#1129,.F.);
#906=EDGE_CURVE('',#1088,#1102,#1130,.T.);
#907=EDGE_CURVE('',#1085,#1104,#1131,.F.);
#908=EDGE_CURVE('',#1106,#1082,#1132,.T.);
#909=VERTEX_POINT('',#1133);
#910=CIRCLE('',#1134,1.75);
#911=VERTEX_POINT('',#1138);
#912=CIRCLE('',#1139,1.75);
#913=VERTEX_POINT('',#1143);
#914=CIRCLE('',#1144,1.75);
#915=VERTEX_POINT('',#1148);
#916=CIRCLE('',#1149,1.75);
#917=VERTEX_POINT('',#1153);
#918=VERTEX_POINT('',#1154);
#919=LINE('',#1155,#1156);
#920=VERTEX_POINT('',#1158);
#921=LINE('',#1159,#1160);
#922=VERTEX_POINT('',#1162);
#923=LINE('',#1163,#1164);
#924=LINE('',#1166,#1167);
#925=VERTEX_POINT('',#1169);
#926=VERTEX_POINT('',#1170);
#927=LINE('',#1171,#1172);
#928=VERTEX_POINT('',#1174);
#929=LINE('',#1175,#1176);
#930=VERTEX_POINT('',#1178);
#931=LINE('',#1179,#1180);
#932=VERTEX_POINT('',#1182);
#933=LINE('',#1183,#1184);
#934=VERTEX_POINT('',#1186);
#935=LINE('',#1187,#1188);
#936=LINE('',#1190,#1191);
#937=VERTEX_POINT('',#1193);
#938=VERTEX_POINT('',#1194);
#939=LINE('',#1195,#1196);
#940=VERTEX_POINT('',#1198);
#941=LINE('',#1199,#1200);
#942=VERTEX_POINT('',#1202);
#943=LINE('',#1203,#1204);
#944=LINE('',#1206,#1207);
#945=VERTEX_POINT('',#1209);
#946=VERTEX_POINT('',#1210);
#947=LINE('',#1211,#1212);
#948=VERTEX_POINT('',#1214);
#949=LINE('',#1215,#1216);
#950=VERTEX_POINT('',#1218);
#951=LINE('',#1219,#1220);
#952=VERTEX_POINT('',#1222);
#953=LINE('',#1223,#1224);
#954=VERTEX_POINT('',#1226);
#955=LINE('',#1227,#1228);
#956=LINE('',#1230,#1231);
#957=VERTEX_POINT('',#1233);
#958=VERTEX_POINT('',#1234);
#959=LINE('',#1235,#1236);
#960=VERTEX_POINT('',#1238);
#961=LINE('',#1239,#1240);
#962=VERTEX_POINT('',#1242);
#963=LINE('',#1243,#1244);
#964=VERTEX_POINT('',#1246);
#965=LINE('',#1247,#1248);
#966=VERTEX_POINT('',#1250);
#967=LINE('',#1251,#1252);
#968=LINE('',#1254,#1255);
#969=LINE('',#1257,#1258);
#970=LINE('',#1260,#1261);
#971=LINE('',#1263,#1264);
#972=LINE('',#1266,#1267);
#973=LINE('',#1269,#1270);
#974=LINE('',#1272,#1273);
#975=VERTEX_POINT('',#1275);
#976=VERTEX_POINT('',#1276);
#977=LINE('',#1277,#1278);
#978=VERTEX_POINT('',#1280);
#979=LINE('',#1281,#1282);
#980=VERTEX_POINT('',#1284);
#981=LINE('',#1285,#1286);
#982=VERTEX_POINT('',#1288);
#983=LINE('',#1289,#1290);
#984=VERTEX_POINT('',#1292);
#985=LINE('',#1293,#1294);
#986=LINE('',#1296,#1297);
#987=LINE('',#1299,#1300);
#988=LINE('',#1302,#1303);
#989=LINE('',#1305,#1306);
#990=LINE('',#1308,#1309);
#991=LINE('',#1311,#1312);
#992=LINE('',#1314,#1315);
#993=VERTEX_POINT('',#1317);
#994=VERTEX_POINT('',#1318);
#995=CIRCLE('',#1319,2.);
#996=VERTEX_POINT('',#1323);
#997=LINE('',#1324,#1325);
#998=VERTEX_POINT('',#1327);
#999=LINE('',#1328,#1329);
#1000=VERTEX_POINT('',#1331);
#1001=LINE('',#1332,#1333);
#1002=VERTEX_POINT('',#1335);
#1003=LINE('',#1336,#1337);
#1004=VERTEX_POINT('',#1339);
#1005=LINE('',#1340,#1341);
#1006=VERTEX_POINT('',#1343);
#1007=LINE('',#1344,#1345);
#1008=VERTEX_POINT('',#1347);
#1009=CIRCLE('',#1348,12.);
#1010=VERTEX_POINT('',#1352);
#1011=LINE('',#1353,#1354);
#1012=VERTEX_POINT('',#1356);
#1013=LINE('',#1357,#1358);
#1014=VERTEX_POINT('',#1360);
#1015=LINE('',#1361,#1362);
#1016=VERTEX_POINT('',#1364);
#1017=LINE('',#1365,#1366);
#1018=VERTEX_POINT('',#1368);
#1019=LINE('',#1369,#1370);
#1020=LINE('',#1372,#1373);
#1021=VERTEX_POINT('',#1375);
#1022=VERTEX_POINT('',#1376);
#1023=LINE('',#1377,#1378);
#1024=LINE('',#1380,#1381);
#1025=VERTEX_POINT('',#1383);
#1026=LINE('',#1384,#1385);
#1027=VERTEX_POINT('',#1387);
#1028=LINE('',#1388,#1389);
#1029=LINE('',#1391,#1392);
#1030=VERTEX_POINT('',#1394);
#1031=VERTEX_POINT('',#1395);
#1032=CIRCLE('',#1396,0.999999999999996);
#1033=VERTEX_POINT('',#1400);
#1034=LINE('',#1401,#1402);
#1035=VERTEX_POINT('',#1404);
#1036=LINE('',#1405,#1406);
#1037=LINE('',#1408,#1409);
#1038=LINE('',#1411,#1412);
#1039=(BOUNDED_CURVE()B_SPLINE_CURVE(3,
(#1414,#1415,#1416,#1417),
.UNSPECIFIED.,.F.,.F.)B_SPLINE_CURVE_WITH_KNOTS((4,4),
(0.,1.),
.UNSPECIFIED.)CURVE()GEOMETRIC_REPRESENTATION_ITEM()RATIONAL_B_SPLINE_CURVE((1.,
0.804737854124365,0.804737854124365,1.))REPRESENTATION_ITEM(''));
#1040=VERTEX_POINT('',#1418);
#1041=LINE('',#1419,#1420);
#1042=LINE('',#1422,#1423);
#1043=VERTEX_POINT('',#1425);
#1044=(BOUNDED_CURVE()B_SPLINE_CURVE(3,
(#1426,#1427,#1428,#1429),
.UNSPECIFIED.,.F.,.F.)B_SPLINE_CURVE_WITH_KNOTS((4,4),
(0.,1.),
.UNSPECIFIED.)CURVE()GEOMETRIC_REPRESENTATION_ITEM()RATIONAL_B_SPLINE_CURVE((1.,
0.804737854124365,0.804737854124365,1.))REPRESENTATION_ITEM(''));
#1045=(BOUNDED_CURVE()B_SPLINE_CURVE(3,
(#1430,#1431,#1432,#1433),
.UNSPECIFIED.,.F.,.F.)B_SPLINE_CURVE_WITH_KNOTS((4,4),
(0.,1.),
.UNSPECIFIED.)CURVE()GEOMETRIC_REPRESENTATION_ITEM()RATIONAL_B_SPLINE_CURVE((1.,
0.804737854124365,0.804737854124365,1.))REPRESENTATION_ITEM(''));
#1046=LINE('',#1434,#1435);
#1047=VERTEX_POINT('',#1437);
#1048=VERTEX_POINT('',#1438);
#1049=(BOUNDED_CURVE()B_SPLINE_CURVE(3,
(#1439,#1440,#1441,#1442),
.UNSPECIFIED.,.F.,.F.)B_SPLINE_CURVE_WITH_KNOTS((4,4),
(0.,1.),
.UNSPECIFIED.)CURVE()GEOMETRIC_REPRESENTATION_ITEM()RATIONAL_B_SPLINE_CURVE((1.,
0.804737854124365,0.804737854124365,1.))REPRESENTATION_ITEM(''));
#1050=VERTEX_POINT('',#1443);
#1051=LINE('',#1444,#1445);
#1052=LINE('',#1447,#1448);
#1053=VERTEX_POINT('',#1450);
#1054=(BOUNDED_CURVE()B_SPLINE_CURVE(3,
(#1451,#1452,#1453,#1454),
.UNSPECIFIED.,.F.,.F.)B_SPLINE_CURVE_WITH_KNOTS((4,4),
(0.,1.),
.UNSPECIFIED.)CURVE()GEOMETRIC_REPRESENTATION_ITEM()RATIONAL_B_SPLINE_CURVE((1.,
0.804737854124365,0.804737854124365,1.))REPRESENTATION_ITEM(''));
#1055=LINE('',#1455,#1456);
#1056=VERTEX_POINT('',#1458);
#1057=(BOUNDED_CURVE()B_SPLINE_CURVE(3,
(#1459,#1460,#1461,#1462),
.UNSPECIFIED.,.F.,.F.)B_SPLINE_CURVE_WITH_KNOTS((4,4),
(0.,1.),
.UNSPECIFIED.)CURVE()GEOMETRIC_REPRESENTATION_ITEM()RATIONAL_B_SPLINE_CURVE((1.,
0.804737854124365,0.804737854124365,1.))REPRESENTATION_ITEM(''));
#1058=VERTEX_POINT('',#1463);
#1059=LINE('',#1464,#1465);
#1060=LINE('',#1467,#1468);
#1061=VERTEX_POINT('',#1470);
#1062=VERTEX_POINT('',#1471);
#1063=CIRCLE('',#1472,1.);
#1064=LINE('',#1476,#1477);
#1065=VERTEX_POINT('',#1479);
#1066=LINE('',#1480,#1481);
#1067=LINE('',#1483,#1484);
#1068=LINE('',#1486,#1487);
#1069=VERTEX_POINT('',#1489);
#1070=LINE('',#1490,#1491);
#1071=LINE('',#1493,#1494);
#1072=LINE('',#1496,#1497);
#1073=VERTEX_POINT('',#1499);
#1074=VERTEX_POINT('',#1500);
#1075=CIRCLE('',#1501,2.);
#1076=LINE('',#1505,#1506);
#1077=LINE('',#1508,#1509);
#1078=LINE('',#1511,#1512);
#1079=VERTEX_POINT('',#1514);
#1080=LINE('',#1515,#1516);
#1081=LINE('',#1518,#1519);
#1082=VERTEX_POINT('',#1521);
#1083=LINE('',#1522,#1523);
#1084=LINE('',#1525,#1526);
#1085=VERTEX_POINT('',#1528);
#1086=LINE('',#1529,#1530);
#1087=LINE('',#1532,#1533);
#1088=VERTEX_POINT('',#1535);
#1089=CIRCLE('',#1536,12.);
#1090=LINE('',#1540,#1541);
#1091=VERTEX_POINT('',#1543);
#1092=LINE('',#1544,#1545);
#1093=LINE('',#1547,#1548);
#1094=VERTEX_POINT('',#1550);
#1095=LINE('',#1551,#1552);
#1096=LINE('',#1554,#1555);
#1097=LINE('',#1557,#1558);
#1098=LINE('',#1560,#1561);
#1099=VERTEX_POINT('',#1563);
#1100=VERTEX_POINT('',#1564);
#1101=LINE('',#1565,#1566);
#1102=VERTEX_POINT('',#1568);
#1103=LINE('',#1569,#1570);
#1104=VERTEX_POINT('',#1572);
#1105=CIRCLE('',#1573,11.);
#1106=VERTEX_POINT('',#1577);
#1107=LINE('',#1578,#1579);
#1108=VERTEX_POINT('',#1581);
#1109=LINE('',#1582,#1583);
#1110=LINE('',#1585,#1586);
#1111=VERTEX_POINT('',#1588);
#1112=LINE('',#1589,#1590);
#1113=VERTEX_POINT('',#1592);
#1114=LINE('',#1593,#1594);
#1115=VERTEX_POINT('',#1596);
#1116=CIRCLE('',#1597,3.);
#1117=VERTEX_POINT('',#1601);
#1118=LINE('',#1602,#1603);
#1119=LINE('',#1605,#1606);
#1120=LINE('',#1608,#1609);
#1121=(BOUNDED_CURVE()B_SPLINE_CURVE(3,
(#1611,#1612,#1613,#1614),
.UNSPECIFIED.,.F.,.F.)B_SPLINE_CURVE_WITH_KNOTS((4,4),
(0.,1.),
.UNSPECIFIED.)CURVE()GEOMETRIC_REPRESENTATION_ITEM()RATIONAL_B_SPLINE_CURVE((1.,
0.804737854124365,0.804737854124365,1.))REPRESENTATION_ITEM(''));
#1122=(BOUNDED_CURVE()B_SPLINE_CURVE(3,
(#1615,#1616,#1617,#1618),
.UNSPECIFIED.,.F.,.F.)B_SPLINE_CURVE_WITH_KNOTS((4,4),
(0.,1.),
.UNSPECIFIED.)CURVE()GEOMETRIC_REPRESENTATION_ITEM()RATIONAL_B_SPLINE_CURVE((1.,
0.804737854124365,0.804737854124365,1.))REPRESENTATION_ITEM(''));
#1123=(BOUNDED_CURVE()B_SPLINE_CURVE(3,
(#1619,#1620,#1621,#1622),
.UNSPECIFIED.,.F.,.F.)B_SPLINE_CURVE_WITH_KNOTS((4,4),
(0.,1.),
.UNSPECIFIED.)CURVE()GEOMETRIC_REPRESENTATION_ITEM()RATIONAL_B_SPLINE_CURVE((1.,
0.804737854124365,0.804737854124365,1.))REPRESENTATION_ITEM(''));
#1124=CIRCLE('',#1623,1.);
#1125=CIRCLE('',#1627,1.);
#1126=(BOUNDED_CURVE()B_SPLINE_CURVE(3,
(#1631,#1632,#1633,#1634),
.UNSPECIFIED.,.F.,.F.)B_SPLINE_CURVE_WITH_KNOTS((4,4),
(0.,1.),
.UNSPECIFIED.)CURVE()GEOMETRIC_REPRESENTATION_ITEM()RATIONAL_B_SPLINE_CURVE((1.,
0.804737854124365,0.804737854124365,1.))REPRESENTATION_ITEM(''));
#1127=(BOUNDED_CURVE()B_SPLINE_CURVE(3,
(#1635,#1636,#1637,#1638),
.UNSPECIFIED.,.F.,.F.)B_SPLINE_CURVE_WITH_KNOTS((4,4),
(0.,1.),
.UNSPECIFIED.)CURVE()GEOMETRIC_REPRESENTATION_ITEM()RATIONAL_B_SPLINE_CURVE((1.,
0.804737854124365,0.804737854124365,1.))REPRESENTATION_ITEM(''));
#1128=(BOUNDED_CURVE()B_SPLINE_CURVE(3,
(#1639,#1640,#1641,#1642),
.UNSPECIFIED.,.F.,.F.)B_SPLINE_CURVE_WITH_KNOTS((4,4),
(0.,1.),
.UNSPECIFIED.)CURVE()GEOMETRIC_REPRESENTATION_ITEM()RATIONAL_B_SPLINE_CURVE((1.,
0.804737854124365,0.804737854124365,1.))REPRESENTATION_ITEM(''));
#1129=(BOUNDED_CURVE()B_SPLINE_CURVE(3,
(#1643,#1644,#1645,#1646),
.UNSPECIFIED.,.F.,.F.)B_SPLINE_CURVE_WITH_KNOTS((4,4),
(0.,1.),
.UNSPECIFIED.)CURVE()GEOMETRIC_REPRESENTATION_ITEM()RATIONAL_B_SPLINE_CURVE((1.,
0.804737854124365,0.804737854124365,1.))REPRESENTATION_ITEM(''));
#1130=CIRCLE('',#1647,1.);
#1131=CIRCLE('',#1651,1.);
#1132=(BOUNDED_CURVE()B_SPLINE_CURVE(3,
(#1655,#1656,#1657,#1658),
.UNSPECIFIED.,.F.,.F.)B_SPLINE_CURVE_WITH_KNOTS((4,4),
(0.,1.),
.UNSPECIFIED.)CURVE()GEOMETRIC_REPRESENTATION_ITEM()RATIONAL_B_SPLINE_CURVE((1.,
0.804737854124365,0.804737854124365,1.))REPRESENTATION_ITEM(''));
#1133=CARTESIAN_POINT('',(23.25,4.99999999999999,2.5));
#1134=AXIS2_PLACEMENT_3D('',#1135,#1136,#1137);
#1135=CARTESIAN_POINT('',(25.,4.99999999999999,2.5));
#1136=DIRECTION('',(0.,0.,1.));
#1137=DIRECTION('',(-1.,1.22464679914735E-16,0.));
#1138=CARTESIAN_POINT('',(23.25,4.99999999999999,-1.77635683940025E-15));
#1139=AXIS2_PLACEMENT_3D('',#1140,#1141,#1142);
#1140=CARTESIAN_POINT('',(25.,4.99999999999999,0.));
#1141=DIRECTION('',(0.,0.,1.));
#1142=DIRECTION('',(-1.,1.22464679914735E-16,0.));
#1143=CARTESIAN_POINT('',(-26.75,5.00000000000001,2.5));
#1144=AXIS2_PLACEMENT_3D('',#1145,#1146,#1147);
#1145=CARTESIAN_POINT('',(-25.,5.00000000000001,2.5));
#1146=DIRECTION('',(0.,0.,1.));
#1147=DIRECTION('',(-1.,1.22464679914735E-16,0.));
#1148=CARTESIAN_POINT('',(-26.75,5.00000000000001,-1.77635683940025E-15));
#1149=AXIS2_PLACEMENT_3D('',#1150,#1151,#1152);
#1150=CARTESIAN_POINT('',(-25.,5.00000000000001,0.));
#1151=DIRECTION('',(0.,0.,1.));
#1152=DIRECTION('',(-1.,1.22464679914735E-16,0.));
#1153=CARTESIAN_POINT('',(20.,0.999999999999995,5.));
#1154=CARTESIAN_POINT('',(29.,0.999999999999991,5.));
#1155=CARTESIAN_POINT('',(20.,0.999999999999994,5.));
#1156=VECTOR('',#1157,1.);
#1157=DIRECTION('',(1.,-4.19417587080615E-16,0.));
#1158=CARTESIAN_POINT('',(29.,9.99999999999999,5.));
#1159=CARTESIAN_POINT('',(29.,0.999999999999991,5.));
#1160=VECTOR('',#1161,1.);
#1161=DIRECTION('',(3.94745964311167E-16,1.,0.));
#1162=CARTESIAN_POINT('',(20.,9.99999999999999,5.));
#1163=CARTESIAN_POINT('',(29.,9.99999999999999,5.));
#1164=VECTOR('',#1165,1.);
#1165=DIRECTION('',(-1.,1.97372982155583E-16,0.));
#1166=CARTESIAN_POINT('',(20.,9.99999999999999,5.));
#1167=VECTOR('',#1168,1.);
#1168=DIRECTION('',(0.,-1.,0.));
#1169=CARTESIAN_POINT('',(28.2331615074515,4.99999999999999,5.));
#1170=CARTESIAN_POINT('',(26.6165807537258,2.20000000000899,5.));
#1171=CARTESIAN_POINT('',(26.6165807537258,2.20000000000899,5.));
#1172=VECTOR('',#1173,1.);
#1173=DIRECTION('',(0.500000000000001,0.866025403784438,0.));
#1174=CARTESIAN_POINT('',(23.3834192462742,2.20000000000899,5.));
#1175=CARTESIAN_POINT('',(23.3834192462742,2.20000000000899,5.));
#1176=VECTOR('',#1177,1.);
#1177=DIRECTION('',(1.,-1.37354477599267E-16,0.));
#1178=CARTESIAN_POINT('',(21.7668384925485,5.,5.));
#1179=CARTESIAN_POINT('',(21.7668384925485,5.,5.));
#1180=VECTOR('',#1181,1.);
#1181=DIRECTION('',(0.499999999999999,-0.866025403784439,0.));
#1182=CARTESIAN_POINT('',(23.3834192462742,7.799999999991,5.));
#1183=CARTESIAN_POINT('',(23.3834192462742,7.799999999991,5.));
#1184=VECTOR('',#1185,1.);
#1185=DIRECTION('',(-0.500000000000001,-0.866025403784438,0.));
#1186=CARTESIAN_POINT('',(26.6165807537258,7.79999999999099,5.));
#1187=CARTESIAN_POINT('',(26.6165807537258,7.79999999999099,5.));
#1188=VECTOR('',#1189,1.);
#1189=DIRECTION('',(-1.,1.37354477599267E-15,0.));
#1190=CARTESIAN_POINT('',(28.2331615074515,4.99999999999999,5.));
#1191=VECTOR('',#1192,1.);
#1192=DIRECTION('',(-0.5,0.866025403784439,0.));
#1193=CARTESIAN_POINT('',(-29.,10.,5.));
#1194=CARTESIAN_POINT('',(-29.,1.00000000000001,5.));
#1195=CARTESIAN_POINT('',(-29.,10.,5.));
#1196=VECTOR('',#1197,1.);
#1197=DIRECTION('',(-1.1842378929335E-15,-1.,0.));
#1198=CARTESIAN_POINT('',(-20.,1.00000000000001,5.));
#1199=CARTESIAN_POINT('',(-29.,1.00000000000001,5.));
#1200=VECTOR('',#1201,1.);
#1201=DIRECTION('',(1.,-1.97372982155584E-16,0.));
#1202=CARTESIAN_POINT('',(-20.,10.,5.));
#1203=CARTESIAN_POINT('',(-20.,1.00000000000001,5.));
#1204=VECTOR('',#1205,1.);
#1205=DIRECTION('',(3.94745964311167E-16,1.,0.));
#1206=CARTESIAN_POINT('',(-20.,10.,5.));
#1207=VECTOR('',#1208,1.);
#1208=DIRECTION('',(-1.,3.94745964311167E-16,0.));
#1209=CARTESIAN_POINT('',(-23.3834192462742,2.200000000009,5.));
#1210=CARTESIAN_POINT('',(-26.6165807537258,2.20000000000901,5.));
#1211=CARTESIAN_POINT('',(-26.6165807537258,2.20000000000901,5.));
#1212=VECTOR('',#1213,1.);
#1213=DIRECTION('',(1.,-5.49417910397069E-16,0.));
#1214=CARTESIAN_POINT('',(-28.2331615074515,5.00000000000001,5.));
#1215=CARTESIAN_POINT('',(-28.2331615074515,5.00000000000001,5.));
#1216=VECTOR('',#1217,1.);
#1217=DIRECTION('',(0.5,-0.866025403784439,0.));
#1218=CARTESIAN_POINT('',(-26.6165807537258,7.79999999999101,5.));
#1219=CARTESIAN_POINT('',(-26.6165807537258,7.79999999999101,5.));
#1220=VECTOR('',#1221,1.);
#1221=DIRECTION('',(-0.5,-0.866025403784439,0.));
#1222=CARTESIAN_POINT('',(-23.3834192462742,7.79999999999101,5.));
#1223=CARTESIAN_POINT('',(-23.3834192462742,7.79999999999101,5.));
#1224=VECTOR('',#1225,1.);
#1225=DIRECTION('',(-1.,0.,0.));
#1226=CARTESIAN_POINT('',(-21.7668384925485,5.00000000000001,5.));
#1227=CARTESIAN_POINT('',(-21.7668384925485,5.00000000000001,5.));
#1228=VECTOR('',#1229,1.);
#1229=DIRECTION('',(-0.500000000000001,0.866025403784438,0.));
#1230=CARTESIAN_POINT('',(-23.3834192462742,2.200000000009,5.));
#1231=VECTOR('',#1232,1.);
#1232=DIRECTION('',(0.5,0.866025403784439,0.));
#1233=CARTESIAN_POINT('',(-26.6165807537258,2.20000000000901,2.5));
#1234=CARTESIAN_POINT('',(-23.3834192462742,2.200000000009,2.5));
#1235=CARTESIAN_POINT('',(-26.6165807537258,2.20000000000901,2.5));
#1236=VECTOR('',#1237,1.);
#1237=DIRECTION('',(1.,-5.49417910397069E-16,0.));
#1238=CARTESIAN_POINT('',(-21.7668384925485,5.00000000000001,2.5));
#1239=CARTESIAN_POINT('',(-23.3834192462742,2.200000000009,2.5));
#1240=VECTOR('',#1241,1.);
#1241=DIRECTION('',(0.5,0.866025403784439,0.));
#1242=CARTESIAN_POINT('',(-23.3834192462742,7.79999999999101,2.5));
#1243=CARTESIAN_POINT('',(-21.7668384925485,5.00000000000001,2.5));
#1244=VECTOR('',#1245,1.);
#1245=DIRECTION('',(-0.500000000000001,0.866025403784438,0.));
#1246=CARTESIAN_POINT('',(-26.6165807537258,7.79999999999101,2.5));
#1247=CARTESIAN_POINT('',(-23.3834192462742,7.79999999999101,2.5));
#1248=VECTOR('',#1249,1.);
#1249=DIRECTION('',(-1.,-2.74708955198535E-16,0.));
#1250=CARTESIAN_POINT('',(-28.2331615074515,5.00000000000001,2.5));
#1251=CARTESIAN_POINT('',(-26.6165807537258,7.79999999999101,2.5));
#1252=VECTOR('',#1253,1.);
#1253=DIRECTION('',(-0.5,-0.866025403784439,0.));
#1254=CARTESIAN_POINT('',(-28.2331615074515,5.00000000000001,2.5));
#1255=VECTOR('',#1256,1.);
#1256=DIRECTION('',(0.5,-0.866025403784439,0.));
#1257=CARTESIAN_POINT('',(-26.6165807537258,2.20000000000901,2.5));
#1258=VECTOR('',#1259,1.);
#1259=DIRECTION('',(0.,0.,1.));
#1260=CARTESIAN_POINT('',(-28.2331615074515,5.00000000000001,2.5));
#1261=VECTOR('',#1262,1.);
#1262=DIRECTION('',(0.,0.,1.));
#1263=CARTESIAN_POINT('',(-26.6165807537258,7.79999999999101,2.5));
#1264=VECTOR('',#1265,1.);
#1265=DIRECTION('',(0.,0.,1.));
#1266=CARTESIAN_POINT('',(-23.3834192462742,7.79999999999101,2.5));
#1267=VECTOR('',#1268,1.);
#1268=DIRECTION('',(0.,0.,1.));
#1269=CARTESIAN_POINT('',(-21.7668384925485,5.00000000000001,2.5));
#1270=VECTOR('',#1271,1.);
#1271=DIRECTION('',(0.,0.,1.));
#1272=CARTESIAN_POINT('',(-23.3834192462742,2.200000000009,2.5));
#1273=VECTOR('',#1274,1.);
#1274=DIRECTION('',(0.,0.,1.));
#1275=CARTESIAN_POINT('',(26.6165807537258,2.20000000000899,2.5));
#1276=CARTESIAN_POINT('',(28.2331615074515,4.99999999999999,2.5));
#1277=CARTESIAN_POINT('',(26.6165807537258,2.20000000000899,2.5));
#1278=VECTOR('',#1279,1.);
#1279=DIRECTION('',(0.500000000000001,0.866025403784438,0.));
#1280=CARTESIAN_POINT('',(26.6165807537258,7.79999999999099,2.5));
#1281=CARTESIAN_POINT('',(28.2331615074515,4.99999999999999,2.5));
#1282=VECTOR('',#1283,1.);
#1283=DIRECTION('',(-0.5,0.866025403784439,0.));
#1284=CARTESIAN_POINT('',(23.3834192462742,7.799999999991,2.5));
#1285=CARTESIAN_POINT('',(26.6165807537258,7.79999999999099,2.5));
#1286=VECTOR('',#1287,1.);
#1287=DIRECTION('',(-1.,1.09883582079414E-15,0.));
#1288=CARTESIAN_POINT('',(21.7668384925485,5.,2.5));
#1289=CARTESIAN_POINT('',(23.3834192462742,7.799999999991,2.5));
#1290=VECTOR('',#1291,1.);
#1291=DIRECTION('',(-0.500000000000001,-0.866025403784438,0.));
#1292=CARTESIAN_POINT('',(23.3834192462742,2.20000000000899,2.5));
#1293=CARTESIAN_POINT('',(21.7668384925485,5.,2.5));
#1294=VECTOR('',#1295,1.);
#1295=DIRECTION('',(0.499999999999999,-0.866025403784439,0.));
#1296=CARTESIAN_POINT('',(23.3834192462742,2.20000000000899,2.5));
#1297=VECTOR('',#1298,1.);
#1298=DIRECTION('',(1.,-1.37354477599267E-16,0.));
#1299=CARTESIAN_POINT('',(26.6165807537258,2.20000000000899,2.5));
#1300=VECTOR('',#1301,1.);
#1301=DIRECTION('',(0.,0.,1.));
#1302=CARTESIAN_POINT('',(23.3834192462742,2.20000000000899,2.5));
#1303=VECTOR('',#1304,1.);
#1304=DIRECTION('',(0.,0.,1.));
#1305=CARTESIAN_POINT('',(21.7668384925485,5.,2.5));
#1306=VECTOR('',#1307,1.);
#1307=DIRECTION('',(0.,0.,1.));
#1308=CARTESIAN_POINT('',(23.3834192462742,7.799999999991,2.5));
#1309=VECTOR('',#1310,1.);
#1310=DIRECTION('',(0.,0.,1.));
#1311=CARTESIAN_POINT('',(26.6165807537258,7.79999999999099,2.5));
#1312=VECTOR('',#1313,1.);
#1313=DIRECTION('',(0.,0.,1.));
#1314=CARTESIAN_POINT('',(28.2331615074515,4.99999999999999,2.5));
#1315=VECTOR('',#1316,1.);
#1316=DIRECTION('',(0.,0.,1.));
#1317=CARTESIAN_POINT('',(-1.41421356232134,13.5857864366845,0.));
#1318=CARTESIAN_POINT('',(1.41421356232136,13.5857864366845,0.));
#1319=AXIS2_PLACEMENT_3D('',#1320,#1321,#1322);
#1320=CARTESIAN_POINT('',(5.32907051820075E-15,12.1715728742596,0.));
#1321=DIRECTION('',(0.,0.,1.));
#1322=DIRECTION('',(0.707106781160676,0.707106781212419,0.));
#1323=CARTESIAN_POINT('',(-15.,6.03485789130518E-15,0.));
#1324=CARTESIAN_POINT('',(-15.,6.03485789130518E-15,0.));
#1325=VECTOR('',#1326,1.);
#1326=DIRECTION('',(0.70710678121242,0.707106781160675,0.));
#1327=CARTESIAN_POINT('',(-30.,9.24635360804443E-15,0.));
#1328=CARTESIAN_POINT('',(-30.,9.24635360804443E-15,0.));
#1329=VECTOR('',#1330,1.);
#1330=DIRECTION('',(1.,-2.14099714449283E-16,0.));
#1331=CARTESIAN_POINT('',(-30.,15.,0.));
#1332=CARTESIAN_POINT('',(-30.,15.,0.));
#1333=VECTOR('',#1334,1.);
#1334=DIRECTION('',(-7.105427357601E-16,-1.,0.));
#1335=CARTESIAN_POINT('',(-15.,15.,0.));
#1336=CARTESIAN_POINT('',(-15.,15.,0.));
#1337=VECTOR('',#1338,1.);
#1338=DIRECTION('',(-1.,4.736951571734E-16,0.));
#1339=CARTESIAN_POINT('',(-15.,8.48528137392811,0.));
#1340=CARTESIAN_POINT('',(-15.,8.48528137392811,0.));
#1341=VECTOR('',#1342,1.);
#1342=DIRECTION('',(2.72668236551502E-16,1.,0.));
#1343=CARTESIAN_POINT('',(-8.4852813739281,14.9999999995233,0.));
#1344=CARTESIAN_POINT('',(-8.4852813739281,14.9999999995233,0.));
#1345=VECTOR('',#1346,1.);
#1346=DIRECTION('',(-0.70710678121242,-0.707106781160675,0.));
#1347=CARTESIAN_POINT('',(8.48528137392811,14.9999999995233,0.));
#1348=AXIS2_PLACEMENT_3D('',#1349,#1350,#1351);
#1349=CARTESIAN_POINT('',(3.5527136788005E-15,6.51471862497423,0.));
#1350=DIRECTION('',(0.,0.,-1.));
#1351=DIRECTION('',(-0.707106781160675,0.70710678121242,0.));
#1352=CARTESIAN_POINT('',(15.,8.4852813739281,0.));
#1353=CARTESIAN_POINT('',(15.,8.4852813739281,0.));
#1354=VECTOR('',#1355,1.);
#1355=DIRECTION('',(-0.70710678121242,0.707106781160675,0.));
#1356=CARTESIAN_POINT('',(15.,15.,0.));
#1357=CARTESIAN_POINT('',(15.,15.,0.));
#1358=VECTOR('',#1359,1.);
#1359=DIRECTION('',(0.,-1.,0.));
#1360=CARTESIAN_POINT('',(30.,15.,0.));
#1361=CARTESIAN_POINT('',(30.,15.,0.));
#1362=VECTOR('',#1363,1.);
#1363=DIRECTION('',(-1.,1.1842378929335E-16,0.));
#1364=CARTESIAN_POINT('',(30.,-9.40090413532216E-15,0.));
#1365=CARTESIAN_POINT('',(30.,-9.12334837916587E-15,0.));
#1366=VECTOR('',#1367,1.);
#1367=DIRECTION('',(2.368475785867E-16,1.,0.));
#1368=CARTESIAN_POINT('',(15.,-3.14999310229997E-15,0.));
#1369=CARTESIAN_POINT('',(15.,-3.14999310229997E-15,0.));
#1370=VECTOR('',#1371,1.);
#1371=DIRECTION('',(1.,-4.35231119278565E-16,0.));
#1372=CARTESIAN_POINT('',(1.41421356232135,13.5857864366845,0.));
#1373=VECTOR('',#1374,1.);
#1374=DIRECTION('',(0.70710678121242,-0.707106781160675,0.));
#1375=CARTESIAN_POINT('',(15.,-3.34101123221285E-15,1.));
#1376=CARTESIAN_POINT('',(16.,-2.93660105366368E-15,1.));
#1377=CARTESIAN_POINT('',(15.,-3.1293087856252E-15,1.));
#1378=VECTOR('',#1379,1.);
#1379=DIRECTION('',(1.,-4.39660164564311E-16,0.));
#1380=CARTESIAN_POINT('',(15.,-2.46317497085011E-15,0.));
#1381=VECTOR('',#1382,1.);
#1382=DIRECTION('',(0.,0.,1.));
#1383=CARTESIAN_POINT('',(30.,-9.50216664916488E-15,4.));
#1384=CARTESIAN_POINT('',(30.,-9.40090413532216E-15,0.));
#1385=VECTOR('',#1386,1.);
#1386=DIRECTION('',(0.,0.,1.));
#1387=CARTESIAN_POINT('',(19.,-5.14165828866823E-15,4.));
#1388=CARTESIAN_POINT('',(19.,-4.94346059511372E-15,4.));
#1389=VECTOR('',#1390,1.);
#1390=DIRECTION('',(1.,-4.39660164564314E-16,4.03717463500057E-17));
#1391=CARTESIAN_POINT('',(19.,-6.10266404729587E-15,4.));
#1392=VECTOR('',#1393,1.);
#1393=DIRECTION('',(-0.707106781186547,1.90820789881672E-16,-0.707106781186548));
#1394=CARTESIAN_POINT('',(30.,14.,2.));
#1395=CARTESIAN_POINT('',(30.,15.,1.));
#1396=AXIS2_PLACEMENT_3D('',#1397,#1398,#1399);
#1397=CARTESIAN_POINT('',(30.,14.,1.));
#1398=DIRECTION('',(1.,-2.368475785867E-16,0.));
#1399=DIRECTION('',(2.368475785867E-16,1.,0.));
#1400=CARTESIAN_POINT('',(29.25,13.,2.));
#1401=CARTESIAN_POINT('',(30.,13.,2.));
#1402=VECTOR('',#1403,1.);
#1403=DIRECTION('',(0.,1.,0.));
#1404=CARTESIAN_POINT('',(30.,11.,4.));
#1405=CARTESIAN_POINT('',(30.,13.,2.));
#1406=VECTOR('',#1407,1.);
#1407=DIRECTION('',(0.,-0.707106781186548,0.707106781186547));
#1408=CARTESIAN_POINT('',(30.,-9.22461089300859E-15,4.));
#1409=VECTOR('',#1410,1.);
#1410=DIRECTION('',(3.22973970800046E-16,1.,0.));
#1411=CARTESIAN_POINT('',(30.,15.,0.));
#1412=VECTOR('',#1413,1.);
#1413=DIRECTION('',(0.,0.,1.));
#1414=CARTESIAN_POINT('',(30.,11.,4.));
#1415=CARTESIAN_POINT('',(30.,10.4142135623731,4.58578643762691));
#1416=CARTESIAN_POINT('',(29.5857864376269,9.99999999999999,5.));
#1417=CARTESIAN_POINT('',(29.,9.99999999999999,5.));
#1418=CARTESIAN_POINT('',(17.,13.,2.));
#1419=CARTESIAN_POINT('',(30.,13.,2.));
#1420=VECTOR('',#1421,1.);
#1421=DIRECTION('',(-1.,0.,0.));
#1422=CARTESIAN_POINT('',(17.,13.,2.));
#1423=VECTOR('',#1424,1.);
#1424=DIRECTION('',(0.577350269189625,-0.577350269189626,0.577350269189626));
#1425=CARTESIAN_POINT('',(17.,0.999999999999997,2.));
#1426=CARTESIAN_POINT('',(16.,3.5527136788005E-15,1.));
#1427=CARTESIAN_POINT('',(16.5857864376269,2.88657986402541E-15,1.58578643762691));
#1428=CARTESIAN_POINT('',(17.,0.414213562373098,2.));
#1429=CARTESIAN_POINT('',(17.,1.,2.));
#1430=CARTESIAN_POINT('',(19.,-3.5527136788005E-15,4.));
#1431=CARTESIAN_POINT('',(19.5857864376269,-4.21884749357559E-15,4.5857864376269));
#1432=CARTESIAN_POINT('',(20.,0.41421356237309,5.));
#1433=CARTESIAN_POINT('',(20.,0.999999999999995,5.));
#1434=CARTESIAN_POINT('',(17.,13.,2.));
#1435=VECTOR('',#1436,1.);
#1436=DIRECTION('',(-2.96059473233375E-16,-1.,0.));
#1437=CARTESIAN_POINT('',(-17.,1.00000000000001,2.));
#1438=CARTESIAN_POINT('',(-16.,5.20467178488379E-15,1.));
#1439=CARTESIAN_POINT('',(-16.,7.105427357601E-15,0.999999999999999));
#1440=CARTESIAN_POINT('',(-16.5857864376269,7.105427357601E-15,1.5857864376269));
#1441=CARTESIAN_POINT('',(-17.,0.414213562373102,2.));
#1442=CARTESIAN_POINT('',(-17.,1.00000000000001,2.));
#1443=CARTESIAN_POINT('',(-17.,13.,2.));
#1444=CARTESIAN_POINT('',(-17.,1.00000000000001,2.));
#1445=VECTOR('',#1446,1.);
#1446=DIRECTION('',(5.92118946466751E-16,1.,0.));
#1447=CARTESIAN_POINT('',(-17.,13.,2.));
#1448=VECTOR('',#1449,1.);
#1449=DIRECTION('',(-0.577350269189626,-0.577350269189625,0.577350269189626));
#1450=CARTESIAN_POINT('',(-19.,6.48981018191264E-15,4.));
#1451=CARTESIAN_POINT('',(-19.,7.105427357601E-15,4.));
#1452=CARTESIAN_POINT('',(-19.5857864376269,6.88338275267597E-15,4.58578643762691));
#1453=CARTESIAN_POINT('',(-20.,0.414213562373102,5.));
#1454=CARTESIAN_POINT('',(-20.,1.00000000000001,5.));
#1455=CARTESIAN_POINT('',(-16.,2.81100406651248E-15,0.999999999999999));
#1456=VECTOR('',#1457,1.);
#1457=DIRECTION('',(-0.707106781186547,7.16047114098449E-16,0.707106781186548));
#1458=CARTESIAN_POINT('',(-30.,11.,4.));
#1459=CARTESIAN_POINT('',(-30.,11.,4.));
#1460=CARTESIAN_POINT('',(-30.,10.4142135623731,4.5857864376269));
#1461=CARTESIAN_POINT('',(-29.5857864376269,10.,5.));
#1462=CARTESIAN_POINT('',(-29.,10.,5.));
#1463=CARTESIAN_POINT('',(-29.25,13.,2.));
#1464=CARTESIAN_POINT('',(-17.,13.,2.));
#1465=VECTOR('',#1466,1.);
#1466=DIRECTION('',(-1.,5.46571335200077E-16,0.));
#1467=CARTESIAN_POINT('',(-30.,11.,4.));
#1468=VECTOR('',#1469,1.);
#1469=DIRECTION('',(1.25607396694702E-15,0.707106781186548,-0.707106781186547));
#1470=CARTESIAN_POINT('',(-30.,15.,1.));
#1471=CARTESIAN_POINT('',(-30.,14.,2.));
#1472=AXIS2_PLACEMENT_3D('',#1473,#1474,#1475);
#1473=CARTESIAN_POINT('',(-30.,14.,1.));
#1474=DIRECTION('',(-1.,7.105427357601E-16,0.));
#1475=DIRECTION('',(-5.04870979341448E-30,-7.105427357601E-15,1.));
#1476=CARTESIAN_POINT('',(-30.,15.,0.));
#1477=VECTOR('',#1478,1.);
#1478=DIRECTION('',(0.,0.,1.));
#1479=CARTESIAN_POINT('',(-30.,8.80639309606827E-15,4.));
#1480=CARTESIAN_POINT('',(-30.,9.06406890252284E-15,0.));
#1481=VECTOR('',#1482,1.);
#1482=DIRECTION('',(0.,0.,1.));
#1483=CARTESIAN_POINT('',(-30.,11.,4.));
#1484=VECTOR('',#1485,1.);
#1485=DIRECTION('',(-6.45947941600091E-16,-1.,4.03717463500057E-17));
#1486=CARTESIAN_POINT('',(-30.,14.,2.));
#1487=VECTOR('',#1488,1.);
#1488=DIRECTION('',(0.,-1.,0.));
#1489=CARTESIAN_POINT('',(-15.,6.19782340559988E-15,1.));
#1490=CARTESIAN_POINT('',(-16.,6.34412557429019E-15,1.));
#1491=VECTOR('',#1492,1.);
#1492=DIRECTION('',(1.,-2.18072159687158E-16,0.));
#1493=CARTESIAN_POINT('',(-30.,9.17509120498536E-15,4.));
#1494=VECTOR('',#1495,1.);
#1495=DIRECTION('',(1.,-2.07979223099656E-16,0.));
#1496=CARTESIAN_POINT('',(-15.,6.03485789130518E-15,0.));
#1497=VECTOR('',#1498,1.);
#1498=DIRECTION('',(0.,0.,1.));
#1499=CARTESIAN_POINT('',(1.41421356232136,13.5857864366845,1.));
#1500=CARTESIAN_POINT('',(-1.41421356232134,13.5857864366845,0.999999999999999));
#1501=AXIS2_PLACEMENT_3D('',#1502,#1503,#1504);
#1502=CARTESIAN_POINT('',(5.32907051820075E-15,12.1715728742596,0.999999999999998));
#1503=DIRECTION('',(0.,0.,-1.));
#1504=DIRECTION('',(-0.707106781160674,0.707106781212421,0.));
#1505=CARTESIAN_POINT('',(-1.41421356232134,13.5857864366845,0.));
#1506=VECTOR('',#1507,1.);
#1507=DIRECTION('',(0.,0.,1.));
#1508=CARTESIAN_POINT('',(1.41421356232136,13.5857864366845,0.));
#1509=VECTOR('',#1510,1.);
#1510=DIRECTION('',(0.,0.,1.));
#1511=CARTESIAN_POINT('',(-15.,6.19108877366543E-15,1.));
#1512=VECTOR('',#1513,1.);
#1513=DIRECTION('',(0.70710678121242,0.707106781160675,0.));
#1514=CARTESIAN_POINT('',(-15.,15.,1.));
#1515=CARTESIAN_POINT('',(-15.,15.,1.));
#1516=VECTOR('',#1517,1.);
#1517=DIRECTION('',(-1.,4.736951571734E-16,0.));
#1518=CARTESIAN_POINT('',(-15.,15.,0.));
#1519=VECTOR('',#1520,1.);
#1520=DIRECTION('',(0.,0.,1.));
#1521=CARTESIAN_POINT('',(-15.,8.48528137474706,1.));
#1522=CARTESIAN_POINT('',(-15.,8.48528137720393,1.));
#1523=VECTOR('',#1524,1.);
#1524=DIRECTION('',(2.72668236688609E-16,1.,0.));
#1525=CARTESIAN_POINT('',(-15.,8.48528137392811,0.));
#1526=VECTOR('',#1527,1.);
#1527=DIRECTION('',(0.,0.,1.));
#1528=CARTESIAN_POINT('',(-8.4852813739281,14.9999999995233,1.));
#1529=CARTESIAN_POINT('',(-8.4852813739281,14.9999999995233,1.));
#1530=VECTOR('',#1531,1.);
#1531=DIRECTION('',(-0.70710678121242,-0.707106781160675,0.));
#1532=CARTESIAN_POINT('',(-8.4852813739281,14.9999999995233,0.));
#1533=VECTOR('',#1534,1.);
#1534=DIRECTION('',(0.,0.,1.));
#1535=CARTESIAN_POINT('',(8.48528137392811,14.9999999995233,1.));
#1536=AXIS2_PLACEMENT_3D('',#1537,#1538,#1539);
#1537=CARTESIAN_POINT('',(3.5527136788005E-15,6.51471862497423,1.));
#1538=DIRECTION('',(0.,0.,1.));
#1539=DIRECTION('',(0.707106781160675,0.70710678121242,0.));
#1540=CARTESIAN_POINT('',(8.48528137392811,14.9999999995233,0.));
#1541=VECTOR('',#1542,1.);
#1542=DIRECTION('',(0.,0.,1.));
#1543=CARTESIAN_POINT('',(15.,8.48528137474706,1.));
#1544=CARTESIAN_POINT('',(15.,8.4852813739281,1.));
#1545=VECTOR('',#1546,1.);
#1546=DIRECTION('',(-0.70710678121242,0.707106781160675,0.));
#1547=CARTESIAN_POINT('',(15.,8.4852813739281,0.));
#1548=VECTOR('',#1549,1.);
#1549=DIRECTION('',(0.,0.,1.));
#1550=CARTESIAN_POINT('',(15.,15.,0.999999999999999));
#1551=CARTESIAN_POINT('',(15.,15.,0.999999999999998));
#1552=VECTOR('',#1553,1.);
#1553=DIRECTION('',(0.,-1.,0.));
#1554=CARTESIAN_POINT('',(15.,15.,0.));
#1555=VECTOR('',#1556,1.);
#1556=DIRECTION('',(0.,0.,1.));
#1557=CARTESIAN_POINT('',(30.,15.,1.));
#1558=VECTOR('',#1559,1.);
#1559=DIRECTION('',(-1.,0.,0.));
#1560=CARTESIAN_POINT('',(1.41421356232135,13.5857864366845,1.));
#1561=VECTOR('',#1562,1.);
#1562=DIRECTION('',(0.70710678121242,-0.707106781160675,0.));
#1563=CARTESIAN_POINT('',(16.,14.,2.));
#1564=CARTESIAN_POINT('',(16.,6.07106781167993,2.));
#1565=CARTESIAN_POINT('',(16.,14.,2.));
#1566=VECTOR('',#1567,1.);
#1567=DIRECTION('',(2.24034812911751E-16,-1.,0.));
#1568=CARTESIAN_POINT('',(7.77817459276743,14.2928932183108,2.));
#1569=CARTESIAN_POINT('',(16.,6.07106781167992,2.));
#1570=VECTOR('',#1571,1.);
#1571=DIRECTION('',(-0.70710678121242,0.707106781160675,0.));
#1572=CARTESIAN_POINT('',(-7.77817459276742,14.2928932183108,2.));
#1573=AXIS2_PLACEMENT_3D('',#1574,#1575,#1576);
#1574=CARTESIAN_POINT('',(3.5527136788005E-15,6.51471862497423,2.));
#1575=DIRECTION('',(0.,0.,1.));
#1576=DIRECTION('',(0.707106781160676,0.707106781212419,0.));
#1577=CARTESIAN_POINT('',(-16.,6.07106781167993,2.));
#1578=CARTESIAN_POINT('',(-7.77817459276742,14.2928932183108,2.));
#1579=VECTOR('',#1580,1.);
#1580=DIRECTION('',(-0.70710678121242,-0.707106781160675,0.));
#1581=CARTESIAN_POINT('',(-16.,14.,2.));
#1582=CARTESIAN_POINT('',(-16.,6.07106781167993,2.));
#1583=VECTOR('',#1584,1.);
#1584=DIRECTION('',(2.24034812911751E-16,1.,0.));
#1585=CARTESIAN_POINT('',(-16.,14.,2.));
#1586=VECTOR('',#1587,1.);
#1587=DIRECTION('',(-1.,3.80647894157197E-16,0.));
#1588=CARTESIAN_POINT('',(-15.4142135623517,1.00000000000001,2.));
#1589=CARTESIAN_POINT('',(-17.,1.00000000000001,2.));
#1590=VECTOR('',#1591,1.);
#1591=DIRECTION('',(1.,-2.80043516142458E-16,0.));
#1592=CARTESIAN_POINT('',(-2.12132034348202,14.2928932178969,2.));
#1593=CARTESIAN_POINT('',(-15.4142135623517,1.00000000000001,2.));
#1594=VECTOR('',#1595,1.);
#1595=DIRECTION('',(0.70710678121242,0.707106781160675,0.));
#1596=CARTESIAN_POINT('',(2.12132034348203,14.2928932178969,2.));
#1597=AXIS2_PLACEMENT_3D('',#1598,#1599,#1600);
#1598=CARTESIAN_POINT('',(5.32907051820075E-15,12.1715728742596,2.));
#1599=DIRECTION('',(0.,0.,-1.));
#1600=DIRECTION('',(-0.707106781160673,0.707106781212422,0.));
#1601=CARTESIAN_POINT('',(15.4142135623517,0.999999999999996,2.));
#1602=CARTESIAN_POINT('',(2.12132034348203,14.2928932178969,2.));
#1603=VECTOR('',#1604,1.);
#1604=DIRECTION('',(0.70710678121242,-0.707106781160675,0.));
#1605=CARTESIAN_POINT('',(15.4142135623517,0.999999999999997,2.));
#1606=VECTOR('',#1607,1.);
#1607=DIRECTION('',(1.,-4.20065274213686E-16,0.));
#1608=CARTESIAN_POINT('',(30.,14.,2.));
#1609=VECTOR('',#1610,1.);
#1610=DIRECTION('',(-1.,0.,0.));
#1611=CARTESIAN_POINT('',(30.,-9.76996261670138E-15,4.));
#1612=CARTESIAN_POINT('',(30.,-9.99200722162641E-15,4.58578643762691));
#1613=CARTESIAN_POINT('',(29.5857864376269,0.414213562373085,5.));
#1614=CARTESIAN_POINT('',(29.,0.99999999999999,5.));
#1615=CARTESIAN_POINT('',(-30.,1.06581410364015E-14,4.));
#1616=CARTESIAN_POINT('',(-30.,1.04360964314765E-14,4.58578643762691));
#1617=CARTESIAN_POINT('',(-29.5857864376269,0.414213562373105,5.));
#1618=CARTESIAN_POINT('',(-29.,1.00000000000001,5.));
#1619=CARTESIAN_POINT('',(-15.,6.21724893790088E-15,1.));
#1620=CARTESIAN_POINT('',(-15.,5.99520433297584E-15,1.5857864376269));
#1621=CARTESIAN_POINT('',(-15.1715728752449,0.414213562373101,2.));
#1622=CARTESIAN_POINT('',(-15.4142135623517,1.00000000000001,2.));
#1623=AXIS2_PLACEMENT_3D('',#1624,#1625,#1626);
#1624=CARTESIAN_POINT('',(-2.12132034348202,14.2928932178969,1.));
#1625=DIRECTION('',(-0.70710678121242,-0.707106781160675,2.46519032881566E-32));
#1626=DIRECTION('',(0.707106781160675,-0.70710678121242,-2.52786151767898E-16));
#1627=AXIS2_PLACEMENT_3D('',#1628,#1629,#1630);
#1628=CARTESIAN_POINT('',(2.12132034348203,14.2928932178969,1.));
#1629=DIRECTION('',(0.70710678121242,-0.707106781160675,0.));
#1630=DIRECTION('',(-2.22044604908782E-16,-2.22044604925031E-16,1.));
#1631=CARTESIAN_POINT('',(15.,-3.5527136788005E-15,1.));
#1632=CARTESIAN_POINT('',(15.,-2.1094237467878E-15,1.58578643762691));
#1633=CARTESIAN_POINT('',(15.1715728752449,0.414213562373094,2.));
#1634=CARTESIAN_POINT('',(15.4142135623517,0.999999999999999,2.));
#1635=CARTESIAN_POINT('',(-15.,15.,1.));
#1636=CARTESIAN_POINT('',(-15.,15.,1.5857864376269));
#1637=CARTESIAN_POINT('',(-15.4142135623731,14.5857864376269,2.));
#1638=CARTESIAN_POINT('',(-16.,14.,2.));
#1639=CARTESIAN_POINT('',(15.,15.,1.));
#1640=CARTESIAN_POINT('',(15.,15.,1.5857864376269));
#1641=CARTESIAN_POINT('',(15.4142135623731,14.5857864376269,2.));
#1642=CARTESIAN_POINT('',(16.,14.,2.));
#1643=CARTESIAN_POINT('',(16.,6.07106781167992,2.));
#1644=CARTESIAN_POINT('',(15.4142135623731,7.48528137397984,2.));
#1645=CARTESIAN_POINT('',(15.,8.4852813739281,1.58578643762691));
#1646=CARTESIAN_POINT('',(15.,8.4852813739281,1.));
#1647=AXIS2_PLACEMENT_3D('',#1648,#1649,#1650);
#1648=CARTESIAN_POINT('',(7.77817459276743,14.2928932183108,1.));
#1649=DIRECTION('',(0.70710678121242,-0.707106781160675,9.86076131526265E-31));
#1650=DIRECTION('',(0.707106781160675,0.70710678121242,2.57338027385141E-15));
#1651=AXIS2_PLACEMENT_3D('',#1652,#1653,#1654);
#1652=CARTESIAN_POINT('',(-7.77817459276742,14.2928932183108,1.));
#1653=DIRECTION('',(-0.70710678121242,-0.707106781160675,0.));
#1654=DIRECTION('',(-4.44089209817565E-16,4.44089209850063E-16,1.));
#1655=CARTESIAN_POINT('',(-16.,6.07106781167993,2.));
#1656=CARTESIAN_POINT('',(-15.4142135623731,7.48528137397984,2.));
#1657=CARTESIAN_POINT('',(-15.,8.4852813739281,1.58578643762691));
#1658=CARTESIAN_POINT('',(-15.,8.4852813739281,1.));
ENDSEC;
END-ISO-10303-21;
