ISO-10303-21;
HEADER;
FILE_DESCRIPTION(('STEP AP242'),
    '1');
FILE_NAME('Stoper',
    '',
    ('UNSPECIFIED'),
    ('UNSPECIFIED'),
    'C3D Converter',
    'C3D Toolkit',
    '');
FILE_SCHEMA(('AP242_MANAGED_MODEL_BASED_3D_ENGINEERING_MIM_LF { 1 0 10303 442 1 1 4 }'));
ENDSEC;

DATA;
#1=PRODUCT_DEFINITION('','UNSPECIFIED',#28,#31);
#2=SHAPE_DEFINITION_REPRESENTATION(#26,#3);
#3=SHAPE_REPRESENTATION('NONE',(#4),#8);
#4=AXIS2_PLACEMENT_3D('',#5,#6,#7);
#5=CARTESIAN_POINT('',(0.,0.,0.));
#6=DIRECTION('',(0.,0.,1.));
#7=DIRECTION('',(1.,0.,0.));
#8=(GEOMETRIC_REPRESENTATION_CONTEXT(3)GLOBAL_UNCERTAINTY_ASSIGNED_CONTEXT((#10))
GLOBAL_UNIT_ASSIGNED_CONTEXT((#9,#11,#12))REPRESENTATION_CONTEXT('NONE','NONE'));
#9=(LENGTH_UNIT()NAMED_UNIT(*)SI_UNIT(.MILLI.,.METRE.));
#10=UNCERTAINTY_MEASURE_WITH_UNIT(LENGTH_MEASURE(1.E-5),#9,'NONE','NONE');
#11=(NAMED_UNIT(*)PLANE_ANGLE_UNIT()SI_UNIT($,.RADIAN.));
#12=(NAMED_UNIT(*)SI_UNIT($,.STERADIAN.)SOLID_ANGLE_UNIT());
#13=MANIFOLD_SOLID_BREP('',#14);
#14=CLOSED_SHELL('',(#53,#54,#55,#56,#57,#58,#59,#60,#61,#62,#63,#64,#65,#66,#67,
#68,#69,#70,#71,#72));
#15=COLOUR_RGB('',0.564705882352941,0.564705882352941,0.564705882352941);
#16=FILL_AREA_STYLE_COLOUR('',#15);
#17=FILL_AREA_STYLE($,(#16));
#18=SURFACE_STYLE_FILL_AREA(#17);
#19=SURFACE_SIDE_STYLE('',(#18));
#20=SURFACE_STYLE_USAGE(.BOTH.,#19);
#21=PRESENTATION_STYLE_ASSIGNMENT((#20));
#22=MECHANICAL_DESIGN_GEOMETRIC_PRESENTATION_REPRESENTATION('NONE',(#23),#8);
#23=STYLED_ITEM('',(#21),#13);
#24=ADVANCED_BREP_SHAPE_REPRESENTATION('NONE',(#13),#8);
#25=SHAPE_REPRESENTATION_RELATIONSHIP('','',#3,#24);
#26=PRODUCT_DEFINITION_SHAPE('NONE','NONE',#1);
#27=MECHANICAL_CONTEXT('NONE',#32,'mechanical');
#28=PRODUCT_DEFINITION_FORMATION_WITH_SPECIFIED_SOURCE('ANY','UNSPECIFIED',#29,.NOT_KNOWN.);
#29=PRODUCT('','\X2\0414043504420430043B044C\X0\','NONE',(#27));
#30=PRODUCT_RELATED_PRODUCT_CATEGORY('detail','',(#29));
#31=DESIGN_CONTEXT('detailed design',#32,'design');
#32=APPLICATION_CONTEXT('configuration controlled 3d designs of mechanical parts and assemblies');
#33=APPLICATION_PROTOCOL_DEFINITION('international standard','config_control_design',
1994,#32);
#34=CC_DESIGN_DATE_AND_TIME_ASSIGNMENT(#35,#39,(#1));
#35=DATE_AND_TIME(#36,#37);
#36=CALENDAR_DATE(0,1,1);
#37=LOCAL_TIME(0,0,0.,#38);
#38=COORDINATED_UNIVERSAL_TIME_OFFSET(0,0,.AHEAD.);
#39=DATE_TIME_ROLE('creation_date');
#40=CC_DESIGN_APPROVAL(#41,(#1));
#41=APPROVAL(#42,'UNSPECIFIED');
#42=APPROVAL_STATUS('not_yet_approved');
#43=APPROVAL_DATE_TIME(#44,#41);
#44=DATE_AND_TIME(#45,#46);
#45=CALENDAR_DATE(0,1,1);
#46=LOCAL_TIME(0,0,0.,#47);
#47=COORDINATED_UNIVERSAL_TIME_OFFSET(0,0,.AHEAD.);
#48=PERSON('UNSPECIFIED','Cybermeatball','UNSPECIFIED',('UNSPECIFIED'),('UNSPECIFIED'),
('UNSPECIFIED'));
#49=ORGANIZATION('UNSPECIFIED','UNSPECIFIED','UNSPECIFIED');
#50=PERSON_AND_ORGANIZATION(#48,#49);
#51=PERSON_AND_ORGANIZATION_ROLE('creator');
#52=CC_DESIGN_PERSON_AND_ORGANIZATION_ASSIGNMENT(#50,#51,(#28,#1));
#53=ADVANCED_FACE('',(#73,#75),#77,.T.);
#54=ADVANCED_FACE('',(#82,#84),#86,.F.);
#55=ADVANCED_FACE('',(#91),#93,.T.);
#56=ADVANCED_FACE('',(#98),#100,.F.);
#57=ADVANCED_FACE('',(#105,#107),#109,.T.);
#58=ADVANCED_FACE('',(#114,#116),#118,.F.);
#59=ADVANCED_FACE('',(#123),#125,.T.);
#60=ADVANCED_FACE('',(#130),#132,.T.);
#61=ADVANCED_FACE('',(#137),#139,.T.);
#62=ADVANCED_FACE('',(#144,#146),#148,.F.);
#63=ADVANCED_FACE('',(#153),#155,.T.);
#64=ADVANCED_FACE('',(#160),#162,.T.);
#65=ADVANCED_FACE('',(#167),#169,.F.);
#66=ADVANCED_FACE('',(#174),#176,.F.);
#67=ADVANCED_FACE('',(#181),#183,.F.);
#68=ADVANCED_FACE('',(#188),#190,.F.);
#69=ADVANCED_FACE('',(#195),#197,.F.);
#70=ADVANCED_FACE('',(#202,#204),#206,.F.);
#71=ADVANCED_FACE('',(#211,#213),#215,.F.);
#72=ADVANCED_FACE('',(#220,#222),#224,.T.);
#73=FACE_BOUND('',#74,.T.);
#74=EDGE_LOOP('',(#229,#230,#231,#232,#233,#234));
#75=FACE_BOUND('',#76,.T.);
#76=EDGE_LOOP('',(#235,#236,#237,#238));
#77=PLANE('',#78);
#78=AXIS2_PLACEMENT_3D('',#79,#80,#81);
#79=CARTESIAN_POINT('',(-5.,20.,0.));
#80=DIRECTION('',(-1.,1.33226762955019E-16,0.));
#81=DIRECTION('',(-1.33226762955019E-16,-1.,0.));
#82=FACE_BOUND('',#83,.T.);
#83=EDGE_LOOP('',(#239,#240,#241,#242,#243,#244));
#84=FACE_BOUND('',#85,.T.);
#85=EDGE_LOOP('',(#245));
#86=PLANE('',#87);
#87=AXIS2_PLACEMENT_3D('',#88,#89,#90);
#88=CARTESIAN_POINT('',(-1.5,17.,0.));
#89=DIRECTION('',(-1.,1.24333196885534E-16,0.));
#90=DIRECTION('',(-1.24333196885534E-16,-1.,0.));
#91=FACE_BOUND('',#92,.T.);
#92=EDGE_LOOP('',(#246,#247,#248,#249));
#93=PLANE('',#94);
#94=AXIS2_PLACEMENT_3D('',#95,#96,#97);
#95=CARTESIAN_POINT('',(5.,20.,0.));
#96=DIRECTION('',(0.,1.,0.));
#97=DIRECTION('',(-1.,0.,0.));
#98=FACE_BOUND('',#99,.T.);
#99=EDGE_LOOP('',(#250,#251,#252,#253));
#100=PLANE('',#101);
#101=AXIS2_PLACEMENT_3D('',#102,#103,#104);
#102=CARTESIAN_POINT('',(1.5,17.,0.));
#103=DIRECTION('',(-2.368475785867E-15,1.,0.));
#104=DIRECTION('',(-1.,-2.368475785867E-15,0.));
#105=FACE_BOUND('',#106,.T.);
#106=EDGE_LOOP('',(#254,#255,#256,#257,#258,#259));
#107=FACE_BOUND('',#108,.T.);
#108=EDGE_LOOP('',(#260));
#109=PLANE('',#110);
#110=AXIS2_PLACEMENT_3D('',#111,#112,#113);
#111=CARTESIAN_POINT('',(5.,-1.53080849893419E-15,0.));
#112=DIRECTION('',(1.,-1.33226762955019E-16,0.));
#113=DIRECTION('',(1.33226762955019E-16,1.,0.));
#114=FACE_BOUND('',#115,.T.);
#115=EDGE_LOOP('',(#261,#262,#263,#264,#265,#266));
#116=FACE_BOUND('',#117,.T.);
#117=EDGE_LOOP('',(#267));
#118=PLANE('',#119);
#119=AXIS2_PLACEMENT_3D('',#120,#121,#122);
#120=CARTESIAN_POINT('',(1.5,2.71293199325011,0.));
#121=DIRECTION('',(1.,-1.24333196885534E-16,0.));
#122=DIRECTION('',(1.24333196885534E-16,1.,0.));
#123=FACE_BOUND('',#124,.T.);
#124=EDGE_LOOP('',(#268,#269,#270,#271,#272,#273,#274,#275));
#125=PLANE('',#126);
#126=AXIS2_PLACEMENT_3D('',#127,#128,#129);
#127=CARTESIAN_POINT('',(0.,0.,10.));
#128=DIRECTION('',(0.,0.,1.));
#129=DIRECTION('',(-1.,1.22464679914735E-16,0.));
#130=FACE_BOUND('',#131,.T.);
#131=EDGE_LOOP('',(#276,#277,#278,#279));
#132=PLANE('',#133);
#133=AXIS2_PLACEMENT_3D('',#134,#135,#136);
#134=CARTESIAN_POINT('',(1.5,13.,10.));
#135=DIRECTION('',(0.,-1.,0.));
#136=DIRECTION('',(1.,0.,0.));
#137=FACE_BOUND('',#138,.T.);
#138=EDGE_LOOP('',(#280,#281,#282,#283));
#139=PLANE('',#140);
#140=AXIS2_PLACEMENT_3D('',#141,#142,#143);
#141=CARTESIAN_POINT('',(-5.,13.,10.));
#142=DIRECTION('',(0.,-1.,0.));
#143=DIRECTION('',(1.,0.,0.));
#144=FACE_BOUND('',#145,.T.);
#145=EDGE_LOOP('',(#284,#285,#286,#287));
#146=FACE_BOUND('',#147,.T.);
#147=EDGE_LOOP('',(#288,#289,#290,#291));
#148=PLANE('',#149);
#149=AXIS2_PLACEMENT_3D('',#150,#151,#152);
#150=CARTESIAN_POINT('',(0.,0.,0.));
#151=DIRECTION('',(0.,0.,1.));
#152=DIRECTION('',(-1.,1.22464679914735E-16,0.));
#153=FACE_BOUND('',#154,.T.);
#154=EDGE_LOOP('',(#292,#293,#294,#295));
#155=CYLINDRICAL_SURFACE('',#156,5.);
#156=AXIS2_PLACEMENT_3D('',#157,#158,#159);
#157=CARTESIAN_POINT('',(0.,0.,0.));
#158=DIRECTION('',(0.,0.,1.));
#159=DIRECTION('',(-1.,1.22464679914735E-16,0.));
#160=FACE_BOUND('',#161,.T.);
#161=EDGE_LOOP('',(#296,#297,#298,#299,#300,#301,#302,#303));
#162=PLANE('',#163);
#163=AXIS2_PLACEMENT_3D('',#164,#165,#166);
#164=CARTESIAN_POINT('',(0.,0.,13.));
#165=DIRECTION('',(0.,0.,1.));
#166=DIRECTION('',(-1.,1.22464679914735E-16,0.));
#167=FACE_BOUND('',#168,.T.);
#168=EDGE_LOOP('',(#304,#305,#306,#307));
#169=PLANE('',#170);
#170=AXIS2_PLACEMENT_3D('',#171,#172,#173);
#171=CARTESIAN_POINT('',(-3.,9.1,1.9));
#172=DIRECTION('',(0.,-3.58136459556502E-17,-1.));
#173=DIRECTION('',(-1.43254583822601E-16,-1.,3.58136459556502E-17));
#174=FACE_BOUND('',#175,.T.);
#175=EDGE_LOOP('',(#308,#309,#310,#311));
#176=PLANE('',#177);
#177=AXIS2_PLACEMENT_3D('',#178,#179,#180);
#178=CARTESIAN_POINT('',(-3.,9.1,8.1));
#179=DIRECTION('',(0.,1.,0.));
#180=DIRECTION('',(0.,0.,-1.));
#181=FACE_BOUND('',#182,.T.);
#182=EDGE_LOOP('',(#312,#313,#314,#315));
#183=PLANE('',#184);
#184=AXIS2_PLACEMENT_3D('',#185,#186,#187);
#185=CARTESIAN_POINT('',(-3.,2.9,8.1));
#186=DIRECTION('',(0.,0.,1.));
#187=DIRECTION('',(1.43254583822601E-16,1.,0.));
#188=FACE_BOUND('',#189,.T.);
#189=EDGE_LOOP('',(#316,#317,#318,#319));
#190=PLANE('',#191);
#191=AXIS2_PLACEMENT_3D('',#192,#193,#194);
#192=CARTESIAN_POINT('',(-3.,2.9,1.9));
#193=DIRECTION('',(0.,-1.,0.));
#194=DIRECTION('',(0.,0.,1.));
#195=FACE_BOUND('',#196,.T.);
#196=EDGE_LOOP('',(#320,#321,#322,#323));
#197=CYLINDRICAL_SURFACE('',#198,3.1);
#198=AXIS2_PLACEMENT_3D('',#199,#200,#201);
#199=CARTESIAN_POINT('',(0.,0.,0.));
#200=DIRECTION('',(0.,0.,1.));
#201=DIRECTION('',(-0.483870967741935,0.875139352661325,0.));
#202=FACE_OUTER_BOUND('',#203,.T.);
#203=EDGE_LOOP('',(#324));
#204=FACE_OUTER_BOUND('',#205,.T.);
#205=EDGE_LOOP('',(#325));
#206=CYLINDRICAL_SURFACE('',#207,1.75);
#207=AXIS2_PLACEMENT_3D('',#208,#209,#210);
#208=CARTESIAN_POINT('',(-5.,6.,5.));
#209=DIRECTION('',(1.,-1.33226762955019E-16,0.));
#210=DIRECTION('',(0.,0.,1.));
#211=FACE_OUTER_BOUND('',#212,.T.);
#212=EDGE_LOOP('',(#326));
#213=FACE_OUTER_BOUND('',#214,.T.);
#214=EDGE_LOOP('',(#327));
#215=CYLINDRICAL_SURFACE('',#216,1.75);
#216=AXIS2_PLACEMENT_3D('',#217,#218,#219);
#217=CARTESIAN_POINT('',(-5.,6.,5.));
#218=DIRECTION('',(1.,-1.33226762955019E-16,0.));
#219=DIRECTION('',(0.,0.,1.));
#220=FACE_BOUND('',#221,.T.);
#221=EDGE_LOOP('',(#328,#329,#330,#331));
#222=FACE_BOUND('',#223,.T.);
#223=EDGE_LOOP('',(#332));
#224=PLANE('',#225);
#225=AXIS2_PLACEMENT_3D('',#226,#227,#228);
#226=CARTESIAN_POINT('',(-3.,3.25665420556713E-16,0.));
#227=DIRECTION('',(-1.,1.33226762955019E-16,0.));
#228=DIRECTION('',(0.,0.,-1.));
#229=ORIENTED_EDGE('',*,*,#333,.T.);
#230=ORIENTED_EDGE('',*,*,#334,.T.);
#231=ORIENTED_EDGE('',*,*,#335,.F.);
#232=ORIENTED_EDGE('',*,*,#336,.T.);
#233=ORIENTED_EDGE('',*,*,#337,.F.);
#234=ORIENTED_EDGE('',*,*,#338,.F.);
#235=ORIENTED_EDGE('',*,*,#339,.T.);
#236=ORIENTED_EDGE('',*,*,#340,.T.);
#237=ORIENTED_EDGE('',*,*,#341,.T.);
#238=ORIENTED_EDGE('',*,*,#342,.T.);
#239=ORIENTED_EDGE('',*,*,#343,.F.);
#240=ORIENTED_EDGE('',*,*,#344,.F.);
#241=ORIENTED_EDGE('',*,*,#345,.F.);
#242=ORIENTED_EDGE('',*,*,#346,.T.);
#243=ORIENTED_EDGE('',*,*,#347,.F.);
#244=ORIENTED_EDGE('',*,*,#348,.F.);
#245=ORIENTED_EDGE('',*,*,#349,.T.);
#246=ORIENTED_EDGE('',*,*,#350,.T.);
#247=ORIENTED_EDGE('',*,*,#338,.T.);
#248=ORIENTED_EDGE('',*,*,#351,.F.);
#249=ORIENTED_EDGE('',*,*,#352,.F.);
#250=ORIENTED_EDGE('',*,*,#346,.F.);
#251=ORIENTED_EDGE('',*,*,#353,.F.);
#252=ORIENTED_EDGE('',*,*,#354,.T.);
#253=ORIENTED_EDGE('',*,*,#355,.F.);
#254=ORIENTED_EDGE('',*,*,#356,.T.);
#255=ORIENTED_EDGE('',*,*,#352,.T.);
#256=ORIENTED_EDGE('',*,*,#357,.F.);
#257=ORIENTED_EDGE('',*,*,#358,.F.);
#258=ORIENTED_EDGE('',*,*,#359,.F.);
#259=ORIENTED_EDGE('',*,*,#360,.F.);
#260=ORIENTED_EDGE('',*,*,#361,.T.);
#261=ORIENTED_EDGE('',*,*,#362,.F.);
#262=ORIENTED_EDGE('',*,*,#363,.T.);
#263=ORIENTED_EDGE('',*,*,#364,.F.);
#264=ORIENTED_EDGE('',*,*,#354,.F.);
#265=ORIENTED_EDGE('',*,*,#365,.F.);
#266=ORIENTED_EDGE('',*,*,#366,.T.);
#267=ORIENTED_EDGE('',*,*,#367,.T.);
#268=ORIENTED_EDGE('',*,*,#368,.F.);
#269=ORIENTED_EDGE('',*,*,#335,.T.);
#270=ORIENTED_EDGE('',*,*,#369,.T.);
#271=ORIENTED_EDGE('',*,*,#359,.T.);
#272=ORIENTED_EDGE('',*,*,#370,.F.);
#273=ORIENTED_EDGE('',*,*,#362,.T.);
#274=ORIENTED_EDGE('',*,*,#371,.T.);
#275=ORIENTED_EDGE('',*,*,#343,.T.);
#276=ORIENTED_EDGE('',*,*,#370,.T.);
#277=ORIENTED_EDGE('',*,*,#358,.T.);
#278=ORIENTED_EDGE('',*,*,#372,.F.);
#279=ORIENTED_EDGE('',*,*,#363,.F.);
#280=ORIENTED_EDGE('',*,*,#368,.T.);
#281=ORIENTED_EDGE('',*,*,#348,.T.);
#282=ORIENTED_EDGE('',*,*,#373,.F.);
#283=ORIENTED_EDGE('',*,*,#336,.F.);
#284=ORIENTED_EDGE('',*,*,#356,.F.);
#285=ORIENTED_EDGE('',*,*,#374,.F.);
#286=ORIENTED_EDGE('',*,*,#333,.F.);
#287=ORIENTED_EDGE('',*,*,#350,.F.);
#288=ORIENTED_EDGE('',*,*,#375,.T.);
#289=ORIENTED_EDGE('',*,*,#365,.T.);
#290=ORIENTED_EDGE('',*,*,#353,.T.);
#291=ORIENTED_EDGE('',*,*,#345,.T.);
#292=ORIENTED_EDGE('',*,*,#374,.T.);
#293=ORIENTED_EDGE('',*,*,#360,.T.);
#294=ORIENTED_EDGE('',*,*,#369,.F.);
#295=ORIENTED_EDGE('',*,*,#334,.F.);
#296=ORIENTED_EDGE('',*,*,#337,.T.);
#297=ORIENTED_EDGE('',*,*,#373,.T.);
#298=ORIENTED_EDGE('',*,*,#347,.T.);
#299=ORIENTED_EDGE('',*,*,#355,.T.);
#300=ORIENTED_EDGE('',*,*,#364,.T.);
#301=ORIENTED_EDGE('',*,*,#372,.T.);
#302=ORIENTED_EDGE('',*,*,#357,.T.);
#303=ORIENTED_EDGE('',*,*,#351,.T.);
#304=ORIENTED_EDGE('',*,*,#339,.F.);
#305=ORIENTED_EDGE('',*,*,#376,.F.);
#306=ORIENTED_EDGE('',*,*,#377,.F.);
#307=ORIENTED_EDGE('',*,*,#378,.T.);
#308=ORIENTED_EDGE('',*,*,#340,.F.);
#309=ORIENTED_EDGE('',*,*,#378,.F.);
#310=ORIENTED_EDGE('',*,*,#379,.F.);
#311=ORIENTED_EDGE('',*,*,#380,.T.);
#312=ORIENTED_EDGE('',*,*,#341,.F.);
#313=ORIENTED_EDGE('',*,*,#380,.F.);
#314=ORIENTED_EDGE('',*,*,#381,.F.);
#315=ORIENTED_EDGE('',*,*,#382,.T.);
#316=ORIENTED_EDGE('',*,*,#342,.F.);
#317=ORIENTED_EDGE('',*,*,#382,.F.);
#318=ORIENTED_EDGE('',*,*,#383,.F.);
#319=ORIENTED_EDGE('',*,*,#376,.T.);
#320=ORIENTED_EDGE('',*,*,#371,.F.);
#321=ORIENTED_EDGE('',*,*,#366,.F.);
#322=ORIENTED_EDGE('',*,*,#375,.F.);
#323=ORIENTED_EDGE('',*,*,#344,.T.);
#324=ORIENTED_EDGE('',*,*,#349,.F.);
#325=ORIENTED_EDGE('',*,*,#384,.T.);
#326=ORIENTED_EDGE('',*,*,#361,.F.);
#327=ORIENTED_EDGE('',*,*,#367,.F.);
#328=ORIENTED_EDGE('',*,*,#377,.T.);
#329=ORIENTED_EDGE('',*,*,#383,.T.);
#330=ORIENTED_EDGE('',*,*,#381,.T.);
#331=ORIENTED_EDGE('',*,*,#379,.T.);
#332=ORIENTED_EDGE('',*,*,#384,.F.);
#333=EDGE_CURVE('',#385,#386,#387,.T.);
#334=EDGE_CURVE('',#386,#388,#389,.T.);
#335=EDGE_CURVE('',#390,#388,#391,.T.);
#336=EDGE_CURVE('',#390,#392,#393,.T.);
#337=EDGE_CURVE('',#394,#392,#395,.T.);
#338=EDGE_CURVE('',#385,#394,#396,.T.);
#339=EDGE_CURVE('',#397,#398,#399,.F.);
#340=EDGE_CURVE('',#398,#400,#401,.F.);
#341=EDGE_CURVE('',#400,#402,#403,.F.);
#342=EDGE_CURVE('',#402,#397,#404,.F.);
#343=EDGE_CURVE('',#405,#406,#407,.F.);
#344=EDGE_CURVE('',#408,#405,#409,.T.);
#345=EDGE_CURVE('',#410,#408,#411,.T.);
#346=EDGE_CURVE('',#410,#412,#413,.T.);
#347=EDGE_CURVE('',#414,#412,#415,.T.);
#348=EDGE_CURVE('',#406,#414,#416,.T.);
#349=EDGE_CURVE('',#417,#417,#418,.F.);
#350=EDGE_CURVE('',#419,#385,#420,.T.);
#351=EDGE_CURVE('',#421,#394,#422,.T.);
#352=EDGE_CURVE('',#419,#421,#423,.T.);
#353=EDGE_CURVE('',#424,#410,#425,.T.);
#354=EDGE_CURVE('',#424,#426,#427,.T.);
#355=EDGE_CURVE('',#412,#426,#428,.T.);
#356=EDGE_CURVE('',#429,#419,#430,.T.);
#357=EDGE_CURVE('',#431,#421,#432,.T.);
#358=EDGE_CURVE('',#433,#431,#434,.T.);
#359=EDGE_CURVE('',#435,#433,#436,.T.);
#360=EDGE_CURVE('',#429,#435,#437,.T.);
#361=EDGE_CURVE('',#438,#438,#439,.F.);
#362=EDGE_CURVE('',#440,#441,#442,.F.);
#363=EDGE_CURVE('',#440,#443,#444,.T.);
#364=EDGE_CURVE('',#426,#443,#445,.T.);
#365=EDGE_CURVE('',#446,#424,#447,.T.);
#366=EDGE_CURVE('',#446,#441,#448,.T.);
#367=EDGE_CURVE('',#449,#449,#450,.T.);
#368=EDGE_CURVE('',#390,#406,#451,.T.);
#369=EDGE_CURVE('',#388,#435,#452,.T.);
#370=EDGE_CURVE('',#440,#433,#453,.T.);
#371=EDGE_CURVE('',#441,#405,#454,.F.);
#372=EDGE_CURVE('',#443,#431,#455,.T.);
#373=EDGE_CURVE('',#392,#414,#456,.T.);
#374=EDGE_CURVE('',#386,#429,#457,.T.);
#375=EDGE_CURVE('',#408,#446,#458,.T.);
#376=EDGE_CURVE('',#459,#397,#460,.T.);
#377=EDGE_CURVE('',#461,#459,#462,.T.);
#378=EDGE_CURVE('',#461,#398,#463,.T.);
#379=EDGE_CURVE('',#464,#461,#465,.T.);
#380=EDGE_CURVE('',#464,#400,#466,.T.);
#381=EDGE_CURVE('',#467,#464,#468,.T.);
#382=EDGE_CURVE('',#467,#402,#469,.T.);
#383=EDGE_CURVE('',#459,#467,#470,.T.);
#384=EDGE_CURVE('',#471,#471,#472,.F.);
#385=VERTEX_POINT('',#473);
#386=VERTEX_POINT('',#474);
#387=LINE('',#475,#476);
#388=VERTEX_POINT('',#478);
#389=LINE('',#479,#480);
#390=VERTEX_POINT('',#482);
#391=LINE('',#483,#484);
#392=VERTEX_POINT('',#486);
#393=LINE('',#487,#488);
#394=VERTEX_POINT('',#490);
#395=LINE('',#491,#492);
#396=LINE('',#494,#495);
#397=VERTEX_POINT('',#497);
#398=VERTEX_POINT('',#498);
#399=LINE('',#499,#500);
#400=VERTEX_POINT('',#502);
#401=LINE('',#503,#504);
#402=VERTEX_POINT('',#506);
#403=LINE('',#507,#508);
#404=LINE('',#510,#511);
#405=VERTEX_POINT('',#513);
#406=VERTEX_POINT('',#514);
#407=LINE('',#515,#516);
#408=VERTEX_POINT('',#518);
#409=LINE('',#519,#520);
#410=VERTEX_POINT('',#522);
#411=LINE('',#523,#524);
#412=VERTEX_POINT('',#526);
#413=LINE('',#527,#528);
#414=VERTEX_POINT('',#530);
#415=LINE('',#531,#532);
#416=LINE('',#534,#535);
#417=VERTEX_POINT('',#537);
#418=CIRCLE('',#538,1.75);
#419=VERTEX_POINT('',#542);
#420=LINE('',#543,#544);
#421=VERTEX_POINT('',#546);
#422=LINE('',#547,#548);
#423=LINE('',#550,#551);
#424=VERTEX_POINT('',#553);
#425=LINE('',#554,#555);
#426=VERTEX_POINT('',#557);
#427=LINE('',#558,#559);
#428=LINE('',#561,#562);
#429=VERTEX_POINT('',#564);
#430=LINE('',#565,#566);
#431=VERTEX_POINT('',#568);
#432=LINE('',#569,#570);
#433=VERTEX_POINT('',#572);
#434=LINE('',#573,#574);
#435=VERTEX_POINT('',#576);
#436=LINE('',#577,#578);
#437=LINE('',#580,#581);
#438=VERTEX_POINT('',#583);
#439=CIRCLE('',#584,1.75);
#440=VERTEX_POINT('',#588);
#441=VERTEX_POINT('',#589);
#442=LINE('',#590,#591);
#443=VERTEX_POINT('',#593);
#444=LINE('',#594,#595);
#445=LINE('',#597,#598);
#446=VERTEX_POINT('',#600);
#447=LINE('',#601,#602);
#448=LINE('',#604,#605);
#449=VERTEX_POINT('',#607);
#450=CIRCLE('',#608,1.75);
#451=LINE('',#612,#613);
#452=CIRCLE('',#615,5.);
#453=LINE('',#619,#620);
#454=CIRCLE('',#622,3.1);
#455=LINE('',#626,#627);
#456=LINE('',#629,#630);
#457=CIRCLE('',#632,5.);
#458=CIRCLE('',#636,3.1);
#459=VERTEX_POINT('',#640);
#460=LINE('',#641,#642);
#461=VERTEX_POINT('',#644);
#462=LINE('',#645,#646);
#463=LINE('',#648,#649);
#464=VERTEX_POINT('',#651);
#465=LINE('',#652,#653);
#466=LINE('',#655,#656);
#467=VERTEX_POINT('',#658);
#468=LINE('',#659,#660);
#469=LINE('',#662,#663);
#470=LINE('',#665,#666);
#471=VERTEX_POINT('',#668);
#472=CIRCLE('',#669,1.75);
#473=CARTESIAN_POINT('',(-5.,20.,0.));
#474=CARTESIAN_POINT('',(-5.,1.07156594925393E-15,0.));
#475=CARTESIAN_POINT('',(-5.,20.,0.));
#476=VECTOR('',#477,1.);
#477=DIRECTION('',(-1.33226762955019E-16,-1.,0.));
#478=CARTESIAN_POINT('',(-5.,1.07156594925393E-15,10.));
#479=CARTESIAN_POINT('',(-5.,3.06161699786838E-16,0.));
#480=VECTOR('',#481,1.);
#481=DIRECTION('',(0.,0.,1.));
#482=CARTESIAN_POINT('',(-5.,13.,10.));
#483=CARTESIAN_POINT('',(-5.,13.,10.));
#484=VECTOR('',#485,1.);
#485=DIRECTION('',(-1.36642833800019E-16,-1.,0.));
#486=CARTESIAN_POINT('',(-5.,13.,13.));
#487=CARTESIAN_POINT('',(-5.,13.,10.));
#488=VECTOR('',#489,1.);
#489=DIRECTION('',(0.,0.,1.));
#490=CARTESIAN_POINT('',(-5.,20.,13.));
#491=CARTESIAN_POINT('',(-5.,20.,13.));
#492=VECTOR('',#493,1.);
#493=DIRECTION('',(-1.26882631385732E-16,-1.,0.));
#494=CARTESIAN_POINT('',(-5.,20.,0.));
#495=VECTOR('',#496,1.);
#496=DIRECTION('',(0.,0.,1.));
#497=CARTESIAN_POINT('',(-5.,2.9,1.9));
#498=CARTESIAN_POINT('',(-5.,9.1,1.9));
#499=CARTESIAN_POINT('',(-5.,9.1,1.9));
#500=VECTOR('',#501,1.);
#501=DIRECTION('',(-1.43254583822601E-16,-1.,3.58136459556502E-17));
#502=CARTESIAN_POINT('',(-5.,9.1,8.1));
#503=CARTESIAN_POINT('',(-5.,9.1,8.1));
#504=VECTOR('',#505,1.);
#505=DIRECTION('',(0.,0.,-1.));
#506=CARTESIAN_POINT('',(-5.,2.9,8.1));
#507=CARTESIAN_POINT('',(-5.,2.9,8.1));
#508=VECTOR('',#509,1.);
#509=DIRECTION('',(1.43254583822601E-16,1.,0.));
#510=CARTESIAN_POINT('',(-5.,2.9,1.9));
#511=VECTOR('',#512,1.);
#512=DIRECTION('',(0.,0.,1.));
#513=CARTESIAN_POINT('',(-1.5,2.71293199325011,10.));
#514=CARTESIAN_POINT('',(-1.5,13.,10.));
#515=CARTESIAN_POINT('',(-1.5,13.,10.));
#516=VECTOR('',#517,1.);
#517=DIRECTION('',(-1.29508974634562E-16,-1.,0.));
#518=CARTESIAN_POINT('',(-1.5,2.71293199325011,0.));
#519=CARTESIAN_POINT('',(-1.5,2.71293199325011,0.));
#520=VECTOR('',#521,1.);
#521=DIRECTION('',(0.,0.,1.));
#522=CARTESIAN_POINT('',(-1.5,17.,0.));
#523=CARTESIAN_POINT('',(-1.5,17.,0.));
#524=VECTOR('',#525,1.);
#525=DIRECTION('',(-1.24333196885534E-16,-1.,0.));
#526=CARTESIAN_POINT('',(-1.5,17.,13.));
#527=CARTESIAN_POINT('',(-1.5,17.,0.));
#528=VECTOR('',#529,1.);
#529=DIRECTION('',(0.,0.,1.));
#530=CARTESIAN_POINT('',(-1.5,13.,13.));
#531=CARTESIAN_POINT('',(-1.5,13.,13.));
#532=VECTOR('',#533,1.);
#533=DIRECTION('',(1.11022302462516E-16,1.,0.));
#534=CARTESIAN_POINT('',(-1.5,13.,10.));
#535=VECTOR('',#536,1.);
#536=DIRECTION('',(0.,0.,1.));
#537=CARTESIAN_POINT('',(-1.5,6.,6.75));
#538=AXIS2_PLACEMENT_3D('',#539,#540,#541);
#539=CARTESIAN_POINT('',(-1.5,6.,5.));
#540=DIRECTION('',(1.,-1.24333196885534E-16,0.));
#541=DIRECTION('',(0.,0.,1.));
#542=CARTESIAN_POINT('',(5.,20.,0.));
#543=CARTESIAN_POINT('',(5.,20.,0.));
#544=VECTOR('',#545,1.);
#545=DIRECTION('',(-1.,0.,0.));
#546=CARTESIAN_POINT('',(5.,20.,13.));
#547=CARTESIAN_POINT('',(5.,20.,13.));
#548=VECTOR('',#549,1.);
#549=DIRECTION('',(-1.,0.,0.));
#550=CARTESIAN_POINT('',(5.,20.,0.));
#551=VECTOR('',#552,1.);
#552=DIRECTION('',(0.,0.,1.));
#553=CARTESIAN_POINT('',(1.5,17.,0.));
#554=CARTESIAN_POINT('',(1.5,17.,0.));
#555=VECTOR('',#556,1.);
#556=DIRECTION('',(-1.,-2.368475785867E-15,0.));
#557=CARTESIAN_POINT('',(1.5,17.,13.));
#558=CARTESIAN_POINT('',(1.5,17.,0.));
#559=VECTOR('',#560,1.);
#560=DIRECTION('',(-3.41607084500048E-17,0.,1.));
#561=CARTESIAN_POINT('',(-1.5,17.,13.));
#562=VECTOR('',#563,1.);
#563=DIRECTION('',(1.,2.368475785867E-15,0.));
#564=CARTESIAN_POINT('',(5.,-1.37772764904077E-15,0.));
#565=CARTESIAN_POINT('',(5.,-1.53080849893419E-15,0.));
#566=VECTOR('',#567,1.);
#567=DIRECTION('',(1.33226762955019E-16,1.,0.));
#568=CARTESIAN_POINT('',(5.,13.,13.));
#569=CARTESIAN_POINT('',(5.,13.,13.));
#570=VECTOR('',#571,1.);
#571=DIRECTION('',(1.26882631385732E-16,1.,0.));
#572=CARTESIAN_POINT('',(5.,13.,10.));
#573=CARTESIAN_POINT('',(5.,13.,10.));
#574=VECTOR('',#575,1.);
#575=DIRECTION('',(0.,0.,1.));
#576=CARTESIAN_POINT('',(5.,-1.37772764904077E-15,10.));
#577=CARTESIAN_POINT('',(5.,-1.53080849893419E-15,10.));
#578=VECTOR('',#579,1.);
#579=DIRECTION('',(1.36642833800019E-16,1.,0.));
#580=CARTESIAN_POINT('',(5.,-1.37772764904077E-15,0.));
#581=VECTOR('',#582,1.);
#582=DIRECTION('',(0.,0.,1.));
#583=CARTESIAN_POINT('',(5.,6.,6.75));
#584=AXIS2_PLACEMENT_3D('',#585,#586,#587);
#585=CARTESIAN_POINT('',(5.,6.,5.));
#586=DIRECTION('',(1.,-1.33226762955019E-16,0.));
#587=DIRECTION('',(0.,0.,1.));
#588=CARTESIAN_POINT('',(1.5,13.,10.));
#589=CARTESIAN_POINT('',(1.500000000016,2.71293199324126,10.));
#590=CARTESIAN_POINT('',(1.5,2.71293199325011,10.));
#591=VECTOR('',#592,1.);
#592=DIRECTION('',(1.29508974634562E-16,1.,0.));
#593=CARTESIAN_POINT('',(1.5,13.,13.));
#594=CARTESIAN_POINT('',(1.5,13.,10.));
#595=VECTOR('',#596,1.);
#596=DIRECTION('',(0.,0.,1.));
#597=CARTESIAN_POINT('',(1.5,17.,13.));
#598=VECTOR('',#599,1.);
#599=DIRECTION('',(-1.66533453693773E-16,-1.,0.));
#600=CARTESIAN_POINT('',(1.500000000016,2.71293199324126,0.));
#601=CARTESIAN_POINT('',(1.5,2.71293199325011,0.));
#602=VECTOR('',#603,1.);
#603=DIRECTION('',(1.24333196885534E-16,1.,0.));
#604=CARTESIAN_POINT('',(1.50000000001601,2.71293199324126,0.));
#605=VECTOR('',#606,1.);
#606=DIRECTION('',(0.,0.,1.));
#607=CARTESIAN_POINT('',(1.5,6.,6.75));
#608=AXIS2_PLACEMENT_3D('',#609,#610,#611);
#609=CARTESIAN_POINT('',(1.5,6.,5.));
#610=DIRECTION('',(1.,-1.24333196885534E-16,0.));
#611=DIRECTION('',(0.,0.,1.));
#612=CARTESIAN_POINT('',(-5.,13.,10.));
#613=VECTOR('',#614,1.);
#614=DIRECTION('',(1.,0.,0.));
#615=AXIS2_PLACEMENT_3D('',#616,#617,#618);
#616=CARTESIAN_POINT('',(0.,0.,10.));
#617=DIRECTION('',(0.,0.,1.));
#618=DIRECTION('',(-1.,1.22464679914735E-16,0.));
#619=CARTESIAN_POINT('',(1.5,13.,10.));
#620=VECTOR('',#621,1.);
#621=DIRECTION('',(1.,0.,0.));
#622=AXIS2_PLACEMENT_3D('',#623,#624,#625);
#623=CARTESIAN_POINT('',(0.,0.,10.));
#624=DIRECTION('',(0.,0.,1.));
#625=DIRECTION('',(-0.483870967741935,0.875139352661325,0.));
#626=CARTESIAN_POINT('',(1.5,13.,13.));
#627=VECTOR('',#628,1.);
#628=DIRECTION('',(1.,0.,0.));
#629=CARTESIAN_POINT('',(-5.,13.,13.));
#630=VECTOR('',#631,1.);
#631=DIRECTION('',(1.,0.,0.));
#632=AXIS2_PLACEMENT_3D('',#633,#634,#635);
#633=CARTESIAN_POINT('',(0.,0.,0.));
#634=DIRECTION('',(0.,0.,1.));
#635=DIRECTION('',(-1.,1.22464679914735E-16,0.));
#636=AXIS2_PLACEMENT_3D('',#637,#638,#639);
#637=CARTESIAN_POINT('',(0.,0.,0.));
#638=DIRECTION('',(0.,0.,1.));
#639=DIRECTION('',(-0.483870967741935,0.875139352661325,0.));
#640=CARTESIAN_POINT('',(-3.,2.9,1.9));
#641=CARTESIAN_POINT('',(-3.,2.9,1.9));
#642=VECTOR('',#643,1.);
#643=DIRECTION('',(-1.,0.,0.));
#644=CARTESIAN_POINT('',(-3.,9.1,1.9));
#645=CARTESIAN_POINT('',(-3.,9.1,1.9));
#646=VECTOR('',#647,1.);
#647=DIRECTION('',(-1.43254583822601E-16,-1.,3.58136459556502E-17));
#648=CARTESIAN_POINT('',(-3.,9.1,1.9));
#649=VECTOR('',#650,1.);
#650=DIRECTION('',(-1.,0.,0.));
#651=CARTESIAN_POINT('',(-3.,9.1,8.1));
#652=CARTESIAN_POINT('',(-3.,9.1,8.1));
#653=VECTOR('',#654,1.);
#654=DIRECTION('',(0.,0.,-1.));
#655=CARTESIAN_POINT('',(-3.,9.1,8.1));
#656=VECTOR('',#657,1.);
#657=DIRECTION('',(-1.,0.,0.));
#658=CARTESIAN_POINT('',(-3.,2.9,8.1));
#659=CARTESIAN_POINT('',(-3.,2.9,8.1));
#660=VECTOR('',#661,1.);
#661=DIRECTION('',(1.43254583822601E-16,1.,0.));
#662=CARTESIAN_POINT('',(-3.,2.9,8.1));
#663=VECTOR('',#664,1.);
#664=DIRECTION('',(-1.,0.,0.));
#665=CARTESIAN_POINT('',(-3.,2.9,1.9));
#666=VECTOR('',#667,1.);
#667=DIRECTION('',(0.,0.,1.));
#668=CARTESIAN_POINT('',(-3.,6.,6.75));
#669=AXIS2_PLACEMENT_3D('',#670,#671,#672);
#670=CARTESIAN_POINT('',(-3.,6.,5.));
#671=DIRECTION('',(1.,-1.33226762955019E-16,0.));
#672=DIRECTION('',(0.,0.,1.));
ENDSEC;
END-ISO-10303-21;
