ISO-10303-21;
HEADER;
FILE_DESCRIPTION(('STEP AP242'),
    '1');
FILE_NAME('SyringeHolderSmall',
    '',
    ('UNSPECIFIED'),
    ('UNSPECIFIED'),
    'C3D Converter',
    'C3D Toolkit',
    '');
FILE_SCHEMA(('AP242_MANAGED_MODEL_BASED_3D_ENGINEERING_MIM_LF { 1 0 10303 442 1 1 4 }'));
ENDSEC;

DATA;
#1=PRODUCT_DEFINITION('','UNSPECIFIED',#28,#31);
#2=SHAPE_DEFINITION_REPRESENTATION(#26,#3);
#3=SHAPE_REPRESENTATION('NONE',(#4),#8);
#4=AXIS2_PLACEMENT_3D('',#5,#6,#7);
#5=CARTESIAN_POINT('',(0.,0.,0.));
#6=DIRECTION('',(0.,0.,1.));
#7=DIRECTION('',(1.,0.,0.));
#8=(GEOMETRIC_REPRESENTATION_CONTEXT(3)GLOBAL_UNCERTAINTY_ASSIGNED_CONTEXT((#10))
GLOBAL_UNIT_ASSIGNED_CONTEXT((#9,#11,#12))REPRESENTATION_CONTEXT('NONE','NONE'));
#9=(LENGTH_UNIT()NAMED_UNIT(*)SI_UNIT(.MILLI.,.METRE.));
#10=UNCERTAINTY_MEASURE_WITH_UNIT(LENGTH_MEASURE(1.E-5),#9,'NONE','NONE');
#11=(NAMED_UNIT(*)PLANE_ANGLE_UNIT()SI_UNIT($,.RADIAN.));
#12=(NAMED_UNIT(*)SI_UNIT($,.STERADIAN.)SOLID_ANGLE_UNIT());
#13=MANIFOLD_SOLID_BREP('',#14);
#14=CLOSED_SHELL('',(#53,#54,#55,#56,#57,#58,#59,#60,#61,#62,#63,#64,#65,#66,#67,
#68,#69,#70,#71,#72,#73,#74,#75));
#15=COLOUR_RGB('',0.564705882352941,0.564705882352941,0.564705882352941);
#16=FILL_AREA_STYLE_COLOUR('',#15);
#17=FILL_AREA_STYLE($,(#16));
#18=SURFACE_STYLE_FILL_AREA(#17);
#19=SURFACE_SIDE_STYLE('',(#18));
#20=SURFACE_STYLE_USAGE(.BOTH.,#19);
#21=PRESENTATION_STYLE_ASSIGNMENT((#20));
#22=MECHANICAL_DESIGN_GEOMETRIC_PRESENTATION_REPRESENTATION('NONE',(#23),#8);
#23=STYLED_ITEM('',(#21),#13);
#24=ADVANCED_BREP_SHAPE_REPRESENTATION('NONE',(#13),#8);
#25=SHAPE_REPRESENTATION_RELATIONSHIP('','',#3,#24);
#26=PRODUCT_DEFINITION_SHAPE('NONE','NONE',#1);
#27=MECHANICAL_CONTEXT('NONE',#32,'mechanical');
#28=PRODUCT_DEFINITION_FORMATION_WITH_SPECIFIED_SOURCE('ANY','UNSPECIFIED',#29,.NOT_KNOWN.);
#29=PRODUCT('','\X2\0414043504420430043B044C\X0\','NONE',(#27));
#30=PRODUCT_RELATED_PRODUCT_CATEGORY('detail','',(#29));
#31=DESIGN_CONTEXT('detailed design',#32,'design');
#32=APPLICATION_CONTEXT('configuration controlled 3d designs of mechanical parts and assemblies');
#33=APPLICATION_PROTOCOL_DEFINITION('international standard','config_control_design',
1994,#32);
#34=CC_DESIGN_DATE_AND_TIME_ASSIGNMENT(#35,#39,(#1));
#35=DATE_AND_TIME(#36,#37);
#36=CALENDAR_DATE(0,1,1);
#37=LOCAL_TIME(0,0,0.,#38);
#38=COORDINATED_UNIVERSAL_TIME_OFFSET(0,0,.AHEAD.);
#39=DATE_TIME_ROLE('creation_date');
#40=CC_DESIGN_APPROVAL(#41,(#1));
#41=APPROVAL(#42,'UNSPECIFIED');
#42=APPROVAL_STATUS('not_yet_approved');
#43=APPROVAL_DATE_TIME(#44,#41);
#44=DATE_AND_TIME(#45,#46);
#45=CALENDAR_DATE(0,1,1);
#46=LOCAL_TIME(0,0,0.,#47);
#47=COORDINATED_UNIVERSAL_TIME_OFFSET(0,0,.AHEAD.);
#48=PERSON('UNSPECIFIED','Cybermeatball','UNSPECIFIED',('UNSPECIFIED'),('UNSPECIFIED'),
('UNSPECIFIED'));
#49=ORGANIZATION('UNSPECIFIED','UNSPECIFIED','UNSPECIFIED');
#50=PERSON_AND_ORGANIZATION(#48,#49);
#51=PERSON_AND_ORGANIZATION_ROLE('creator');
#52=CC_DESIGN_PERSON_AND_ORGANIZATION_ASSIGNMENT(#50,#51,(#28,#1));
#53=ADVANCED_FACE('',(#76,#78),#80,.T.);
#54=ADVANCED_FACE('',(#85,#87),#89,.T.);
#55=ADVANCED_FACE('',(#94,#96,#98),#100,.T.);
#56=ADVANCED_FACE('',(#105,#107),#109,.F.);
#57=ADVANCED_FACE('',(#114,#116),#118,.F.);
#58=ADVANCED_FACE('',(#123),#125,.F.);
#59=ADVANCED_FACE('',(#130),#132,.T.);
#60=ADVANCED_FACE('',(#137),#139,.T.);
#61=ADVANCED_FACE('',(#144),#146,.T.);
#62=ADVANCED_FACE('',(#151),#153,.T.);
#63=ADVANCED_FACE('',(#158),#160,.T.);
#64=ADVANCED_FACE('',(#165),#167,.T.);
#65=ADVANCED_FACE('',(#172),#174,.T.);
#66=ADVANCED_FACE('',(#179),#181,.T.);
#67=ADVANCED_FACE('',(#186),#188,.T.);
#68=ADVANCED_FACE('',(#193),#195,.T.);
#69=ADVANCED_FACE('',(#200),#202,.T.);
#70=ADVANCED_FACE('',(#207),#209,.T.);
#71=ADVANCED_FACE('',(#214),#216,.T.);
#72=ADVANCED_FACE('',(#221),#223,.T.);
#73=ADVANCED_FACE('',(#228),#230,.T.);
#74=ADVANCED_FACE('',(#235,#237),#239,.T.);
#75=ADVANCED_FACE('',(#244,#246),#248,.T.);
#76=FACE_BOUND('',#77,.T.);
#77=EDGE_LOOP('',(#253,#254,#255,#256,#257,#258));
#78=FACE_BOUND('',#79,.T.);
#79=EDGE_LOOP('',(#259));
#80=PLANE('',#81);
#81=AXIS2_PLACEMENT_3D('',#82,#83,#84);
#82=CARTESIAN_POINT('',(-15.,2.00000000000001,0.));
#83=DIRECTION('',(2.368475785867E-16,1.,0.));
#84=DIRECTION('',(-1.,2.368475785867E-16,0.));
#85=FACE_BOUND('',#86,.T.);
#86=EDGE_LOOP('',(#260,#261,#262,#263,#264));
#87=FACE_BOUND('',#88,.T.);
#88=EDGE_LOOP('',(#265));
#89=PLANE('',#90);
#90=AXIS2_PLACEMENT_3D('',#91,#92,#93);
#91=CARTESIAN_POINT('',(30.,1.99999999999999,0.));
#92=DIRECTION('',(1.33226762955019E-16,1.,0.));
#93=DIRECTION('',(-1.,1.33226762955019E-16,0.));
#94=FACE_BOUND('',#95,.T.);
#95=EDGE_LOOP('',(#266,#267,#268,#269));
#96=FACE_BOUND('',#97,.T.);
#97=EDGE_LOOP('',(#270));
#98=FACE_BOUND('',#99,.T.);
#99=EDGE_LOOP('',(#271));
#100=PLANE('',#101);
#101=AXIS2_PLACEMENT_3D('',#102,#103,#104);
#102=CARTESIAN_POINT('',(-30.,9.28913380653843E-15,0.));
#103=DIRECTION('',(-3.26763437299612E-16,-1.,0.));
#104=DIRECTION('',(1.,-3.26763437299612E-16,0.));
#105=FACE_OUTER_BOUND('',#106,.T.);
#106=EDGE_LOOP('',(#272));
#107=FACE_OUTER_BOUND('',#108,.T.);
#108=EDGE_LOOP('',(#273));
#109=CYLINDRICAL_SURFACE('',#110,1.75);
#110=AXIS2_PLACEMENT_3D('',#111,#112,#113);
#111=CARTESIAN_POINT('',(20.,14.5,9.99999999999999));
#112=DIRECTION('',(-3.26763437299612E-16,-1.,0.));
#113=DIRECTION('',(-1.,3.26763437299612E-16,1.22464679914735E-16));
#114=FACE_OUTER_BOUND('',#115,.T.);
#115=EDGE_LOOP('',(#274));
#116=FACE_OUTER_BOUND('',#117,.T.);
#117=EDGE_LOOP('',(#275));
#118=CYLINDRICAL_SURFACE('',#119,1.75);
#119=AXIS2_PLACEMENT_3D('',#120,#121,#122);
#120=CARTESIAN_POINT('',(-20.,14.5,10.));
#121=DIRECTION('',(-3.26763437299612E-16,-1.,0.));
#122=DIRECTION('',(-1.,3.26763437299612E-16,1.22464679914735E-16));
#123=FACE_BOUND('',#124,.T.);
#124=EDGE_LOOP('',(#276,#277,#278,#279,#280,#281,#282,#283));
#125=PLANE('',#126);
#126=AXIS2_PLACEMENT_3D('',#127,#128,#129);
#127=CARTESIAN_POINT('',(0.,0.,0.));
#128=DIRECTION('',(0.,0.,1.));
#129=DIRECTION('',(-1.,1.22464679914735E-16,0.));
#130=FACE_BOUND('',#131,.T.);
#131=EDGE_LOOP('',(#284,#285,#286,#287));
#132=PLANE('',#133);
#133=AXIS2_PLACEMENT_3D('',#134,#135,#136);
#134=CARTESIAN_POINT('',(-30.,2.00000000000001,0.));
#135=DIRECTION('',(-1.,0.,0.));
#136=DIRECTION('',(0.,-1.,0.));
#137=FACE_BOUND('',#138,.T.);
#138=EDGE_LOOP('',(#288,#289,#290,#291,#292,#293,#294,#295));
#139=PLANE('',#140);
#140=AXIS2_PLACEMENT_3D('',#141,#142,#143);
#141=CARTESIAN_POINT('',(0.,0.,20.));
#142=DIRECTION('',(0.,0.,1.));
#143=DIRECTION('',(-1.,1.22464679914735E-16,0.));
#144=FACE_BOUND('',#145,.T.);
#145=EDGE_LOOP('',(#296,#297,#298,#299));
#146=PLANE('',#147);
#147=AXIS2_PLACEMENT_3D('',#148,#149,#150);
#148=CARTESIAN_POINT('',(-2.49999999999999,14.5,0.));
#149=DIRECTION('',(-0.707106781186547,0.707106781186548,0.));
#150=DIRECTION('',(-0.707106781186548,-0.707106781186547,0.));
#151=FACE_BOUND('',#152,.T.);
#152=EDGE_LOOP('',(#300,#301,#302,#303,#304));
#153=PLANE('',#154);
#154=AXIS2_PLACEMENT_3D('',#155,#156,#157);
#155=CARTESIAN_POINT('',(15.,2.,0.));
#156=DIRECTION('',(0.707106781186548,0.707106781186547,0.));
#157=DIRECTION('',(-0.707106781186547,0.707106781186548,0.));
#158=FACE_BOUND('',#159,.T.);
#159=EDGE_LOOP('',(#305,#306,#307,#308));
#160=PLANE('',#161);
#161=AXIS2_PLACEMENT_3D('',#162,#163,#164);
#162=CARTESIAN_POINT('',(30.,-1.03166724314383E-14,0.));
#163=DIRECTION('',(1.,0.,0.));
#164=DIRECTION('',(0.,1.,0.));
#165=FACE_BOUND('',#166,.T.);
#166=EDGE_LOOP('',(#309,#310,#311,#312));
#167=PLANE('',#168);
#168=AXIS2_PLACEMENT_3D('',#169,#170,#171);
#169=CARTESIAN_POINT('',(2.5,14.5,0.));
#170=DIRECTION('',(3.5527136788005E-16,1.,0.));
#171=DIRECTION('',(-1.,3.5527136788005E-16,0.));
#172=FACE_BOUND('',#173,.T.);
#173=EDGE_LOOP('',(#313,#314,#315,#316));
#174=CYLINDRICAL_SURFACE('',#175,1.);
#175=AXIS2_PLACEMENT_3D('',#176,#177,#178);
#176=CARTESIAN_POINT('',(-34.,1.00000000000001,1.));
#177=DIRECTION('',(-1.,3.28168864631848E-16,0.));
#178=DIRECTION('',(0.,0.,-1.));
#179=FACE_BOUND('',#180,.T.);
#180=EDGE_LOOP('',(#317,#318,#319,#320));
#181=CYLINDRICAL_SURFACE('',#182,1.);
#182=AXIS2_PLACEMENT_3D('',#183,#184,#185);
#183=CARTESIAN_POINT('',(29.,0.99999999999999,-4.));
#184=DIRECTION('',(0.,0.,-1.));
#185=DIRECTION('',(1.,-1.11022302462516E-16,0.));
#186=FACE_BOUND('',#187,.T.);
#187=EDGE_LOOP('',(#321,#322,#323,#324));
#188=CYLINDRICAL_SURFACE('',#189,1.);
#189=AXIS2_PLACEMENT_3D('',#190,#191,#192);
#190=CARTESIAN_POINT('',(-34.,1.00000000000001,19.));
#191=DIRECTION('',(1.,-3.28168864631848E-16,0.));
#192=DIRECTION('',(0.,0.,1.));
#193=FACE_BOUND('',#194,.T.);
#194=EDGE_LOOP('',(#325,#326,#327,#328));
#195=CYLINDRICAL_SURFACE('',#196,1.);
#196=AXIS2_PLACEMENT_3D('',#197,#198,#199);
#197=CARTESIAN_POINT('',(-29.,1.00000000000001,-4.));
#198=DIRECTION('',(0.,0.,-1.));
#199=DIRECTION('',(0.,-1.,0.));
#200=FACE_BOUND('',#201,.T.);
#201=EDGE_LOOP('',(#329,#330,#331,#332));
#202=CYLINDRICAL_SURFACE('',#203,1.);
#203=AXIS2_PLACEMENT_3D('',#204,#205,#206);
#204=CARTESIAN_POINT('',(6.5,13.5,1.));
#205=DIRECTION('',(1.,-2.73285667600039E-16,0.));
#206=DIRECTION('',(3.94430452610506E-31,1.77635683940025E-15,-1.));
#207=FACE_BOUND('',#208,.T.);
#208=EDGE_LOOP('',(#333,#334,#335,#336));
#209=CYLINDRICAL_SURFACE('',#210,1.);
#210=AXIS2_PLACEMENT_3D('',#211,#212,#213);
#211=CARTESIAN_POINT('',(1.03553390593274,16.6213203435596,1.));
#212=DIRECTION('',(0.707106781186548,0.707106781186547,0.));
#213=DIRECTION('',(1.88737914186277E-15,-1.88737914186277E-15,-1.));
#214=FACE_BOUND('',#215,.T.);
#215=EDGE_LOOP('',(#337,#338,#339,#340));
#216=CYLINDRICAL_SURFACE('',#217,1.);
#217=AXIS2_PLACEMENT_3D('',#218,#219,#220);
#218=CARTESIAN_POINT('',(17.1213203435596,-1.53553390593274,19.));
#219=DIRECTION('',(-0.707106781186547,0.707106781186548,0.));
#220=DIRECTION('',(1.11022302462516E-16,1.11022302462515E-16,1.));
#221=FACE_BOUND('',#222,.T.);
#222=EDGE_LOOP('',(#341,#342,#343,#344));
#223=CYLINDRICAL_SURFACE('',#224,1.);
#224=AXIS2_PLACEMENT_3D('',#225,#226,#227);
#225=CARTESIAN_POINT('',(6.5,13.5,19.));
#226=DIRECTION('',(-1.,2.73285667600039E-16,0.));
#227=DIRECTION('',(3.94430452610506E-31,1.77635683940025E-15,1.));
#228=FACE_BOUND('',#229,.T.);
#229=EDGE_LOOP('',(#345,#346,#347,#348));
#230=CYLINDRICAL_SURFACE('',#231,1.);
#231=AXIS2_PLACEMENT_3D('',#232,#233,#234);
#232=CARTESIAN_POINT('',(1.03553390593274,16.6213203435596,19.));
#233=DIRECTION('',(-0.707106781186548,-0.707106781186547,0.));
#234=DIRECTION('',(1.77635683940025E-15,-1.77635683940025E-15,1.));
#235=FACE_OUTER_BOUND('',#236,.T.);
#236=EDGE_LOOP('',(#349));
#237=FACE_OUTER_BOUND('',#238,.T.);
#238=EDGE_LOOP('',(#350));
#239=TOROIDAL_SURFACE('',#240,2.75,1.);
#240=AXIS2_PLACEMENT_3D('',#241,#242,#243);
#241=CARTESIAN_POINT('',(-20.,1.00000000000001,10.));
#242=DIRECTION('',(-3.26763437299612E-16,-1.,0.));
#243=DIRECTION('',(-1.,3.26763437299612E-16,0.));
#244=FACE_OUTER_BOUND('',#245,.T.);
#245=EDGE_LOOP('',(#351));
#246=FACE_OUTER_BOUND('',#247,.T.);
#247=EDGE_LOOP('',(#352));
#248=TOROIDAL_SURFACE('',#249,2.75,1.);
#249=AXIS2_PLACEMENT_3D('',#250,#251,#252);
#250=CARTESIAN_POINT('',(20.,0.999999999999991,9.99999999999999));
#251=DIRECTION('',(-3.26763437299612E-16,-1.,0.));
#252=DIRECTION('',(-1.,3.26763437299612E-16,0.));
#253=ORIENTED_EDGE('',*,*,#353,.F.);
#254=ORIENTED_EDGE('',*,*,#354,.F.);
#255=ORIENTED_EDGE('',*,*,#355,.F.);
#256=ORIENTED_EDGE('',*,*,#356,.T.);
#257=ORIENTED_EDGE('',*,*,#357,.T.);
#258=ORIENTED_EDGE('',*,*,#358,.F.);
#259=ORIENTED_EDGE('',*,*,#359,.T.);
#260=ORIENTED_EDGE('',*,*,#360,.F.);
#261=ORIENTED_EDGE('',*,*,#361,.F.);
#262=ORIENTED_EDGE('',*,*,#362,.F.);
#263=ORIENTED_EDGE('',*,*,#363,.T.);
#264=ORIENTED_EDGE('',*,*,#364,.T.);
#265=ORIENTED_EDGE('',*,*,#365,.T.);
#266=ORIENTED_EDGE('',*,*,#366,.T.);
#267=ORIENTED_EDGE('',*,*,#367,.T.);
#268=ORIENTED_EDGE('',*,*,#368,.F.);
#269=ORIENTED_EDGE('',*,*,#369,.F.);
#270=ORIENTED_EDGE('',*,*,#370,.T.);
#271=ORIENTED_EDGE('',*,*,#371,.T.);
#272=ORIENTED_EDGE('',*,*,#365,.F.);
#273=ORIENTED_EDGE('',*,*,#372,.F.);
#274=ORIENTED_EDGE('',*,*,#359,.F.);
#275=ORIENTED_EDGE('',*,*,#373,.F.);
#276=ORIENTED_EDGE('',*,*,#374,.F.);
#277=ORIENTED_EDGE('',*,*,#375,.F.);
#278=ORIENTED_EDGE('',*,*,#363,.F.);
#279=ORIENTED_EDGE('',*,*,#376,.F.);
#280=ORIENTED_EDGE('',*,*,#377,.F.);
#281=ORIENTED_EDGE('',*,*,#378,.F.);
#282=ORIENTED_EDGE('',*,*,#356,.F.);
#283=ORIENTED_EDGE('',*,*,#379,.F.);
#284=ORIENTED_EDGE('',*,*,#380,.T.);
#285=ORIENTED_EDGE('',*,*,#381,.F.);
#286=ORIENTED_EDGE('',*,*,#357,.F.);
#287=ORIENTED_EDGE('',*,*,#378,.T.);
#288=ORIENTED_EDGE('',*,*,#382,.T.);
#289=ORIENTED_EDGE('',*,*,#383,.T.);
#290=ORIENTED_EDGE('',*,*,#384,.T.);
#291=ORIENTED_EDGE('',*,*,#358,.T.);
#292=ORIENTED_EDGE('',*,*,#381,.T.);
#293=ORIENTED_EDGE('',*,*,#385,.T.);
#294=ORIENTED_EDGE('',*,*,#386,.T.);
#295=ORIENTED_EDGE('',*,*,#361,.T.);
#296=ORIENTED_EDGE('',*,*,#387,.F.);
#297=ORIENTED_EDGE('',*,*,#388,.F.);
#298=ORIENTED_EDGE('',*,*,#389,.T.);
#299=ORIENTED_EDGE('',*,*,#354,.T.);
#300=ORIENTED_EDGE('',*,*,#390,.F.);
#301=ORIENTED_EDGE('',*,*,#364,.F.);
#302=ORIENTED_EDGE('',*,*,#375,.T.);
#303=ORIENTED_EDGE('',*,*,#391,.F.);
#304=ORIENTED_EDGE('',*,*,#392,.T.);
#305=ORIENTED_EDGE('',*,*,#393,.F.);
#306=ORIENTED_EDGE('',*,*,#376,.T.);
#307=ORIENTED_EDGE('',*,*,#362,.T.);
#308=ORIENTED_EDGE('',*,*,#386,.F.);
#309=ORIENTED_EDGE('',*,*,#394,.F.);
#310=ORIENTED_EDGE('',*,*,#392,.F.);
#311=ORIENTED_EDGE('',*,*,#395,.T.);
#312=ORIENTED_EDGE('',*,*,#388,.T.);
#313=ORIENTED_EDGE('',*,*,#366,.F.);
#314=ORIENTED_EDGE('',*,*,#396,.F.);
#315=ORIENTED_EDGE('',*,*,#377,.T.);
#316=ORIENTED_EDGE('',*,*,#397,.T.);
#317=ORIENTED_EDGE('',*,*,#367,.F.);
#318=ORIENTED_EDGE('',*,*,#397,.F.);
#319=ORIENTED_EDGE('',*,*,#393,.T.);
#320=ORIENTED_EDGE('',*,*,#398,.T.);
#321=ORIENTED_EDGE('',*,*,#368,.T.);
#322=ORIENTED_EDGE('',*,*,#398,.F.);
#323=ORIENTED_EDGE('',*,*,#385,.F.);
#324=ORIENTED_EDGE('',*,*,#399,.T.);
#325=ORIENTED_EDGE('',*,*,#380,.F.);
#326=ORIENTED_EDGE('',*,*,#396,.T.);
#327=ORIENTED_EDGE('',*,*,#369,.T.);
#328=ORIENTED_EDGE('',*,*,#399,.F.);
#329=ORIENTED_EDGE('',*,*,#395,.F.);
#330=ORIENTED_EDGE('',*,*,#391,.T.);
#331=ORIENTED_EDGE('',*,*,#374,.T.);
#332=ORIENTED_EDGE('',*,*,#400,.T.);
#333=ORIENTED_EDGE('',*,*,#389,.F.);
#334=ORIENTED_EDGE('',*,*,#400,.F.);
#335=ORIENTED_EDGE('',*,*,#379,.T.);
#336=ORIENTED_EDGE('',*,*,#355,.T.);
#337=ORIENTED_EDGE('',*,*,#390,.T.);
#338=ORIENTED_EDGE('',*,*,#401,.T.);
#339=ORIENTED_EDGE('',*,*,#382,.F.);
#340=ORIENTED_EDGE('',*,*,#360,.T.);
#341=ORIENTED_EDGE('',*,*,#394,.T.);
#342=ORIENTED_EDGE('',*,*,#402,.T.);
#343=ORIENTED_EDGE('',*,*,#383,.F.);
#344=ORIENTED_EDGE('',*,*,#401,.F.);
#345=ORIENTED_EDGE('',*,*,#387,.T.);
#346=ORIENTED_EDGE('',*,*,#353,.T.);
#347=ORIENTED_EDGE('',*,*,#384,.F.);
#348=ORIENTED_EDGE('',*,*,#402,.F.);
#349=ORIENTED_EDGE('',*,*,#373,.T.);
#350=ORIENTED_EDGE('',*,*,#371,.F.);
#351=ORIENTED_EDGE('',*,*,#372,.T.);
#352=ORIENTED_EDGE('',*,*,#370,.F.);
#353=EDGE_CURVE('',#403,#404,#405,.F.);
#354=EDGE_CURVE('',#406,#403,#407,.T.);
#355=EDGE_CURVE('',#408,#406,#409,.T.);
#356=EDGE_CURVE('',#408,#410,#411,.T.);
#357=EDGE_CURVE('',#410,#412,#413,.T.);
#358=EDGE_CURVE('',#404,#412,#414,.T.);
#359=EDGE_CURVE('',#415,#415,#416,.T.);
#360=EDGE_CURVE('',#417,#418,#419,.T.);
#361=EDGE_CURVE('',#420,#417,#421,.T.);
#362=EDGE_CURVE('',#422,#420,#423,.T.);
#363=EDGE_CURVE('',#422,#424,#425,.T.);
#364=EDGE_CURVE('',#424,#418,#426,.T.);
#365=EDGE_CURVE('',#427,#427,#428,.T.);
#366=EDGE_CURVE('',#429,#430,#431,.T.);
#367=EDGE_CURVE('',#430,#432,#433,.T.);
#368=EDGE_CURVE('',#434,#432,#435,.T.);
#369=EDGE_CURVE('',#429,#434,#436,.T.);
#370=EDGE_CURVE('',#437,#437,#438,.F.);
#371=EDGE_CURVE('',#439,#439,#440,.F.);
#372=EDGE_CURVE('',#441,#441,#442,.F.);
#373=EDGE_CURVE('',#443,#443,#444,.F.);
#374=EDGE_CURVE('',#445,#446,#447,.T.);
#375=EDGE_CURVE('',#424,#445,#448,.T.);
#376=EDGE_CURVE('',#449,#422,#450,.T.);
#377=EDGE_CURVE('',#451,#449,#452,.T.);
#378=EDGE_CURVE('',#410,#451,#453,.T.);
#379=EDGE_CURVE('',#446,#408,#454,.T.);
#380=EDGE_CURVE('',#451,#455,#456,.T.);
#381=EDGE_CURVE('',#412,#455,#457,.T.);
#382=EDGE_CURVE('',#417,#458,#459,.T.);
#383=EDGE_CURVE('',#458,#460,#461,.T.);
#384=EDGE_CURVE('',#460,#404,#462,.T.);
#385=EDGE_CURVE('',#455,#463,#464,.T.);
#386=EDGE_CURVE('',#463,#420,#465,.T.);
#387=EDGE_CURVE('',#466,#403,#467,.T.);
#388=EDGE_CURVE('',#468,#466,#469,.T.);
#389=EDGE_CURVE('',#468,#406,#470,.T.);
#390=EDGE_CURVE('',#418,#471,#472,.T.);
#391=EDGE_CURVE('',#473,#445,#474,.F.);
#392=EDGE_CURVE('',#473,#471,#475,.T.);
#393=EDGE_CURVE('',#449,#463,#476,.T.);
#394=EDGE_CURVE('',#471,#466,#477,.T.);
#395=EDGE_CURVE('',#473,#468,#478,.T.);
#396=EDGE_CURVE('',#451,#429,#479,.T.);
#397=EDGE_CURVE('',#449,#430,#480,.F.);
#398=EDGE_CURVE('',#463,#432,#481,.F.);
#399=EDGE_CURVE('',#455,#434,#482,.F.);
#400=EDGE_CURVE('',#446,#468,#483,.F.);
#401=EDGE_CURVE('',#471,#458,#484,.T.);
#402=EDGE_CURVE('',#466,#460,#485,.T.);
#403=VERTEX_POINT('',#486);
#404=VERTEX_POINT('',#487);
#405=(BOUNDED_CURVE()B_SPLINE_CURVE(3,
(#488,#489,#490,#491),
.UNSPECIFIED.,.F.,.F.)B_SPLINE_CURVE_WITH_KNOTS((4,4),
(0.,1.),
.UNSPECIFIED.)CURVE()GEOMETRIC_REPRESENTATION_ITEM()RATIONAL_B_SPLINE_CURVE((1.,
0.804737854124364,0.804737854124364,1.))REPRESENTATION_ITEM(''));
#406=VERTEX_POINT('',#492);
#407=LINE('',#493,#494);
#408=VERTEX_POINT('',#496);
#409=(BOUNDED_CURVE()B_SPLINE_CURVE(3,
(#497,#498,#499,#500),
.UNSPECIFIED.,.F.,.F.)B_SPLINE_CURVE_WITH_KNOTS((4,4),
(0.,1.),
.UNSPECIFIED.)CURVE()GEOMETRIC_REPRESENTATION_ITEM()RATIONAL_B_SPLINE_CURVE((1.,
0.804737854124364,0.804737854124364,1.))REPRESENTATION_ITEM(''));
#410=VERTEX_POINT('',#501);
#411=LINE('',#502,#503);
#412=VERTEX_POINT('',#505);
#413=LINE('',#506,#507);
#414=LINE('',#509,#510);
#415=VERTEX_POINT('',#512);
#416=CIRCLE('',#513,1.75);
#417=VERTEX_POINT('',#517);
#418=VERTEX_POINT('',#518);
#419=(BOUNDED_CURVE()B_SPLINE_CURVE(3,
(#519,#520,#521,#522),
.UNSPECIFIED.,.F.,.F.)B_SPLINE_CURVE_WITH_KNOTS((4,4),
(0.,1.),
.UNSPECIFIED.)CURVE()GEOMETRIC_REPRESENTATION_ITEM()RATIONAL_B_SPLINE_CURVE((1.,
0.804737854124365,0.804737854124365,1.))REPRESENTATION_ITEM(''));
#420=VERTEX_POINT('',#523);
#421=LINE('',#524,#525);
#422=VERTEX_POINT('',#527);
#423=LINE('',#528,#529);
#424=VERTEX_POINT('',#531);
#425=LINE('',#532,#533);
#426=LINE('',#535,#536);
#427=VERTEX_POINT('',#538);
#428=CIRCLE('',#539,1.75);
#429=VERTEX_POINT('',#543);
#430=VERTEX_POINT('',#544);
#431=LINE('',#545,#546);
#432=VERTEX_POINT('',#548);
#433=LINE('',#549,#550);
#434=VERTEX_POINT('',#552);
#435=LINE('',#553,#554);
#436=LINE('',#556,#557);
#437=VERTEX_POINT('',#559);
#438=CIRCLE('',#560,2.75);
#439=VERTEX_POINT('',#564);
#440=CIRCLE('',#565,2.75);
#441=VERTEX_POINT('',#569);
#442=CIRCLE('',#570,1.75);
#443=VERTEX_POINT('',#574);
#444=CIRCLE('',#575,1.75);
#445=VERTEX_POINT('',#579);
#446=VERTEX_POINT('',#580);
#447=LINE('',#581,#582);
#448=LINE('',#584,#585);
#449=VERTEX_POINT('',#587);
#450=LINE('',#588,#589);
#451=VERTEX_POINT('',#591);
#452=LINE('',#592,#593);
#453=LINE('',#595,#596);
#454=LINE('',#598,#599);
#455=VERTEX_POINT('',#601);
#456=LINE('',#602,#603);
#457=LINE('',#605,#606);
#458=VERTEX_POINT('',#608);
#459=LINE('',#609,#610);
#460=VERTEX_POINT('',#612);
#461=LINE('',#613,#614);
#462=LINE('',#616,#617);
#463=VERTEX_POINT('',#619);
#464=LINE('',#620,#621);
#465=LINE('',#623,#624);
#466=VERTEX_POINT('',#626);
#467=LINE('',#627,#628);
#468=VERTEX_POINT('',#630);
#469=LINE('',#631,#632);
#470=LINE('',#634,#635);
#471=VERTEX_POINT('',#637);
#472=LINE('',#638,#639);
#473=VERTEX_POINT('',#641);
#474=(BOUNDED_CURVE()B_SPLINE_CURVE(3,
(#642,#643,#644,#645),
.UNSPECIFIED.,.F.,.F.)B_SPLINE_CURVE_WITH_KNOTS((4,4),
(0.,1.),
.UNSPECIFIED.)CURVE()GEOMETRIC_REPRESENTATION_ITEM()RATIONAL_B_SPLINE_CURVE((1.,
0.804737854124365,0.804737854124365,1.))REPRESENTATION_ITEM(''));
#475=LINE('',#646,#647);
#476=LINE('',#649,#650);
#477=LINE('',#652,#653);
#478=LINE('',#655,#656);
#479=(BOUNDED_CURVE()B_SPLINE_CURVE(3,
(#658,#659,#660,#661),
.UNSPECIFIED.,.F.,.F.)B_SPLINE_CURVE_WITH_KNOTS((4,4),
(0.,1.),
.UNSPECIFIED.)CURVE()GEOMETRIC_REPRESENTATION_ITEM()RATIONAL_B_SPLINE_CURVE((1.,
0.804737854124365,0.804737854124365,1.))REPRESENTATION_ITEM(''));
#480=(BOUNDED_CURVE()B_SPLINE_CURVE(3,
(#662,#663,#664,#665),
.UNSPECIFIED.,.F.,.F.)B_SPLINE_CURVE_WITH_KNOTS((4,4),
(0.,1.),
.UNSPECIFIED.)CURVE()GEOMETRIC_REPRESENTATION_ITEM()RATIONAL_B_SPLINE_CURVE((1.,
0.804737854124365,0.804737854124365,1.))REPRESENTATION_ITEM(''));
#481=(BOUNDED_CURVE()B_SPLINE_CURVE(3,
(#666,#667,#668,#669),
.UNSPECIFIED.,.F.,.F.)B_SPLINE_CURVE_WITH_KNOTS((4,4),
(0.,1.),
.UNSPECIFIED.)CURVE()GEOMETRIC_REPRESENTATION_ITEM()RATIONAL_B_SPLINE_CURVE((1.,
0.804737854124365,0.804737854124365,1.))REPRESENTATION_ITEM(''));
#482=(BOUNDED_CURVE()B_SPLINE_CURVE(3,
(#670,#671,#672,#673),
.UNSPECIFIED.,.F.,.F.)B_SPLINE_CURVE_WITH_KNOTS((4,4),
(0.,1.),
.UNSPECIFIED.)CURVE()GEOMETRIC_REPRESENTATION_ITEM()RATIONAL_B_SPLINE_CURVE((1.,
0.804737854124365,0.804737854124365,1.))REPRESENTATION_ITEM(''));
#483=(BOUNDED_CURVE()B_SPLINE_CURVE(3,
(#674,#675,#676,#677),
.UNSPECIFIED.,.F.,.F.)B_SPLINE_CURVE_WITH_KNOTS((4,4),
(0.,1.),
.UNSPECIFIED.)CURVE()GEOMETRIC_REPRESENTATION_ITEM()RATIONAL_B_SPLINE_CURVE((1.,
0.804737854124365,0.804737854124365,1.))REPRESENTATION_ITEM(''));
#484=(BOUNDED_CURVE()B_SPLINE_CURVE(3,
(#678,#679,#680,#681),
.UNSPECIFIED.,.F.,.F.)B_SPLINE_CURVE_WITH_KNOTS((4,4),
(0.,1.),
.UNSPECIFIED.)CURVE()GEOMETRIC_REPRESENTATION_ITEM()RATIONAL_B_SPLINE_CURVE((1.,
0.804737854124365,0.804737854124365,1.))REPRESENTATION_ITEM(''));
#485=(BOUNDED_CURVE()B_SPLINE_CURVE(3,
(#682,#683,#684,#685),
.UNSPECIFIED.,.F.,.F.)B_SPLINE_CURVE_WITH_KNOTS((4,4),
(0.,1.),
.UNSPECIFIED.)CURVE()GEOMETRIC_REPRESENTATION_ITEM()RATIONAL_B_SPLINE_CURVE((1.,
0.804737854124365,0.804737854124365,1.))REPRESENTATION_ITEM(''));
#486=CARTESIAN_POINT('',(-15.,2.00000000000001,19.));
#487=CARTESIAN_POINT('',(-13.5857864376269,2.00000000000001,20.));
#488=CARTESIAN_POINT('',(-13.5857864376269,2.,20.));
#489=CARTESIAN_POINT('',(-14.4142135623731,2.,20.));
#490=CARTESIAN_POINT('',(-15.,2.00000000000001,19.5857864376269));
#491=CARTESIAN_POINT('',(-15.,2.00000000000001,19.));
#492=CARTESIAN_POINT('',(-15.,2.,0.999999999999998));
#493=CARTESIAN_POINT('',(-15.,2.00000000000001,1.));
#494=VECTOR('',#495,1.);
#495=DIRECTION('',(0.,0.,1.));
#496=CARTESIAN_POINT('',(-13.5857864376269,2.,0.));
#497=CARTESIAN_POINT('',(-13.5857864376269,2.,0.));
#498=CARTESIAN_POINT('',(-14.4142135623731,2.,-1.55431223447522E-15));
#499=CARTESIAN_POINT('',(-15.,2.00000000000001,0.414213562373094));
#500=CARTESIAN_POINT('',(-15.,2.00000000000001,1.));
#501=CARTESIAN_POINT('',(-30.,2.00000000000001,0.));
#502=CARTESIAN_POINT('',(-13.5857864376269,2.00000000000001,0.));
#503=VECTOR('',#504,1.);
#504=DIRECTION('',(-1.,2.16441297373182E-16,0.));
#505=CARTESIAN_POINT('',(-30.,2.00000000000001,20.));
#506=CARTESIAN_POINT('',(-30.,2.00000000000001,0.));
#507=VECTOR('',#508,1.);
#508=DIRECTION('',(0.,0.,1.));
#509=CARTESIAN_POINT('',(-13.5857864376269,2.,20.));
#510=VECTOR('',#511,1.);
#511=DIRECTION('',(-1.,2.43496459544829E-16,0.));
#512=CARTESIAN_POINT('',(-21.75,2.00000000000001,10.));
#513=AXIS2_PLACEMENT_3D('',#514,#515,#516);
#514=CARTESIAN_POINT('',(-20.,2.00000000000001,10.));
#515=DIRECTION('',(-2.368475785867E-16,-1.,0.));
#516=DIRECTION('',(-1.,2.368475785867E-16,1.22464679914735E-16));
#517=CARTESIAN_POINT('',(13.5857864376269,2.,20.));
#518=CARTESIAN_POINT('',(15.,2.,19.));
#519=CARTESIAN_POINT('',(13.5857864376269,2.,20.));
#520=CARTESIAN_POINT('',(14.4142135623731,2.,20.));
#521=CARTESIAN_POINT('',(15.,2.,19.5857864376269));
#522=CARTESIAN_POINT('',(15.,2.,19.));
#523=CARTESIAN_POINT('',(30.,1.99999999999999,20.));
#524=CARTESIAN_POINT('',(30.,1.99999999999999,20.));
#525=VECTOR('',#526,1.);
#526=DIRECTION('',(-1.,1.21748229772414E-16,0.));
#527=CARTESIAN_POINT('',(30.,1.99999999999999,0.));
#528=CARTESIAN_POINT('',(30.,1.99999999999999,0.));
#529=VECTOR('',#530,1.);
#530=DIRECTION('',(0.,0.,1.));
#531=CARTESIAN_POINT('',(15.,2.,0.));
#532=CARTESIAN_POINT('',(30.,1.99999999999999,0.));
#533=VECTOR('',#534,1.);
#534=DIRECTION('',(-1.,1.33226762955019E-16,0.));
#535=CARTESIAN_POINT('',(15.,2.,0.));
#536=VECTOR('',#537,1.);
#537=DIRECTION('',(0.,0.,1.));
#538=CARTESIAN_POINT('',(18.25,2.,9.99999999999999));
#539=AXIS2_PLACEMENT_3D('',#540,#541,#542);
#540=CARTESIAN_POINT('',(20.,1.99999999999999,9.99999999999999));
#541=DIRECTION('',(-1.33226762955019E-16,-1.,0.));
#542=DIRECTION('',(-1.,1.33226762955019E-16,1.22464679914735E-16));
#543=CARTESIAN_POINT('',(-29.,8.98266112272212E-15,1.));
#544=CARTESIAN_POINT('',(29.,-9.99130781246383E-15,1.));
#545=CARTESIAN_POINT('',(-29.,9.03309958558255E-15,1.));
#546=VECTOR('',#547,1.);
#547=DIRECTION('',(1.,-3.28000994714915E-16,0.));
#548=CARTESIAN_POINT('',(29.,-9.99130781246383E-15,19.));
#549=CARTESIAN_POINT('',(29.,-9.99095810788254E-15,1.));
#550=VECTOR('',#551,1.);
#551=DIRECTION('',(0.,0.,1.));
#552=CARTESIAN_POINT('',(-29.,8.98266112272212E-15,19.));
#553=CARTESIAN_POINT('',(-29.,9.03309958558255E-15,19.));
#554=VECTOR('',#555,1.);
#555=DIRECTION('',(1.,-3.28000994714915E-16,0.));
#556=CARTESIAN_POINT('',(-29.,8.92207728312003E-15,1.));
#557=VECTOR('',#558,1.);
#558=DIRECTION('',(0.,0.,1.));
#559=CARTESIAN_POINT('',(17.25,-7.37921672015683E-15,9.99999999999999));
#560=AXIS2_PLACEMENT_3D('',#561,#562,#563);
#561=CARTESIAN_POINT('',(20.,-7.04903805844216E-15,9.99999999999999));
#562=DIRECTION('',(-3.26763437299612E-16,-1.,0.));
#563=DIRECTION('',(-1.,3.26763437299612E-16,1.22464679914735E-16));
#564=CARTESIAN_POINT('',(-22.75,6.45153225397266E-15,10.));
#565=AXIS2_PLACEMENT_3D('',#566,#567,#568);
#566=CARTESIAN_POINT('',(-20.,6.02149943354231E-15,10.));
#567=DIRECTION('',(-3.26763437299612E-16,-1.,0.));
#568=DIRECTION('',(-1.,3.26763437299612E-16,1.22464679914735E-16));
#569=CARTESIAN_POINT('',(18.25,0.999999999999993,9.99999999999999));
#570=AXIS2_PLACEMENT_3D('',#571,#572,#573);
#571=CARTESIAN_POINT('',(20.,0.999999999999993,9.99999999999999));
#572=DIRECTION('',(-3.26763437299612E-16,-1.,-5.47382212626882E-48));
#573=DIRECTION('',(-1.,3.26763437299612E-16,5.23125453501907E-65));
#574=CARTESIAN_POINT('',(-21.75,1.00000000000001,10.));
#575=AXIS2_PLACEMENT_3D('',#576,#577,#578);
#576=CARTESIAN_POINT('',(-20.,1.00000000000001,10.));
#577=DIRECTION('',(-3.26763437299612E-16,-1.,-5.47382212626882E-48));
#578=DIRECTION('',(-1.,3.26763437299612E-16,-2.94953932209025E-64));
#579=CARTESIAN_POINT('',(3.5,13.5,-3.70074341541719E-17));
#580=CARTESIAN_POINT('',(-2.0857864376269,13.5,0.));
#581=CARTESIAN_POINT('',(3.5,13.5,0.));
#582=VECTOR('',#583,1.);
#583=DIRECTION('',(-1.,0.,0.));
#584=CARTESIAN_POINT('',(15.,2.,0.));
#585=VECTOR('',#586,1.);
#586=DIRECTION('',(-0.707106781186547,0.707106781186548,0.));
#587=CARTESIAN_POINT('',(30.,0.99999999999999,-5.55111512312578E-17));
#588=CARTESIAN_POINT('',(30.,0.99999999999999,0.));
#589=VECTOR('',#590,1.);
#590=DIRECTION('',(0.,1.,0.));
#591=CARTESIAN_POINT('',(-30.,1.00000000000001,1.66533453693773E-16));
#592=CARTESIAN_POINT('',(-30.,1.00000000000001,0.));
#593=VECTOR('',#594,1.);
#594=DIRECTION('',(1.,-3.27515792264421E-16,0.));
#595=CARTESIAN_POINT('',(-30.,2.00000000000001,0.));
#596=VECTOR('',#597,1.);
#597=DIRECTION('',(0.,-1.,0.));
#598=CARTESIAN_POINT('',(-2.0857864376269,13.5,0.));
#599=VECTOR('',#600,1.);
#600=DIRECTION('',(-0.707106781186548,-0.707106781186547,0.));
#601=CARTESIAN_POINT('',(-30.,1.00000000000001,20.));
#602=CARTESIAN_POINT('',(-30.,1.00000000000001,6.66133814775094E-16));
#603=VECTOR('',#604,1.);
#604=DIRECTION('',(0.,0.,1.));
#605=CARTESIAN_POINT('',(-30.,2.00000000000001,20.));
#606=VECTOR('',#607,1.);
#607=DIRECTION('',(0.,-1.,0.));
#608=CARTESIAN_POINT('',(2.08578643762691,13.5,20.));
#609=CARTESIAN_POINT('',(13.5857864376269,2.,20.));
#610=VECTOR('',#611,1.);
#611=DIRECTION('',(-0.707106781186547,0.707106781186548,0.));
#612=CARTESIAN_POINT('',(-2.0857864376269,13.5,20.));
#613=CARTESIAN_POINT('',(2.08578643762691,13.5,20.));
#614=VECTOR('',#615,1.);
#615=DIRECTION('',(-1.,0.,0.));
#616=CARTESIAN_POINT('',(-2.0857864376269,13.5,20.));
#617=VECTOR('',#618,1.);
#618=DIRECTION('',(-0.707106781186548,-0.707106781186547,0.));
#619=CARTESIAN_POINT('',(30.,0.99999999999999,20.));
#620=CARTESIAN_POINT('',(-30.,1.00000000000001,20.));
#621=VECTOR('',#622,1.);
#622=DIRECTION('',(1.,-3.27515792264421E-16,0.));
#623=CARTESIAN_POINT('',(30.,0.99999999999999,20.));
#624=VECTOR('',#625,1.);
#625=DIRECTION('',(0.,1.,0.));
#626=CARTESIAN_POINT('',(-2.5,14.5,19.));
#627=CARTESIAN_POINT('',(-2.49999999999999,14.5,19.));
#628=VECTOR('',#629,1.);
#629=DIRECTION('',(-0.707106781186548,-0.707106781186547,0.));
#630=CARTESIAN_POINT('',(-2.5,14.5,1.));
#631=CARTESIAN_POINT('',(-2.49999999999999,14.5,1.));
#632=VECTOR('',#633,1.);
#633=DIRECTION('',(0.,0.,1.));
#634=CARTESIAN_POINT('',(-2.49999999999999,14.5,0.999999999999999));
#635=VECTOR('',#636,1.);
#636=DIRECTION('',(-0.707106781186548,-0.707106781186547,0.));
#637=CARTESIAN_POINT('',(2.5,14.5,19.));
#638=CARTESIAN_POINT('',(15.,2.,19.));
#639=VECTOR('',#640,1.);
#640=DIRECTION('',(-0.707106781186547,0.707106781186548,0.));
#641=CARTESIAN_POINT('',(2.5,14.5,1.));
#642=CARTESIAN_POINT('',(3.5,13.5,-2.22044604925031E-16));
#643=CARTESIAN_POINT('',(2.9142135623731,14.0857864376269,8.88178419700125E-16));
#644=CARTESIAN_POINT('',(2.50000000000001,14.5,0.414213562373096));
#645=CARTESIAN_POINT('',(2.5,14.5,1.));
#646=CARTESIAN_POINT('',(2.5,14.5,1.));
#647=VECTOR('',#648,1.);
#648=DIRECTION('',(0.,0.,1.));
#649=CARTESIAN_POINT('',(30.,0.99999999999999,-2.22044604925031E-16));
#650=VECTOR('',#651,1.);
#651=DIRECTION('',(0.,0.,1.));
#652=CARTESIAN_POINT('',(2.5,14.5,19.));
#653=VECTOR('',#654,1.);
#654=DIRECTION('',(-1.,3.5527136788005E-16,0.));
#655=CARTESIAN_POINT('',(2.5,14.5,1.));
#656=VECTOR('',#657,1.);
#657=DIRECTION('',(-1.,3.5527136788005E-16,0.));
#658=CARTESIAN_POINT('',(-30.,1.00000000000001,-8.88178419700125E-16));
#659=CARTESIAN_POINT('',(-30.,0.414213562373104,-8.88178419700125E-16));
#660=CARTESIAN_POINT('',(-29.5857864376269,9.10382880192628E-15,0.414213562373094));
#661=CARTESIAN_POINT('',(-29.,8.88178419700125E-15,0.999999999999999));
#662=CARTESIAN_POINT('',(29.,-9.99200722162641E-15,1.));
#663=CARTESIAN_POINT('',(29.5857864376269,-1.02140518265514E-14,0.414213562373095));
#664=CARTESIAN_POINT('',(30.,0.414213562373084,2.22044604925031E-16));
#665=CARTESIAN_POINT('',(30.,0.99999999999999,0.));
#666=CARTESIAN_POINT('',(29.,-9.99200722162641E-15,19.));
#667=CARTESIAN_POINT('',(29.5857864376269,-1.04360964314765E-14,19.5857864376269));
#668=CARTESIAN_POINT('',(30.,0.414213562373084,20.));
#669=CARTESIAN_POINT('',(30.,0.99999999999999,20.));
#670=CARTESIAN_POINT('',(-29.,9.32587340685131E-15,19.));
#671=CARTESIAN_POINT('',(-29.5857864376269,9.2148511043888E-15,19.5857864376269));
#672=CARTESIAN_POINT('',(-30.,0.414213562373104,20.));
#673=CARTESIAN_POINT('',(-30.,1.00000000000001,20.));
#674=CARTESIAN_POINT('',(-2.5,14.5,1.));
#675=CARTESIAN_POINT('',(-2.5,14.5,0.414213562373097));
#676=CARTESIAN_POINT('',(-2.32842712474619,14.0857864376269,1.22124532708767E-15));
#677=CARTESIAN_POINT('',(-2.0857864376269,13.5,0.));
#678=CARTESIAN_POINT('',(2.5,14.5,19.));
#679=CARTESIAN_POINT('',(2.5,14.5,19.5857864376269));
#680=CARTESIAN_POINT('',(2.32842712474619,14.0857864376269,20.));
#681=CARTESIAN_POINT('',(2.08578643762691,13.5,20.));
#682=CARTESIAN_POINT('',(-2.5,14.5,19.));
#683=CARTESIAN_POINT('',(-2.5,14.5,19.5857864376269));
#684=CARTESIAN_POINT('',(-2.32842712474619,14.0857864376269,20.));
#685=CARTESIAN_POINT('',(-2.0857864376269,13.5,20.));
ENDSEC;
END-ISO-10303-21;
