ISO-10303-21;
HEADER;
FILE_DESCRIPTION(('STEP AP242'),
    '1');
FILE_NAME('SyringeHolderHuge',
    '',
    ('UNSPECIFIED'),
    ('UNSPECIFIED'),
    'C3D Converter',
    'C3D Toolkit',
    '');
FILE_SCHEMA(('AP242_MANAGED_MODEL_BASED_3D_ENGINEERING_MIM_LF { 1 0 10303 442 1 1 4 }'));
ENDSEC;

DATA;
#1=PRODUCT_DEFINITION('','UNSPECIFIED',#28,#31);
#2=SHAPE_DEFINITION_REPRESENTATION(#26,#3);
#3=SHAPE_REPRESENTATION('NONE',(#4),#8);
#4=AXIS2_PLACEMENT_3D('',#5,#6,#7);
#5=CARTESIAN_POINT('',(0.,0.,0.));
#6=DIRECTION('',(0.,0.,1.));
#7=DIRECTION('',(1.,0.,0.));
#8=(GEOMETRIC_REPRESENTATION_CONTEXT(3)GLOBAL_UNCERTAINTY_ASSIGNED_CONTEXT((#10))
GLOBAL_UNIT_ASSIGNED_CONTEXT((#9,#11,#12))REPRESENTATION_CONTEXT('NONE','NONE'));
#9=(LENGTH_UNIT()NAMED_UNIT(*)SI_UNIT(.MILLI.,.METRE.));
#10=UNCERTAINTY_MEASURE_WITH_UNIT(LENGTH_MEASURE(1.E-5),#9,'NONE','NONE');
#11=(NAMED_UNIT(*)PLANE_ANGLE_UNIT()SI_UNIT($,.RADIAN.));
#12=(NAMED_UNIT(*)SI_UNIT($,.STERADIAN.)SOLID_ANGLE_UNIT());
#13=MANIFOLD_SOLID_BREP('',#14);
#14=CLOSED_SHELL('',(#53,#54,#55,#56,#57,#58,#59,#60,#61,#62,#63,#64,#65,#66,#67,
#68,#69,#70,#71,#72,#73,#74,#75,#76,#77,#78,#79,#80,#81));
#15=COLOUR_RGB('',0.564705882352941,0.564705882352941,0.564705882352941);
#16=FILL_AREA_STYLE_COLOUR('',#15);
#17=FILL_AREA_STYLE($,(#16));
#18=SURFACE_STYLE_FILL_AREA(#17);
#19=SURFACE_SIDE_STYLE('',(#18));
#20=SURFACE_STYLE_USAGE(.BOTH.,#19);
#21=PRESENTATION_STYLE_ASSIGNMENT((#20));
#22=MECHANICAL_DESIGN_GEOMETRIC_PRESENTATION_REPRESENTATION('NONE',(#23),#8);
#23=STYLED_ITEM('',(#21),#13);
#24=ADVANCED_BREP_SHAPE_REPRESENTATION('NONE',(#13),#8);
#25=SHAPE_REPRESENTATION_RELATIONSHIP('','',#3,#24);
#26=PRODUCT_DEFINITION_SHAPE('NONE','NONE',#1);
#27=MECHANICAL_CONTEXT('NONE',#32,'mechanical');
#28=PRODUCT_DEFINITION_FORMATION_WITH_SPECIFIED_SOURCE('ANY','UNSPECIFIED',#29,.NOT_KNOWN.);
#29=PRODUCT('','\X2\0414043504420430043B044C\X0\','NONE',(#27));
#30=PRODUCT_RELATED_PRODUCT_CATEGORY('detail','',(#29));
#31=DESIGN_CONTEXT('detailed design',#32,'design');
#32=APPLICATION_CONTEXT('configuration controlled 3d designs of mechanical parts and assemblies');
#33=APPLICATION_PROTOCOL_DEFINITION('international standard','config_control_design',
1994,#32);
#34=CC_DESIGN_DATE_AND_TIME_ASSIGNMENT(#35,#39,(#1));
#35=DATE_AND_TIME(#36,#37);
#36=CALENDAR_DATE(0,1,1);
#37=LOCAL_TIME(0,0,0.,#38);
#38=COORDINATED_UNIVERSAL_TIME_OFFSET(0,0,.AHEAD.);
#39=DATE_TIME_ROLE('creation_date');
#40=CC_DESIGN_APPROVAL(#41,(#1));
#41=APPROVAL(#42,'UNSPECIFIED');
#42=APPROVAL_STATUS('not_yet_approved');
#43=APPROVAL_DATE_TIME(#44,#41);
#44=DATE_AND_TIME(#45,#46);
#45=CALENDAR_DATE(0,1,1);
#46=LOCAL_TIME(0,0,0.,#47);
#47=COORDINATED_UNIVERSAL_TIME_OFFSET(0,0,.AHEAD.);
#48=PERSON('UNSPECIFIED','Cybermeatball','UNSPECIFIED',('UNSPECIFIED'),('UNSPECIFIED'),
('UNSPECIFIED'));
#49=ORGANIZATION('UNSPECIFIED','UNSPECIFIED','UNSPECIFIED');
#50=PERSON_AND_ORGANIZATION(#48,#49);
#51=PERSON_AND_ORGANIZATION_ROLE('creator');
#52=CC_DESIGN_PERSON_AND_ORGANIZATION_ASSIGNMENT(#50,#51,(#28,#1));
#53=ADVANCED_FACE('',(#82,#84),#86,.T.);
#54=ADVANCED_FACE('',(#91,#93),#95,.T.);
#55=ADVANCED_FACE('',(#100,#102),#104,.T.);
#56=ADVANCED_FACE('',(#109,#111),#113,.T.);
#57=ADVANCED_FACE('',(#118,#120),#122,.F.);
#58=ADVANCED_FACE('',(#127,#129),#131,.F.);
#59=ADVANCED_FACE('',(#136),#138,.F.);
#60=ADVANCED_FACE('',(#143),#145,.T.);
#61=ADVANCED_FACE('',(#150),#152,.T.);
#62=ADVANCED_FACE('',(#157),#159,.T.);
#63=ADVANCED_FACE('',(#164),#166,.T.);
#64=ADVANCED_FACE('',(#171),#173,.T.);
#65=ADVANCED_FACE('',(#178),#180,.T.);
#66=ADVANCED_FACE('',(#185),#187,.T.);
#67=ADVANCED_FACE('',(#192),#194,.F.);
#68=ADVANCED_FACE('',(#199),#201,.T.);
#69=ADVANCED_FACE('',(#206),#208,.T.);
#70=ADVANCED_FACE('',(#213),#215,.T.);
#71=ADVANCED_FACE('',(#220),#222,.T.);
#72=ADVANCED_FACE('',(#227),#229,.T.);
#73=ADVANCED_FACE('',(#234),#236,.T.);
#74=ADVANCED_FACE('',(#241),#243,.T.);
#75=ADVANCED_FACE('',(#248),#250,.T.);
#76=ADVANCED_FACE('',(#255),#257,.F.);
#77=ADVANCED_FACE('',(#297),#299,.F.);
#78=ADVANCED_FACE('',(#304),#306,.T.);
#79=ADVANCED_FACE('',(#346,#348),#350,.T.);
#80=ADVANCED_FACE('',(#355,#357),#359,.T.);
#81=ADVANCED_FACE('',(#364),#366,.T.);
#82=FACE_BOUND('',#83,.T.);
#83=EDGE_LOOP('',(#371,#372,#373,#374));
#84=FACE_BOUND('',#85,.T.);
#85=EDGE_LOOP('',(#375));
#86=PLANE('',#87);
#87=AXIS2_PLACEMENT_3D('',#88,#89,#90);
#88=CARTESIAN_POINT('',(-30.,-1.99999999999999,0.));
#89=DIRECTION('',(-4.70049316782799E-16,-1.,0.));
#90=DIRECTION('',(1.,-4.70049316782799E-16,0.));
#91=FACE_BOUND('',#92,.T.);
#92=EDGE_LOOP('',(#376,#377,#378,#379));
#93=FACE_BOUND('',#94,.T.);
#94=EDGE_LOOP('',(#380));
#95=PLANE('',#96);
#96=AXIS2_PLACEMENT_3D('',#97,#98,#99);
#97=CARTESIAN_POINT('',(-14.9999999999995,5.68357672016134E-15,0.));
#98=DIRECTION('',(3.71434930365595E-16,1.,0.));
#99=DIRECTION('',(-1.,3.71434930365595E-16,0.));
#100=FACE_BOUND('',#101,.T.);
#101=EDGE_LOOP('',(#381,#382,#383,#384));
#102=FACE_BOUND('',#103,.T.);
#103=EDGE_LOOP('',(#385));
#104=PLANE('',#105);
#105=AXIS2_PLACEMENT_3D('',#106,#107,#108);
#106=CARTESIAN_POINT('',(30.,-7.11460131156484E-15,0.));
#107=DIRECTION('',(2.40888469208081E-16,1.,0.));
#108=DIRECTION('',(-1.,2.40888469208081E-16,0.));
#109=FACE_BOUND('',#110,.T.);
#110=EDGE_LOOP('',(#386,#387,#388,#389));
#111=FACE_BOUND('',#112,.T.);
#112=EDGE_LOOP('',(#390));
#113=PLANE('',#114);
#114=AXIS2_PLACEMENT_3D('',#115,#116,#117);
#115=CARTESIAN_POINT('',(15.8284271247457,-2.00000000000001,0.));
#116=DIRECTION('',(-1.56683105594266E-16,-1.,0.));
#117=DIRECTION('',(1.,-1.56683105594266E-16,0.));
#118=FACE_OUTER_BOUND('',#119,.T.);
#119=EDGE_LOOP('',(#391));
#120=FACE_OUTER_BOUND('',#121,.T.);
#121=EDGE_LOOP('',(#392));
#122=CYLINDRICAL_SURFACE('',#123,1.75);
#123=AXIS2_PLACEMENT_3D('',#124,#125,#126);
#124=CARTESIAN_POINT('',(20.,7.52447892451617E-15,10.));
#125=DIRECTION('',(-1.56683105594266E-16,-1.,0.));
#126=DIRECTION('',(-1.,1.56683105594266E-16,1.22464679914735E-16));
#127=FACE_OUTER_BOUND('',#128,.T.);
#128=EDGE_LOOP('',(#393));
#129=FACE_OUTER_BOUND('',#130,.T.);
#130=EDGE_LOOP('',(#394));
#131=CYLINDRICAL_SURFACE('',#132,1.75);
#132=AXIS2_PLACEMENT_3D('',#133,#134,#135);
#133=CARTESIAN_POINT('',(-20.,1.37918031482868E-14,10.));
#134=DIRECTION('',(-1.56683105594266E-16,-1.,0.));
#135=DIRECTION('',(-1.,1.56683105594266E-16,1.22464679914735E-16));
#136=FACE_BOUND('',#137,.T.);
#137=EDGE_LOOP('',(#395,#396,#397,#398,#399,#400,#401,#402,#403,#404,#405,#406,#407));
#138=PLANE('',#139);
#139=AXIS2_PLACEMENT_3D('',#140,#141,#142);
#140=CARTESIAN_POINT('',(0.,0.,0.));
#141=DIRECTION('',(0.,0.,1.));
#142=DIRECTION('',(-1.,1.22464679914735E-16,0.));
#143=FACE_BOUND('',#144,.T.);
#144=EDGE_LOOP('',(#408,#409,#410,#411,#412,#413));
#145=PLANE('',#146);
#146=AXIS2_PLACEMENT_3D('',#147,#148,#149);
#147=CARTESIAN_POINT('',(-15.8284271247457,-2.,0.));
#148=DIRECTION('',(-0.707106781186559,-0.707106781186536,0.));
#149=DIRECTION('',(0.707106781186536,-0.707106781186559,0.));
#150=FACE_BOUND('',#151,.T.);
#151=EDGE_LOOP('',(#414,#415,#416,#417,#418,#419,#420,#421,#422,#423,#424,#425,#426));
#152=PLANE('',#153);
#153=AXIS2_PLACEMENT_3D('',#154,#155,#156);
#154=CARTESIAN_POINT('',(0.,0.,20.));
#155=DIRECTION('',(0.,0.,1.));
#156=DIRECTION('',(-1.,1.22464679914735E-16,0.));
#157=FACE_BOUND('',#158,.T.);
#158=EDGE_LOOP('',(#427,#428,#429,#430));
#159=PLANE('',#160);
#160=AXIS2_PLACEMENT_3D('',#161,#162,#163);
#161=CARTESIAN_POINT('',(-30.,1.12551006756455E-14,0.));
#162=DIRECTION('',(-1.,0.,0.));
#163=DIRECTION('',(0.,-1.,0.));
#164=FACE_BOUND('',#165,.T.);
#165=EDGE_LOOP('',(#431,#432,#433,#434));
#166=PLANE('',#167);
#167=AXIS2_PLACEMENT_3D('',#168,#169,#170);
#168=CARTESIAN_POINT('',(-7.34788017910068E-15,-15.,0.));
#169=DIRECTION('',(0.70710678118656,0.707106781186535,0.));
#170=DIRECTION('',(-0.707106781186535,0.70710678118656,0.));
#171=FACE_BOUND('',#172,.T.);
#172=EDGE_LOOP('',(#435,#436,#437,#438));
#173=PLANE('',#174);
#174=AXIS2_PLACEMENT_3D('',#175,#176,#177);
#175=CARTESIAN_POINT('',(14.9999999999995,-3.5012742734435E-15,0.));
#176=DIRECTION('',(-0.707106781186559,0.707106781186536,0.));
#177=DIRECTION('',(-0.707106781186536,-0.707106781186559,0.));
#178=FACE_BOUND('',#179,.T.);
#179=EDGE_LOOP('',(#439,#440,#441,#442));
#180=PLANE('',#181);
#181=AXIS2_PLACEMENT_3D('',#182,#183,#184);
#182=CARTESIAN_POINT('',(30.,-1.99999999999999,0.));
#183=DIRECTION('',(1.,0.,0.));
#184=DIRECTION('',(0.,1.,0.));
#185=FACE_BOUND('',#186,.T.);
#186=EDGE_LOOP('',(#443,#444,#445,#446,#447,#448));
#187=PLANE('',#188);
#188=AXIS2_PLACEMENT_3D('',#189,#190,#191);
#189=CARTESIAN_POINT('',(-1.90579686505894E-15,-17.8284271247462,0.));
#190=DIRECTION('',(0.707106781186559,-0.707106781186536,0.));
#191=DIRECTION('',(0.707106781186536,0.707106781186559,0.));
#192=FACE_BOUND('',#193,.T.);
#193=EDGE_LOOP('',(#449,#450,#451,#452));
#194=CYLINDRICAL_SURFACE('',#195,1.);
#195=AXIS2_PLACEMENT_3D('',#196,#197,#198);
#196=CARTESIAN_POINT('',(-16.2426406871188,-3.,-4.));
#197=DIRECTION('',(0.,0.,1.));
#198=DIRECTION('',(0.70710678118656,0.707106781186535,0.));
#199=FACE_BOUND('',#200,.T.);
#200=EDGE_LOOP('',(#453,#454,#455,#456));
#201=TOROIDAL_SURFACE('',#202,2.,1.);
#202=AXIS2_PLACEMENT_3D('',#203,#204,#205);
#203=CARTESIAN_POINT('',(-16.2426406871188,-3.,1.));
#204=DIRECTION('',(0.,0.,1.));
#205=DIRECTION('',(0.707106781186535,-0.70710678118656,0.));
#206=FACE_BOUND('',#207,.T.);
#207=EDGE_LOOP('',(#457,#458,#459,#460));
#208=CYLINDRICAL_SURFACE('',#209,1.);
#209=AXIS2_PLACEMENT_3D('',#210,#211,#212);
#210=CARTESIAN_POINT('',(-34.,-0.999999999999987,1.));
#211=DIRECTION('',(-1.,4.79658228804352E-16,0.));
#212=DIRECTION('',(0.,0.,-1.));
#213=FACE_BOUND('',#214,.T.);
#214=EDGE_LOOP('',(#461,#462,#463,#464));
#215=CYLINDRICAL_SURFACE('',#216,1.);
#216=AXIS2_PLACEMENT_3D('',#217,#218,#219);
#217=CARTESIAN_POINT('',(-29.,-0.99999999999999,-4.));
#218=DIRECTION('',(0.,0.,-1.));
#219=DIRECTION('',(0.,-1.,0.));
#220=FACE_BOUND('',#221,.T.);
#221=EDGE_LOOP('',(#465,#466,#467,#468));
#222=CYLINDRICAL_SURFACE('',#223,1.);
#223=AXIS2_PLACEMENT_3D('',#224,#225,#226);
#224=CARTESIAN_POINT('',(-34.,-0.999999999999987,19.));
#225=DIRECTION('',(1.,-4.79658228804352E-16,0.));
#226=DIRECTION('',(0.,0.,1.));
#227=FACE_BOUND('',#228,.T.);
#228=EDGE_LOOP('',(#469,#470,#471,#472));
#229=TOROIDAL_SURFACE('',#230,2.,1.);
#230=AXIS2_PLACEMENT_3D('',#231,#232,#233);
#231=CARTESIAN_POINT('',(-16.2426406871188,-3.,19.));
#232=DIRECTION('',(0.,0.,-1.));
#233=DIRECTION('',(-1.,4.44089209850063E-16,0.));
#234=FACE_BOUND('',#235,.T.);
#235=EDGE_LOOP('',(#473,#474,#475,#476));
#236=CYLINDRICAL_SURFACE('',#237,1.);
#237=AXIS2_PLACEMENT_3D('',#238,#239,#240);
#238=CARTESIAN_POINT('',(11.8284271247457,-1.,1.));
#239=DIRECTION('',(-1.,1.60237331775667E-16,0.));
#240=DIRECTION('',(0.,2.22044604925032E-16,-1.));
#241=FACE_BOUND('',#242,.T.);
#242=EDGE_LOOP('',(#477,#478,#479,#480));
#243=CYLINDRICAL_SURFACE('',#244,1.);
#244=AXIS2_PLACEMENT_3D('',#245,#246,#247);
#245=CARTESIAN_POINT('',(29.,-1.00000000000001,-4.));
#246=DIRECTION('',(0.,0.,-1.));
#247=DIRECTION('',(1.,-2.22044604925031E-16,0.));
#248=FACE_BOUND('',#249,.T.);
#249=EDGE_LOOP('',(#481,#482,#483,#484));
#250=CYLINDRICAL_SURFACE('',#251,1.);
#251=AXIS2_PLACEMENT_3D('',#252,#253,#254);
#252=CARTESIAN_POINT('',(11.8284271247457,-1.,19.));
#253=DIRECTION('',(1.,-1.60237331775667E-16,0.));
#254=DIRECTION('',(0.,2.22044604925032E-16,1.));
#255=FACE_BOUND('',#256,.T.);
#256=EDGE_LOOP('',(#485,#486,#487,#488));
#257=(BOUNDED_SURFACE()B_SPLINE_SURFACE(3,2,(
(#258,#259,#260),
(#261,#262,#263),
(#264,#265,#266),
(#267,#268,#269),
(#270,#271,#272),
(#273,#274,#275),
(#276,#277,#278),
(#279,#280,#281),
(#282,#283,#284),
(#285,#286,#287),
(#288,#289,#290),
(#291,#292,#293),
(#294,#295,#296)),
.UNSPECIFIED.,.F.,.F.,.F.)B_SPLINE_SURFACE_WITH_KNOTS((4,1,1,1,1,1,1,1,1,1,4),
(3,3),
(0.738326189715754,1.05819111903756,1.19007357985984,1.32195604068213,1.45627426220295,
1.59302992283558,1.72647270196451,1.8579610423599,1.98515183727582,2.10644556763745,
2.30913361751379),
(0.,1.),
.UNSPECIFIED.)GEOMETRIC_REPRESENTATION_ITEM()RATIONAL_B_SPLINE_SURFACE((
(1.,0.707105716044964,1.),
(1.,0.733773923858441,1.),
(1.,0.769239346081092,1.),
(1.,0.809327194506028,1.),
(1.,0.834162689505798,1.),
(1.,0.856538524400509,1.),
(1.,0.875998861875274,1.),
(1.,0.892202883187483,1.),
(1.,0.904921865527195,1.),
(1.,0.914233066740257,1.),
(1.,0.921780172305464,1.),
(1.,0.923888335613475,1.),
(1.,0.923855927571052,1.)))REPRESENTATION_ITEM('')SURFACE());
#258=CARTESIAN_POINT('',(17.5355423980817,-0.292884726663921,-0.999999999981971));
#259=CARTESIAN_POINT('',(17.5355402786311,-0.292886846114539,3.01511450829216E-6));
#260=CARTESIAN_POINT('',(18.2426491792683,-0.999995753925234,9.01456687074642E-12));
#261=CARTESIAN_POINT('',(17.3260504958245,-0.502376628921177,-1.00015869250571));
#262=CARTESIAN_POINT('',(17.3816903533009,-0.446736771444741,-0.0731046293102614));
#263=CARTESIAN_POINT('',(18.033157277011,-1.10474170505386,-7.93462528551763E-5));
#264=CARTESIAN_POINT('',(17.0249719356031,-0.803455189142586,-0.952219718637898));
#265=CARTESIAN_POINT('',(17.1409508265431,-0.687476298202499,-0.132724705534414));
#266=CARTESIAN_POINT('',(17.7320787167896,-1.25528098516457,0.0238901406810509));
#267=CARTESIAN_POINT('',(16.6627160120268,-1.16571111271884,-0.806267498309118));
#268=CARTESIAN_POINT('',(16.8299933247987,-0.998433799946932,-0.117774779943496));
#269=CARTESIAN_POINT('',(17.3698227932134,-1.43640894695269,0.0968662508454414));
#270=CARTESIAN_POINT('',(16.4278871966177,-1.40053992812795,-0.672410385803516));
#271=CARTESIAN_POINT('',(16.630049144922,-1.19837797982365,-0.0739564977798459));
#272=CARTESIAN_POINT('',(17.1349939778043,-1.55382335465725,0.163794807098242));
#273=CARTESIAN_POINT('',(16.2143935062233,-1.61403361852236,-0.509572616867134));
#274=CARTESIAN_POINT('',(16.44157892821,-1.38684819653569,0.00255046237279176));
#275=CARTESIAN_POINT('',(16.9215002874099,-1.66057019985445,0.245213691566433));
#276=CARTESIAN_POINT('',(16.0241081873347,-1.80431893741096,-0.31899129492355));
#277=CARTESIAN_POINT('',(16.271285891797,-1.55714123294868,0.109098309468166));
#278=CARTESIAN_POINT('',(16.7312149685213,-1.75571285929875,0.340504352538225));
#279=CARTESIAN_POINT('',(15.8625353253492,-1.96589179939647,-0.106563676033552));
#280=CARTESIAN_POINT('',(16.1251303178914,-1.70329680685429,0.240567942549028));
#281=CARTESIAN_POINT('',(16.5696421065358,-1.83649929029151,0.446718161983224));
#282=CARTESIAN_POINT('',(15.7331168471642,-2.09531027758153,0.120548214784574));
#283=CARTESIAN_POINT('',(16.0077099557565,-1.82071716898923,0.389460033942522));
#284=CARTESIAN_POINT('',(16.4402236283507,-1.90120852938404,0.560274107392287));
#285=CARTESIAN_POINT('',(15.6376146374701,-2.19081248727564,0.353370207491706));
#286=CARTESIAN_POINT('',(15.920280338855,-1.90814678589063,0.549138107808224));
#287=CARTESIAN_POINT('',(16.3447214186566,-1.94895963423109,0.676685103745853));
#288=CARTESIAN_POINT('',(15.558074308753,-2.27035281599273,0.644992545519742));
#289=CARTESIAN_POINT('',(15.8486867596059,-1.97974036513981,0.751195114208835));
#290=CARTESIAN_POINT('',(16.2651810899395,-1.98872979858964,0.822496272759871));
#291=CARTESIAN_POINT('',(15.5355088067206,-2.29291831802506,0.862280716589463));
#292=CARTESIAN_POINT('',(15.8283750655296,-2.00005205921612,0.904455116170241));
#293=CARTESIAN_POINT('',(16.2426155879072,-2.0000125496058,0.931140358294732));
#294=CARTESIAN_POINT('',(15.5355339059792,-2.29289321876648,1.00001370985673));
#295=CARTESIAN_POINT('',(15.8284271305091,-1.99999999423658,1.00000969433324));
#296=CARTESIAN_POINT('',(16.2426406871658,-1.99999999997651,1.00000685492837));
#297=FACE_BOUND('',#298,.T.);
#298=EDGE_LOOP('',(#489,#490,#491,#492));
#299=CYLINDRICAL_SURFACE('',#300,1.);
#300=AXIS2_PLACEMENT_3D('',#301,#302,#303);
#301=CARTESIAN_POINT('',(16.2426406871188,-3.00000000000001,-3.));
#302=DIRECTION('',(0.,6.83214169000096E-17,1.));
#303=DIRECTION('',(0.,1.,-6.83214169000096E-17));
#304=FACE_BOUND('',#305,.T.);
#305=EDGE_LOOP('',(#493,#494,#495,#496));
#306=(BOUNDED_SURFACE()B_SPLINE_SURFACE(3,2,(
(#307,#308,#309),
(#310,#311,#312),
(#313,#314,#315),
(#316,#317,#318),
(#319,#320,#321),
(#322,#323,#324),
(#325,#326,#327),
(#328,#329,#330),
(#331,#332,#333),
(#334,#335,#336),
(#337,#338,#339),
(#340,#341,#342),
(#343,#344,#345)),
.UNSPECIFIED.,.F.,.F.,.F.)B_SPLINE_SURFACE_WITH_KNOTS((4,1,1,1,1,1,1,1,1,1,4),
(3,3),
(0.738326189715754,1.05819111903889,1.19007357986119,1.32195604068349,1.45627426220441,
1.59302992283714,1.72647270196604,1.85796104236114,1.98515183727694,2.10644556764275,
2.30913361751379),
(0.,1.),
.UNSPECIFIED.)GEOMETRIC_REPRESENTATION_ITEM()RATIONAL_B_SPLINE_SURFACE((
(1.,0.707105716044964,1.),
(1.,0.733773923858553,1.),
(1.,0.769239346081301,1.),
(1.,0.809327194506294,1.),
(1.,0.834162689506045,1.),
(1.,0.856538524400738,1.),
(1.,0.875998861875475,1.),
(1.,0.892202883187639,1.),
(1.,0.904921865527305,1.),
(1.,0.91423306674043,1.),
(1.,0.921780172305529,1.),
(1.,0.923888335613472,1.),
(1.,0.923855927571052,1.)))REPRESENTATION_ITEM('')SURFACE());
#307=CARTESIAN_POINT('',(17.5355423980817,-0.292884726663917,20.999999999982));
#308=CARTESIAN_POINT('',(17.5355402786311,-0.292886846114537,19.9999969848855));
#309=CARTESIAN_POINT('',(18.2426491792683,-0.999995753925234,19.999999999991));
#310=CARTESIAN_POINT('',(17.3260504958237,-0.502376628921955,21.0001586925057));
#311=CARTESIAN_POINT('',(17.3816903533003,-0.44673677144536,20.0731046293106));
#312=CARTESIAN_POINT('',(18.0331572770102,-1.10474170505425,20.0000793462529));
#313=CARTESIAN_POINT('',(17.0249719356014,-0.80345518914427,20.9522197186376));
#314=CARTESIAN_POINT('',(17.1409508265417,-0.687476298203915,20.1327247055347));
#315=CARTESIAN_POINT('',(17.7320787167879,-1.25528098516541,19.9761098593188));
#316=CARTESIAN_POINT('',(16.6627160120245,-1.1657111127212,20.806267498308));
#317=CARTESIAN_POINT('',(16.8299933247966,-0.998433799949017,20.1177747799432));
#318=CARTESIAN_POINT('',(17.369822793211,-1.43640894695387,19.903133749154));
#319=CARTESIAN_POINT('',(16.4278871966154,-1.40053992813029,20.672410385802));
#320=CARTESIAN_POINT('',(16.63004914492,-1.19837797982568,20.0739564977792));
#321=CARTESIAN_POINT('',(17.1349939778019,-1.55382335465842,19.836205192901));
#322=CARTESIAN_POINT('',(16.2143935062211,-1.61403361852455,20.5095726168652));
#323=CARTESIAN_POINT('',(16.441578928208,-1.38684819653764,19.9974495376262));
#324=CARTESIAN_POINT('',(16.9215002874077,-1.66057019985555,19.7547863084326));
#325=CARTESIAN_POINT('',(16.0241081873328,-1.8043189374129,20.3189912949213));
#326=CARTESIAN_POINT('',(16.2712858917952,-1.55714123295047,19.8909016905305));
#327=CARTESIAN_POINT('',(16.7312149685193,-1.75571285929972,19.6594956474607));
#328=CARTESIAN_POINT('',(15.8625353253477,-1.96589179939802,20.1065636760312));
#329=CARTESIAN_POINT('',(16.12513031789,-1.70329680685572,19.7594320574494));
#330=CARTESIAN_POINT('',(16.5696421065342,-1.83649929029229,19.5532818380156));
#331=CARTESIAN_POINT('',(15.7331168471626,-2.09531027758312,19.8794517852123));
#332=CARTESIAN_POINT('',(16.0077099557554,-1.82071716899025,19.6105399660559));
#333=CARTESIAN_POINT('',(16.4402236283491,-1.90120852938483,19.4397258926061));
#334=CARTESIAN_POINT('',(15.6376146374687,-2.190812487277,19.6466297925044));
#335=CARTESIAN_POINT('',(15.9202803388534,-1.90814678589226,19.4508618921885));
#336=CARTESIAN_POINT('',(16.3447214186553,-1.94895963423177,19.3233148962522));
#337=CARTESIAN_POINT('',(15.5580743087525,-2.27035281599315,19.355007454477));
#338=CARTESIAN_POINT('',(15.8486867596053,-1.97974036514042,19.2488048857881));
#339=CARTESIAN_POINT('',(16.2651810899391,-1.98872979858985,19.1775037272385));
#340=CARTESIAN_POINT('',(15.5355088067206,-2.29291831802506,19.137719283409));
#341=CARTESIAN_POINT('',(15.8283750655296,-2.00005205921612,19.0955448838273));
#342=CARTESIAN_POINT('',(16.2426155879072,-2.0000125496058,19.0688596417045));
#343=CARTESIAN_POINT('',(15.5355339059792,-2.29289321876647,18.9999862901433));
#344=CARTESIAN_POINT('',(15.8284271305091,-1.99999999423658,18.9999903056668));
#345=CARTESIAN_POINT('',(16.2426406871658,-1.99999999997651,18.9999931450716));
#346=FACE_OUTER_BOUND('',#347,.T.);
#347=EDGE_LOOP('',(#497));
#348=FACE_OUTER_BOUND('',#349,.T.);
#349=EDGE_LOOP('',(#498));
#350=TOROIDAL_SURFACE('',#351,2.75,1.);
#351=AXIS2_PLACEMENT_3D('',#352,#353,#354);
#352=CARTESIAN_POINT('',(-20.,-0.999999999999994,10.));
#353=DIRECTION('',(-4.70049316782799E-16,-1.,0.));
#354=DIRECTION('',(-1.,4.70049316782799E-16,0.));
#355=FACE_OUTER_BOUND('',#356,.T.);
#356=EDGE_LOOP('',(#499));
#357=FACE_OUTER_BOUND('',#358,.T.);
#358=EDGE_LOOP('',(#500));
#359=TOROIDAL_SURFACE('',#360,2.75,1.);
#360=AXIS2_PLACEMENT_3D('',#361,#362,#363);
#361=CARTESIAN_POINT('',(20.,-1.00000000000001,10.));
#362=DIRECTION('',(-1.56683105594266E-16,-1.,0.));
#363=DIRECTION('',(-1.,1.56683105594266E-16,0.));
#364=FACE_BOUND('',#365,.T.);
#365=EDGE_LOOP('',(#501,#502,#503,#504));
#366=CYLINDRICAL_SURFACE('',#367,1.);
#367=AXIS2_PLACEMENT_3D('',#368,#369,#370);
#368=CARTESIAN_POINT('',(-4.71844785465692E-15,-16.4142135623731,-4.));
#369=DIRECTION('',(0.,0.,-1.));
#370=DIRECTION('',(0.707106781186559,-0.707106781186536,0.));
#371=ORIENTED_EDGE('',*,*,#505,.T.);
#372=ORIENTED_EDGE('',*,*,#506,.T.);
#373=ORIENTED_EDGE('',*,*,#507,.F.);
#374=ORIENTED_EDGE('',*,*,#508,.F.);
#375=ORIENTED_EDGE('',*,*,#509,.T.);
#376=ORIENTED_EDGE('',*,*,#510,.T.);
#377=ORIENTED_EDGE('',*,*,#511,.T.);
#378=ORIENTED_EDGE('',*,*,#512,.F.);
#379=ORIENTED_EDGE('',*,*,#513,.F.);
#380=ORIENTED_EDGE('',*,*,#514,.T.);
#381=ORIENTED_EDGE('',*,*,#515,.T.);
#382=ORIENTED_EDGE('',*,*,#516,.T.);
#383=ORIENTED_EDGE('',*,*,#517,.F.);
#384=ORIENTED_EDGE('',*,*,#518,.F.);
#385=ORIENTED_EDGE('',*,*,#519,.T.);
#386=ORIENTED_EDGE('',*,*,#520,.F.);
#387=ORIENTED_EDGE('',*,*,#521,.T.);
#388=ORIENTED_EDGE('',*,*,#522,.T.);
#389=ORIENTED_EDGE('',*,*,#523,.F.);
#390=ORIENTED_EDGE('',*,*,#524,.T.);
#391=ORIENTED_EDGE('',*,*,#519,.F.);
#392=ORIENTED_EDGE('',*,*,#525,.F.);
#393=ORIENTED_EDGE('',*,*,#514,.F.);
#394=ORIENTED_EDGE('',*,*,#526,.F.);
#395=ORIENTED_EDGE('',*,*,#527,.F.);
#396=ORIENTED_EDGE('',*,*,#528,.F.);
#397=ORIENTED_EDGE('',*,*,#529,.F.);
#398=ORIENTED_EDGE('',*,*,#530,.F.);
#399=ORIENTED_EDGE('',*,*,#531,.F.);
#400=ORIENTED_EDGE('',*,*,#510,.F.);
#401=ORIENTED_EDGE('',*,*,#532,.F.);
#402=ORIENTED_EDGE('',*,*,#533,.F.);
#403=ORIENTED_EDGE('',*,*,#515,.F.);
#404=ORIENTED_EDGE('',*,*,#534,.F.);
#405=ORIENTED_EDGE('',*,*,#535,.F.);
#406=ORIENTED_EDGE('',*,*,#536,.F.);
#407=ORIENTED_EDGE('',*,*,#537,.F.);
#408=ORIENTED_EDGE('',*,*,#538,.T.);
#409=ORIENTED_EDGE('',*,*,#539,.F.);
#410=ORIENTED_EDGE('',*,*,#540,.F.);
#411=ORIENTED_EDGE('',*,*,#541,.F.);
#412=ORIENTED_EDGE('',*,*,#542,.F.);
#413=ORIENTED_EDGE('',*,*,#528,.T.);
#414=ORIENTED_EDGE('',*,*,#543,.F.);
#415=ORIENTED_EDGE('',*,*,#544,.T.);
#416=ORIENTED_EDGE('',*,*,#545,.F.);
#417=ORIENTED_EDGE('',*,*,#546,.T.);
#418=ORIENTED_EDGE('',*,*,#547,.T.);
#419=ORIENTED_EDGE('',*,*,#517,.T.);
#420=ORIENTED_EDGE('',*,*,#548,.T.);
#421=ORIENTED_EDGE('',*,*,#549,.T.);
#422=ORIENTED_EDGE('',*,*,#512,.T.);
#423=ORIENTED_EDGE('',*,*,#550,.T.);
#424=ORIENTED_EDGE('',*,*,#551,.T.);
#425=ORIENTED_EDGE('',*,*,#552,.F.);
#426=ORIENTED_EDGE('',*,*,#539,.T.);
#427=ORIENTED_EDGE('',*,*,#553,.T.);
#428=ORIENTED_EDGE('',*,*,#550,.F.);
#429=ORIENTED_EDGE('',*,*,#511,.F.);
#430=ORIENTED_EDGE('',*,*,#531,.T.);
#431=ORIENTED_EDGE('',*,*,#532,.T.);
#432=ORIENTED_EDGE('',*,*,#513,.T.);
#433=ORIENTED_EDGE('',*,*,#549,.F.);
#434=ORIENTED_EDGE('',*,*,#554,.F.);
#435=ORIENTED_EDGE('',*,*,#533,.T.);
#436=ORIENTED_EDGE('',*,*,#554,.T.);
#437=ORIENTED_EDGE('',*,*,#548,.F.);
#438=ORIENTED_EDGE('',*,*,#516,.F.);
#439=ORIENTED_EDGE('',*,*,#555,.F.);
#440=ORIENTED_EDGE('',*,*,#534,.T.);
#441=ORIENTED_EDGE('',*,*,#518,.T.);
#442=ORIENTED_EDGE('',*,*,#547,.F.);
#443=ORIENTED_EDGE('',*,*,#556,.F.);
#444=ORIENTED_EDGE('',*,*,#537,.T.);
#445=ORIENTED_EDGE('',*,*,#557,.F.);
#446=ORIENTED_EDGE('',*,*,#558,.T.);
#447=ORIENTED_EDGE('',*,*,#559,.F.);
#448=ORIENTED_EDGE('',*,*,#544,.F.);
#449=ORIENTED_EDGE('',*,*,#560,.T.);
#450=ORIENTED_EDGE('',*,*,#541,.T.);
#451=ORIENTED_EDGE('',*,*,#561,.T.);
#452=ORIENTED_EDGE('',*,*,#506,.F.);
#453=ORIENTED_EDGE('',*,*,#529,.T.);
#454=ORIENTED_EDGE('',*,*,#542,.T.);
#455=ORIENTED_EDGE('',*,*,#560,.F.);
#456=ORIENTED_EDGE('',*,*,#562,.T.);
#457=ORIENTED_EDGE('',*,*,#505,.F.);
#458=ORIENTED_EDGE('',*,*,#563,.T.);
#459=ORIENTED_EDGE('',*,*,#530,.T.);
#460=ORIENTED_EDGE('',*,*,#562,.F.);
#461=ORIENTED_EDGE('',*,*,#553,.F.);
#462=ORIENTED_EDGE('',*,*,#563,.F.);
#463=ORIENTED_EDGE('',*,*,#508,.T.);
#464=ORIENTED_EDGE('',*,*,#564,.T.);
#465=ORIENTED_EDGE('',*,*,#507,.T.);
#466=ORIENTED_EDGE('',*,*,#565,.T.);
#467=ORIENTED_EDGE('',*,*,#551,.F.);
#468=ORIENTED_EDGE('',*,*,#564,.F.);
#469=ORIENTED_EDGE('',*,*,#552,.T.);
#470=ORIENTED_EDGE('',*,*,#565,.F.);
#471=ORIENTED_EDGE('',*,*,#561,.F.);
#472=ORIENTED_EDGE('',*,*,#540,.T.);
#473=ORIENTED_EDGE('',*,*,#566,.T.);
#474=ORIENTED_EDGE('',*,*,#535,.T.);
#475=ORIENTED_EDGE('',*,*,#567,.T.);
#476=ORIENTED_EDGE('',*,*,#521,.F.);
#477=ORIENTED_EDGE('',*,*,#522,.F.);
#478=ORIENTED_EDGE('',*,*,#567,.F.);
#479=ORIENTED_EDGE('',*,*,#555,.T.);
#480=ORIENTED_EDGE('',*,*,#568,.T.);
#481=ORIENTED_EDGE('',*,*,#569,.T.);
#482=ORIENTED_EDGE('',*,*,#523,.T.);
#483=ORIENTED_EDGE('',*,*,#568,.F.);
#484=ORIENTED_EDGE('',*,*,#546,.F.);
#485=ORIENTED_EDGE('',*,*,#557,.T.);
#486=ORIENTED_EDGE('',*,*,#536,.T.);
#487=ORIENTED_EDGE('',*,*,#566,.F.);
#488=ORIENTED_EDGE('',*,*,#570,.T.);
#489=ORIENTED_EDGE('',*,*,#558,.F.);
#490=ORIENTED_EDGE('',*,*,#570,.F.);
#491=ORIENTED_EDGE('',*,*,#520,.T.);
#492=ORIENTED_EDGE('',*,*,#571,.T.);
#493=ORIENTED_EDGE('',*,*,#559,.T.);
#494=ORIENTED_EDGE('',*,*,#571,.F.);
#495=ORIENTED_EDGE('',*,*,#569,.F.);
#496=ORIENTED_EDGE('',*,*,#545,.T.);
#497=ORIENTED_EDGE('',*,*,#526,.T.);
#498=ORIENTED_EDGE('',*,*,#509,.F.);
#499=ORIENTED_EDGE('',*,*,#525,.T.);
#500=ORIENTED_EDGE('',*,*,#524,.F.);
#501=ORIENTED_EDGE('',*,*,#538,.F.);
#502=ORIENTED_EDGE('',*,*,#527,.T.);
#503=ORIENTED_EDGE('',*,*,#556,.T.);
#504=ORIENTED_EDGE('',*,*,#543,.T.);
#505=EDGE_CURVE('',#572,#573,#574,.T.);
#506=EDGE_CURVE('',#573,#575,#576,.T.);
#507=EDGE_CURVE('',#577,#575,#578,.T.);
#508=EDGE_CURVE('',#572,#577,#579,.T.);
#509=EDGE_CURVE('',#580,#580,#581,.F.);
#510=EDGE_CURVE('',#582,#583,#584,.T.);
#511=EDGE_CURVE('',#583,#585,#586,.T.);
#512=EDGE_CURVE('',#587,#585,#588,.T.);
#513=EDGE_CURVE('',#582,#587,#589,.T.);
#514=EDGE_CURVE('',#590,#590,#591,.T.);
#515=EDGE_CURVE('',#592,#593,#594,.T.);
#516=EDGE_CURVE('',#593,#595,#596,.T.);
#517=EDGE_CURVE('',#597,#595,#598,.T.);
#518=EDGE_CURVE('',#592,#597,#599,.T.);
#519=EDGE_CURVE('',#600,#600,#601,.T.);
#520=EDGE_CURVE('',#602,#603,#604,.T.);
#521=EDGE_CURVE('',#602,#605,#606,.T.);
#522=EDGE_CURVE('',#605,#607,#608,.T.);
#523=EDGE_CURVE('',#603,#607,#609,.T.);
#524=EDGE_CURVE('',#610,#610,#611,.F.);
#525=EDGE_CURVE('',#612,#612,#613,.F.);
#526=EDGE_CURVE('',#614,#614,#615,.F.);
#527=EDGE_CURVE('',#616,#617,#618,.F.);
#528=EDGE_CURVE('',#619,#616,#620,.T.);
#529=EDGE_CURVE('',#621,#619,#622,.F.);
#530=EDGE_CURVE('',#623,#621,#624,.T.);
#531=EDGE_CURVE('',#583,#623,#625,.T.);
#532=EDGE_CURVE('',#626,#582,#627,.T.);
#533=EDGE_CURVE('',#593,#626,#628,.T.);
#534=EDGE_CURVE('',#629,#592,#630,.T.);
#535=EDGE_CURVE('',#631,#629,#632,.T.);
#536=EDGE_CURVE('',#633,#631,#634,.T.);
#537=EDGE_CURVE('',#617,#633,#635,.T.);
#538=EDGE_CURVE('',#616,#636,#637,.T.);
#539=EDGE_CURVE('',#638,#636,#639,.T.);
#540=EDGE_CURVE('',#640,#638,#641,.F.);
#541=EDGE_CURVE('',#642,#640,#643,.T.);
#542=EDGE_CURVE('',#619,#642,#644,.T.);
#543=EDGE_CURVE('',#645,#636,#646,.F.);
#544=EDGE_CURVE('',#645,#647,#648,.T.);
#545=EDGE_CURVE('',#649,#647,#650,.F.);
#546=EDGE_CURVE('',#649,#651,#652,.T.);
#547=EDGE_CURVE('',#651,#597,#653,.T.);
#548=EDGE_CURVE('',#595,#654,#655,.T.);
#549=EDGE_CURVE('',#654,#587,#656,.T.);
#550=EDGE_CURVE('',#585,#657,#658,.T.);
#551=EDGE_CURVE('',#657,#659,#660,.T.);
#552=EDGE_CURVE('',#638,#659,#661,.F.);
#553=EDGE_CURVE('',#623,#657,#662,.T.);
#554=EDGE_CURVE('',#626,#654,#663,.T.);
#555=EDGE_CURVE('',#629,#651,#664,.T.);
#556=EDGE_CURVE('',#617,#645,#665,.T.);
#557=EDGE_CURVE('',#666,#633,#667,.F.);
#558=EDGE_CURVE('',#666,#668,#669,.T.);
#559=EDGE_CURVE('',#647,#668,#670,.T.);
#560=EDGE_CURVE('',#573,#642,#671,.F.);
#561=EDGE_CURVE('',#640,#575,#672,.F.);
#562=EDGE_CURVE('',#573,#621,#673,.F.);
#563=EDGE_CURVE('',#572,#623,#674,.T.);
#564=EDGE_CURVE('',#577,#657,#675,.F.);
#565=EDGE_CURVE('',#575,#659,#676,.T.);
#566=EDGE_CURVE('',#602,#631,#677,.F.);
#567=EDGE_CURVE('',#629,#605,#678,.F.);
#568=EDGE_CURVE('',#651,#607,#679,.F.);
#569=EDGE_CURVE('',#649,#603,#680,.T.);
#570=EDGE_CURVE('',#602,#666,#681,.F.);
#571=EDGE_CURVE('',#603,#668,#682,.F.);
#572=VERTEX_POINT('',#683);
#573=VERTEX_POINT('',#684);
#574=LINE('',#685,#686);
#575=VERTEX_POINT('',#688);
#576=LINE('',#689,#690);
#577=VERTEX_POINT('',#692);
#578=LINE('',#693,#694);
#579=LINE('',#696,#697);
#580=VERTEX_POINT('',#699);
#581=CIRCLE('',#700,2.75);
#582=VERTEX_POINT('',#704);
#583=VERTEX_POINT('',#705);
#584=LINE('',#706,#707);
#585=VERTEX_POINT('',#709);
#586=LINE('',#710,#711);
#587=VERTEX_POINT('',#713);
#588=LINE('',#714,#715);
#589=LINE('',#717,#718);
#590=VERTEX_POINT('',#720);
#591=CIRCLE('',#721,1.75);
#592=VERTEX_POINT('',#725);
#593=VERTEX_POINT('',#726);
#594=LINE('',#727,#728);
#595=VERTEX_POINT('',#730);
#596=LINE('',#731,#732);
#597=VERTEX_POINT('',#734);
#598=LINE('',#735,#736);
#599=LINE('',#738,#739);
#600=VERTEX_POINT('',#741);
#601=CIRCLE('',#742,1.75);
#602=VERTEX_POINT('',#746);
#603=VERTEX_POINT('',#747);
#604=LINE('',#748,#749);
#605=VERTEX_POINT('',#751);
#606=LINE('',#752,#753);
#607=VERTEX_POINT('',#755);
#608=LINE('',#756,#757);
#609=LINE('',#759,#760);
#610=VERTEX_POINT('',#762);
#611=CIRCLE('',#763,2.75);
#612=VERTEX_POINT('',#767);
#613=CIRCLE('',#768,1.75);
#614=VERTEX_POINT('',#772);
#615=CIRCLE('',#773,1.75);
#616=VERTEX_POINT('',#777);
#617=VERTEX_POINT('',#778);
#618=CIRCLE('',#779,1.);
#619=VERTEX_POINT('',#783);
#620=LINE('',#784,#785);
#621=VERTEX_POINT('',#787);
#622=CIRCLE('',#788,2.);
#623=VERTEX_POINT('',#792);
#624=LINE('',#793,#794);
#625=LINE('',#796,#797);
#626=VERTEX_POINT('',#799);
#627=LINE('',#800,#801);
#628=LINE('',#803,#804);
#629=VERTEX_POINT('',#806);
#630=LINE('',#807,#808);
#631=VERTEX_POINT('',#810);
#632=LINE('',#811,#812);
#633=VERTEX_POINT('',#814);
#634=B_SPLINE_CURVE_WITH_KNOTS('',3,
(#815,#816,#817,#818,#819,#820,#821,#822,#823,#824,#825,#826,#827,#828,#829,#830,
#831,#832,#833,#834,#835,#836,#837,#838,#839,#840,#841,#842,#843,#844,#845,#846,
#847,#848,#849,#850,#851,#852,#853,#854,#855,#856,#857,#858),
.UNSPECIFIED.,.F.,.F.,
(4,1,1,1,1,1,1,1,1,1,1,1,1,1,1,1,1,1,1,1,1,1,1,1,1,1,1,1,1,1,1,1,1,1,1,1,1,1,1,1,
1,4),
(0.,0.0250644878696484,0.0356078823178868,0.0506054013804248,0.0764212357019096,
0.0959100785485563,0.102743207845731,0.129308628235495,0.1563945337967,0.15712335497504,
0.183784192419966,0.211582970286146,0.230737240642129,0.239481798784495,0.267868573094539,
0.296622869315286,0.326005336726746,0.328836301042413,0.355620304685374,0.385926370319932,
0.416670273573557,0.448048544092941,0.467234375592844,0.479632535523972,0.511842113979572,
0.544489962554471,0.577818105348527,0.611396887902186,0.625640500095918,0.645544041304337,
0.68000506285301,0.714848054776766,0.749746033453918,0.784883976769414,0.820198376863049,
0.831433738597472,0.855807610368448,0.891544460303567,0.92753693749277,0.963685748369014,
0.978163175821483,1.),
.UNSPECIFIED.);
#635=LINE('',#859,#860);
#636=VERTEX_POINT('',#862);
#637=LINE('',#863,#864);
#638=VERTEX_POINT('',#866);
#639=LINE('',#867,#868);
#640=VERTEX_POINT('',#870);
#641=B_SPLINE_CURVE_WITH_KNOTS('',3,
(#871,#872,#873,#874,#875,#876,#877,#878,#879,#880,#881,#882,#883,#884,#885,#886,
#887,#888,#889,#890,#891,#892,#893,#894,#895,#896,#897,#898,#899,#900,#901,#902,
#903,#904,#905,#906,#907,#908,#909),
.UNSPECIFIED.,.F.,.F.,
(4,1,1,1,1,1,1,1,1,1,1,1,1,1,1,1,1,1,1,1,1,1,1,1,1,1,1,1,1,1,1,1,1,1,1,1,4),
(0.,0.0176796043067123,0.0354902366247859,0.0534143650234443,0.0715267184392048,
0.0897474036271418,0.10820826961746,0.12680661472379,0.145614223368909,0.1644849915074,
0.183636566784156,0.203006830421036,0.22276550251641,0.242676875135466,0.265394632861535,
0.290769029801741,0.333416215900713,0.381300452418256,0.434394930576445,0.492780626819798,
0.560893109374976,0.633832912839071,0.684804384091749,0.718777878850947,0.74061274066873,
0.762433026189401,0.784204919468526,0.80594022603976,0.827618299617706,0.849272278983398,
0.870868758179463,0.892431987384973,0.913953594483388,0.935469598811583,0.956974775441002,
0.978484264573111,1.),
.UNSPECIFIED.);
#642=VERTEX_POINT('',#910);
#643=LINE('',#911,#912);
#644=B_SPLINE_CURVE_WITH_KNOTS('',3,
(#914,#915,#916,#917,#918,#919,#920,#921,#922,#923,#924,#925,#926,#927,#928,#929,
#930,#931,#932,#933,#934,#935,#936,#937,#938,#939,#940,#941,#942,#943,#944,#945,
#946,#947,#948,#949,#950,#951,#952),
.UNSPECIFIED.,.F.,.F.,
(4,1,1,1,1,1,1,1,1,1,1,1,1,1,1,1,1,1,1,1,1,1,1,1,1,1,1,1,1,1,1,1,1,1,1,1,4),
(0.,0.0176796043067127,0.0354902366247858,0.0534143650234441,0.0715267184392064,
0.0897474036271413,0.10820826961746,0.126806614723789,0.145614223368908,0.164484991507401,
0.183636566784156,0.203006830421037,0.222765502516409,0.242676875135465,0.265394632861534,
0.290769029801742,0.333416215900713,0.381300452418259,0.43439493057645,0.492780626819803,
0.56089310937498,0.633832912839071,0.684804384091747,0.718777878850948,0.740612740668728,
0.7624330261894,0.784204919468531,0.805940226039765,0.82761829961771,0.849272278983404,
0.870868758179467,0.892431987384977,0.913953594483391,0.935469598811584,0.956974775441001,
0.97848426457311,1.),
.UNSPECIFIED.);
#645=VERTEX_POINT('',#953);
#646=CIRCLE('',#954,1.);
#647=VERTEX_POINT('',#958);
#648=LINE('',#959,#960);
#649=VERTEX_POINT('',#962);
#650=B_SPLINE_CURVE_WITH_KNOTS('',3,
(#963,#964,#965,#966,#967,#968,#969,#970,#971,#972,#973,#974,#975,#976,#977,#978,
#979,#980,#981,#982,#983,#984,#985,#986,#987,#988,#989,#990,#991,#992,#993,#994,
#995,#996,#997,#998,#999,#1000,#1001,#1002,#1003,#1004,#1005,#1006),
.UNSPECIFIED.,.F.,.F.,
(4,1,1,1,1,1,1,1,1,1,1,1,1,1,1,1,1,1,1,1,1,1,1,1,1,1,1,1,1,1,1,1,1,1,1,1,1,1,1,1,
1,4),
(0.,0.0250644878696477,0.035607882317886,0.0506054013804229,0.0764212357019073,0.0959100785485522,
0.102743207845729,0.12930862823549,0.156394533796695,0.157123354975034,0.183784192419964,
0.211582970286144,0.23073724064212,0.239481798784494,0.26786857309454,0.296622869315287,
0.326005336726748,0.328836301042397,0.35562030468538,0.385926370319935,0.41667027357356,
0.448048544092938,0.467234375592808,0.479632535523969,0.51184211397957,0.54448996255447,
0.577818105348527,0.611396887902184,0.625640500095893,0.645544041304336,0.680005062853017,
0.714848054776773,0.749746033453926,0.784883976769423,0.820198376863057,0.831433738597474,
0.855807610368453,0.891544460303573,0.927536937492771,0.963685748369016,0.978163175821485,
1.),
.UNSPECIFIED.);
#651=VERTEX_POINT('',#1007);
#652=LINE('',#1008,#1009);
#653=LINE('',#1011,#1012);
#654=VERTEX_POINT('',#1014);
#655=LINE('',#1015,#1016);
#656=LINE('',#1018,#1019);
#657=VERTEX_POINT('',#1021);
#658=LINE('',#1022,#1023);
#659=VERTEX_POINT('',#1025);
#660=LINE('',#1026,#1027);
#661=CIRCLE('',#1029,2.);
#662=LINE('',#1033,#1034);
#663=LINE('',#1036,#1037);
#664=LINE('',#1039,#1040);
#665=LINE('',#1042,#1043);
#666=VERTEX_POINT('',#1045);
#667=(BOUNDED_CURVE()B_SPLINE_CURVE(3,
(#1046,#1047,#1048,#1049),
.UNSPECIFIED.,.F.,.F.)B_SPLINE_CURVE_WITH_KNOTS((4,4),
(0.,1.),
.UNSPECIFIED.)CURVE()GEOMETRIC_REPRESENTATION_ITEM()RATIONAL_B_SPLINE_CURVE((1.,
0.97728388428714,0.97728388428714,1.))REPRESENTATION_ITEM(''));
#668=VERTEX_POINT('',#1050);
#669=LINE('',#1051,#1052);
#670=(BOUNDED_CURVE()B_SPLINE_CURVE(3,
(#1054,#1055,#1056,#1057),
.UNSPECIFIED.,.F.,.F.)B_SPLINE_CURVE_WITH_KNOTS((4,4),
(0.,1.),
.UNSPECIFIED.)CURVE()GEOMETRIC_REPRESENTATION_ITEM()RATIONAL_B_SPLINE_CURVE((1.,
0.97728388428714,0.97728388428714,1.))REPRESENTATION_ITEM(''));
#671=CIRCLE('',#1058,1.);
#672=CIRCLE('',#1062,1.);
#673=CIRCLE('',#1066,1.);
#674=(BOUNDED_CURVE()B_SPLINE_CURVE(3,
(#1070,#1071,#1072,#1073),
.UNSPECIFIED.,.F.,.F.)B_SPLINE_CURVE_WITH_KNOTS((4,4),
(0.,1.),
.UNSPECIFIED.)CURVE()GEOMETRIC_REPRESENTATION_ITEM()RATIONAL_B_SPLINE_CURVE((1.,
0.804737854124365,0.804737854124365,1.))REPRESENTATION_ITEM(''));
#675=(BOUNDED_CURVE()B_SPLINE_CURVE(3,
(#1074,#1075,#1076,#1077),
.UNSPECIFIED.,.F.,.F.)B_SPLINE_CURVE_WITH_KNOTS((4,4),
(0.,1.),
.UNSPECIFIED.)CURVE()GEOMETRIC_REPRESENTATION_ITEM()RATIONAL_B_SPLINE_CURVE((1.,
0.804737854124365,0.804737854124365,1.))REPRESENTATION_ITEM(''));
#676=CIRCLE('',#1078,1.);
#677=(BOUNDED_CURVE()B_SPLINE_CURVE(3,
(#1082,#1083,#1084,#1085),
.UNSPECIFIED.,.F.,.F.)B_SPLINE_CURVE_WITH_KNOTS((4,4),
(0.,1.),
.UNSPECIFIED.)CURVE()GEOMETRIC_REPRESENTATION_ITEM()RATIONAL_B_SPLINE_CURVE((1.,
0.804737854124365,0.804737854124365,1.))REPRESENTATION_ITEM(''));
#678=(BOUNDED_CURVE()B_SPLINE_CURVE(3,
(#1086,#1087,#1088,#1089),
.UNSPECIFIED.,.F.,.F.)B_SPLINE_CURVE_WITH_KNOTS((4,4),
(0.,1.),
.UNSPECIFIED.)CURVE()GEOMETRIC_REPRESENTATION_ITEM()RATIONAL_B_SPLINE_CURVE((1.,
0.804737854124365,0.804737854124365,1.))REPRESENTATION_ITEM(''));
#679=(BOUNDED_CURVE()B_SPLINE_CURVE(3,
(#1090,#1091,#1092,#1093),
.UNSPECIFIED.,.F.,.F.)B_SPLINE_CURVE_WITH_KNOTS((4,4),
(0.,1.),
.UNSPECIFIED.)CURVE()GEOMETRIC_REPRESENTATION_ITEM()RATIONAL_B_SPLINE_CURVE((1.,
0.804737854124365,0.804737854124365,1.))REPRESENTATION_ITEM(''));
#680=(BOUNDED_CURVE()B_SPLINE_CURVE(3,
(#1094,#1095,#1096,#1097),
.UNSPECIFIED.,.F.,.F.)B_SPLINE_CURVE_WITH_KNOTS((4,4),
(0.,1.),
.UNSPECIFIED.)CURVE()GEOMETRIC_REPRESENTATION_ITEM()RATIONAL_B_SPLINE_CURVE((1.,
0.804737854124365,0.804737854124365,1.))REPRESENTATION_ITEM(''));
#681=CIRCLE('',#1098,1.);
#682=CIRCLE('',#1102,1.);
#683=CARTESIAN_POINT('',(-29.,-1.99999999999999,1.));
#684=CARTESIAN_POINT('',(-16.2426406871188,-2.,1.));
#685=CARTESIAN_POINT('',(-29.,-1.99999999999999,1.));
#686=VECTOR('',#687,1.);
#687=DIRECTION('',(1.,-4.69940854211297E-16,0.));
#688=CARTESIAN_POINT('',(-16.2426406871188,-2.,19.));
#689=CARTESIAN_POINT('',(-16.2426406871188,-2.,1.));
#690=VECTOR('',#691,1.);
#691=DIRECTION('',(-1.97372982155583E-16,0.,1.));
#692=CARTESIAN_POINT('',(-29.,-1.99999999999999,19.));
#693=CARTESIAN_POINT('',(-29.,-1.99999999999999,19.));
#694=VECTOR('',#695,1.);
#695=DIRECTION('',(1.,-4.69940854211297E-16,0.));
#696=CARTESIAN_POINT('',(-29.,-1.99999999999999,1.));
#697=VECTOR('',#698,1.);
#698=DIRECTION('',(0.,0.,1.));
#699=CARTESIAN_POINT('',(-22.75,-1.99999999999999,10.));
#700=AXIS2_PLACEMENT_3D('',#701,#702,#703);
#701=CARTESIAN_POINT('',(-20.,-1.99999999999999,10.));
#702=DIRECTION('',(-4.70049316782799E-16,-1.,0.));
#703=DIRECTION('',(-1.,4.70049316782799E-16,1.22464679914735E-16));
#704=CARTESIAN_POINT('',(-14.9999999999995,5.68357672016134E-15,0.));
#705=CARTESIAN_POINT('',(-30.,1.12551006756455E-14,0.));
#706=CARTESIAN_POINT('',(-14.9999999999995,5.68357672016134E-15,0.));
#707=VECTOR('',#708,1.);
#708=DIRECTION('',(-1.,3.71434930365595E-16,0.));
#709=CARTESIAN_POINT('',(-30.,1.12551006756455E-14,20.));
#710=CARTESIAN_POINT('',(-30.,1.12551006756455E-14,0.));
#711=VECTOR('',#712,1.);
#712=DIRECTION('',(0.,0.,1.));
#713=CARTESIAN_POINT('',(-14.9999999999995,5.68357672016134E-15,20.));
#714=CARTESIAN_POINT('',(-14.9999999999995,5.68357672016134E-15,20.));
#715=VECTOR('',#716,1.);
#716=DIRECTION('',(-1.,3.71434930365595E-16,0.));
#717=CARTESIAN_POINT('',(-14.9999999999995,5.50632361918104E-15,0.));
#718=VECTOR('',#719,1.);
#719=DIRECTION('',(0.,0.,1.));
#720=CARTESIAN_POINT('',(-21.75,1.40659985830768E-14,10.));
#721=AXIS2_PLACEMENT_3D('',#722,#723,#724);
#722=CARTESIAN_POINT('',(-20.,7.5407513719895E-15,10.));
#723=DIRECTION('',(-3.71434930365595E-16,-1.,0.));
#724=DIRECTION('',(-1.,3.71434930365595E-16,1.22464679914735E-16));
#725=CARTESIAN_POINT('',(30.,-6.22642289186472E-15,0.));
#726=CARTESIAN_POINT('',(14.9999999999995,-3.5012742734435E-15,0.));
#727=CARTESIAN_POINT('',(30.,-7.11460131156484E-15,0.));
#728=VECTOR('',#729,1.);
#729=DIRECTION('',(-1.,2.40888469208081E-16,0.));
#730=CARTESIAN_POINT('',(14.9999999999995,-3.5012742734435E-15,20.));
#731=CARTESIAN_POINT('',(14.9999999999995,-3.5012742734435E-15,0.));
#732=VECTOR('',#733,1.);
#733=DIRECTION('',(0.,0.,1.));
#734=CARTESIAN_POINT('',(30.,-6.22642289186472E-15,20.));
#735=CARTESIAN_POINT('',(30.,-7.11460131156484E-15,20.));
#736=VECTOR('',#737,1.);
#737=DIRECTION('',(-1.,2.40888469208081E-16,0.));
#738=CARTESIAN_POINT('',(30.,-6.2218359148828E-15,0.));
#739=VECTOR('',#740,1.);
#740=DIRECTION('',(0.,0.,1.));
#741=CARTESIAN_POINT('',(18.25,7.79867435930614E-15,10.));
#742=AXIS2_PLACEMENT_3D('',#743,#744,#745);
#743=CARTESIAN_POINT('',(20.,-4.70571661948403E-15,10.));
#744=DIRECTION('',(-2.40888469208081E-16,-1.,0.));
#745=DIRECTION('',(-1.,2.40888469208081E-16,1.22464679914735E-16));
#746=CARTESIAN_POINT('',(16.2426406871188,-2.00000000000001,1.));
#747=CARTESIAN_POINT('',(16.2426406871188,-2.00000000000001,19.));
#748=CARTESIAN_POINT('',(16.2426406871188,-2.00000000000001,1.));
#749=VECTOR('',#750,1.);
#750=DIRECTION('',(0.,2.46716227694479E-17,1.));
#751=CARTESIAN_POINT('',(29.,-2.00000000000001,1.));
#752=CARTESIAN_POINT('',(16.2426406871188,-2.00000000000001,1.));
#753=VECTOR('',#754,1.);
#754=DIRECTION('',(1.,-1.74052168226406E-16,0.));
#755=CARTESIAN_POINT('',(29.,-2.00000000000001,19.));
#756=CARTESIAN_POINT('',(29.,-2.00000000000001,1.));
#757=VECTOR('',#758,1.);
#758=DIRECTION('',(0.,0.,1.));
#759=CARTESIAN_POINT('',(16.2426406871188,-2.00000000000001,19.));
#760=VECTOR('',#761,1.);
#761=DIRECTION('',(1.,-1.74052168226406E-16,0.));
#762=CARTESIAN_POINT('',(17.25,-2.00000000000001,10.));
#763=AXIS2_PLACEMENT_3D('',#764,#765,#766);
#764=CARTESIAN_POINT('',(20.,-2.00000000000001,10.));
#765=DIRECTION('',(-1.56683105594266E-16,-1.,0.));
#766=DIRECTION('',(-1.,1.56683105594266E-16,1.22464679914735E-16));
#767=CARTESIAN_POINT('',(18.25,-1.00000000000001,10.));
#768=AXIS2_PLACEMENT_3D('',#769,#770,#771);
#769=CARTESIAN_POINT('',(20.,-1.00000000000001,10.));
#770=DIRECTION('',(-1.56683105594266E-16,-1.,0.));
#771=DIRECTION('',(-1.,1.56683105594266E-16,0.));
#772=CARTESIAN_POINT('',(-21.75,-0.999999999999992,10.));
#773=AXIS2_PLACEMENT_3D('',#774,#775,#776);
#774=CARTESIAN_POINT('',(-20.,-0.999999999999993,10.));
#775=DIRECTION('',(-1.56683105594266E-16,-1.,0.));
#776=DIRECTION('',(-1.,1.56683105594266E-16,0.));
#777=CARTESIAN_POINT('',(-0.707106781186559,-17.1213203435596,-7.40148683083438E-17));
#778=CARTESIAN_POINT('',(0.707106781186554,-17.1213203435596,-7.40148683083438E-17));
#779=AXIS2_PLACEMENT_3D('',#780,#781,#782);
#780=CARTESIAN_POINT('',(-4.71844785465692E-15,-16.4142135623731,0.));
#781=DIRECTION('',(0.,0.,-1.));
#782=DIRECTION('',(0.707106781186559,-0.707106781186536,0.));
#783=CARTESIAN_POINT('',(-14.3107890343515,-3.51763809059477,0.));
#784=CARTESIAN_POINT('',(-14.3107890340776,-3.51763809066818,0.));
#785=VECTOR('',#786,1.);
#786=DIRECTION('',(0.707106781186536,-0.707106781186559,0.));
#787=CARTESIAN_POINT('',(-16.2426406871188,-0.999999999999995,0.));
#788=AXIS2_PLACEMENT_3D('',#789,#790,#791);
#789=CARTESIAN_POINT('',(-16.2426406871188,-3.,0.));
#790=DIRECTION('',(0.,0.,1.));
#791=DIRECTION('',(0.965925826246688,-0.258819045260686,0.));
#792=CARTESIAN_POINT('',(-30.,-0.99999999999999,-5.55111512312578E-17));
#793=CARTESIAN_POINT('',(-30.,-0.999999999999989,0.));
#794=VECTOR('',#795,1.);
#795=DIRECTION('',(1.,-4.84201800378495E-16,0.));
#796=CARTESIAN_POINT('',(-30.,1.12551006756455E-14,0.));
#797=VECTOR('',#798,1.);
#798=DIRECTION('',(0.,-1.,0.));
#799=CARTESIAN_POINT('',(-4.59242549680257E-15,-15.,0.));
#800=CARTESIAN_POINT('',(-7.34788017910068E-15,-15.,0.));
#801=VECTOR('',#802,1.);
#802=DIRECTION('',(-0.707106781186535,0.70710678118656,0.));
#803=CARTESIAN_POINT('',(14.9999999999995,-3.5012742734435E-15,0.));
#804=VECTOR('',#805,1.);
#805=DIRECTION('',(-0.707106781186536,-0.707106781186559,0.));
#806=CARTESIAN_POINT('',(30.,-1.00000000000001,1.66533453693773E-16));
#807=CARTESIAN_POINT('',(30.,-1.00000000000001,0.));
#808=VECTOR('',#809,1.);
#809=DIRECTION('',(0.,1.,0.));
#810=CARTESIAN_POINT('',(18.2426406871187,-1.00000000000001,0.));
#811=CARTESIAN_POINT('',(18.2426406871187,-1.00000000000001,0.));
#812=VECTOR('',#813,1.);
#813=DIRECTION('',(1.,-1.51084677445733E-16,0.));
#814=CARTESIAN_POINT('',(15.8034830956269,-2.02494402911882,9.47891432012682E-10));
#815=CARTESIAN_POINT('',(15.8034830956269,-2.02494402911882,9.47891432012682E-10));
#816=CARTESIAN_POINT('',(15.8195086598259,-2.0089195202971,2.50250995728739E-10));
#817=CARTESIAN_POINT('',(15.8426567292803,-1.98669822760553,-4.60699430937572E-11));
#818=CARTESIAN_POINT('',(15.8762671210286,-1.95614835271154,1.15558604339967E-11));
#819=CARTESIAN_POINT('',(15.9108774134712,-1.9258740647167,-6.46971278295611E-12));
#820=CARTESIAN_POINT('',(15.9524117592686,-1.89164237040895,1.60725965098275E-12));
#821=CARTESIAN_POINT('',(15.9891149446195,-1.86322715422534,-1.09117877268727E-13));
#822=CARTESIAN_POINT('',(16.026784566377,-1.83506695666544,7.70202701450657E-14));
#823=CARTESIAN_POINT('',(16.0704878370443,-1.80380802091404,-3.21673327423476E-14));
#824=CARTESIAN_POINT('',(16.1106093276511,-1.77697993352992,-1.20475679493737E-15));
#825=CARTESIAN_POINT('',(16.1511972051998,-1.75072282748563,1.22289382008912E-15));
#826=CARTESIAN_POINT('',(16.1927102701071,-1.72473763327915,-4.86530975137712E-16));
#827=CARTESIAN_POINT('',(16.2490383434747,-1.69160344760229,2.13734209409214E-16));
#828=CARTESIAN_POINT('',(16.2922218953606,-1.66746182207829,-1.20671819098528E-16));
#829=CARTESIAN_POINT('',(16.3361784794302,-1.64359561569077,1.6705356008743E-16));
#830=CARTESIAN_POINT('',(16.3881109347311,-1.61646602835386,-2.06686150234858E-16));
#831=CARTESIAN_POINT('',(16.457180127052,-1.58235161935213,1.47709438525145E-16));
#832=CARTESIAN_POINT('',(16.5064046255987,-1.55931788348598,9.43424454261219E-17));
#833=CARTESIAN_POINT('',(16.5543005166794,-1.53752618057231,-1.30232022033415E-16));
#834=CARTESIAN_POINT('',(16.603187651947,-1.51585471584359,3.42323312031988E-17));
#835=CARTESIAN_POINT('',(16.6754354343975,-1.48530494471835,5.14345378433869E-17));
#836=CARTESIAN_POINT('',(16.7520070311528,-1.4544233261395,-1.65893057930149E-17));
#837=CARTESIAN_POINT('',(16.8197517042499,-1.42830331631829,-3.01659105808151E-17));
#838=CARTESIAN_POINT('',(16.8723902824975,-1.40868463277493,1.1169107473628E-16));
#839=CARTESIAN_POINT('',(16.925830855189,-1.38916672404622,-7.23346491445416E-17));
#840=CARTESIAN_POINT('',(16.990724904473,-1.36611899972756,4.52348213126806E-17));
#841=CARTESIAN_POINT('',(17.0734958618721,-1.33779799850856,-7.89079699110979E-17));
#842=CARTESIAN_POINT('',(17.1576985720435,-1.30997313515766,-4.4154530272326E-17));
#843=CARTESIAN_POINT('',(17.2265440466168,-1.28794429608008,5.5600185239034E-17));
#844=CARTESIAN_POINT('',(17.2841148523456,-1.26990257240509,-7.85223490443228E-17));
#845=CARTESIAN_POINT('',(17.3425154908829,-1.25186081842123,5.18806774161447E-17));
#846=CARTESIAN_POINT('',(17.4186081451839,-1.22885142087446,2.40434324612551E-16));
#847=CARTESIAN_POINT('',(17.5077068023606,-1.20255518333434,-8.18135353771489E-16));
#848=CARTESIAN_POINT('',(17.5975863209435,-1.1765930947494,2.84422534156714E-15));
#849=CARTESIAN_POINT('',(17.6880254638762,-1.15095499151784,-1.0723613942569E-14));
#850=CARTESIAN_POINT('',(17.7582357914641,-1.13136872461673,2.8694160977108E-14));
#851=CARTESIAN_POINT('',(17.8192224123371,-1.11450434019173,-4.36993363462443E-14));
#852=CARTESIAN_POINT('',(17.8805888552263,-1.0976415757843,4.93371608589061E-13));
#853=CARTESIAN_POINT('',(17.9632628281025,-1.07512847327541,-2.74909592078655E-12));
#854=CARTESIAN_POINT('',(18.0560459232372,-1.05006541574794,1.02154760639367E-11));
#855=CARTESIAN_POINT('',(18.1304973165652,-1.03006229436619,-2.85596219542208E-11));
#856=CARTESIAN_POINT('',(18.1927349587798,-1.01337219157789,3.76586429902258E-11));
#857=CARTESIAN_POINT('',(18.2239054403293,-1.00502010372393,3.242705275675E-11));
#858=CARTESIAN_POINT('',(18.2426406871187,-1.00000000000001,0.));
#859=CARTESIAN_POINT('',(0.707106781186554,-17.1213203435596,0.));
#860=VECTOR('',#861,1.);
#861=DIRECTION('',(0.707106781186536,0.707106781186559,0.));
#862=CARTESIAN_POINT('',(-0.707106781186561,-17.1213203435596,20.));
#863=CARTESIAN_POINT('',(-0.707106781186562,-17.1213203435596,-2.22044604925031E-16));
#864=VECTOR('',#865,1.);
#865=DIRECTION('',(-8.32667268468867E-17,1.77635683940025E-16,1.));
#866=CARTESIAN_POINT('',(-14.3107890343515,-3.51763809059477,20.));
#867=CARTESIAN_POINT('',(-14.3107890340776,-3.51763809066818,20.));
#868=VECTOR('',#869,1.);
#869=DIRECTION('',(0.707106781186536,-0.707106781186559,0.));
#870=CARTESIAN_POINT('',(-15.5355339059322,-2.29289321881346,19.));
#871=CARTESIAN_POINT('',(-14.3107890342601,-3.51763809050337,20.));
#872=CARTESIAN_POINT('',(-14.3194003430502,-3.50902678171311,19.9999999266796));
#873=CARTESIAN_POINT('',(-14.3366677305898,-3.49175939417317,19.9996651318886));
#874=CARTESIAN_POINT('',(-14.3625906720233,-3.46583645273914,19.998171375521));
#875=CARTESIAN_POINT('',(-14.3886496400529,-3.43977748470895,19.9956826757999));
#876=CARTESIAN_POINT('',(-14.4148236074974,-3.41360351726403,19.9921976456861));
#877=CARTESIAN_POINT('',(-14.4411629637409,-3.38726416101998,19.9877043986638));
#878=CARTESIAN_POINT('',(-14.4676332152376,-3.36079390952278,19.9822006698007));
#879=CARTESIAN_POINT('',(-14.4942718855839,-3.33415523917594,19.9756688558316));
#880=CARTESIAN_POINT('',(-14.5209834136706,-3.30744371108865,19.9681248114437));
#881=CARTESIAN_POINT('',(-14.5478244835942,-3.28060264116455,19.9595477115473));
#882=CARTESIAN_POINT('',(-14.5747822197931,-3.25364490496514,19.949932756786));
#883=CARTESIAN_POINT('',(-14.6019897416281,-3.22643738312962,19.9392148712725));
#884=CARTESIAN_POINT('',(-14.6293661196419,-3.19906100511526,19.9274033600583));
#885=CARTESIAN_POINT('',(-14.6580809115264,-3.17034621323022,19.91393179686));
#886=CARTESIAN_POINT('',(-14.6891119286487,-3.13931519610721,19.8981267206679));
#887=CARTESIAN_POINT('',(-14.7300857045021,-3.09834142025302,19.8754189683747));
#888=CARTESIAN_POINT('',(-14.7815969937763,-3.0468301309778,19.843628258168));
#889=CARTESIAN_POINT('',(-14.8439950133859,-2.98443211136702,19.8000123955606));
#890=CARTESIAN_POINT('',(-14.9114855061115,-2.9169416186401,19.7468303686715));
#891=CARTESIAN_POINT('',(-14.9853437122256,-2.84308341252453,19.6816054481905));
#892=CARTESIAN_POINT('',(-15.0646279634859,-2.76379916126261,19.6034127321302));
#893=CARTESIAN_POINT('',(-15.1382901535068,-2.69013697124033,19.5228962627562));
#894=CARTESIAN_POINT('',(-15.1970989400684,-2.63132818467747,19.4537008205047));
#895=CARTESIAN_POINT('',(-15.2361551838423,-2.59227194090282,19.4057289174483));
#896=CARTESIAN_POINT('',(-15.2642418897916,-2.56418523495299,19.3703547029481));
#897=CARTESIAN_POINT('',(-15.2877272906903,-2.54069983405384,19.3402370061807));
#898=CARTESIAN_POINT('',(-15.3110055801084,-2.51742154463521,19.309888832971));
#899=CARTESIAN_POINT('',(-15.3340772677504,-2.49434985699284,19.2793577037069));
#900=CARTESIAN_POINT('',(-15.3569667592591,-2.47146036548363,19.248659586769));
#901=CARTESIAN_POINT('',(-15.3796822986392,-2.44874482610314,19.2178313222959));
#902=CARTESIAN_POINT('',(-15.4022461655805,-2.42618095916133,19.1868904435572));
#903=CARTESIAN_POINT('',(-15.4246660510607,-2.40376107368066,19.155873993668));
#904=CARTESIAN_POINT('',(-15.446973551361,-2.38145357337999,19.1247854063035));
#905=CARTESIAN_POINT('',(-15.4691897715226,-2.35923735321791,19.0936418023237));
#906=CARTESIAN_POINT('',(-15.4913441137094,-2.3370830110307,19.0624481031602));
#907=CARTESIAN_POINT('',(-15.5134541338646,-2.31497299087503,19.0312255243726));
#908=CARTESIAN_POINT('',(-15.5281752231231,-2.3002519016163,19.0104067370373));
#909=CARTESIAN_POINT('',(-15.535533905929,-2.29289321881023,19.));
#910=CARTESIAN_POINT('',(-15.5355339059322,-2.29289321881346,1.));
#911=CARTESIAN_POINT('',(-15.5355339059322,-2.29289321881346,0.999999999999999));
#912=VECTOR('',#913,1.);
#913=DIRECTION('',(0.,0.,1.));
#914=CARTESIAN_POINT('',(-14.3107890342601,-3.51763809050337,0.));
#915=CARTESIAN_POINT('',(-14.3194003430502,-3.50902678171311,7.33204446046187E-8));
#916=CARTESIAN_POINT('',(-14.3366677305898,-3.49175939417318,0.000334868111404318));
#917=CARTESIAN_POINT('',(-14.3625906720233,-3.46583645273915,0.00182862447903676));
#918=CARTESIAN_POINT('',(-14.388649640053,-3.43977748470895,0.00431732420006159));
#919=CARTESIAN_POINT('',(-14.4148236074974,-3.41360351726403,0.00780235431384607));
#920=CARTESIAN_POINT('',(-14.4411629637409,-3.38726416101998,0.0122956013362223));
#921=CARTESIAN_POINT('',(-14.4676332152376,-3.36079390952278,0.0177993301992829));
#922=CARTESIAN_POINT('',(-14.4942718855839,-3.33415523917594,0.0243311441684284));
#923=CARTESIAN_POINT('',(-14.5209834136706,-3.30744371108865,0.0318751885563329));
#924=CARTESIAN_POINT('',(-14.5478244835942,-3.28060264116455,0.0404522884527374));
#925=CARTESIAN_POINT('',(-14.5747822197931,-3.25364490496515,0.0500672432139934));
#926=CARTESIAN_POINT('',(-14.6019897416281,-3.22643738312962,0.0607851287274826));
#927=CARTESIAN_POINT('',(-14.6293661196419,-3.19906100511526,0.0725966399417361));
#928=CARTESIAN_POINT('',(-14.6580809115264,-3.17034621323022,0.0860682031399871));
#929=CARTESIAN_POINT('',(-14.6891119286488,-3.13931519610721,0.101873279332095));
#930=CARTESIAN_POINT('',(-14.7300857045021,-3.09834142025302,0.124581031625339));
#931=CARTESIAN_POINT('',(-14.7815969937763,-3.04683013097779,0.156371741832002));
#932=CARTESIAN_POINT('',(-14.8439950133859,-2.98443211136703,0.199987604439427));
#933=CARTESIAN_POINT('',(-14.9114855061115,-2.91694161864009,0.25316963132852));
#934=CARTESIAN_POINT('',(-14.9853437122256,-2.84308341252453,0.318394551809481));
#935=CARTESIAN_POINT('',(-15.0646279634859,-2.7637991612626,0.396587267869826));
#936=CARTESIAN_POINT('',(-15.1382901535067,-2.69013697124033,0.477103737243822));
#937=CARTESIAN_POINT('',(-15.1970989400684,-2.63132818467747,0.546299179495306));
#938=CARTESIAN_POINT('',(-15.2361551838423,-2.59227194090282,0.5942710825517));
#939=CARTESIAN_POINT('',(-15.2642418897916,-2.56418523495299,0.62964529705194));
#940=CARTESIAN_POINT('',(-15.2877272906903,-2.54069983405384,0.65976299381929));
#941=CARTESIAN_POINT('',(-15.3110055801084,-2.51742154463522,0.690111167028951));
#942=CARTESIAN_POINT('',(-15.3340772677504,-2.49434985699284,0.720642296293109));
#943=CARTESIAN_POINT('',(-15.3569667592591,-2.47146036548363,0.751340413230986));
#944=CARTESIAN_POINT('',(-15.3796822986392,-2.44874482610313,0.782168677704083));
#945=CARTESIAN_POINT('',(-15.4022461655805,-2.42618095916132,0.813109556442795));
#946=CARTESIAN_POINT('',(-15.4246660510607,-2.40376107368066,0.844126006332045));
#947=CARTESIAN_POINT('',(-15.446973551361,-2.38145357337998,0.875214593696446));
#948=CARTESIAN_POINT('',(-15.4691897715226,-2.35923735321792,0.906358197676299));
#949=CARTESIAN_POINT('',(-15.4913441137094,-2.3370830110307,0.937551896839806));
#950=CARTESIAN_POINT('',(-15.5134541338646,-2.31497299087503,0.968774475627359));
#951=CARTESIAN_POINT('',(-15.5281752231231,-2.30025190161631,0.989593262962663));
#952=CARTESIAN_POINT('',(-15.535533905929,-2.29289321881023,1.));
#953=CARTESIAN_POINT('',(0.707106781186554,-17.1213203435596,20.));
#954=AXIS2_PLACEMENT_3D('',#955,#956,#957);
#955=CARTESIAN_POINT('',(-4.71844785465692E-15,-16.4142135623731,20.));
#956=DIRECTION('',(0.,0.,1.));
#957=DIRECTION('',(-0.707106781186553,-0.707106781186542,0.));
#958=CARTESIAN_POINT('',(15.8034830956269,-2.02494402911882,19.9999999990521));
#959=CARTESIAN_POINT('',(0.707106781186554,-17.1213203435596,20.));
#960=VECTOR('',#961,1.);
#961=DIRECTION('',(0.707106781186536,0.707106781186559,0.));
#962=CARTESIAN_POINT('',(18.2426406871187,-1.00000000000001,20.));
#963=CARTESIAN_POINT('',(15.8034830956269,-2.02494402911882,19.9999999990521));
#964=CARTESIAN_POINT('',(15.8195086598259,-2.00891952029709,19.9999999997497));
#965=CARTESIAN_POINT('',(15.8426567292803,-1.98669822760553,20.0000000000461));
#966=CARTESIAN_POINT('',(15.8762671210286,-1.95614835271154,19.9999999999884));
#967=CARTESIAN_POINT('',(15.9108774134712,-1.9258740647167,20.0000000000065));
#968=CARTESIAN_POINT('',(15.9524117592686,-1.89164237040895,19.9999999999984));
#969=CARTESIAN_POINT('',(15.9891149446195,-1.86322715422534,20.0000000000001));
#970=CARTESIAN_POINT('',(16.026784566377,-1.83506695666543,19.9999999999999));
#971=CARTESIAN_POINT('',(16.0704878370443,-1.80380802091408,20.));
#972=CARTESIAN_POINT('',(16.1106093276511,-1.77697993352985,20.));
#973=CARTESIAN_POINT('',(16.1511972051998,-1.75072282748571,20.));
#974=CARTESIAN_POINT('',(16.1927102701071,-1.72473763327912,20.));
#975=CARTESIAN_POINT('',(16.2490383434747,-1.6916034476023,20.));
#976=CARTESIAN_POINT('',(16.2922218953606,-1.66746182207829,20.));
#977=CARTESIAN_POINT('',(16.3361784794302,-1.64359561569077,20.));
#978=CARTESIAN_POINT('',(16.3881109347311,-1.61646602835386,20.));
#979=CARTESIAN_POINT('',(16.457180127052,-1.58235161935213,20.));
#980=CARTESIAN_POINT('',(16.5064046255986,-1.55931788348597,20.));
#981=CARTESIAN_POINT('',(16.5543005166794,-1.53752618057232,20.));
#982=CARTESIAN_POINT('',(16.603187651947,-1.51585471584359,20.));
#983=CARTESIAN_POINT('',(16.6754354343975,-1.48530494471835,20.));
#984=CARTESIAN_POINT('',(16.7520070311528,-1.4544233261395,20.));
#985=CARTESIAN_POINT('',(16.8197517042498,-1.42830331631829,20.));
#986=CARTESIAN_POINT('',(16.8723902824975,-1.40868463277494,20.));
#987=CARTESIAN_POINT('',(16.925830855189,-1.38916672404622,20.));
#988=CARTESIAN_POINT('',(16.990724904473,-1.36611899972756,20.));
#989=CARTESIAN_POINT('',(17.0734958618721,-1.33779799850856,20.));
#990=CARTESIAN_POINT('',(17.1576985720435,-1.30997313515766,20.));
#991=CARTESIAN_POINT('',(17.2265440466168,-1.28794429608008,20.));
#992=CARTESIAN_POINT('',(17.2841148523456,-1.2699025724051,20.));
#993=CARTESIAN_POINT('',(17.3425154908829,-1.25186081842123,20.));
#994=CARTESIAN_POINT('',(17.4186081451839,-1.22885142087446,20.));
#995=CARTESIAN_POINT('',(17.5077068023607,-1.20255518333433,20.));
#996=CARTESIAN_POINT('',(17.5975863209435,-1.17659309474939,20.));
#997=CARTESIAN_POINT('',(17.6880254638763,-1.15095499151781,20.));
#998=CARTESIAN_POINT('',(17.7582357914641,-1.13136872461675,20.));
#999=CARTESIAN_POINT('',(17.8192224123372,-1.11450434019173,20.));
#1000=CARTESIAN_POINT('',(17.8805888552263,-1.0976415757843,19.9999999999995));
#1001=CARTESIAN_POINT('',(17.9632628281026,-1.07512847327546,20.0000000000027));
#1002=CARTESIAN_POINT('',(18.0560459232372,-1.0500654157479,19.9999999999898));
#1003=CARTESIAN_POINT('',(18.1304973165652,-1.03006229436617,20.0000000000286));
#1004=CARTESIAN_POINT('',(18.1927349587798,-1.01337219157781,19.9999999999623));
#1005=CARTESIAN_POINT('',(18.2239054403293,-1.00502010372388,19.9999999999676));
#1006=CARTESIAN_POINT('',(18.2426406871187,-1.00000000000001,20.));
#1007=CARTESIAN_POINT('',(30.,-1.00000000000001,20.));
#1008=CARTESIAN_POINT('',(18.2426406871187,-1.00000000000001,20.));
#1009=VECTOR('',#1010,1.);
#1010=DIRECTION('',(1.,-1.51084677445733E-16,0.));
#1011=CARTESIAN_POINT('',(30.,-1.00000000000001,20.));
#1012=VECTOR('',#1013,1.);
#1013=DIRECTION('',(0.,1.,0.));
#1014=CARTESIAN_POINT('',(-4.59242549680257E-15,-15.,20.));
#1015=CARTESIAN_POINT('',(14.9999999999995,-3.5012742734435E-15,20.));
#1016=VECTOR('',#1017,1.);
#1017=DIRECTION('',(-0.707106781186536,-0.707106781186559,0.));
#1018=CARTESIAN_POINT('',(-7.34788017910068E-15,-15.,20.));
#1019=VECTOR('',#1020,1.);
#1020=DIRECTION('',(-0.707106781186535,0.70710678118656,0.));
#1021=CARTESIAN_POINT('',(-30.,-0.99999999999999,20.));
#1022=CARTESIAN_POINT('',(-30.,1.12551006756455E-14,20.));
#1023=VECTOR('',#1024,1.);
#1024=DIRECTION('',(0.,-1.,0.));
#1025=CARTESIAN_POINT('',(-16.2426406871188,-0.999999999999996,20.));
#1026=CARTESIAN_POINT('',(-30.,-0.999999999999989,20.));
#1027=VECTOR('',#1028,1.);
#1028=DIRECTION('',(1.,-4.84201800378495E-16,0.));
#1029=AXIS2_PLACEMENT_3D('',#1030,#1031,#1032);
#1030=CARTESIAN_POINT('',(-16.2426406871188,-3.,20.));
#1031=DIRECTION('',(0.,0.,-1.));
#1032=DIRECTION('',(0.,1.,0.));
#1033=CARTESIAN_POINT('',(-30.,-0.99999999999999,-2.22044604925031E-16));
#1034=VECTOR('',#1035,1.);
#1035=DIRECTION('',(0.,-5.55111512312578E-18,1.));
#1036=CARTESIAN_POINT('',(-8.11483218805096E-15,-15.,0.));
#1037=VECTOR('',#1038,1.);
#1038=DIRECTION('',(0.,0.,1.));
#1039=CARTESIAN_POINT('',(30.,-1.00000000000001,6.66133814775094E-16));
#1040=VECTOR('',#1041,1.);
#1041=DIRECTION('',(0.,0.,1.));
#1042=CARTESIAN_POINT('',(0.707106781186554,-17.1213203435596,-2.22044604925031E-16));
#1043=VECTOR('',#1044,1.);
#1044=DIRECTION('',(0.,0.,1.));
#1045=CARTESIAN_POINT('',(15.5355339059322,-2.29289321881347,1.));
#1046=CARTESIAN_POINT('',(15.8034830972688,-2.02494402747688,1.89578286402536E-9));
#1047=CARTESIAN_POINT('',(15.6269263851783,-2.20150073956743,0.305805198426924));
#1048=CARTESIAN_POINT('',(15.5355339059322,-2.29289321881347,0.646886575149461));
#1049=CARTESIAN_POINT('',(15.5355339059322,-2.29289321881347,1.));
#1050=CARTESIAN_POINT('',(15.5355339059322,-2.29289321881347,19.));
#1051=CARTESIAN_POINT('',(15.5355339059322,-2.29289321881347,1.));
#1052=VECTOR('',#1053,1.);
#1053=DIRECTION('',(0.,2.46716227694479E-17,1.));
#1054=CARTESIAN_POINT('',(15.8034830972688,-2.02494402747687,19.9999999981042));
#1055=CARTESIAN_POINT('',(15.6269263851783,-2.20150073956743,19.6941948015731));
#1056=CARTESIAN_POINT('',(15.5355339059322,-2.29289321881346,19.3531134248505));
#1057=CARTESIAN_POINT('',(15.5355339059322,-2.29289321881346,19.));
#1058=AXIS2_PLACEMENT_3D('',#1059,#1060,#1061);
#1059=CARTESIAN_POINT('',(-16.2426406871188,-3.,0.999999999999999));
#1060=DIRECTION('',(0.,0.,1.));
#1061=DIRECTION('',(0.70710678118656,0.707106781186535,0.));
#1062=AXIS2_PLACEMENT_3D('',#1063,#1064,#1065);
#1063=CARTESIAN_POINT('',(-16.2426406871188,-3.,19.));
#1064=DIRECTION('',(0.,0.,-1.));
#1065=DIRECTION('',(1.22124532708767E-15,1.,0.));
#1066=AXIS2_PLACEMENT_3D('',#1067,#1068,#1069);
#1067=CARTESIAN_POINT('',(-16.2426406871188,-0.999999999999995,1.));
#1068=DIRECTION('',(-1.,-7.21644966006352E-16,0.));
#1069=DIRECTION('',(4.00593428432545E-31,-5.55111512312578E-16,-1.));
#1070=CARTESIAN_POINT('',(-29.,-1.99999999999999,1.));
#1071=CARTESIAN_POINT('',(-29.5857864376269,-1.99999999999999,0.414213562373095));
#1072=CARTESIAN_POINT('',(-30.,-1.58578643762689,0.));
#1073=CARTESIAN_POINT('',(-30.,-0.999999999999989,0.));
#1074=CARTESIAN_POINT('',(-30.,-0.99999999999999,20.));
#1075=CARTESIAN_POINT('',(-30.,-1.58578643762689,20.));
#1076=CARTESIAN_POINT('',(-29.5857864376269,-1.99999999999999,19.5857864376269));
#1077=CARTESIAN_POINT('',(-29.,-1.99999999999999,19.));
#1078=AXIS2_PLACEMENT_3D('',#1079,#1080,#1081);
#1079=CARTESIAN_POINT('',(-16.2426406871188,-0.999999999999996,19.));
#1080=DIRECTION('',(-1.,4.79658228804352E-16,0.));
#1081=DIRECTION('',(-4.79658228804352E-16,-1.,6.12323399573677E-17));
#1082=CARTESIAN_POINT('',(18.2426406871187,-1.00000000000001,0.));
#1083=CARTESIAN_POINT('',(17.071067811865,-1.58578643762691,1.11022302462516E-16));
#1084=CARTESIAN_POINT('',(16.2426406871188,-2.00000000000001,0.414213562373095));
#1085=CARTESIAN_POINT('',(16.2426406871188,-2.00000000000001,1.));
#1086=CARTESIAN_POINT('',(29.,-2.00000000000001,1.));
#1087=CARTESIAN_POINT('',(29.5857864376269,-2.00000000000001,0.414213562373095));
#1088=CARTESIAN_POINT('',(30.,-1.58578643762691,0.));
#1089=CARTESIAN_POINT('',(30.,-1.00000000000001,0.));
#1090=CARTESIAN_POINT('',(29.,-2.00000000000001,19.));
#1091=CARTESIAN_POINT('',(29.5857864376269,-2.00000000000001,19.5857864376269));
#1092=CARTESIAN_POINT('',(30.,-1.58578643762691,20.));
#1093=CARTESIAN_POINT('',(30.,-1.00000000000001,20.));
#1094=CARTESIAN_POINT('',(18.2426406871187,-1.00000000000001,20.));
#1095=CARTESIAN_POINT('',(17.071067811865,-1.58578643762691,20.));
#1096=CARTESIAN_POINT('',(16.2426406871188,-2.00000000000001,19.5857864376269));
#1097=CARTESIAN_POINT('',(16.2426406871188,-2.00000000000001,19.));
#1098=AXIS2_PLACEMENT_3D('',#1099,#1100,#1101);
#1099=CARTESIAN_POINT('',(16.2426406871188,-3.00000000000001,1.));
#1100=DIRECTION('',(0.,-6.83214169000096E-17,-1.));
#1101=DIRECTION('',(-0.707106781186559,0.707106781186536,-4.83105371902692E-17));
#1102=AXIS2_PLACEMENT_3D('',#1103,#1104,#1105);
#1103=CARTESIAN_POINT('',(16.2426406871188,-3.00000000000001,19.));
#1104=DIRECTION('',(0.,-6.83214169000096E-17,-1.));
#1105=DIRECTION('',(-0.707106781186559,0.707106781186536,-4.83105371902692E-17));
ENDSEC;
END-ISO-10303-21;
