ISO-10303-21;
HEADER;
FILE_DESCRIPTION(('STEP AP242'),
    '1');
FILE_NAME('SyringeHolderMedium',
    '',
    ('UNSPECIFIED'),
    ('UNSPECIFIED'),
    'C3D Converter',
    'C3D Toolkit',
    '');
FILE_SCHEMA(('AP242_MANAGED_MODEL_BASED_3D_ENGINEERING_MIM_LF { 1 0 10303 442 1 1 4 }'));
ENDSEC;

DATA;
#1=PRODUCT_DEFINITION('','UNSPECIFIED',#28,#31);
#2=SHAPE_DEFINITION_REPRESENTATION(#26,#3);
#3=SHAPE_REPRESENTATION('NONE',(#4),#8);
#4=AXIS2_PLACEMENT_3D('',#5,#6,#7);
#5=CARTESIAN_POINT('',(0.,0.,0.));
#6=DIRECTION('',(0.,0.,1.));
#7=DIRECTION('',(1.,0.,0.));
#8=(GEOMETRIC_REPRESENTATION_CONTEXT(3)GLOBAL_UNCERTAINTY_ASSIGNED_CONTEXT((#10))
GLOBAL_UNIT_ASSIGNED_CONTEXT((#9,#11,#12))REPRESENTATION_CONTEXT('NONE','NONE'));
#9=(LENGTH_UNIT()NAMED_UNIT(*)SI_UNIT(.MILLI.,.METRE.));
#10=UNCERTAINTY_MEASURE_WITH_UNIT(LENGTH_MEASURE(1.E-5),#9,'NONE','NONE');
#11=(NAMED_UNIT(*)PLANE_ANGLE_UNIT()SI_UNIT($,.RADIAN.));
#12=(NAMED_UNIT(*)SI_UNIT($,.STERADIAN.)SOLID_ANGLE_UNIT());
#13=MANIFOLD_SOLID_BREP('',#14);
#14=CLOSED_SHELL('',(#53,#54,#55,#56,#57,#58,#59,#60,#61,#62,#63,#64,#65,#66));
#15=COLOUR_RGB('',0.564705882352941,0.564705882352941,0.564705882352941);
#16=FILL_AREA_STYLE_COLOUR('',#15);
#17=FILL_AREA_STYLE($,(#16));
#18=SURFACE_STYLE_FILL_AREA(#17);
#19=SURFACE_SIDE_STYLE('',(#18));
#20=SURFACE_STYLE_USAGE(.BOTH.,#19);
#21=PRESENTATION_STYLE_ASSIGNMENT((#20));
#22=MECHANICAL_DESIGN_GEOMETRIC_PRESENTATION_REPRESENTATION('NONE',(#23),#8);
#23=STYLED_ITEM('',(#21),#13);
#24=ADVANCED_BREP_SHAPE_REPRESENTATION('NONE',(#13),#8);
#25=SHAPE_REPRESENTATION_RELATIONSHIP('','',#3,#24);
#26=PRODUCT_DEFINITION_SHAPE('NONE','NONE',#1);
#27=MECHANICAL_CONTEXT('NONE',#32,'mechanical');
#28=PRODUCT_DEFINITION_FORMATION_WITH_SPECIFIED_SOURCE('ANY','UNSPECIFIED',#29,.NOT_KNOWN.);
#29=PRODUCT('','\X2\0414043504420430043B044C\X0\','NONE',(#27));
#30=PRODUCT_RELATED_PRODUCT_CATEGORY('detail','',(#29));
#31=DESIGN_CONTEXT('detailed design',#32,'design');
#32=APPLICATION_CONTEXT('configuration controlled 3d designs of mechanical parts and assemblies');
#33=APPLICATION_PROTOCOL_DEFINITION('international standard','config_control_design',
1994,#32);
#34=CC_DESIGN_DATE_AND_TIME_ASSIGNMENT(#35,#39,(#1));
#35=DATE_AND_TIME(#36,#37);
#36=CALENDAR_DATE(0,1,1);
#37=LOCAL_TIME(0,0,0.,#38);
#38=COORDINATED_UNIVERSAL_TIME_OFFSET(0,0,.AHEAD.);
#39=DATE_TIME_ROLE('creation_date');
#40=CC_DESIGN_APPROVAL(#41,(#1));
#41=APPROVAL(#42,'UNSPECIFIED');
#42=APPROVAL_STATUS('not_yet_approved');
#43=APPROVAL_DATE_TIME(#44,#41);
#44=DATE_AND_TIME(#45,#46);
#45=CALENDAR_DATE(0,1,1);
#46=LOCAL_TIME(0,0,0.,#47);
#47=COORDINATED_UNIVERSAL_TIME_OFFSET(0,0,.AHEAD.);
#48=PERSON('UNSPECIFIED','Cybermeatball','UNSPECIFIED',('UNSPECIFIED'),('UNSPECIFIED'),
('UNSPECIFIED'));
#49=ORGANIZATION('UNSPECIFIED','UNSPECIFIED','UNSPECIFIED');
#50=PERSON_AND_ORGANIZATION(#48,#49);
#51=PERSON_AND_ORGANIZATION_ROLE('creator');
#52=CC_DESIGN_PERSON_AND_ORGANIZATION_ASSIGNMENT(#50,#51,(#28,#1));
#53=ADVANCED_FACE('',(#67,#69,#71),#73,.F.);
#54=ADVANCED_FACE('',(#78,#80,#82),#84,.T.);
#55=ADVANCED_FACE('',(#89,#91),#93,.F.);
#56=ADVANCED_FACE('',(#98,#100),#102,.F.);
#57=ADVANCED_FACE('',(#107),#109,.T.);
#58=ADVANCED_FACE('',(#114),#116,.T.);
#59=ADVANCED_FACE('',(#121),#123,.T.);
#60=ADVANCED_FACE('',(#128),#130,.T.);
#61=ADVANCED_FACE('',(#135),#137,.T.);
#62=ADVANCED_FACE('',(#142),#144,.T.);
#63=ADVANCED_FACE('',(#149),#151,.T.);
#64=ADVANCED_FACE('',(#156),#158,.T.);
#65=ADVANCED_FACE('',(#163,#165),#167,.T.);
#66=ADVANCED_FACE('',(#172,#174),#176,.T.);
#67=FACE_BOUND('',#68,.T.);
#68=EDGE_LOOP('',(#181,#182,#183,#184));
#69=FACE_BOUND('',#70,.T.);
#70=EDGE_LOOP('',(#185));
#71=FACE_BOUND('',#72,.T.);
#72=EDGE_LOOP('',(#186));
#73=PLANE('',#74);
#74=AXIS2_PLACEMENT_3D('',#75,#76,#77);
#75=CARTESIAN_POINT('',(0.,0.,0.));
#76=DIRECTION('',(0.,0.,1.));
#77=DIRECTION('',(-1.,1.22464679914735E-16,0.));
#78=FACE_BOUND('',#79,.T.);
#79=EDGE_LOOP('',(#187,#188,#189,#190));
#80=FACE_BOUND('',#81,.T.);
#81=EDGE_LOOP('',(#191));
#82=FACE_BOUND('',#83,.T.);
#83=EDGE_LOOP('',(#192));
#84=PLANE('',#85);
#85=AXIS2_PLACEMENT_3D('',#86,#87,#88);
#86=CARTESIAN_POINT('',(0.,0.,2.));
#87=DIRECTION('',(0.,0.,1.));
#88=DIRECTION('',(-1.,1.22464679914735E-16,0.));
#89=FACE_OUTER_BOUND('',#90,.T.);
#90=EDGE_LOOP('',(#193));
#91=FACE_OUTER_BOUND('',#92,.T.);
#92=EDGE_LOOP('',(#194));
#93=CYLINDRICAL_SURFACE('',#94,1.75);
#94=AXIS2_PLACEMENT_3D('',#95,#96,#97);
#95=CARTESIAN_POINT('',(-9.99999999999999,-9.99999999999999,0.));
#96=DIRECTION('',(0.,0.,1.));
#97=DIRECTION('',(-1.,1.22464679914735E-16,0.));
#98=FACE_OUTER_BOUND('',#99,.T.);
#99=EDGE_LOOP('',(#195));
#100=FACE_OUTER_BOUND('',#101,.T.);
#101=EDGE_LOOP('',(#196));
#102=CYLINDRICAL_SURFACE('',#103,1.75);
#103=AXIS2_PLACEMENT_3D('',#104,#105,#106);
#104=CARTESIAN_POINT('',(-50.,-9.99999999999999,0.));
#105=DIRECTION('',(0.,0.,1.));
#106=DIRECTION('',(-1.,1.22464679914735E-16,0.));
#107=FACE_BOUND('',#108,.T.);
#108=EDGE_LOOP('',(#197,#198,#199,#200));
#109=PLANE('',#110);
#110=AXIS2_PLACEMENT_3D('',#111,#112,#113);
#111=CARTESIAN_POINT('',(0.,0.,0.));
#112=DIRECTION('',(1.22464679914735E-16,1.,0.));
#113=DIRECTION('',(-1.,1.22464679914735E-16,0.));
#114=FACE_BOUND('',#115,.T.);
#115=EDGE_LOOP('',(#201,#202,#203,#204));
#116=PLANE('',#117);
#117=AXIS2_PLACEMENT_3D('',#118,#119,#120);
#118=CARTESIAN_POINT('',(-2.44929359829471E-15,-20.,0.));
#119=DIRECTION('',(1.,-1.22464679914735E-16,0.));
#120=DIRECTION('',(1.22464679914735E-16,1.,0.));
#121=FACE_BOUND('',#122,.T.);
#122=EDGE_LOOP('',(#205,#206,#207,#208));
#123=PLANE('',#124);
#124=AXIS2_PLACEMENT_3D('',#125,#126,#127);
#125=CARTESIAN_POINT('',(-60.,-20.,0.));
#126=DIRECTION('',(-1.1842378929335E-16,-1.,0.));
#127=DIRECTION('',(1.,-1.1842378929335E-16,0.));
#128=FACE_BOUND('',#129,.T.);
#129=EDGE_LOOP('',(#209,#210,#211,#212));
#130=PLANE('',#131);
#131=AXIS2_PLACEMENT_3D('',#132,#133,#134);
#132=CARTESIAN_POINT('',(-60.,7.34788079488412E-15,0.));
#133=DIRECTION('',(-1.,-3.5527136788005E-16,0.));
#134=DIRECTION('',(3.5527136788005E-16,-1.,0.));
#135=FACE_BOUND('',#136,.T.);
#136=EDGE_LOOP('',(#213,#214,#215,#216));
#137=CYLINDRICAL_SURFACE('',#138,1.);
#138=AXIS2_PLACEMENT_3D('',#139,#140,#141);
#139=CARTESIAN_POINT('',(4.,-1.,1.));
#140=DIRECTION('',(-1.,1.22451068892481E-16,0.));
#141=DIRECTION('',(0.,0.,1.));
#142=FACE_BOUND('',#143,.T.);
#143=EDGE_LOOP('',(#217,#218,#219,#220));
#144=CYLINDRICAL_SURFACE('',#145,1.);
#145=AXIS2_PLACEMENT_3D('',#146,#147,#148);
#146=CARTESIAN_POINT('',(-59.,4.00000000000001,1.));
#147=DIRECTION('',(5.07530525542929E-16,-1.,0.));
#148=DIRECTION('',(0.,0.,1.));
#149=FACE_BOUND('',#150,.T.);
#150=EDGE_LOOP('',(#221,#222,#223,#224));
#151=CYLINDRICAL_SURFACE('',#152,1.);
#152=AXIS2_PLACEMENT_3D('',#153,#154,#155);
#153=CARTESIAN_POINT('',(-64.,-19.,1.));
#154=DIRECTION('',(1.,-1.0449157878825E-16,0.));
#155=DIRECTION('',(0.,0.,1.));
#156=FACE_BOUND('',#157,.T.);
#157=EDGE_LOOP('',(#225,#226,#227,#228));
#158=CYLINDRICAL_SURFACE('',#159,1.);
#159=AXIS2_PLACEMENT_3D('',#160,#161,#162);
#160=CARTESIAN_POINT('',(-1.,-24.,1.));
#161=DIRECTION('',(1.18952466924124E-16,1.,0.));
#162=DIRECTION('',(0.,0.,1.));
#163=FACE_OUTER_BOUND('',#164,.T.);
#164=EDGE_LOOP('',(#229));
#165=FACE_OUTER_BOUND('',#166,.T.);
#166=EDGE_LOOP('',(#230));
#167=TOROIDAL_SURFACE('',#168,2.75,1.);
#168=AXIS2_PLACEMENT_3D('',#169,#170,#171);
#169=CARTESIAN_POINT('',(-50.,-9.99999999999999,1.));
#170=DIRECTION('',(0.,0.,1.));
#171=DIRECTION('',(-1.,1.01506105108586E-15,0.));
#172=FACE_OUTER_BOUND('',#173,.T.);
#173=EDGE_LOOP('',(#231));
#174=FACE_OUTER_BOUND('',#175,.T.);
#175=EDGE_LOOP('',(#232));
#176=TOROIDAL_SURFACE('',#177,2.75,1.);
#177=AXIS2_PLACEMENT_3D('',#178,#179,#180);
#178=CARTESIAN_POINT('',(-9.99999999999999,-9.99999999999999,1.));
#179=DIRECTION('',(0.,0.,1.));
#180=DIRECTION('',(-1.,0.,0.));
#181=ORIENTED_EDGE('',*,*,#233,.F.);
#182=ORIENTED_EDGE('',*,*,#234,.F.);
#183=ORIENTED_EDGE('',*,*,#235,.F.);
#184=ORIENTED_EDGE('',*,*,#236,.F.);
#185=ORIENTED_EDGE('',*,*,#237,.T.);
#186=ORIENTED_EDGE('',*,*,#238,.T.);
#187=ORIENTED_EDGE('',*,*,#239,.T.);
#188=ORIENTED_EDGE('',*,*,#240,.T.);
#189=ORIENTED_EDGE('',*,*,#241,.T.);
#190=ORIENTED_EDGE('',*,*,#242,.T.);
#191=ORIENTED_EDGE('',*,*,#243,.T.);
#192=ORIENTED_EDGE('',*,*,#244,.T.);
#193=ORIENTED_EDGE('',*,*,#245,.F.);
#194=ORIENTED_EDGE('',*,*,#238,.F.);
#195=ORIENTED_EDGE('',*,*,#246,.F.);
#196=ORIENTED_EDGE('',*,*,#237,.F.);
#197=ORIENTED_EDGE('',*,*,#247,.F.);
#198=ORIENTED_EDGE('',*,*,#248,.F.);
#199=ORIENTED_EDGE('',*,*,#233,.T.);
#200=ORIENTED_EDGE('',*,*,#249,.T.);
#201=ORIENTED_EDGE('',*,*,#250,.F.);
#202=ORIENTED_EDGE('',*,*,#251,.F.);
#203=ORIENTED_EDGE('',*,*,#234,.T.);
#204=ORIENTED_EDGE('',*,*,#248,.T.);
#205=ORIENTED_EDGE('',*,*,#252,.F.);
#206=ORIENTED_EDGE('',*,*,#253,.F.);
#207=ORIENTED_EDGE('',*,*,#235,.T.);
#208=ORIENTED_EDGE('',*,*,#251,.T.);
#209=ORIENTED_EDGE('',*,*,#254,.F.);
#210=ORIENTED_EDGE('',*,*,#249,.F.);
#211=ORIENTED_EDGE('',*,*,#236,.T.);
#212=ORIENTED_EDGE('',*,*,#253,.T.);
#213=ORIENTED_EDGE('',*,*,#247,.T.);
#214=ORIENTED_EDGE('',*,*,#255,.T.);
#215=ORIENTED_EDGE('',*,*,#239,.F.);
#216=ORIENTED_EDGE('',*,*,#256,.F.);
#217=ORIENTED_EDGE('',*,*,#254,.T.);
#218=ORIENTED_EDGE('',*,*,#257,.T.);
#219=ORIENTED_EDGE('',*,*,#240,.F.);
#220=ORIENTED_EDGE('',*,*,#255,.F.);
#221=ORIENTED_EDGE('',*,*,#252,.T.);
#222=ORIENTED_EDGE('',*,*,#258,.T.);
#223=ORIENTED_EDGE('',*,*,#241,.F.);
#224=ORIENTED_EDGE('',*,*,#257,.F.);
#225=ORIENTED_EDGE('',*,*,#250,.T.);
#226=ORIENTED_EDGE('',*,*,#256,.T.);
#227=ORIENTED_EDGE('',*,*,#242,.F.);
#228=ORIENTED_EDGE('',*,*,#258,.F.);
#229=ORIENTED_EDGE('',*,*,#246,.T.);
#230=ORIENTED_EDGE('',*,*,#244,.F.);
#231=ORIENTED_EDGE('',*,*,#245,.T.);
#232=ORIENTED_EDGE('',*,*,#243,.F.);
#233=EDGE_CURVE('',#259,#260,#261,.T.);
#234=EDGE_CURVE('',#262,#259,#263,.T.);
#235=EDGE_CURVE('',#264,#262,#265,.T.);
#236=EDGE_CURVE('',#260,#264,#266,.T.);
#237=EDGE_CURVE('',#267,#267,#268,.T.);
#238=EDGE_CURVE('',#269,#269,#270,.T.);
#239=EDGE_CURVE('',#271,#272,#273,.T.);
#240=EDGE_CURVE('',#272,#274,#275,.T.);
#241=EDGE_CURVE('',#274,#276,#277,.T.);
#242=EDGE_CURVE('',#276,#271,#278,.T.);
#243=EDGE_CURVE('',#279,#279,#280,.F.);
#244=EDGE_CURVE('',#281,#281,#282,.F.);
#245=EDGE_CURVE('',#283,#283,#284,.F.);
#246=EDGE_CURVE('',#285,#285,#286,.F.);
#247=EDGE_CURVE('',#287,#288,#289,.T.);
#248=EDGE_CURVE('',#259,#287,#290,.T.);
#249=EDGE_CURVE('',#260,#288,#291,.T.);
#250=EDGE_CURVE('',#292,#287,#293,.T.);
#251=EDGE_CURVE('',#262,#292,#294,.T.);
#252=EDGE_CURVE('',#295,#292,#296,.T.);
#253=EDGE_CURVE('',#264,#295,#297,.T.);
#254=EDGE_CURVE('',#288,#295,#298,.T.);
#255=EDGE_CURVE('',#288,#272,#299,.T.);
#256=EDGE_CURVE('',#287,#271,#300,.T.);
#257=EDGE_CURVE('',#295,#274,#301,.T.);
#258=EDGE_CURVE('',#292,#276,#302,.T.);
#259=VERTEX_POINT('',#303);
#260=VERTEX_POINT('',#304);
#261=LINE('',#305,#306);
#262=VERTEX_POINT('',#308);
#263=LINE('',#309,#310);
#264=VERTEX_POINT('',#312);
#265=LINE('',#313,#314);
#266=LINE('',#316,#317);
#267=VERTEX_POINT('',#319);
#268=CIRCLE('',#320,1.75);
#269=VERTEX_POINT('',#324);
#270=CIRCLE('',#325,1.75);
#271=VERTEX_POINT('',#329);
#272=VERTEX_POINT('',#330);
#273=LINE('',#331,#332);
#274=VERTEX_POINT('',#334);
#275=LINE('',#335,#336);
#276=VERTEX_POINT('',#338);
#277=LINE('',#339,#340);
#278=LINE('',#342,#343);
#279=VERTEX_POINT('',#345);
#280=CIRCLE('',#346,2.75);
#281=VERTEX_POINT('',#350);
#282=CIRCLE('',#351,2.75);
#283=VERTEX_POINT('',#355);
#284=CIRCLE('',#356,1.75);
#285=VERTEX_POINT('',#360);
#286=CIRCLE('',#361,1.75);
#287=VERTEX_POINT('',#365);
#288=VERTEX_POINT('',#366);
#289=LINE('',#367,#368);
#290=LINE('',#370,#371);
#291=LINE('',#373,#374);
#292=VERTEX_POINT('',#376);
#293=LINE('',#377,#378);
#294=LINE('',#380,#381);
#295=VERTEX_POINT('',#383);
#296=LINE('',#384,#385);
#297=LINE('',#387,#388);
#298=LINE('',#390,#391);
#299=(BOUNDED_CURVE()B_SPLINE_CURVE(3,
(#393,#394,#395,#396),
.UNSPECIFIED.,.F.,.F.)B_SPLINE_CURVE_WITH_KNOTS((4,4),
(0.,1.),
.UNSPECIFIED.)CURVE()GEOMETRIC_REPRESENTATION_ITEM()RATIONAL_B_SPLINE_CURVE((1.,
0.804737854124365,0.804737854124365,1.))REPRESENTATION_ITEM(''));
#300=(BOUNDED_CURVE()B_SPLINE_CURVE(3,
(#397,#398,#399,#400),
.UNSPECIFIED.,.F.,.F.)B_SPLINE_CURVE_WITH_KNOTS((4,4),
(0.,1.),
.UNSPECIFIED.)CURVE()GEOMETRIC_REPRESENTATION_ITEM()RATIONAL_B_SPLINE_CURVE((1.,
0.804737854124365,0.804737854124365,1.))REPRESENTATION_ITEM(''));
#301=(BOUNDED_CURVE()B_SPLINE_CURVE(3,
(#401,#402,#403,#404),
.UNSPECIFIED.,.F.,.F.)B_SPLINE_CURVE_WITH_KNOTS((4,4),
(0.,1.),
.UNSPECIFIED.)CURVE()GEOMETRIC_REPRESENTATION_ITEM()RATIONAL_B_SPLINE_CURVE((1.,
0.804737854124365,0.804737854124365,1.))REPRESENTATION_ITEM(''));
#302=(BOUNDED_CURVE()B_SPLINE_CURVE(3,
(#405,#406,#407,#408),
.UNSPECIFIED.,.F.,.F.)B_SPLINE_CURVE_WITH_KNOTS((4,4),
(0.,1.),
.UNSPECIFIED.)CURVE()GEOMETRIC_REPRESENTATION_ITEM()RATIONAL_B_SPLINE_CURVE((1.,
0.804737854124365,0.804737854124365,1.))REPRESENTATION_ITEM(''));
#303=CARTESIAN_POINT('',(0.,0.,0.));
#304=CARTESIAN_POINT('',(-60.,7.34788079488412E-15,0.));
#305=CARTESIAN_POINT('',(0.,0.,0.));
#306=VECTOR('',#307,1.);
#307=DIRECTION('',(-1.,1.22464679914735E-16,0.));
#308=CARTESIAN_POINT('',(-4.22565043769496E-15,-20.,0.));
#309=CARTESIAN_POINT('',(-2.44929359829471E-15,-20.,0.));
#310=VECTOR('',#311,1.);
#311=DIRECTION('',(1.22464679914735E-16,1.,0.));
#312=CARTESIAN_POINT('',(-60.,-20.,0.));
#313=CARTESIAN_POINT('',(-60.,-20.,0.));
#314=VECTOR('',#315,1.);
#315=DIRECTION('',(1.,-1.1842378929335E-16,0.));
#316=CARTESIAN_POINT('',(-60.,7.34788079488412E-15,0.));
#317=VECTOR('',#318,1.);
#318=DIRECTION('',(3.5527136788005E-16,-1.,0.));
#319=CARTESIAN_POINT('',(-51.75,-9.99999999999999,0.));
#320=AXIS2_PLACEMENT_3D('',#321,#322,#323);
#321=CARTESIAN_POINT('',(-50.,-9.99999999999999,0.));
#322=DIRECTION('',(0.,0.,1.));
#323=DIRECTION('',(-1.,1.22464679914735E-16,0.));
#324=CARTESIAN_POINT('',(-11.75,-9.99999999999999,0.));
#325=AXIS2_PLACEMENT_3D('',#326,#327,#328);
#326=CARTESIAN_POINT('',(-9.99999999999999,-9.99999999999999,0.));
#327=DIRECTION('',(0.,0.,1.));
#328=DIRECTION('',(-1.,1.22464679914735E-16,0.));
#329=CARTESIAN_POINT('',(-1.,-1.,2.));
#330=CARTESIAN_POINT('',(-59.,-0.999999999999993,2.));
#331=CARTESIAN_POINT('',(-1.,-1.,2.));
#332=VECTOR('',#333,1.);
#333=DIRECTION('',(-1.,1.20593190605836E-16,0.));
#334=CARTESIAN_POINT('',(-59.,-19.,2.));
#335=CARTESIAN_POINT('',(-59.,-0.999999999999993,2.));
#336=VECTOR('',#337,1.);
#337=DIRECTION('',(7.89491928622334E-16,-1.,0.));
#338=CARTESIAN_POINT('',(-1.,-19.,2.));
#339=CARTESIAN_POINT('',(-59.,-19.,2.));
#340=VECTOR('',#341,1.);
#341=DIRECTION('',(1.,-1.225073682345E-16,0.));
#342=CARTESIAN_POINT('',(-1.,-19.,2.));
#343=VECTOR('',#344,1.);
#344=DIRECTION('',(1.11022302462516E-16,1.,0.));
#345=CARTESIAN_POINT('',(-12.75,-9.99999999999999,2.));
#346=AXIS2_PLACEMENT_3D('',#347,#348,#349);
#347=CARTESIAN_POINT('',(-9.99999999999999,-9.99999999999999,2.));
#348=DIRECTION('',(0.,0.,1.));
#349=DIRECTION('',(-1.,1.22464679914735E-16,0.));
#350=CARTESIAN_POINT('',(-52.75,-9.99999999999999,2.));
#351=AXIS2_PLACEMENT_3D('',#352,#353,#354);
#352=CARTESIAN_POINT('',(-50.,-9.99999999999999,2.));
#353=DIRECTION('',(0.,0.,1.));
#354=DIRECTION('',(-1.,1.22464679914735E-16,0.));
#355=CARTESIAN_POINT('',(-11.75,-9.99999999999999,1.));
#356=AXIS2_PLACEMENT_3D('',#357,#358,#359);
#357=CARTESIAN_POINT('',(-9.99999999999999,-9.99999999999999,1.));
#358=DIRECTION('',(0.,0.,1.));
#359=DIRECTION('',(-1.,0.,0.));
#360=CARTESIAN_POINT('',(-51.75,-9.99999999999999,1.));
#361=AXIS2_PLACEMENT_3D('',#362,#363,#364);
#362=CARTESIAN_POINT('',(-50.,-9.99999999999999,1.));
#363=DIRECTION('',(0.,0.,1.));
#364=DIRECTION('',(-1.,0.,0.));
#365=CARTESIAN_POINT('',(-4.93038065763132E-32,-4.44089209850063E-16,1.));
#366=CARTESIAN_POINT('',(-60.,7.39318752993633E-15,1.));
#367=CARTESIAN_POINT('',(0.,0.,1.));
#368=VECTOR('',#369,1.);
#369=DIRECTION('',(-1.,1.22294606311751E-16,0.));
#370=CARTESIAN_POINT('',(0.,0.,0.));
#371=VECTOR('',#372,1.);
#372=DIRECTION('',(0.,0.,1.));
#373=CARTESIAN_POINT('',(-60.,7.34788079488412E-15,0.));
#374=VECTOR('',#375,1.);
#375=DIRECTION('',(0.,0.,1.));
#376=CARTESIAN_POINT('',(-2.99930290251776E-15,-20.,1.));
#377=CARTESIAN_POINT('',(-2.44589212623503E-15,-20.,1.));
#378=VECTOR('',#379,1.);
#379=DIRECTION('',(1.22294606311751E-16,1.,0.));
#380=CARTESIAN_POINT('',(-4.77736047794785E-15,-20.,0.));
#381=VECTOR('',#382,1.);
#382=DIRECTION('',(0.,0.,1.));
#383=CARTESIAN_POINT('',(-60.,-20.,1.));
#384=CARTESIAN_POINT('',(-60.,-20.,1.));
#385=VECTOR('',#386,1.);
#386=DIRECTION('',(1.,-1.1842378929335E-16,0.));
#387=CARTESIAN_POINT('',(-60.,-20.,0.));
#388=VECTOR('',#389,1.);
#389=DIRECTION('',(0.,0.,1.));
#390=CARTESIAN_POINT('',(-60.,7.00460947131753E-15,1.));
#391=VECTOR('',#392,1.);
#392=DIRECTION('',(7.105427357601E-16,-1.,0.));
#393=CARTESIAN_POINT('',(-60.,7.21644966006352E-15,1.));
#394=CARTESIAN_POINT('',(-60.,7.43849426498855E-15,1.5857864376269));
#395=CARTESIAN_POINT('',(-59.5857864376269,-0.414213562373087,2.));
#396=CARTESIAN_POINT('',(-59.,-0.999999999999993,2.));
#397=CARTESIAN_POINT('',(-4.44089209850063E-16,0.,1.));
#398=CARTESIAN_POINT('',(-2.22044604925031E-16,2.22044604925031E-16,1.5857864376269));
#399=CARTESIAN_POINT('',(-0.414213562373095,-0.414213562373095,2.));
#400=CARTESIAN_POINT('',(-1.,-1.,2.));
#401=CARTESIAN_POINT('',(-60.,-20.,1.));
#402=CARTESIAN_POINT('',(-60.,-20.,1.5857864376269));
#403=CARTESIAN_POINT('',(-59.5857864376269,-19.5857864376269,2.));
#404=CARTESIAN_POINT('',(-59.,-19.,2.));
#405=CARTESIAN_POINT('',(-7.105427357601E-15,-20.,1.));
#406=CARTESIAN_POINT('',(-6.88338275267597E-15,-20.,1.5857864376269));
#407=CARTESIAN_POINT('',(-0.414213562373099,-19.5857864376269,2.));
#408=CARTESIAN_POINT('',(-1.,-19.,2.));
ENDSEC;
END-ISO-10303-21;
