ISO-10303-21;
HEADER;
FILE_DESCRIPTION(('STEP AP242'),
    '1');
FILE_NAME('WireHolder',
    '',
    ('UNSPECIFIED'),
    ('UNSPECIFIED'),
    'C3D Converter',
    'C3D Toolkit',
    '');
FILE_SCHEMA(('AP242_MANAGED_MODEL_BASED_3D_ENGINEERING_MIM_LF { 1 0 10303 442 1 1 4 }'));
ENDSEC;

DATA;
#1=PRODUCT_DEFINITION('','UNSPECIFIED',#28,#31);
#2=SHAPE_DEFINITION_REPRESENTATION(#26,#3);
#3=SHAPE_REPRESENTATION('NONE',(#4),#8);
#4=AXIS2_PLACEMENT_3D('',#5,#6,#7);
#5=CARTESIAN_POINT('',(0.,0.,0.));
#6=DIRECTION('',(0.,0.,1.));
#7=DIRECTION('',(1.,0.,0.));
#8=(GEOMETRIC_REPRESENTATION_CONTEXT(3)GLOBAL_UNCERTAINTY_ASSIGNED_CONTEXT((#10))
GLOBAL_UNIT_ASSIGNED_CONTEXT((#9,#11,#12))REPRESENTATION_CONTEXT('NONE','NONE'));
#9=(LENGTH_UNIT()NAMED_UNIT(*)SI_UNIT(.MILLI.,.METRE.));
#10=UNCERTAINTY_MEASURE_WITH_UNIT(LENGTH_MEASURE(1.E-5),#9,'NONE','NONE');
#11=(NAMED_UNIT(*)PLANE_ANGLE_UNIT()SI_UNIT($,.RADIAN.));
#12=(NAMED_UNIT(*)SI_UNIT($,.STERADIAN.)SOLID_ANGLE_UNIT());
#13=MANIFOLD_SOLID_BREP('',#14);
#14=CLOSED_SHELL('',(#53,#54,#55,#56,#57,#58,#59,#60,#61,#62,#63,#64));
#15=COLOUR_RGB('',0.564705882352941,0.564705882352941,0.564705882352941);
#16=FILL_AREA_STYLE_COLOUR('',#15);
#17=FILL_AREA_STYLE($,(#16));
#18=SURFACE_STYLE_FILL_AREA(#17);
#19=SURFACE_SIDE_STYLE('',(#18));
#20=SURFACE_STYLE_USAGE(.BOTH.,#19);
#21=PRESENTATION_STYLE_ASSIGNMENT((#20));
#22=MECHANICAL_DESIGN_GEOMETRIC_PRESENTATION_REPRESENTATION('NONE',(#23),#8);
#23=STYLED_ITEM('',(#21),#13);
#24=ADVANCED_BREP_SHAPE_REPRESENTATION('NONE',(#13),#8);
#25=SHAPE_REPRESENTATION_RELATIONSHIP('','',#3,#24);
#26=PRODUCT_DEFINITION_SHAPE('NONE','NONE',#1);
#27=MECHANICAL_CONTEXT('NONE',#32,'mechanical');
#28=PRODUCT_DEFINITION_FORMATION_WITH_SPECIFIED_SOURCE('ANY','UNSPECIFIED',#29,.NOT_KNOWN.);
#29=PRODUCT('','\X2\0414043504420430043B044C\X0\','NONE',(#27));
#30=PRODUCT_RELATED_PRODUCT_CATEGORY('detail','',(#29));
#31=DESIGN_CONTEXT('detailed design',#32,'design');
#32=APPLICATION_CONTEXT('configuration controlled 3d designs of mechanical parts and assemblies');
#33=APPLICATION_PROTOCOL_DEFINITION('international standard','config_control_design',
1994,#32);
#34=CC_DESIGN_DATE_AND_TIME_ASSIGNMENT(#35,#39,(#1));
#35=DATE_AND_TIME(#36,#37);
#36=CALENDAR_DATE(0,1,1);
#37=LOCAL_TIME(0,0,0.,#38);
#38=COORDINATED_UNIVERSAL_TIME_OFFSET(0,0,.AHEAD.);
#39=DATE_TIME_ROLE('creation_date');
#40=CC_DESIGN_APPROVAL(#41,(#1));
#41=APPROVAL(#42,'UNSPECIFIED');
#42=APPROVAL_STATUS('not_yet_approved');
#43=APPROVAL_DATE_TIME(#44,#41);
#44=DATE_AND_TIME(#45,#46);
#45=CALENDAR_DATE(0,1,1);
#46=LOCAL_TIME(0,0,0.,#47);
#47=COORDINATED_UNIVERSAL_TIME_OFFSET(0,0,.AHEAD.);
#48=PERSON('UNSPECIFIED','Cybermeatball','UNSPECIFIED',('UNSPECIFIED'),('UNSPECIFIED'),
('UNSPECIFIED'));
#49=ORGANIZATION('UNSPECIFIED','UNSPECIFIED','UNSPECIFIED');
#50=PERSON_AND_ORGANIZATION(#48,#49);
#51=PERSON_AND_ORGANIZATION_ROLE('creator');
#52=CC_DESIGN_PERSON_AND_ORGANIZATION_ASSIGNMENT(#50,#51,(#28,#1));
#53=ADVANCED_FACE('',(#65),#67,.T.);
#54=ADVANCED_FACE('',(#72),#74,.T.);
#55=ADVANCED_FACE('',(#79,#81),#83,.F.);
#56=ADVANCED_FACE('',(#88,#90),#92,.F.);
#57=ADVANCED_FACE('',(#97),#99,.F.);
#58=ADVANCED_FACE('',(#104),#106,.F.);
#59=ADVANCED_FACE('',(#111),#113,.F.);
#60=ADVANCED_FACE('',(#118),#120,.T.);
#61=ADVANCED_FACE('',(#125,#127,#129),#131,.T.);
#62=ADVANCED_FACE('',(#136),#138,.T.);
#63=ADVANCED_FACE('',(#143,#145),#147,.F.);
#64=ADVANCED_FACE('',(#152,#154),#156,.F.);
#65=FACE_BOUND('',#66,.T.);
#66=EDGE_LOOP('',(#161,#162,#163,#164,#165,#166,#167,#168));
#67=PLANE('',#68);
#68=AXIS2_PLACEMENT_3D('',#69,#70,#71);
#69=CARTESIAN_POINT('',(10.,3.4,0.));
#70=DIRECTION('',(0.,1.,0.));
#71=DIRECTION('',(-1.,0.,0.));
#72=FACE_BOUND('',#73,.T.);
#73=EDGE_LOOP('',(#169,#170,#171,#172,#173,#174,#175,#176));
#74=PLANE('',#75);
#75=AXIS2_PLACEMENT_3D('',#76,#77,#78);
#76=CARTESIAN_POINT('',(0.,0.,0.));
#77=DIRECTION('',(0.,-1.,0.));
#78=DIRECTION('',(1.,0.,0.));
#79=FACE_BOUND('',#80,.T.);
#80=EDGE_LOOP('',(#177,#178,#179,#180));
#81=FACE_BOUND('',#82,.T.);
#82=EDGE_LOOP('',(#181));
#83=PLANE('',#84);
#84=AXIS2_PLACEMENT_3D('',#85,#86,#87);
#85=CARTESIAN_POINT('',(0.,0.,0.));
#86=DIRECTION('',(0.,0.,1.));
#87=DIRECTION('',(1.,0.,0.));
#88=FACE_BOUND('',#89,.T.);
#89=EDGE_LOOP('',(#182,#183,#184,#185));
#90=FACE_BOUND('',#91,.T.);
#91=EDGE_LOOP('',(#186));
#92=PLANE('',#93);
#93=AXIS2_PLACEMENT_3D('',#94,#95,#96);
#94=CARTESIAN_POINT('',(0.,0.,0.));
#95=DIRECTION('',(0.,0.,1.));
#96=DIRECTION('',(1.,0.,0.));
#97=FACE_BOUND('',#98,.T.);
#98=EDGE_LOOP('',(#187,#188,#189,#190));
#99=PLANE('',#100);
#100=AXIS2_PLACEMENT_3D('',#101,#102,#103);
#101=CARTESIAN_POINT('',(8.,0.,0.900000000000001));
#102=DIRECTION('',(1.,0.,0.));
#103=DIRECTION('',(0.,0.,-1.));
#104=FACE_BOUND('',#105,.T.);
#105=EDGE_LOOP('',(#191,#192,#193,#194));
#106=PLANE('',#107);
#107=AXIS2_PLACEMENT_3D('',#108,#109,#110);
#108=CARTESIAN_POINT('',(2.,0.,0.900000000000001));
#109=DIRECTION('',(0.,0.,1.));
#110=DIRECTION('',(1.,0.,0.));
#111=FACE_BOUND('',#112,.T.);
#112=EDGE_LOOP('',(#195,#196,#197,#198));
#113=PLANE('',#114);
#114=AXIS2_PLACEMENT_3D('',#115,#116,#117);
#115=CARTESIAN_POINT('',(2.,0.,4.21174074132887E-16));
#116=DIRECTION('',(-1.,0.,0.));
#117=DIRECTION('',(0.,0.,1.));
#118=FACE_BOUND('',#119,.T.);
#119=EDGE_LOOP('',(#199,#200,#201,#202));
#120=CYLINDRICAL_SURFACE('',#121,1.7);
#121=AXIS2_PLACEMENT_3D('',#122,#123,#124);
#122=CARTESIAN_POINT('',(6.35108412283169E-32,1.7,0.));
#123=DIRECTION('',(0.,0.,1.));
#124=DIRECTION('',(6.12323399573677E-17,1.,0.));
#125=FACE_BOUND('',#126,.T.);
#126=EDGE_LOOP('',(#203,#204,#205,#206));
#127=FACE_BOUND('',#128,.T.);
#128=EDGE_LOOP('',(#207));
#129=FACE_BOUND('',#130,.T.);
#130=EDGE_LOOP('',(#208));
#131=PLANE('',#132);
#132=AXIS2_PLACEMENT_3D('',#133,#134,#135);
#133=CARTESIAN_POINT('',(0.,0.,2.));
#134=DIRECTION('',(0.,0.,1.));
#135=DIRECTION('',(1.,0.,0.));
#136=FACE_BOUND('',#137,.T.);
#137=EDGE_LOOP('',(#209,#210,#211,#212));
#138=CYLINDRICAL_SURFACE('',#139,1.7);
#139=AXIS2_PLACEMENT_3D('',#140,#141,#142);
#140=CARTESIAN_POINT('',(10.,1.7,0.));
#141=DIRECTION('',(0.,0.,1.));
#142=DIRECTION('',(0.,-1.,0.));
#143=FACE_OUTER_BOUND('',#144,.T.);
#144=EDGE_LOOP('',(#213));
#145=FACE_OUTER_BOUND('',#146,.T.);
#146=EDGE_LOOP('',(#214));
#147=CYLINDRICAL_SURFACE('',#148,1.1);
#148=AXIS2_PLACEMENT_3D('',#149,#150,#151);
#149=CARTESIAN_POINT('',(6.35108412283169E-32,1.7,0.));
#150=DIRECTION('',(0.,0.,1.));
#151=DIRECTION('',(1.,0.,0.));
#152=FACE_OUTER_BOUND('',#153,.T.);
#153=EDGE_LOOP('',(#215));
#154=FACE_OUTER_BOUND('',#155,.T.);
#155=EDGE_LOOP('',(#216));
#156=CYLINDRICAL_SURFACE('',#157,1.1);
#157=AXIS2_PLACEMENT_3D('',#158,#159,#160);
#158=CARTESIAN_POINT('',(10.,1.7,0.));
#159=DIRECTION('',(0.,0.,1.));
#160=DIRECTION('',(1.,0.,0.));
#161=ORIENTED_EDGE('',*,*,#217,.T.);
#162=ORIENTED_EDGE('',*,*,#218,.T.);
#163=ORIENTED_EDGE('',*,*,#219,.T.);
#164=ORIENTED_EDGE('',*,*,#220,.F.);
#165=ORIENTED_EDGE('',*,*,#221,.F.);
#166=ORIENTED_EDGE('',*,*,#222,.T.);
#167=ORIENTED_EDGE('',*,*,#223,.T.);
#168=ORIENTED_EDGE('',*,*,#224,.T.);
#169=ORIENTED_EDGE('',*,*,#225,.T.);
#170=ORIENTED_EDGE('',*,*,#226,.T.);
#171=ORIENTED_EDGE('',*,*,#227,.T.);
#172=ORIENTED_EDGE('',*,*,#228,.T.);
#173=ORIENTED_EDGE('',*,*,#229,.T.);
#174=ORIENTED_EDGE('',*,*,#230,.F.);
#175=ORIENTED_EDGE('',*,*,#231,.F.);
#176=ORIENTED_EDGE('',*,*,#232,.T.);
#177=ORIENTED_EDGE('',*,*,#233,.T.);
#178=ORIENTED_EDGE('',*,*,#232,.F.);
#179=ORIENTED_EDGE('',*,*,#234,.F.);
#180=ORIENTED_EDGE('',*,*,#218,.F.);
#181=ORIENTED_EDGE('',*,*,#235,.T.);
#182=ORIENTED_EDGE('',*,*,#236,.T.);
#183=ORIENTED_EDGE('',*,*,#222,.F.);
#184=ORIENTED_EDGE('',*,*,#237,.F.);
#185=ORIENTED_EDGE('',*,*,#228,.F.);
#186=ORIENTED_EDGE('',*,*,#238,.T.);
#187=ORIENTED_EDGE('',*,*,#236,.F.);
#188=ORIENTED_EDGE('',*,*,#227,.F.);
#189=ORIENTED_EDGE('',*,*,#239,.T.);
#190=ORIENTED_EDGE('',*,*,#223,.F.);
#191=ORIENTED_EDGE('',*,*,#226,.F.);
#192=ORIENTED_EDGE('',*,*,#240,.T.);
#193=ORIENTED_EDGE('',*,*,#224,.F.);
#194=ORIENTED_EDGE('',*,*,#239,.F.);
#195=ORIENTED_EDGE('',*,*,#233,.F.);
#196=ORIENTED_EDGE('',*,*,#217,.F.);
#197=ORIENTED_EDGE('',*,*,#240,.F.);
#198=ORIENTED_EDGE('',*,*,#225,.F.);
#199=ORIENTED_EDGE('',*,*,#234,.T.);
#200=ORIENTED_EDGE('',*,*,#231,.T.);
#201=ORIENTED_EDGE('',*,*,#241,.F.);
#202=ORIENTED_EDGE('',*,*,#219,.F.);
#203=ORIENTED_EDGE('',*,*,#220,.T.);
#204=ORIENTED_EDGE('',*,*,#241,.T.);
#205=ORIENTED_EDGE('',*,*,#230,.T.);
#206=ORIENTED_EDGE('',*,*,#242,.T.);
#207=ORIENTED_EDGE('',*,*,#243,.T.);
#208=ORIENTED_EDGE('',*,*,#244,.T.);
#209=ORIENTED_EDGE('',*,*,#237,.T.);
#210=ORIENTED_EDGE('',*,*,#221,.T.);
#211=ORIENTED_EDGE('',*,*,#242,.F.);
#212=ORIENTED_EDGE('',*,*,#229,.F.);
#213=ORIENTED_EDGE('',*,*,#243,.F.);
#214=ORIENTED_EDGE('',*,*,#235,.F.);
#215=ORIENTED_EDGE('',*,*,#244,.F.);
#216=ORIENTED_EDGE('',*,*,#238,.F.);
#217=EDGE_CURVE('',#245,#246,#247,.F.);
#218=EDGE_CURVE('',#246,#248,#249,.T.);
#219=EDGE_CURVE('',#248,#250,#251,.T.);
#220=EDGE_CURVE('',#252,#250,#253,.T.);
#221=EDGE_CURVE('',#254,#252,#255,.T.);
#222=EDGE_CURVE('',#254,#256,#257,.T.);
#223=EDGE_CURVE('',#256,#258,#259,.F.);
#224=EDGE_CURVE('',#258,#245,#260,.F.);
#225=EDGE_CURVE('',#261,#262,#263,.F.);
#226=EDGE_CURVE('',#262,#264,#265,.F.);
#227=EDGE_CURVE('',#264,#266,#267,.F.);
#228=EDGE_CURVE('',#266,#268,#269,.T.);
#229=EDGE_CURVE('',#268,#270,#271,.T.);
#230=EDGE_CURVE('',#272,#270,#273,.T.);
#231=EDGE_CURVE('',#274,#272,#275,.T.);
#232=EDGE_CURVE('',#274,#261,#276,.T.);
#233=EDGE_CURVE('',#246,#261,#277,.T.);
#234=EDGE_CURVE('',#248,#274,#278,.T.);
#235=EDGE_CURVE('',#279,#279,#280,.T.);
#236=EDGE_CURVE('',#266,#256,#281,.T.);
#237=EDGE_CURVE('',#268,#254,#282,.T.);
#238=EDGE_CURVE('',#283,#283,#284,.T.);
#239=EDGE_CURVE('',#264,#258,#285,.T.);
#240=EDGE_CURVE('',#262,#245,#286,.T.);
#241=EDGE_CURVE('',#250,#272,#287,.T.);
#242=EDGE_CURVE('',#270,#252,#288,.T.);
#243=EDGE_CURVE('',#289,#289,#290,.F.);
#244=EDGE_CURVE('',#291,#291,#292,.F.);
#245=VERTEX_POINT('',#293);
#246=VERTEX_POINT('',#294);
#247=LINE('',#295,#296);
#248=VERTEX_POINT('',#298);
#249=LINE('',#299,#300);
#250=VERTEX_POINT('',#302);
#251=LINE('',#303,#304);
#252=VERTEX_POINT('',#306);
#253=LINE('',#307,#308);
#254=VERTEX_POINT('',#310);
#255=LINE('',#311,#312);
#256=VERTEX_POINT('',#314);
#257=LINE('',#315,#316);
#258=VERTEX_POINT('',#318);
#259=LINE('',#319,#320);
#260=LINE('',#322,#323);
#261=VERTEX_POINT('',#325);
#262=VERTEX_POINT('',#326);
#263=LINE('',#327,#328);
#264=VERTEX_POINT('',#330);
#265=LINE('',#331,#332);
#266=VERTEX_POINT('',#334);
#267=LINE('',#335,#336);
#268=VERTEX_POINT('',#338);
#269=LINE('',#339,#340);
#270=VERTEX_POINT('',#342);
#271=LINE('',#343,#344);
#272=VERTEX_POINT('',#346);
#273=LINE('',#347,#348);
#274=VERTEX_POINT('',#350);
#275=LINE('',#351,#352);
#276=LINE('',#354,#355);
#277=LINE('',#357,#358);
#278=CIRCLE('',#360,1.7);
#279=VERTEX_POINT('',#364);
#280=CIRCLE('',#365,1.1);
#281=LINE('',#369,#370);
#282=CIRCLE('',#372,1.7);
#283=VERTEX_POINT('',#376);
#284=CIRCLE('',#377,1.1);
#285=LINE('',#381,#382);
#286=LINE('',#384,#385);
#287=CIRCLE('',#387,1.7);
#288=CIRCLE('',#391,1.7);
#289=VERTEX_POINT('',#395);
#290=CIRCLE('',#396,1.1);
#291=VERTEX_POINT('',#400);
#292=CIRCLE('',#401,1.1);
#293=CARTESIAN_POINT('',(2.,3.4,0.900000000000001));
#294=CARTESIAN_POINT('',(2.,3.4,0.));
#295=CARTESIAN_POINT('',(2.,3.4,4.21174074132887E-16));
#296=VECTOR('',#297,1.);
#297=DIRECTION('',(0.,0.,1.));
#298=CARTESIAN_POINT('',(1.86758636869971E-16,3.4,0.));
#299=CARTESIAN_POINT('',(2.,3.4,0.));
#300=VECTOR('',#301,1.);
#301=DIRECTION('',(-1.,0.,0.));
#302=CARTESIAN_POINT('',(1.86758636869971E-16,3.4,2.));
#303=CARTESIAN_POINT('',(5.20474889637625E-17,3.4,0.));
#304=VECTOR('',#305,1.);
#305=DIRECTION('',(0.,0.,1.));
#306=CARTESIAN_POINT('',(10.,3.4,2.));
#307=CARTESIAN_POINT('',(10.,3.4,2.));
#308=VECTOR('',#309,1.);
#309=DIRECTION('',(-1.,0.,0.));
#310=CARTESIAN_POINT('',(10.,3.4,0.));
#311=CARTESIAN_POINT('',(10.,3.4,0.));
#312=VECTOR('',#313,1.);
#313=DIRECTION('',(0.,0.,1.));
#314=CARTESIAN_POINT('',(8.,3.4,0.));
#315=CARTESIAN_POINT('',(10.,3.4,0.));
#316=VECTOR('',#317,1.);
#317=DIRECTION('',(-1.,0.,0.));
#318=CARTESIAN_POINT('',(8.,3.4,0.900000000000001));
#319=CARTESIAN_POINT('',(8.,3.4,0.900000000000001));
#320=VECTOR('',#321,1.);
#321=DIRECTION('',(0.,0.,-1.));
#322=CARTESIAN_POINT('',(2.,3.4,0.900000000000001));
#323=VECTOR('',#324,1.);
#324=DIRECTION('',(1.,0.,0.));
#325=CARTESIAN_POINT('',(2.,0.,0.));
#326=CARTESIAN_POINT('',(2.,0.,0.900000000000001));
#327=CARTESIAN_POINT('',(2.,0.,0.900000000000001));
#328=VECTOR('',#329,1.);
#329=DIRECTION('',(0.,0.,-1.));
#330=CARTESIAN_POINT('',(8.,0.,0.900000000000001));
#331=CARTESIAN_POINT('',(8.,0.,0.900000000000001));
#332=VECTOR('',#333,1.);
#333=DIRECTION('',(-1.,0.,0.));
#334=CARTESIAN_POINT('',(8.,0.,0.));
#335=CARTESIAN_POINT('',(8.,0.,4.44089209850063E-16));
#336=VECTOR('',#337,1.);
#337=DIRECTION('',(0.,0.,1.));
#338=CARTESIAN_POINT('',(10.,0.,0.));
#339=CARTESIAN_POINT('',(8.,0.,0.));
#340=VECTOR('',#341,1.);
#341=DIRECTION('',(1.,0.,0.));
#342=CARTESIAN_POINT('',(10.,0.,2.));
#343=CARTESIAN_POINT('',(10.,0.,0.));
#344=VECTOR('',#345,1.);
#345=DIRECTION('',(0.,0.,1.));
#346=CARTESIAN_POINT('',(-1.56142466891287E-16,0.,2.));
#347=CARTESIAN_POINT('',(0.,0.,2.));
#348=VECTOR('',#349,1.);
#349=DIRECTION('',(1.,0.,0.));
#350=CARTESIAN_POINT('',(-1.56142466891287E-16,0.,0.));
#351=CARTESIAN_POINT('',(-1.56142466891287E-16,0.,0.));
#352=VECTOR('',#353,1.);
#353=DIRECTION('',(0.,0.,1.));
#354=CARTESIAN_POINT('',(0.,0.,0.));
#355=VECTOR('',#356,1.);
#356=DIRECTION('',(1.,0.,0.));
#357=CARTESIAN_POINT('',(2.,3.4,0.));
#358=VECTOR('',#359,1.);
#359=DIRECTION('',(0.,-1.,0.));
#360=AXIS2_PLACEMENT_3D('',#361,#362,#363);
#361=CARTESIAN_POINT('',(6.35108412283169E-32,1.7,0.));
#362=DIRECTION('',(0.,0.,1.));
#363=DIRECTION('',(6.12323399573677E-17,1.,0.));
#364=CARTESIAN_POINT('',(1.1,1.7,0.));
#365=AXIS2_PLACEMENT_3D('',#366,#367,#368);
#366=CARTESIAN_POINT('',(6.35108412283169E-32,1.7,0.));
#367=DIRECTION('',(0.,0.,1.));
#368=DIRECTION('',(1.,0.,0.));
#369=CARTESIAN_POINT('',(8.,0.,0.));
#370=VECTOR('',#371,1.);
#371=DIRECTION('',(0.,1.,0.));
#372=AXIS2_PLACEMENT_3D('',#373,#374,#375);
#373=CARTESIAN_POINT('',(10.,1.7,0.));
#374=DIRECTION('',(0.,0.,1.));
#375=DIRECTION('',(0.,-1.,0.));
#376=CARTESIAN_POINT('',(11.1,1.7,0.));
#377=AXIS2_PLACEMENT_3D('',#378,#379,#380);
#378=CARTESIAN_POINT('',(10.,1.7,0.));
#379=DIRECTION('',(0.,0.,1.));
#380=DIRECTION('',(1.,0.,0.));
#381=CARTESIAN_POINT('',(8.,0.,0.900000000000001));
#382=VECTOR('',#383,1.);
#383=DIRECTION('',(0.,1.,0.));
#384=CARTESIAN_POINT('',(2.,0.,0.900000000000001));
#385=VECTOR('',#386,1.);
#386=DIRECTION('',(0.,1.,0.));
#387=AXIS2_PLACEMENT_3D('',#388,#389,#390);
#388=CARTESIAN_POINT('',(6.35108412283169E-32,1.7,2.));
#389=DIRECTION('',(0.,0.,1.));
#390=DIRECTION('',(6.12323399573677E-17,1.,0.));
#391=AXIS2_PLACEMENT_3D('',#392,#393,#394);
#392=CARTESIAN_POINT('',(10.,1.7,2.));
#393=DIRECTION('',(0.,0.,1.));
#394=DIRECTION('',(0.,-1.,0.));
#395=CARTESIAN_POINT('',(1.1,1.7,2.));
#396=AXIS2_PLACEMENT_3D('',#397,#398,#399);
#397=CARTESIAN_POINT('',(6.35108412283169E-32,1.7,2.));
#398=DIRECTION('',(0.,0.,1.));
#399=DIRECTION('',(1.,0.,0.));
#400=CARTESIAN_POINT('',(11.1,1.7,2.));
#401=AXIS2_PLACEMENT_3D('',#402,#403,#404);
#402=CARTESIAN_POINT('',(10.,1.7,2.));
#403=DIRECTION('',(0.,0.,1.));
#404=DIRECTION('',(1.,0.,0.));
ENDSEC;
END-ISO-10303-21;
