ISO-10303-21;
HEADER;
FILE_DESCRIPTION(('STEP AP242'),
    '1');
FILE_NAME('Корпус для электроники',
    '',
    ('UNSPECIFIED'),
    ('UNSPECIFIED'),
    'C3D Converter',
    'C3D Toolkit',
    '');
FILE_SCHEMA(('AP242_MANAGED_MODEL_BASED_3D_ENGINEERING_MIM_LF { 1 0 10303 442 1 1 4 }'));
ENDSEC;

DATA;
#1=PRODUCT_DEFINITION('','UNSPECIFIED',#28,#31);
#2=SHAPE_DEFINITION_REPRESENTATION(#26,#3);
#3=SHAPE_REPRESENTATION('NONE',(#4),#8);
#4=AXIS2_PLACEMENT_3D('',#5,#6,#7);
#5=CARTESIAN_POINT('',(0.,0.,0.));
#6=DIRECTION('',(0.,0.,1.));
#7=DIRECTION('',(1.,0.,0.));
#8=(GEOMETRIC_REPRESENTATION_CONTEXT(3)GLOBAL_UNCERTAINTY_ASSIGNED_CONTEXT((#10))
GLOBAL_UNIT_ASSIGNED_CONTEXT((#9,#11,#12))REPRESENTATION_CONTEXT('NONE','NONE'));
#9=(LENGTH_UNIT()NAMED_UNIT(*)SI_UNIT(.MILLI.,.METRE.));
#10=UNCERTAINTY_MEASURE_WITH_UNIT(LENGTH_MEASURE(1.E-5),#9,'NONE','NONE');
#11=(NAMED_UNIT(*)PLANE_ANGLE_UNIT()SI_UNIT($,.RADIAN.));
#12=(NAMED_UNIT(*)SI_UNIT($,.STERADIAN.)SOLID_ANGLE_UNIT());
#13=MANIFOLD_SOLID_BREP('',#14);
#14=CLOSED_SHELL('',(#53,#54,#55,#56,#57,#58,#59,#60,#61,#62,#63,#64,#65,#66,#67,
#68,#69,#70,#71,#72,#73,#74,#75,#76,#77,#78,#79,#80,#81,#82,#83,#84,#85,#86,#87,
#88,#89,#90,#91,#92,#93,#94,#95,#96,#97,#98,#99,#100,#101,#102,#103,#104,#105,#106,
#107,#108,#109,#110,#111,#112,#113,#114));
#15=COLOUR_RGB('',0.564705882352941,0.564705882352941,0.564705882352941);
#16=FILL_AREA_STYLE_COLOUR('',#15);
#17=FILL_AREA_STYLE($,(#16));
#18=SURFACE_STYLE_FILL_AREA(#17);
#19=SURFACE_SIDE_STYLE('',(#18));
#20=SURFACE_STYLE_USAGE(.BOTH.,#19);
#21=PRESENTATION_STYLE_ASSIGNMENT((#20));
#22=MECHANICAL_DESIGN_GEOMETRIC_PRESENTATION_REPRESENTATION('NONE',(#23),#8);
#23=STYLED_ITEM('',(#21),#13);
#24=ADVANCED_BREP_SHAPE_REPRESENTATION('NONE',(#13),#8);
#25=SHAPE_REPRESENTATION_RELATIONSHIP('','',#3,#24);
#26=PRODUCT_DEFINITION_SHAPE('NONE','NONE',#1);
#27=MECHANICAL_CONTEXT('NONE',#32,'mechanical');
#28=PRODUCT_DEFINITION_FORMATION_WITH_SPECIFIED_SOURCE('ANY','UNSPECIFIED',#29,.NOT_KNOWN.);
#29=PRODUCT('','\X2\0414043504420430043B044C\X0\','NONE',(#27));
#30=PRODUCT_RELATED_PRODUCT_CATEGORY('detail','',(#29));
#31=DESIGN_CONTEXT('detailed design',#32,'design');
#32=APPLICATION_CONTEXT('configuration controlled 3d designs of mechanical parts and assemblies');
#33=APPLICATION_PROTOCOL_DEFINITION('international standard','config_control_design',
1994,#32);
#34=CC_DESIGN_DATE_AND_TIME_ASSIGNMENT(#35,#39,(#1));
#35=DATE_AND_TIME(#36,#37);
#36=CALENDAR_DATE(0,1,1);
#37=LOCAL_TIME(0,0,0.,#38);
#38=COORDINATED_UNIVERSAL_TIME_OFFSET(0,0,.AHEAD.);
#39=DATE_TIME_ROLE('creation_date');
#40=CC_DESIGN_APPROVAL(#41,(#1));
#41=APPROVAL(#42,'UNSPECIFIED');
#42=APPROVAL_STATUS('not_yet_approved');
#43=APPROVAL_DATE_TIME(#44,#41);
#44=DATE_AND_TIME(#45,#46);
#45=CALENDAR_DATE(0,1,1);
#46=LOCAL_TIME(0,0,0.,#47);
#47=COORDINATED_UNIVERSAL_TIME_OFFSET(0,0,.AHEAD.);
#48=PERSON('UNSPECIFIED','Cybermeatball','UNSPECIFIED',('UNSPECIFIED'),('UNSPECIFIED'),
('UNSPECIFIED'));
#49=ORGANIZATION('UNSPECIFIED','UNSPECIFIED','UNSPECIFIED');
#50=PERSON_AND_ORGANIZATION(#48,#49);
#51=PERSON_AND_ORGANIZATION_ROLE('creator');
#52=CC_DESIGN_PERSON_AND_ORGANIZATION_ASSIGNMENT(#50,#51,(#28,#1));
#53=ADVANCED_FACE('',(#115,#117),#119,.T.);
#54=ADVANCED_FACE('',(#124,#126),#128,.F.);
#55=ADVANCED_FACE('',(#133,#135,#137,#139,#141,#143),#145,.T.);
#56=ADVANCED_FACE('',(#150),#152,.T.);
#57=ADVANCED_FACE('',(#157),#159,.T.);
#58=ADVANCED_FACE('',(#164),#166,.T.);
#59=ADVANCED_FACE('',(#171),#173,.T.);
#60=ADVANCED_FACE('',(#178),#180,.F.);
#61=ADVANCED_FACE('',(#185,#187,#189,#191,#193),#195,.F.);
#62=ADVANCED_FACE('',(#200),#202,.T.);
#63=ADVANCED_FACE('',(#207),#209,.T.);
#64=ADVANCED_FACE('',(#214),#216,.T.);
#65=ADVANCED_FACE('',(#221),#223,.F.);
#66=ADVANCED_FACE('',(#228),#230,.T.);
#67=ADVANCED_FACE('',(#235),#237,.F.);
#68=ADVANCED_FACE('',(#242),#244,.F.);
#69=ADVANCED_FACE('',(#249),#251,.F.);
#70=ADVANCED_FACE('',(#256,#258),#260,.T.);
#71=ADVANCED_FACE('',(#265,#267),#269,.T.);
#72=ADVANCED_FACE('',(#274,#276),#278,.T.);
#73=ADVANCED_FACE('',(#283,#285),#287,.T.);
#74=ADVANCED_FACE('',(#292,#294),#296,.T.);
#75=ADVANCED_FACE('',(#301),#303,.T.);
#76=ADVANCED_FACE('',(#308),#310,.T.);
#77=ADVANCED_FACE('',(#315,#317),#319,.T.);
#78=ADVANCED_FACE('',(#324),#326,.F.);
#79=ADVANCED_FACE('',(#331),#333,.T.);
#80=ADVANCED_FACE('',(#338,#340),#342,.T.);
#81=ADVANCED_FACE('',(#347),#349,.T.);
#82=ADVANCED_FACE('',(#354,#356),#358,.F.);
#83=ADVANCED_FACE('',(#363,#365),#367,.F.);
#84=ADVANCED_FACE('',(#372,#374),#376,.F.);
#85=ADVANCED_FACE('',(#381,#383),#385,.F.);
#86=ADVANCED_FACE('',(#390,#392,#394),#396,.F.);
#87=ADVANCED_FACE('',(#401,#403,#405,#407,#409,#411),#413,.T.);
#88=ADVANCED_FACE('',(#418,#420,#422),#424,.T.);
#89=ADVANCED_FACE('',(#429),#431,.T.);
#90=ADVANCED_FACE('',(#436),#438,.T.);
#91=ADVANCED_FACE('',(#443),#445,.F.);
#92=ADVANCED_FACE('',(#450,#452),#454,.F.);
#93=ADVANCED_FACE('',(#459,#461),#463,.T.);
#94=ADVANCED_FACE('',(#468,#470),#472,.T.);
#95=ADVANCED_FACE('',(#477,#479),#481,.T.);
#96=ADVANCED_FACE('',(#486,#488),#490,.T.);
#97=ADVANCED_FACE('',(#495,#497),#499,.F.);
#98=ADVANCED_FACE('',(#504,#506),#508,.F.);
#99=ADVANCED_FACE('',(#513,#515),#517,.F.);
#100=ADVANCED_FACE('',(#522,#524),#526,.F.);
#101=ADVANCED_FACE('',(#531),#533,.T.);
#102=ADVANCED_FACE('',(#538,#540),#542,.F.);
#103=ADVANCED_FACE('',(#547,#549),#551,.F.);
#104=ADVANCED_FACE('',(#556,#558),#560,.F.);
#105=ADVANCED_FACE('',(#565,#567),#569,.F.);
#106=ADVANCED_FACE('',(#574),#576,.T.);
#107=ADVANCED_FACE('',(#581),#583,.T.);
#108=ADVANCED_FACE('',(#588),#590,.T.);
#109=ADVANCED_FACE('',(#595),#597,.T.);
#110=ADVANCED_FACE('',(#602),#604,.T.);
#111=ADVANCED_FACE('',(#609),#611,.T.);
#112=ADVANCED_FACE('',(#616),#618,.T.);
#113=ADVANCED_FACE('',(#623),#625,.F.);
#114=ADVANCED_FACE('',(#630),#632,.F.);
#115=FACE_BOUND('',#116,.T.);
#116=EDGE_LOOP('',(#637,#638,#639,#640));
#117=FACE_BOUND('',#118,.T.);
#118=EDGE_LOOP('',(#641));
#119=PLANE('',#120);
#120=AXIS2_PLACEMENT_3D('',#121,#122,#123);
#121=CARTESIAN_POINT('',(172.,2.,3.));
#122=DIRECTION('',(-7.40148683083438E-17,-1.,0.));
#123=DIRECTION('',(1.,-7.40148683083438E-17,0.));
#124=FACE_OUTER_BOUND('',#125,.T.);
#125=EDGE_LOOP('',(#642));
#126=FACE_OUTER_BOUND('',#127,.T.);
#127=EDGE_LOOP('',(#643));
#128=CYLINDRICAL_SURFACE('',#129,2.2);
#129=AXIS2_PLACEMENT_3D('',#130,#131,#132);
#130=CARTESIAN_POINT('',(175.,12.,6.));
#131=DIRECTION('',(-7.40148683083438E-17,-1.,0.));
#132=DIRECTION('',(1.,-7.40148683083438E-17,0.));
#133=FACE_BOUND('',#134,.T.);
#134=EDGE_LOOP('',(#644,#645,#646,#647,#648,#649,#650,#651,#652,#653,#654,#655));
#135=FACE_BOUND('',#136,.T.);
#136=EDGE_LOOP('',(#656,#657,#658,#659));
#137=FACE_BOUND('',#138,.T.);
#138=EDGE_LOOP('',(#660));
#139=FACE_BOUND('',#140,.T.);
#140=EDGE_LOOP('',(#661));
#141=FACE_BOUND('',#142,.T.);
#142=EDGE_LOOP('',(#662));
#143=FACE_BOUND('',#144,.T.);
#144=EDGE_LOOP('',(#663));
#145=PLANE('',#146);
#146=AXIS2_PLACEMENT_3D('',#147,#148,#149);
#147=CARTESIAN_POINT('',(0.,0.,3.));
#148=DIRECTION('',(0.,0.,1.));
#149=DIRECTION('',(1.,0.,0.));
#150=FACE_BOUND('',#151,.T.);
#151=EDGE_LOOP('',(#664,#665,#666,#667));
#152=PLANE('',#153);
#153=AXIS2_PLACEMENT_3D('',#154,#155,#156);
#154=CARTESIAN_POINT('',(178.,2.,3.));
#155=DIRECTION('',(1.,0.,0.));
#156=DIRECTION('',(0.,1.,0.));
#157=FACE_BOUND('',#158,.T.);
#158=EDGE_LOOP('',(#668,#669,#670,#671));
#159=PLANE('',#160);
#160=AXIS2_PLACEMENT_3D('',#161,#162,#163);
#161=CARTESIAN_POINT('',(0.,0.,9.));
#162=DIRECTION('',(0.,0.,1.));
#163=DIRECTION('',(6.12323399573677E-17,1.,0.));
#164=FACE_BOUND('',#165,.T.);
#165=EDGE_LOOP('',(#672));
#166=PLANE('',#167);
#167=AXIS2_PLACEMENT_3D('',#168,#169,#170);
#168=CARTESIAN_POINT('',(7.40148683083438E-16,12.,0.));
#169=DIRECTION('',(-7.40148683083438E-17,-1.,0.));
#170=DIRECTION('',(1.,-7.40148683083438E-17,0.));
#171=FACE_BOUND('',#172,.T.);
#172=EDGE_LOOP('',(#673,#674,#675,#676));
#173=PLANE('',#174);
#174=AXIS2_PLACEMENT_3D('',#175,#176,#177);
#175=CARTESIAN_POINT('',(12.,6.5,53.));
#176=DIRECTION('',(0.707106781186548,0.,0.707106781186548));
#177=DIRECTION('',(0.707106781186548,6.2803698347351E-17,-0.707106781186548));
#178=FACE_BOUND('',#179,.T.);
#179=EDGE_LOOP('',(#677,#678,#679,#680,#681,#682,#683));
#180=PLANE('',#181);
#181=AXIS2_PLACEMENT_3D('',#182,#183,#184);
#182=CARTESIAN_POINT('',(0.,6.5,7.2293592301173E-16));
#183=DIRECTION('',(0.,1.,8.26212483441977E-17));
#184=DIRECTION('',(-1.,1.0118184732628E-32,-1.22464679914735E-16));
#185=FACE_BOUND('',#186,.T.);
#186=EDGE_LOOP('',(#684,#685,#686,#687,#688,#689,#690,#691,#692,#693,#694,#695,#696,
#697,#698,#699,#700,#701,#702,#703));
#187=FACE_BOUND('',#188,.T.);
#188=EDGE_LOOP('',(#704));
#189=FACE_BOUND('',#190,.T.);
#190=EDGE_LOOP('',(#705));
#191=FACE_BOUND('',#192,.T.);
#192=EDGE_LOOP('',(#706));
#193=FACE_BOUND('',#194,.T.);
#194=EDGE_LOOP('',(#707));
#195=PLANE('',#196);
#196=AXIS2_PLACEMENT_3D('',#197,#198,#199);
#197=CARTESIAN_POINT('',(15.,0.,0.));
#198=DIRECTION('',(-1.,0.,0.));
#199=DIRECTION('',(0.,-1.,-6.12323399573677E-17));
#200=FACE_BOUND('',#201,.T.);
#201=EDGE_LOOP('',(#708,#709,#710,#711,#712,#713,#714,#715));
#202=PLANE('',#203);
#203=AXIS2_PLACEMENT_3D('',#204,#205,#206);
#204=CARTESIAN_POINT('',(0.,0.,0.));
#205=DIRECTION('',(0.,-1.,0.));
#206=DIRECTION('',(1.,0.,0.));
#207=FACE_BOUND('',#208,.T.);
#208=EDGE_LOOP('',(#716,#717,#718,#719));
#209=PLANE('',#210);
#210=AXIS2_PLACEMENT_3D('',#211,#212,#213);
#211=CARTESIAN_POINT('',(180.,0.,0.));
#212=DIRECTION('',(1.,0.,0.));
#213=DIRECTION('',(0.,1.,0.));
#214=FACE_BOUND('',#215,.T.);
#215=EDGE_LOOP('',(#720,#721,#722,#723,#724,#725,#726,#727));
#216=PLANE('',#217);
#217=AXIS2_PLACEMENT_3D('',#218,#219,#220);
#218=CARTESIAN_POINT('',(180.,60.,0.));
#219=DIRECTION('',(0.,1.,0.));
#220=DIRECTION('',(-1.,0.,0.));
#221=FACE_BOUND('',#222,.T.);
#222=EDGE_LOOP('',(#728,#729,#730,#731,#732,#733,#734));
#223=PLANE('',#224);
#224=AXIS2_PLACEMENT_3D('',#225,#226,#227);
#225=CARTESIAN_POINT('',(0.,53.5,0.));
#226=DIRECTION('',(0.,-1.,0.));
#227=DIRECTION('',(1.,0.,0.));
#228=FACE_BOUND('',#229,.T.);
#229=EDGE_LOOP('',(#735,#736,#737,#738));
#230=PLANE('',#231);
#231=AXIS2_PLACEMENT_3D('',#232,#233,#234);
#232=CARTESIAN_POINT('',(62.,53.5,3.));
#233=DIRECTION('',(0.707106781186548,0.,0.707106781186548));
#234=DIRECTION('',(-0.707106781186548,0.,0.707106781186548));
#235=FACE_BOUND('',#236,.T.);
#236=EDGE_LOOP('',(#739,#740,#741,#742,#743,#744,#745));
#237=PLANE('',#238);
#238=AXIS2_PLACEMENT_3D('',#239,#240,#241);
#239=CARTESIAN_POINT('',(15.,51.5,49.5));
#240=DIRECTION('',(0.,1.,0.));
#241=DIRECTION('',(0.,0.,-1.));
#242=FACE_BOUND('',#243,.T.);
#243=EDGE_LOOP('',(#746,#747,#748,#749));
#244=PLANE('',#245);
#245=AXIS2_PLACEMENT_3D('',#246,#247,#248);
#246=CARTESIAN_POINT('',(15.,0.,0.));
#247=DIRECTION('',(-1.,0.,0.));
#248=DIRECTION('',(0.,-1.,-6.12323399573677E-17));
#249=FACE_BOUND('',#250,.T.);
#250=EDGE_LOOP('',(#750,#751,#752,#753,#754,#755,#756));
#251=PLANE('',#252);
#252=AXIS2_PLACEMENT_3D('',#253,#254,#255);
#253=CARTESIAN_POINT('',(15.,8.5,6.5));
#254=DIRECTION('',(0.,-1.,-8.26212483441977E-17));
#255=DIRECTION('',(0.,-8.26212483441977E-17,1.));
#256=FACE_BOUND('',#257,.T.);
#257=EDGE_LOOP('',(#757,#758,#759,#760));
#258=FACE_BOUND('',#259,.T.);
#259=EDGE_LOOP('',(#761));
#260=PLANE('',#261);
#261=AXIS2_PLACEMENT_3D('',#262,#263,#264);
#262=CARTESIAN_POINT('',(178.,58.,3.));
#263=DIRECTION('',(1.1842378929335E-15,1.,0.));
#264=DIRECTION('',(-1.,1.1842378929335E-15,0.));
#265=FACE_OUTER_BOUND('',#266,.T.);
#266=EDGE_LOOP('',(#762));
#267=FACE_OUTER_BOUND('',#268,.T.);
#268=EDGE_LOOP('',(#763));
#269=CYLINDRICAL_SURFACE('',#270,2.5);
#270=AXIS2_PLACEMENT_3D('',#271,#272,#273);
#271=CARTESIAN_POINT('',(165.5,5.,3.));
#272=DIRECTION('',(0.,0.,1.));
#273=DIRECTION('',(6.12323399573677E-17,1.,0.));
#274=FACE_OUTER_BOUND('',#275,.T.);
#275=EDGE_LOOP('',(#764));
#276=FACE_OUTER_BOUND('',#277,.T.);
#277=EDGE_LOOP('',(#765));
#278=CYLINDRICAL_SURFACE('',#279,2.5);
#279=AXIS2_PLACEMENT_3D('',#280,#281,#282);
#280=CARTESIAN_POINT('',(65.5,5.00000000000001,3.));
#281=DIRECTION('',(0.,0.,1.));
#282=DIRECTION('',(6.12323399573677E-17,1.,0.));
#283=FACE_OUTER_BOUND('',#284,.T.);
#284=EDGE_LOOP('',(#766));
#285=FACE_OUTER_BOUND('',#286,.T.);
#286=EDGE_LOOP('',(#767));
#287=CYLINDRICAL_SURFACE('',#288,2.5);
#288=AXIS2_PLACEMENT_3D('',#289,#290,#291);
#289=CARTESIAN_POINT('',(165.5,55.,3.));
#290=DIRECTION('',(0.,0.,1.));
#291=DIRECTION('',(6.12323399573677E-17,1.,0.));
#292=FACE_OUTER_BOUND('',#293,.T.);
#293=EDGE_LOOP('',(#768));
#294=FACE_OUTER_BOUND('',#295,.T.);
#295=EDGE_LOOP('',(#769));
#296=CYLINDRICAL_SURFACE('',#297,2.5);
#297=AXIS2_PLACEMENT_3D('',#298,#299,#300);
#298=CARTESIAN_POINT('',(65.5,55.,3.));
#299=DIRECTION('',(0.,0.,1.));
#300=DIRECTION('',(6.12323399573677E-17,1.,0.));
#301=FACE_BOUND('',#302,.T.);
#302=EDGE_LOOP('',(#770,#771,#772,#773));
#303=PLANE('',#304);
#304=AXIS2_PLACEMENT_3D('',#305,#306,#307);
#305=CARTESIAN_POINT('',(15.,6.5,38.));
#306=DIRECTION('',(0.,0.,1.));
#307=DIRECTION('',(0.,-1.,0.));
#308=FACE_BOUND('',#309,.T.);
#309=EDGE_LOOP('',(#774,#775,#776,#777));
#310=PLANE('',#311);
#311=AXIS2_PLACEMENT_3D('',#312,#313,#314);
#312=CARTESIAN_POINT('',(25.,0.,0.));
#313=DIRECTION('',(1.,0.,0.));
#314=DIRECTION('',(0.,1.,6.12323399573677E-17));
#315=FACE_BOUND('',#316,.T.);
#316=EDGE_LOOP('',(#778,#779,#780,#781));
#317=FACE_BOUND('',#318,.T.);
#318=EDGE_LOOP('',(#782));
#319=PLANE('',#320);
#320=AXIS2_PLACEMENT_3D('',#321,#322,#323);
#321=CARTESIAN_POINT('',(15.,2.,38.));
#322=DIRECTION('',(0.,-1.,0.));
#323=DIRECTION('',(0.,0.,-1.));
#324=FACE_BOUND('',#325,.T.);
#325=EDGE_LOOP('',(#783,#784,#785,#786));
#326=PLANE('',#327);
#327=AXIS2_PLACEMENT_3D('',#328,#329,#330);
#328=CARTESIAN_POINT('',(15.,8.5,49.5));
#329=DIRECTION('',(0.,1.65242496688395E-16,1.));
#330=DIRECTION('',(0.,1.,-1.65242496688395E-16));
#331=FACE_BOUND('',#332,.T.);
#332=EDGE_LOOP('',(#787,#788,#789,#790));
#333=PLANE('',#334);
#334=AXIS2_PLACEMENT_3D('',#335,#336,#337);
#335=CARTESIAN_POINT('',(15.,58.,38.));
#336=DIRECTION('',(0.,0.,1.));
#337=DIRECTION('',(0.,-1.,0.));
#338=FACE_BOUND('',#339,.T.);
#339=EDGE_LOOP('',(#791,#792,#793,#794));
#340=FACE_BOUND('',#341,.T.);
#341=EDGE_LOOP('',(#795));
#342=PLANE('',#343);
#343=AXIS2_PLACEMENT_3D('',#344,#345,#346);
#344=CARTESIAN_POINT('',(15.,58.,28.));
#345=DIRECTION('',(0.,1.,0.));
#346=DIRECTION('',(0.,0.,1.));
#347=FACE_BOUND('',#348,.T.);
#348=EDGE_LOOP('',(#796,#797,#798,#799));
#349=PLANE('',#350);
#350=AXIS2_PLACEMENT_3D('',#351,#352,#353);
#351=CARTESIAN_POINT('',(15.,-3.24531401774049E-15,53.));
#352=DIRECTION('',(0.,0.,1.));
#353=DIRECTION('',(0.,1.,0.));
#354=FACE_OUTER_BOUND('',#355,.T.);
#355=EDGE_LOOP('',(#800));
#356=FACE_OUTER_BOUND('',#357,.T.);
#357=EDGE_LOOP('',(#801));
#358=CYLINDRICAL_SURFACE('',#359,1.6);
#359=AXIS2_PLACEMENT_3D('',#360,#361,#362);
#360=CARTESIAN_POINT('',(180.,4.,7.));
#361=DIRECTION('',(-1.,0.,0.));
#362=DIRECTION('',(0.,-1.,-6.12323399573677E-17));
#363=FACE_OUTER_BOUND('',#364,.T.);
#364=EDGE_LOOP('',(#802));
#365=FACE_OUTER_BOUND('',#366,.T.);
#366=EDGE_LOOP('',(#803));
#367=CYLINDRICAL_SURFACE('',#368,1.6);
#368=AXIS2_PLACEMENT_3D('',#369,#370,#371);
#369=CARTESIAN_POINT('',(180.,4.,49.));
#370=DIRECTION('',(-1.,0.,0.));
#371=DIRECTION('',(0.,-1.,-6.12323399573677E-17));
#372=FACE_OUTER_BOUND('',#373,.T.);
#373=EDGE_LOOP('',(#804));
#374=FACE_OUTER_BOUND('',#375,.T.);
#375=EDGE_LOOP('',(#805));
#376=CYLINDRICAL_SURFACE('',#377,1.6);
#377=AXIS2_PLACEMENT_3D('',#378,#379,#380);
#378=CARTESIAN_POINT('',(180.,56.,49.));
#379=DIRECTION('',(-1.,0.,0.));
#380=DIRECTION('',(0.,-1.,-6.12323399573677E-17));
#381=FACE_OUTER_BOUND('',#382,.T.);
#382=EDGE_LOOP('',(#806));
#383=FACE_OUTER_BOUND('',#384,.T.);
#384=EDGE_LOOP('',(#807));
#385=CYLINDRICAL_SURFACE('',#386,1.6);
#386=AXIS2_PLACEMENT_3D('',#387,#388,#389);
#387=CARTESIAN_POINT('',(180.,56.,7.));
#388=DIRECTION('',(-1.,0.,0.));
#389=DIRECTION('',(0.,-1.,-6.12323399573677E-17));
#390=FACE_BOUND('',#391,.T.);
#391=EDGE_LOOP('',(#808,#809,#810,#811));
#392=FACE_BOUND('',#393,.T.);
#393=EDGE_LOOP('',(#812));
#394=FACE_BOUND('',#395,.T.);
#395=EDGE_LOOP('',(#813));
#396=PLANE('',#397);
#397=AXIS2_PLACEMENT_3D('',#398,#399,#400);
#398=CARTESIAN_POINT('',(0.,0.,0.));
#399=DIRECTION('',(0.,0.,1.));
#400=DIRECTION('',(1.,0.,0.));
#401=FACE_BOUND('',#402,.T.);
#402=EDGE_LOOP('',(#814,#815,#816,#817));
#403=FACE_BOUND('',#404,.T.);
#404=EDGE_LOOP('',(#818));
#405=FACE_BOUND('',#406,.T.);
#406=EDGE_LOOP('',(#819));
#407=FACE_BOUND('',#408,.T.);
#408=EDGE_LOOP('',(#820));
#409=FACE_BOUND('',#410,.T.);
#410=EDGE_LOOP('',(#821));
#411=FACE_BOUND('',#412,.T.);
#412=EDGE_LOOP('',(#822,#823,#824,#825));
#413=PLANE('',#414);
#414=AXIS2_PLACEMENT_3D('',#415,#416,#417);
#415=CARTESIAN_POINT('',(12.,0.,0.));
#416=DIRECTION('',(-1.,0.,0.));
#417=DIRECTION('',(0.,-1.,-6.12323399573677E-17));
#418=FACE_BOUND('',#419,.T.);
#419=EDGE_LOOP('',(#826,#827,#828,#829));
#420=FACE_BOUND('',#421,.T.);
#421=EDGE_LOOP('',(#830));
#422=FACE_BOUND('',#423,.T.);
#423=EDGE_LOOP('',(#831));
#424=PLANE('',#425);
#425=AXIS2_PLACEMENT_3D('',#426,#427,#428);
#426=CARTESIAN_POINT('',(0.,0.,3.));
#427=DIRECTION('',(0.,0.,1.));
#428=DIRECTION('',(1.,0.,0.));
#429=FACE_BOUND('',#430,.T.);
#430=EDGE_LOOP('',(#832,#833,#834,#835));
#431=PLANE('',#432);
#432=AXIS2_PLACEMENT_3D('',#433,#434,#435);
#433=CARTESIAN_POINT('',(0.,60.,0.));
#434=DIRECTION('',(-1.,0.,0.));
#435=DIRECTION('',(0.,-1.,0.));
#436=FACE_BOUND('',#437,.T.);
#437=EDGE_LOOP('',(#836,#837,#838,#839));
#438=PLANE('',#439);
#439=AXIS2_PLACEMENT_3D('',#440,#441,#442);
#440=CARTESIAN_POINT('',(25.,0.,0.));
#441=DIRECTION('',(1.,0.,0.));
#442=DIRECTION('',(0.,1.,6.12323399573677E-17));
#443=FACE_BOUND('',#444,.T.);
#444=EDGE_LOOP('',(#840,#841,#842,#843));
#445=PLANE('',#446);
#446=AXIS2_PLACEMENT_3D('',#447,#448,#449);
#447=CARTESIAN_POINT('',(15.,51.5,6.5));
#448=DIRECTION('',(0.,6.19659362581483E-17,-1.));
#449=DIRECTION('',(0.,-1.,-6.19659362581483E-17));
#450=FACE_OUTER_BOUND('',#451,.T.);
#451=EDGE_LOOP('',(#844));
#452=FACE_OUTER_BOUND('',#453,.T.);
#453=EDGE_LOOP('',(#845));
#454=CYLINDRICAL_SURFACE('',#455,2.2);
#455=AXIS2_PLACEMENT_3D('',#456,#457,#458);
#456=CARTESIAN_POINT('',(175.,48.,6.));
#457=DIRECTION('',(1.1842378929335E-15,1.,0.));
#458=DIRECTION('',(-1.,1.1842378929335E-15,-1.22464679914735E-16));
#459=FACE_BOUND('',#460,.T.);
#460=EDGE_LOOP('',(#846));
#461=FACE_BOUND('',#462,.T.);
#462=EDGE_LOOP('',(#847));
#463=PLANE('',#464);
#464=AXIS2_PLACEMENT_3D('',#465,#466,#467);
#465=CARTESIAN_POINT('',(0.,0.,6.));
#466=DIRECTION('',(0.,0.,1.));
#467=DIRECTION('',(6.12323399573677E-17,1.,0.));
#468=FACE_BOUND('',#469,.T.);
#469=EDGE_LOOP('',(#848));
#470=FACE_BOUND('',#471,.T.);
#471=EDGE_LOOP('',(#849));
#472=PLANE('',#473);
#473=AXIS2_PLACEMENT_3D('',#474,#475,#476);
#474=CARTESIAN_POINT('',(0.,0.,6.));
#475=DIRECTION('',(0.,0.,1.));
#476=DIRECTION('',(6.12323399573677E-17,1.,0.));
#477=FACE_BOUND('',#478,.T.);
#478=EDGE_LOOP('',(#850));
#479=FACE_BOUND('',#480,.T.);
#480=EDGE_LOOP('',(#851));
#481=PLANE('',#482);
#482=AXIS2_PLACEMENT_3D('',#483,#484,#485);
#483=CARTESIAN_POINT('',(0.,0.,6.));
#484=DIRECTION('',(0.,0.,1.));
#485=DIRECTION('',(6.12323399573677E-17,1.,0.));
#486=FACE_BOUND('',#487,.T.);
#487=EDGE_LOOP('',(#852));
#488=FACE_BOUND('',#489,.T.);
#489=EDGE_LOOP('',(#853));
#490=PLANE('',#491);
#491=AXIS2_PLACEMENT_3D('',#492,#493,#494);
#492=CARTESIAN_POINT('',(0.,0.,6.));
#493=DIRECTION('',(0.,0.,1.));
#494=DIRECTION('',(6.12323399573677E-17,1.,0.));
#495=FACE_OUTER_BOUND('',#496,.T.);
#496=EDGE_LOOP('',(#854));
#497=FACE_OUTER_BOUND('',#498,.T.);
#498=EDGE_LOOP('',(#855));
#499=CYLINDRICAL_SURFACE('',#500,2.2);
#500=AXIS2_PLACEMENT_3D('',#501,#502,#503);
#501=CARTESIAN_POINT('',(20.,7.,33.));
#502=DIRECTION('',(0.,-1.,0.));
#503=DIRECTION('',(1.,0.,0.));
#504=FACE_OUTER_BOUND('',#505,.T.);
#505=EDGE_LOOP('',(#856));
#506=FACE_OUTER_BOUND('',#507,.T.);
#507=EDGE_LOOP('',(#857));
#508=CYLINDRICAL_SURFACE('',#509,2.2);
#509=AXIS2_PLACEMENT_3D('',#510,#511,#512);
#510=CARTESIAN_POINT('',(20.,53.,33.));
#511=DIRECTION('',(0.,1.,0.));
#512=DIRECTION('',(-1.,0.,-1.22464679914735E-16));
#513=FACE_OUTER_BOUND('',#514,.T.);
#514=EDGE_LOOP('',(#858));
#515=FACE_OUTER_BOUND('',#516,.T.);
#516=EDGE_LOOP('',(#859));
#517=CYLINDRICAL_SURFACE('',#518,1.6);
#518=AXIS2_PLACEMENT_3D('',#519,#520,#521);
#519=CARTESIAN_POINT('',(6.,50.,0.));
#520=DIRECTION('',(0.,0.,1.));
#521=DIRECTION('',(6.12323399573677E-17,-1.,0.));
#522=FACE_OUTER_BOUND('',#523,.T.);
#523=EDGE_LOOP('',(#860));
#524=FACE_OUTER_BOUND('',#525,.T.);
#525=EDGE_LOOP('',(#861));
#526=CYLINDRICAL_SURFACE('',#527,1.6);
#527=AXIS2_PLACEMENT_3D('',#528,#529,#530);
#528=CARTESIAN_POINT('',(6.,10.,0.));
#529=DIRECTION('',(0.,0.,1.));
#530=DIRECTION('',(6.12323399573677E-17,-1.,0.));
#531=FACE_BOUND('',#532,.T.);
#532=EDGE_LOOP('',(#862));
#533=PLANE('',#534);
#534=AXIS2_PLACEMENT_3D('',#535,#536,#537);
#535=CARTESIAN_POINT('',(4.5001039931473E-14,48.0000000000002,0.));
#536=DIRECTION('',(1.1842378929335E-15,1.,0.));
#537=DIRECTION('',(-1.,1.1842378929335E-15,-1.22464679914735E-16));
#538=FACE_OUTER_BOUND('',#539,.T.);
#539=EDGE_LOOP('',(#863));
#540=FACE_OUTER_BOUND('',#541,.T.);
#541=EDGE_LOOP('',(#864));
#542=CYLINDRICAL_SURFACE('',#543,1.1);
#543=AXIS2_PLACEMENT_3D('',#544,#545,#546);
#544=CARTESIAN_POINT('',(165.5,5.,1.));
#545=DIRECTION('',(0.,0.,1.));
#546=DIRECTION('',(6.12323399573677E-17,1.,0.));
#547=FACE_OUTER_BOUND('',#548,.T.);
#548=EDGE_LOOP('',(#865));
#549=FACE_OUTER_BOUND('',#550,.T.);
#550=EDGE_LOOP('',(#866));
#551=CYLINDRICAL_SURFACE('',#552,1.1);
#552=AXIS2_PLACEMENT_3D('',#553,#554,#555);
#553=CARTESIAN_POINT('',(65.5,5.00000000000001,1.));
#554=DIRECTION('',(0.,0.,1.));
#555=DIRECTION('',(6.12323399573677E-17,1.,0.));
#556=FACE_OUTER_BOUND('',#557,.T.);
#557=EDGE_LOOP('',(#867));
#558=FACE_OUTER_BOUND('',#559,.T.);
#559=EDGE_LOOP('',(#868));
#560=CYLINDRICAL_SURFACE('',#561,1.1);
#561=AXIS2_PLACEMENT_3D('',#562,#563,#564);
#562=CARTESIAN_POINT('',(165.5,55.,1.));
#563=DIRECTION('',(0.,0.,1.));
#564=DIRECTION('',(6.12323399573677E-17,1.,0.));
#565=FACE_OUTER_BOUND('',#566,.T.);
#566=EDGE_LOOP('',(#869));
#567=FACE_OUTER_BOUND('',#568,.T.);
#568=EDGE_LOOP('',(#870));
#569=CYLINDRICAL_SURFACE('',#570,1.1);
#570=AXIS2_PLACEMENT_3D('',#571,#572,#573);
#571=CARTESIAN_POINT('',(65.5,55.,1.));
#572=DIRECTION('',(0.,0.,1.));
#573=DIRECTION('',(6.12323399573677E-17,1.,0.));
#574=FACE_BOUND('',#575,.T.);
#575=EDGE_LOOP('',(#871));
#576=PLANE('',#577);
#577=AXIS2_PLACEMENT_3D('',#578,#579,#580);
#578=CARTESIAN_POINT('',(0.,7.,0.));
#579=DIRECTION('',(0.,-1.,0.));
#580=DIRECTION('',(1.,0.,0.));
#581=FACE_BOUND('',#582,.T.);
#582=EDGE_LOOP('',(#872));
#583=PLANE('',#584);
#584=AXIS2_PLACEMENT_3D('',#585,#586,#587);
#585=CARTESIAN_POINT('',(0.,53.,0.));
#586=DIRECTION('',(0.,1.,0.));
#587=DIRECTION('',(-1.,0.,-1.22464679914735E-16));
#588=FACE_BOUND('',#589,.T.);
#589=EDGE_LOOP('',(#873));
#590=PLANE('',#591);
#591=AXIS2_PLACEMENT_3D('',#592,#593,#594);
#592=CARTESIAN_POINT('',(0.,0.,1.));
#593=DIRECTION('',(0.,0.,1.));
#594=DIRECTION('',(6.12323399573677E-17,1.,0.));
#595=FACE_BOUND('',#596,.T.);
#596=EDGE_LOOP('',(#874));
#597=PLANE('',#598);
#598=AXIS2_PLACEMENT_3D('',#599,#600,#601);
#599=CARTESIAN_POINT('',(0.,0.,1.));
#600=DIRECTION('',(0.,0.,1.));
#601=DIRECTION('',(6.12323399573677E-17,1.,0.));
#602=FACE_BOUND('',#603,.T.);
#603=EDGE_LOOP('',(#875));
#604=PLANE('',#605);
#605=AXIS2_PLACEMENT_3D('',#606,#607,#608);
#606=CARTESIAN_POINT('',(0.,0.,1.));
#607=DIRECTION('',(0.,0.,1.));
#608=DIRECTION('',(6.12323399573677E-17,1.,0.));
#609=FACE_BOUND('',#610,.T.);
#610=EDGE_LOOP('',(#876));
#611=PLANE('',#612);
#612=AXIS2_PLACEMENT_3D('',#613,#614,#615);
#613=CARTESIAN_POINT('',(0.,0.,1.));
#614=DIRECTION('',(0.,0.,1.));
#615=DIRECTION('',(6.12323399573677E-17,1.,0.));
#616=FACE_BOUND('',#617,.T.);
#617=EDGE_LOOP('',(#877,#878,#879,#880));
#618=PLANE('',#619);
#619=AXIS2_PLACEMENT_3D('',#620,#621,#622);
#620=CARTESIAN_POINT('',(168.535898384862,76.9282032302755,3.));
#621=DIRECTION('',(-0.866025403784436,-2.62250850143672E-16,0.500000000000004));
#622=DIRECTION('',(3.02821197851316E-16,-1.,1.68099533099552E-32));
#623=FACE_BOUND('',#624,.T.);
#624=EDGE_LOOP('',(#881,#882,#883,#884));
#625=PLANE('',#626);
#626=AXIS2_PLACEMENT_3D('',#627,#628,#629);
#627=CARTESIAN_POINT('',(15.,89.5,18.));
#628=DIRECTION('',(-0.707106781186547,-7.44340128561197E-17,0.707106781186548));
#629=DIRECTION('',(8.2638354888109E-33,-1.,-1.05265590482978E-16));
#630=FACE_BOUND('',#631,.T.);
#631=EDGE_LOOP('',(#885,#886,#887,#888));
#632=PLANE('',#633);
#633=AXIS2_PLACEMENT_3D('',#634,#635,#636);
#634=CARTESIAN_POINT('',(15.,38.,18.));
#635=DIRECTION('',(-0.707106781186547,-7.44340128561198E-17,0.707106781186548));
#636=DIRECTION('',(-8.2638354888109E-33,-1.,-1.05265590482978E-16));
#637=ORIENTED_EDGE('',*,*,#889,.F.);
#638=ORIENTED_EDGE('',*,*,#890,.T.);
#639=ORIENTED_EDGE('',*,*,#891,.T.);
#640=ORIENTED_EDGE('',*,*,#892,.F.);
#641=ORIENTED_EDGE('',*,*,#893,.T.);
#642=ORIENTED_EDGE('',*,*,#894,.F.);
#643=ORIENTED_EDGE('',*,*,#893,.F.);
#644=ORIENTED_EDGE('',*,*,#895,.F.);
#645=ORIENTED_EDGE('',*,*,#896,.F.);
#646=ORIENTED_EDGE('',*,*,#897,.F.);
#647=ORIENTED_EDGE('',*,*,#898,.T.);
#648=ORIENTED_EDGE('',*,*,#899,.T.);
#649=ORIENTED_EDGE('',*,*,#900,.T.);
#650=ORIENTED_EDGE('',*,*,#901,.F.);
#651=ORIENTED_EDGE('',*,*,#902,.F.);
#652=ORIENTED_EDGE('',*,*,#903,.F.);
#653=ORIENTED_EDGE('',*,*,#904,.F.);
#654=ORIENTED_EDGE('',*,*,#905,.F.);
#655=ORIENTED_EDGE('',*,*,#906,.F.);
#656=ORIENTED_EDGE('',*,*,#907,.F.);
#657=ORIENTED_EDGE('',*,*,#908,.F.);
#658=ORIENTED_EDGE('',*,*,#909,.F.);
#659=ORIENTED_EDGE('',*,*,#890,.F.);
#660=ORIENTED_EDGE('',*,*,#910,.F.);
#661=ORIENTED_EDGE('',*,*,#911,.F.);
#662=ORIENTED_EDGE('',*,*,#912,.F.);
#663=ORIENTED_EDGE('',*,*,#913,.F.);
#664=ORIENTED_EDGE('',*,*,#909,.T.);
#665=ORIENTED_EDGE('',*,*,#914,.T.);
#666=ORIENTED_EDGE('',*,*,#915,.F.);
#667=ORIENTED_EDGE('',*,*,#891,.F.);
#668=ORIENTED_EDGE('',*,*,#916,.T.);
#669=ORIENTED_EDGE('',*,*,#917,.T.);
#670=ORIENTED_EDGE('',*,*,#892,.T.);
#671=ORIENTED_EDGE('',*,*,#915,.T.);
#672=ORIENTED_EDGE('',*,*,#894,.T.);
#673=ORIENTED_EDGE('',*,*,#918,.T.);
#674=ORIENTED_EDGE('',*,*,#919,.T.);
#675=ORIENTED_EDGE('',*,*,#895,.T.);
#676=ORIENTED_EDGE('',*,*,#920,.F.);
#677=ORIENTED_EDGE('',*,*,#921,.F.);
#678=ORIENTED_EDGE('',*,*,#922,.T.);
#679=ORIENTED_EDGE('',*,*,#896,.T.);
#680=ORIENTED_EDGE('',*,*,#919,.F.);
#681=ORIENTED_EDGE('',*,*,#923,.T.);
#682=ORIENTED_EDGE('',*,*,#924,.F.);
#683=ORIENTED_EDGE('',*,*,#925,.F.);
#684=ORIENTED_EDGE('',*,*,#926,.F.);
#685=ORIENTED_EDGE('',*,*,#927,.F.);
#686=ORIENTED_EDGE('',*,*,#928,.F.);
#687=ORIENTED_EDGE('',*,*,#923,.F.);
#688=ORIENTED_EDGE('',*,*,#918,.F.);
#689=ORIENTED_EDGE('',*,*,#929,.F.);
#690=ORIENTED_EDGE('',*,*,#930,.T.);
#691=ORIENTED_EDGE('',*,*,#931,.F.);
#692=ORIENTED_EDGE('',*,*,#932,.F.);
#693=ORIENTED_EDGE('',*,*,#933,.F.);
#694=ORIENTED_EDGE('',*,*,#934,.F.);
#695=ORIENTED_EDGE('',*,*,#935,.F.);
#696=ORIENTED_EDGE('',*,*,#936,.F.);
#697=ORIENTED_EDGE('',*,*,#937,.F.);
#698=ORIENTED_EDGE('',*,*,#901,.T.);
#699=ORIENTED_EDGE('',*,*,#938,.F.);
#700=ORIENTED_EDGE('',*,*,#939,.F.);
#701=ORIENTED_EDGE('',*,*,#940,.F.);
#702=ORIENTED_EDGE('',*,*,#897,.T.);
#703=ORIENTED_EDGE('',*,*,#922,.F.);
#704=ORIENTED_EDGE('',*,*,#941,.T.);
#705=ORIENTED_EDGE('',*,*,#942,.T.);
#706=ORIENTED_EDGE('',*,*,#943,.T.);
#707=ORIENTED_EDGE('',*,*,#944,.T.);
#708=ORIENTED_EDGE('',*,*,#945,.T.);
#709=ORIENTED_EDGE('',*,*,#946,.T.);
#710=ORIENTED_EDGE('',*,*,#898,.F.);
#711=ORIENTED_EDGE('',*,*,#940,.T.);
#712=ORIENTED_EDGE('',*,*,#947,.T.);
#713=ORIENTED_EDGE('',*,*,#948,.F.);
#714=ORIENTED_EDGE('',*,*,#949,.F.);
#715=ORIENTED_EDGE('',*,*,#950,.F.);
#716=ORIENTED_EDGE('',*,*,#951,.T.);
#717=ORIENTED_EDGE('',*,*,#952,.T.);
#718=ORIENTED_EDGE('',*,*,#899,.F.);
#719=ORIENTED_EDGE('',*,*,#946,.F.);
#720=ORIENTED_EDGE('',*,*,#953,.T.);
#721=ORIENTED_EDGE('',*,*,#954,.T.);
#722=ORIENTED_EDGE('',*,*,#955,.F.);
#723=ORIENTED_EDGE('',*,*,#956,.F.);
#724=ORIENTED_EDGE('',*,*,#957,.F.);
#725=ORIENTED_EDGE('',*,*,#938,.T.);
#726=ORIENTED_EDGE('',*,*,#900,.F.);
#727=ORIENTED_EDGE('',*,*,#952,.F.);
#728=ORIENTED_EDGE('',*,*,#958,.F.);
#729=ORIENTED_EDGE('',*,*,#959,.F.);
#730=ORIENTED_EDGE('',*,*,#960,.F.);
#731=ORIENTED_EDGE('',*,*,#933,.T.);
#732=ORIENTED_EDGE('',*,*,#961,.F.);
#733=ORIENTED_EDGE('',*,*,#902,.T.);
#734=ORIENTED_EDGE('',*,*,#937,.T.);
#735=ORIENTED_EDGE('',*,*,#903,.T.);
#736=ORIENTED_EDGE('',*,*,#961,.T.);
#737=ORIENTED_EDGE('',*,*,#932,.T.);
#738=ORIENTED_EDGE('',*,*,#962,.F.);
#739=ORIENTED_EDGE('',*,*,#963,.F.);
#740=ORIENTED_EDGE('',*,*,#964,.T.);
#741=ORIENTED_EDGE('',*,*,#904,.T.);
#742=ORIENTED_EDGE('',*,*,#962,.T.);
#743=ORIENTED_EDGE('',*,*,#931,.T.);
#744=ORIENTED_EDGE('',*,*,#965,.T.);
#745=ORIENTED_EDGE('',*,*,#966,.F.);
#746=ORIENTED_EDGE('',*,*,#967,.F.);
#747=ORIENTED_EDGE('',*,*,#905,.T.);
#748=ORIENTED_EDGE('',*,*,#964,.F.);
#749=ORIENTED_EDGE('',*,*,#968,.T.);
#750=ORIENTED_EDGE('',*,*,#969,.F.);
#751=ORIENTED_EDGE('',*,*,#929,.T.);
#752=ORIENTED_EDGE('',*,*,#920,.T.);
#753=ORIENTED_EDGE('',*,*,#906,.T.);
#754=ORIENTED_EDGE('',*,*,#967,.T.);
#755=ORIENTED_EDGE('',*,*,#970,.T.);
#756=ORIENTED_EDGE('',*,*,#971,.F.);
#757=ORIENTED_EDGE('',*,*,#972,.F.);
#758=ORIENTED_EDGE('',*,*,#916,.F.);
#759=ORIENTED_EDGE('',*,*,#914,.F.);
#760=ORIENTED_EDGE('',*,*,#908,.T.);
#761=ORIENTED_EDGE('',*,*,#973,.T.);
#762=ORIENTED_EDGE('',*,*,#974,.F.);
#763=ORIENTED_EDGE('',*,*,#913,.T.);
#764=ORIENTED_EDGE('',*,*,#975,.F.);
#765=ORIENTED_EDGE('',*,*,#912,.T.);
#766=ORIENTED_EDGE('',*,*,#976,.F.);
#767=ORIENTED_EDGE('',*,*,#911,.T.);
#768=ORIENTED_EDGE('',*,*,#977,.F.);
#769=ORIENTED_EDGE('',*,*,#910,.T.);
#770=ORIENTED_EDGE('',*,*,#928,.T.);
#771=ORIENTED_EDGE('',*,*,#978,.T.);
#772=ORIENTED_EDGE('',*,*,#979,.F.);
#773=ORIENTED_EDGE('',*,*,#924,.T.);
#774=ORIENTED_EDGE('',*,*,#925,.T.);
#775=ORIENTED_EDGE('',*,*,#979,.T.);
#776=ORIENTED_EDGE('',*,*,#980,.T.);
#777=ORIENTED_EDGE('',*,*,#981,.T.);
#778=ORIENTED_EDGE('',*,*,#982,.F.);
#779=ORIENTED_EDGE('',*,*,#980,.F.);
#780=ORIENTED_EDGE('',*,*,#978,.F.);
#781=ORIENTED_EDGE('',*,*,#927,.T.);
#782=ORIENTED_EDGE('',*,*,#983,.T.);
#783=ORIENTED_EDGE('',*,*,#984,.F.);
#784=ORIENTED_EDGE('',*,*,#965,.F.);
#785=ORIENTED_EDGE('',*,*,#930,.F.);
#786=ORIENTED_EDGE('',*,*,#969,.T.);
#787=ORIENTED_EDGE('',*,*,#934,.T.);
#788=ORIENTED_EDGE('',*,*,#960,.T.);
#789=ORIENTED_EDGE('',*,*,#985,.F.);
#790=ORIENTED_EDGE('',*,*,#986,.F.);
#791=ORIENTED_EDGE('',*,*,#987,.F.);
#792=ORIENTED_EDGE('',*,*,#935,.T.);
#793=ORIENTED_EDGE('',*,*,#986,.T.);
#794=ORIENTED_EDGE('',*,*,#988,.F.);
#795=ORIENTED_EDGE('',*,*,#989,.T.);
#796=ORIENTED_EDGE('',*,*,#939,.T.);
#797=ORIENTED_EDGE('',*,*,#957,.T.);
#798=ORIENTED_EDGE('',*,*,#990,.F.);
#799=ORIENTED_EDGE('',*,*,#947,.F.);
#800=ORIENTED_EDGE('',*,*,#941,.F.);
#801=ORIENTED_EDGE('',*,*,#991,.F.);
#802=ORIENTED_EDGE('',*,*,#942,.F.);
#803=ORIENTED_EDGE('',*,*,#992,.F.);
#804=ORIENTED_EDGE('',*,*,#943,.F.);
#805=ORIENTED_EDGE('',*,*,#993,.F.);
#806=ORIENTED_EDGE('',*,*,#944,.F.);
#807=ORIENTED_EDGE('',*,*,#994,.F.);
#808=ORIENTED_EDGE('',*,*,#945,.F.);
#809=ORIENTED_EDGE('',*,*,#995,.F.);
#810=ORIENTED_EDGE('',*,*,#953,.F.);
#811=ORIENTED_EDGE('',*,*,#951,.F.);
#812=ORIENTED_EDGE('',*,*,#996,.T.);
#813=ORIENTED_EDGE('',*,*,#997,.T.);
#814=ORIENTED_EDGE('',*,*,#998,.T.);
#815=ORIENTED_EDGE('',*,*,#948,.T.);
#816=ORIENTED_EDGE('',*,*,#990,.T.);
#817=ORIENTED_EDGE('',*,*,#956,.T.);
#818=ORIENTED_EDGE('',*,*,#994,.T.);
#819=ORIENTED_EDGE('',*,*,#993,.T.);
#820=ORIENTED_EDGE('',*,*,#992,.T.);
#821=ORIENTED_EDGE('',*,*,#991,.T.);
#822=ORIENTED_EDGE('',*,*,#999,.T.);
#823=ORIENTED_EDGE('',*,*,#966,.T.);
#824=ORIENTED_EDGE('',*,*,#984,.T.);
#825=ORIENTED_EDGE('',*,*,#971,.T.);
#826=ORIENTED_EDGE('',*,*,#998,.F.);
#827=ORIENTED_EDGE('',*,*,#955,.T.);
#828=ORIENTED_EDGE('',*,*,#1000,.T.);
#829=ORIENTED_EDGE('',*,*,#949,.T.);
#830=ORIENTED_EDGE('',*,*,#1001,.T.);
#831=ORIENTED_EDGE('',*,*,#1002,.T.);
#832=ORIENTED_EDGE('',*,*,#995,.T.);
#833=ORIENTED_EDGE('',*,*,#950,.T.);
#834=ORIENTED_EDGE('',*,*,#1000,.F.);
#835=ORIENTED_EDGE('',*,*,#954,.F.);
#836=ORIENTED_EDGE('',*,*,#959,.T.);
#837=ORIENTED_EDGE('',*,*,#1003,.T.);
#838=ORIENTED_EDGE('',*,*,#988,.T.);
#839=ORIENTED_EDGE('',*,*,#985,.T.);
#840=ORIENTED_EDGE('',*,*,#999,.F.);
#841=ORIENTED_EDGE('',*,*,#970,.F.);
#842=ORIENTED_EDGE('',*,*,#968,.F.);
#843=ORIENTED_EDGE('',*,*,#963,.T.);
#844=ORIENTED_EDGE('',*,*,#973,.F.);
#845=ORIENTED_EDGE('',*,*,#1004,.F.);
#846=ORIENTED_EDGE('',*,*,#974,.T.);
#847=ORIENTED_EDGE('',*,*,#1005,.T.);
#848=ORIENTED_EDGE('',*,*,#975,.T.);
#849=ORIENTED_EDGE('',*,*,#1006,.T.);
#850=ORIENTED_EDGE('',*,*,#976,.T.);
#851=ORIENTED_EDGE('',*,*,#1007,.T.);
#852=ORIENTED_EDGE('',*,*,#977,.T.);
#853=ORIENTED_EDGE('',*,*,#1008,.T.);
#854=ORIENTED_EDGE('',*,*,#1009,.F.);
#855=ORIENTED_EDGE('',*,*,#983,.F.);
#856=ORIENTED_EDGE('',*,*,#989,.F.);
#857=ORIENTED_EDGE('',*,*,#1010,.F.);
#858=ORIENTED_EDGE('',*,*,#1001,.F.);
#859=ORIENTED_EDGE('',*,*,#996,.F.);
#860=ORIENTED_EDGE('',*,*,#1002,.F.);
#861=ORIENTED_EDGE('',*,*,#997,.F.);
#862=ORIENTED_EDGE('',*,*,#1004,.T.);
#863=ORIENTED_EDGE('',*,*,#1005,.F.);
#864=ORIENTED_EDGE('',*,*,#1011,.F.);
#865=ORIENTED_EDGE('',*,*,#1006,.F.);
#866=ORIENTED_EDGE('',*,*,#1012,.F.);
#867=ORIENTED_EDGE('',*,*,#1007,.F.);
#868=ORIENTED_EDGE('',*,*,#1013,.F.);
#869=ORIENTED_EDGE('',*,*,#1008,.F.);
#870=ORIENTED_EDGE('',*,*,#1014,.F.);
#871=ORIENTED_EDGE('',*,*,#1009,.T.);
#872=ORIENTED_EDGE('',*,*,#1010,.T.);
#873=ORIENTED_EDGE('',*,*,#1011,.T.);
#874=ORIENTED_EDGE('',*,*,#1012,.T.);
#875=ORIENTED_EDGE('',*,*,#1013,.T.);
#876=ORIENTED_EDGE('',*,*,#1014,.T.);
#877=ORIENTED_EDGE('',*,*,#907,.T.);
#878=ORIENTED_EDGE('',*,*,#889,.T.);
#879=ORIENTED_EDGE('',*,*,#917,.F.);
#880=ORIENTED_EDGE('',*,*,#972,.T.);
#881=ORIENTED_EDGE('',*,*,#936,.T.);
#882=ORIENTED_EDGE('',*,*,#987,.T.);
#883=ORIENTED_EDGE('',*,*,#1003,.F.);
#884=ORIENTED_EDGE('',*,*,#958,.T.);
#885=ORIENTED_EDGE('',*,*,#926,.T.);
#886=ORIENTED_EDGE('',*,*,#921,.T.);
#887=ORIENTED_EDGE('',*,*,#981,.F.);
#888=ORIENTED_EDGE('',*,*,#982,.T.);
#889=EDGE_CURVE('',#1015,#1016,#1017,.F.);
#890=EDGE_CURVE('',#1015,#1018,#1019,.T.);
#891=EDGE_CURVE('',#1018,#1020,#1021,.T.);
#892=EDGE_CURVE('',#1016,#1020,#1022,.T.);
#893=EDGE_CURVE('',#1023,#1023,#1024,.F.);
#894=EDGE_CURVE('',#1025,#1025,#1026,.T.);
#895=EDGE_CURVE('',#1027,#1028,#1029,.T.);
#896=EDGE_CURVE('',#1030,#1027,#1031,.F.);
#897=EDGE_CURVE('',#1032,#1030,#1033,.F.);
#898=EDGE_CURVE('',#1032,#1034,#1035,.T.);
#899=EDGE_CURVE('',#1034,#1036,#1037,.T.);
#900=EDGE_CURVE('',#1036,#1038,#1039,.T.);
#901=EDGE_CURVE('',#1040,#1038,#1041,.F.);
#902=EDGE_CURVE('',#1042,#1040,#1043,.F.);
#903=EDGE_CURVE('',#1044,#1042,#1045,.T.);
#904=EDGE_CURVE('',#1046,#1044,#1047,.T.);
#905=EDGE_CURVE('',#1048,#1046,#1049,.F.);
#906=EDGE_CURVE('',#1028,#1048,#1050,.T.);
#907=EDGE_CURVE('',#1051,#1015,#1052,.T.);
#908=EDGE_CURVE('',#1053,#1051,#1054,.T.);
#909=EDGE_CURVE('',#1018,#1053,#1055,.T.);
#910=EDGE_CURVE('',#1056,#1056,#1057,.T.);
#911=EDGE_CURVE('',#1058,#1058,#1059,.T.);
#912=EDGE_CURVE('',#1060,#1060,#1061,.T.);
#913=EDGE_CURVE('',#1062,#1062,#1063,.T.);
#914=EDGE_CURVE('',#1053,#1064,#1065,.T.);
#915=EDGE_CURVE('',#1020,#1064,#1066,.T.);
#916=EDGE_CURVE('',#1064,#1067,#1068,.T.);
#917=EDGE_CURVE('',#1067,#1016,#1069,.T.);
#918=EDGE_CURVE('',#1070,#1071,#1072,.F.);
#919=EDGE_CURVE('',#1071,#1027,#1073,.T.);
#920=EDGE_CURVE('',#1070,#1028,#1074,.T.);
#921=EDGE_CURVE('',#1075,#1076,#1077,.F.);
#922=EDGE_CURVE('',#1075,#1030,#1078,.T.);
#923=EDGE_CURVE('',#1071,#1079,#1080,.T.);
#924=EDGE_CURVE('',#1081,#1079,#1082,.F.);
#925=EDGE_CURVE('',#1076,#1081,#1083,.F.);
#926=EDGE_CURVE('',#1084,#1075,#1085,.F.);
#927=EDGE_CURVE('',#1086,#1084,#1087,.F.);
#928=EDGE_CURVE('',#1079,#1086,#1088,.F.);
#929=EDGE_CURVE('',#1089,#1070,#1090,.F.);
#930=EDGE_CURVE('',#1089,#1091,#1092,.T.);
#931=EDGE_CURVE('',#1093,#1091,#1094,.F.);
#932=EDGE_CURVE('',#1095,#1093,#1096,.F.);
#933=EDGE_CURVE('',#1097,#1095,#1098,.T.);
#934=EDGE_CURVE('',#1099,#1097,#1100,.F.);
#935=EDGE_CURVE('',#1101,#1099,#1102,.F.);
#936=EDGE_CURVE('',#1103,#1101,#1104,.F.);
#937=EDGE_CURVE('',#1040,#1103,#1105,.T.);
#938=EDGE_CURVE('',#1106,#1038,#1107,.T.);
#939=EDGE_CURVE('',#1108,#1106,#1109,.T.);
#940=EDGE_CURVE('',#1032,#1108,#1110,.T.);
#941=EDGE_CURVE('',#1111,#1111,#1112,.T.);
#942=EDGE_CURVE('',#1113,#1113,#1114,.T.);
#943=EDGE_CURVE('',#1115,#1115,#1116,.T.);
#944=EDGE_CURVE('',#1117,#1117,#1118,.T.);
#945=EDGE_CURVE('',#1119,#1120,#1121,.T.);
#946=EDGE_CURVE('',#1120,#1034,#1122,.T.);
#947=EDGE_CURVE('',#1108,#1123,#1124,.T.);
#948=EDGE_CURVE('',#1125,#1123,#1126,.T.);
#949=EDGE_CURVE('',#1127,#1125,#1128,.T.);
#950=EDGE_CURVE('',#1119,#1127,#1129,.T.);
#951=EDGE_CURVE('',#1120,#1130,#1131,.T.);
#952=EDGE_CURVE('',#1130,#1036,#1132,.T.);
#953=EDGE_CURVE('',#1130,#1133,#1134,.T.);
#954=EDGE_CURVE('',#1133,#1135,#1136,.T.);
#955=EDGE_CURVE('',#1137,#1135,#1138,.T.);
#956=EDGE_CURVE('',#1139,#1137,#1140,.T.);
#957=EDGE_CURVE('',#1106,#1139,#1141,.T.);
#958=EDGE_CURVE('',#1142,#1103,#1143,.F.);
#959=EDGE_CURVE('',#1144,#1142,#1145,.F.);
#960=EDGE_CURVE('',#1097,#1144,#1146,.F.);
#961=EDGE_CURVE('',#1042,#1095,#1147,.T.);
#962=EDGE_CURVE('',#1044,#1093,#1148,.T.);
#963=EDGE_CURVE('',#1149,#1150,#1151,.T.);
#964=EDGE_CURVE('',#1149,#1046,#1152,.F.);
#965=EDGE_CURVE('',#1091,#1153,#1154,.T.);
#966=EDGE_CURVE('',#1150,#1153,#1155,.F.);
#967=EDGE_CURVE('',#1048,#1156,#1157,.F.);
#968=EDGE_CURVE('',#1149,#1156,#1158,.T.);
#969=EDGE_CURVE('',#1089,#1159,#1160,.T.);
#970=EDGE_CURVE('',#1156,#1161,#1162,.T.);
#971=EDGE_CURVE('',#1159,#1161,#1163,.F.);
#972=EDGE_CURVE('',#1067,#1051,#1164,.F.);
#973=EDGE_CURVE('',#1165,#1165,#1166,.F.);
#974=EDGE_CURVE('',#1167,#1167,#1168,.T.);
#975=EDGE_CURVE('',#1169,#1169,#1170,.T.);
#976=EDGE_CURVE('',#1171,#1171,#1172,.T.);
#977=EDGE_CURVE('',#1173,#1173,#1174,.T.);
#978=EDGE_CURVE('',#1086,#1175,#1176,.T.);
#979=EDGE_CURVE('',#1081,#1175,#1177,.T.);
#980=EDGE_CURVE('',#1175,#1178,#1179,.T.);
#981=EDGE_CURVE('',#1178,#1076,#1180,.T.);
#982=EDGE_CURVE('',#1178,#1084,#1181,.F.);
#983=EDGE_CURVE('',#1182,#1182,#1183,.F.);
#984=EDGE_CURVE('',#1153,#1159,#1184,.F.);
#985=EDGE_CURVE('',#1185,#1144,#1186,.T.);
#986=EDGE_CURVE('',#1099,#1185,#1187,.T.);
#987=EDGE_CURVE('',#1101,#1188,#1189,.F.);
#988=EDGE_CURVE('',#1188,#1185,#1190,.T.);
#989=EDGE_CURVE('',#1191,#1191,#1192,.F.);
#990=EDGE_CURVE('',#1123,#1139,#1193,.T.);
#991=EDGE_CURVE('',#1194,#1194,#1195,.F.);
#992=EDGE_CURVE('',#1196,#1196,#1197,.F.);
#993=EDGE_CURVE('',#1198,#1198,#1199,.F.);
#994=EDGE_CURVE('',#1200,#1200,#1201,.F.);
#995=EDGE_CURVE('',#1133,#1119,#1202,.T.);
#996=EDGE_CURVE('',#1203,#1203,#1204,.T.);
#997=EDGE_CURVE('',#1205,#1205,#1206,.T.);
#998=EDGE_CURVE('',#1137,#1125,#1207,.T.);
#999=EDGE_CURVE('',#1161,#1150,#1208,.F.);
#1000=EDGE_CURVE('',#1135,#1127,#1209,.T.);
#1001=EDGE_CURVE('',#1210,#1210,#1211,.F.);
#1002=EDGE_CURVE('',#1212,#1212,#1213,.F.);
#1003=EDGE_CURVE('',#1142,#1188,#1214,.T.);
#1004=EDGE_CURVE('',#1215,#1215,#1216,.T.);
#1005=EDGE_CURVE('',#1217,#1217,#1218,.F.);
#1006=EDGE_CURVE('',#1219,#1219,#1220,.F.);
#1007=EDGE_CURVE('',#1221,#1221,#1222,.F.);
#1008=EDGE_CURVE('',#1223,#1223,#1224,.F.);
#1009=EDGE_CURVE('',#1225,#1225,#1226,.T.);
#1010=EDGE_CURVE('',#1227,#1227,#1228,.T.);
#1011=EDGE_CURVE('',#1229,#1229,#1230,.T.);
#1012=EDGE_CURVE('',#1231,#1231,#1232,.T.);
#1013=EDGE_CURVE('',#1233,#1233,#1234,.T.);
#1014=EDGE_CURVE('',#1235,#1235,#1236,.T.);
#1015=VERTEX_POINT('',#1237);
#1016=VERTEX_POINT('',#1238);
#1017=LINE('',#1239,#1240);
#1018=VERTEX_POINT('',#1242);
#1019=LINE('',#1243,#1244);
#1020=VERTEX_POINT('',#1246);
#1021=LINE('',#1247,#1248);
#1022=LINE('',#1250,#1251);
#1023=VERTEX_POINT('',#1253);
#1024=CIRCLE('',#1254,2.2);
#1025=VERTEX_POINT('',#1258);
#1026=CIRCLE('',#1259,2.2);
#1027=VERTEX_POINT('',#1263);
#1028=VERTEX_POINT('',#1264);
#1029=LINE('',#1265,#1266);
#1030=VERTEX_POINT('',#1268);
#1031=LINE('',#1269,#1270);
#1032=VERTEX_POINT('',#1272);
#1033=LINE('',#1273,#1274);
#1034=VERTEX_POINT('',#1276);
#1035=LINE('',#1277,#1278);
#1036=VERTEX_POINT('',#1280);
#1037=LINE('',#1281,#1282);
#1038=VERTEX_POINT('',#1284);
#1039=LINE('',#1285,#1286);
#1040=VERTEX_POINT('',#1288);
#1041=LINE('',#1289,#1290);
#1042=VERTEX_POINT('',#1292);
#1043=LINE('',#1293,#1294);
#1044=VERTEX_POINT('',#1296);
#1045=LINE('',#1297,#1298);
#1046=VERTEX_POINT('',#1300);
#1047=LINE('',#1301,#1302);
#1048=VERTEX_POINT('',#1304);
#1049=LINE('',#1305,#1306);
#1050=LINE('',#1308,#1309);
#1051=VERTEX_POINT('',#1311);
#1052=LINE('',#1312,#1313);
#1053=VERTEX_POINT('',#1315);
#1054=LINE('',#1316,#1317);
#1055=LINE('',#1319,#1320);
#1056=VERTEX_POINT('',#1322);
#1057=CIRCLE('',#1323,2.5);
#1058=VERTEX_POINT('',#1327);
#1059=CIRCLE('',#1328,2.5);
#1060=VERTEX_POINT('',#1332);
#1061=CIRCLE('',#1333,2.5);
#1062=VERTEX_POINT('',#1337);
#1063=CIRCLE('',#1338,2.5);
#1064=VERTEX_POINT('',#1342);
#1065=LINE('',#1343,#1344);
#1066=LINE('',#1346,#1347);
#1067=VERTEX_POINT('',#1349);
#1068=LINE('',#1350,#1351);
#1069=LINE('',#1353,#1354);
#1070=VERTEX_POINT('',#1356);
#1071=VERTEX_POINT('',#1357);
#1072=LINE('',#1358,#1359);
#1073=LINE('',#1361,#1362);
#1074=LINE('',#1364,#1365);
#1075=VERTEX_POINT('',#1367);
#1076=VERTEX_POINT('',#1368);
#1077=LINE('',#1369,#1370);
#1078=LINE('',#1372,#1373);
#1079=VERTEX_POINT('',#1375);
#1080=LINE('',#1376,#1377);
#1081=VERTEX_POINT('',#1379);
#1082=LINE('',#1380,#1381);
#1083=LINE('',#1383,#1384);
#1084=VERTEX_POINT('',#1386);
#1085=LINE('',#1387,#1388);
#1086=VERTEX_POINT('',#1390);
#1087=LINE('',#1391,#1392);
#1088=LINE('',#1394,#1395);
#1089=VERTEX_POINT('',#1397);
#1090=LINE('',#1398,#1399);
#1091=VERTEX_POINT('',#1401);
#1092=LINE('',#1402,#1403);
#1093=VERTEX_POINT('',#1405);
#1094=LINE('',#1406,#1407);
#1095=VERTEX_POINT('',#1409);
#1096=LINE('',#1410,#1411);
#1097=VERTEX_POINT('',#1413);
#1098=LINE('',#1414,#1415);
#1099=VERTEX_POINT('',#1417);
#1100=LINE('',#1418,#1419);
#1101=VERTEX_POINT('',#1421);
#1102=LINE('',#1422,#1423);
#1103=VERTEX_POINT('',#1425);
#1104=LINE('',#1426,#1427);
#1105=LINE('',#1429,#1430);
#1106=VERTEX_POINT('',#1432);
#1107=LINE('',#1433,#1434);
#1108=VERTEX_POINT('',#1436);
#1109=LINE('',#1437,#1438);
#1110=LINE('',#1440,#1441);
#1111=VERTEX_POINT('',#1443);
#1112=CIRCLE('',#1444,1.6);
#1113=VERTEX_POINT('',#1448);
#1114=CIRCLE('',#1449,1.6);
#1115=VERTEX_POINT('',#1453);
#1116=CIRCLE('',#1454,1.6);
#1117=VERTEX_POINT('',#1458);
#1118=CIRCLE('',#1459,1.6);
#1119=VERTEX_POINT('',#1463);
#1120=VERTEX_POINT('',#1464);
#1121=LINE('',#1465,#1466);
#1122=LINE('',#1468,#1469);
#1123=VERTEX_POINT('',#1471);
#1124=LINE('',#1472,#1473);
#1125=VERTEX_POINT('',#1475);
#1126=LINE('',#1476,#1477);
#1127=VERTEX_POINT('',#1479);
#1128=LINE('',#1480,#1481);
#1129=LINE('',#1483,#1484);
#1130=VERTEX_POINT('',#1486);
#1131=LINE('',#1487,#1488);
#1132=LINE('',#1490,#1491);
#1133=VERTEX_POINT('',#1493);
#1134=LINE('',#1494,#1495);
#1135=VERTEX_POINT('',#1497);
#1136=LINE('',#1498,#1499);
#1137=VERTEX_POINT('',#1501);
#1138=LINE('',#1502,#1503);
#1139=VERTEX_POINT('',#1505);
#1140=LINE('',#1506,#1507);
#1141=LINE('',#1509,#1510);
#1142=VERTEX_POINT('',#1512);
#1143=LINE('',#1513,#1514);
#1144=VERTEX_POINT('',#1516);
#1145=LINE('',#1517,#1518);
#1146=LINE('',#1520,#1521);
#1147=LINE('',#1523,#1524);
#1148=LINE('',#1526,#1527);
#1149=VERTEX_POINT('',#1529);
#1150=VERTEX_POINT('',#1530);
#1151=LINE('',#1531,#1532);
#1152=LINE('',#1534,#1535);
#1153=VERTEX_POINT('',#1537);
#1154=LINE('',#1538,#1539);
#1155=LINE('',#1541,#1542);
#1156=VERTEX_POINT('',#1544);
#1157=LINE('',#1545,#1546);
#1158=LINE('',#1548,#1549);
#1159=VERTEX_POINT('',#1551);
#1160=LINE('',#1552,#1553);
#1161=VERTEX_POINT('',#1555);
#1162=LINE('',#1556,#1557);
#1163=LINE('',#1559,#1560);
#1164=LINE('',#1562,#1563);
#1165=VERTEX_POINT('',#1565);
#1166=CIRCLE('',#1566,2.2);
#1167=VERTEX_POINT('',#1570);
#1168=CIRCLE('',#1571,2.5);
#1169=VERTEX_POINT('',#1575);
#1170=CIRCLE('',#1576,2.5);
#1171=VERTEX_POINT('',#1580);
#1172=CIRCLE('',#1581,2.5);
#1173=VERTEX_POINT('',#1585);
#1174=CIRCLE('',#1586,2.5);
#1175=VERTEX_POINT('',#1590);
#1176=LINE('',#1591,#1592);
#1177=LINE('',#1594,#1595);
#1178=VERTEX_POINT('',#1597);
#1179=LINE('',#1598,#1599);
#1180=LINE('',#1601,#1602);
#1181=LINE('',#1604,#1605);
#1182=VERTEX_POINT('',#1607);
#1183=CIRCLE('',#1608,2.2);
#1184=LINE('',#1612,#1613);
#1185=VERTEX_POINT('',#1615);
#1186=LINE('',#1616,#1617);
#1187=LINE('',#1619,#1620);
#1188=VERTEX_POINT('',#1622);
#1189=LINE('',#1623,#1624);
#1190=LINE('',#1626,#1627);
#1191=VERTEX_POINT('',#1629);
#1192=CIRCLE('',#1630,2.2);
#1193=LINE('',#1634,#1635);
#1194=VERTEX_POINT('',#1637);
#1195=CIRCLE('',#1638,1.6);
#1196=VERTEX_POINT('',#1642);
#1197=CIRCLE('',#1643,1.6);
#1198=VERTEX_POINT('',#1647);
#1199=CIRCLE('',#1648,1.6);
#1200=VERTEX_POINT('',#1652);
#1201=CIRCLE('',#1653,1.6);
#1202=LINE('',#1657,#1658);
#1203=VERTEX_POINT('',#1660);
#1204=CIRCLE('',#1661,1.6);
#1205=VERTEX_POINT('',#1665);
#1206=CIRCLE('',#1666,1.6);
#1207=LINE('',#1670,#1671);
#1208=LINE('',#1673,#1674);
#1209=LINE('',#1676,#1677);
#1210=VERTEX_POINT('',#1679);
#1211=CIRCLE('',#1680,1.6);
#1212=VERTEX_POINT('',#1684);
#1213=CIRCLE('',#1685,1.6);
#1214=LINE('',#1689,#1690);
#1215=VERTEX_POINT('',#1692);
#1216=CIRCLE('',#1693,2.2);
#1217=VERTEX_POINT('',#1697);
#1218=CIRCLE('',#1698,1.1);
#1219=VERTEX_POINT('',#1702);
#1220=CIRCLE('',#1703,1.1);
#1221=VERTEX_POINT('',#1707);
#1222=CIRCLE('',#1708,1.1);
#1223=VERTEX_POINT('',#1712);
#1224=CIRCLE('',#1713,1.1);
#1225=VERTEX_POINT('',#1717);
#1226=CIRCLE('',#1718,2.2);
#1227=VERTEX_POINT('',#1722);
#1228=CIRCLE('',#1723,2.2);
#1229=VERTEX_POINT('',#1727);
#1230=CIRCLE('',#1728,1.1);
#1231=VERTEX_POINT('',#1732);
#1232=CIRCLE('',#1733,1.1);
#1233=VERTEX_POINT('',#1737);
#1234=CIRCLE('',#1738,1.1);
#1235=VERTEX_POINT('',#1742);
#1236=CIRCLE('',#1743,1.1);
#1237=CARTESIAN_POINT('',(168.535898384862,2.,3.));
#1238=CARTESIAN_POINT('',(172.,2.,8.99999999999999));
#1239=CARTESIAN_POINT('',(172.,2.,8.99999999999999));
#1240=VECTOR('',#1241,1.);
#1241=DIRECTION('',(-0.500000000000005,-6.40987562127853E-17,-0.866025403784436));
#1242=CARTESIAN_POINT('',(178.,2.,3.));
#1243=CARTESIAN_POINT('',(168.535898384862,2.,3.));
#1244=VECTOR('',#1245,1.);
#1245=DIRECTION('',(1.,-9.38470924994603E-17,0.));
#1246=CARTESIAN_POINT('',(178.,2.,9.));
#1247=CARTESIAN_POINT('',(178.,2.,3.));
#1248=VECTOR('',#1249,1.);
#1249=DIRECTION('',(0.,0.,1.));
#1250=CARTESIAN_POINT('',(172.,2.,9.));
#1251=VECTOR('',#1252,1.);
#1252=DIRECTION('',(1.,-7.40148683083438E-17,0.));
#1253=CARTESIAN_POINT('',(177.2,2.,6.));
#1254=AXIS2_PLACEMENT_3D('',#1255,#1256,#1257);
#1255=CARTESIAN_POINT('',(175.,2.,6.));
#1256=DIRECTION('',(-7.40148683083438E-17,-1.,0.));
#1257=DIRECTION('',(1.,-7.40148683083438E-17,0.));
#1258=CARTESIAN_POINT('',(177.2,12.,6.));
#1259=AXIS2_PLACEMENT_3D('',#1260,#1261,#1262);
#1260=CARTESIAN_POINT('',(175.,12.,6.));
#1261=DIRECTION('',(-7.40148683083438E-17,-1.,0.));
#1262=DIRECTION('',(1.,-7.40148683083438E-17,0.));
#1263=CARTESIAN_POINT('',(62.,6.5,3.));
#1264=CARTESIAN_POINT('',(62.,8.5,3.));
#1265=CARTESIAN_POINT('',(62.,6.5,3.));
#1266=VECTOR('',#1267,1.);
#1267=DIRECTION('',(0.,1.,0.));
#1268=CARTESIAN_POINT('',(15.,6.50000000000001,3.));
#1269=CARTESIAN_POINT('',(62.,6.5,3.));
#1270=VECTOR('',#1271,1.);
#1271=DIRECTION('',(-1.,0.,0.));
#1272=CARTESIAN_POINT('',(15.,-3.06161699786839E-17,3.));
#1273=CARTESIAN_POINT('',(15.,6.50000000000001,3.));
#1274=VECTOR('',#1275,1.);
#1275=DIRECTION('',(0.,-1.,0.));
#1276=CARTESIAN_POINT('',(180.,0.,3.));
#1277=CARTESIAN_POINT('',(15.,0.,3.));
#1278=VECTOR('',#1279,1.);
#1279=DIRECTION('',(1.,0.,0.));
#1280=CARTESIAN_POINT('',(180.,60.,3.));
#1281=CARTESIAN_POINT('',(180.,0.,3.));
#1282=VECTOR('',#1283,1.);
#1283=DIRECTION('',(0.,1.,0.));
#1284=CARTESIAN_POINT('',(15.,60.,3.));
#1285=CARTESIAN_POINT('',(180.,60.,3.));
#1286=VECTOR('',#1287,1.);
#1287=DIRECTION('',(-1.,0.,0.));
#1288=CARTESIAN_POINT('',(15.,53.5,3.));
#1289=CARTESIAN_POINT('',(15.,60.,3.));
#1290=VECTOR('',#1291,1.);
#1291=DIRECTION('',(0.,-1.,0.));
#1292=CARTESIAN_POINT('',(62.,53.5,3.));
#1293=CARTESIAN_POINT('',(15.,53.5,3.));
#1294=VECTOR('',#1295,1.);
#1295=DIRECTION('',(1.,0.,0.));
#1296=CARTESIAN_POINT('',(62.,51.5,3.));
#1297=CARTESIAN_POINT('',(62.,51.5,3.));
#1298=VECTOR('',#1299,1.);
#1299=DIRECTION('',(0.,1.,0.));
#1300=CARTESIAN_POINT('',(15.,51.5,3.));
#1301=CARTESIAN_POINT('',(15.,51.5,3.));
#1302=VECTOR('',#1303,1.);
#1303=DIRECTION('',(1.,0.,0.));
#1304=CARTESIAN_POINT('',(15.,8.50000000000002,3.));
#1305=CARTESIAN_POINT('',(15.,51.5,3.));
#1306=VECTOR('',#1307,1.);
#1307=DIRECTION('',(0.,-1.,0.));
#1308=CARTESIAN_POINT('',(62.,8.5,3.));
#1309=VECTOR('',#1310,1.);
#1310=DIRECTION('',(-1.,0.,0.));
#1311=CARTESIAN_POINT('',(168.535898384862,58.,3.));
#1312=CARTESIAN_POINT('',(168.535898384862,58.,3.));
#1313=VECTOR('',#1314,1.);
#1314=DIRECTION('',(5.07530525542929E-16,-1.,0.));
#1315=CARTESIAN_POINT('',(178.,58.,3.));
#1316=CARTESIAN_POINT('',(178.,58.,3.));
#1317=VECTOR('',#1318,1.);
#1318=DIRECTION('',(-1.,1.50155347999136E-15,0.));
#1319=CARTESIAN_POINT('',(178.,2.,3.));
#1320=VECTOR('',#1321,1.);
#1321=DIRECTION('',(0.,1.,0.));
#1322=CARTESIAN_POINT('',(65.5,57.5,3.));
#1323=AXIS2_PLACEMENT_3D('',#1324,#1325,#1326);
#1324=CARTESIAN_POINT('',(65.5,55.,3.));
#1325=DIRECTION('',(0.,0.,1.));
#1326=DIRECTION('',(6.12323399573677E-17,1.,0.));
#1327=CARTESIAN_POINT('',(165.5,57.5,3.));
#1328=AXIS2_PLACEMENT_3D('',#1329,#1330,#1331);
#1329=CARTESIAN_POINT('',(165.5,55.,3.));
#1330=DIRECTION('',(0.,0.,1.));
#1331=DIRECTION('',(6.12323399573677E-17,1.,0.));
#1332=CARTESIAN_POINT('',(65.5,7.50000000000001,3.));
#1333=AXIS2_PLACEMENT_3D('',#1334,#1335,#1336);
#1334=CARTESIAN_POINT('',(65.5,5.00000000000001,3.));
#1335=DIRECTION('',(0.,0.,1.));
#1336=DIRECTION('',(6.12323399573677E-17,1.,0.));
#1337=CARTESIAN_POINT('',(165.5,7.5,3.));
#1338=AXIS2_PLACEMENT_3D('',#1339,#1340,#1341);
#1339=CARTESIAN_POINT('',(165.5,5.,3.));
#1340=DIRECTION('',(0.,0.,1.));
#1341=DIRECTION('',(6.12323399573677E-17,1.,0.));
#1342=CARTESIAN_POINT('',(178.,58.,9.));
#1343=CARTESIAN_POINT('',(178.,58.,3.));
#1344=VECTOR('',#1345,1.);
#1345=DIRECTION('',(0.,0.,1.));
#1346=CARTESIAN_POINT('',(178.,2.,9.));
#1347=VECTOR('',#1348,1.);
#1348=DIRECTION('',(0.,1.,0.));
#1349=CARTESIAN_POINT('',(172.,58.,8.99999999999999));
#1350=CARTESIAN_POINT('',(178.,58.,9.));
#1351=VECTOR('',#1352,1.);
#1352=DIRECTION('',(-1.,1.1842378929335E-15,0.));
#1353=CARTESIAN_POINT('',(172.,58.,8.99999999999999));
#1354=VECTOR('',#1355,1.);
#1355=DIRECTION('',(0.,-1.,-3.1720657846433E-17));
#1356=CARTESIAN_POINT('',(15.,8.5,50.));
#1357=CARTESIAN_POINT('',(15.,6.5,50.));
#1358=CARTESIAN_POINT('',(15.,6.5,50.));
#1359=VECTOR('',#1360,1.);
#1360=DIRECTION('',(0.,1.,0.));
#1361=CARTESIAN_POINT('',(15.,6.5,50.));
#1362=VECTOR('',#1363,1.);
#1363=DIRECTION('',(0.707106781186547,6.68124450503734E-17,-0.707106781186548));
#1364=CARTESIAN_POINT('',(15.,8.5,50.));
#1365=VECTOR('',#1366,1.);
#1366=DIRECTION('',(0.707106781186547,5.34499560402987E-17,-0.707106781186548));
#1367=CARTESIAN_POINT('',(15.,6.5,18.));
#1368=CARTESIAN_POINT('',(25.,6.5,28.));
#1369=CARTESIAN_POINT('',(25.,6.5,28.));
#1370=VECTOR('',#1371,1.);
#1371=DIRECTION('',(-0.707106781186548,6.2803698347351E-17,-0.707106781186547));
#1372=CARTESIAN_POINT('',(15.,6.5,18.));
#1373=VECTOR('',#1374,1.);
#1374=DIRECTION('',(0.,1.1842378929335E-16,-1.));
#1375=CARTESIAN_POINT('',(15.,6.5,38.));
#1376=CARTESIAN_POINT('',(15.,6.5,50.));
#1377=VECTOR('',#1378,1.);
#1378=DIRECTION('',(0.,7.40148683083438E-17,-1.));
#1379=CARTESIAN_POINT('',(25.,6.5,38.));
#1380=CARTESIAN_POINT('',(15.,6.5,38.));
#1381=VECTOR('',#1382,1.);
#1382=DIRECTION('',(1.,0.,7.105427357601E-16));
#1383=CARTESIAN_POINT('',(25.,6.5,38.));
#1384=VECTOR('',#1385,1.);
#1385=DIRECTION('',(0.,8.88178419700125E-17,-1.));
#1386=CARTESIAN_POINT('',(15.,2.,18.));
#1387=CARTESIAN_POINT('',(15.,6.5,18.));
#1388=VECTOR('',#1389,1.);
#1389=DIRECTION('',(0.,-1.,0.));
#1390=CARTESIAN_POINT('',(15.,2.,38.));
#1391=CARTESIAN_POINT('',(15.,2.,18.));
#1392=VECTOR('',#1393,1.);
#1393=DIRECTION('',(0.,0.,1.));
#1394=CARTESIAN_POINT('',(15.,2.,38.));
#1395=VECTOR('',#1396,1.);
#1396=DIRECTION('',(0.,1.,0.));
#1397=CARTESIAN_POINT('',(15.,8.5,49.5));
#1398=CARTESIAN_POINT('',(15.,8.5,50.));
#1399=VECTOR('',#1400,1.);
#1400=DIRECTION('',(0.,0.,-1.));
#1401=CARTESIAN_POINT('',(15.,51.5,49.5));
#1402=CARTESIAN_POINT('',(15.,8.5,49.5));
#1403=VECTOR('',#1404,1.);
#1404=DIRECTION('',(0.,1.,-3.30484993376791E-16));
#1405=CARTESIAN_POINT('',(15.,51.5,50.));
#1406=CARTESIAN_POINT('',(15.,51.5,49.5));
#1407=VECTOR('',#1408,1.);
#1408=DIRECTION('',(0.,0.,1.));
#1409=CARTESIAN_POINT('',(15.,53.5,50.));
#1410=CARTESIAN_POINT('',(15.,51.5,50.));
#1411=VECTOR('',#1412,1.);
#1412=DIRECTION('',(0.,1.,0.));
#1413=CARTESIAN_POINT('',(15.,53.5,38.));
#1414=CARTESIAN_POINT('',(15.,53.5,38.));
#1415=VECTOR('',#1416,1.);
#1416=DIRECTION('',(0.,0.,1.));
#1417=CARTESIAN_POINT('',(15.,58.,38.));
#1418=CARTESIAN_POINT('',(15.,53.5,38.));
#1419=VECTOR('',#1420,1.);
#1420=DIRECTION('',(0.,1.,0.));
#1421=CARTESIAN_POINT('',(15.,58.,18.));
#1422=CARTESIAN_POINT('',(15.,58.,38.));
#1423=VECTOR('',#1424,1.);
#1424=DIRECTION('',(0.,0.,-1.));
#1425=CARTESIAN_POINT('',(15.,53.5,18.));
#1426=CARTESIAN_POINT('',(15.,58.,18.));
#1427=VECTOR('',#1428,1.);
#1428=DIRECTION('',(0.,-1.,0.));
#1429=CARTESIAN_POINT('',(15.,53.5,3.));
#1430=VECTOR('',#1431,1.);
#1431=DIRECTION('',(0.,0.,1.));
#1432=CARTESIAN_POINT('',(15.,60.,53.));
#1433=CARTESIAN_POINT('',(15.,60.,53.));
#1434=VECTOR('',#1435,1.);
#1435=DIRECTION('',(0.,0.,-1.));
#1436=CARTESIAN_POINT('',(15.,-3.24531401774049E-15,53.));
#1437=CARTESIAN_POINT('',(15.,-3.24531401774049E-15,53.));
#1438=VECTOR('',#1439,1.);
#1439=DIRECTION('',(0.,1.,0.));
#1440=CARTESIAN_POINT('',(15.,-9.18485099360517E-17,3.00000000000001));
#1441=VECTOR('',#1442,1.);
#1442=DIRECTION('',(0.,-3.06161699786838E-17,1.));
#1443=CARTESIAN_POINT('',(15.,2.4,7.));
#1444=AXIS2_PLACEMENT_3D('',#1445,#1446,#1447);
#1445=CARTESIAN_POINT('',(15.,4.,7.));
#1446=DIRECTION('',(-1.,0.,0.));
#1447=DIRECTION('',(0.,-1.,-6.12323399573677E-17));
#1448=CARTESIAN_POINT('',(15.,2.4,49.));
#1449=AXIS2_PLACEMENT_3D('',#1450,#1451,#1452);
#1450=CARTESIAN_POINT('',(15.,4.,49.));
#1451=DIRECTION('',(-1.,0.,0.));
#1452=DIRECTION('',(0.,-1.,-6.12323399573677E-17));
#1453=CARTESIAN_POINT('',(15.,54.4,49.));
#1454=AXIS2_PLACEMENT_3D('',#1455,#1456,#1457);
#1455=CARTESIAN_POINT('',(15.,56.,49.));
#1456=DIRECTION('',(-1.,0.,0.));
#1457=DIRECTION('',(0.,-1.,-6.12323399573677E-17));
#1458=CARTESIAN_POINT('',(15.,54.4,7.));
#1459=AXIS2_PLACEMENT_3D('',#1460,#1461,#1462);
#1460=CARTESIAN_POINT('',(15.,56.,7.));
#1461=DIRECTION('',(-1.,0.,0.));
#1462=DIRECTION('',(0.,-1.,-6.12323399573677E-17));
#1463=CARTESIAN_POINT('',(0.,0.,0.));
#1464=CARTESIAN_POINT('',(180.,0.,0.));
#1465=CARTESIAN_POINT('',(0.,0.,0.));
#1466=VECTOR('',#1467,1.);
#1467=DIRECTION('',(1.,0.,0.));
#1468=CARTESIAN_POINT('',(180.,0.,0.));
#1469=VECTOR('',#1470,1.);
#1470=DIRECTION('',(0.,0.,1.));
#1471=CARTESIAN_POINT('',(12.,-3.24531401774049E-15,53.));
#1472=CARTESIAN_POINT('',(15.,-1.62265700887024E-15,53.));
#1473=VECTOR('',#1474,1.);
#1474=DIRECTION('',(-1.,0.,0.));
#1475=CARTESIAN_POINT('',(12.,-3.06161699786839E-17,3.));
#1476=CARTESIAN_POINT('',(12.,-9.18485099360517E-17,3.00000000000001));
#1477=VECTOR('',#1478,1.);
#1478=DIRECTION('',(0.,-3.06161699786838E-17,1.));
#1479=CARTESIAN_POINT('',(0.,0.,3.));
#1480=CARTESIAN_POINT('',(0.,0.,3.));
#1481=VECTOR('',#1482,1.);
#1482=DIRECTION('',(1.,0.,0.));
#1483=CARTESIAN_POINT('',(0.,0.,0.));
#1484=VECTOR('',#1485,1.);
#1485=DIRECTION('',(0.,0.,1.));
#1486=CARTESIAN_POINT('',(180.,60.,0.));
#1487=CARTESIAN_POINT('',(180.,0.,0.));
#1488=VECTOR('',#1489,1.);
#1489=DIRECTION('',(0.,1.,0.));
#1490=CARTESIAN_POINT('',(180.,60.,0.));
#1491=VECTOR('',#1492,1.);
#1492=DIRECTION('',(0.,0.,1.));
#1493=CARTESIAN_POINT('',(0.,60.,0.));
#1494=CARTESIAN_POINT('',(180.,60.,0.));
#1495=VECTOR('',#1496,1.);
#1496=DIRECTION('',(-1.,0.,0.));
#1497=CARTESIAN_POINT('',(0.,60.,3.));
#1498=CARTESIAN_POINT('',(0.,60.,0.));
#1499=VECTOR('',#1500,1.);
#1500=DIRECTION('',(0.,0.,1.));
#1501=CARTESIAN_POINT('',(12.,60.,3.));
#1502=CARTESIAN_POINT('',(12.,60.,3.));
#1503=VECTOR('',#1504,1.);
#1504=DIRECTION('',(-1.,0.,0.));
#1505=CARTESIAN_POINT('',(12.,60.,53.));
#1506=CARTESIAN_POINT('',(12.,60.,53.));
#1507=VECTOR('',#1508,1.);
#1508=DIRECTION('',(0.,0.,-1.));
#1509=CARTESIAN_POINT('',(15.,60.,53.));
#1510=VECTOR('',#1511,1.);
#1511=DIRECTION('',(-1.,0.,0.));
#1512=CARTESIAN_POINT('',(25.,53.5,28.));
#1513=CARTESIAN_POINT('',(15.,53.5,18.));
#1514=VECTOR('',#1515,1.);
#1515=DIRECTION('',(0.707106781186547,0.,0.707106781186547));
#1516=CARTESIAN_POINT('',(25.,53.5,38.));
#1517=CARTESIAN_POINT('',(25.,53.5,28.));
#1518=VECTOR('',#1519,1.);
#1519=DIRECTION('',(0.,0.,1.));
#1520=CARTESIAN_POINT('',(25.,53.5,38.));
#1521=VECTOR('',#1522,1.);
#1522=DIRECTION('',(-1.,0.,0.));
#1523=CARTESIAN_POINT('',(62.,53.5,3.));
#1524=VECTOR('',#1525,1.);
#1525=DIRECTION('',(-0.707106781186548,0.,0.707106781186548));
#1526=CARTESIAN_POINT('',(62.,51.5,3.));
#1527=VECTOR('',#1528,1.);
#1528=DIRECTION('',(-0.707106781186548,0.,0.707106781186548));
#1529=CARTESIAN_POINT('',(15.,51.5,6.5));
#1530=CARTESIAN_POINT('',(12.,51.5,6.5));
#1531=CARTESIAN_POINT('',(15.,51.5,6.5));
#1532=VECTOR('',#1533,1.);
#1533=DIRECTION('',(-1.,0.,0.));
#1534=CARTESIAN_POINT('',(15.,51.5,3.));
#1535=VECTOR('',#1536,1.);
#1536=DIRECTION('',(0.,0.,1.));
#1537=CARTESIAN_POINT('',(12.,51.5,49.5));
#1538=CARTESIAN_POINT('',(15.,51.5,49.5));
#1539=VECTOR('',#1540,1.);
#1540=DIRECTION('',(-1.,0.,0.));
#1541=CARTESIAN_POINT('',(12.,51.5,49.5));
#1542=VECTOR('',#1543,1.);
#1543=DIRECTION('',(0.,0.,-1.));
#1544=CARTESIAN_POINT('',(15.,8.5,6.5));
#1545=CARTESIAN_POINT('',(15.,8.5,6.49999999999999));
#1546=VECTOR('',#1547,1.);
#1547=DIRECTION('',(0.,0.,-1.));
#1548=CARTESIAN_POINT('',(15.,51.5,6.5));
#1549=VECTOR('',#1550,1.);
#1550=DIRECTION('',(0.,-1.,-6.19659362581483E-17));
#1551=CARTESIAN_POINT('',(12.,8.5,49.5));
#1552=CARTESIAN_POINT('',(15.,8.5,49.5));
#1553=VECTOR('',#1554,1.);
#1554=DIRECTION('',(-1.,0.,0.));
#1555=CARTESIAN_POINT('',(12.,8.5,6.5));
#1556=CARTESIAN_POINT('',(15.,8.5,6.5));
#1557=VECTOR('',#1558,1.);
#1558=DIRECTION('',(-1.,0.,0.));
#1559=CARTESIAN_POINT('',(12.,8.5,6.5));
#1560=VECTOR('',#1561,1.);
#1561=DIRECTION('',(0.,-8.26212483441977E-17,1.));
#1562=CARTESIAN_POINT('',(168.535898384862,58.,3.));
#1563=VECTOR('',#1564,1.);
#1564=DIRECTION('',(0.500000000000005,-1.02558009940457E-15,0.866025403784436));
#1565=CARTESIAN_POINT('',(172.8,58.,6.));
#1566=AXIS2_PLACEMENT_3D('',#1567,#1568,#1569);
#1567=CARTESIAN_POINT('',(175.,58.,6.));
#1568=DIRECTION('',(1.1842378929335E-15,1.,0.));
#1569=DIRECTION('',(-1.,1.1842378929335E-15,-1.22464679914735E-16));
#1570=CARTESIAN_POINT('',(165.5,7.5,6.));
#1571=AXIS2_PLACEMENT_3D('',#1572,#1573,#1574);
#1572=CARTESIAN_POINT('',(165.5,5.,6.));
#1573=DIRECTION('',(0.,0.,1.));
#1574=DIRECTION('',(6.12323399573677E-17,1.,0.));
#1575=CARTESIAN_POINT('',(65.5,7.50000000000001,6.));
#1576=AXIS2_PLACEMENT_3D('',#1577,#1578,#1579);
#1577=CARTESIAN_POINT('',(65.5,5.00000000000001,6.));
#1578=DIRECTION('',(0.,0.,1.));
#1579=DIRECTION('',(6.12323399573677E-17,1.,0.));
#1580=CARTESIAN_POINT('',(165.5,57.5,6.));
#1581=AXIS2_PLACEMENT_3D('',#1582,#1583,#1584);
#1582=CARTESIAN_POINT('',(165.5,55.,6.));
#1583=DIRECTION('',(0.,0.,1.));
#1584=DIRECTION('',(6.12323399573677E-17,1.,0.));
#1585=CARTESIAN_POINT('',(65.5,57.5,6.));
#1586=AXIS2_PLACEMENT_3D('',#1587,#1588,#1589);
#1587=CARTESIAN_POINT('',(65.5,55.,6.));
#1588=DIRECTION('',(0.,0.,1.));
#1589=DIRECTION('',(6.12323399573677E-17,1.,0.));
#1590=CARTESIAN_POINT('',(25.,2.,38.));
#1591=CARTESIAN_POINT('',(15.,2.,38.));
#1592=VECTOR('',#1593,1.);
#1593=DIRECTION('',(1.,0.,0.));
#1594=CARTESIAN_POINT('',(25.,6.5,38.));
#1595=VECTOR('',#1596,1.);
#1596=DIRECTION('',(0.,-1.,0.));
#1597=CARTESIAN_POINT('',(25.,2.,28.));
#1598=CARTESIAN_POINT('',(25.,2.,38.));
#1599=VECTOR('',#1600,1.);
#1600=DIRECTION('',(0.,0.,-1.));
#1601=CARTESIAN_POINT('',(25.,2.,28.));
#1602=VECTOR('',#1603,1.);
#1603=DIRECTION('',(0.,1.,0.));
#1604=CARTESIAN_POINT('',(15.,2.,18.));
#1605=VECTOR('',#1606,1.);
#1606=DIRECTION('',(0.707106781186548,-4.71027737605133E-17,0.707106781186547));
#1607=CARTESIAN_POINT('',(22.2,2.,33.));
#1608=AXIS2_PLACEMENT_3D('',#1609,#1610,#1611);
#1609=CARTESIAN_POINT('',(20.,2.,33.));
#1610=DIRECTION('',(0.,-1.,0.));
#1611=DIRECTION('',(1.,0.,0.));
#1612=CARTESIAN_POINT('',(12.,8.5,49.5));
#1613=VECTOR('',#1614,1.);
#1614=DIRECTION('',(0.,1.,-3.30484993376791E-16));
#1615=CARTESIAN_POINT('',(25.,58.,38.));
#1616=CARTESIAN_POINT('',(25.,58.,38.));
#1617=VECTOR('',#1618,1.);
#1618=DIRECTION('',(0.,-1.,0.));
#1619=CARTESIAN_POINT('',(15.,58.,38.));
#1620=VECTOR('',#1621,1.);
#1621=DIRECTION('',(1.,0.,0.));
#1622=CARTESIAN_POINT('',(25.,58.,28.));
#1623=CARTESIAN_POINT('',(25.,58.,28.));
#1624=VECTOR('',#1625,1.);
#1625=DIRECTION('',(-0.707106781186548,0.,-0.707106781186547));
#1626=CARTESIAN_POINT('',(25.,58.,28.));
#1627=VECTOR('',#1628,1.);
#1628=DIRECTION('',(0.,0.,1.));
#1629=CARTESIAN_POINT('',(17.8,58.,33.));
#1630=AXIS2_PLACEMENT_3D('',#1631,#1632,#1633);
#1631=CARTESIAN_POINT('',(20.,58.,33.));
#1632=DIRECTION('',(0.,1.,0.));
#1633=DIRECTION('',(-1.,0.,-1.22464679914735E-16));
#1634=CARTESIAN_POINT('',(12.,-3.24531401774049E-15,53.));
#1635=VECTOR('',#1636,1.);
#1636=DIRECTION('',(0.,1.,0.));
#1637=CARTESIAN_POINT('',(12.,2.4,7.));
#1638=AXIS2_PLACEMENT_3D('',#1639,#1640,#1641);
#1639=CARTESIAN_POINT('',(12.,4.,7.));
#1640=DIRECTION('',(-1.,0.,0.));
#1641=DIRECTION('',(0.,-1.,-6.12323399573677E-17));
#1642=CARTESIAN_POINT('',(12.,2.4,49.));
#1643=AXIS2_PLACEMENT_3D('',#1644,#1645,#1646);
#1644=CARTESIAN_POINT('',(12.,4.,49.));
#1645=DIRECTION('',(-1.,0.,0.));
#1646=DIRECTION('',(0.,-1.,-6.12323399573677E-17));
#1647=CARTESIAN_POINT('',(12.,54.4,49.));
#1648=AXIS2_PLACEMENT_3D('',#1649,#1650,#1651);
#1649=CARTESIAN_POINT('',(12.,56.,49.));
#1650=DIRECTION('',(-1.,0.,0.));
#1651=DIRECTION('',(0.,-1.,-6.12323399573677E-17));
#1652=CARTESIAN_POINT('',(12.,54.4,7.));
#1653=AXIS2_PLACEMENT_3D('',#1654,#1655,#1656);
#1654=CARTESIAN_POINT('',(12.,56.,7.));
#1655=DIRECTION('',(-1.,0.,0.));
#1656=DIRECTION('',(0.,-1.,-6.12323399573677E-17));
#1657=CARTESIAN_POINT('',(0.,60.,0.));
#1658=VECTOR('',#1659,1.);
#1659=DIRECTION('',(0.,-1.,0.));
#1660=CARTESIAN_POINT('',(6.,48.4,0.));
#1661=AXIS2_PLACEMENT_3D('',#1662,#1663,#1664);
#1662=CARTESIAN_POINT('',(6.,50.,0.));
#1663=DIRECTION('',(0.,0.,1.));
#1664=DIRECTION('',(6.12323399573677E-17,-1.,0.));
#1665=CARTESIAN_POINT('',(6.,8.40000000000001,0.));
#1666=AXIS2_PLACEMENT_3D('',#1667,#1668,#1669);
#1667=CARTESIAN_POINT('',(6.,10.,0.));
#1668=DIRECTION('',(0.,0.,1.));
#1669=DIRECTION('',(6.12323399573677E-17,-1.,0.));
#1670=CARTESIAN_POINT('',(12.,60.,3.));
#1671=VECTOR('',#1672,1.);
#1672=DIRECTION('',(0.,-1.,0.));
#1673=CARTESIAN_POINT('',(12.,51.5,6.5));
#1674=VECTOR('',#1675,1.);
#1675=DIRECTION('',(0.,-1.,-6.19659362581483E-17));
#1676=CARTESIAN_POINT('',(0.,60.,3.));
#1677=VECTOR('',#1678,1.);
#1678=DIRECTION('',(0.,-1.,0.));
#1679=CARTESIAN_POINT('',(6.,48.4,3.));
#1680=AXIS2_PLACEMENT_3D('',#1681,#1682,#1683);
#1681=CARTESIAN_POINT('',(6.,50.,3.));
#1682=DIRECTION('',(0.,0.,1.));
#1683=DIRECTION('',(6.12323399573677E-17,-1.,0.));
#1684=CARTESIAN_POINT('',(6.,8.40000000000001,3.));
#1685=AXIS2_PLACEMENT_3D('',#1686,#1687,#1688);
#1686=CARTESIAN_POINT('',(6.,10.,3.));
#1687=DIRECTION('',(0.,0.,1.));
#1688=DIRECTION('',(6.12323399573677E-17,-1.,0.));
#1689=CARTESIAN_POINT('',(25.,53.5,28.));
#1690=VECTOR('',#1691,1.);
#1691=DIRECTION('',(0.,1.,0.));
#1692=CARTESIAN_POINT('',(172.8,48.,6.));
#1693=AXIS2_PLACEMENT_3D('',#1694,#1695,#1696);
#1694=CARTESIAN_POINT('',(175.,48.,6.));
#1695=DIRECTION('',(1.1842378929335E-15,1.,0.));
#1696=DIRECTION('',(-1.,1.1842378929335E-15,-1.22464679914735E-16));
#1697=CARTESIAN_POINT('',(165.5,6.1,6.));
#1698=AXIS2_PLACEMENT_3D('',#1699,#1700,#1701);
#1699=CARTESIAN_POINT('',(165.5,5.,6.));
#1700=DIRECTION('',(0.,0.,1.));
#1701=DIRECTION('',(6.12323399573677E-17,1.,0.));
#1702=CARTESIAN_POINT('',(65.5,6.10000000000001,6.));
#1703=AXIS2_PLACEMENT_3D('',#1704,#1705,#1706);
#1704=CARTESIAN_POINT('',(65.5,5.00000000000001,6.));
#1705=DIRECTION('',(0.,0.,1.));
#1706=DIRECTION('',(6.12323399573677E-17,1.,0.));
#1707=CARTESIAN_POINT('',(165.5,56.1,6.));
#1708=AXIS2_PLACEMENT_3D('',#1709,#1710,#1711);
#1709=CARTESIAN_POINT('',(165.5,55.,6.));
#1710=DIRECTION('',(0.,0.,1.));
#1711=DIRECTION('',(6.12323399573677E-17,1.,0.));
#1712=CARTESIAN_POINT('',(65.5,56.1,6.));
#1713=AXIS2_PLACEMENT_3D('',#1714,#1715,#1716);
#1714=CARTESIAN_POINT('',(65.5,55.,6.));
#1715=DIRECTION('',(0.,0.,1.));
#1716=DIRECTION('',(6.12323399573677E-17,1.,0.));
#1717=CARTESIAN_POINT('',(22.2,7.,33.));
#1718=AXIS2_PLACEMENT_3D('',#1719,#1720,#1721);
#1719=CARTESIAN_POINT('',(20.,7.,33.));
#1720=DIRECTION('',(0.,-1.,0.));
#1721=DIRECTION('',(1.,0.,0.));
#1722=CARTESIAN_POINT('',(17.8,53.,33.));
#1723=AXIS2_PLACEMENT_3D('',#1724,#1725,#1726);
#1724=CARTESIAN_POINT('',(20.,53.,33.));
#1725=DIRECTION('',(0.,1.,0.));
#1726=DIRECTION('',(-1.,0.,-1.22464679914735E-16));
#1727=CARTESIAN_POINT('',(165.5,6.1,1.));
#1728=AXIS2_PLACEMENT_3D('',#1729,#1730,#1731);
#1729=CARTESIAN_POINT('',(165.5,5.,1.));
#1730=DIRECTION('',(0.,0.,1.));
#1731=DIRECTION('',(6.12323399573677E-17,1.,0.));
#1732=CARTESIAN_POINT('',(65.5,6.10000000000001,1.));
#1733=AXIS2_PLACEMENT_3D('',#1734,#1735,#1736);
#1734=CARTESIAN_POINT('',(65.5,5.00000000000001,1.));
#1735=DIRECTION('',(0.,0.,1.));
#1736=DIRECTION('',(6.12323399573677E-17,1.,0.));
#1737=CARTESIAN_POINT('',(165.5,56.1,1.));
#1738=AXIS2_PLACEMENT_3D('',#1739,#1740,#1741);
#1739=CARTESIAN_POINT('',(165.5,55.,1.));
#1740=DIRECTION('',(0.,0.,1.));
#1741=DIRECTION('',(6.12323399573677E-17,1.,0.));
#1742=CARTESIAN_POINT('',(65.5,56.1,1.));
#1743=AXIS2_PLACEMENT_3D('',#1744,#1745,#1746);
#1744=CARTESIAN_POINT('',(65.5,55.,1.));
#1745=DIRECTION('',(0.,0.,1.));
#1746=DIRECTION('',(6.12323399573677E-17,1.,0.));
ENDSEC;
END-ISO-10303-21;
