M48
; DRILL file KiCad 10.0.3 date 2026-06-15T22:08:30
; FORMAT={-:-/ absolute / metric / decimal}
; #@! TF.CreationDate,2026-06-15T22:08:30+03:00
; #@! TF.GenerationSoftware,Kicad,Pcbnew,10.0.3
; #@! TF.FileFunction,MixedPlating,1,2
FMAT,2
METRIC
; #@! TA.AperFunction,Plated,PTH,ViaDrill
T1C0.800
; #@! TA.AperFunction,Plated,PTH,ComponentDrill
T2C0.950
; #@! TA.AperFunction,Plated,PTH,ComponentDrill
T3C1.000
; #@! TA.AperFunction,Plated,PTH,ComponentDrill
T4C1.300
; #@! TA.AperFunction,Plated,PTH,ViaDrill
T5C2.000
%
G90
G05
T1
X53.95Y77.431
X60.0Y85.241
X61.0Y101.0
X61.76Y94.5
X66.31Y78.002
X68.0Y99.0
X70.0Y95.0
X71.0Y85.0
X73.0Y97.0
X74.0Y104.0
X75.0Y77.0
X76.0Y60.0
X77.06Y106.94
X88.0Y59.0
X95.0Y54.0
X98.0Y111.0
T2
X70.5Y116.0
X73.0Y116.0
X75.5Y116.0
X78.0Y116.0
T3
X58.69Y75.415
X61.23Y56.585
X61.23Y75.415
X63.77Y56.585
X63.77Y75.415
X66.31Y75.415
X72.0Y53.0
X72.0Y55.54
X79.76Y58.68
X79.76Y61.22
X79.76Y63.76
X79.76Y66.3
X79.76Y68.84
X79.76Y71.38
X79.76Y73.92
X79.76Y76.46
X79.76Y79.0
X79.76Y81.54
X79.76Y84.08
X79.76Y86.62
X79.76Y89.16
X79.76Y91.7
X79.76Y94.24
X79.76Y96.78
X79.76Y99.32
X79.76Y101.86
X79.76Y104.4
X79.76Y106.94
X87.5Y115.0
X90.0Y115.0
X95.0Y58.68
X95.0Y61.22
X95.0Y63.76
X95.0Y66.3
X95.0Y68.84
X95.0Y71.38
X95.0Y73.92
X95.0Y76.46
X95.0Y79.0
X95.0Y81.54
X95.0Y84.08
X95.0Y86.62
X95.0Y89.16
X95.0Y91.7
X95.0Y94.24
X95.0Y96.78
X95.0Y99.32
X95.0Y101.86
X95.0Y104.4
X95.0Y106.94
T4
X56.92Y115.0
X62.0Y115.0
T5
X52.5Y52.5
X52.5Y117.5
X97.5Y52.5
X97.5Y117.5
M30
