M48
; DRILL file KiCad 10.0.3 date 2026-06-12T16:49:42
; FORMAT={-:-/ absolute / metric / decimal}
; #@! TF.CreationDate,2026-06-12T16:49:42+03:00
; #@! TF.GenerationSoftware,Kicad,Pcbnew,10.0.3
; #@! TF.FileFunction,MixedPlating,1,2
FMAT,2
METRIC
; #@! TA.AperFunction,Plated,PTH,ViaDrill
T1C0.800
; #@! TA.AperFunction,Plated,PTH,ComponentDrill
T2C0.800
; #@! TA.AperFunction,Plated,PTH,ComponentDrill
T3C0.950
; #@! TA.AperFunction,Plated,PTH,ComponentDrill
T4C1.000
; #@! TA.AperFunction,Plated,PTH,ViaDrill
T5C2.000
%
G90
G05
T1
X44.0Y41.0
X44.0Y55.0
X52.5Y37.5
X53.888Y75.009
X54.79Y65.762
X55.119Y80.119
X67.51Y66.258
X68.005Y32.345
X68.005Y41.853
X68.201Y80.304
X69.257Y70.544
X72.281Y83.926
X72.605Y41.853
X72.605Y122.877
X76.345Y69.593
X77.252Y65.762
X79.197Y80.108
X81.957Y70.479
X85.453Y70.327
X90.95Y46.635
T2
X73.64Y48.61
X73.64Y51.15
X73.64Y53.69
X73.64Y56.23
X73.64Y58.77
X73.64Y61.31
X73.64Y63.85
X73.64Y66.39
X85.0Y75.0
X86.34Y48.61
X86.34Y51.15
X86.34Y53.69
X86.34Y56.23
X86.34Y58.77
X86.34Y61.31
X86.34Y63.85
X86.34Y66.39
X87.5Y75.0
T3
X42.5Y45.0
X42.5Y47.5
X42.5Y50.0
X45.0Y130.0
X47.5Y130.0
X50.0Y130.0
X52.5Y130.0
X76.25Y38.025
X78.75Y38.025
X81.25Y38.025
X83.75Y38.025
T4
X44.76Y85.0
X47.3Y85.0
X47.5Y35.0
X47.5Y37.54
X47.5Y40.08
X47.5Y42.62
X47.5Y45.16
X47.5Y47.7
X47.5Y50.24
X47.5Y52.78
X47.5Y55.32
X47.5Y57.86
X47.5Y60.4
X47.5Y62.94
X47.5Y65.48
X47.5Y68.02
X47.5Y70.56
X49.84Y85.0
X49.84Y120.44
X52.38Y85.0
X54.92Y85.0
X54.92Y120.44
X57.46Y85.0
X60.0Y85.0
X62.74Y35.0
X62.74Y37.54
X62.74Y40.08
X62.74Y42.62
X62.74Y45.16
X62.74Y47.7
X62.74Y50.24
X62.74Y52.78
X62.74Y55.32
X62.74Y57.86
X62.74Y60.4
X62.74Y62.94
X62.74Y65.48
X62.74Y68.02
X62.74Y70.56
X72.34Y128.18
X77.42Y128.18
X82.5Y85.0
X87.58Y85.0
T5
X40.0Y32.5
X40.0Y132.5
X90.0Y32.5
X90.0Y132.5
M30
