ISO-10303-21;
HEADER;
FILE_DESCRIPTION(('STEP AP242'),
    '1');
FILE_NAME('Corner',
    '',
    ('UNSPECIFIED'),
    ('UNSPECIFIED'),
    'C3D Converter',
    'C3D Toolkit',
    '');
FILE_SCHEMA(('AP242_MANAGED_MODEL_BASED_3D_ENGINEERING_MIM_LF { 1 0 10303 442 1 1 4 }'));
ENDSEC;

DATA;
#1=PRODUCT_DEFINITION('','UNSPECIFIED',#28,#31);
#2=SHAPE_DEFINITION_REPRESENTATION(#26,#3);
#3=SHAPE_REPRESENTATION('NONE',(#4),#8);
#4=AXIS2_PLACEMENT_3D('',#5,#6,#7);
#5=CARTESIAN_POINT('',(0.,0.,0.));
#6=DIRECTION('',(0.,0.,1.));
#7=DIRECTION('',(1.,0.,0.));
#8=(GEOMETRIC_REPRESENTATION_CONTEXT(3)GLOBAL_UNCERTAINTY_ASSIGNED_CONTEXT((#10))
GLOBAL_UNIT_ASSIGNED_CONTEXT((#9,#11,#12))REPRESENTATION_CONTEXT('NONE','NONE'));
#9=(LENGTH_UNIT()NAMED_UNIT(*)SI_UNIT(.MILLI.,.METRE.));
#10=UNCERTAINTY_MEASURE_WITH_UNIT(LENGTH_MEASURE(1.E-5),#9,'NONE','NONE');
#11=(NAMED_UNIT(*)PLANE_ANGLE_UNIT()SI_UNIT($,.RADIAN.));
#12=(NAMED_UNIT(*)SI_UNIT($,.STERADIAN.)SOLID_ANGLE_UNIT());
#13=MANIFOLD_SOLID_BREP('',#14);
#14=CLOSED_SHELL('',(#53,#54,#55,#56,#57,#58,#59,#60,#61,#62,#63,#64,#65,#66,#67,
#68,#69,#70,#71,#72,#73,#74,#75,#76,#77,#78,#79,#80,#81,#82,#83,#84,#85,#86,#87,
#88,#89,#90,#91));
#15=COLOUR_RGB('',0.564705882352941,0.564705882352941,0.564705882352941);
#16=FILL_AREA_STYLE_COLOUR('',#15);
#17=FILL_AREA_STYLE($,(#16));
#18=SURFACE_STYLE_FILL_AREA(#17);
#19=SURFACE_SIDE_STYLE('',(#18));
#20=SURFACE_STYLE_USAGE(.BOTH.,#19);
#21=PRESENTATION_STYLE_ASSIGNMENT((#20));
#22=MECHANICAL_DESIGN_GEOMETRIC_PRESENTATION_REPRESENTATION('NONE',(#23),#8);
#23=STYLED_ITEM('',(#21),#13);
#24=ADVANCED_BREP_SHAPE_REPRESENTATION('NONE',(#13),#8);
#25=SHAPE_REPRESENTATION_RELATIONSHIP('','',#3,#24);
#26=PRODUCT_DEFINITION_SHAPE('NONE','NONE',#1);
#27=MECHANICAL_CONTEXT('NONE',#32,'mechanical');
#28=PRODUCT_DEFINITION_FORMATION_WITH_SPECIFIED_SOURCE('ANY','UNSPECIFIED',#29,.NOT_KNOWN.);
#29=PRODUCT('','\X2\0414043504420430043B044C\X0\','NONE',(#27));
#30=PRODUCT_RELATED_PRODUCT_CATEGORY('detail','',(#29));
#31=DESIGN_CONTEXT('detailed design',#32,'design');
#32=APPLICATION_CONTEXT('configuration controlled 3d designs of mechanical parts and assemblies');
#33=APPLICATION_PROTOCOL_DEFINITION('international standard','config_control_design',
1994,#32);
#34=CC_DESIGN_DATE_AND_TIME_ASSIGNMENT(#35,#39,(#1));
#35=DATE_AND_TIME(#36,#37);
#36=CALENDAR_DATE(0,1,1);
#37=LOCAL_TIME(0,0,0.,#38);
#38=COORDINATED_UNIVERSAL_TIME_OFFSET(0,0,.AHEAD.);
#39=DATE_TIME_ROLE('creation_date');
#40=CC_DESIGN_APPROVAL(#41,(#1));
#41=APPROVAL(#42,'UNSPECIFIED');
#42=APPROVAL_STATUS('not_yet_approved');
#43=APPROVAL_DATE_TIME(#44,#41);
#44=DATE_AND_TIME(#45,#46);
#45=CALENDAR_DATE(0,1,1);
#46=LOCAL_TIME(0,0,0.,#47);
#47=COORDINATED_UNIVERSAL_TIME_OFFSET(0,0,.AHEAD.);
#48=PERSON('UNSPECIFIED','Cybermeatball','UNSPECIFIED',('UNSPECIFIED'),('UNSPECIFIED'),
('UNSPECIFIED'));
#49=ORGANIZATION('UNSPECIFIED','UNSPECIFIED','UNSPECIFIED');
#50=PERSON_AND_ORGANIZATION(#48,#49);
#51=PERSON_AND_ORGANIZATION_ROLE('creator');
#52=CC_DESIGN_PERSON_AND_ORGANIZATION_ASSIGNMENT(#50,#51,(#28,#1));
#53=ADVANCED_FACE('',(#92,#94),#96,.F.);
#54=ADVANCED_FACE('',(#101,#103,#105),#107,.T.);
#55=ADVANCED_FACE('',(#112,#114),#116,.F.);
#56=ADVANCED_FACE('',(#121,#123),#125,.F.);
#57=ADVANCED_FACE('',(#130,#132),#134,.F.);
#58=ADVANCED_FACE('',(#139),#141,.T.);
#59=ADVANCED_FACE('',(#146,#148),#150,.F.);
#60=ADVANCED_FACE('',(#155),#157,.T.);
#61=ADVANCED_FACE('',(#162),#164,.F.);
#62=ADVANCED_FACE('',(#169),#171,.F.);
#63=ADVANCED_FACE('',(#176),#178,.F.);
#64=ADVANCED_FACE('',(#183),#185,.F.);
#65=ADVANCED_FACE('',(#190),#192,.T.);
#66=ADVANCED_FACE('',(#197,#199,#201),#203,.F.);
#67=ADVANCED_FACE('',(#208,#210,#212),#214,.T.);
#68=ADVANCED_FACE('',(#219),#221,.F.);
#69=ADVANCED_FACE('',(#226),#228,.F.);
#70=ADVANCED_FACE('',(#233,#235),#237,.F.);
#71=ADVANCED_FACE('',(#242),#244,.F.);
#72=ADVANCED_FACE('',(#249),#251,.F.);
#73=ADVANCED_FACE('',(#256),#258,.F.);
#74=ADVANCED_FACE('',(#263,#265),#267,.F.);
#75=ADVANCED_FACE('',(#272),#274,.F.);
#76=ADVANCED_FACE('',(#279),#281,.F.);
#77=ADVANCED_FACE('',(#286),#288,.F.);
#78=ADVANCED_FACE('',(#293),#295,.F.);
#79=ADVANCED_FACE('',(#300),#302,.F.);
#80=ADVANCED_FACE('',(#307),#309,.T.);
#81=ADVANCED_FACE('',(#314,#316),#318,.F.);
#82=ADVANCED_FACE('',(#323,#325),#327,.F.);
#83=ADVANCED_FACE('',(#332),#334,.F.);
#84=ADVANCED_FACE('',(#339,#341),#343,.F.);
#85=ADVANCED_FACE('',(#348),#350,.T.);
#86=ADVANCED_FACE('',(#355),#357,.F.);
#87=ADVANCED_FACE('',(#362,#364),#366,.F.);
#88=ADVANCED_FACE('',(#371),#373,.F.);
#89=ADVANCED_FACE('',(#378),#380,.F.);
#90=ADVANCED_FACE('',(#385,#387),#389,.F.);
#91=ADVANCED_FACE('',(#394),#396,.F.);
#92=FACE_BOUND('',#93,.T.);
#93=EDGE_LOOP('',(#401,#402,#403,#404,#405,#406));
#94=FACE_BOUND('',#95,.T.);
#95=EDGE_LOOP('',(#407));
#96=PLANE('',#97);
#97=AXIS2_PLACEMENT_3D('',#98,#99,#100);
#98=CARTESIAN_POINT('',(57.,36.5,4.));
#99=DIRECTION('',(1.,0.,0.));
#100=DIRECTION('',(0.,1.,0.));
#101=FACE_BOUND('',#102,.T.);
#102=EDGE_LOOP('',(#408,#409,#410,#411,#412,#413,#414));
#103=FACE_BOUND('',#104,.T.);
#104=EDGE_LOOP('',(#415));
#105=FACE_BOUND('',#106,.T.);
#106=EDGE_LOOP('',(#416));
#107=PLANE('',#108);
#108=AXIS2_PLACEMENT_3D('',#109,#110,#111);
#109=CARTESIAN_POINT('',(60.,3.5527136788005E-15,0.));
#110=DIRECTION('',(1.,0.,0.));
#111=DIRECTION('',(0.,1.,0.));
#112=FACE_BOUND('',#113,.T.);
#113=EDGE_LOOP('',(#417,#418,#419,#420,#421,#422));
#114=FACE_BOUND('',#115,.T.);
#115=EDGE_LOOP('',(#423));
#116=PLANE('',#117);
#117=AXIS2_PLACEMENT_3D('',#118,#119,#120);
#118=CARTESIAN_POINT('',(57.,56.,3.));
#119=DIRECTION('',(1.,0.,0.));
#120=DIRECTION('',(0.,0.,1.));
#121=FACE_OUTER_BOUND('',#122,.T.);
#122=EDGE_LOOP('',(#424));
#123=FACE_OUTER_BOUND('',#124,.T.);
#124=EDGE_LOOP('',(#425));
#125=CYLINDRICAL_SURFACE('',#126,1.5);
#126=AXIS2_PLACEMENT_3D('',#127,#128,#129);
#127=CARTESIAN_POINT('',(60.,25.,13.5));
#128=DIRECTION('',(-1.,0.,0.));
#129=DIRECTION('',(0.,-1.,-6.12323399573676E-17));
#130=FACE_OUTER_BOUND('',#131,.T.);
#131=EDGE_LOOP('',(#426));
#132=FACE_OUTER_BOUND('',#133,.T.);
#133=EDGE_LOOP('',(#427));
#134=CYLINDRICAL_SURFACE('',#135,1.5);
#135=AXIS2_PLACEMENT_3D('',#136,#137,#138);
#136=CARTESIAN_POINT('',(60.,46.5,35.));
#137=DIRECTION('',(-1.,0.,0.));
#138=DIRECTION('',(0.,-1.,-6.12323399573676E-17));
#139=FACE_BOUND('',#140,.T.);
#140=EDGE_LOOP('',(#428,#429,#430,#431,#432,#433));
#141=PLANE('',#142);
#142=AXIS2_PLACEMENT_3D('',#143,#144,#145);
#143=CARTESIAN_POINT('',(0.,0.,60.));
#144=DIRECTION('',(0.,0.,1.));
#145=DIRECTION('',(1.,0.,0.));
#146=FACE_BOUND('',#147,.T.);
#147=EDGE_LOOP('',(#434,#435,#436,#437,#438,#439));
#148=FACE_BOUND('',#149,.T.);
#149=EDGE_LOOP('',(#440));
#150=PLANE('',#151);
#151=AXIS2_PLACEMENT_3D('',#152,#153,#154);
#152=CARTESIAN_POINT('',(57.,57.,4.));
#153=DIRECTION('',(0.,1.,0.));
#154=DIRECTION('',(-1.,0.,0.));
#155=FACE_BOUND('',#156,.T.);
#156=EDGE_LOOP('',(#441,#442,#443,#444,#445,#446));
#157=PLANE('',#158);
#158=AXIS2_PLACEMENT_3D('',#159,#160,#161);
#159=CARTESIAN_POINT('',(0.,0.,25.));
#160=DIRECTION('',(0.,0.,1.));
#161=DIRECTION('',(1.,0.,0.));
#162=FACE_BOUND('',#163,.T.);
#163=EDGE_LOOP('',(#447,#448,#449,#450));
#164=PLANE('',#165);
#165=AXIS2_PLACEMENT_3D('',#166,#167,#168);
#166=CARTESIAN_POINT('',(55.,36.5,4.));
#167=DIRECTION('',(0.,-1.,0.));
#168=DIRECTION('',(1.,0.,0.));
#169=FACE_BOUND('',#170,.T.);
#170=EDGE_LOOP('',(#451,#452,#453,#454,#455,#456,#457,#458));
#171=PLANE('',#172);
#172=AXIS2_PLACEMENT_3D('',#173,#174,#175);
#173=CARTESIAN_POINT('',(0.,10.,20.));
#174=DIRECTION('',(0.,0.707106781186547,-0.707106781186548));
#175=DIRECTION('',(0.,0.707106781186548,0.707106781186547));
#176=FACE_BOUND('',#177,.T.);
#177=EDGE_LOOP('',(#459,#460,#461,#462));
#178=PLANE('',#179);
#179=AXIS2_PLACEMENT_3D('',#180,#181,#182);
#180=CARTESIAN_POINT('',(0.,40.,50.));
#181=DIRECTION('',(0.,1.,7.105427357601E-16));
#182=DIRECTION('',(0.,-7.105427357601E-16,1.));
#183=FACE_BOUND('',#184,.T.);
#184=EDGE_LOOP('',(#463,#464,#465,#466));
#185=PLANE('',#186);
#186=AXIS2_PLACEMENT_3D('',#187,#188,#189);
#187=CARTESIAN_POINT('',(0.,3.78156122784489E-15,20.));
#188=DIRECTION('',(0.,0.,-1.));
#189=DIRECTION('',(0.,1.,0.));
#190=FACE_BOUND('',#191,.T.);
#191=EDGE_LOOP('',(#467,#468,#469,#470,#471,#472));
#192=PLANE('',#193);
#193=AXIS2_PLACEMENT_3D('',#194,#195,#196);
#194=CARTESIAN_POINT('',(0.,0.,0.));
#195=DIRECTION('',(0.,-1.,0.));
#196=DIRECTION('',(1.,0.,0.));
#197=FACE_BOUND('',#198,.T.);
#198=EDGE_LOOP('',(#473,#474,#475,#476,#477,#478,#479));
#199=FACE_BOUND('',#200,.T.);
#200=EDGE_LOOP('',(#480));
#201=FACE_BOUND('',#202,.T.);
#202=EDGE_LOOP('',(#481));
#203=PLANE('',#204);
#204=AXIS2_PLACEMENT_3D('',#205,#206,#207);
#205=CARTESIAN_POINT('',(0.,0.,0.));
#206=DIRECTION('',(0.,0.,1.));
#207=DIRECTION('',(1.,0.,0.));
#208=FACE_BOUND('',#209,.T.);
#209=EDGE_LOOP('',(#482,#483,#484,#485,#486,#487,#488));
#210=FACE_BOUND('',#211,.T.);
#211=EDGE_LOOP('',(#489));
#212=FACE_BOUND('',#213,.T.);
#213=EDGE_LOOP('',(#490));
#214=PLANE('',#215);
#215=AXIS2_PLACEMENT_3D('',#216,#217,#218);
#216=CARTESIAN_POINT('',(60.,60.,0.));
#217=DIRECTION('',(0.,1.,0.));
#218=DIRECTION('',(-1.,0.,0.));
#219=FACE_BOUND('',#220,.T.);
#220=EDGE_LOOP('',(#491,#492,#493,#494));
#221=PLANE('',#222);
#222=AXIS2_PLACEMENT_3D('',#223,#224,#225);
#223=CARTESIAN_POINT('',(57.,56.,23.5));
#224=DIRECTION('',(0.,0.,1.));
#225=DIRECTION('',(-1.,0.,0.));
#226=FACE_BOUND('',#227,.T.);
#227=EDGE_LOOP('',(#495,#496,#497,#498,#499,#500));
#228=PLANE('',#229);
#229=AXIS2_PLACEMENT_3D('',#230,#231,#232);
#230=CARTESIAN_POINT('',(55.,35.,-1.));
#231=DIRECTION('',(0.,1.,0.));
#232=DIRECTION('',(-1.,0.,0.));
#233=FACE_BOUND('',#234,.T.);
#234=EDGE_LOOP('',(#501,#502,#503,#504,#505,#506));
#235=FACE_BOUND('',#236,.T.);
#236=EDGE_LOOP('',(#507));
#237=PLANE('',#238);
#238=AXIS2_PLACEMENT_3D('',#239,#240,#241);
#239=CARTESIAN_POINT('',(36.5,56.,3.));
#240=DIRECTION('',(4.33257765707378E-17,0.,-1.));
#241=DIRECTION('',(1.,0.,4.33257765707378E-17));
#242=FACE_BOUND('',#243,.T.);
#243=EDGE_LOOP('',(#508,#509,#510,#511));
#244=PLANE('',#245);
#245=AXIS2_PLACEMENT_3D('',#246,#247,#248);
#246=CARTESIAN_POINT('',(40.,-7.105427357601E-15,60.));
#247=DIRECTION('',(1.,0.,0.));
#248=DIRECTION('',(0.,0.,-1.));
#249=FACE_BOUND('',#250,.T.);
#250=EDGE_LOOP('',(#512,#513,#514,#515,#516,#517,#518,#519));
#251=PLANE('',#252);
#252=AXIS2_PLACEMENT_3D('',#253,#254,#255);
#253=CARTESIAN_POINT('',(40.,-7.105427357601E-15,50.));
#254=DIRECTION('',(0.707106781186547,0.,-0.707106781186547));
#255=DIRECTION('',(-0.707106781186548,0.,-0.707106781186548));
#256=FACE_BOUND('',#257,.T.);
#257=EDGE_LOOP('',(#520,#521,#522,#523));
#258=PLANE('',#259);
#259=AXIS2_PLACEMENT_3D('',#260,#261,#262);
#260=CARTESIAN_POINT('',(36.5,57.,4.));
#261=DIRECTION('',(-1.,0.,0.));
#262=DIRECTION('',(0.,-1.,0.));
#263=FACE_OUTER_BOUND('',#264,.T.);
#264=EDGE_LOOP('',(#524));
#265=FACE_OUTER_BOUND('',#266,.T.);
#266=EDGE_LOOP('',(#525));
#267=CYLINDRICAL_SURFACE('',#268,1.5);
#268=AXIS2_PLACEMENT_3D('',#269,#270,#271);
#269=CARTESIAN_POINT('',(46.5,60.,35.));
#270=DIRECTION('',(0.,-1.,0.));
#271=DIRECTION('',(1.,0.,0.));
#272=FACE_BOUND('',#273,.T.);
#273=EDGE_LOOP('',(#526,#527,#528,#529,#530,#531,#532));
#274=PLANE('',#275);
#275=AXIS2_PLACEMENT_3D('',#276,#277,#278);
#276=CARTESIAN_POINT('',(55.,55.,-1.));
#277=DIRECTION('',(0.,1.,0.));
#278=DIRECTION('',(-1.,0.,0.));
#279=FACE_BOUND('',#280,.T.);
#280=EDGE_LOOP('',(#533,#534,#535,#536,#537,#538,#539));
#281=PLANE('',#282);
#282=AXIS2_PLACEMENT_3D('',#283,#284,#285);
#283=CARTESIAN_POINT('',(55.,8.88178419700125E-16,-1.));
#284=DIRECTION('',(1.,0.,0.));
#285=DIRECTION('',(0.,1.,0.));
#286=FACE_BOUND('',#287,.T.);
#287=EDGE_LOOP('',(#540,#541,#542,#543));
#288=PLANE('',#289);
#289=AXIS2_PLACEMENT_3D('',#290,#291,#292);
#290=CARTESIAN_POINT('',(40.,-6.197237992529E-16,0.));
#291=DIRECTION('',(1.,0.,0.));
#292=DIRECTION('',(0.,1.,0.));
#293=FACE_BOUND('',#294,.T.);
#294=EDGE_LOOP('',(#544,#545,#546,#547,#548,#549,#550,#551));
#295=PLANE('',#296);
#296=AXIS2_PLACEMENT_3D('',#297,#298,#299);
#297=CARTESIAN_POINT('',(40.,10.,0.));
#298=DIRECTION('',(0.707106781186547,0.707106781186547,0.));
#299=DIRECTION('',(-0.707106781186547,0.707106781186547,0.));
#300=FACE_BOUND('',#301,.T.);
#301=EDGE_LOOP('',(#552,#553,#554,#555));
#302=PLANE('',#303);
#303=AXIS2_PLACEMENT_3D('',#304,#305,#306);
#304=CARTESIAN_POINT('',(10.,40.,0.));
#305=DIRECTION('',(0.,1.,0.));
#306=DIRECTION('',(-1.,0.,0.));
#307=FACE_BOUND('',#308,.T.);
#308=EDGE_LOOP('',(#556,#557,#558,#559,#560,#561));
#309=PLANE('',#310);
#310=AXIS2_PLACEMENT_3D('',#311,#312,#313);
#311=CARTESIAN_POINT('',(0.,60.,0.));
#312=DIRECTION('',(-1.,0.,0.));
#313=DIRECTION('',(0.,-1.,0.));
#314=FACE_OUTER_BOUND('',#315,.T.);
#315=EDGE_LOOP('',(#562));
#316=FACE_OUTER_BOUND('',#317,.T.);
#317=EDGE_LOOP('',(#563));
#318=CYLINDRICAL_SURFACE('',#319,1.5);
#319=AXIS2_PLACEMENT_3D('',#320,#321,#322);
#320=CARTESIAN_POINT('',(46.5,25.,2.01464861053931E-15));
#321=DIRECTION('',(-4.33257765707378E-17,0.,1.));
#322=DIRECTION('',(1.,0.,4.33257765707378E-17));
#323=FACE_OUTER_BOUND('',#324,.T.);
#324=EDGE_LOOP('',(#564));
#325=FACE_OUTER_BOUND('',#326,.T.);
#326=EDGE_LOOP('',(#565));
#327=CYLINDRICAL_SURFACE('',#328,1.5);
#328=AXIS2_PLACEMENT_3D('',#329,#330,#331);
#329=CARTESIAN_POINT('',(25.,46.5,1.08314441426845E-15));
#330=DIRECTION('',(-4.33257765707378E-17,0.,1.));
#331=DIRECTION('',(1.,0.,4.33257765707378E-17));
#332=FACE_BOUND('',#333,.T.);
#333=EDGE_LOOP('',(#566,#567,#568,#569));
#334=PLANE('',#335);
#335=AXIS2_PLACEMENT_3D('',#336,#337,#338);
#336=CARTESIAN_POINT('',(0.,3.78156122784489E-15,20.));
#337=DIRECTION('',(0.,0.,-1.));
#338=DIRECTION('',(0.,1.,0.));
#339=FACE_OUTER_BOUND('',#340,.T.);
#340=EDGE_LOOP('',(#570));
#341=FACE_OUTER_BOUND('',#342,.T.);
#342=EDGE_LOOP('',(#571));
#343=CYLINDRICAL_SURFACE('',#344,1.5);
#344=AXIS2_PLACEMENT_3D('',#345,#346,#347);
#345=CARTESIAN_POINT('',(25.,60.,13.5));
#346=DIRECTION('',(0.,-1.,0.));
#347=DIRECTION('',(1.,0.,0.));
#348=FACE_BOUND('',#349,.T.);
#349=EDGE_LOOP('',(#572,#573,#574,#575,#576,#577,#578));
#350=PLANE('',#351);
#351=AXIS2_PLACEMENT_3D('',#352,#353,#354);
#352=CARTESIAN_POINT('',(0.,0.,5.));
#353=DIRECTION('',(0.,0.,1.));
#354=DIRECTION('',(1.,0.,0.));
#355=FACE_BOUND('',#356,.T.);
#356=EDGE_LOOP('',(#579,#580,#581,#582));
#357=PLANE('',#358);
#358=AXIS2_PLACEMENT_3D('',#359,#360,#361);
#359=CARTESIAN_POINT('',(36.5,56.,5.));
#360=DIRECTION('',(-1.,0.,0.));
#361=DIRECTION('',(0.,0.,-1.));
#362=FACE_BOUND('',#363,.T.);
#363=EDGE_LOOP('',(#583,#584,#585,#586,#587,#588));
#364=FACE_BOUND('',#365,.T.);
#365=EDGE_LOOP('',(#589));
#366=PLANE('',#367);
#367=AXIS2_PLACEMENT_3D('',#368,#369,#370);
#368=CARTESIAN_POINT('',(56.,57.,23.5));
#369=DIRECTION('',(0.,1.,0.));
#370=DIRECTION('',(0.,0.,-1.));
#371=FACE_BOUND('',#372,.T.);
#372=EDGE_LOOP('',(#590,#591,#592,#593));
#373=PLANE('',#374);
#374=AXIS2_PLACEMENT_3D('',#375,#376,#377);
#375=CARTESIAN_POINT('',(56.,55.,23.5));
#376=DIRECTION('',(0.,0.,1.));
#377=DIRECTION('',(0.,1.,0.));
#378=FACE_BOUND('',#379,.T.);
#379=EDGE_LOOP('',(#594,#595,#596,#597,#598,#599));
#380=PLANE('',#381);
#381=AXIS2_PLACEMENT_3D('',#382,#383,#384);
#382=CARTESIAN_POINT('',(35.,8.88178419700125E-16,-1.));
#383=DIRECTION('',(1.,0.,0.));
#384=DIRECTION('',(0.,1.,0.));
#385=FACE_BOUND('',#386,.T.);
#386=EDGE_LOOP('',(#600,#601,#602,#603,#604,#605));
#387=FACE_BOUND('',#388,.T.);
#388=EDGE_LOOP('',(#606));
#389=PLANE('',#390);
#390=AXIS2_PLACEMENT_3D('',#391,#392,#393);
#391=CARTESIAN_POINT('',(56.,57.,3.));
#392=DIRECTION('',(0.,8.66515531414756E-17,-1.));
#393=DIRECTION('',(0.,-1.,-8.66515531414756E-17));
#394=FACE_BOUND('',#395,.T.);
#395=EDGE_LOOP('',(#607,#608,#609,#610));
#396=PLANE('',#397);
#397=AXIS2_PLACEMENT_3D('',#398,#399,#400);
#398=CARTESIAN_POINT('',(56.,36.5,3.));
#399=DIRECTION('',(0.,-1.,0.));
#400=DIRECTION('',(0.,0.,1.));
#401=ORIENTED_EDGE('',*,*,#611,.F.);
#402=ORIENTED_EDGE('',*,*,#612,.F.);
#403=ORIENTED_EDGE('',*,*,#613,.T.);
#404=ORIENTED_EDGE('',*,*,#614,.T.);
#405=ORIENTED_EDGE('',*,*,#615,.F.);
#406=ORIENTED_EDGE('',*,*,#616,.F.);
#407=ORIENTED_EDGE('',*,*,#617,.T.);
#408=ORIENTED_EDGE('',*,*,#618,.T.);
#409=ORIENTED_EDGE('',*,*,#619,.F.);
#410=ORIENTED_EDGE('',*,*,#620,.T.);
#411=ORIENTED_EDGE('',*,*,#621,.T.);
#412=ORIENTED_EDGE('',*,*,#622,.F.);
#413=ORIENTED_EDGE('',*,*,#623,.T.);
#414=ORIENTED_EDGE('',*,*,#624,.T.);
#415=ORIENTED_EDGE('',*,*,#625,.T.);
#416=ORIENTED_EDGE('',*,*,#626,.T.);
#417=ORIENTED_EDGE('',*,*,#627,.F.);
#418=ORIENTED_EDGE('',*,*,#628,.F.);
#419=ORIENTED_EDGE('',*,*,#629,.F.);
#420=ORIENTED_EDGE('',*,*,#630,.T.);
#421=ORIENTED_EDGE('',*,*,#631,.T.);
#422=ORIENTED_EDGE('',*,*,#632,.F.);
#423=ORIENTED_EDGE('',*,*,#633,.T.);
#424=ORIENTED_EDGE('',*,*,#626,.F.);
#425=ORIENTED_EDGE('',*,*,#633,.F.);
#426=ORIENTED_EDGE('',*,*,#625,.F.);
#427=ORIENTED_EDGE('',*,*,#617,.F.);
#428=ORIENTED_EDGE('',*,*,#634,.T.);
#429=ORIENTED_EDGE('',*,*,#611,.T.);
#430=ORIENTED_EDGE('',*,*,#635,.T.);
#431=ORIENTED_EDGE('',*,*,#622,.T.);
#432=ORIENTED_EDGE('',*,*,#636,.T.);
#433=ORIENTED_EDGE('',*,*,#637,.T.);
#434=ORIENTED_EDGE('',*,*,#638,.F.);
#435=ORIENTED_EDGE('',*,*,#639,.F.);
#436=ORIENTED_EDGE('',*,*,#640,.T.);
#437=ORIENTED_EDGE('',*,*,#612,.T.);
#438=ORIENTED_EDGE('',*,*,#634,.F.);
#439=ORIENTED_EDGE('',*,*,#641,.F.);
#440=ORIENTED_EDGE('',*,*,#642,.T.);
#441=ORIENTED_EDGE('',*,*,#643,.F.);
#442=ORIENTED_EDGE('',*,*,#644,.F.);
#443=ORIENTED_EDGE('',*,*,#645,.F.);
#444=ORIENTED_EDGE('',*,*,#613,.F.);
#445=ORIENTED_EDGE('',*,*,#640,.F.);
#446=ORIENTED_EDGE('',*,*,#646,.F.);
#447=ORIENTED_EDGE('',*,*,#647,.F.);
#448=ORIENTED_EDGE('',*,*,#648,.F.);
#449=ORIENTED_EDGE('',*,*,#614,.F.);
#450=ORIENTED_EDGE('',*,*,#645,.T.);
#451=ORIENTED_EDGE('',*,*,#648,.T.);
#452=ORIENTED_EDGE('',*,*,#649,.T.);
#453=ORIENTED_EDGE('',*,*,#650,.T.);
#454=ORIENTED_EDGE('',*,*,#628,.T.);
#455=ORIENTED_EDGE('',*,*,#651,.T.);
#456=ORIENTED_EDGE('',*,*,#624,.F.);
#457=ORIENTED_EDGE('',*,*,#652,.F.);
#458=ORIENTED_EDGE('',*,*,#615,.T.);
#459=ORIENTED_EDGE('',*,*,#616,.T.);
#460=ORIENTED_EDGE('',*,*,#652,.T.);
#461=ORIENTED_EDGE('',*,*,#623,.F.);
#462=ORIENTED_EDGE('',*,*,#635,.F.);
#463=ORIENTED_EDGE('',*,*,#627,.T.);
#464=ORIENTED_EDGE('',*,*,#653,.F.);
#465=ORIENTED_EDGE('',*,*,#618,.F.);
#466=ORIENTED_EDGE('',*,*,#651,.F.);
#467=ORIENTED_EDGE('',*,*,#632,.T.);
#468=ORIENTED_EDGE('',*,*,#654,.T.);
#469=ORIENTED_EDGE('',*,*,#655,.T.);
#470=ORIENTED_EDGE('',*,*,#656,.T.);
#471=ORIENTED_EDGE('',*,*,#619,.T.);
#472=ORIENTED_EDGE('',*,*,#653,.T.);
#473=ORIENTED_EDGE('',*,*,#657,.T.);
#474=ORIENTED_EDGE('',*,*,#658,.T.);
#475=ORIENTED_EDGE('',*,*,#659,.T.);
#476=ORIENTED_EDGE('',*,*,#660,.F.);
#477=ORIENTED_EDGE('',*,*,#661,.F.);
#478=ORIENTED_EDGE('',*,*,#620,.F.);
#479=ORIENTED_EDGE('',*,*,#656,.F.);
#480=ORIENTED_EDGE('',*,*,#662,.T.);
#481=ORIENTED_EDGE('',*,*,#663,.T.);
#482=ORIENTED_EDGE('',*,*,#664,.T.);
#483=ORIENTED_EDGE('',*,*,#636,.F.);
#484=ORIENTED_EDGE('',*,*,#621,.F.);
#485=ORIENTED_EDGE('',*,*,#661,.T.);
#486=ORIENTED_EDGE('',*,*,#665,.T.);
#487=ORIENTED_EDGE('',*,*,#666,.T.);
#488=ORIENTED_EDGE('',*,*,#667,.T.);
#489=ORIENTED_EDGE('',*,*,#668,.T.);
#490=ORIENTED_EDGE('',*,*,#669,.T.);
#491=ORIENTED_EDGE('',*,*,#650,.F.);
#492=ORIENTED_EDGE('',*,*,#670,.F.);
#493=ORIENTED_EDGE('',*,*,#671,.T.);
#494=ORIENTED_EDGE('',*,*,#629,.T.);
#495=ORIENTED_EDGE('',*,*,#672,.F.);
#496=ORIENTED_EDGE('',*,*,#673,.F.);
#497=ORIENTED_EDGE('',*,*,#674,.F.);
#498=ORIENTED_EDGE('',*,*,#675,.F.);
#499=ORIENTED_EDGE('',*,*,#630,.F.);
#500=ORIENTED_EDGE('',*,*,#671,.F.);
#501=ORIENTED_EDGE('',*,*,#676,.F.);
#502=ORIENTED_EDGE('',*,*,#677,.F.);
#503=ORIENTED_EDGE('',*,*,#654,.F.);
#504=ORIENTED_EDGE('',*,*,#631,.F.);
#505=ORIENTED_EDGE('',*,*,#675,.T.);
#506=ORIENTED_EDGE('',*,*,#678,.T.);
#507=ORIENTED_EDGE('',*,*,#679,.T.);
#508=ORIENTED_EDGE('',*,*,#641,.T.);
#509=ORIENTED_EDGE('',*,*,#637,.F.);
#510=ORIENTED_EDGE('',*,*,#664,.F.);
#511=ORIENTED_EDGE('',*,*,#680,.F.);
#512=ORIENTED_EDGE('',*,*,#681,.T.);
#513=ORIENTED_EDGE('',*,*,#638,.T.);
#514=ORIENTED_EDGE('',*,*,#680,.T.);
#515=ORIENTED_EDGE('',*,*,#667,.F.);
#516=ORIENTED_EDGE('',*,*,#682,.F.);
#517=ORIENTED_EDGE('',*,*,#683,.T.);
#518=ORIENTED_EDGE('',*,*,#684,.T.);
#519=ORIENTED_EDGE('',*,*,#685,.T.);
#520=ORIENTED_EDGE('',*,*,#681,.F.);
#521=ORIENTED_EDGE('',*,*,#686,.F.);
#522=ORIENTED_EDGE('',*,*,#646,.T.);
#523=ORIENTED_EDGE('',*,*,#639,.T.);
#524=ORIENTED_EDGE('',*,*,#668,.F.);
#525=ORIENTED_EDGE('',*,*,#642,.F.);
#526=ORIENTED_EDGE('',*,*,#643,.T.);
#527=ORIENTED_EDGE('',*,*,#686,.T.);
#528=ORIENTED_EDGE('',*,*,#685,.F.);
#529=ORIENTED_EDGE('',*,*,#687,.T.);
#530=ORIENTED_EDGE('',*,*,#688,.T.);
#531=ORIENTED_EDGE('',*,*,#689,.T.);
#532=ORIENTED_EDGE('',*,*,#690,.T.);
#533=ORIENTED_EDGE('',*,*,#644,.T.);
#534=ORIENTED_EDGE('',*,*,#690,.F.);
#535=ORIENTED_EDGE('',*,*,#691,.T.);
#536=ORIENTED_EDGE('',*,*,#672,.T.);
#537=ORIENTED_EDGE('',*,*,#670,.T.);
#538=ORIENTED_EDGE('',*,*,#649,.F.);
#539=ORIENTED_EDGE('',*,*,#647,.T.);
#540=ORIENTED_EDGE('',*,*,#677,.T.);
#541=ORIENTED_EDGE('',*,*,#692,.F.);
#542=ORIENTED_EDGE('',*,*,#657,.F.);
#543=ORIENTED_EDGE('',*,*,#655,.F.);
#544=ORIENTED_EDGE('',*,*,#693,.T.);
#545=ORIENTED_EDGE('',*,*,#694,.F.);
#546=ORIENTED_EDGE('',*,*,#658,.F.);
#547=ORIENTED_EDGE('',*,*,#692,.T.);
#548=ORIENTED_EDGE('',*,*,#676,.T.);
#549=ORIENTED_EDGE('',*,*,#695,.T.);
#550=ORIENTED_EDGE('',*,*,#696,.T.);
#551=ORIENTED_EDGE('',*,*,#697,.T.);
#552=ORIENTED_EDGE('',*,*,#698,.T.);
#553=ORIENTED_EDGE('',*,*,#699,.F.);
#554=ORIENTED_EDGE('',*,*,#659,.F.);
#555=ORIENTED_EDGE('',*,*,#694,.T.);
#556=ORIENTED_EDGE('',*,*,#700,.T.);
#557=ORIENTED_EDGE('',*,*,#701,.T.);
#558=ORIENTED_EDGE('',*,*,#702,.T.);
#559=ORIENTED_EDGE('',*,*,#665,.F.);
#560=ORIENTED_EDGE('',*,*,#660,.T.);
#561=ORIENTED_EDGE('',*,*,#699,.T.);
#562=ORIENTED_EDGE('',*,*,#679,.F.);
#563=ORIENTED_EDGE('',*,*,#662,.F.);
#564=ORIENTED_EDGE('',*,*,#703,.F.);
#565=ORIENTED_EDGE('',*,*,#663,.F.);
#566=ORIENTED_EDGE('',*,*,#704,.T.);
#567=ORIENTED_EDGE('',*,*,#682,.T.);
#568=ORIENTED_EDGE('',*,*,#666,.F.);
#569=ORIENTED_EDGE('',*,*,#702,.F.);
#570=ORIENTED_EDGE('',*,*,#669,.F.);
#571=ORIENTED_EDGE('',*,*,#705,.F.);
#572=ORIENTED_EDGE('',*,*,#706,.T.);
#573=ORIENTED_EDGE('',*,*,#707,.T.);
#574=ORIENTED_EDGE('',*,*,#696,.F.);
#575=ORIENTED_EDGE('',*,*,#708,.T.);
#576=ORIENTED_EDGE('',*,*,#673,.T.);
#577=ORIENTED_EDGE('',*,*,#691,.F.);
#578=ORIENTED_EDGE('',*,*,#689,.F.);
#579=ORIENTED_EDGE('',*,*,#695,.F.);
#580=ORIENTED_EDGE('',*,*,#678,.F.);
#581=ORIENTED_EDGE('',*,*,#674,.T.);
#582=ORIENTED_EDGE('',*,*,#708,.F.);
#583=ORIENTED_EDGE('',*,*,#701,.F.);
#584=ORIENTED_EDGE('',*,*,#709,.F.);
#585=ORIENTED_EDGE('',*,*,#710,.T.);
#586=ORIENTED_EDGE('',*,*,#711,.T.);
#587=ORIENTED_EDGE('',*,*,#683,.F.);
#588=ORIENTED_EDGE('',*,*,#704,.F.);
#589=ORIENTED_EDGE('',*,*,#705,.T.);
#590=ORIENTED_EDGE('',*,*,#687,.F.);
#591=ORIENTED_EDGE('',*,*,#684,.F.);
#592=ORIENTED_EDGE('',*,*,#711,.F.);
#593=ORIENTED_EDGE('',*,*,#712,.T.);
#594=ORIENTED_EDGE('',*,*,#706,.F.);
#595=ORIENTED_EDGE('',*,*,#688,.F.);
#596=ORIENTED_EDGE('',*,*,#712,.F.);
#597=ORIENTED_EDGE('',*,*,#710,.F.);
#598=ORIENTED_EDGE('',*,*,#713,.F.);
#599=ORIENTED_EDGE('',*,*,#714,.F.);
#600=ORIENTED_EDGE('',*,*,#693,.F.);
#601=ORIENTED_EDGE('',*,*,#715,.F.);
#602=ORIENTED_EDGE('',*,*,#713,.T.);
#603=ORIENTED_EDGE('',*,*,#709,.T.);
#604=ORIENTED_EDGE('',*,*,#700,.F.);
#605=ORIENTED_EDGE('',*,*,#698,.F.);
#606=ORIENTED_EDGE('',*,*,#703,.T.);
#607=ORIENTED_EDGE('',*,*,#707,.F.);
#608=ORIENTED_EDGE('',*,*,#714,.T.);
#609=ORIENTED_EDGE('',*,*,#715,.T.);
#610=ORIENTED_EDGE('',*,*,#697,.F.);
#611=EDGE_CURVE('',#716,#717,#718,.F.);
#612=EDGE_CURVE('',#719,#716,#720,.T.);
#613=EDGE_CURVE('',#719,#721,#722,.F.);
#614=EDGE_CURVE('',#721,#723,#724,.T.);
#615=EDGE_CURVE('',#725,#723,#726,.T.);
#616=EDGE_CURVE('',#717,#725,#727,.T.);
#617=EDGE_CURVE('',#728,#728,#729,.F.);
#618=EDGE_CURVE('',#730,#731,#732,.F.);
#619=EDGE_CURVE('',#733,#731,#734,.T.);
#620=EDGE_CURVE('',#733,#735,#736,.T.);
#621=EDGE_CURVE('',#735,#737,#738,.T.);
#622=EDGE_CURVE('',#739,#737,#740,.T.);
#623=EDGE_CURVE('',#739,#741,#742,.F.);
#624=EDGE_CURVE('',#741,#730,#743,.F.);
#625=EDGE_CURVE('',#744,#744,#745,.T.);
#626=EDGE_CURVE('',#746,#746,#747,.T.);
#627=EDGE_CURVE('',#748,#749,#750,.T.);
#628=EDGE_CURVE('',#751,#748,#752,.T.);
#629=EDGE_CURVE('',#753,#751,#754,.T.);
#630=EDGE_CURVE('',#753,#755,#756,.T.);
#631=EDGE_CURVE('',#755,#757,#758,.T.);
#632=EDGE_CURVE('',#749,#757,#759,.F.);
#633=EDGE_CURVE('',#760,#760,#761,.F.);
#634=EDGE_CURVE('',#762,#716,#763,.F.);
#635=EDGE_CURVE('',#717,#739,#764,.F.);
#636=EDGE_CURVE('',#737,#765,#766,.T.);
#637=EDGE_CURVE('',#765,#762,#767,.F.);
#638=EDGE_CURVE('',#768,#769,#770,.T.);
#639=EDGE_CURVE('',#771,#768,#772,.T.);
#640=EDGE_CURVE('',#771,#719,#773,.F.);
#641=EDGE_CURVE('',#769,#762,#774,.T.);
#642=EDGE_CURVE('',#775,#775,#776,.F.);
#643=EDGE_CURVE('',#777,#778,#779,.F.);
#644=EDGE_CURVE('',#780,#777,#781,.F.);
#645=EDGE_CURVE('',#721,#780,#782,.F.);
#646=EDGE_CURVE('',#778,#771,#783,.F.);
#647=EDGE_CURVE('',#784,#780,#785,.T.);
#648=EDGE_CURVE('',#723,#784,#786,.T.);
#649=EDGE_CURVE('',#784,#787,#788,.T.);
#650=EDGE_CURVE('',#787,#751,#789,.T.);
#651=EDGE_CURVE('',#748,#730,#790,.T.);
#652=EDGE_CURVE('',#725,#741,#791,.T.);
#653=EDGE_CURVE('',#731,#749,#792,.F.);
#654=EDGE_CURVE('',#757,#793,#794,.F.);
#655=EDGE_CURVE('',#793,#795,#796,.F.);
#656=EDGE_CURVE('',#795,#733,#797,.T.);
#657=EDGE_CURVE('',#795,#798,#799,.T.);
#658=EDGE_CURVE('',#798,#800,#801,.T.);
#659=EDGE_CURVE('',#800,#802,#803,.T.);
#660=EDGE_CURVE('',#804,#802,#805,.T.);
#661=EDGE_CURVE('',#735,#804,#806,.T.);
#662=EDGE_CURVE('',#807,#807,#808,.T.);
#663=EDGE_CURVE('',#809,#809,#810,.T.);
#664=EDGE_CURVE('',#811,#765,#812,.F.);
#665=EDGE_CURVE('',#804,#813,#814,.T.);
#666=EDGE_CURVE('',#813,#815,#816,.F.);
#667=EDGE_CURVE('',#815,#811,#817,.F.);
#668=EDGE_CURVE('',#818,#818,#819,.T.);
#669=EDGE_CURVE('',#820,#820,#821,.T.);
#670=EDGE_CURVE('',#822,#787,#823,.T.);
#671=EDGE_CURVE('',#822,#753,#824,.T.);
#672=EDGE_CURVE('',#825,#822,#826,.T.);
#673=EDGE_CURVE('',#827,#825,#828,.F.);
#674=EDGE_CURVE('',#829,#827,#830,.T.);
#675=EDGE_CURVE('',#755,#829,#831,.T.);
#676=EDGE_CURVE('',#832,#833,#834,.T.);
#677=EDGE_CURVE('',#793,#832,#835,.T.);
#678=EDGE_CURVE('',#829,#833,#836,.T.);
#679=EDGE_CURVE('',#837,#837,#838,.F.);
#680=EDGE_CURVE('',#769,#811,#839,.T.);
#681=EDGE_CURVE('',#840,#768,#841,.T.);
#682=EDGE_CURVE('',#842,#815,#843,.T.);
#683=EDGE_CURVE('',#842,#844,#845,.T.);
#684=EDGE_CURVE('',#844,#846,#847,.T.);
#685=EDGE_CURVE('',#846,#840,#848,.T.);
#686=EDGE_CURVE('',#778,#840,#849,.T.);
#687=EDGE_CURVE('',#846,#850,#851,.T.);
#688=EDGE_CURVE('',#850,#852,#853,.T.);
#689=EDGE_CURVE('',#852,#854,#855,.F.);
#690=EDGE_CURVE('',#854,#777,#856,.T.);
#691=EDGE_CURVE('',#854,#825,#857,.F.);
#692=EDGE_CURVE('',#798,#832,#858,.T.);
#693=EDGE_CURVE('',#859,#860,#861,.T.);
#694=EDGE_CURVE('',#800,#860,#862,.T.);
#695=EDGE_CURVE('',#833,#863,#864,.T.);
#696=EDGE_CURVE('',#863,#865,#866,.F.);
#697=EDGE_CURVE('',#865,#859,#867,.T.);
#698=EDGE_CURVE('',#860,#868,#869,.T.);
#699=EDGE_CURVE('',#802,#868,#870,.F.);
#700=EDGE_CURVE('',#868,#871,#872,.F.);
#701=EDGE_CURVE('',#871,#873,#874,.F.);
#702=EDGE_CURVE('',#873,#813,#875,.F.);
#703=EDGE_CURVE('',#876,#876,#877,.F.);
#704=EDGE_CURVE('',#873,#842,#878,.T.);
#705=EDGE_CURVE('',#879,#879,#880,.F.);
#706=EDGE_CURVE('',#852,#881,#882,.F.);
#707=EDGE_CURVE('',#881,#865,#883,.F.);
#708=EDGE_CURVE('',#863,#827,#884,.F.);
#709=EDGE_CURVE('',#885,#871,#886,.T.);
#710=EDGE_CURVE('',#885,#887,#888,.T.);
#711=EDGE_CURVE('',#887,#844,#889,.T.);
#712=EDGE_CURVE('',#887,#850,#890,.T.);
#713=EDGE_CURVE('',#891,#885,#892,.T.);
#714=EDGE_CURVE('',#881,#891,#893,.T.);
#715=EDGE_CURVE('',#891,#859,#894,.T.);
#716=VERTEX_POINT('',#895);
#717=VERTEX_POINT('',#896);
#718=LINE('',#897,#898);
#719=VERTEX_POINT('',#900);
#720=LINE('',#901,#902);
#721=VERTEX_POINT('',#904);
#722=LINE('',#905,#906);
#723=VERTEX_POINT('',#908);
#724=LINE('',#909,#910);
#725=VERTEX_POINT('',#912);
#726=LINE('',#913,#914);
#727=LINE('',#916,#917);
#728=VERTEX_POINT('',#919);
#729=CIRCLE('',#920,1.5);
#730=VERTEX_POINT('',#924);
#731=VERTEX_POINT('',#925);
#732=LINE('',#926,#927);
#733=VERTEX_POINT('',#929);
#734=LINE('',#930,#931);
#735=VERTEX_POINT('',#933);
#736=LINE('',#934,#935);
#737=VERTEX_POINT('',#937);
#738=LINE('',#938,#939);
#739=VERTEX_POINT('',#941);
#740=LINE('',#942,#943);
#741=VERTEX_POINT('',#945);
#742=LINE('',#946,#947);
#743=LINE('',#949,#950);
#744=VERTEX_POINT('',#952);
#745=CIRCLE('',#953,1.5);
#746=VERTEX_POINT('',#957);
#747=CIRCLE('',#958,1.5);
#748=VERTEX_POINT('',#962);
#749=VERTEX_POINT('',#963);
#750=LINE('',#964,#965);
#751=VERTEX_POINT('',#967);
#752=LINE('',#968,#969);
#753=VERTEX_POINT('',#971);
#754=LINE('',#972,#973);
#755=VERTEX_POINT('',#975);
#756=LINE('',#976,#977);
#757=VERTEX_POINT('',#979);
#758=LINE('',#980,#981);
#759=LINE('',#983,#984);
#760=VERTEX_POINT('',#986);
#761=CIRCLE('',#987,1.5);
#762=VERTEX_POINT('',#991);
#763=LINE('',#992,#993);
#764=LINE('',#995,#996);
#765=VERTEX_POINT('',#998);
#766=LINE('',#999,#1000);
#767=LINE('',#1002,#1003);
#768=VERTEX_POINT('',#1005);
#769=VERTEX_POINT('',#1006);
#770=LINE('',#1007,#1008);
#771=VERTEX_POINT('',#1010);
#772=LINE('',#1011,#1012);
#773=LINE('',#1014,#1015);
#774=LINE('',#1017,#1018);
#775=VERTEX_POINT('',#1020);
#776=CIRCLE('',#1021,1.5);
#777=VERTEX_POINT('',#1025);
#778=VERTEX_POINT('',#1026);
#779=LINE('',#1027,#1028);
#780=VERTEX_POINT('',#1030);
#781=LINE('',#1031,#1032);
#782=LINE('',#1034,#1035);
#783=LINE('',#1037,#1038);
#784=VERTEX_POINT('',#1040);
#785=LINE('',#1041,#1042);
#786=LINE('',#1044,#1045);
#787=VERTEX_POINT('',#1047);
#788=LINE('',#1048,#1049);
#789=LINE('',#1051,#1052);
#790=LINE('',#1054,#1055);
#791=LINE('',#1057,#1058);
#792=LINE('',#1060,#1061);
#793=VERTEX_POINT('',#1063);
#794=LINE('',#1064,#1065);
#795=VERTEX_POINT('',#1067);
#796=LINE('',#1068,#1069);
#797=LINE('',#1071,#1072);
#798=VERTEX_POINT('',#1074);
#799=LINE('',#1075,#1076);
#800=VERTEX_POINT('',#1078);
#801=LINE('',#1079,#1080);
#802=VERTEX_POINT('',#1082);
#803=LINE('',#1083,#1084);
#804=VERTEX_POINT('',#1086);
#805=LINE('',#1087,#1088);
#806=LINE('',#1090,#1091);
#807=VERTEX_POINT('',#1093);
#808=CIRCLE('',#1094,1.5);
#809=VERTEX_POINT('',#1098);
#810=CIRCLE('',#1099,1.5);
#811=VERTEX_POINT('',#1103);
#812=LINE('',#1104,#1105);
#813=VERTEX_POINT('',#1107);
#814=LINE('',#1108,#1109);
#815=VERTEX_POINT('',#1111);
#816=LINE('',#1112,#1113);
#817=LINE('',#1115,#1116);
#818=VERTEX_POINT('',#1118);
#819=CIRCLE('',#1119,1.5);
#820=VERTEX_POINT('',#1123);
#821=CIRCLE('',#1124,1.5);
#822=VERTEX_POINT('',#1128);
#823=LINE('',#1129,#1130);
#824=LINE('',#1132,#1133);
#825=VERTEX_POINT('',#1135);
#826=LINE('',#1136,#1137);
#827=VERTEX_POINT('',#1139);
#828=LINE('',#1140,#1141);
#829=VERTEX_POINT('',#1143);
#830=LINE('',#1144,#1145);
#831=LINE('',#1147,#1148);
#832=VERTEX_POINT('',#1150);
#833=VERTEX_POINT('',#1151);
#834=LINE('',#1152,#1153);
#835=LINE('',#1155,#1156);
#836=LINE('',#1158,#1159);
#837=VERTEX_POINT('',#1161);
#838=CIRCLE('',#1162,1.5);
#839=LINE('',#1166,#1167);
#840=VERTEX_POINT('',#1169);
#841=LINE('',#1170,#1171);
#842=VERTEX_POINT('',#1173);
#843=LINE('',#1174,#1175);
#844=VERTEX_POINT('',#1177);
#845=LINE('',#1178,#1179);
#846=VERTEX_POINT('',#1181);
#847=LINE('',#1182,#1183);
#848=LINE('',#1185,#1186);
#849=LINE('',#1188,#1189);
#850=VERTEX_POINT('',#1191);
#851=LINE('',#1192,#1193);
#852=VERTEX_POINT('',#1195);
#853=LINE('',#1196,#1197);
#854=VERTEX_POINT('',#1199);
#855=LINE('',#1200,#1201);
#856=LINE('',#1203,#1204);
#857=LINE('',#1206,#1207);
#858=LINE('',#1209,#1210);
#859=VERTEX_POINT('',#1212);
#860=VERTEX_POINT('',#1213);
#861=LINE('',#1214,#1215);
#862=LINE('',#1217,#1218);
#863=VERTEX_POINT('',#1220);
#864=LINE('',#1221,#1222);
#865=VERTEX_POINT('',#1224);
#866=LINE('',#1225,#1226);
#867=LINE('',#1228,#1229);
#868=VERTEX_POINT('',#1231);
#869=LINE('',#1232,#1233);
#870=LINE('',#1235,#1236);
#871=VERTEX_POINT('',#1238);
#872=LINE('',#1239,#1240);
#873=VERTEX_POINT('',#1242);
#874=LINE('',#1243,#1244);
#875=LINE('',#1246,#1247);
#876=VERTEX_POINT('',#1249);
#877=CIRCLE('',#1250,1.5);
#878=LINE('',#1254,#1255);
#879=VERTEX_POINT('',#1257);
#880=CIRCLE('',#1258,1.5);
#881=VERTEX_POINT('',#1262);
#882=LINE('',#1263,#1264);
#883=LINE('',#1266,#1267);
#884=LINE('',#1269,#1270);
#885=VERTEX_POINT('',#1272);
#886=LINE('',#1273,#1274);
#887=VERTEX_POINT('',#1276);
#888=LINE('',#1277,#1278);
#889=LINE('',#1280,#1281);
#890=LINE('',#1283,#1284);
#891=VERTEX_POINT('',#1286);
#892=LINE('',#1287,#1288);
#893=LINE('',#1290,#1291);
#894=LINE('',#1293,#1294);
#895=CARTESIAN_POINT('',(57.,57.,60.));
#896=CARTESIAN_POINT('',(57.,40.,60.));
#897=CARTESIAN_POINT('',(57.,40.,60.));
#898=VECTOR('',#899,1.);
#899=DIRECTION('',(0.,1.,0.));
#900=CARTESIAN_POINT('',(57.,57.,25.));
#901=CARTESIAN_POINT('',(57.,57.,25.));
#902=VECTOR('',#903,1.);
#903=DIRECTION('',(0.,0.,1.));
#904=CARTESIAN_POINT('',(57.,36.5,25.));
#905=CARTESIAN_POINT('',(57.,36.5,25.));
#906=VECTOR('',#907,1.);
#907=DIRECTION('',(0.,1.,0.));
#908=CARTESIAN_POINT('',(57.,36.5,46.5));
#909=CARTESIAN_POINT('',(57.,36.5,25.));
#910=VECTOR('',#911,1.);
#911=DIRECTION('',(0.,0.,1.));
#912=CARTESIAN_POINT('',(57.,40.,50.));
#913=CARTESIAN_POINT('',(57.,40.,50.));
#914=VECTOR('',#915,1.);
#915=DIRECTION('',(0.,-0.707106781186547,-0.707106781186547));
#916=CARTESIAN_POINT('',(57.,40.,60.));
#917=VECTOR('',#918,1.);
#918=DIRECTION('',(0.,7.105427357601E-16,-1.));
#919=CARTESIAN_POINT('',(57.,45.,35.));
#920=AXIS2_PLACEMENT_3D('',#921,#922,#923);
#921=CARTESIAN_POINT('',(57.,46.5,35.));
#922=DIRECTION('',(-1.,0.,0.));
#923=DIRECTION('',(0.,-1.,-6.12323399573676E-17));
#924=CARTESIAN_POINT('',(60.,10.,20.));
#925=CARTESIAN_POINT('',(60.,1.77635683940025E-15,20.));
#926=CARTESIAN_POINT('',(60.,3.78156122784489E-15,20.));
#927=VECTOR('',#928,1.);
#928=DIRECTION('',(0.,1.,0.));
#929=CARTESIAN_POINT('',(60.,1.77635683940025E-15,0.));
#930=CARTESIAN_POINT('',(60.,1.77635683940025E-15,0.));
#931=VECTOR('',#932,1.);
#932=DIRECTION('',(0.,0.,1.));
#933=CARTESIAN_POINT('',(60.,60.,0.));
#934=CARTESIAN_POINT('',(60.,3.5527136788005E-15,0.));
#935=VECTOR('',#936,1.);
#936=DIRECTION('',(0.,1.,0.));
#937=CARTESIAN_POINT('',(60.,60.,60.));
#938=CARTESIAN_POINT('',(60.,60.,0.));
#939=VECTOR('',#940,1.);
#940=DIRECTION('',(0.,0.,1.));
#941=CARTESIAN_POINT('',(60.,40.,60.));
#942=CARTESIAN_POINT('',(60.,40.,60.));
#943=VECTOR('',#944,1.);
#944=DIRECTION('',(0.,1.,0.));
#945=CARTESIAN_POINT('',(60.,40.,50.));
#946=CARTESIAN_POINT('',(60.,40.,50.));
#947=VECTOR('',#948,1.);
#948=DIRECTION('',(0.,0.,1.));
#949=CARTESIAN_POINT('',(60.,10.,20.));
#950=VECTOR('',#951,1.);
#951=DIRECTION('',(0.,0.707106781186548,0.707106781186547));
#952=CARTESIAN_POINT('',(60.,45.,35.));
#953=AXIS2_PLACEMENT_3D('',#954,#955,#956);
#954=CARTESIAN_POINT('',(60.,46.5,35.));
#955=DIRECTION('',(-1.,0.,0.));
#956=DIRECTION('',(0.,-1.,-6.12323399573676E-17));
#957=CARTESIAN_POINT('',(60.,23.5,13.5));
#958=AXIS2_PLACEMENT_3D('',#959,#960,#961);
#959=CARTESIAN_POINT('',(60.,25.,13.5));
#960=DIRECTION('',(-1.,0.,0.));
#961=DIRECTION('',(0.,-1.,-6.12323399573676E-17));
#962=CARTESIAN_POINT('',(57.,10.,20.));
#963=CARTESIAN_POINT('',(57.,0.,20.));
#964=CARTESIAN_POINT('',(57.,10.,20.));
#965=VECTOR('',#966,1.);
#966=DIRECTION('',(0.,-1.,0.));
#967=CARTESIAN_POINT('',(57.,13.5,23.5));
#968=CARTESIAN_POINT('',(57.,13.5,23.5));
#969=VECTOR('',#970,1.);
#970=DIRECTION('',(0.,-0.707106781186548,-0.707106781186547));
#971=CARTESIAN_POINT('',(57.,35.,23.5));
#972=CARTESIAN_POINT('',(57.,35.,23.5));
#973=VECTOR('',#974,1.);
#974=DIRECTION('',(0.,-1.,0.));
#975=CARTESIAN_POINT('',(57.,35.,3.));
#976=CARTESIAN_POINT('',(57.,35.,23.5));
#977=VECTOR('',#978,1.);
#978=DIRECTION('',(0.,0.,-1.));
#979=CARTESIAN_POINT('',(57.,0.,3.));
#980=CARTESIAN_POINT('',(57.,35.,3.));
#981=VECTOR('',#982,1.);
#982=DIRECTION('',(0.,-1.,0.));
#983=CARTESIAN_POINT('',(57.,0.,3.));
#984=VECTOR('',#985,1.);
#985=DIRECTION('',(0.,0.,1.));
#986=CARTESIAN_POINT('',(57.,23.5,13.5));
#987=AXIS2_PLACEMENT_3D('',#988,#989,#990);
#988=CARTESIAN_POINT('',(57.,25.,13.5));
#989=DIRECTION('',(-1.,0.,0.));
#990=DIRECTION('',(0.,-1.,-6.12323399573676E-17));
#991=CARTESIAN_POINT('',(40.,57.,60.));
#992=CARTESIAN_POINT('',(57.,57.,60.));
#993=VECTOR('',#994,1.);
#994=DIRECTION('',(-1.,0.,0.));
#995=CARTESIAN_POINT('',(60.,40.,60.));
#996=VECTOR('',#997,1.);
#997=DIRECTION('',(-1.,0.,0.));
#998=CARTESIAN_POINT('',(40.,60.,60.));
#999=CARTESIAN_POINT('',(60.,60.,60.));
#1000=VECTOR('',#1001,1.);
#1001=DIRECTION('',(-1.,0.,0.));
#1002=CARTESIAN_POINT('',(40.,57.,60.));
#1003=VECTOR('',#1004,1.);
#1004=DIRECTION('',(0.,1.,0.));
#1005=CARTESIAN_POINT('',(36.5,57.,46.5));
#1006=CARTESIAN_POINT('',(40.,57.,50.));
#1007=CARTESIAN_POINT('',(36.5,57.,46.5));
#1008=VECTOR('',#1009,1.);
#1009=DIRECTION('',(0.707106781186548,0.,0.707106781186548));
#1010=CARTESIAN_POINT('',(36.5,57.,25.));
#1011=CARTESIAN_POINT('',(36.5,57.,25.));
#1012=VECTOR('',#1013,1.);
#1013=DIRECTION('',(0.,0.,1.));
#1014=CARTESIAN_POINT('',(57.,57.,25.));
#1015=VECTOR('',#1016,1.);
#1016=DIRECTION('',(-1.,0.,0.));
#1017=CARTESIAN_POINT('',(40.,57.,50.));
#1018=VECTOR('',#1019,1.);
#1019=DIRECTION('',(0.,0.,1.));
#1020=CARTESIAN_POINT('',(48.,57.,35.));
#1021=AXIS2_PLACEMENT_3D('',#1022,#1023,#1024);
#1022=CARTESIAN_POINT('',(46.5,57.,35.));
#1023=DIRECTION('',(0.,-1.,0.));
#1024=DIRECTION('',(1.,0.,0.));
#1025=CARTESIAN_POINT('',(55.,55.,25.));
#1026=CARTESIAN_POINT('',(36.5,55.,25.));
#1027=CARTESIAN_POINT('',(36.5,55.,25.));
#1028=VECTOR('',#1029,1.);
#1029=DIRECTION('',(1.,0.,0.));
#1030=CARTESIAN_POINT('',(55.,36.5,25.));
#1031=CARTESIAN_POINT('',(55.,55.,25.));
#1032=VECTOR('',#1033,1.);
#1033=DIRECTION('',(0.,-1.,0.));
#1034=CARTESIAN_POINT('',(55.,36.5,25.));
#1035=VECTOR('',#1036,1.);
#1036=DIRECTION('',(1.,0.,0.));
#1037=CARTESIAN_POINT('',(36.5,57.,25.));
#1038=VECTOR('',#1039,1.);
#1039=DIRECTION('',(0.,-1.,0.));
#1040=CARTESIAN_POINT('',(55.,36.5,46.5));
#1041=CARTESIAN_POINT('',(55.,36.5,46.5));
#1042=VECTOR('',#1043,1.);
#1043=DIRECTION('',(0.,0.,-1.));
#1044=CARTESIAN_POINT('',(57.,36.5,46.5));
#1045=VECTOR('',#1046,1.);
#1046=DIRECTION('',(-1.,0.,0.));
#1047=CARTESIAN_POINT('',(55.,13.5,23.5));
#1048=CARTESIAN_POINT('',(55.,36.5,46.5));
#1049=VECTOR('',#1050,1.);
#1050=DIRECTION('',(0.,-0.707106781186548,-0.707106781186547));
#1051=CARTESIAN_POINT('',(55.,13.5,23.5));
#1052=VECTOR('',#1053,1.);
#1053=DIRECTION('',(1.,0.,0.));
#1054=CARTESIAN_POINT('',(57.,10.,20.));
#1055=VECTOR('',#1056,1.);
#1056=DIRECTION('',(1.,0.,0.));
#1057=CARTESIAN_POINT('',(57.,40.,50.));
#1058=VECTOR('',#1059,1.);
#1059=DIRECTION('',(1.,0.,0.));
#1060=CARTESIAN_POINT('',(57.,0.,20.));
#1061=VECTOR('',#1062,1.);
#1062=DIRECTION('',(1.,0.,0.));
#1063=CARTESIAN_POINT('',(40.,0.,3.));
#1064=CARTESIAN_POINT('',(40.,0.,3.));
#1065=VECTOR('',#1066,1.);
#1066=DIRECTION('',(1.,0.,5.2245789394125E-17));
#1067=CARTESIAN_POINT('',(40.,0.,0.));
#1068=CARTESIAN_POINT('',(40.,0.,0.));
#1069=VECTOR('',#1070,1.);
#1070=DIRECTION('',(0.,0.,1.));
#1071=CARTESIAN_POINT('',(40.,0.,0.));
#1072=VECTOR('',#1073,1.);
#1073=DIRECTION('',(1.,0.,0.));
#1074=CARTESIAN_POINT('',(40.,10.,0.));
#1075=CARTESIAN_POINT('',(40.,0.,0.));
#1076=VECTOR('',#1077,1.);
#1077=DIRECTION('',(0.,1.,0.));
#1078=CARTESIAN_POINT('',(10.,40.,0.));
#1079=CARTESIAN_POINT('',(40.,10.,0.));
#1080=VECTOR('',#1081,1.);
#1081=DIRECTION('',(-0.707106781186547,0.707106781186547,0.));
#1082=CARTESIAN_POINT('',(0.,40.,0.));
#1083=CARTESIAN_POINT('',(10.,40.,0.));
#1084=VECTOR('',#1085,1.);
#1085=DIRECTION('',(-1.,0.,0.));
#1086=CARTESIAN_POINT('',(0.,60.,0.));
#1087=CARTESIAN_POINT('',(0.,60.,0.));
#1088=VECTOR('',#1089,1.);
#1089=DIRECTION('',(0.,-1.,0.));
#1090=CARTESIAN_POINT('',(60.,60.,0.));
#1091=VECTOR('',#1092,1.);
#1092=DIRECTION('',(-1.,0.,0.));
#1093=CARTESIAN_POINT('',(48.,25.,2.07963727539542E-15));
#1094=AXIS2_PLACEMENT_3D('',#1095,#1096,#1097);
#1095=CARTESIAN_POINT('',(46.5,25.,0.));
#1096=DIRECTION('',(0.,0.,1.));
#1097=DIRECTION('',(1.,0.,0.));
#1098=CARTESIAN_POINT('',(26.5,46.5,1.14813307912455E-15));
#1099=AXIS2_PLACEMENT_3D('',#1100,#1101,#1102);
#1100=CARTESIAN_POINT('',(25.,46.5,0.));
#1101=DIRECTION('',(0.,0.,1.));
#1102=DIRECTION('',(1.,0.,0.));
#1103=CARTESIAN_POINT('',(40.,60.,50.));
#1104=CARTESIAN_POINT('',(40.,60.,60.));
#1105=VECTOR('',#1106,1.);
#1106=DIRECTION('',(0.,0.,-1.));
#1107=CARTESIAN_POINT('',(0.,60.,20.));
#1108=CARTESIAN_POINT('',(0.,60.,0.));
#1109=VECTOR('',#1110,1.);
#1110=DIRECTION('',(0.,0.,1.));
#1111=CARTESIAN_POINT('',(10.,60.,20.));
#1112=CARTESIAN_POINT('',(10.,60.,20.));
#1113=VECTOR('',#1114,1.);
#1114=DIRECTION('',(-1.,0.,0.));
#1115=CARTESIAN_POINT('',(40.,60.,50.));
#1116=VECTOR('',#1117,1.);
#1117=DIRECTION('',(-0.707106781186547,0.,-0.707106781186547));
#1118=CARTESIAN_POINT('',(48.,60.,35.));
#1119=AXIS2_PLACEMENT_3D('',#1120,#1121,#1122);
#1120=CARTESIAN_POINT('',(46.5,60.,35.));
#1121=DIRECTION('',(0.,-1.,0.));
#1122=DIRECTION('',(1.,0.,0.));
#1123=CARTESIAN_POINT('',(26.5,60.,13.5));
#1124=AXIS2_PLACEMENT_3D('',#1125,#1126,#1127);
#1125=CARTESIAN_POINT('',(25.,60.,13.5));
#1126=DIRECTION('',(0.,-1.,0.));
#1127=DIRECTION('',(1.,0.,0.));
#1128=CARTESIAN_POINT('',(55.,35.,23.5));
#1129=CARTESIAN_POINT('',(55.,35.,23.5));
#1130=VECTOR('',#1131,1.);
#1131=DIRECTION('',(0.,-1.,0.));
#1132=CARTESIAN_POINT('',(55.,35.,23.5));
#1133=VECTOR('',#1134,1.);
#1134=DIRECTION('',(1.,0.,0.));
#1135=CARTESIAN_POINT('',(55.,35.,5.));
#1136=CARTESIAN_POINT('',(55.,35.,5.));
#1137=VECTOR('',#1138,1.);
#1138=DIRECTION('',(0.,0.,1.));
#1139=CARTESIAN_POINT('',(36.5,35.,5.));
#1140=CARTESIAN_POINT('',(55.,35.,5.));
#1141=VECTOR('',#1142,1.);
#1142=DIRECTION('',(-1.,0.,0.));
#1143=CARTESIAN_POINT('',(36.5,35.,3.));
#1144=CARTESIAN_POINT('',(36.5,35.,3.));
#1145=VECTOR('',#1146,1.);
#1146=DIRECTION('',(0.,0.,1.));
#1147=CARTESIAN_POINT('',(57.,35.,3.));
#1148=VECTOR('',#1149,1.);
#1149=DIRECTION('',(-1.,0.,-4.33257765707378E-17));
#1150=CARTESIAN_POINT('',(40.,10.,3.));
#1151=CARTESIAN_POINT('',(36.5,13.5,3.));
#1152=CARTESIAN_POINT('',(40.,10.,3.));
#1153=VECTOR('',#1154,1.);
#1154=DIRECTION('',(-0.707106781186547,0.707106781186547,0.));
#1155=CARTESIAN_POINT('',(40.,-3.0986189962645E-16,3.));
#1156=VECTOR('',#1157,1.);
#1157=DIRECTION('',(0.,1.,0.));
#1158=CARTESIAN_POINT('',(36.5,35.,3.));
#1159=VECTOR('',#1160,1.);
#1160=DIRECTION('',(0.,-1.,0.));
#1161=CARTESIAN_POINT('',(48.,25.,3.));
#1162=AXIS2_PLACEMENT_3D('',#1163,#1164,#1165);
#1163=CARTESIAN_POINT('',(46.5,25.,3.));
#1164=DIRECTION('',(-4.33257765707378E-17,0.,1.));
#1165=DIRECTION('',(1.,0.,4.33257765707378E-17));
#1166=CARTESIAN_POINT('',(40.,57.,50.));
#1167=VECTOR('',#1168,1.);
#1168=DIRECTION('',(0.,1.,0.));
#1169=CARTESIAN_POINT('',(36.5,55.,46.5));
#1170=CARTESIAN_POINT('',(36.5,55.,46.5));
#1171=VECTOR('',#1172,1.);
#1172=DIRECTION('',(0.,1.,0.));
#1173=CARTESIAN_POINT('',(10.,57.,20.));
#1174=CARTESIAN_POINT('',(10.,57.,20.));
#1175=VECTOR('',#1176,1.);
#1176=DIRECTION('',(0.,1.,0.));
#1177=CARTESIAN_POINT('',(13.5,57.,23.5));
#1178=CARTESIAN_POINT('',(9.99999999999999,57.,20.));
#1179=VECTOR('',#1180,1.);
#1180=DIRECTION('',(0.707106781186548,0.,0.707106781186547));
#1181=CARTESIAN_POINT('',(13.5,55.,23.5));
#1182=CARTESIAN_POINT('',(13.5,57.,23.5));
#1183=VECTOR('',#1184,1.);
#1184=DIRECTION('',(0.,-1.,0.));
#1185=CARTESIAN_POINT('',(13.5,55.,23.5));
#1186=VECTOR('',#1187,1.);
#1187=DIRECTION('',(0.707106781186547,-2.18447646425569E-16,0.707106781186547));
#1188=CARTESIAN_POINT('',(36.5,55.,25.));
#1189=VECTOR('',#1190,1.);
#1190=DIRECTION('',(0.,0.,1.));
#1191=CARTESIAN_POINT('',(35.,55.,23.5));
#1192=CARTESIAN_POINT('',(13.5,55.,23.5));
#1193=VECTOR('',#1194,1.);
#1194=DIRECTION('',(1.,0.,0.));
#1195=CARTESIAN_POINT('',(35.,55.,5.));
#1196=CARTESIAN_POINT('',(35.,55.,23.5));
#1197=VECTOR('',#1198,1.);
#1198=DIRECTION('',(0.,0.,-1.));
#1199=CARTESIAN_POINT('',(55.,55.,5.));
#1200=CARTESIAN_POINT('',(55.,55.,5.));
#1201=VECTOR('',#1202,1.);
#1202=DIRECTION('',(-1.,0.,0.));
#1203=CARTESIAN_POINT('',(55.,55.,5.));
#1204=VECTOR('',#1205,1.);
#1205=DIRECTION('',(0.,0.,1.));
#1206=CARTESIAN_POINT('',(55.,35.,5.));
#1207=VECTOR('',#1208,1.);
#1208=DIRECTION('',(0.,1.,0.));
#1209=CARTESIAN_POINT('',(40.,10.,0.));
#1210=VECTOR('',#1211,1.);
#1211=DIRECTION('',(0.,-5.9211894646675E-16,1.));
#1212=CARTESIAN_POINT('',(13.5,36.5,3.));
#1213=CARTESIAN_POINT('',(10.,40.,3.));
#1214=CARTESIAN_POINT('',(13.5,36.5,3.));
#1215=VECTOR('',#1216,1.);
#1216=DIRECTION('',(-0.707106781186547,0.707106781186547,0.));
#1217=CARTESIAN_POINT('',(10.,40.,0.));
#1218=VECTOR('',#1219,1.);
#1219=DIRECTION('',(0.,0.,1.));
#1220=CARTESIAN_POINT('',(36.5,13.5,5.));
#1221=CARTESIAN_POINT('',(36.5,13.5,3.));
#1222=VECTOR('',#1223,1.);
#1223=DIRECTION('',(0.,0.,1.));
#1224=CARTESIAN_POINT('',(13.5,36.5,5.));
#1225=CARTESIAN_POINT('',(13.5,36.5,5.));
#1226=VECTOR('',#1227,1.);
#1227=DIRECTION('',(0.707106781186547,-0.707106781186548,0.));
#1228=CARTESIAN_POINT('',(13.5,36.5,5.));
#1229=VECTOR('',#1230,1.);
#1230=DIRECTION('',(0.,0.,-1.));
#1231=CARTESIAN_POINT('',(0.,40.,3.));
#1232=CARTESIAN_POINT('',(10.,40.,3.));
#1233=VECTOR('',#1234,1.);
#1234=DIRECTION('',(-1.,0.,0.));
#1235=CARTESIAN_POINT('',(0.,40.,3.));
#1236=VECTOR('',#1237,1.);
#1237=DIRECTION('',(0.,0.,-1.));
#1238=CARTESIAN_POINT('',(0.,57.,3.));
#1239=CARTESIAN_POINT('',(0.,57.,3.));
#1240=VECTOR('',#1241,1.);
#1241=DIRECTION('',(0.,-1.,-1.0449157878825E-16));
#1242=CARTESIAN_POINT('',(0.,57.,20.));
#1243=CARTESIAN_POINT('',(0.,57.,20.));
#1244=VECTOR('',#1245,1.);
#1245=DIRECTION('',(0.,0.,-1.));
#1246=CARTESIAN_POINT('',(0.,60.,20.));
#1247=VECTOR('',#1248,1.);
#1248=DIRECTION('',(0.,-1.,0.));
#1249=CARTESIAN_POINT('',(26.5,46.5,3.));
#1250=AXIS2_PLACEMENT_3D('',#1251,#1252,#1253);
#1251=CARTESIAN_POINT('',(25.,46.5,3.));
#1252=DIRECTION('',(0.,-8.66515531414756E-17,1.));
#1253=DIRECTION('',(1.,3.75424583091499E-33,3.25311232123693E-49));
#1254=CARTESIAN_POINT('',(0.,57.,20.));
#1255=VECTOR('',#1256,1.);
#1256=DIRECTION('',(1.,0.,0.));
#1257=CARTESIAN_POINT('',(26.5,57.,13.5));
#1258=AXIS2_PLACEMENT_3D('',#1259,#1260,#1261);
#1259=CARTESIAN_POINT('',(25.,57.,13.5));
#1260=DIRECTION('',(0.,-1.,0.));
#1261=DIRECTION('',(1.,0.,0.));
#1262=CARTESIAN_POINT('',(35.,36.5,5.));
#1263=CARTESIAN_POINT('',(35.,36.5,5.));
#1264=VECTOR('',#1265,1.);
#1265=DIRECTION('',(0.,1.,0.));
#1266=CARTESIAN_POINT('',(13.5,36.5,5.));
#1267=VECTOR('',#1268,1.);
#1268=DIRECTION('',(1.,0.,0.));
#1269=CARTESIAN_POINT('',(36.5,35.,5.));
#1270=VECTOR('',#1271,1.);
#1271=DIRECTION('',(0.,-1.,0.));
#1272=CARTESIAN_POINT('',(35.,57.,3.));
#1273=CARTESIAN_POINT('',(35.,57.,3.));
#1274=VECTOR('',#1275,1.);
#1275=DIRECTION('',(-1.,0.,0.));
#1276=CARTESIAN_POINT('',(35.,57.,23.5));
#1277=CARTESIAN_POINT('',(35.,57.,3.));
#1278=VECTOR('',#1279,1.);
#1279=DIRECTION('',(0.,0.,1.));
#1280=CARTESIAN_POINT('',(35.,57.,23.5));
#1281=VECTOR('',#1282,1.);
#1282=DIRECTION('',(-1.,0.,0.));
#1283=CARTESIAN_POINT('',(35.,57.,23.5));
#1284=VECTOR('',#1285,1.);
#1285=DIRECTION('',(0.,-1.,0.));
#1286=CARTESIAN_POINT('',(35.,36.5,3.));
#1287=CARTESIAN_POINT('',(35.,36.5,3.));
#1288=VECTOR('',#1289,1.);
#1289=DIRECTION('',(0.,1.,6.49886648561067E-17));
#1290=CARTESIAN_POINT('',(35.,36.5,5.));
#1291=VECTOR('',#1292,1.);
#1292=DIRECTION('',(0.,0.,-1.));
#1293=CARTESIAN_POINT('',(35.,36.5,3.));
#1294=VECTOR('',#1295,1.);
#1295=DIRECTION('',(-1.,0.,0.));
ENDSEC;
END-ISO-10303-21;
