M48
; DRILL file KiCad 10.0.3 date 2026-08-17T00:23:03
; FORMAT={-:-/ absolute / metric / decimal}
; #@! TF.CreationDate,2026-08-17T00:23:03+03:00
; #@! TF.GenerationSoftware,Kicad,Pcbnew,10.0.3
; #@! TF.FileFunction,MixedPlating,1,2
FMAT,2
METRIC
; #@! TA.AperFunction,Plated,PTH,ViaDrill
T1C0.800
; #@! TA.AperFunction,Plated,PTH,ComponentDrill
T2C0.800
; #@! TA.AperFunction,Plated,PTH,ComponentDrill
T3C0.950
; #@! TA.AperFunction,Plated,PTH,ComponentDrill
T4C1.000
; #@! TA.AperFunction,Plated,PTH,ViaDrill
T5C2.000
%
G90
G05
T1
X44.0Y-41.0
X44.0Y-55.0
X52.5Y-37.5
X53.888Y-75.009
X54.79Y-65.762
X55.119Y-80.119
X67.51Y-66.258
X68.005Y-32.345
X68.005Y-41.853
X68.201Y-80.304
X69.257Y-70.544
X72.281Y-83.926
X72.605Y-41.853
X72.605Y-122.877
X76.345Y-69.593
X77.252Y-65.762
X79.197Y-80.108
X81.957Y-70.479
X85.453Y-70.327
X90.95Y-46.635
X101.466Y-40.76
X101.466Y-54.76
X109.966Y-37.26
X111.354Y-74.769
X112.256Y-65.522
X112.585Y-79.879
X124.976Y-66.018
X125.471Y-32.105
X125.471Y-41.613
X125.667Y-80.064
X126.723Y-70.304
X129.747Y-83.686
X130.071Y-41.613
X130.071Y-122.637
X133.811Y-69.353
X134.718Y-65.522
X136.662Y-79.868
X139.423Y-70.239
X142.918Y-70.087
X148.416Y-46.395
T2
X73.64Y-48.61
X73.64Y-51.15
X73.64Y-53.69
X73.64Y-56.23
X73.64Y-58.77
X73.64Y-61.31
X73.64Y-63.85
X73.64Y-66.39
X85.0Y-75.0
X86.34Y-48.61
X86.34Y-51.15
X86.34Y-53.69
X86.34Y-56.23
X86.34Y-58.77
X86.34Y-61.31
X86.34Y-63.85
X86.34Y-66.39
X87.5Y-75.0
X131.106Y-48.37
X131.106Y-50.91
X131.106Y-53.45
X131.106Y-55.99
X131.106Y-58.53
X131.106Y-61.07
X131.106Y-63.61
X131.106Y-66.15
X142.466Y-74.76
X143.806Y-48.37
X143.806Y-50.91
X143.806Y-53.45
X143.806Y-55.99
X143.806Y-58.53
X143.806Y-61.07
X143.806Y-63.61
X143.806Y-66.15
X144.966Y-74.76
T3
X42.5Y-45.0
X42.5Y-47.5
X42.5Y-50.0
X45.0Y-130.0
X47.5Y-130.0
X50.0Y-130.0
X52.5Y-130.0
X76.25Y-38.025
X78.75Y-38.025
X81.25Y-38.025
X83.75Y-38.025
X99.966Y-44.76
X99.966Y-47.26
X99.966Y-49.76
X102.466Y-129.76
X104.966Y-129.76
X107.466Y-129.76
X109.966Y-129.76
X133.716Y-37.785
X136.216Y-37.785
X138.716Y-37.785
X141.216Y-37.785
T4
X44.76Y-85.0
X47.3Y-85.0
X47.5Y-35.0
X47.5Y-37.54
X47.5Y-40.08
X47.5Y-42.62
X47.5Y-45.16
X47.5Y-47.7
X47.5Y-50.24
X47.5Y-52.78
X47.5Y-55.32
X47.5Y-57.86
X47.5Y-60.4
X47.5Y-62.94
X47.5Y-65.48
X47.5Y-68.02
X47.5Y-70.56
X49.84Y-85.0
X49.84Y-120.44
X52.38Y-85.0
X54.92Y-85.0
X54.92Y-120.44
X57.46Y-85.0
X60.0Y-85.0
X62.74Y-35.0
X62.74Y-37.54
X62.74Y-40.08
X62.74Y-42.62
X62.74Y-45.16
X62.74Y-47.7
X62.74Y-50.24
X62.74Y-52.78
X62.74Y-55.32
X62.74Y-57.86
X62.74Y-60.4
X62.74Y-62.94
X62.74Y-65.48
X62.74Y-68.02
X62.74Y-70.56
X72.34Y-128.18
X77.42Y-128.18
X82.5Y-85.0
X87.58Y-85.0
X102.226Y-84.76
X104.766Y-84.76
X104.966Y-34.76
X104.966Y-37.3
X104.966Y-39.84
X104.966Y-42.38
X104.966Y-44.92
X104.966Y-47.46
X104.966Y-50.0
X104.966Y-52.54
X104.966Y-55.08
X104.966Y-57.62
X104.966Y-60.16
X104.966Y-62.7
X104.966Y-65.24
X104.966Y-67.78
X104.966Y-70.32
X107.306Y-84.76
X107.306Y-120.2
X109.846Y-84.76
X112.386Y-84.76
X112.386Y-120.2
X114.926Y-84.76
X117.466Y-84.76
X120.206Y-34.76
X120.206Y-37.3
X120.206Y-39.84
X120.206Y-42.38
X120.206Y-44.92
X120.206Y-47.46
X120.206Y-50.0
X120.206Y-52.54
X120.206Y-55.08
X120.206Y-57.62
X120.206Y-60.16
X120.206Y-62.7
X120.206Y-65.24
X120.206Y-67.78
X120.206Y-70.32
X129.806Y-127.94
X134.886Y-127.94
X139.966Y-84.76
X145.046Y-84.76
T5
X40.0Y-32.5
X40.0Y-132.5
X90.0Y-32.5
X90.0Y-132.5
X97.466Y-32.26
X97.466Y-132.26
X147.466Y-32.26
X147.466Y-132.26
M30
