M48
; DRILL file KiCad 10.0.3 date 2026-09-10T22:08:43
; FORMAT={-:-/ absolute / metric / decimal}
; #@! TF.CreationDate,2026-09-10T22:08:43+03:00
; #@! TF.GenerationSoftware,Kicad,Pcbnew,10.0.3
; #@! TF.FileFunction,MixedPlating,1,2
FMAT,2
METRIC
; #@! TA.AperFunction,Plated,PTH,ComponentDrill
T1C0.950
; #@! TA.AperFunction,Plated,PTH,ComponentDrill
T2C1.000
; #@! TA.AperFunction,Plated,PTH,ComponentDrill
T3C1.300
; #@! TA.AperFunction,Plated,PTH,ViaDrill
T4C2.100
%
G90
G05
T1
X84.113Y-69.712
X84.113Y-72.212
X84.113Y-74.712
X84.113Y-77.212
X84.113Y-113.462
X84.113Y-115.962
X84.113Y-118.462
X84.113Y-120.962
X92.129Y-69.712
X92.129Y-72.212
X92.129Y-74.712
X92.129Y-77.212
X92.129Y-113.462
X92.129Y-115.962
X92.129Y-118.462
X92.129Y-120.962
T2
X68.08Y-72.212
X68.08Y-74.712
X68.08Y-115.962
X68.08Y-118.462
X109.212Y-72.212
X109.212Y-74.712
X109.212Y-115.962
X109.212Y-118.462
T3
X68.605Y-54.0
X68.605Y-59.0
X68.605Y-97.75
X68.605Y-102.75
X108.72Y-54.5
X108.72Y-59.5
X108.72Y-98.25
X108.72Y-103.25
T4
X62.0Y-49.0
X62.0Y-81.5
X62.0Y-92.75
X62.0Y-125.25
X117.0Y-49.0
X117.0Y-81.5
X117.0Y-92.75
X117.0Y-125.25
M30
