M48
; DRILL file KiCad 10.0.3 date 2026-05-30T21:15:14
; FORMAT={-:-/ absolute / metric / decimal}
; #@! TF.CreationDate,2026-05-30T21:15:14+03:00
; #@! TF.GenerationSoftware,Kicad,Pcbnew,10.0.3
; #@! TF.FileFunction,MixedPlating,1,2
FMAT,2
METRIC
; #@! TA.AperFunction,Plated,PTH,ComponentDrill
T1C0.950
; #@! TA.AperFunction,Plated,PTH,ComponentDrill
T2C1.000
; #@! TA.AperFunction,Plated,PTH,ComponentDrill
T3C1.300
; #@! TA.AperFunction,Plated,PTH,ViaDrill
T4C2.100
%
G90
G05
T1
X84.613Y70.712
X84.613Y73.212
X84.613Y75.712
X84.613Y78.212
X84.613Y118.212
X84.613Y120.712
X84.613Y123.212
X84.613Y125.712
X92.629Y70.712
X92.629Y73.212
X92.629Y75.712
X92.629Y78.212
X92.629Y118.212
X92.629Y120.712
X92.629Y123.212
X92.629Y125.712
T2
X68.58Y73.212
X68.58Y75.712
X68.58Y120.712
X68.58Y123.212
X109.712Y73.212
X109.712Y75.712
X109.712Y120.712
X109.712Y123.212
T3
X69.105Y55.0
X69.105Y60.0
X69.105Y102.5
X69.105Y107.5
X109.22Y55.5
X109.22Y60.5
X109.22Y103.0
X109.22Y108.0
T4
X62.5Y50.0
X62.5Y82.5
X62.5Y97.5
X62.5Y130.0
X117.5Y50.0
X117.5Y82.5
X117.5Y97.5
X117.5Y130.0
M30
